<svg width="57" height="25" viewBox="0 0 57 25" fill="none" xmlns="http://www.w3.org/2000/svg">
<rect x="0.5" y="0.5" width="56" height="24" rx="12" stroke="white"/>
<circle cx="43.8841" cy="13.0052" r="9.22196" fill="white"/>
<path d="M44.2237 2.55273C38.5858 2.55273 34 7.13858 34 12.7764C34 18.4142 38.5858 23.0001 44.2237 23.0001C49.8615 23.0001 54.4473 18.4142 54.4473 12.7764C54.4473 7.13858 49.8615 2.55273 44.2237 2.55273ZM49.9862 19.1571C49.9862 19.1571 49.9825 19.1441 49.9788 19.1366C49.8894 18.9039 49.7125 18.7289 49.5059 18.6321C49.4016 18.5837 49.2936 18.5576 49.1782 18.5483C49.0627 18.5352 48.9454 18.5464 48.8319 18.5818C48.6028 18.6507 48.426 18.822 48.3143 19.0175C48.2025 19.213 48.1597 19.4569 48.2212 19.7008C48.2733 19.9093 48.398 20.0806 48.5656 20.1998C47.9605 20.5554 47.3088 20.8384 46.6218 21.0395C46.7521 20.8608 46.8136 20.6392 46.7745 20.4102C46.6925 19.9149 46.2438 19.5667 45.7728 19.6226C45.2998 19.6561 44.9256 20.0899 44.9368 20.5815C44.9442 20.8961 45.1211 21.1587 45.3836 21.3039C45.0038 21.356 44.6147 21.3821 44.2199 21.3821C43.7973 21.3821 43.3821 21.3504 42.9743 21.2909C43.0358 21.2611 43.0916 21.2257 43.1438 21.1847C43.3281 21.0376 43.4454 20.8161 43.4603 20.5666C43.4733 20.3189 43.384 20.0862 43.2369 19.9093C43.0879 19.7306 42.8812 19.6151 42.6411 19.5909C42.4027 19.5593 42.1719 19.6319 41.9875 19.7734C41.8032 19.913 41.6673 20.1141 41.6263 20.3618C41.5854 20.6057 41.6505 20.8496 41.7958 21.0358C41.0938 20.8291 40.4291 20.5368 39.8147 20.1681C39.9934 20.0508 40.1275 19.8739 40.1815 19.6542C40.2429 19.4122 40.1983 19.1664 40.0847 18.9672C39.9692 18.7717 39.7868 18.6116 39.5559 18.5408C39.3232 18.4738 39.0848 18.498 38.8782 18.6004C38.6715 18.7028 38.5002 18.8834 38.4146 19.1199C38.4146 19.1199 38.4146 19.1236 38.4146 19.1255C36.9604 17.7924 35.9662 15.9677 35.6943 13.9177C35.7297 13.942 35.7651 13.9643 35.8042 13.9829C36.0425 14.1021 36.305 14.1132 36.5303 14.0369C36.7556 13.9587 36.9437 13.793 37.0442 13.5658C37.1447 13.3368 37.1429 13.0892 37.0647 12.8751C36.9865 12.6572 36.8319 12.4729 36.6141 12.3649C36.3963 12.2551 36.1561 12.2439 35.9364 12.3109C35.8247 12.3444 35.7185 12.4003 35.6254 12.4748C35.7911 7.87589 39.582 4.18375 44.2199 4.18375C48.8579 4.18375 52.6599 7.8852 52.8145 12.4934C52.6916 12.3686 52.537 12.283 52.375 12.242C52.2633 12.2141 52.1479 12.2067 52.0362 12.2234C51.9226 12.2402 51.8128 12.2793 51.7048 12.3333C51.2821 12.5567 51.1164 13.106 51.3324 13.5565C51.5484 14.0071 52.1125 14.1672 52.591 13.9122C52.6562 13.8805 52.7121 13.8377 52.7623 13.793C52.5147 15.9156 51.4925 17.8035 49.9844 19.1664L49.9862 19.1571Z" fill="black"/>
<path d="M40.0874 13.9562C39.972 13.7607 39.7895 13.6005 39.5586 13.5298C39.3259 13.4628 39.0876 13.487 38.8809 13.5894C38.6742 13.6918 38.5029 13.8724 38.4173 14.1088C38.3335 14.3434 38.3558 14.5911 38.4657 14.8015C38.5755 15.0119 38.7729 15.1887 39.0298 15.2614C39.2849 15.3396 39.5456 15.3116 39.756 15.1925C39.9664 15.077 40.1228 14.8853 40.1824 14.6432C40.2438 14.4012 40.1991 14.1554 40.0855 13.9562H40.0874Z" fill="black"/>
<path d="M43.2395 14.4976C43.0906 14.3189 42.8839 14.2034 42.6437 14.1792C42.4054 14.1476 42.1745 14.2202 41.9902 14.3617C41.8059 14.5013 41.6699 14.7024 41.629 14.95C41.588 15.1958 41.6532 15.4397 41.8003 15.6278C41.9474 15.8121 42.1764 15.9443 42.4426 15.9797C42.7107 16.0076 42.9621 15.9238 43.1464 15.7767C43.3308 15.6296 43.4481 15.4081 43.4629 15.1586C43.476 14.9109 43.3866 14.6782 43.2395 14.5013V14.4976Z" fill="black"/>
<path d="M46.7779 14.9966C46.696 14.5013 46.2472 14.1531 45.7762 14.209C45.3033 14.2425 44.929 14.6763 44.9402 15.1679C44.9532 15.6743 45.4038 16.0504 45.9475 16.0113C46.4893 15.9499 46.8598 15.4881 46.7779 14.9966Z" fill="black"/>
<path d="M49.9468 14.8328C50.053 14.6169 50.0697 14.3674 49.9803 14.1346C49.891 13.9019 49.7141 13.7269 49.5074 13.6301C49.4032 13.5817 49.2952 13.5556 49.1797 13.5463C49.0643 13.5332 48.947 13.5444 48.8334 13.5798C48.6044 13.6487 48.4275 13.8181 48.3158 14.0155C48.2041 14.211 48.1613 14.4549 48.2227 14.6988C48.2842 14.9408 48.4424 15.1345 48.6547 15.2518C48.8669 15.3691 49.1276 15.3858 49.3845 15.3076C49.513 15.2667 49.6284 15.2052 49.7234 15.127C49.8184 15.047 49.8928 14.9446 49.9468 14.8366V14.8328Z" fill="black"/>
<path d="M38.1382 15.8063C37.6894 15.6499 37.1811 15.8826 36.9931 16.3481C36.8069 16.8099 37.0489 17.3424 37.5423 17.5155C37.7881 17.5975 38.0432 17.5807 38.2517 17.4727C38.4621 17.3647 38.626 17.1785 38.6986 16.9383C38.7712 16.7 38.7414 16.4542 38.639 16.2513C38.5366 16.0502 38.3653 15.8789 38.1382 15.8044V15.8063Z" fill="black"/>
<path d="M41.1418 16.6016C40.9072 16.5644 40.6763 16.6165 40.4883 16.7413C40.2983 16.8679 40.1513 17.0671 40.0954 17.311C40.0395 17.5549 40.088 17.797 40.2183 17.9943C40.3486 18.1917 40.559 18.3425 40.816 18.3835C41.0729 18.4282 41.3224 18.3723 41.5142 18.2345C41.7059 18.0949 41.8381 17.8845 41.8717 17.6369C41.9052 17.3892 41.8363 17.1528 41.7041 16.9703C41.5719 16.7878 41.3782 16.6445 41.1436 16.6054L41.1418 16.6016Z" fill="black"/>
<path d="M44.2163 16.9068C43.7471 16.89 43.3393 17.281 43.304 17.78C43.2705 18.279 43.6689 18.6998 44.1958 18.7165C44.7246 18.7109 45.1324 18.2976 45.1081 17.7986C45.0839 17.2996 44.6836 16.9012 44.2163 16.9068Z" fill="black"/>
<path d="M47.9357 16.8013C47.7476 16.6691 47.5168 16.6096 47.2859 16.6524C47.1705 16.6729 47.0643 16.7213 46.9694 16.7827C46.8744 16.8404 46.7925 16.9186 46.7255 17.008C46.5914 17.1905 46.5207 17.4269 46.5504 17.6746C46.5802 17.9222 46.7087 18.1345 46.8986 18.276C46.9936 18.3467 47.1034 18.3988 47.2226 18.4305C47.3418 18.4584 47.4684 18.4584 47.5968 18.4361C47.8556 18.3877 48.0698 18.2443 48.202 18.0544C48.3341 17.8608 48.3826 17.6094 48.3267 17.3674C48.2708 17.1216 48.1237 16.9298 47.9357 16.8013Z" fill="black"/>
<path d="M50.9241 15.7371C50.7137 15.6421 50.4772 15.6235 50.2557 15.7092C50.036 15.7948 49.8702 15.968 49.7697 16.1653C49.671 16.3683 49.645 16.6141 49.7194 16.8524C49.7939 17.0907 49.9596 17.275 50.1737 17.3812C50.3897 17.491 50.6448 17.5003 50.8887 17.4072C51.1345 17.3141 51.3188 17.1354 51.4138 16.9231C51.5087 16.7072 51.5087 16.4539 51.41 16.2249C51.3095 15.994 51.1307 15.8321 50.9222 15.7408L50.9241 15.7371Z" fill="black"/>
</svg>
