<svg width="30" height="30" viewBox="0 0 30 30" fill="none" xmlns="http://www.w3.org/2000/svg">
<g clip-path="url(#clip0_493_39)">
<path d="M30 14.9996C30 6.71533 23.2843 -0.000394821 15 -0.000394821C6.71572 -0.000394821 0 6.71533 0 14.9996C0 22.4865 5.48528 28.6921 12.6562 29.8174V19.3355H8.84766V14.9996H12.6562V11.6949C12.6562 7.93554 14.8956 5.85898 18.322 5.85898C19.9631 5.85898 21.6797 6.15195 21.6797 6.15195V9.84336H19.7882C17.9249 9.84336 17.3438 10.9996 17.3438 12.1858V14.9996H21.5039L20.8389 19.3355H17.3438V29.8174C24.5147 28.6921 30 22.4865 30 14.9996Z" fill="white"/>
</g>
<defs>
<clipPath id="clip0_493_39">
<rect width="30" height="30" fill="white"/>
</clipPath>
</defs>
</svg>
