<svg width="29" height="30" viewBox="0 0 29 30" fill="none" xmlns="http://www.w3.org/2000/svg">
<g clip-path="url(#clip0_493_37)">
<path d="M8.4947 0.104906C6.9519 0.180206 5.89833 0.434906 4.97729 0.809306C4.02406 1.19361 3.21612 1.70931 2.41224 2.54391C1.60836 3.37851 1.11333 4.21491 0.744453 5.20251C0.387463 6.15741 0.145604 7.24821 0.0774535 8.84511C0.00930352 10.442 -0.00577649 10.9553 0.00176351 15.0287C0.00930351 19.1021 0.0267035 19.6127 0.101524 21.2129C0.175184 22.8086 0.420523 23.8982 0.782443 24.8513C1.15451 25.8374 1.65244 26.6729 2.45951 27.5048C3.26658 28.3367 4.07452 28.8476 5.03152 29.2298C5.95372 29.5985 7.00845 29.8499 8.55183 29.9198C10.0952 29.9897 10.592 30.0059 14.5284 29.9981C18.4649 29.9903 18.9605 29.9723 20.5071 29.8964C22.0537 29.8205 23.1014 29.5649 24.023 29.1923C24.9763 28.8065 25.7845 28.2923 26.5881 27.4571C27.3917 26.6219 27.8864 25.7849 28.255 24.7967C28.6123 23.8427 28.855 22.7516 28.922 21.1562C28.9896 19.5551 29.0055 19.0439 28.998 14.9711C28.9904 10.8983 28.9728 10.3877 28.8994 8.78811C28.826 7.18851 28.5804 6.10221 28.2188 5.14851C27.8461 4.16241 27.3488 3.32751 26.542 2.49501C25.7352 1.66251 24.9255 1.15101 23.9706 0.770607C23.0478 0.401306 21.9936 0.149606 20.4502 0.0806064C18.9069 0.0116064 18.4101 -0.00609358 14.4722 0.00170642C10.5343 0.00950642 10.0413 0.0269064 8.4947 0.104906ZM8.66406 27.2213C7.25031 27.1577 6.48268 26.9147 5.97112 26.7113C5.29368 26.4413 4.81112 26.1149 4.3013 25.5926C3.79148 25.0703 3.47828 24.5693 3.2138 23.87C3.01515 23.3408 2.7759 22.5476 2.70978 21.0851C2.63786 19.5044 2.62278 19.0298 2.61437 15.0251C2.60596 11.0204 2.62075 10.5464 2.68774 8.96511C2.74806 7.50381 2.98441 6.70881 3.18074 6.17991C3.44174 5.47821 3.7561 4.97991 4.26215 4.45281C4.7682 3.92571 5.25105 3.60111 5.92762 3.32751C6.4386 3.12111 7.20536 2.87571 8.61853 2.80611C10.1477 2.73111 10.6059 2.71611 14.4765 2.70741C18.3472 2.69871 18.8065 2.71371 20.3363 2.78331C21.7489 2.84691 22.5177 3.08901 23.0283 3.29331C23.7061 3.56331 24.1883 3.88761 24.6979 4.41201C25.2074 4.93641 25.5215 5.43411 25.7859 6.13551C25.9858 6.66261 26.223 7.45551 26.2897 8.91831C26.3625 10.5002 26.379 10.9745 26.386 14.9783C26.3929 18.9821 26.3793 19.4576 26.3123 21.0383C26.2505 22.5008 26.0162 23.2952 25.8193 23.825C25.5583 24.5255 25.2437 25.025 24.7373 25.5518C24.231 26.0786 23.7487 26.4032 23.0718 26.6768C22.5614 26.8829 21.7938 27.1289 20.3818 27.1985C18.8526 27.2729 18.3944 27.2885 14.5224 27.2972C10.6503 27.3059 10.1935 27.2897 8.66435 27.2213M20.4848 6.98301C20.4853 7.33904 20.5879 7.6869 20.7796 7.98259C20.9713 8.27828 21.2435 8.50852 21.5617 8.64419C21.8799 8.77986 22.2298 8.81487 22.5673 8.74478C22.9047 8.6747 23.2145 8.50267 23.4574 8.25046C23.7003 7.99825 23.8654 7.67718 23.9319 7.32786C23.9985 6.97854 23.9633 6.61666 23.831 6.28799C23.6987 5.95932 23.4751 5.67862 23.1886 5.4814C22.9021 5.28418 22.5654 5.1793 22.2213 5.18001C21.7599 5.18096 21.3178 5.37144 20.9921 5.70955C20.6665 6.04766 20.484 6.50572 20.4848 6.98301ZM7.05485 15.0149C7.06297 19.2689 10.4026 22.7096 14.5139 22.7015C18.6253 22.6934 21.9536 19.2389 21.9458 14.9849C21.9379 10.7309 18.5974 7.28931 14.4855 7.29771C10.3736 7.30611 7.04702 10.7615 7.05485 15.0149ZM9.66659 15.0095C9.6647 14.0206 9.94633 13.0533 10.4759 12.2299C11.0054 11.4066 11.759 10.7642 12.6415 10.3839C13.524 10.0037 14.4956 9.90266 15.4336 10.0937C16.3715 10.2847 17.2337 10.7591 17.911 11.457C18.5883 12.1549 19.0503 13.0449 19.2387 14.0144C19.427 14.984 19.3333 15.9895 18.9692 16.9039C18.6051 17.8183 17.9871 18.6005 17.1933 19.1515C16.3995 19.7026 15.4656 19.9977 14.5096 19.9997C13.8748 20.0011 13.246 19.8731 12.6591 19.623C12.0722 19.373 11.5386 19.0058 11.0889 18.5424C10.6391 18.079 10.2821 17.5285 10.038 16.9223C9.79398 16.3161 9.66777 15.6662 9.66659 15.0095Z" fill="white"/>
</g>
<defs>
<clipPath id="clip0_493_37">
<rect width="29" height="30" fill="white"/>
</clipPath>
</defs>
</svg>
