<svg width="1158" height="339" viewBox="0 0 1158 339" fill="none" xmlns="http://www.w3.org/2000/svg">
<path d="M673.081 138.82C673.081 132.189 678.219 127.032 684.824 127.032C691.43 127.032 696.568 132.189 696.568 138.82C696.568 145.451 691.43 150.608 684.824 150.608C678.586 150.608 673.081 145.451 673.081 138.82ZM386.466 152.081C386.466 145.451 391.604 140.293 398.21 140.293C404.815 140.293 409.953 145.451 409.953 152.081C409.953 158.712 404.815 163.87 398.21 163.87C391.971 164.238 386.466 158.712 386.466 152.081ZM355.64 123.716V127.768L333.621 160.186L294.72 215.074C278.206 236.809 260.958 266.647 230.498 268.489C212.149 271.068 194.167 263.7 184.625 250.439C181.689 244.913 176.551 238.651 178.386 231.283C180.955 228.336 185.359 226.863 189.396 226.494C198.203 227.599 198.203 238.651 204.442 242.334C212.149 249.702 225.727 251.544 235.636 247.123C245.911 242.703 252.884 234.967 259.857 226.862L322.244 139.188C328.85 132.189 331.419 119.296 343.529 118.559C347.933 119.296 353.438 119.296 355.64 123.716ZM487.02 72.5115C488.855 76.1953 490.69 80.2474 489.222 84.668C479.313 103.455 456.56 104.192 437.11 105.297L411.788 104.929L316.372 101.245C295.454 99.7716 275.27 102.719 259.123 112.665C254.719 116.349 249.948 120.401 249.948 126.295C251.783 130.715 256.921 131.084 261.325 131.084C271.967 131.452 280.775 127.768 289.949 124.821C292.885 124.085 296.188 124.453 298.39 125.927C300.959 127.768 301.326 130.715 301.693 133.662C302.06 136.61 300.959 138.451 299.124 140.662C286.647 150.24 270.132 150.976 253.985 150.24C241.875 149.871 232.333 142.872 228.296 132.189C224.993 116.349 236.37 105.297 246.645 96.8245C287.748 72.1431 343.896 83.9312 392.338 84.668C414.724 85.0364 438.211 85.7731 459.863 82.0893C467.937 80.6158 474.542 75.4585 480.414 70.3012C482.616 69.1961 485.185 71.4063 487.02 72.5115ZM735.835 219.495C738.771 209.917 734.734 199.971 730.33 192.972L719.321 215.074V216.548C722.257 219.863 726.66 225.021 732.532 223.547C733.266 222.074 735.101 220.968 735.835 219.495ZM613.262 176.763C612.161 171.237 606.657 175.658 604.822 177.868C598.95 185.604 593.445 195.919 597.849 205.865C606.657 199.602 614.73 189.288 613.262 176.763ZM562.619 121.874C561.885 120.769 561.151 119.296 559.316 119.296C551.976 120.769 547.205 125.927 542.801 131.452C531.058 147.293 521.516 165.343 521.516 186.709C534.361 175.658 544.636 161.659 553.444 148.766C557.848 140.662 564.087 132.557 562.619 121.874ZM576.931 105.666C589.041 122.979 578.766 144.345 570.325 160.186C557.848 180.078 543.535 195.182 525.553 209.549C526.654 214.338 529.957 217.653 533.994 220.232C542.068 225.021 554.545 226.863 564.087 222.81C568.857 220.968 572.527 217.653 576.931 214.338C574.729 201.813 576.564 187.814 581.702 177.131C588.307 165.711 599.317 154.66 614.363 155.028C621.703 155.028 628.309 159.817 631.245 166.08C636.382 178.973 632.713 193.708 623.905 204.023C618.767 210.285 613.629 214.706 607.758 219.495C611.794 223.547 619.134 224.652 625.373 223.179C632.346 220.6 639.685 216.916 644.089 211.022C650.695 196.287 656.2 179.71 662.071 164.238C664.273 160.554 668.31 158.344 672.714 158.344C676.751 157.976 680.787 159.081 682.622 162.028C683.723 164.975 682.622 167.922 681.521 170.5C676.384 183.762 670.879 196.655 667.209 210.285C666.842 214.338 667.943 219.127 671.613 220.968C679.32 223.547 686.659 218.758 691.43 213.601C705.742 197.761 717.119 177.868 722.624 155.765C723.725 153.555 724.826 151.713 727.027 150.608C729.963 149.871 734 149.871 736.569 151.345C740.973 155.028 740.606 161.659 743.542 166.448C751.248 181.92 758.955 197.761 757.487 216.548C772.533 213.232 779.506 198.129 787.213 186.341C788.681 184.13 789.782 181.552 790.516 179.342C786.112 178.236 779.139 180.815 776.937 175.289C775.469 171.606 775.836 166.817 778.038 163.501C782.442 156.502 793.085 160.186 801.158 159.081C805.195 152.45 807.764 145.451 811.067 138.82C812.535 136.978 815.104 136.241 817.673 136.61C823.177 138.451 827.948 142.872 828.682 149.134C827.948 152.45 826.48 155.765 825.012 158.712L825.746 159.449L861.344 159.817C863.545 160.186 865.747 160.554 866.848 162.764C868.683 165.711 867.949 169.395 867.215 172.342C866.114 175.289 863.546 177.868 860.61 178.605C844.829 179.342 830.15 179.71 814.003 179.71C808.131 188.919 802.626 198.129 798.589 208.075C797.488 211.391 797.121 216.179 798.956 219.495C801.525 223.547 807.03 225.021 812.168 224.284C819.874 223.915 826.113 219.863 831.618 215.074C833.453 213.969 835.655 214.338 837.857 215.074C839.692 216.179 841.893 218.021 842.26 220.6C844.095 226.494 841.159 231.651 836.756 235.335C826.48 244.176 811.801 247.123 798.589 243.44C790.516 241.229 783.91 236.44 778.772 229.441C769.598 235.704 758.955 239.387 746.845 238.651C740.973 245.281 730.33 245.65 722.257 242.703C714.917 240.493 710.146 234.598 704.641 229.441C693.999 237.546 680.053 247.123 665.741 240.493C660.97 238.282 656.933 234.967 652.897 231.283C641.153 241.598 622.804 247.123 606.29 241.229C599.317 239.019 593.078 235.335 587.941 230.546C579.133 234.967 571.426 240.124 561.885 242.703C543.168 247.86 523.351 241.598 512.709 227.231C511.241 225.021 509.773 223.179 508.672 221.337C498.763 227.231 488.855 234.967 477.478 239.387C462.432 246.018 439.312 250.07 426.101 237.546C423.165 234.967 420.596 232.02 418.761 229.073C415.458 230.546 413.256 233.493 409.953 235.704C397.109 245.281 376.558 248.229 361.144 241.229C356.741 238.651 353.438 232.757 351.97 228.336C340.96 234.23 331.419 242.334 318.941 245.281C311.969 246.387 307.932 239.756 304.262 235.704C303.528 234.23 303.895 232.388 304.629 230.915C307.198 227.231 312.336 227.968 315.638 225.757C331.052 219.127 345.731 211.022 355.64 196.287C361.511 188.551 366.649 179.342 372.521 171.237C375.457 167.922 379.861 167.185 383.897 168.29C386.833 169.027 390.503 170.869 390.87 174.184V176.026C386.466 188.919 375.457 198.866 371.053 211.759C370.319 214.706 370.319 218.39 371.787 220.968C374.356 224.652 379.127 225.389 383.163 224.284C412.155 218.021 419.495 190.393 434.541 170.132V169.395C430.137 167.922 422.064 171.237 421.697 164.975C421.33 159.081 423.899 155.028 428.302 152.081C433.44 150.24 440.413 150.976 446.285 150.608C451.789 145.451 451.789 131.821 463.9 134.399C467.57 134.399 471.974 135.873 473.442 139.925C473.808 143.977 470.506 146.924 469.405 150.24C475.643 150.976 482.616 150.24 488.855 150.608C490.323 151.345 491.424 152.45 491.791 153.923C492.158 159.817 488.855 165.343 484.084 167.553C476.377 169.764 466.836 168.29 458.762 169.027L437.11 205.128C435.275 209.18 433.807 214.706 436.376 218.758C441.514 225.757 451.055 226.494 458.762 225.021C474.909 219.863 488.121 210.285 500.965 200.708C496.928 163.133 513.076 130.715 537.297 107.139C545.003 100.14 555.279 95.7194 566.655 97.9297C570.692 99.7716 574.362 101.982 576.931 105.666ZM855.839 149.134H857.307V145.819H858.408C859.142 145.819 859.876 145.819 860.243 146.187C860.61 146.556 860.977 147.293 860.977 148.029V148.766V149.134H862.445V148.766C862.445 148.398 862.445 148.398 862.445 148.029V147.293C862.445 146.924 862.445 146.556 862.078 145.819C861.711 145.451 861.344 145.082 860.61 145.082C860.977 145.082 861.711 144.714 861.711 144.714C862.445 144.345 862.445 143.609 862.445 142.872C862.445 141.767 862.078 141.03 860.977 140.662C860.61 140.293 859.876 140.293 858.775 140.293H855.839V149.134ZM859.876 144.714C859.509 144.714 859.142 145.082 858.408 145.082H856.94V141.767H858.408C859.142 141.767 859.876 141.767 860.243 142.135C860.61 142.504 860.977 142.872 860.977 143.24C860.977 143.977 860.61 144.345 859.876 144.714ZM864.279 139.188C862.812 137.715 860.977 136.978 858.775 136.978C856.573 136.978 854.738 137.715 853.27 139.188C851.802 140.662 851.068 142.504 851.068 144.714C851.068 146.924 851.802 148.766 853.27 150.24C854.738 151.713 856.573 152.45 858.775 152.45C860.977 152.45 862.812 151.713 864.279 150.24C865.747 148.766 866.481 146.924 866.481 144.714C866.848 142.872 866.114 141.03 864.279 139.188ZM863.546 140.293C865.013 141.767 865.38 143.24 865.38 145.082C865.38 146.924 864.646 148.766 863.546 149.871C862.078 151.345 860.61 151.713 858.775 151.713C856.94 151.713 855.472 150.976 854.004 149.871C852.536 148.398 852.169 146.924 852.169 145.082C852.169 143.24 852.903 141.767 854.004 140.293C855.472 138.82 856.94 138.451 858.775 138.451C860.61 138.083 862.445 138.82 863.546 140.293Z" fill="white"/>
</svg>
