<svg width="377" height="83" viewBox="0 0 377 83" fill="none" xmlns="http://www.w3.org/2000/svg">
<path d="M0.553594 0.959993H23.8336C32.8336 0.959993 39.0736 1.92 44.9536 7.07999C51.4336 12.84 53.1136 20.64 53.1136 26.4C53.1136 29.52 52.6336 38.16 46.5136 44.28C42.0736 48.72 35.4736 51.36 26.2336 51.36H16.1536V81H0.553594V0.959993ZM16.1536 14.4V37.92H22.5136C25.5136 37.92 29.3536 37.92 32.7136 35.4C35.5936 33.12 37.0336 29.52 37.0336 26.04C37.0336 21.6 34.8736 18.6 32.5936 16.92C29.3536 14.64 25.2736 14.4 21.5536 14.4H16.1536ZM64.6552 0.959993H80.2552V51.24C80.2552 57.36 82.2952 61.08 84.0952 63.12C86.3752 65.88 90.5752 68.64 96.8152 68.64C103.055 68.64 107.255 65.88 109.535 63.12C111.335 61.08 113.375 57.36 113.375 51.24V0.959993H128.975V49.92C128.975 57.48 127.775 65.16 122.975 71.28C117.215 78.84 107.135 82.8 96.8152 82.8C86.4952 82.8 76.4152 78.84 70.6552 71.28C65.8552 65.16 64.6552 57.48 64.6552 49.92V0.959993ZM190.472 14.4H172.472V81H156.872V14.4H138.872V0.959993H190.472V14.4ZM248.363 14.4H230.363V81H214.763V14.4H196.763V0.959993H248.363V14.4ZM302.649 0.959993V14.4H273.849V32.28H301.449V45.72H273.849V67.56H302.649V81H258.249V0.959993H302.649ZM317.78 0.959993H340.94C351.98 0.959993 357.62 3.84 361.34 6.95999C367.46 12.12 369.26 18.96 369.26 24.96C369.26 32.76 366.14 39.6 359.9 43.8C357.86 45.24 354.98 46.56 351.14 47.28L376.1 81H356.66L335.3 48.84H333.38V81H317.78V0.959993ZM333.38 13.68V37.8H337.82C340.82 37.8 353.18 37.44 353.18 25.68C353.18 13.8 340.94 13.68 338.06 13.68H333.38Z" fill="white"/>
</svg>
