<svg width="409" height="626" viewBox="0 0 409 626" fill="none" xmlns="http://www.w3.org/2000/svg">
<path d="M166.495 37.96H186.295C190.735 37.96 199.375 37.96 205.855 43C210.535 46.6 213.295 52.84 213.295 59.56C213.295 69.88 206.455 74.08 204.295 75.28C209.575 76.12 212.695 78.4 214.735 80.32C219.535 84.88 220.495 91.12 220.495 95.32C220.495 100 219.175 106.6 213.655 111.52C207.655 116.8 200.335 118 193.375 118H166.495V37.96ZM182.095 50.68V71.2H186.535C188.935 71.2 198.655 70.96 198.655 60.76C198.655 53.44 193.015 50.68 186.655 50.68H182.095ZM182.095 83.2V105.28H188.815C191.695 105.28 196.015 105.16 199.495 103.12C203.335 100.84 204.415 97 204.415 93.88C204.415 91.36 203.575 87.04 198.535 84.76C195.175 83.2 191.215 83.2 187.855 83.2H182.095ZM289.413 118L282.333 101.2H250.053L242.973 118H226.053L260.493 37.96H272.733L306.213 118H289.413ZM254.973 88.48H277.773L266.373 59.68L254.973 88.48ZM315.558 37.96H331.158V104.56H355.878V118H315.558V37.96ZM366.651 37.96H382.251V104.56H406.971V118H366.651V37.96Z" fill="#363636"/>
<path d="M31.5536 273.96H54.8336C63.8336 273.96 70.0736 274.92 75.9536 280.08C82.4336 285.84 84.1136 293.64 84.1136 299.4C84.1136 302.52 83.6336 311.16 77.5136 317.28C73.0736 321.72 66.4736 324.36 57.2336 324.36H47.1536V354H31.5536V273.96ZM47.1536 287.4V310.92H53.5136C56.5136 310.92 60.3536 310.92 63.7136 308.4C66.5936 306.12 68.0336 302.52 68.0336 299.04C68.0336 294.6 65.8736 291.6 63.5936 289.92C60.3536 287.64 56.2736 287.4 52.5536 287.4H47.1536ZM95.6552 273.96H111.255V324.24C111.255 330.36 113.295 334.08 115.095 336.12C117.375 338.88 121.575 341.64 127.815 341.64C134.055 341.64 138.255 338.88 140.535 336.12C142.335 334.08 144.375 330.36 144.375 324.24V273.96H159.975V322.92C159.975 330.48 158.775 338.16 153.975 344.28C148.215 351.84 138.135 355.8 127.815 355.8C117.495 355.8 107.415 351.84 101.655 344.28C96.8552 338.16 95.6552 330.48 95.6552 322.92V273.96ZM221.472 287.4H203.472V354H187.872V287.4H169.872V273.96H221.472V287.4ZM279.363 287.4H261.363V354H245.763V287.4H227.763V273.96H279.363V287.4ZM333.649 273.96V287.4H304.849V305.28H332.449V318.72H304.849V340.56H333.649V354H289.249V273.96H333.649ZM348.78 273.96H371.94C382.98 273.96 388.62 276.84 392.34 279.96C398.46 285.12 400.26 291.96 400.26 297.96C400.26 305.76 397.14 312.6 390.9 316.8C388.86 318.24 385.98 319.56 382.14 320.28L407.1 354H387.66L366.3 321.84H364.38V354H348.78V273.96ZM364.38 286.68V310.8H368.82C371.82 310.8 384.18 310.44 384.18 298.68C384.18 286.8 371.94 286.68 369.06 286.68H364.38Z" fill="#363636"/>
<path d="M58.5008 539.24L40.1408 590H28.3808L0.540781 509.96H17.1008L34.9808 564.44L54.5408 509.24H63.1808L81.6608 564.44L100.861 509.96H117.421L87.7808 590H76.0208L58.5008 539.24ZM171.125 509.96V523.4H142.325V541.28H169.925V554.72H142.325V576.56H171.125V590H126.725V509.96H171.125ZM186.257 509.96H207.137C218.297 509.96 228.017 511.16 236.897 517.76C246.617 525.08 252.257 536.72 252.257 550.04C252.257 563.36 246.737 574.88 236.177 582.32C226.817 588.92 218.057 590 206.897 590H186.257V509.96ZM201.857 523.4V576.56H206.657C210.617 576.56 219.257 576.32 226.217 571.28C232.577 566.72 236.177 558.56 236.177 550.04C236.177 541.64 232.697 533.48 226.337 528.68C219.857 523.88 211.937 523.4 206.657 523.4H201.857ZM307.207 560.6V547.16H343.927V548.12C343.927 553.52 343.207 570.32 332.167 581.24C323.887 589.52 313.687 591.8 303.727 591.8C293.767 591.8 283.447 589.76 274.687 581C271.927 578.24 262.807 568.16 262.807 550.16C262.807 534.68 269.767 525.2 274.567 520.4C280.567 514.28 290.647 508.16 306.127 508.16C312.127 508.16 318.487 509.12 324.607 512.36C329.767 515 335.407 519.8 339.607 527L326.047 534.32C323.287 528.92 319.207 526.16 316.687 524.84C313.327 523.16 309.127 522.32 305.407 522.32C299.047 522.32 291.847 524.6 286.927 529.4C282.367 533.84 278.887 541.52 278.887 550.52C278.887 561.2 283.447 567.56 286.807 570.8C290.407 574.28 296.047 577.64 304.567 577.64C309.847 577.64 315.847 576.2 320.287 572.84C323.407 570.44 326.527 566.36 327.847 560.6H307.207ZM402.688 509.96V523.4H373.888V541.28H401.488V554.72H373.888V576.56H402.688V590H358.288V509.96H402.688Z" fill="#363636"/>
</svg>
