<svg width="592" height="180" viewBox="0 0 592 180" fill="none" xmlns="http://www.w3.org/2000/svg">
<path d="M76.0882 67.8272L38.7335 88.8406C38.5284 88.9568 38.3577 89.1255 38.2389 89.3293C38.1202 89.5331 38.0576 89.7647 38.0576 90.0006C38.0576 90.2364 38.1202 90.468 38.2389 90.6718C38.3577 90.8756 38.5284 91.0443 38.7335 91.1606L76.0882 112.174C76.3277 112.308 76.6026 112.364 76.8754 112.336C77.1482 112.308 77.4056 112.196 77.6126 112.016C77.8196 111.836 77.9661 111.597 78.0321 111.331C78.0982 111.064 78.0805 110.784 77.9815 110.529L70.1895 90.4832C70.069 90.1727 70.069 89.8284 70.1895 89.5179L77.9842 69.4726C78.0837 69.2165 78.1017 68.9359 78.0357 68.6691C77.9697 68.4024 77.8228 68.1626 77.6153 67.9826C77.4078 67.8025 77.1497 67.6909 76.8764 67.6631C76.603 67.6353 76.3277 67.6926 76.0882 67.8272Z" stroke="#AF001B" stroke-width="1.5" stroke-linecap="round" stroke-linejoin="round"/>
<path d="M550.568 163.78C548.208 163.78 546.088 163.24 544.208 162.16C542.368 161.08 540.908 159.6 539.828 157.72C538.788 155.8 538.268 153.64 538.268 151.24C538.268 148.88 538.788 146.78 539.828 144.94C540.908 143.1 542.388 141.66 544.268 140.62C546.148 139.58 548.268 139.06 550.628 139.06C552.948 139.06 555.028 139.6 556.868 140.68C558.708 141.72 560.128 143.18 561.128 145.06C562.168 146.94 562.688 149.06 562.688 151.42C562.688 153.78 562.168 155.9 561.128 157.78C560.088 159.66 558.648 161.14 556.808 162.22C554.968 163.26 552.888 163.78 550.568 163.78ZM551.228 162.94C553.628 162.94 555.428 161.98 556.628 160.06C557.868 158.1 558.488 155.46 558.488 152.14C558.488 148.14 557.668 145.1 556.028 143.02C554.428 140.94 552.408 139.9 549.968 139.9C547.608 139.9 545.748 140.9 544.388 142.9C543.068 144.9 542.408 147.52 542.408 150.76C542.408 154.32 543.208 157.24 544.808 159.52C546.408 161.8 548.548 162.94 551.228 162.94ZM589.602 160.36C589.762 160.36 589.842 160.74 589.842 161.5C589.842 161.82 589.802 162.14 589.722 162.46C589.682 162.78 589.622 162.94 589.542 162.94C588.342 162.86 586.662 162.78 584.502 162.7V172.18C584.502 172.62 584.342 172.9 584.022 173.02L581.502 174.28C581.262 174.36 581.142 174.4 581.142 174.4C581.022 174.4 580.962 174.24 580.962 173.92V162.64C578.442 162.56 573.622 162.52 566.502 162.52C566.302 162.52 566.142 162.44 566.022 162.28C565.902 162.12 565.922 161.96 566.082 161.8L583.602 139.24C583.682 139.16 583.802 139.12 583.962 139.12C584.082 139.12 584.202 139.16 584.322 139.24C584.442 139.28 584.502 139.36 584.502 139.48V160.48C585.422 160.48 587.122 160.44 589.602 160.36ZM569.442 160.72C572.882 160.72 576.722 160.68 580.962 160.6V145.18L569.142 160.3C569.022 160.42 568.982 160.52 569.022 160.6C569.102 160.68 569.242 160.72 569.442 160.72Z" fill="#AF001B"/>
<circle cx="90" cy="90" r="89" stroke="#AF001B" stroke-width="2"/>
</svg>
