<svg width="180" height="180" viewBox="0 0 180 180" fill="none" xmlns="http://www.w3.org/2000/svg">
<circle opacity="0.4" cx="90" cy="90" r="90" fill="#AF001B"/>
<path d="M76.088 67.8272L38.7333 88.8406C38.5281 88.9568 38.3574 89.1255 38.2387 89.3293C38.1199 89.5331 38.0574 89.7647 38.0574 90.0006C38.0574 90.2364 38.1199 90.468 38.2387 90.6718C38.3574 90.8756 38.5281 91.0443 38.7333 91.1606L76.088 112.174C76.3275 112.308 76.6023 112.364 76.8751 112.336C77.1479 112.308 77.4054 112.196 77.6124 112.016C77.8194 111.836 77.9659 111.597 78.0319 111.331C78.0979 111.064 78.0803 110.784 77.9813 110.529L70.1893 90.4832C70.0687 90.1727 70.0687 89.8284 70.1893 89.5179L77.984 69.4726C78.0835 69.2165 78.1015 68.9359 78.0354 68.6691C77.9694 68.4024 77.8226 68.1626 77.6151 67.9826C77.4076 67.8025 77.1495 67.6909 76.8761 67.6631C76.6028 67.6353 76.3275 67.6926 76.088 67.8272Z" fill="white"/>
</svg>
