<svg width="460" height="180" viewBox="0 0 460 180" fill="none" xmlns="http://www.w3.org/2000/svg">
<path d="M76.088 67.8272L38.7333 88.8406C38.5281 88.9568 38.3574 89.1255 38.2387 89.3293C38.1199 89.5331 38.0574 89.7647 38.0574 90.0006C38.0574 90.2364 38.1199 90.468 38.2387 90.6718C38.3574 90.8756 38.5281 91.0443 38.7333 91.1606L76.088 112.174C76.3275 112.308 76.6023 112.364 76.8751 112.336C77.1479 112.308 77.4054 112.196 77.6124 112.016C77.8194 111.836 77.9659 111.597 78.0319 111.331C78.0979 111.064 78.0803 110.784 77.9813 110.529L70.1893 90.4832C70.0687 90.1727 70.0687 89.8284 70.1893 89.5179L77.984 69.4726C78.0835 69.2165 78.1015 68.9359 78.0354 68.6691C77.9694 68.4024 77.8226 68.1626 77.6151 67.9826C77.4076 67.8025 77.1495 67.6909 76.8761 67.6631C76.6028 67.6353 76.3275 67.6926 76.088 67.8272Z" stroke="#AF001B" stroke-width="1.5" stroke-linecap="round" stroke-linejoin="round"/>
<path d="M421.533 163.78C419.173 163.78 417.053 163.24 415.173 162.16C413.333 161.08 411.873 159.6 410.793 157.72C409.753 155.8 409.233 153.64 409.233 151.24C409.233 148.88 409.753 146.78 410.793 144.94C411.873 143.1 413.353 141.66 415.233 140.62C417.113 139.58 419.233 139.06 421.593 139.06C423.913 139.06 425.993 139.6 427.833 140.68C429.673 141.72 431.093 143.18 432.093 145.06C433.133 146.94 433.653 149.06 433.653 151.42C433.653 153.78 433.133 155.9 432.093 157.78C431.053 159.66 429.613 161.14 427.773 162.22C425.933 163.26 423.853 163.78 421.533 163.78ZM422.193 162.94C424.593 162.94 426.393 161.98 427.593 160.06C428.833 158.1 429.453 155.46 429.453 152.14C429.453 148.14 428.633 145.1 426.993 143.02C425.393 140.94 423.373 139.9 420.933 139.9C418.573 139.9 416.713 140.9 415.353 142.9C414.033 144.9 413.373 147.52 413.373 150.76C413.373 154.32 414.173 157.24 415.773 159.52C417.373 161.8 419.513 162.94 422.193 162.94ZM437.947 162.1C441.467 159.22 444.187 156.88 446.107 155.08C448.027 153.24 449.407 151.6 450.247 150.16C451.087 148.72 451.507 147.28 451.507 145.84C451.507 144.24 451.007 142.94 450.007 141.94C449.047 140.9 447.787 140.38 446.227 140.38C443.067 140.38 440.787 142.86 439.387 147.82C439.387 147.86 439.307 147.88 439.147 147.88C438.787 147.88 438.627 147.8 438.667 147.64L441.007 138.52C441.007 138.44 441.087 138.4 441.247 138.4C441.367 138.4 441.467 138.44 441.547 138.52C441.667 138.56 441.707 138.6 441.667 138.64C441.627 138.8 441.607 139.02 441.607 139.3C441.607 139.94 441.907 140.26 442.507 140.26C442.867 140.26 443.467 140.12 444.307 139.84C445.947 139.32 447.407 139.06 448.687 139.06C450.727 139.06 452.327 139.62 453.487 140.74C454.687 141.82 455.287 143.24 455.287 145C455.287 146.4 454.827 147.8 453.907 149.2C453.027 150.6 451.707 152.1 449.947 153.7C448.227 155.26 445.807 157.24 442.687 159.64C442.527 159.76 442.467 159.86 442.507 159.94C442.587 160.02 442.727 160.06 442.927 160.06C447.327 160.06 450.387 160 452.107 159.88C453.827 159.76 455.067 159.44 455.827 158.92C456.587 158.4 457.107 157.48 457.387 156.16C457.387 156.08 457.487 156.04 457.687 156.04C457.967 156.04 458.107 156.1 458.107 156.22L457.207 162.34C457.207 162.5 457.147 162.66 457.027 162.82C456.947 162.94 456.827 163 456.667 163H438.367C438.167 163 438.007 162.9 437.887 162.7C437.767 162.46 437.787 162.26 437.947 162.1Z" fill="#AF001B"/>
<circle cx="90" cy="90" r="89" stroke="#AF001B" stroke-width="2"/>
</svg>
