<svg width="403" height="84" viewBox="0 0 403 84" fill="none" xmlns="http://www.w3.org/2000/svg">
<path d="M58.5008 31.24L40.1408 82H28.3808L0.540781 1.95999H17.1008L34.9808 56.44L54.5408 1.24H63.1808L81.6608 56.44L100.861 1.95999H117.421L87.7808 82H76.0208L58.5008 31.24ZM171.125 1.95999V15.4H142.325V33.28H169.925V46.72H142.325V68.56H171.125V82H126.725V1.95999H171.125ZM186.257 1.95999H207.137C218.297 1.95999 228.017 3.16 236.897 9.75999C246.617 17.08 252.257 28.72 252.257 42.04C252.257 55.36 246.737 66.88 236.177 74.32C226.817 80.92 218.057 82 206.897 82H186.257V1.95999ZM201.857 15.4V68.56H206.657C210.617 68.56 219.257 68.32 226.217 63.28C232.577 58.72 236.177 50.56 236.177 42.04C236.177 33.64 232.697 25.48 226.337 20.68C219.857 15.88 211.937 15.4 206.657 15.4H201.857ZM307.207 52.6V39.16H343.927V40.12C343.927 45.52 343.207 62.32 332.167 73.24C323.887 81.52 313.687 83.8 303.727 83.8C293.767 83.8 283.447 81.76 274.687 73C271.927 70.24 262.807 60.16 262.807 42.16C262.807 26.68 269.767 17.2 274.567 12.4C280.567 6.27999 290.647 0.159995 306.127 0.159995C312.127 0.159995 318.487 1.12 324.607 4.36C329.767 7 335.407 11.8 339.607 19L326.047 26.32C323.287 20.92 319.207 18.16 316.687 16.84C313.327 15.16 309.127 14.32 305.407 14.32C299.047 14.32 291.847 16.6 286.927 21.4C282.367 25.84 278.887 33.52 278.887 42.52C278.887 53.2 283.447 59.56 286.807 62.8C290.407 66.28 296.047 69.64 304.567 69.64C309.847 69.64 315.847 68.2 320.287 64.84C323.407 62.44 326.527 58.36 327.847 52.6H307.207ZM402.688 1.95999V15.4H373.888V33.28H401.488V46.72H373.888V68.56H402.688V82H358.288V1.95999H402.688Z" fill="white"/>
</svg>
