<svg width="241" height="81" viewBox="0 0 241 81" fill="none" xmlns="http://www.w3.org/2000/svg">
<path d="M0.495001 0.959993H20.295C24.735 0.959993 33.375 0.959993 39.855 6C44.535 9.6 47.295 15.84 47.295 22.56C47.295 32.88 40.455 37.08 38.295 38.28C43.575 39.12 46.695 41.4 48.735 43.32C53.535 47.88 54.495 54.12 54.495 58.32C54.495 63 53.175 69.6 47.655 74.52C41.655 79.8 34.335 81 27.375 81H0.495001V0.959993ZM16.095 13.68V34.2H20.535C22.935 34.2 32.655 33.96 32.655 23.76C32.655 16.44 27.015 13.68 20.655 13.68H16.095ZM16.095 46.2V68.28H22.815C25.695 68.28 30.015 68.16 33.495 66.12C37.335 63.84 38.415 60 38.415 56.88C38.415 54.36 37.575 50.04 32.535 47.76C29.175 46.2 25.215 46.2 21.855 46.2H16.095ZM123.413 81L116.333 64.2H84.0525L76.9725 81H60.0525L94.4925 0.959993H106.733L140.213 81H123.413ZM88.9725 51.48H111.773L100.373 22.68L88.9725 51.48ZM149.558 0.959993H165.158V67.56H189.878V81H149.558V0.959993ZM200.651 0.959993H216.251V67.56H240.971V81H200.651V0.959993Z" fill="white"/>
</svg>
