<svg width="590" height="180" viewBox="0 0 590 180" fill="none" xmlns="http://www.w3.org/2000/svg">
<path d="M76.088 67.8272L38.7333 88.8406C38.5281 88.9568 38.3574 89.1255 38.2387 89.3293C38.1199 89.5331 38.0574 89.7647 38.0574 90.0006C38.0574 90.2364 38.1199 90.468 38.2387 90.6718C38.3574 90.8756 38.5281 91.0443 38.7333 91.1606L76.088 112.174C76.3275 112.308 76.6023 112.364 76.8751 112.336C77.1479 112.308 77.4054 112.196 77.6124 112.016C77.8194 111.836 77.9659 111.597 78.0319 111.331C78.0979 111.064 78.0803 110.784 77.9813 110.529L70.1893 90.4832C70.0687 90.1727 70.0687 89.8284 70.1893 89.5179L77.984 69.4726C78.0835 69.2165 78.1015 68.9359 78.0354 68.6691C77.9694 68.4024 77.8226 68.1626 77.6151 67.9826C77.4076 67.8025 77.1495 67.6909 76.8761 67.6631C76.6028 67.6353 76.3275 67.6926 76.088 67.8272Z" stroke="#AF001B" stroke-width="1.5" stroke-linecap="round" stroke-linejoin="round"/>
<path d="M552.443 163.78C550.083 163.78 547.963 163.24 546.083 162.16C544.243 161.08 542.783 159.6 541.703 157.72C540.663 155.8 540.143 153.64 540.143 151.24C540.143 148.88 540.663 146.78 541.703 144.94C542.783 143.1 544.263 141.66 546.143 140.62C548.023 139.58 550.143 139.06 552.503 139.06C554.823 139.06 556.903 139.6 558.743 140.68C560.583 141.72 562.003 143.18 563.003 145.06C564.043 146.94 564.563 149.06 564.563 151.42C564.563 153.78 564.043 155.9 563.003 157.78C561.963 159.66 560.523 161.14 558.683 162.22C556.843 163.26 554.763 163.78 552.443 163.78ZM553.103 162.94C555.503 162.94 557.303 161.98 558.503 160.06C559.743 158.1 560.363 155.46 560.363 152.14C560.363 148.14 559.543 145.1 557.903 143.02C556.303 140.94 554.283 139.9 551.843 139.9C549.483 139.9 547.623 140.9 546.263 142.9C544.943 144.9 544.283 147.52 544.283 150.76C544.283 154.32 545.083 157.24 546.683 159.52C548.283 161.8 550.423 162.94 553.103 162.94ZM579.477 155.14C582.117 155.42 584.117 156.36 585.477 157.96C586.877 159.56 587.577 161.42 587.577 163.54C587.577 165.5 586.937 167.5 585.657 169.54C584.377 171.62 582.417 173.54 579.777 175.3C577.177 177.06 573.977 178.46 570.177 179.5C570.017 179.54 569.877 179.44 569.757 179.2C569.677 179 569.717 178.88 569.877 178.84C574.677 177.36 578.097 175.26 580.137 172.54C582.217 169.82 583.257 167.04 583.257 164.2C583.257 162.04 582.697 160.22 581.577 158.74C580.457 157.26 578.757 156.52 576.477 156.52C575.357 156.52 574.397 156.64 573.597 156.88C573.477 156.92 573.377 156.82 573.297 156.58C573.217 156.34 573.237 156.2 573.357 156.16C576.477 155.36 578.677 154.24 579.957 152.8C581.277 151.36 581.937 149.4 581.937 146.92C581.937 144.88 581.497 143.28 580.617 142.12C579.777 140.96 578.477 140.38 576.717 140.38C573.157 140.38 570.697 142.76 569.337 147.52C569.297 147.56 569.217 147.58 569.097 147.58C568.737 147.58 568.577 147.5 568.617 147.34L570.837 138.58C570.917 138.5 570.997 138.46 571.077 138.46C571.197 138.46 571.317 138.5 571.437 138.58C571.557 138.62 571.597 138.66 571.557 138.7C571.477 139.02 571.437 139.24 571.437 139.36C571.437 140.04 571.777 140.38 572.457 140.38C572.817 140.38 573.417 140.24 574.257 139.96C575.897 139.36 577.377 139.06 578.697 139.06C580.937 139.06 582.677 139.74 583.917 141.1C585.157 142.42 585.777 144.02 585.777 145.9C585.777 147.86 585.217 149.7 584.097 151.42C582.977 153.1 581.437 154.34 579.477 155.14Z" fill="#AF001B"/>
<circle cx="90" cy="90" r="89" stroke="#AF001B" stroke-width="2"/>
</svg>
