<svg width="332" height="84" viewBox="0 0 332 84" fill="none" xmlns="http://www.w3.org/2000/svg">
<path d="M0.502813 1.95999H16.1028V82H0.502813V1.95999ZM49.97 82H34.37V1.95999H45.17L93.89 55.36V1.95999H109.49V82H98.69L49.97 28.48V82ZM170.968 15.4H152.968V82H137.368V15.4H119.368V1.95999H170.968V15.4ZM180.854 1.95999H204.014C215.054 1.95999 220.694 4.84 224.414 7.95999C230.534 13.12 232.334 19.96 232.334 25.96C232.334 33.76 229.214 40.6 222.974 44.8C220.934 46.24 218.054 47.56 214.214 48.28L239.174 82H219.734L198.374 49.84H196.454V82H180.854V1.95999ZM196.454 14.68V38.8H200.894C203.894 38.8 216.254 38.44 216.254 26.68C216.254 14.8 204.014 14.68 201.134 14.68H196.454ZM288.641 0.159995C313.841 0.159995 331.361 17.68 331.361 42.04C331.361 66.4 313.841 83.8 288.641 83.8C263.441 83.8 245.921 66.4 245.921 42.04C245.921 17.68 263.441 0.159995 288.641 0.159995ZM288.641 69.64C304.241 69.64 315.281 58.24 315.281 42.04C315.281 25.84 304.241 14.32 288.641 14.32C273.041 14.32 262.001 25.84 262.001 42.04C262.001 58.24 273.041 69.64 288.641 69.64Z" fill="white"/>
</svg>
