<svg width="57" height="25" viewBox="0 0 57 25" fill="none" xmlns="http://www.w3.org/2000/svg">
<rect x="0.5" y="0.5" width="56" height="24" rx="12" stroke="white"/>
<circle cx="12.4368" cy="13.0052" r="9.22196" fill="white"/>
<path d="M12.7764 2.55273C7.13858 2.55273 2.55273 7.13858 2.55273 12.7764C2.55273 18.4142 7.13858 23.0001 12.7764 23.0001C18.4142 23.0001 23.0001 18.4142 23.0001 12.7764C23.0001 7.13858 18.4142 2.55273 12.7764 2.55273ZM18.539 19.1571C18.539 19.1571 18.5352 19.1441 18.5315 19.1366C18.4421 18.9039 18.2653 18.7289 18.0586 18.6321C17.9543 18.5837 17.8463 18.5576 17.7309 18.5483C17.6155 18.5352 17.4982 18.5464 17.3846 18.5818C17.1556 18.6507 16.9787 18.822 16.867 19.0175C16.7553 19.213 16.7124 19.4569 16.7739 19.7008C16.826 19.9093 16.9508 20.0806 17.1183 20.1998C16.5132 20.5554 15.8616 20.8384 15.1745 21.0395C15.3049 20.8608 15.3663 20.6392 15.3272 20.4102C15.2453 19.9149 14.7966 19.5667 14.3255 19.6226C13.8526 19.6561 13.4783 20.0899 13.4895 20.5815C13.497 20.8961 13.6738 21.1587 13.9364 21.3039C13.5565 21.356 13.1674 21.3821 12.7727 21.3821C12.35 21.3821 11.9348 21.3504 11.5271 21.2909C11.5885 21.2611 11.6444 21.2257 11.6965 21.1847C11.8808 21.0376 11.9981 20.8161 12.013 20.5666C12.0261 20.3189 11.9367 20.0862 11.7896 19.9093C11.6406 19.7306 11.434 19.6151 11.1938 19.5909C10.9555 19.5593 10.7246 19.6319 10.5403 19.7734C10.3559 19.913 10.22 20.1141 10.1791 20.3618C10.1381 20.6057 10.2033 20.8496 10.3485 21.0358C9.64656 20.8291 8.98186 20.5368 8.36743 20.1681C8.54617 20.0508 8.68023 19.8739 8.73423 19.6542C8.79567 19.4122 8.75098 19.1664 8.63741 18.9672C8.52197 18.7717 8.33951 18.6116 8.10863 18.5408C7.87589 18.4738 7.63757 18.498 7.4309 18.6004C7.22423 18.7028 7.05294 18.8834 6.96729 19.1199C6.96729 19.1199 6.96729 19.1236 6.96729 19.1255C5.51315 17.7924 4.51889 15.9677 4.24706 13.9177C4.28243 13.942 4.31781 13.9643 4.35691 13.9829C4.59523 14.1021 4.85776 14.1132 5.08305 14.0369C5.30834 13.9587 5.49639 13.793 5.59693 13.5658C5.69747 13.3368 5.69561 13.0892 5.61741 12.8751C5.53921 12.6572 5.38467 12.4729 5.16683 12.3649C4.94899 12.2551 4.70881 12.2439 4.4891 12.3109C4.37739 12.3444 4.27126 12.4003 4.17817 12.4748C4.34387 7.87589 8.1347 4.18375 12.7727 4.18375C17.4107 4.18375 21.2127 7.8852 21.3672 12.4934C21.2443 12.3686 21.0898 12.283 20.9278 12.242C20.8161 12.2141 20.7006 12.2067 20.5889 12.2234C20.4753 12.2402 20.3655 12.2793 20.2575 12.3333C19.8349 12.5567 19.6691 13.106 19.8851 13.5565C20.1011 14.0071 20.6653 14.1672 21.1438 13.9122C21.2089 13.8805 21.2648 13.8377 21.3151 13.793C21.0674 15.9156 20.0452 17.8035 18.5371 19.1664L18.539 19.1571Z" fill="black"/>
<path d="M8.64013 13.9562C8.52469 13.7607 8.34223 13.6005 8.11135 13.5298C7.87861 13.4628 7.64029 13.487 7.43362 13.5894C7.22695 13.6918 7.05565 13.8724 6.97001 14.1088C6.88622 14.3434 6.90857 14.5911 7.01842 14.8015C7.12827 15.0119 7.32563 15.1887 7.58257 15.2614C7.83765 15.3396 8.09832 15.3116 8.30871 15.1925C8.51911 15.077 8.67551 14.8853 8.73509 14.6432C8.79653 14.4012 8.75184 14.1554 8.63826 13.9562H8.64013Z" fill="black"/>
<path d="M11.7923 14.4976C11.6433 14.3189 11.4366 14.2034 11.1965 14.1792C10.9581 14.1476 10.7273 14.2202 10.5429 14.3617C10.3586 14.5013 10.2227 14.7024 10.1817 14.95C10.1408 15.1958 10.2059 15.4397 10.353 15.6278C10.5001 15.8121 10.7291 15.9443 10.9954 15.9797C11.2635 16.0076 11.5148 15.9238 11.6992 15.7767C11.8835 15.6296 12.0008 15.4081 12.0157 15.1586C12.0287 14.9109 11.9393 14.6782 11.7923 14.5013V14.4976Z" fill="black"/>
<path d="M15.3306 14.9966C15.2487 14.5013 14.8 14.1531 14.3289 14.209C13.856 14.2425 13.4817 14.6763 13.4929 15.1679C13.506 15.6743 13.9565 16.0504 14.5002 16.0113C15.042 15.9499 15.4125 15.4881 15.3306 14.9966Z" fill="black"/>
<path d="M18.4996 14.8328C18.6057 14.6169 18.6225 14.3674 18.5331 14.1346C18.4437 13.9019 18.2668 13.7269 18.0602 13.6301C17.9559 13.5817 17.8479 13.5556 17.7325 13.5463C17.617 13.5332 17.4997 13.5444 17.3862 13.5798C17.1571 13.6487 16.9803 13.8181 16.8685 14.0155C16.7568 14.211 16.714 14.4549 16.7755 14.6988C16.8369 14.9408 16.9952 15.1345 17.2074 15.2518C17.4197 15.3691 17.6803 15.3858 17.9373 15.3076C18.0657 15.2667 18.1812 15.2052 18.2761 15.127C18.3711 15.047 18.4456 14.9446 18.4996 14.8366V14.8328Z" fill="black"/>
<path d="M6.69089 15.8063C6.24217 15.6499 5.73387 15.8826 5.54582 16.3481C5.35963 16.8099 5.60168 17.3424 6.09508 17.5155C6.34085 17.5975 6.59593 17.5807 6.80446 17.4727C7.01486 17.3647 7.1787 17.1785 7.25132 16.9383C7.32393 16.7 7.29414 16.4542 7.19174 16.2513C7.08933 16.0502 6.91804 15.8789 6.69089 15.8044V15.8063Z" fill="black"/>
<path d="M9.69452 16.6016C9.45992 16.5644 9.22904 16.6165 9.04099 16.7413C8.85108 16.8679 8.70399 17.0671 8.64814 17.311C8.59228 17.5549 8.64069 17.797 8.77102 17.9943C8.90135 18.1917 9.11175 18.3425 9.36869 18.3835C9.62563 18.4282 9.87512 18.3723 10.0669 18.2345C10.2587 18.0949 10.3909 17.8845 10.4244 17.6369C10.4579 17.3892 10.389 17.1528 10.2568 16.9703C10.1246 16.7878 9.93098 16.6445 9.69638 16.6054L9.69452 16.6016Z" fill="black"/>
<path d="M12.769 16.9068C12.2998 16.89 11.8921 17.281 11.8567 17.78C11.8232 18.279 12.2216 18.6998 12.7486 18.7165C13.2773 18.7109 13.6851 18.2976 13.6609 17.7986C13.6367 17.2996 13.2364 16.9012 12.769 16.9068Z" fill="black"/>
<path d="M16.4884 16.8013C16.3004 16.6691 16.0695 16.6096 15.8386 16.6524C15.7232 16.6729 15.6171 16.7213 15.5221 16.7827C15.4272 16.8404 15.3452 16.9186 15.2782 17.008C15.1441 17.1905 15.0734 17.4269 15.1032 17.6746C15.133 17.9222 15.2614 18.1345 15.4514 18.276C15.5463 18.3467 15.6562 18.3988 15.7753 18.4305C15.8945 18.4584 16.0211 18.4584 16.1496 18.4361C16.4084 18.3877 16.6225 18.2443 16.7547 18.0544C16.8869 17.8608 16.9353 17.6094 16.8794 17.3674C16.8236 17.1216 16.6765 16.9298 16.4884 16.8013Z" fill="black"/>
<path d="M19.4768 15.7371C19.2664 15.6421 19.03 15.6235 18.8084 15.7092C18.5887 15.7948 18.423 15.968 18.3224 16.1653C18.2238 16.3683 18.1977 16.6141 18.2722 16.8524C18.3466 17.0907 18.5124 17.275 18.7265 17.3812C18.9424 17.491 19.1975 17.5003 19.4414 17.4072C19.6872 17.3141 19.8715 17.1354 19.9665 16.9231C20.0614 16.7072 20.0614 16.4539 19.9628 16.2249C19.8622 15.994 19.6835 15.8321 19.4749 15.7408L19.4768 15.7371Z" fill="black"/>
</svg>
