<svg width="631" height="63" viewBox="0 0 631 63" fill="none" xmlns="http://www.w3.org/2000/svg">
<path d="M9.38565 4.372L8.08765 5.23C7.88965 4.834 7.55965 4.394 7.22965 4.13C6.94365 3.91 6.41565 3.624 5.57965 3.624C4.12765 3.624 3.11565 4.526 3.11565 5.89C3.11565 6.462 3.26965 6.792 3.66565 7.166C4.10565 7.606 4.65565 7.848 5.20565 8.09L6.61365 8.706C7.47165 9.08 8.26365 9.476 8.87965 10.092C9.62765 10.84 9.93565 11.698 9.93565 12.754C9.93565 15.46 7.93365 17.264 5.29365 17.264C4.32565 17.264 3.11565 17.066 2.10365 16.076C1.37765 15.372 0.937649 14.36 0.739648 13.48L2.32365 13.04C2.43365 13.81 2.78565 14.47 3.20365 14.91C3.84165 15.548 4.56765 15.724 5.31565 15.724C7.31765 15.724 8.26365 14.294 8.26365 12.82C8.26365 12.16 8.06565 11.588 7.53765 11.104C7.11965 10.708 6.54765 10.444 5.77765 10.092L4.45765 9.476C3.88565 9.212 3.15965 8.904 2.49965 8.266C1.86165 7.65 1.48765 6.968 1.48765 5.868C1.48765 3.602 3.22565 2.084 5.60165 2.084C6.50365 2.084 7.22965 2.26 7.95565 2.744C8.54965 3.14 9.05565 3.734 9.38565 4.372ZM14.0844 17H12.4124L14.8544 1.512L20.4864 13.898L26.2284 1.49L28.5164 17H26.8444L25.4584 6.792L20.4644 17.616L15.5364 6.792L14.0844 17ZM35.1226 17.352L33.8906 16.45L37.2566 11.764C36.8386 11.896 36.4206 11.962 35.9586 11.962C33.1426 11.962 31.2066 9.85 31.2066 7.122C31.2066 4.196 33.3186 2.084 36.2446 2.084C39.6986 2.084 41.3266 4.768 41.3266 7.078C41.3266 7.628 41.2166 8.926 40.1166 10.444L35.1226 17.352ZM36.2666 3.58C34.2426 3.58 32.8346 5.098 32.8346 7.078C32.8346 9.036 34.2866 10.466 36.2886 10.466C38.2906 10.466 39.6986 8.992 39.6986 7.078C39.6986 5.12 38.3126 3.58 36.2666 3.58ZM47.8332 7.87H49.5932L52.2992 14.074L55.1592 7.166L57.9972 14.074L60.7252 7.87H62.4852L57.9532 17.638L55.1372 10.818L52.3212 17.638L47.8332 7.87ZM70.9253 13.942L72.2453 14.668C71.9813 15.174 71.5853 15.724 71.1233 16.142C70.2873 16.89 69.2533 17.264 68.0873 17.264C65.8873 17.264 63.5773 15.878 63.5773 12.49C63.5773 9.762 65.2493 7.65 67.9993 7.65C69.7813 7.65 70.9033 8.53 71.4533 9.322C72.0253 10.136 72.3553 11.544 72.3113 12.754H65.2053C65.2273 14.646 66.5253 15.856 68.1093 15.856C68.8573 15.856 69.4513 15.636 69.9793 15.196C70.3973 14.844 70.7273 14.382 70.9253 13.942ZM65.3153 11.434H70.6833C70.4193 10.004 69.3413 9.058 67.9993 9.058C66.6573 9.058 65.5573 10.07 65.3153 11.434ZM81.7371 9.168V0.961999H83.3211V17H81.7371V15.724C81.2091 16.406 80.2191 17.264 78.6131 17.264C76.3031 17.264 74.1691 15.636 74.1691 12.424C74.1691 9.278 76.2811 7.65 78.6131 7.65C80.3731 7.65 81.3191 8.618 81.7371 9.168ZM78.7891 9.058C77.2271 9.058 75.7971 10.202 75.7971 12.424C75.7971 14.382 76.8971 15.856 78.7891 15.856C80.7251 15.856 81.8251 14.25 81.8251 12.446C81.8251 10.092 80.1971 9.058 78.7891 9.058ZM93.3172 9.168V7.87H94.9012V16.78C94.9012 17.77 94.9012 19.178 94.0212 20.366C93.3392 21.29 92.0852 22.06 90.3692 22.06C88.8072 22.06 87.7292 21.444 87.1132 20.828C86.4972 20.212 85.9252 19.222 85.9252 17.88H87.4872C87.4872 18.65 87.7952 19.332 88.1912 19.772C88.8512 20.498 89.6872 20.652 90.3912 20.652C91.5132 20.652 92.2832 20.256 92.8112 19.376C93.2732 18.628 93.3172 17.814 93.3172 17.044V15.724C92.7892 16.406 91.7992 17.264 90.1932 17.264C88.8512 17.264 87.7732 16.736 87.0692 16.032C86.4532 15.416 85.7492 14.272 85.7492 12.424C85.7492 10.642 86.4092 9.542 87.0692 8.882C87.8392 8.134 88.9612 7.65 90.1932 7.65C91.5352 7.65 92.5912 8.222 93.3172 9.168ZM90.3692 9.058C89.4012 9.058 88.7412 9.476 88.3012 9.916C87.5312 10.708 87.3772 11.676 87.3772 12.424C87.3772 13.216 87.5312 14.294 88.4112 15.108C88.9172 15.57 89.5332 15.856 90.3692 15.856C91.2052 15.856 91.8652 15.592 92.3712 15.086C92.9872 14.492 93.4052 13.524 93.4052 12.446C93.4052 11.368 93.0092 10.422 92.4372 9.872C91.9312 9.366 91.1832 9.058 90.3692 9.058ZM104.677 13.942L105.997 14.668C105.733 15.174 105.337 15.724 104.875 16.142C104.039 16.89 103.005 17.264 101.839 17.264C99.6393 17.264 97.3293 15.878 97.3293 12.49C97.3293 9.762 99.0013 7.65 101.751 7.65C103.533 7.65 104.655 8.53 105.205 9.322C105.777 10.136 106.107 11.544 106.063 12.754H98.9573C98.9793 14.646 100.277 15.856 101.861 15.856C102.609 15.856 103.203 15.636 103.731 15.196C104.149 14.844 104.479 14.382 104.677 13.942ZM99.0673 11.434H104.435C104.171 10.004 103.093 9.058 101.751 9.058C100.409 9.058 99.3093 10.07 99.0673 11.434ZM113.628 7.87H115.212V17H113.628V7.87ZM113.298 4.416C113.298 3.8 113.804 3.294 114.42 3.294C115.036 3.294 115.542 3.8 115.542 4.416C115.542 5.032 115.036 5.538 114.42 5.538C113.804 5.538 113.298 5.032 113.298 4.416ZM123.264 9.3L121.966 9.982C121.746 9.454 121.284 9.058 120.69 9.058C120.118 9.058 119.59 9.388 119.59 10.092C119.59 10.752 120.03 10.95 121.064 11.39C122.384 11.94 123 12.358 123.352 12.798C123.748 13.282 123.836 13.766 123.836 14.272C123.836 16.186 122.45 17.264 120.69 17.264C120.316 17.264 118.27 17.22 117.5 14.932L118.864 14.36C119.04 14.844 119.568 15.856 120.712 15.856C121.746 15.856 122.208 15.086 122.208 14.404C122.208 13.546 121.592 13.26 120.734 12.886C119.634 12.402 118.93 12.05 118.512 11.544C118.16 11.104 118.094 10.664 118.094 10.202C118.094 8.596 119.216 7.65 120.756 7.65C121.24 7.65 122.538 7.738 123.264 9.3ZM138.223 8.53V10.422C137.387 9.366 136.177 9.058 135.363 9.058C133.669 9.058 132.129 10.246 132.129 12.468C132.129 14.69 133.713 15.856 135.341 15.856C136.287 15.856 137.453 15.438 138.289 14.426V16.318C137.299 17.044 136.243 17.264 135.385 17.264C132.547 17.264 130.501 15.24 130.501 12.49C130.501 9.696 132.569 7.65 135.385 7.65C136.837 7.65 137.783 8.222 138.223 8.53ZM144.988 17.264C142.216 17.264 140.148 15.24 140.148 12.468C140.148 9.696 142.194 7.65 144.988 7.65C147.782 7.65 149.828 9.696 149.828 12.468C149.828 15.24 147.76 17.264 144.988 17.264ZM144.988 9.058C143.316 9.058 141.776 10.246 141.776 12.468C141.776 14.712 143.36 15.856 144.988 15.856C146.638 15.856 148.2 14.69 148.2 12.468C148.2 10.224 146.66 9.058 144.988 9.058ZM152.257 17V7.87H153.841V8.838C154.347 8.09 155.139 7.65 156.107 7.65C157.757 7.65 158.417 8.816 158.593 9.124C159.473 7.738 160.727 7.65 161.343 7.65C164.049 7.65 164.313 9.916 164.313 11.214V17H162.729V11.456C162.729 10.422 162.597 9.058 161.101 9.058C159.275 9.058 159.077 10.818 159.077 11.918V17H157.493V11.588C157.493 10.95 157.515 9.058 155.843 9.058C154.039 9.058 153.841 10.928 153.841 12.028V17H152.257ZM168.901 15.724V22.06H167.317V7.87H168.901V9.146C169.979 7.804 171.365 7.65 172.025 7.65C174.885 7.65 176.469 10.026 176.469 12.49C176.469 14.998 174.863 17.264 172.091 17.264C170.617 17.264 169.583 16.604 168.901 15.724ZM171.871 15.856C173.719 15.856 174.841 14.316 174.841 12.49C174.841 10.246 173.323 9.058 171.849 9.058C170.375 9.058 168.813 10.268 168.813 12.468C168.813 14.338 170.001 15.856 171.871 15.856ZM178.897 0.961999H180.481V17H178.897V0.961999ZM190.25 13.942L191.57 14.668C191.306 15.174 190.91 15.724 190.448 16.142C189.612 16.89 188.578 17.264 187.412 17.264C185.212 17.264 182.902 15.878 182.902 12.49C182.902 9.762 184.574 7.65 187.324 7.65C189.106 7.65 190.228 8.53 190.778 9.322C191.35 10.136 191.68 11.544 191.636 12.754H184.53C184.552 14.646 185.85 15.856 187.434 15.856C188.182 15.856 188.776 15.636 189.304 15.196C189.722 14.844 190.052 14.382 190.25 13.942ZM184.64 11.434H190.008C189.744 10.004 188.666 9.058 187.324 9.058C185.982 9.058 184.882 10.07 184.64 11.434ZM197.277 9.322H195.693V17H194.109V9.322H193.141V7.87H194.109V4.57H195.693V7.87H197.277V9.322ZM205.546 13.942L206.866 14.668C206.602 15.174 206.206 15.724 205.744 16.142C204.908 16.89 203.874 17.264 202.708 17.264C200.508 17.264 198.198 15.878 198.198 12.49C198.198 9.762 199.87 7.65 202.62 7.65C204.402 7.65 205.524 8.53 206.074 9.322C206.646 10.136 206.976 11.544 206.932 12.754H199.826C199.848 14.646 201.146 15.856 202.73 15.856C203.478 15.856 204.072 15.636 204.6 15.196C205.018 14.844 205.348 14.382 205.546 13.942ZM199.936 11.434H205.304C205.04 10.004 203.962 9.058 202.62 9.058C201.278 9.058 200.178 10.07 199.936 11.434ZM213.177 7.87H214.937L217.643 14.074L220.503 7.166L223.341 14.074L226.069 7.87H227.829L223.297 17.638L220.481 10.818L217.665 17.638L213.177 7.87ZM229.493 7.87H231.077V17H229.493V7.87ZM229.163 4.416C229.163 3.8 229.669 3.294 230.285 3.294C230.901 3.294 231.407 3.8 231.407 4.416C231.407 5.032 230.901 5.538 230.285 5.538C229.669 5.538 229.163 5.032 229.163 4.416ZM237.281 9.322H235.697V17H234.113V9.322H233.145V7.87H234.113V4.57H235.697V7.87H237.281V9.322ZM238.774 17V0.961999H240.358V8.926C240.644 8.552 241.458 7.65 242.976 7.65C244.054 7.65 245.044 8.09 245.594 8.904C246.056 9.586 246.122 10.334 246.122 11.346V17H244.538V11.39C244.538 10.84 244.494 10.202 244.12 9.718C243.812 9.322 243.328 9.058 242.624 9.058C242.074 9.058 241.48 9.212 241.018 9.762C240.402 10.488 240.358 11.566 240.358 12.226V17H238.774ZM257.455 9.322H255.871V17H254.287V9.322H253.319V7.87H254.287V4.57H255.871V7.87H257.455V9.322ZM258.948 17V0.961999H260.532V8.926C260.818 8.552 261.632 7.65 263.15 7.65C264.228 7.65 265.218 8.09 265.768 8.904C266.23 9.586 266.296 10.334 266.296 11.346V17H264.712V11.39C264.712 10.84 264.668 10.202 264.294 9.718C263.986 9.322 263.502 9.058 262.798 9.058C262.248 9.058 261.654 9.212 261.192 9.762C260.576 10.488 260.532 11.566 260.532 12.226V17H258.948ZM275.843 13.942L277.163 14.668C276.899 15.174 276.503 15.724 276.041 16.142C275.205 16.89 274.171 17.264 273.005 17.264C270.805 17.264 268.495 15.878 268.495 12.49C268.495 9.762 270.167 7.65 272.917 7.65C274.699 7.65 275.821 8.53 276.371 9.322C276.943 10.136 277.273 11.544 277.229 12.754H270.123C270.145 14.646 271.443 15.856 273.027 15.856C273.775 15.856 274.369 15.636 274.897 15.196C275.315 14.844 275.645 14.382 275.843 13.942ZM270.233 11.434H275.601C275.337 10.004 274.259 9.058 272.917 9.058C271.575 9.058 270.475 10.07 270.233 11.434ZM284.794 17V7.87H286.378V8.838C286.884 8.09 287.676 7.65 288.644 7.65C290.294 7.65 290.954 8.816 291.13 9.124C292.01 7.738 293.264 7.65 293.88 7.65C296.586 7.65 296.85 9.916 296.85 11.214V17H295.266V11.456C295.266 10.422 295.134 9.058 293.638 9.058C291.812 9.058 291.614 10.818 291.614 11.918V17H290.03V11.588C290.03 10.95 290.052 9.058 288.38 9.058C286.576 9.058 286.378 10.928 286.378 12.028V17H284.794ZM304.122 17.264C301.35 17.264 299.282 15.24 299.282 12.468C299.282 9.696 301.328 7.65 304.122 7.65C306.916 7.65 308.962 9.696 308.962 12.468C308.962 15.24 306.894 17.264 304.122 17.264ZM304.122 9.058C302.45 9.058 300.91 10.246 300.91 12.468C300.91 14.712 302.494 15.856 304.122 15.856C305.772 15.856 307.334 14.69 307.334 12.468C307.334 10.224 305.794 9.058 304.122 9.058ZM316.452 9.3L315.154 9.982C314.934 9.454 314.472 9.058 313.878 9.058C313.306 9.058 312.778 9.388 312.778 10.092C312.778 10.752 313.218 10.95 314.252 11.39C315.572 11.94 316.188 12.358 316.54 12.798C316.936 13.282 317.024 13.766 317.024 14.272C317.024 16.186 315.638 17.264 313.878 17.264C313.504 17.264 311.458 17.22 310.688 14.932L312.052 14.36C312.228 14.844 312.756 15.856 313.9 15.856C314.934 15.856 315.396 15.086 315.396 14.404C315.396 13.546 314.78 13.26 313.922 12.886C312.822 12.402 312.118 12.05 311.7 11.544C311.348 11.104 311.282 10.664 311.282 10.202C311.282 8.596 312.404 7.65 313.944 7.65C314.428 7.65 315.726 7.738 316.452 9.3ZM322.338 9.322H320.754V17H319.17V9.322H318.202V7.87H319.17V4.57H320.754V7.87H322.338V9.322ZM335.962 9.168V7.87H337.546V17H335.962V15.724C335.434 16.406 334.444 17.264 332.838 17.264C330.528 17.264 328.394 15.636 328.394 12.424C328.394 9.278 330.506 7.65 332.838 7.65C334.598 7.65 335.544 8.618 335.962 9.168ZM333.014 9.058C331.452 9.058 330.022 10.202 330.022 12.424C330.022 14.382 331.122 15.856 333.014 15.856C334.95 15.856 336.05 14.25 336.05 12.446C336.05 10.092 334.422 9.058 333.014 9.058ZM347.542 9.168V0.961999H349.126V17H347.542V15.724C347.014 16.406 346.024 17.264 344.418 17.264C342.108 17.264 339.974 15.636 339.974 12.424C339.974 9.278 342.086 7.65 344.418 7.65C346.178 7.65 347.124 8.618 347.542 9.168ZM344.594 9.058C343.032 9.058 341.602 10.202 341.602 12.424C341.602 14.382 342.702 15.856 344.594 15.856C346.53 15.856 347.63 14.25 347.63 12.446C347.63 10.092 346.002 9.058 344.594 9.058ZM350.806 7.87H352.566L355.294 14.03L358.022 7.87H359.782L355.294 17.594L350.806 7.87ZM368.446 9.168V7.87H370.03V17H368.446V15.724C367.918 16.406 366.928 17.264 365.322 17.264C363.012 17.264 360.878 15.636 360.878 12.424C360.878 9.278 362.99 7.65 365.322 7.65C367.082 7.65 368.028 8.618 368.446 9.168ZM365.498 9.058C363.936 9.058 362.506 10.202 362.506 12.424C362.506 14.382 363.606 15.856 365.498 15.856C367.434 15.856 368.534 14.25 368.534 12.446C368.534 10.092 366.906 9.058 365.498 9.058ZM373.03 17V7.87H374.614V8.926C374.9 8.552 375.714 7.65 377.232 7.65C378.31 7.65 379.3 8.09 379.85 8.904C380.312 9.586 380.378 10.334 380.378 11.346V17H378.794V11.39C378.794 10.84 378.75 10.202 378.376 9.718C378.068 9.322 377.584 9.058 376.88 9.058C376.33 9.058 375.736 9.212 375.274 9.762C374.658 10.488 374.614 11.566 374.614 12.226V17H373.03ZM390.514 8.53V10.422C389.678 9.366 388.468 9.058 387.654 9.058C385.96 9.058 384.42 10.246 384.42 12.468C384.42 14.69 386.004 15.856 387.632 15.856C388.578 15.856 389.744 15.438 390.58 14.426V16.318C389.59 17.044 388.534 17.264 387.676 17.264C384.838 17.264 382.792 15.24 382.792 12.49C382.792 9.696 384.86 7.65 387.676 7.65C389.128 7.65 390.074 8.222 390.514 8.53ZM399.787 13.942L401.107 14.668C400.843 15.174 400.447 15.724 399.985 16.142C399.149 16.89 398.115 17.264 396.949 17.264C394.749 17.264 392.439 15.878 392.439 12.49C392.439 9.762 394.111 7.65 396.861 7.65C398.643 7.65 399.765 8.53 400.315 9.322C400.887 10.136 401.217 11.544 401.173 12.754H394.067C394.089 14.646 395.387 15.856 396.971 15.856C397.719 15.856 398.313 15.636 398.841 15.196C399.259 14.844 399.589 14.382 399.787 13.942ZM394.177 11.434H399.545C399.281 10.004 398.203 9.058 396.861 9.058C395.519 9.058 394.419 10.07 394.177 11.434ZM410.598 9.168V0.961999H412.182V17H410.598V15.724C410.07 16.406 409.08 17.264 407.474 17.264C405.164 17.264 403.03 15.636 403.03 12.424C403.03 9.278 405.142 7.65 407.474 7.65C409.234 7.65 410.18 8.618 410.598 9.168ZM407.65 9.058C406.088 9.058 404.658 10.202 404.658 12.424C404.658 14.382 405.758 15.856 407.65 15.856C409.586 15.856 410.686 14.25 410.686 12.446C410.686 10.092 409.058 9.058 407.65 9.058ZM423.529 9.322H421.945V17H420.361V9.322H419.393V7.87H420.361V4.57H421.945V7.87H423.529V9.322ZM431.798 13.942L433.118 14.668C432.854 15.174 432.458 15.724 431.996 16.142C431.16 16.89 430.126 17.264 428.96 17.264C426.76 17.264 424.45 15.878 424.45 12.49C424.45 9.762 426.122 7.65 428.872 7.65C430.654 7.65 431.776 8.53 432.326 9.322C432.898 10.136 433.228 11.544 433.184 12.754H426.078C426.1 14.646 427.398 15.856 428.982 15.856C429.73 15.856 430.324 15.636 430.852 15.196C431.27 14.844 431.6 14.382 431.798 13.942ZM426.188 11.434H431.556C431.292 10.004 430.214 9.058 428.872 9.058C427.53 9.058 426.43 10.07 426.188 11.434ZM442.764 8.53V10.422C441.928 9.366 440.718 9.058 439.904 9.058C438.21 9.058 436.67 10.246 436.67 12.468C436.67 14.69 438.254 15.856 439.882 15.856C440.828 15.856 441.994 15.438 442.83 14.426V16.318C441.84 17.044 440.784 17.264 439.926 17.264C437.088 17.264 435.042 15.24 435.042 12.49C435.042 9.696 437.11 7.65 439.926 7.65C441.378 7.65 442.324 8.222 442.764 8.53ZM445.261 17V0.961999H446.845V8.926C447.131 8.552 447.945 7.65 449.463 7.65C450.541 7.65 451.531 8.09 452.081 8.904C452.543 9.586 452.609 10.334 452.609 11.346V17H451.025V11.39C451.025 10.84 450.981 10.202 450.607 9.718C450.299 9.322 449.815 9.058 449.111 9.058C448.561 9.058 447.967 9.212 447.505 9.762C446.889 10.488 446.845 11.566 446.845 12.226V17H445.261ZM455.595 17V7.87H457.179V8.926C457.465 8.552 458.279 7.65 459.797 7.65C460.875 7.65 461.865 8.09 462.415 8.904C462.877 9.586 462.943 10.334 462.943 11.346V17H461.359V11.39C461.359 10.84 461.315 10.202 460.941 9.718C460.633 9.322 460.149 9.058 459.445 9.058C458.895 9.058 458.301 9.212 457.839 9.762C457.223 10.488 457.179 11.566 457.179 12.226V17H455.595ZM470.197 17.264C467.425 17.264 465.357 15.24 465.357 12.468C465.357 9.696 467.403 7.65 470.197 7.65C472.991 7.65 475.037 9.696 475.037 12.468C475.037 15.24 472.969 17.264 470.197 17.264ZM470.197 9.058C468.525 9.058 466.985 10.246 466.985 12.468C466.985 14.712 468.569 15.856 470.197 15.856C471.847 15.856 473.409 14.69 473.409 12.468C473.409 10.224 471.869 9.058 470.197 9.058ZM477.466 0.961999H479.05V17H477.466V0.961999ZM486.31 17.264C483.538 17.264 481.47 15.24 481.47 12.468C481.47 9.696 483.516 7.65 486.31 7.65C489.104 7.65 491.15 9.696 491.15 12.468C491.15 15.24 489.082 17.264 486.31 17.264ZM486.31 9.058C484.638 9.058 483.098 10.246 483.098 12.468C483.098 14.712 484.682 15.856 486.31 15.856C487.96 15.856 489.522 14.69 489.522 12.468C489.522 10.224 487.982 9.058 486.31 9.058ZM500.575 9.168V7.87H502.159V16.78C502.159 17.77 502.159 19.178 501.279 20.366C500.597 21.29 499.343 22.06 497.627 22.06C496.065 22.06 494.987 21.444 494.371 20.828C493.755 20.212 493.183 19.222 493.183 17.88H494.745C494.745 18.65 495.053 19.332 495.449 19.772C496.109 20.498 496.945 20.652 497.649 20.652C498.771 20.652 499.541 20.256 500.069 19.376C500.531 18.628 500.575 17.814 500.575 17.044V15.724C500.047 16.406 499.057 17.264 497.451 17.264C496.109 17.264 495.031 16.736 494.327 16.032C493.711 15.416 493.007 14.272 493.007 12.424C493.007 10.642 493.667 9.542 494.327 8.882C495.097 8.134 496.219 7.65 497.451 7.65C498.793 7.65 499.849 8.222 500.575 9.168ZM497.627 9.058C496.659 9.058 495.999 9.476 495.559 9.916C494.789 10.708 494.635 11.676 494.635 12.424C494.635 13.216 494.789 14.294 495.669 15.108C496.175 15.57 496.791 15.856 497.627 15.856C498.463 15.856 499.123 15.592 499.629 15.086C500.245 14.492 500.663 13.524 500.663 12.446C500.663 11.368 500.267 10.422 499.695 9.872C499.189 9.366 498.441 9.058 497.627 9.058ZM505.137 22.06L508.041 16.142L503.839 7.87H505.643L508.877 14.404L511.847 7.87H513.607L506.897 22.06H505.137ZM524.681 17.264C521.909 17.264 519.841 15.24 519.841 12.468C519.841 9.696 521.887 7.65 524.681 7.65C527.475 7.65 529.521 9.696 529.521 12.468C529.521 15.24 527.453 17.264 524.681 17.264ZM524.681 9.058C523.009 9.058 521.469 10.246 521.469 12.468C521.469 14.712 523.053 15.856 524.681 15.856C526.331 15.856 527.893 14.69 527.893 12.468C527.893 10.224 526.353 9.058 524.681 9.058ZM531.95 17V7.87H533.534V8.926C533.82 8.552 534.634 7.65 536.152 7.65C537.23 7.65 538.22 8.09 538.77 8.904C539.232 9.586 539.298 10.334 539.298 11.346V17H537.714V11.39C537.714 10.84 537.67 10.202 537.296 9.718C536.988 9.322 536.504 9.058 535.8 9.058C535.25 9.058 534.656 9.212 534.194 9.762C533.578 10.488 533.534 11.566 533.534 12.226V17H531.95ZM550.631 9.322H549.047V17H547.463V9.322H546.495V7.87H547.463V4.57H549.047V7.87H550.631V9.322ZM552.124 17V0.961999H553.708V8.926C553.994 8.552 554.808 7.65 556.326 7.65C557.404 7.65 558.394 8.09 558.944 8.904C559.406 9.586 559.472 10.334 559.472 11.346V17H557.888V11.39C557.888 10.84 557.844 10.202 557.47 9.718C557.162 9.322 556.678 9.058 555.974 9.058C555.424 9.058 554.83 9.212 554.368 9.762C553.752 10.488 553.708 11.566 553.708 12.226V17H552.124ZM569.019 13.942L570.339 14.668C570.075 15.174 569.679 15.724 569.217 16.142C568.381 16.89 567.347 17.264 566.181 17.264C563.981 17.264 561.671 15.878 561.671 12.49C561.671 9.762 563.343 7.65 566.093 7.65C567.875 7.65 568.997 8.53 569.547 9.322C570.119 10.136 570.449 11.544 570.405 12.754H563.299C563.321 14.646 564.619 15.856 566.203 15.856C566.951 15.856 567.545 15.636 568.073 15.196C568.491 14.844 568.821 14.382 569.019 13.942ZM563.409 11.434H568.777C568.513 10.004 567.435 9.058 566.093 9.058C564.751 9.058 563.651 10.07 563.409 11.434ZM581.182 9.322H579.598V17H578.014V9.322H577.046V7.87H578.014V4.57H579.598V7.87H581.182V9.322ZM582.675 7.87H584.259V17H582.675V7.87ZM582.345 4.416C582.345 3.8 582.851 3.294 583.467 3.294C584.083 3.294 584.589 3.8 584.589 4.416C584.589 5.032 584.083 5.538 583.467 5.538C582.851 5.538 582.345 5.032 582.345 4.416ZM590.463 9.322H588.879V17H587.295V9.322H586.327V7.87H587.295V4.57H588.879V7.87H590.463V9.322ZM591.956 0.961999H593.54V17H591.956V0.961999ZM603.308 13.942L604.628 14.668C604.364 15.174 603.968 15.724 603.506 16.142C602.67 16.89 601.636 17.264 600.47 17.264C598.27 17.264 595.96 15.878 595.96 12.49C595.96 9.762 597.632 7.65 600.382 7.65C602.164 7.65 603.286 8.53 603.836 9.322C604.408 10.136 604.738 11.544 604.694 12.754H597.588C597.61 14.646 598.908 15.856 600.492 15.856C601.24 15.856 601.834 15.636 602.362 15.196C602.78 14.844 603.11 14.382 603.308 13.942ZM597.698 11.434H603.066C602.802 10.004 601.724 9.058 600.382 9.058C599.04 9.058 597.94 10.07 597.698 11.434ZM607.124 0.961999H608.708V17H607.124V0.961999ZM611.7 7.87H613.284V17H611.7V7.87ZM611.37 4.416C611.37 3.8 611.876 3.294 612.492 3.294C613.108 3.294 613.614 3.8 613.614 4.416C613.614 5.032 613.108 5.538 612.492 5.538C611.876 5.538 611.37 5.032 611.37 4.416ZM621.336 9.3L620.038 9.982C619.818 9.454 619.356 9.058 618.762 9.058C618.19 9.058 617.662 9.388 617.662 10.092C617.662 10.752 618.102 10.95 619.136 11.39C620.456 11.94 621.072 12.358 621.424 12.798C621.82 13.282 621.908 13.766 621.908 14.272C621.908 16.186 620.522 17.264 618.762 17.264C618.388 17.264 616.342 17.22 615.572 14.932L616.936 14.36C617.112 14.844 617.64 15.856 618.784 15.856C619.818 15.856 620.28 15.086 620.28 14.404C620.28 13.546 619.664 13.26 618.806 12.886C617.706 12.402 617.002 12.05 616.584 11.544C616.232 11.104 616.166 10.664 616.166 10.202C616.166 8.596 617.288 7.65 618.828 7.65C619.312 7.65 620.61 7.738 621.336 9.3ZM627.223 9.322H625.639V17H624.055V9.322H623.087V7.87H624.055V4.57H625.639V7.87H627.223V9.322ZM627.44 19.926L629.244 14.844L630.696 15.372L628.474 20.344L627.44 19.926ZM77.8218 53.942L79.1418 54.668C78.8778 55.174 78.4818 55.724 78.0198 56.142C77.1838 56.89 76.1498 57.264 74.9838 57.264C72.7838 57.264 70.4738 55.878 70.4738 52.49C70.4738 49.762 72.1458 47.65 74.8958 47.65C76.6778 47.65 77.7998 48.53 78.3498 49.322C78.9218 50.136 79.2518 51.544 79.2078 52.754H72.1018C72.1238 54.646 73.4218 55.856 75.0058 55.856C75.7538 55.856 76.3478 55.636 76.8758 55.196C77.2938 54.844 77.6238 54.382 77.8218 53.942ZM72.2118 51.434H77.5798C77.3158 50.004 76.2378 49.058 74.8958 49.058C73.5538 49.058 72.4538 50.07 72.2118 51.434ZM81.6376 57V47.87H83.2216V48.926C83.5076 48.552 84.3216 47.65 85.8396 47.65C86.9176 47.65 87.9076 48.09 88.4576 48.904C88.9196 49.586 88.9856 50.334 88.9856 51.346V57H87.4016V51.39C87.4016 50.84 87.3576 50.202 86.9836 49.718C86.6756 49.322 86.1916 49.058 85.4876 49.058C84.9376 49.058 84.3436 49.212 83.8816 49.762C83.2656 50.488 83.2216 51.566 83.2216 52.226V57H81.6376ZM98.9676 49.168V47.87H100.552V57H98.9676V55.724C98.4396 56.406 97.4496 57.264 95.8436 57.264C93.5336 57.264 91.3996 55.636 91.3996 52.424C91.3996 49.278 93.5116 47.65 95.8436 47.65C97.6036 47.65 98.5496 48.618 98.9676 49.168ZM96.0196 49.058C94.4576 49.058 93.0276 50.202 93.0276 52.424C93.0276 54.382 94.1276 55.856 96.0196 55.856C97.9556 55.856 99.0556 54.25 99.0556 52.446C99.0556 50.092 97.4276 49.058 96.0196 49.058ZM105.136 55.724V57H103.552V40.962H105.136V49.146C106.214 47.804 107.6 47.65 108.26 47.65C111.12 47.65 112.704 50.026 112.704 52.49C112.704 54.998 111.098 57.264 108.326 57.264C106.852 57.264 105.818 56.604 105.136 55.724ZM108.106 55.856C109.954 55.856 111.076 54.316 111.076 52.49C111.076 50.246 109.558 49.058 108.084 49.058C106.61 49.058 105.048 50.268 105.048 52.468C105.048 54.338 106.236 55.856 108.106 55.856ZM115.132 40.962H116.716V57H115.132V40.962ZM119.708 47.87H121.292V57H119.708V47.87ZM119.378 44.416C119.378 43.8 119.884 43.294 120.5 43.294C121.116 43.294 121.622 43.8 121.622 44.416C121.622 45.032 121.116 45.538 120.5 45.538C119.884 45.538 119.378 45.032 119.378 44.416ZM124.284 57V47.87H125.868V48.926C126.154 48.552 126.968 47.65 128.486 47.65C129.564 47.65 130.554 48.09 131.104 48.904C131.566 49.586 131.632 50.334 131.632 51.346V57H130.048V51.39C130.048 50.84 130.004 50.202 129.63 49.718C129.322 49.322 128.838 49.058 128.134 49.058C127.584 49.058 126.99 49.212 126.528 49.762C125.912 50.488 125.868 51.566 125.868 52.226V57H124.284ZM141.614 49.168V47.87H143.198V56.78C143.198 57.77 143.198 59.178 142.318 60.366C141.636 61.29 140.382 62.06 138.666 62.06C137.104 62.06 136.026 61.444 135.41 60.828C134.794 60.212 134.222 59.222 134.222 57.88H135.784C135.784 58.65 136.092 59.332 136.488 59.772C137.148 60.498 137.984 60.652 138.688 60.652C139.81 60.652 140.58 60.256 141.108 59.376C141.57 58.628 141.614 57.814 141.614 57.044V55.724C141.086 56.406 140.096 57.264 138.49 57.264C137.148 57.264 136.07 56.736 135.366 56.032C134.75 55.416 134.046 54.272 134.046 52.424C134.046 50.642 134.706 49.542 135.366 48.882C136.136 48.134 137.258 47.65 138.49 47.65C139.832 47.65 140.888 48.222 141.614 49.168ZM138.666 49.058C137.698 49.058 137.038 49.476 136.598 49.916C135.828 50.708 135.674 51.676 135.674 52.424C135.674 53.216 135.828 54.294 136.708 55.108C137.214 55.57 137.83 55.856 138.666 55.856C139.502 55.856 140.162 55.592 140.668 55.086C141.284 54.492 141.702 53.524 141.702 52.446C141.702 51.368 141.306 50.422 140.734 49.872C140.228 49.366 139.48 49.058 138.666 49.058ZM158.329 49.168V47.87H159.913V57H158.329V55.724C157.801 56.406 156.811 57.264 155.205 57.264C152.895 57.264 150.761 55.636 150.761 52.424C150.761 49.278 152.873 47.65 155.205 47.65C156.965 47.65 157.911 48.618 158.329 49.168ZM155.381 49.058C153.819 49.058 152.389 50.202 152.389 52.424C152.389 54.382 153.489 55.856 155.381 55.856C157.317 55.856 158.417 54.25 158.417 52.446C158.417 50.092 156.789 49.058 155.381 49.058ZM170.063 48.53V50.422C169.227 49.366 168.017 49.058 167.203 49.058C165.509 49.058 163.969 50.246 163.969 52.468C163.969 54.69 165.553 55.856 167.181 55.856C168.127 55.856 169.293 55.438 170.129 54.426V56.318C169.139 57.044 168.083 57.264 167.225 57.264C164.387 57.264 162.341 55.24 162.341 52.49C162.341 49.696 164.409 47.65 167.225 47.65C168.677 47.65 169.623 48.222 170.063 48.53ZM179.709 48.53V50.422C178.873 49.366 177.663 49.058 176.849 49.058C175.155 49.058 173.615 50.246 173.615 52.468C173.615 54.69 175.199 55.856 176.827 55.856C177.773 55.856 178.939 55.438 179.775 54.426V56.318C178.785 57.044 177.729 57.264 176.871 57.264C174.033 57.264 171.987 55.24 171.987 52.49C171.987 49.696 174.055 47.65 176.871 47.65C178.323 47.65 179.269 48.222 179.709 48.53ZM183.79 47.87V53.194C183.79 53.832 183.79 54.58 184.23 55.152C184.472 55.46 184.956 55.856 185.836 55.856C186.716 55.856 187.2 55.46 187.442 55.152C187.882 54.58 187.882 53.832 187.882 53.194V47.87H189.466V53.37C189.466 54.492 189.356 55.328 188.63 56.12C187.816 56.978 186.738 57.264 185.836 57.264C184.934 57.264 183.856 56.978 183.042 56.12C182.316 55.328 182.206 54.492 182.206 53.37V47.87H183.79ZM192.454 57V47.87H194.038V48.86C194.192 48.618 194.874 47.65 196.106 47.65C196.59 47.65 197.118 47.826 197.514 48.024L196.766 49.454C196.414 49.212 196.084 49.146 195.842 49.146C195.204 49.146 194.808 49.41 194.566 49.718C194.302 50.07 194.038 50.686 194.038 52.182V57H192.454ZM205.487 49.168V47.87H207.071V57H205.487V55.724C204.959 56.406 203.969 57.264 202.363 57.264C200.053 57.264 197.919 55.636 197.919 52.424C197.919 49.278 200.031 47.65 202.363 47.65C204.123 47.65 205.069 48.618 205.487 49.168ZM202.539 49.058C200.977 49.058 199.547 50.202 199.547 52.424C199.547 54.382 200.647 55.856 202.539 55.856C204.475 55.856 205.575 54.25 205.575 52.446C205.575 50.092 203.947 49.058 202.539 49.058ZM213.283 49.322H211.699V57H210.115V49.322H209.147V47.87H210.115V44.57H211.699V47.87H213.283V49.322ZM221.552 53.942L222.872 54.668C222.608 55.174 222.212 55.724 221.75 56.142C220.914 56.89 219.88 57.264 218.714 57.264C216.514 57.264 214.204 55.878 214.204 52.49C214.204 49.762 215.876 47.65 218.626 47.65C220.408 47.65 221.53 48.53 222.08 49.322C222.652 50.136 222.982 51.544 222.938 52.754H215.832C215.854 54.646 217.152 55.856 218.736 55.856C219.484 55.856 220.078 55.636 220.606 55.196C221.024 54.844 221.354 54.382 221.552 53.942ZM215.942 51.434H221.31C221.046 50.004 219.968 49.058 218.626 49.058C217.284 49.058 216.184 50.07 215.942 51.434ZM237.653 48.53V50.422C236.817 49.366 235.607 49.058 234.793 49.058C233.099 49.058 231.559 50.246 231.559 52.468C231.559 54.69 233.143 55.856 234.771 55.856C235.717 55.856 236.883 55.438 237.719 54.426V56.318C236.729 57.044 235.673 57.264 234.815 57.264C231.977 57.264 229.931 55.24 229.931 52.49C229.931 49.696 231.999 47.65 234.815 47.65C236.267 47.65 237.213 48.222 237.653 48.53ZM244.417 57.264C241.645 57.264 239.577 55.24 239.577 52.468C239.577 49.696 241.623 47.65 244.417 47.65C247.211 47.65 249.257 49.696 249.257 52.468C249.257 55.24 247.189 57.264 244.417 57.264ZM244.417 49.058C242.745 49.058 241.205 50.246 241.205 52.468C241.205 54.712 242.789 55.856 244.417 55.856C246.067 55.856 247.629 54.69 247.629 52.468C247.629 50.224 246.089 49.058 244.417 49.058ZM251.686 57V47.87H253.27V48.926C253.556 48.552 254.37 47.65 255.888 47.65C256.966 47.65 257.956 48.09 258.506 48.904C258.968 49.586 259.034 50.334 259.034 51.346V57H257.45V51.39C257.45 50.84 257.406 50.202 257.032 49.718C256.724 49.322 256.24 49.058 255.536 49.058C254.986 49.058 254.392 49.212 253.93 49.762C253.314 50.488 253.27 51.566 253.27 52.226V57H251.686ZM265.232 49.322H263.648V57H262.064V49.322H261.096V47.87H262.064V44.57H263.648V47.87H265.232V49.322ZM266.725 57V47.87H268.309V48.86C268.463 48.618 269.145 47.65 270.377 47.65C270.861 47.65 271.389 47.826 271.785 48.024L271.037 49.454C270.685 49.212 270.355 49.146 270.113 49.146C269.475 49.146 269.079 49.41 268.837 49.718C268.573 50.07 268.309 50.686 268.309 52.182V57H266.725ZM276.966 57.264C274.194 57.264 272.126 55.24 272.126 52.468C272.126 49.696 274.172 47.65 276.966 47.65C279.76 47.65 281.806 49.696 281.806 52.468C281.806 55.24 279.738 57.264 276.966 57.264ZM276.966 49.058C275.294 49.058 273.754 50.246 273.754 52.468C273.754 54.712 275.338 55.856 276.966 55.856C278.616 55.856 280.178 54.69 280.178 52.468C280.178 50.224 278.638 49.058 276.966 49.058ZM284.235 40.962H285.819V57H284.235V40.962ZM287.535 59.926L289.339 54.844L290.791 55.372L288.569 60.344L287.535 59.926ZM303.22 57.264C300.448 57.264 298.38 55.24 298.38 52.468C298.38 49.696 300.426 47.65 303.22 47.65C306.014 47.65 308.06 49.696 308.06 52.468C308.06 55.24 305.992 57.264 303.22 57.264ZM303.22 49.058C301.548 49.058 300.008 50.246 300.008 52.468C300.008 54.712 301.592 55.856 303.22 55.856C304.87 55.856 306.432 54.69 306.432 52.468C306.432 50.224 304.892 49.058 303.22 49.058ZM312.073 55.724V62.06H310.489V47.87H312.073V49.146C313.151 47.804 314.537 47.65 315.197 47.65C318.057 47.65 319.641 50.026 319.641 52.49C319.641 54.998 318.035 57.264 315.263 57.264C313.789 57.264 312.755 56.604 312.073 55.724ZM315.043 55.856C316.891 55.856 318.013 54.316 318.013 52.49C318.013 50.246 316.495 49.058 315.021 49.058C313.547 49.058 311.985 50.268 311.985 52.468C311.985 54.338 313.173 55.856 315.043 55.856ZM325.281 49.322H323.697V57H322.113V49.322H321.145V47.87H322.113V44.57H323.697V47.87H325.281V49.322ZM326.774 47.87H328.358V57H326.774V47.87ZM326.444 44.416C326.444 43.8 326.95 43.294 327.566 43.294C328.182 43.294 328.688 43.8 328.688 44.416C328.688 45.032 328.182 45.538 327.566 45.538C326.95 45.538 326.444 45.032 326.444 44.416ZM331.35 57V47.87H332.934V48.838C333.44 48.09 334.232 47.65 335.2 47.65C336.85 47.65 337.51 48.816 337.686 49.124C338.566 47.738 339.82 47.65 340.436 47.65C343.142 47.65 343.406 49.916 343.406 51.214V57H341.822V51.456C341.822 50.422 341.69 49.058 340.194 49.058C338.368 49.058 338.17 50.818 338.17 51.918V57H336.586V51.588C336.586 50.95 336.608 49.058 334.936 49.058C333.132 49.058 332.934 50.928 332.934 52.028V57H331.35ZM353.407 49.168V47.87H354.991V57H353.407V55.724C352.879 56.406 351.889 57.264 350.283 57.264C347.973 57.264 345.839 55.636 345.839 52.424C345.839 49.278 347.951 47.65 350.283 47.65C352.043 47.65 352.989 48.618 353.407 49.168ZM350.459 49.058C348.897 49.058 347.467 50.202 347.467 52.424C347.467 54.382 348.567 55.856 350.459 55.856C352.395 55.856 353.495 54.25 353.495 52.446C353.495 50.092 351.867 49.058 350.459 49.058ZM357.991 40.962H359.575V57H357.991V40.962ZM369.286 55.724V57H367.702V40.962H369.286V49.146C370.364 47.804 371.75 47.65 372.41 47.65C375.27 47.65 376.854 50.026 376.854 52.49C376.854 54.998 375.248 57.264 372.476 57.264C371.002 57.264 369.968 56.604 369.286 55.724ZM372.256 55.856C374.104 55.856 375.226 54.316 375.226 52.49C375.226 50.246 373.708 49.058 372.234 49.058C370.76 49.058 369.198 50.268 369.198 52.468C369.198 54.338 370.386 55.856 372.256 55.856ZM386.278 49.168V47.87H387.862V57H386.278V55.724C385.75 56.406 384.76 57.264 383.154 57.264C380.844 57.264 378.71 55.636 378.71 52.424C378.71 49.278 380.822 47.65 383.154 47.65C384.914 47.65 385.86 48.618 386.278 49.168ZM383.33 49.058C381.768 49.058 380.338 50.202 380.338 52.424C380.338 54.382 381.438 55.856 383.33 55.856C385.266 55.856 386.366 54.25 386.366 52.446C386.366 50.092 384.738 49.058 383.33 49.058ZM390.862 40.962H392.446V57H390.862V40.962ZM395.438 40.962H397.022V57H395.438V40.962ZM400.015 47.87H401.599V57H400.015V47.87ZM399.685 44.416C399.685 43.8 400.191 43.294 400.807 43.294C401.423 43.294 401.929 43.8 401.929 44.416C401.929 45.032 401.423 45.538 400.807 45.538C400.191 45.538 399.685 45.032 399.685 44.416ZM409.651 49.3L408.353 49.982C408.133 49.454 407.671 49.058 407.077 49.058C406.505 49.058 405.977 49.388 405.977 50.092C405.977 50.752 406.417 50.95 407.451 51.39C408.771 51.94 409.387 52.358 409.739 52.798C410.135 53.282 410.223 53.766 410.223 54.272C410.223 56.186 408.837 57.264 407.077 57.264C406.703 57.264 404.657 57.22 403.887 54.932L405.251 54.36C405.427 54.844 405.955 55.856 407.099 55.856C408.133 55.856 408.595 55.086 408.595 54.404C408.595 53.546 407.979 53.26 407.121 52.886C406.021 52.402 405.317 52.05 404.899 51.544C404.547 51.104 404.481 50.664 404.481 50.202C404.481 48.596 405.603 47.65 407.143 47.65C407.627 47.65 408.925 47.738 409.651 49.3ZM415.537 49.322H413.953V57H412.369V49.322H411.401V47.87H412.369V44.57H413.953V47.87H415.537V49.322ZM417.03 47.87H418.614V57H417.03V47.87ZM416.7 44.416C416.7 43.8 417.206 43.294 417.822 43.294C418.438 43.294 418.944 43.8 418.944 44.416C418.944 45.032 418.438 45.538 417.822 45.538C417.206 45.538 416.7 45.032 416.7 44.416ZM428.756 48.53V50.422C427.92 49.366 426.71 49.058 425.896 49.058C424.202 49.058 422.662 50.246 422.662 52.468C422.662 54.69 424.246 55.856 425.874 55.856C426.82 55.856 427.986 55.438 428.822 54.426V56.318C427.832 57.044 426.776 57.264 425.918 57.264C423.08 57.264 421.034 55.24 421.034 52.49C421.034 49.696 423.102 47.65 425.918 47.65C427.37 47.65 428.316 48.222 428.756 48.53ZM436.313 49.3L435.015 49.982C434.795 49.454 434.333 49.058 433.739 49.058C433.167 49.058 432.639 49.388 432.639 50.092C432.639 50.752 433.079 50.95 434.113 51.39C435.433 51.94 436.049 52.358 436.401 52.798C436.797 53.282 436.885 53.766 436.885 54.272C436.885 56.186 435.499 57.264 433.739 57.264C433.365 57.264 431.319 57.22 430.549 54.932L431.913 54.36C432.089 54.844 432.617 55.856 433.761 55.856C434.795 55.856 435.257 55.086 435.257 54.404C435.257 53.546 434.641 53.26 433.783 52.886C432.683 52.402 431.979 52.05 431.561 51.544C431.209 51.104 431.143 50.664 431.143 50.202C431.143 48.596 432.265 47.65 433.805 47.65C434.289 47.65 435.587 47.738 436.313 49.3ZM437.711 59.926L439.515 54.844L440.967 55.372L438.745 60.344L437.711 59.926ZM456.124 49.168V47.87H457.708V57H456.124V55.724C455.596 56.406 454.606 57.264 453 57.264C450.69 57.264 448.556 55.636 448.556 52.424C448.556 49.278 450.668 47.65 453 47.65C454.76 47.65 455.706 48.618 456.124 49.168ZM453.176 49.058C451.614 49.058 450.184 50.202 450.184 52.424C450.184 54.382 451.284 55.856 453.176 55.856C455.112 55.856 456.212 54.25 456.212 52.446C456.212 50.092 454.584 49.058 453.176 49.058ZM460.708 57V47.87H462.292V48.926C462.578 48.552 463.392 47.65 464.91 47.65C465.988 47.65 466.978 48.09 467.528 48.904C467.99 49.586 468.056 50.334 468.056 51.346V57H466.472V51.39C466.472 50.84 466.428 50.202 466.054 49.718C465.746 49.322 465.262 49.058 464.558 49.058C464.008 49.058 463.414 49.212 462.952 49.762C462.336 50.488 462.292 51.566 462.292 52.226V57H460.708ZM478.038 49.168V40.962H479.622V57H478.038V55.724C477.51 56.406 476.52 57.264 474.914 57.264C472.604 57.264 470.47 55.636 470.47 52.424C470.47 49.278 472.582 47.65 474.914 47.65C476.674 47.65 477.62 48.618 478.038 49.168ZM475.09 49.058C473.528 49.058 472.098 50.202 472.098 52.424C472.098 54.382 473.198 55.856 475.09 55.856C477.026 55.856 478.126 54.25 478.126 52.446C478.126 50.092 476.498 49.058 475.09 49.058ZM487.757 57V40.962H489.341V48.926C489.627 48.552 490.441 47.65 491.959 47.65C493.037 47.65 494.027 48.09 494.577 48.904C495.039 49.586 495.105 50.334 495.105 51.346V57H493.521V51.39C493.521 50.84 493.477 50.202 493.103 49.718C492.795 49.322 492.311 49.058 491.607 49.058C491.057 49.058 490.463 49.212 490.001 49.762C489.385 50.488 489.341 51.566 489.341 52.226V57H487.757ZM498.091 47.87H499.675V57H498.091V47.87ZM497.761 44.416C497.761 43.8 498.267 43.294 498.883 43.294C499.499 43.294 500.005 43.8 500.005 44.416C500.005 45.032 499.499 45.538 498.883 45.538C498.267 45.538 497.761 45.032 497.761 44.416ZM509.663 49.168V47.87H511.247V56.78C511.247 57.77 511.247 59.178 510.367 60.366C509.685 61.29 508.431 62.06 506.715 62.06C505.153 62.06 504.075 61.444 503.459 60.828C502.843 60.212 502.271 59.222 502.271 57.88H503.833C503.833 58.65 504.141 59.332 504.537 59.772C505.197 60.498 506.033 60.652 506.737 60.652C507.859 60.652 508.629 60.256 509.157 59.376C509.619 58.628 509.663 57.814 509.663 57.044V55.724C509.135 56.406 508.145 57.264 506.539 57.264C505.197 57.264 504.119 56.736 503.415 56.032C502.799 55.416 502.095 54.272 502.095 52.424C502.095 50.642 502.755 49.542 503.415 48.882C504.185 48.134 505.307 47.65 506.539 47.65C507.881 47.65 508.937 48.222 509.663 49.168ZM506.715 49.058C505.747 49.058 505.087 49.476 504.647 49.916C503.877 50.708 503.723 51.676 503.723 52.424C503.723 53.216 503.877 54.294 504.757 55.108C505.263 55.57 505.879 55.856 506.715 55.856C507.551 55.856 508.211 55.592 508.717 55.086C509.333 54.492 509.751 53.524 509.751 52.446C509.751 51.368 509.355 50.422 508.783 49.872C508.277 49.366 507.529 49.058 506.715 49.058ZM514.247 57V40.962H515.831V48.926C516.117 48.552 516.931 47.65 518.449 47.65C519.527 47.65 520.517 48.09 521.067 48.904C521.529 49.586 521.595 50.334 521.595 51.346V57H520.011V51.39C520.011 50.84 519.967 50.202 519.593 49.718C519.285 49.322 518.801 49.058 518.097 49.058C517.547 49.058 516.953 49.212 516.491 49.762C515.875 50.488 515.831 51.566 515.831 52.226V57H514.247ZM534.776 49.3L533.478 49.982C533.258 49.454 532.796 49.058 532.202 49.058C531.63 49.058 531.102 49.388 531.102 50.092C531.102 50.752 531.542 50.95 532.576 51.39C533.896 51.94 534.512 52.358 534.864 52.798C535.26 53.282 535.348 53.766 535.348 54.272C535.348 56.186 533.962 57.264 532.202 57.264C531.828 57.264 529.782 57.22 529.012 54.932L530.376 54.36C530.552 54.844 531.08 55.856 532.224 55.856C533.258 55.856 533.72 55.086 533.72 54.404C533.72 53.546 533.104 53.26 532.246 52.886C531.146 52.402 530.442 52.05 530.024 51.544C529.672 51.104 529.606 50.664 529.606 50.202C529.606 48.596 530.728 47.65 532.268 47.65C532.752 47.65 534.05 47.738 534.776 49.3ZM539.034 55.724V62.06H537.45V47.87H539.034V49.146C540.112 47.804 541.498 47.65 542.158 47.65C545.018 47.65 546.602 50.026 546.602 52.49C546.602 54.998 544.996 57.264 542.224 57.264C540.75 57.264 539.716 56.604 539.034 55.724ZM542.004 55.856C543.852 55.856 544.974 54.316 544.974 52.49C544.974 50.246 543.456 49.058 541.982 49.058C540.508 49.058 538.946 50.268 538.946 52.468C538.946 54.338 540.134 55.856 542.004 55.856ZM549.03 47.87H550.614V57H549.03V47.87ZM548.7 44.416C548.7 43.8 549.206 43.294 549.822 43.294C550.438 43.294 550.944 43.8 550.944 44.416C550.944 45.032 550.438 45.538 549.822 45.538C549.206 45.538 548.7 45.032 548.7 44.416ZM553.606 57V47.87H555.19V48.926C555.476 48.552 556.29 47.65 557.808 47.65C558.886 47.65 559.876 48.09 560.426 48.904C560.888 49.586 560.954 50.334 560.954 51.346V57H559.37V51.39C559.37 50.84 559.326 50.202 558.952 49.718C558.644 49.322 558.16 49.058 557.456 49.058C556.906 49.058 556.312 49.212 555.85 49.762C555.234 50.488 555.19 51.566 555.19 52.226V57H553.606ZM563.852 56.12C563.852 55.526 564.358 55.02 564.952 55.02C565.546 55.02 566.052 55.526 566.052 56.12C566.052 56.714 565.546 57.22 564.952 57.22C564.358 57.22 563.852 56.714 563.852 56.12Z" fill="#B4B4B4"/>
</svg>
