<svg width="1008" height="142" viewBox="0 0 1008 142" fill="none" xmlns="http://www.w3.org/2000/svg">
<path d="M35.5225 2.23828L66.2109 87.4922H65.5518L92.9443 2.23828H123.56V3.77637C121.216 4.21582 119.385 4.80176 118.066 5.53418C116.797 6.21777 115.942 7.19434 115.503 8.46387C115.063 9.7334 114.868 11.4424 114.917 13.5908L117.847 96.6475C117.944 98.8936 118.213 100.651 118.652 101.921C119.141 103.19 120.044 104.167 121.362 104.851C122.681 105.485 124.609 106.022 127.148 106.462V108H87.4512V106.462C89.9414 106.022 91.8457 105.485 93.1641 104.851C94.4824 104.216 95.3857 103.264 95.874 101.994C96.3623 100.725 96.5576 98.9668 96.46 96.7207L93.6768 10.6611H94.5557L68.042 85.7344L60.6445 108H51.5625L15.6738 8.90332H16.7725L15.7471 88.5176C15.6982 92.9609 15.8936 96.4033 16.333 98.8447C16.7725 101.237 17.7002 102.971 19.1162 104.045C20.5322 105.119 22.6807 105.9 25.5615 106.389V108H0.65918L0.65918 106.462C3.49121 106.022 5.61523 105.266 7.03125 104.191C8.49609 103.068 9.52148 101.286 10.1074 98.8447C10.6934 96.4033 11.084 92.9854 11.2793 88.5908L14.4287 15.7881C14.5752 13.2979 14.3799 11.2715 13.8428 9.70898C13.3057 8.09766 12.3779 6.82813 11.0596 5.90039C9.74121 4.97266 7.9834 4.26465 5.78613 3.77637V2.23828H35.5225ZM154.614 109.245C148.706 109.245 143.823 107.707 139.966 104.631C136.157 101.555 134.253 97.3799 134.253 92.1064C134.253 88.5908 135.229 85.4658 137.183 82.7314C139.136 79.9971 142.261 77.6045 146.558 75.5537C150.903 73.5029 156.592 71.7695 163.623 70.3535L180.688 66.8379V68.6689L171.973 70.6465C167.383 71.6719 163.745 73.0391 161.06 74.748C158.423 76.457 156.543 78.5078 155.42 80.9004C154.346 83.2441 153.809 85.9541 153.809 89.0303C153.809 93.4248 154.956 96.7939 157.251 99.1377C159.546 101.481 162.329 102.653 165.601 102.653C168.335 102.653 170.679 102.116 172.632 101.042C174.585 99.9678 176.147 98.3076 177.319 96.0615V58.708C177.319 51.6768 175.684 46.6719 172.412 43.6934C169.189 40.666 164.722 39.1523 159.009 39.1523C155.493 39.1523 152.222 39.7627 149.194 40.9834C146.167 42.1553 143.701 43.7666 141.797 45.8174C139.941 47.8682 138.916 50.2119 138.721 52.8486H137.622C137.72 50.2607 138.623 48.0879 140.332 46.3301C142.09 44.5234 144.043 43.6201 146.191 43.6201C148.633 43.6201 150.732 44.4746 152.49 46.1836C154.248 47.8926 155.127 50.041 155.127 52.6289C155.127 55.1191 154.224 57.2432 152.417 59.001C150.659 60.71 148.511 61.5645 145.972 61.5645C143.53 61.5645 141.406 60.71 139.6 59.001C137.793 57.292 136.89 55.168 136.89 52.6289C136.89 49.5527 138.086 46.7451 140.479 44.2061C142.92 41.667 146.338 39.6406 150.732 38.127C155.176 36.6133 160.376 35.8564 166.333 35.8564C175.562 35.8564 182.886 37.6875 188.306 41.3496C193.726 44.9629 196.436 50.7246 196.436 58.6348V95.6221C196.436 98.7471 197.119 101.042 198.486 102.507C199.854 103.923 201.587 104.631 203.687 104.631C204.712 104.631 205.615 104.509 206.396 104.265V105.729C205.127 106.608 203.32 107.365 200.977 108C198.633 108.586 196.094 108.879 193.359 108.879C190.674 108.879 188.208 108.464 185.962 107.634C183.716 106.755 181.836 105.485 180.322 103.825C178.809 102.116 177.856 99.9922 177.466 97.4531C176.636 99.7969 175.122 101.872 172.925 103.679C170.776 105.437 168.14 106.804 165.015 107.78C161.89 108.757 158.423 109.245 154.614 109.245ZM217.456 48.3076C215.405 45.0361 213.574 42.7168 211.963 41.3496C210.4 39.9824 208.545 39.0791 206.396 38.6396V37.1016H243.896V38.6396C239.941 39.0303 237.695 40.0801 237.158 41.7891C236.621 43.4492 237.598 46.3789 240.088 50.5781L268.799 96.6475C270.85 99.9678 272.681 102.312 274.292 103.679C275.903 105.046 277.808 105.974 280.005 106.462V108H242.358V106.462C244.995 106.169 246.875 105.632 247.998 104.851C249.121 104.021 249.512 102.775 249.17 101.115C248.828 99.4551 247.803 97.1846 246.094 94.3037L217.456 48.3076ZM264.258 51.3105L251.074 70.0605L236.426 75.5537L225 94.4502C222.51 98.7471 221.606 101.677 222.29 103.239C223.022 104.753 225.122 105.827 228.589 106.462V108H206.177V106.462C208.228 105.876 209.985 105.168 211.45 104.338C212.915 103.508 214.404 102.263 215.918 100.603C217.432 98.8936 219.238 96.5254 221.338 93.498L235.034 74.1621L249.463 68.8887L260.522 50.4316C262.134 47.5508 263.086 45.3535 263.379 43.8398C263.672 42.2773 263.281 41.1299 262.207 40.3975C261.133 39.6162 259.351 39.0303 256.86 38.6396V37.1016H278.979V38.6396C277.075 39.1279 275.391 39.7871 273.926 40.6172C272.461 41.4473 270.972 42.6924 269.458 44.3525C267.993 45.9639 266.26 48.2832 264.258 51.3105ZM309.888 36.1494V98.1855C309.888 100.92 310.376 102.824 311.353 103.898C312.329 104.924 314.478 105.778 317.798 106.462V108H282.349V106.462C285.62 105.778 287.744 104.924 288.721 103.898C289.697 102.824 290.186 100.92 290.186 98.1855V48.8203C290.186 46.623 289.917 45.1338 289.38 44.3525C288.892 43.5713 287.671 42.79 285.718 42.0088L282.349 40.8369V39.4453L309.888 36.1494ZM298.828 25.9687C295.996 25.9687 293.579 25.041 291.577 23.1855C289.575 21.2812 288.574 18.9619 288.574 16.2275C288.574 13.4932 289.575 11.1982 291.577 9.34277C293.579 7.43848 295.996 6.48633 298.828 6.48633C301.66 6.48633 304.077 7.43848 306.079 9.34277C308.081 11.1982 309.082 13.4932 309.082 16.2275C309.082 18.9619 308.081 21.2812 306.079 23.1855C304.077 25.041 301.66 25.9687 298.828 25.9687ZM350.83 36.1494V50.2119L350.903 50.2852V98.6982C350.903 101.286 351.318 103.093 352.148 104.118C352.979 105.095 354.98 105.876 358.154 106.462V108H323.364V106.462C326.636 105.778 328.76 104.924 329.736 103.898C330.713 102.824 331.201 100.92 331.201 98.1855V48.8203C331.201 46.623 330.933 45.1338 330.396 44.3525C329.907 43.5713 328.687 42.79 326.733 42.0088L323.364 40.8369V39.4453L350.83 36.1494ZM374.707 35.8564C381.787 35.8564 387.329 37.7119 391.333 41.4229C395.386 45.085 397.412 50.5049 397.412 57.6826V98.6982C397.412 101.286 397.803 103.093 398.584 104.118C399.414 105.095 401.44 105.876 404.663 106.462V108H370.459V106.462C373.633 105.876 375.635 105.095 376.465 104.118C377.295 103.093 377.71 101.286 377.71 98.6982V59.2939C377.71 53.8252 376.562 49.7969 374.268 47.209C372.021 44.5723 368.774 43.2539 364.526 43.2539C361.255 43.2539 358.472 43.9619 356.177 45.3779C353.931 46.7939 352.075 48.8447 350.61 51.5303V49.9922C352.612 45.6465 355.688 42.2041 359.839 39.665C363.989 37.126 368.945 35.8564 374.707 35.8564ZM420.85 35.8564C427.686 35.8564 433.228 37.6387 437.476 41.2031C441.724 44.7676 443.848 50.334 443.848 57.9023V98.1855C443.848 100.92 444.336 102.824 445.312 103.898C446.338 104.924 448.486 105.778 451.758 106.462V108H416.895V106.462C420.117 105.876 422.119 105.095 422.9 104.118C423.73 103.093 424.146 101.286 424.146 98.6982V59.2939C424.146 53.8252 422.998 49.7969 420.703 47.209C418.457 44.5723 415.186 43.2539 410.889 43.2539C407.52 43.2539 404.565 43.9863 402.026 45.4512C399.536 46.8672 397.583 48.9424 396.167 51.6768V50.2119C398.169 45.7197 401.367 42.2041 405.762 39.665C410.205 37.126 415.234 35.8564 420.85 35.8564ZM483.398 36.1494V85.4414C483.398 91.0078 484.595 95.1338 486.987 97.8193C489.38 100.505 492.822 101.848 497.314 101.848C500.439 101.848 503.174 101.14 505.518 99.7236C507.861 98.3076 509.692 96.4033 511.011 94.0107V48.8203C511.011 46.623 510.767 45.1338 510.278 44.3525C509.79 43.5713 508.545 42.79 506.543 42.0088L503.101 40.8369V39.4453L530.713 36.1494V96.2812C530.713 98.5273 530.957 100.041 531.445 100.822C531.982 101.604 533.252 102.36 535.254 103.093L538.623 104.265V105.729L511.084 108.659V95.4023C509.18 99.6016 506.128 102.971 501.929 105.51C497.778 108 492.871 109.245 487.207 109.245C480.322 109.245 474.683 107.463 470.288 103.898C465.894 100.285 463.696 94.5967 463.696 86.833V48.8203C463.696 46.623 463.428 45.1338 462.891 44.3525C462.402 43.5713 461.157 42.79 459.155 42.0088L455.786 40.8369V39.4453L483.398 36.1494ZM571.582 36.1494V50.2119L571.655 50.2852V98.6982C571.655 101.286 572.07 103.093 572.9 104.118C573.73 105.095 575.732 105.876 578.906 106.462V108H544.116V106.462C547.388 105.778 549.512 104.924 550.488 103.898C551.465 102.824 551.953 100.92 551.953 98.1855V48.8203C551.953 46.623 551.685 45.1338 551.147 44.3525C550.659 43.5713 549.438 42.79 547.485 42.0088L544.116 40.8369V39.4453L571.582 36.1494ZM595.459 35.8564C602.539 35.8564 608.081 37.7119 612.085 41.4229C616.138 45.085 618.164 50.5049 618.164 57.6826V98.6982C618.164 101.286 618.555 103.093 619.336 104.118C620.166 105.095 622.192 105.876 625.415 106.462V108H591.211V106.462C594.385 105.876 596.387 105.095 597.217 104.118C598.047 103.093 598.462 101.286 598.462 98.6982V59.2939C598.462 53.8252 597.314 49.7969 595.02 47.209C592.773 44.5723 589.526 43.2539 585.278 43.2539C582.007 43.2539 579.224 43.9619 576.929 45.3779C574.683 46.7939 572.827 48.8447 571.362 51.5303V49.9922C573.364 45.6465 576.44 42.2041 580.591 39.665C584.741 37.126 589.697 35.8564 595.459 35.8564ZM641.602 35.8564C648.438 35.8564 653.979 37.6387 658.228 41.2031C662.476 44.7676 664.6 50.334 664.6 57.9023V98.1855C664.6 100.92 665.088 102.824 666.064 103.898C667.09 104.924 669.238 105.778 672.51 106.462V108H637.646V106.462C640.869 105.876 642.871 105.095 643.652 104.118C644.482 103.093 644.897 101.286 644.897 98.6982V59.2939C644.897 53.8252 643.75 49.7969 641.455 47.209C639.209 44.5723 635.938 43.2539 631.641 43.2539C628.271 43.2539 625.317 43.9863 622.778 45.4512C620.288 46.8672 618.335 48.9424 616.919 51.6768V50.2119C618.921 45.7197 622.119 42.2041 626.514 39.665C630.957 37.126 635.986 35.8564 641.602 35.8564ZM747.583 109.392C740.112 109.392 733.545 108.708 727.881 107.341C722.266 105.974 717.749 104.338 714.331 102.434L713.159 74.8945H714.624C715.747 80.0703 717.358 84.6602 719.458 88.6641C721.606 92.668 724.121 96.0371 727.002 98.7715C729.932 101.506 733.13 103.581 736.597 104.997C740.112 106.413 743.774 107.121 747.583 107.121C753.882 107.121 758.984 105.339 762.891 101.774C766.846 98.21 768.823 93.4248 768.823 87.4189C768.823 82.292 767.212 77.9951 763.989 74.5283C760.767 71.0615 755.64 68.0098 748.608 65.373L740.039 62.2236C731.543 59.0498 725.024 54.875 720.483 49.6992C715.942 44.4746 713.672 38.127 713.672 30.6562C713.672 24.0645 715.356 18.5713 718.726 14.1768C722.095 9.78223 726.685 6.46191 732.495 4.21582C738.306 1.96973 744.824 0.84668 752.051 0.84668C758.74 0.84668 764.429 1.45703 769.116 2.67773C773.804 3.89844 777.344 5.29004 779.736 6.85254L780.469 31.0957H779.004C777.637 25.3828 775.684 20.4512 773.145 16.3008C770.654 12.1016 767.627 8.85449 764.062 6.55957C760.547 4.26465 756.519 3.11719 751.978 3.11719C745.337 3.11719 740.259 4.75293 736.743 8.02441C733.276 11.2471 731.543 15.4219 731.543 20.5488C731.543 25.7246 733.252 29.9727 736.67 33.293C740.137 36.5645 745.166 39.4453 751.758 41.9355L760.181 45.085C768.872 48.3564 775.464 52.7021 779.956 58.1221C784.448 63.4932 786.694 69.9873 786.694 77.6045C786.694 84.0986 784.937 89.7383 781.421 94.5234C777.905 99.2598 773.193 102.922 767.285 105.51C761.377 108.098 754.81 109.392 747.583 109.392ZM874.951 71.9648C874.951 79.7285 873.389 86.3936 870.264 91.96C867.188 97.5264 863.086 101.799 857.959 104.777C852.832 107.756 847.217 109.245 841.113 109.245C836.621 109.245 832.715 108.366 829.395 106.608C826.123 104.802 823.804 102.458 822.437 99.5771V131.511C822.437 133.415 822.632 134.904 823.022 135.979C823.462 137.102 824.292 137.956 825.513 138.542C826.782 139.128 828.662 139.665 831.152 140.153V141.691H794.897V140.153C798.315 139.567 800.488 138.737 801.416 137.663C802.344 136.638 802.808 134.831 802.808 132.243V48.8203C802.808 46.623 802.539 45.1338 802.002 44.3525C801.514 43.5225 800.269 42.7412 798.267 42.0088L794.897 40.8369V39.4453L822.363 36.1494V49.8457C824.121 45.6953 827.051 42.3262 831.152 39.7383C835.303 37.1504 840.088 35.8564 845.508 35.8564C850.781 35.8564 855.64 37.2725 860.083 40.1045C864.575 42.9365 868.164 47.0381 870.85 52.4092C873.584 57.7803 874.951 64.2988 874.951 71.9648ZM854.517 74.1621C854.517 67.9121 853.735 62.4678 852.173 57.8291C850.61 53.1904 848.438 49.6016 845.654 47.0625C842.871 44.5234 839.673 43.2539 836.06 43.2539C832.837 43.2539 830.103 43.9375 827.856 45.3047C825.659 46.6719 823.853 48.625 822.437 51.1641V97.4531C823.413 99.6504 825.073 101.457 827.417 102.873C829.761 104.289 832.324 104.997 835.107 104.997C839.062 104.997 842.48 103.728 845.361 101.188C848.291 98.6006 850.537 94.9873 852.1 90.3486C853.711 85.71 854.517 80.3145 854.517 74.1621ZM910.913 36.1494V98.1855C910.913 100.92 911.401 102.824 912.378 103.898C913.354 104.924 915.503 105.778 918.823 106.462V108H883.374V106.462C886.646 105.778 888.77 104.924 889.746 103.898C890.723 102.824 891.211 100.92 891.211 98.1855V48.8203C891.211 46.623 890.942 45.1338 890.405 44.3525C889.917 43.5713 888.696 42.79 886.743 42.0088L883.374 40.8369V39.4453L910.913 36.1494ZM899.854 25.9687C897.021 25.9687 894.604 25.041 892.603 23.1855C890.601 21.2812 889.6 18.9619 889.6 16.2275C889.6 13.4932 890.601 11.1982 892.603 9.34277C894.604 7.43848 897.021 6.48633 899.854 6.48633C902.686 6.48633 905.103 7.43848 907.104 9.34277C909.106 11.1982 910.107 13.4932 910.107 16.2275C910.107 18.9619 909.106 21.2812 907.104 23.1855C905.103 25.041 902.686 25.9687 899.854 25.9687ZM951.855 36.1494V49.6992C953.76 45.5 956.812 42.1553 961.011 39.665C965.21 37.126 970.142 35.8564 975.806 35.8564C982.886 35.8564 988.672 37.6387 993.164 41.2031C997.656 44.7187 999.902 50.3584 999.902 58.1221V98.1855C999.902 100.92 1000.34 102.824 1001.22 103.898C1002.15 104.924 1004.32 105.778 1007.74 106.462V108H972.949V106.462C976.074 105.876 978.052 105.095 978.882 104.118C979.761 103.093 980.2 101.286 980.2 98.6982V59.5137C980.2 53.9961 978.979 49.9189 976.538 47.2822C974.097 44.5967 970.581 43.2539 965.991 43.2539C962.769 43.2539 959.961 43.9619 957.568 45.3779C955.176 46.7451 953.296 48.6494 951.929 51.0908V98.6982C951.929 101.286 952.344 103.093 953.174 104.118C954.004 105.095 956.006 105.876 959.18 106.462V108H924.39V106.462C927.661 105.778 929.785 104.924 930.762 103.898C931.738 102.824 932.227 100.92 932.227 98.1855V48.8203C932.227 46.623 931.958 45.1338 931.421 44.3525C930.933 43.5713 929.712 42.79 927.759 42.0088L924.39 40.8369V39.4453L951.855 36.1494Z" fill="white"/>
</svg>
