<svg width="663" height="126" viewBox="0 0 663 126" fill="none" xmlns="http://www.w3.org/2000/svg">
<path d="M0.140001 2.93999H42.44C52.88 2.93999 64.4 4.37999 73.94 12.84C84.2 21.84 85.64 33.72 85.64 42C85.64 57.12 79.88 65.58 75.38 70.26C65.84 79.98 53.24 80.88 44.78 80.88H27.86V123H0.140001V2.93999ZM27.86 25.62V58.2H37.76C41.54 58.2 48.2 58.02 52.7 53.7C55.22 51.18 57.2 47.04 57.2 41.82C57.2 36.78 55.4 32.64 52.7 30.12C48.56 26.16 42.62 25.62 37.22 25.62H27.86ZM201.068 2.93999V74.04C201.068 85.56 199.628 99.78 187.748 112.02C176.228 123.9 162.908 125.7 150.308 125.7C137.708 125.7 124.388 123.9 112.868 112.02C100.988 99.78 99.5478 85.56 99.5478 74.04V2.93999H127.268V73.32C127.268 78.54 127.628 87.36 133.568 93.48C138.428 98.7 145.088 99.78 150.308 99.78C155.528 99.78 162.188 98.7 167.048 93.48C172.988 87.36 173.348 78.54 173.348 73.32V2.93999H201.068ZM291.961 26.34H265.861V123H238.141V26.34H212.041V2.93999H291.961V26.34ZM380.47 26.34H354.37V123H326.65V26.34H300.55V2.93999H380.47V26.34ZM459.303 2.93999V26.34H419.163V49.56H457.323V72.96H419.163V99.6H459.303V123H391.443V2.93999H459.303ZM478.195 2.93999H520.315C535.615 2.93999 545.155 7.97999 550.915 13.38C555.955 18.24 561.355 26.88 561.355 40.2C561.355 47.76 559.735 57.12 551.995 64.68C547.855 68.64 541.915 72.24 535.255 73.86L572.155 123H538.315L505.915 75.66V123H478.195V2.93999ZM505.915 24.54V57.48H512.215C517.255 57.48 524.095 56.94 528.775 52.26C530.755 50.28 533.275 46.5 533.275 40.56C533.275 33.72 530.035 30.12 527.695 28.32C523.195 24.9 515.995 24.54 512.395 24.54H505.915ZM658.271 12.12L645.851 32.28C636.851 24.18 629.111 23.64 625.691 23.64C621.911 23.64 617.231 24.18 613.991 27.78C612.191 29.58 610.931 32.28 610.931 35.34C610.931 38.22 611.831 40.38 613.631 42C616.511 44.7 620.651 45.78 628.751 48.84L637.751 52.26C642.971 54.24 649.451 56.94 654.131 61.44C661.151 68.1 662.951 76.74 662.951 83.76C662.951 96.18 658.631 106.98 652.331 113.46C641.711 124.62 626.231 125.7 618.311 125.7C609.671 125.7 602.111 124.44 594.551 120.66C588.431 117.6 581.411 112.02 576.911 107.52L591.311 87.72C594.371 90.78 599.231 94.92 602.471 96.9C607.151 99.78 612.011 101.22 617.591 101.22C621.191 101.22 626.231 100.5 630.191 97.08C632.531 95.1 634.511 91.86 634.511 87.36C634.511 83.4 632.891 80.88 630.371 78.72C627.131 76.02 619.751 73.32 616.331 72.06L606.431 68.64C600.851 66.66 594.371 64.14 589.691 59.1C583.391 52.44 582.491 43.98 582.491 38.22C582.491 27.6 585.731 18.6 592.931 11.22C601.391 2.57999 611.471 0.239993 622.631 0.239993C630.911 0.239993 644.231 1.68 658.271 12.12Z" fill="white"/>
</svg>
