<svg width="771" height="91" viewBox="0 0 771 91" fill="none" xmlns="http://www.w3.org/2000/svg">
<path d="M0.880001 2.28999H23.5C35.59 2.28999 46.12 3.59 55.74 10.74C66.27 18.67 72.38 31.28 72.38 45.71C72.38 60.14 66.4 72.62 54.96 80.68C44.82 87.83 35.33 89 23.24 89H0.880001V2.28999ZM17.78 16.85V74.44H22.98C27.27 74.44 36.63 74.18 44.17 68.72C51.06 63.78 54.96 54.94 54.96 45.71C54.96 36.61 51.19 27.77 44.3 22.57C37.28 17.37 28.7 16.85 22.98 16.85H17.78ZM133.47 2.28999V16.85H102.27V36.22H132.17V50.78H102.27V74.44H133.47V89H85.3698V2.28999H133.47ZM195.362 2.28999V16.85H164.162V36.22H194.062V50.78H164.162V74.44H195.362V89H147.262V2.28999H195.362ZM209.154 2.28999H234.374C244.124 2.28999 250.884 3.32999 257.254 8.91999C264.274 15.16 266.094 23.61 266.094 29.85C266.094 33.23 265.574 42.59 258.944 49.22C254.134 54.03 246.984 56.89 236.974 56.89H226.054V89H209.154V2.28999ZM226.054 16.85V42.33H232.944C236.194 42.33 240.354 42.33 243.994 39.6C247.114 37.13 248.674 33.23 248.674 29.46C248.674 24.65 246.334 21.4 243.864 19.58C240.354 17.11 235.934 16.85 231.904 16.85H226.054ZM299.319 89L315.439 2.28999H327.659L350.669 57.41L374.719 2.28999H386.939L401.499 89H384.339L376.539 35.57L353.269 89H347.549L325.319 35.57L316.479 89H299.319ZM414.255 2.28999H431.155V89H414.255V2.28999ZM448.344 2.28999H465.244V74.44H492.024V89H448.344V2.28999ZM501.096 2.28999H517.996V74.44H544.776V89H501.096V2.28999ZM553.847 2.28999H570.747V89H553.847V2.28999ZM604.837 89H587.937V2.28999H599.637L652.417 60.14V2.28999H669.317V89H657.617L604.837 31.02V89ZM730.458 57.15V42.59H770.238V43.63C770.238 49.48 769.458 67.68 757.498 79.51C748.528 88.48 737.478 90.95 726.688 90.95C715.898 90.95 704.718 88.74 695.228 79.25C692.238 76.26 682.358 65.34 682.358 45.84C682.358 29.07 689.898 18.8 695.098 13.6C701.598 6.96999 712.518 0.339995 729.288 0.339995C735.788 0.339995 742.678 1.38 749.308 4.89C754.898 7.75 761.008 12.95 765.558 20.75L750.868 28.68C747.878 22.83 743.458 19.84 740.728 18.41C737.088 16.59 732.538 15.68 728.508 15.68C721.618 15.68 713.818 18.15 708.488 23.35C703.548 28.16 699.778 36.48 699.778 46.23C699.778 57.8 704.718 64.69 708.358 68.2C712.258 71.97 718.368 75.61 727.598 75.61C733.318 75.61 739.818 74.05 744.628 70.41C748.008 67.81 751.388 63.39 752.818 57.15H730.458Z" fill="white"/>
</svg>
