<svg width="767" height="63" viewBox="0 0 767 63" fill="none" xmlns="http://www.w3.org/2000/svg">
<path d="M40.744 17L39.028 12.864H32.78L31.02 17H29.216L35.97 1.622L42.548 17H40.744ZM33.418 11.324H38.39L35.926 5.45L33.418 11.324ZM44.2216 0.961999H45.8056V17H44.2216V0.961999ZM48.7978 0.961999H50.3818V17H48.7978V0.961999ZM60.0927 15.724V17H58.5087V0.961999H60.0927V9.146C61.1707 7.804 62.5567 7.65 63.2167 7.65C66.0767 7.65 67.6607 10.026 67.6607 12.49C67.6607 14.998 66.0547 17.264 63.2827 17.264C61.8087 17.264 60.7747 16.604 60.0927 15.724ZM63.0627 15.856C64.9107 15.856 66.0327 14.316 66.0327 12.49C66.0327 10.246 64.5147 9.058 63.0407 9.058C61.5667 9.058 60.0047 10.268 60.0047 12.468C60.0047 14.338 61.1927 15.856 63.0627 15.856ZM74.3568 17.264C71.5848 17.264 69.5168 15.24 69.5168 12.468C69.5168 9.696 71.5628 7.65 74.3568 7.65C77.1508 7.65 79.1968 9.696 79.1968 12.468C79.1968 15.24 77.1288 17.264 74.3568 17.264ZM74.3568 9.058C72.6848 9.058 71.1448 10.246 71.1448 12.468C71.1448 14.712 72.7288 15.856 74.3568 15.856C76.0068 15.856 77.5688 14.69 77.5688 12.468C77.5688 10.224 76.0288 9.058 74.3568 9.058ZM81.6259 0.961999H83.2099V11.258L86.5539 7.87H88.6219L84.7059 11.786L89.3259 17H87.2579L83.6059 12.842L83.2099 13.238V17H81.6259V0.961999ZM90.8851 22.06L93.7891 16.142L89.5871 7.87H91.3911L94.6251 14.404L97.5951 7.87H99.3551L92.6451 22.06H90.8851ZM104.841 7.87H106.601L109.307 14.074L112.167 7.166L115.005 14.074L117.733 7.87H119.493L114.961 17.638L112.145 10.818L109.329 17.638L104.841 7.87ZM127.933 13.942L129.253 14.668C128.989 15.174 128.593 15.724 128.131 16.142C127.295 16.89 126.261 17.264 125.095 17.264C122.895 17.264 120.585 15.878 120.585 12.49C120.585 9.762 122.257 7.65 125.007 7.65C126.789 7.65 127.911 8.53 128.461 9.322C129.033 10.136 129.363 11.544 129.319 12.754H122.213C122.235 14.646 123.533 15.856 125.117 15.856C125.865 15.856 126.459 15.636 126.987 15.196C127.405 14.844 127.735 14.382 127.933 13.942ZM122.323 11.434H127.691C127.427 10.004 126.349 9.058 125.007 9.058C123.665 9.058 122.565 10.07 122.323 11.434ZM138.745 9.168V0.961999H140.329V17H138.745V15.724C138.217 16.406 137.227 17.264 135.621 17.264C133.311 17.264 131.177 15.636 131.177 12.424C131.177 9.278 133.289 7.65 135.621 7.65C137.381 7.65 138.327 8.618 138.745 9.168ZM135.797 9.058C134.235 9.058 132.805 10.202 132.805 12.424C132.805 14.382 133.905 15.856 135.797 15.856C137.733 15.856 138.833 14.25 138.833 12.446C138.833 10.092 137.205 9.058 135.797 9.058ZM150.325 9.168V7.87H151.909V16.78C151.909 17.77 151.909 19.178 151.029 20.366C150.347 21.29 149.093 22.06 147.377 22.06C145.815 22.06 144.737 21.444 144.121 20.828C143.505 20.212 142.933 19.222 142.933 17.88H144.495C144.495 18.65 144.803 19.332 145.199 19.772C145.859 20.498 146.695 20.652 147.399 20.652C148.521 20.652 149.291 20.256 149.819 19.376C150.281 18.628 150.325 17.814 150.325 17.044V15.724C149.797 16.406 148.807 17.264 147.201 17.264C145.859 17.264 144.781 16.736 144.077 16.032C143.461 15.416 142.757 14.272 142.757 12.424C142.757 10.642 143.417 9.542 144.077 8.882C144.847 8.134 145.969 7.65 147.201 7.65C148.543 7.65 149.599 8.222 150.325 9.168ZM147.377 9.058C146.409 9.058 145.749 9.476 145.309 9.916C144.539 10.708 144.385 11.676 144.385 12.424C144.385 13.216 144.539 14.294 145.419 15.108C145.925 15.57 146.541 15.856 147.377 15.856C148.213 15.856 148.873 15.592 149.379 15.086C149.995 14.492 150.413 13.524 150.413 12.446C150.413 11.368 150.017 10.422 149.445 9.872C148.939 9.366 148.191 9.058 147.377 9.058ZM161.685 13.942L163.005 14.668C162.741 15.174 162.345 15.724 161.883 16.142C161.047 16.89 160.013 17.264 158.847 17.264C156.647 17.264 154.337 15.878 154.337 12.49C154.337 9.762 156.009 7.65 158.759 7.65C160.541 7.65 161.663 8.53 162.213 9.322C162.785 10.136 163.115 11.544 163.071 12.754H155.965C155.987 14.646 157.285 15.856 158.869 15.856C159.617 15.856 160.211 15.636 160.739 15.196C161.157 14.844 161.487 14.382 161.685 13.942ZM156.075 11.434H161.443C161.179 10.004 160.101 9.058 158.759 9.058C157.417 9.058 156.317 10.07 156.075 11.434ZM170.561 9.3L169.263 9.982C169.043 9.454 168.581 9.058 167.987 9.058C167.415 9.058 166.887 9.388 166.887 10.092C166.887 10.752 167.327 10.95 168.361 11.39C169.681 11.94 170.297 12.358 170.649 12.798C171.045 13.282 171.133 13.766 171.133 14.272C171.133 16.186 169.747 17.264 167.987 17.264C167.613 17.264 165.567 17.22 164.797 14.932L166.161 14.36C166.337 14.844 166.865 15.856 168.009 15.856C169.043 15.856 169.505 15.086 169.505 14.404C169.505 13.546 168.889 13.26 168.031 12.886C166.931 12.402 166.227 12.05 165.809 11.544C165.457 11.104 165.391 10.664 165.391 10.202C165.391 8.596 166.513 7.65 168.053 7.65C168.537 7.65 169.835 7.738 170.561 9.3ZM185.366 9.168V7.87H186.95V17H185.366V15.724C184.838 16.406 183.848 17.264 182.242 17.264C179.932 17.264 177.798 15.636 177.798 12.424C177.798 9.278 179.91 7.65 182.242 7.65C184.002 7.65 184.948 8.618 185.366 9.168ZM182.418 9.058C180.856 9.058 179.426 10.202 179.426 12.424C179.426 14.382 180.526 15.856 182.418 15.856C184.354 15.856 185.454 14.25 185.454 12.446C185.454 10.092 183.826 9.058 182.418 9.058ZM189.95 17V7.87H191.534V8.86C191.688 8.618 192.37 7.65 193.602 7.65C194.086 7.65 194.614 7.826 195.01 8.024L194.262 9.454C193.91 9.212 193.58 9.146 193.338 9.146C192.7 9.146 192.304 9.41 192.062 9.718C191.798 10.07 191.534 10.686 191.534 12.182V17H189.95ZM202.699 13.942L204.019 14.668C203.755 15.174 203.359 15.724 202.897 16.142C202.061 16.89 201.027 17.264 199.861 17.264C197.661 17.264 195.351 15.878 195.351 12.49C195.351 9.762 197.023 7.65 199.773 7.65C201.555 7.65 202.677 8.53 203.227 9.322C203.799 10.136 204.129 11.544 204.085 12.754H196.979C197.001 14.646 198.299 15.856 199.883 15.856C200.631 15.856 201.225 15.636 201.753 15.196C202.171 14.844 202.501 14.382 202.699 13.942ZM197.089 11.434H202.457C202.193 10.004 201.115 9.058 199.773 9.058C198.431 9.058 197.331 10.07 197.089 11.434ZM216.005 17V3.866H213.541L214.399 2.326H217.633V17H216.005ZM227.509 17.264C226.343 17.264 224.869 16.692 223.747 15.064C222.779 13.656 222.273 11.764 222.273 9.674C222.273 7.584 222.779 5.692 223.747 4.284C224.869 2.656 226.343 2.084 227.509 2.084C228.675 2.084 230.149 2.656 231.271 4.284C232.239 5.692 232.745 7.584 232.745 9.674C232.745 11.764 232.239 13.656 231.271 15.064C230.149 16.692 228.675 17.264 227.509 17.264ZM227.509 3.58C226.761 3.58 225.749 3.976 224.979 5.208C224.187 6.462 223.901 8.134 223.901 9.674C223.901 11.214 224.187 12.886 224.979 14.14C225.749 15.372 226.761 15.768 227.509 15.768C228.257 15.768 229.269 15.372 230.039 14.14C230.831 12.886 231.117 11.214 231.117 9.674C231.117 8.134 230.831 6.462 230.039 5.208C229.269 3.976 228.257 3.58 227.509 3.58ZM240.013 17.264C238.847 17.264 237.373 16.692 236.251 15.064C235.283 13.656 234.777 11.764 234.777 9.674C234.777 7.584 235.283 5.692 236.251 4.284C237.373 2.656 238.847 2.084 240.013 2.084C241.179 2.084 242.653 2.656 243.775 4.284C244.743 5.692 245.249 7.584 245.249 9.674C245.249 11.764 244.743 13.656 243.775 15.064C242.653 16.692 241.179 17.264 240.013 17.264ZM240.013 3.58C239.265 3.58 238.253 3.976 237.483 5.208C236.691 6.462 236.405 8.134 236.405 9.674C236.405 11.214 236.691 12.886 237.483 14.14C238.253 15.372 239.265 15.768 240.013 15.768C240.761 15.768 241.773 15.372 242.543 14.14C243.335 12.886 243.621 11.214 243.621 9.674C243.621 8.134 243.335 6.462 242.543 5.208C241.773 3.976 240.761 3.58 240.013 3.58ZM250.185 2.194C251.967 2.194 253.375 3.602 253.375 5.384C253.375 7.166 251.967 8.574 250.185 8.574C248.403 8.574 246.995 7.166 246.995 5.384C246.995 3.602 248.403 2.194 250.185 2.194ZM250.185 7.364C251.263 7.364 252.055 6.462 252.055 5.384C252.055 4.306 251.263 3.404 250.185 3.404C249.151 3.404 248.315 4.284 248.315 5.384C248.315 6.484 249.151 7.364 250.185 7.364ZM249.371 16.78L257.929 2.04L258.787 2.524L250.229 17.286L249.371 16.78ZM257.973 10.774C259.755 10.774 261.163 12.182 261.163 13.964C261.163 15.746 259.755 17.154 257.973 17.154C256.191 17.154 254.783 15.746 254.783 13.964C254.783 12.182 256.191 10.774 257.973 10.774ZM257.973 15.944C259.051 15.944 259.843 15.042 259.843 13.964C259.843 12.886 259.051 11.984 257.973 11.984C256.939 11.984 256.103 12.864 256.103 13.964C256.103 15.064 256.939 15.944 257.973 15.944ZM268.518 7.87H270.102V17H268.518V7.87ZM268.188 4.416C268.188 3.8 268.694 3.294 269.31 3.294C269.926 3.294 270.432 3.8 270.432 4.416C270.432 5.032 269.926 5.538 269.31 5.538C268.694 5.538 268.188 5.032 268.188 4.416ZM273.095 17V7.87H274.679V8.926C274.965 8.552 275.779 7.65 277.297 7.65C278.375 7.65 279.365 8.09 279.915 8.904C280.377 9.586 280.443 10.334 280.443 11.346V17H278.859V11.39C278.859 10.84 278.815 10.202 278.441 9.718C278.133 9.322 277.649 9.058 276.945 9.058C276.395 9.058 275.801 9.212 275.339 9.762C274.723 10.488 274.679 11.566 274.679 12.226V17H273.095ZM288.489 9.3L287.191 9.982C286.971 9.454 286.509 9.058 285.915 9.058C285.343 9.058 284.815 9.388 284.815 10.092C284.815 10.752 285.255 10.95 286.289 11.39C287.609 11.94 288.225 12.358 288.577 12.798C288.973 13.282 289.061 13.766 289.061 14.272C289.061 16.186 287.675 17.264 285.915 17.264C285.541 17.264 283.495 17.22 282.725 14.932L284.089 14.36C284.265 14.844 284.793 15.856 285.937 15.856C286.971 15.856 287.433 15.086 287.433 14.404C287.433 13.546 286.817 13.26 285.959 12.886C284.859 12.402 284.155 12.05 283.737 11.544C283.385 11.104 283.319 10.664 283.319 10.202C283.319 8.596 284.441 7.65 285.981 7.65C286.465 7.65 287.763 7.738 288.489 9.3ZM292.747 15.724V22.06H291.163V7.87H292.747V9.146C293.825 7.804 295.211 7.65 295.871 7.65C298.731 7.65 300.315 10.026 300.315 12.49C300.315 14.998 298.709 17.264 295.937 17.264C294.463 17.264 293.429 16.604 292.747 15.724ZM295.717 15.856C297.565 15.856 298.687 14.316 298.687 12.49C298.687 10.246 297.169 9.058 295.695 9.058C294.221 9.058 292.659 10.268 292.659 12.468C292.659 14.338 293.847 15.856 295.717 15.856ZM309.519 13.942L310.839 14.668C310.575 15.174 310.179 15.724 309.717 16.142C308.881 16.89 307.847 17.264 306.681 17.264C304.481 17.264 302.171 15.878 302.171 12.49C302.171 9.762 303.843 7.65 306.593 7.65C308.375 7.65 309.497 8.53 310.047 9.322C310.619 10.136 310.949 11.544 310.905 12.754H303.799C303.821 14.646 305.119 15.856 306.703 15.856C307.451 15.856 308.045 15.636 308.573 15.196C308.991 14.844 309.321 14.382 309.519 13.942ZM303.909 11.434H309.277C309.013 10.004 307.935 9.058 306.593 9.058C305.251 9.058 304.151 10.07 303.909 11.434ZM320.485 8.53V10.422C319.649 9.366 318.439 9.058 317.625 9.058C315.931 9.058 314.391 10.246 314.391 12.468C314.391 14.69 315.975 15.856 317.603 15.856C318.549 15.856 319.715 15.438 320.551 14.426V16.318C319.561 17.044 318.505 17.264 317.647 17.264C314.809 17.264 312.763 15.24 312.763 12.49C312.763 9.696 314.831 7.65 317.647 7.65C319.099 7.65 320.045 8.222 320.485 8.53ZM326.193 9.322H324.609V17H323.025V9.322H322.057V7.87H323.025V4.57H324.609V7.87H326.193V9.322ZM334.462 13.942L335.782 14.668C335.518 15.174 335.122 15.724 334.66 16.142C333.824 16.89 332.79 17.264 331.624 17.264C329.424 17.264 327.114 15.878 327.114 12.49C327.114 9.762 328.786 7.65 331.536 7.65C333.318 7.65 334.44 8.53 334.99 9.322C335.562 10.136 335.892 11.544 335.848 12.754H328.742C328.764 14.646 330.062 15.856 331.646 15.856C332.394 15.856 332.988 15.636 333.516 15.196C333.934 14.844 334.264 14.382 334.462 13.942ZM328.852 11.434H334.22C333.956 10.004 332.878 9.058 331.536 9.058C330.194 9.058 329.094 10.07 328.852 11.434ZM345.274 9.168V0.961999H346.858V17H345.274V15.724C344.746 16.406 343.756 17.264 342.15 17.264C339.84 17.264 337.706 15.636 337.706 12.424C337.706 9.278 339.818 7.65 342.15 7.65C343.91 7.65 344.856 8.618 345.274 9.168ZM342.326 9.058C340.764 9.058 339.334 10.202 339.334 12.424C339.334 14.382 340.434 15.856 342.326 15.856C344.262 15.856 345.362 14.25 345.362 12.446C345.362 10.092 343.734 9.058 342.326 9.058ZM358.865 9.322H356.621V17H355.037V9.322H354.157V7.87H355.037V3.888C355.037 3.052 355.103 1.996 355.917 1.314C356.357 0.94 357.017 0.72 357.743 0.72C358.315 0.72 358.689 0.851999 358.865 0.918V2.458C358.535 2.326 358.161 2.26 357.831 2.26C357.479 2.26 357.061 2.348 356.819 2.744C356.621 3.074 356.621 3.58 356.621 4.064V7.87H358.865V9.322ZM364.546 17.264C361.774 17.264 359.706 15.24 359.706 12.468C359.706 9.696 361.752 7.65 364.546 7.65C367.34 7.65 369.386 9.696 369.386 12.468C369.386 15.24 367.318 17.264 364.546 17.264ZM364.546 9.058C362.874 9.058 361.334 10.246 361.334 12.468C361.334 14.712 362.918 15.856 364.546 15.856C366.196 15.856 367.758 14.69 367.758 12.468C367.758 10.224 366.218 9.058 364.546 9.058ZM371.815 17V7.87H373.399V8.86C373.553 8.618 374.235 7.65 375.467 7.65C375.951 7.65 376.479 7.826 376.875 8.024L376.127 9.454C375.775 9.212 375.445 9.146 375.203 9.146C374.565 9.146 374.169 9.41 373.927 9.718C373.663 10.07 373.399 10.686 373.399 12.182V17H371.815ZM386.672 9.322H385.088V17H383.504V9.322H382.536V7.87H383.504V4.57H385.088V7.87H386.672V9.322ZM388.165 17V0.961999H389.749V8.926C390.035 8.552 390.849 7.65 392.367 7.65C393.445 7.65 394.435 8.09 394.985 8.904C395.447 9.586 395.513 10.334 395.513 11.346V17H393.929V11.39C393.929 10.84 393.885 10.202 393.511 9.718C393.203 9.322 392.719 9.058 392.015 9.058C391.465 9.058 390.871 9.212 390.409 9.762C389.793 10.488 389.749 11.566 389.749 12.226V17H388.165ZM405.06 13.942L406.38 14.668C406.116 15.174 405.72 15.724 405.258 16.142C404.422 16.89 403.388 17.264 402.222 17.264C400.022 17.264 397.712 15.878 397.712 12.49C397.712 9.762 399.384 7.65 402.134 7.65C403.916 7.65 405.038 8.53 405.588 9.322C406.16 10.136 406.49 11.544 406.446 12.754H399.34C399.362 14.646 400.66 15.856 402.244 15.856C402.992 15.856 403.586 15.636 404.114 15.196C404.532 14.844 404.862 14.382 405.06 13.942ZM399.45 11.434H404.818C404.554 10.004 403.476 9.058 402.134 9.058C400.792 9.058 399.692 10.07 399.45 11.434ZM415.595 15.724V17H414.011V0.961999H415.595V9.146C416.673 7.804 418.059 7.65 418.719 7.65C421.579 7.65 423.163 10.026 423.163 12.49C423.163 14.998 421.557 17.264 418.785 17.264C417.311 17.264 416.277 16.604 415.595 15.724ZM418.565 15.856C420.413 15.856 421.535 14.316 421.535 12.49C421.535 10.246 420.017 9.058 418.543 9.058C417.069 9.058 415.507 10.268 415.507 12.468C415.507 14.338 416.695 15.856 418.565 15.856ZM432.367 13.942L433.687 14.668C433.423 15.174 433.027 15.724 432.565 16.142C431.729 16.89 430.695 17.264 429.529 17.264C427.329 17.264 425.019 15.878 425.019 12.49C425.019 9.762 426.691 7.65 429.441 7.65C431.223 7.65 432.345 8.53 432.895 9.322C433.467 10.136 433.797 11.544 433.753 12.754H426.647C426.669 14.646 427.967 15.856 429.551 15.856C430.299 15.856 430.893 15.636 431.421 15.196C431.839 14.844 432.169 14.382 432.367 13.942ZM426.757 11.434H432.125C431.861 10.004 430.783 9.058 429.441 9.058C428.099 9.058 426.999 10.07 426.757 11.434ZM441.243 9.3L439.945 9.982C439.725 9.454 439.263 9.058 438.669 9.058C438.097 9.058 437.569 9.388 437.569 10.092C437.569 10.752 438.009 10.95 439.043 11.39C440.363 11.94 440.979 12.358 441.331 12.798C441.727 13.282 441.815 13.766 441.815 14.272C441.815 16.186 440.429 17.264 438.669 17.264C438.295 17.264 436.249 17.22 435.479 14.932L436.843 14.36C437.019 14.844 437.547 15.856 438.691 15.856C439.725 15.856 440.187 15.086 440.187 14.404C440.187 13.546 439.571 13.26 438.713 12.886C437.613 12.402 436.909 12.05 436.491 11.544C436.139 11.104 436.073 10.664 436.073 10.202C436.073 8.596 437.195 7.65 438.735 7.65C439.219 7.65 440.517 7.738 441.243 9.3ZM447.129 9.322H445.545V17H443.961V9.322H442.993V7.87H443.961V4.57H445.545V7.87H447.129V9.322ZM460.753 9.168V7.87H462.337V22.06H460.753V15.724C460.225 16.406 459.235 17.264 457.629 17.264C455.319 17.264 453.185 15.636 453.185 12.424C453.185 9.278 455.297 7.65 457.629 7.65C459.389 7.65 460.335 8.618 460.753 9.168ZM457.805 9.058C456.243 9.058 454.813 10.202 454.813 12.424C454.813 14.382 455.913 15.856 457.805 15.856C459.741 15.856 460.841 14.25 460.841 12.446C460.841 10.092 459.213 9.058 457.805 9.058ZM466.921 7.87V13.194C466.921 13.832 466.921 14.58 467.361 15.152C467.603 15.46 468.087 15.856 468.967 15.856C469.847 15.856 470.331 15.46 470.573 15.152C471.013 14.58 471.013 13.832 471.013 13.194V7.87H472.597V13.37C472.597 14.492 472.487 15.328 471.761 16.12C470.947 16.978 469.869 17.264 468.967 17.264C468.065 17.264 466.987 16.978 466.173 16.12C465.447 15.328 465.337 14.492 465.337 13.37V7.87H466.921ZM482.581 9.168V7.87H484.165V17H482.581V15.724C482.053 16.406 481.063 17.264 479.457 17.264C477.147 17.264 475.013 15.636 475.013 12.424C475.013 9.278 477.125 7.65 479.457 7.65C481.217 7.65 482.163 8.618 482.581 9.168ZM479.633 9.058C478.071 9.058 476.641 10.202 476.641 12.424C476.641 14.382 477.741 15.856 479.633 15.856C481.569 15.856 482.669 14.25 482.669 12.446C482.669 10.092 481.041 9.058 479.633 9.058ZM487.165 0.961999H488.749V17H487.165V0.961999ZM491.741 7.87H493.325V17H491.741V7.87ZM491.411 4.416C491.411 3.8 491.917 3.294 492.533 3.294C493.149 3.294 493.655 3.8 493.655 4.416C493.655 5.032 493.149 5.538 492.533 5.538C491.917 5.538 491.411 5.032 491.411 4.416ZM499.529 9.322H497.945V17H496.361V9.322H495.393V7.87H496.361V4.57H497.945V7.87H499.529V9.322ZM501.666 22.06L504.57 16.142L500.368 7.87H502.172L505.406 14.404L508.376 7.87H510.136L503.426 22.06H501.666ZM523.938 9.168V7.87H525.522V17H523.938V15.724C523.41 16.406 522.42 17.264 520.814 17.264C518.504 17.264 516.37 15.636 516.37 12.424C516.37 9.278 518.482 7.65 520.814 7.65C522.574 7.65 523.52 8.618 523.938 9.168ZM520.99 9.058C519.428 9.058 517.998 10.202 517.998 12.424C517.998 14.382 519.098 15.856 520.99 15.856C522.926 15.856 524.026 14.25 524.026 12.446C524.026 10.092 522.398 9.058 520.99 9.058ZM528.522 17V7.87H530.106V8.926C530.392 8.552 531.206 7.65 532.724 7.65C533.802 7.65 534.792 8.09 535.342 8.904C535.804 9.586 535.87 10.334 535.87 11.346V17H534.286V11.39C534.286 10.84 534.242 10.202 533.868 9.718C533.56 9.322 533.076 9.058 532.372 9.058C531.822 9.058 531.228 9.212 530.766 9.762C530.15 10.488 530.106 11.566 530.106 12.226V17H528.522ZM545.852 9.168V0.961999H547.436V17H545.852V15.724C545.324 16.406 544.334 17.264 542.728 17.264C540.418 17.264 538.284 15.636 538.284 12.424C538.284 9.278 540.396 7.65 542.728 7.65C544.488 7.65 545.434 8.618 545.852 9.168ZM542.904 9.058C541.342 9.058 539.912 10.202 539.912 12.424C539.912 14.382 541.012 15.856 542.904 15.856C544.84 15.856 545.94 14.25 545.94 12.446C545.94 10.092 544.312 9.058 542.904 9.058ZM557.155 15.724V22.06H555.571V7.87H557.155V9.146C558.233 7.804 559.619 7.65 560.279 7.65C563.139 7.65 564.723 10.026 564.723 12.49C564.723 14.998 563.117 17.264 560.345 17.264C558.871 17.264 557.837 16.604 557.155 15.724ZM560.125 15.856C561.973 15.856 563.095 14.316 563.095 12.49C563.095 10.246 561.577 9.058 560.103 9.058C558.629 9.058 557.067 10.268 557.067 12.468C557.067 14.338 558.255 15.856 560.125 15.856ZM573.927 13.942L575.247 14.668C574.983 15.174 574.587 15.724 574.125 16.142C573.289 16.89 572.255 17.264 571.089 17.264C568.889 17.264 566.579 15.878 566.579 12.49C566.579 9.762 568.251 7.65 571.001 7.65C572.783 7.65 573.905 8.53 574.455 9.322C575.027 10.136 575.357 11.544 575.313 12.754H568.207C568.229 14.646 569.527 15.856 571.111 15.856C571.859 15.856 572.453 15.636 572.981 15.196C573.399 14.844 573.729 14.382 573.927 13.942ZM568.317 11.434H573.685C573.421 10.004 572.343 9.058 571.001 9.058C569.659 9.058 568.559 10.07 568.317 11.434ZM577.743 17V7.87H579.327V8.86C579.481 8.618 580.163 7.65 581.395 7.65C581.879 7.65 582.407 7.826 582.803 8.024L582.055 9.454C581.703 9.212 581.373 9.146 581.131 9.146C580.493 9.146 580.097 9.41 579.855 9.718C579.591 10.07 579.327 10.686 579.327 12.182V17H577.743ZM588.597 9.322H586.353V17H584.769V9.322H583.889V7.87H584.769V3.888C584.769 3.052 584.835 1.996 585.649 1.314C586.089 0.94 586.749 0.72 587.475 0.72C588.047 0.72 588.421 0.851999 588.597 0.918V2.458C588.267 2.326 587.893 2.26 587.563 2.26C587.211 2.26 586.793 2.348 586.551 2.744C586.353 3.074 586.353 3.58 586.353 4.064V7.87H588.597V9.322ZM594.279 17.264C591.507 17.264 589.439 15.24 589.439 12.468C589.439 9.696 591.485 7.65 594.279 7.65C597.073 7.65 599.119 9.696 599.119 12.468C599.119 15.24 597.051 17.264 594.279 17.264ZM594.279 9.058C592.607 9.058 591.067 10.246 591.067 12.468C591.067 14.712 592.651 15.856 594.279 15.856C595.929 15.856 597.491 14.69 597.491 12.468C597.491 10.224 595.951 9.058 594.279 9.058ZM601.548 17V7.87H603.132V8.86C603.286 8.618 603.968 7.65 605.2 7.65C605.684 7.65 606.212 7.826 606.608 8.024L605.86 9.454C605.508 9.212 605.178 9.146 604.936 9.146C604.298 9.146 603.902 9.41 603.66 9.718C603.396 10.07 603.132 10.686 603.132 12.182V17H601.548ZM608.058 17V7.87H609.642V8.838C610.148 8.09 610.94 7.65 611.908 7.65C613.558 7.65 614.218 8.816 614.394 9.124C615.274 7.738 616.528 7.65 617.144 7.65C619.85 7.65 620.114 9.916 620.114 11.214V17H618.53V11.456C618.53 10.422 618.398 9.058 616.902 9.058C615.076 9.058 614.878 10.818 614.878 11.918V17H613.294V11.588C613.294 10.95 613.316 9.058 611.644 9.058C609.84 9.058 609.642 10.928 609.642 12.028V17H608.058ZM630.114 9.168V7.87H631.698V17H630.114V15.724C629.586 16.406 628.596 17.264 626.99 17.264C624.68 17.264 622.546 15.636 622.546 12.424C622.546 9.278 624.658 7.65 626.99 7.65C628.75 7.65 629.696 8.618 630.114 9.168ZM627.166 9.058C625.604 9.058 624.174 10.202 624.174 12.424C624.174 14.382 625.274 15.856 627.166 15.856C629.102 15.856 630.202 14.25 630.202 12.446C630.202 10.092 628.574 9.058 627.166 9.058ZM634.698 17V7.87H636.282V8.926C636.568 8.552 637.382 7.65 638.9 7.65C639.978 7.65 640.968 8.09 641.518 8.904C641.98 9.586 642.046 10.334 642.046 11.346V17H640.462V11.39C640.462 10.84 640.418 10.202 640.044 9.718C639.736 9.322 639.252 9.058 638.548 9.058C637.998 9.058 637.404 9.212 636.942 9.762C636.326 10.488 636.282 11.566 636.282 12.226V17H634.698ZM652.182 8.53V10.422C651.346 9.366 650.136 9.058 649.322 9.058C647.628 9.058 646.088 10.246 646.088 12.468C646.088 14.69 647.672 15.856 649.3 15.856C650.246 15.856 651.412 15.438 652.248 14.426V16.318C651.258 17.044 650.202 17.264 649.344 17.264C646.506 17.264 644.46 15.24 644.46 12.49C644.46 9.696 646.528 7.65 649.344 7.65C650.796 7.65 651.742 8.222 652.182 8.53ZM661.455 13.942L662.775 14.668C662.511 15.174 662.115 15.724 661.653 16.142C660.817 16.89 659.783 17.264 658.617 17.264C656.417 17.264 654.107 15.878 654.107 12.49C654.107 9.762 655.779 7.65 658.529 7.65C660.311 7.65 661.433 8.53 661.983 9.322C662.555 10.136 662.885 11.544 662.841 12.754H655.735C655.757 14.646 657.055 15.856 658.639 15.856C659.387 15.856 659.981 15.636 660.509 15.196C660.927 14.844 661.257 14.382 661.455 13.942ZM655.845 11.434H661.213C660.949 10.004 659.871 9.058 658.529 9.058C657.187 9.058 656.087 10.07 655.845 11.434ZM663.994 19.926L665.798 14.844L667.25 15.372L665.028 20.344L663.994 19.926ZM682.407 9.168V7.87H683.991V17H682.407V15.724C681.879 16.406 680.889 17.264 679.283 17.264C676.973 17.264 674.839 15.636 674.839 12.424C674.839 9.278 676.951 7.65 679.283 7.65C681.043 7.65 681.989 8.618 682.407 9.168ZM679.459 9.058C677.897 9.058 676.467 10.202 676.467 12.424C676.467 14.382 677.567 15.856 679.459 15.856C681.395 15.856 682.495 14.25 682.495 12.446C682.495 10.092 680.867 9.058 679.459 9.058ZM686.991 17V7.87H688.575V8.926C688.861 8.552 689.675 7.65 691.193 7.65C692.271 7.65 693.261 8.09 693.811 8.904C694.273 9.586 694.339 10.334 694.339 11.346V17H692.755V11.39C692.755 10.84 692.711 10.202 692.337 9.718C692.029 9.322 691.545 9.058 690.841 9.058C690.291 9.058 689.697 9.212 689.235 9.762C688.619 10.488 688.575 11.566 688.575 12.226V17H686.991ZM704.321 9.168V0.961999H705.905V17H704.321V15.724C703.793 16.406 702.803 17.264 701.197 17.264C698.887 17.264 696.753 15.636 696.753 12.424C696.753 9.278 698.865 7.65 701.197 7.65C702.957 7.65 703.903 8.618 704.321 9.168ZM701.373 9.058C699.811 9.058 698.381 10.202 698.381 12.424C698.381 14.382 699.481 15.856 701.373 15.856C703.309 15.856 704.409 14.25 704.409 12.446C704.409 10.092 702.781 9.058 701.373 9.058ZM717.252 9.322H715.668V17H714.084V9.322H713.116V7.87H714.084V4.57H715.668V7.87H717.252V9.322ZM718.745 17V0.961999H720.329V8.926C720.615 8.552 721.429 7.65 722.947 7.65C724.025 7.65 725.015 8.09 725.565 8.904C726.027 9.586 726.093 10.334 726.093 11.346V17H724.509V11.39C724.509 10.84 724.465 10.202 724.091 9.718C723.783 9.322 723.299 9.058 722.595 9.058C722.045 9.058 721.451 9.212 720.989 9.762C720.373 10.488 720.329 11.566 720.329 12.226V17H718.745ZM735.64 13.942L736.96 14.668C736.696 15.174 736.3 15.724 735.838 16.142C735.002 16.89 733.968 17.264 732.802 17.264C730.602 17.264 728.292 15.878 728.292 12.49C728.292 9.762 729.964 7.65 732.714 7.65C734.496 7.65 735.618 8.53 736.168 9.322C736.74 10.136 737.07 11.544 737.026 12.754H729.92C729.942 14.646 731.24 15.856 732.824 15.856C733.572 15.856 734.166 15.636 734.694 15.196C735.112 14.844 735.442 14.382 735.64 13.942ZM730.03 11.434H735.398C735.134 10.004 734.056 9.058 732.714 9.058C731.372 9.058 730.272 10.07 730.03 11.434ZM7.69024 49.168V40.962H9.27424V57H7.69024V55.724C7.16224 56.406 6.17224 57.264 4.56624 57.264C2.25624 57.264 0.122242 55.636 0.122242 52.424C0.122242 49.278 2.23424 47.65 4.56624 47.65C6.32624 47.65 7.27224 48.618 7.69024 49.168ZM4.74224 49.058C3.18024 49.058 1.75024 50.202 1.75024 52.424C1.75024 54.382 2.85024 55.856 4.74224 55.856C6.67824 55.856 7.77824 54.25 7.77824 52.446C7.77824 50.092 6.15024 49.058 4.74224 49.058ZM13.8583 47.87V53.194C13.8583 53.832 13.8583 54.58 14.2983 55.152C14.5403 55.46 15.0243 55.856 15.9043 55.856C16.7843 55.856 17.2683 55.46 17.5103 55.152C17.9503 54.58 17.9503 53.832 17.9503 53.194V47.87H19.5343V53.37C19.5343 54.492 19.4243 55.328 18.6983 56.12C17.8843 56.978 16.8063 57.264 15.9043 57.264C15.0023 57.264 13.9243 56.978 13.1103 56.12C12.3843 55.328 12.2743 54.492 12.2743 53.37V47.87H13.8583ZM22.5224 57V47.87H24.1064V48.86C24.2604 48.618 24.9424 47.65 26.1744 47.65C26.6584 47.65 27.1864 47.826 27.5824 48.024L26.8344 49.454C26.4824 49.212 26.1524 49.146 25.9104 49.146C25.2724 49.146 24.8764 49.41 24.6344 49.718C24.3704 50.07 24.1064 50.686 24.1064 52.182V57H22.5224ZM35.5555 49.168V47.87H37.1395V57H35.5555V55.724C35.0275 56.406 34.0375 57.264 32.4315 57.264C30.1215 57.264 27.9875 55.636 27.9875 52.424C27.9875 49.278 30.0995 47.65 32.4315 47.65C34.1915 47.65 35.1375 48.618 35.5555 49.168ZM32.6075 49.058C31.0455 49.058 29.6155 50.202 29.6155 52.424C29.6155 54.382 30.7155 55.856 32.6075 55.856C34.5435 55.856 35.6435 54.25 35.6435 52.446C35.6435 50.092 34.0155 49.058 32.6075 49.058ZM41.7236 55.724V57H40.1396V40.962H41.7236V49.146C42.8016 47.804 44.1876 47.65 44.8476 47.65C47.7076 47.65 49.2916 50.026 49.2916 52.49C49.2916 54.998 47.6856 57.264 44.9136 57.264C43.4396 57.264 42.4056 56.604 41.7236 55.724ZM44.6936 55.856C46.5416 55.856 47.6636 54.316 47.6636 52.49C47.6636 50.246 46.1456 49.058 44.6716 49.058C43.1976 49.058 41.6356 50.268 41.6356 52.468C41.6356 54.338 42.8236 55.856 44.6936 55.856ZM51.7196 47.87H53.3036V57H51.7196V47.87ZM51.3896 44.416C51.3896 43.8 51.8956 43.294 52.5116 43.294C53.1276 43.294 53.6336 43.8 53.6336 44.416C53.6336 45.032 53.1276 45.538 52.5116 45.538C51.8956 45.538 51.3896 45.032 51.3896 44.416ZM56.2958 40.962H57.8798V57H56.2958V40.962ZM60.872 47.87H62.456V57H60.872V47.87ZM60.542 44.416C60.542 43.8 61.048 43.294 61.664 43.294C62.28 43.294 62.786 43.8 62.786 44.416C62.786 45.032 62.28 45.538 61.664 45.538C61.048 45.538 60.542 45.032 60.542 44.416ZM68.6601 49.322H67.0761V57H65.4921V49.322H64.5241V47.87H65.4921V44.57H67.0761V47.87H68.6601V49.322ZM70.7972 62.06L73.7012 56.142L69.4992 47.87H71.3032L74.5372 54.404L77.5072 47.87H79.2672L72.5572 62.06H70.7972ZM90.3411 57.264C87.5691 57.264 85.5011 55.24 85.5011 52.468C85.5011 49.696 87.5471 47.65 90.3411 47.65C93.1351 47.65 95.1811 49.696 95.1811 52.468C95.1811 55.24 93.1131 57.264 90.3411 57.264ZM90.3411 49.058C88.6691 49.058 87.1291 50.246 87.1291 52.468C87.1291 54.712 88.7131 55.856 90.3411 55.856C91.9911 55.856 93.5531 54.69 93.5531 52.468C93.5531 50.224 92.0131 49.058 90.3411 49.058ZM101.482 49.322H99.2383V57H97.6543V49.322H96.7743V47.87H97.6543V43.888C97.6543 43.052 97.7203 41.996 98.5343 41.314C98.9743 40.94 99.6343 40.72 100.36 40.72C100.932 40.72 101.306 40.852 101.482 40.918V42.458C101.152 42.326 100.778 42.26 100.448 42.26C100.096 42.26 99.6783 42.348 99.4363 42.744C99.2383 43.074 99.2383 43.58 99.2383 44.064V47.87H101.482V49.322ZM111.242 49.322H109.658V57H108.074V49.322H107.106V47.87H108.074V44.57H109.658V47.87H111.242V49.322ZM112.735 57V40.962H114.319V48.926C114.605 48.552 115.419 47.65 116.937 47.65C118.015 47.65 119.005 48.09 119.555 48.904C120.017 49.586 120.083 50.334 120.083 51.346V57H118.499V51.39C118.499 50.84 118.455 50.202 118.081 49.718C117.773 49.322 117.289 49.058 116.585 49.058C116.035 49.058 115.441 49.212 114.979 49.762C114.363 50.488 114.319 51.566 114.319 52.226V57H112.735ZM129.63 53.942L130.95 54.668C130.686 55.174 130.29 55.724 129.828 56.142C128.992 56.89 127.958 57.264 126.792 57.264C124.592 57.264 122.282 55.878 122.282 52.49C122.282 49.762 123.954 47.65 126.704 47.65C128.486 47.65 129.608 48.53 130.158 49.322C130.73 50.136 131.06 51.544 131.016 52.754H123.91C123.932 54.646 125.23 55.856 126.814 55.856C127.562 55.856 128.156 55.636 128.684 55.196C129.102 54.844 129.432 54.382 129.63 53.942ZM124.02 51.434H129.388C129.124 50.004 128.046 49.058 126.704 49.058C125.362 49.058 124.262 50.07 124.02 51.434ZM145.577 49.168V47.87H147.161V56.78C147.161 57.77 147.161 59.178 146.281 60.366C145.599 61.29 144.345 62.06 142.629 62.06C141.067 62.06 139.989 61.444 139.373 60.828C138.757 60.212 138.185 59.222 138.185 57.88H139.747C139.747 58.65 140.055 59.332 140.451 59.772C141.111 60.498 141.947 60.652 142.651 60.652C143.773 60.652 144.543 60.256 145.071 59.376C145.533 58.628 145.577 57.814 145.577 57.044V55.724C145.049 56.406 144.059 57.264 142.453 57.264C141.111 57.264 140.033 56.736 139.329 56.032C138.713 55.416 138.009 54.272 138.009 52.424C138.009 50.642 138.669 49.542 139.329 48.882C140.099 48.134 141.221 47.65 142.453 47.65C143.795 47.65 144.851 48.222 145.577 49.168ZM142.629 49.058C141.661 49.058 141.001 49.476 140.561 49.916C139.791 50.708 139.637 51.676 139.637 52.424C139.637 53.216 139.791 54.294 140.671 55.108C141.177 55.57 141.793 55.856 142.629 55.856C143.465 55.856 144.125 55.592 144.631 55.086C145.247 54.492 145.665 53.524 145.665 52.446C145.665 51.368 145.269 50.422 144.697 49.872C144.191 49.366 143.443 49.058 142.629 49.058ZM150.161 57V47.87H151.745V48.86C151.899 48.618 152.581 47.65 153.813 47.65C154.297 47.65 154.825 47.826 155.221 48.024L154.473 49.454C154.121 49.212 153.791 49.146 153.549 49.146C152.911 49.146 152.515 49.41 152.273 49.718C152.009 50.07 151.745 50.686 151.745 52.182V57H150.161ZM160.402 57.264C157.63 57.264 155.562 55.24 155.562 52.468C155.562 49.696 157.608 47.65 160.402 47.65C163.196 47.65 165.242 49.696 165.242 52.468C165.242 55.24 163.174 57.264 160.402 57.264ZM160.402 49.058C158.73 49.058 157.19 50.246 157.19 52.468C157.19 54.712 158.774 55.856 160.402 55.856C162.052 55.856 163.614 54.69 163.614 52.468C163.614 50.224 162.074 49.058 160.402 49.058ZM171.939 57.264C169.167 57.264 167.099 55.24 167.099 52.468C167.099 49.696 169.145 47.65 171.939 47.65C174.733 47.65 176.779 49.696 176.779 52.468C176.779 55.24 174.711 57.264 171.939 57.264ZM171.939 49.058C170.267 49.058 168.727 50.246 168.727 52.468C168.727 54.712 170.311 55.856 171.939 55.856C173.589 55.856 175.151 54.69 175.151 52.468C175.151 50.224 173.611 49.058 171.939 49.058ZM177.888 47.87H179.648L182.376 54.03L185.104 47.87H186.864L182.376 57.594L177.888 47.87ZM195.308 53.942L196.628 54.668C196.364 55.174 195.968 55.724 195.506 56.142C194.67 56.89 193.636 57.264 192.47 57.264C190.27 57.264 187.96 55.878 187.96 52.49C187.96 49.762 189.632 47.65 192.382 47.65C194.164 47.65 195.286 48.53 195.836 49.322C196.408 50.136 196.738 51.544 196.694 52.754H189.588C189.61 54.646 190.908 55.856 192.492 55.856C193.24 55.856 193.834 55.636 194.362 55.196C194.78 54.844 195.11 54.382 195.308 53.942ZM189.698 51.434H195.066C194.802 50.004 193.724 49.058 192.382 49.058C191.04 49.058 189.94 50.07 189.698 51.434ZM204.259 47.87H205.843V57H204.259V47.87ZM203.929 44.416C203.929 43.8 204.435 43.294 205.051 43.294C205.667 43.294 206.173 43.8 206.173 44.416C206.173 45.032 205.667 45.538 205.051 45.538C204.435 45.538 203.929 45.032 203.929 44.416ZM213.895 49.3L212.597 49.982C212.377 49.454 211.915 49.058 211.321 49.058C210.749 49.058 210.221 49.388 210.221 50.092C210.221 50.752 210.661 50.95 211.695 51.39C213.015 51.94 213.631 52.358 213.983 52.798C214.379 53.282 214.467 53.766 214.467 54.272C214.467 56.186 213.081 57.264 211.321 57.264C210.947 57.264 208.901 57.22 208.131 54.932L209.495 54.36C209.671 54.844 210.199 55.856 211.343 55.856C212.377 55.856 212.839 55.086 212.839 54.404C212.839 53.546 212.223 53.26 211.365 52.886C210.265 52.402 209.561 52.05 209.143 51.544C208.791 51.104 208.725 50.664 208.725 50.202C208.725 48.596 209.847 47.65 211.387 47.65C211.871 47.65 213.169 47.738 213.895 49.3ZM228.7 49.168V40.962H230.284V57H228.7V55.724C228.172 56.406 227.182 57.264 225.576 57.264C223.266 57.264 221.132 55.636 221.132 52.424C221.132 49.278 223.244 47.65 225.576 47.65C227.336 47.65 228.282 48.618 228.7 49.168ZM225.752 49.058C224.19 49.058 222.76 50.202 222.76 52.424C222.76 54.382 223.86 55.856 225.752 55.856C227.688 55.856 228.788 54.25 228.788 52.446C228.788 50.092 227.16 49.058 225.752 49.058ZM237.552 57.264C234.78 57.264 232.712 55.24 232.712 52.468C232.712 49.696 234.758 47.65 237.552 47.65C240.346 47.65 242.392 49.696 242.392 52.468C242.392 55.24 240.324 57.264 237.552 57.264ZM237.552 49.058C235.88 49.058 234.34 50.246 234.34 52.468C234.34 54.712 235.924 55.856 237.552 55.856C239.202 55.856 240.764 54.69 240.764 52.468C240.764 50.224 239.224 49.058 237.552 49.058ZM246.405 47.87V53.194C246.405 53.832 246.405 54.58 246.845 55.152C247.087 55.46 247.571 55.856 248.451 55.856C249.331 55.856 249.815 55.46 250.057 55.152C250.497 54.58 250.497 53.832 250.497 53.194V47.87H252.081V53.37C252.081 54.492 251.971 55.328 251.245 56.12C250.431 56.978 249.353 57.264 248.451 57.264C247.549 57.264 246.471 56.978 245.657 56.12C244.931 55.328 244.821 54.492 244.821 53.37V47.87H246.405ZM256.653 55.724V57H255.069V40.962H256.653V49.146C257.731 47.804 259.117 47.65 259.777 47.65C262.637 47.65 264.221 50.026 264.221 52.49C264.221 54.998 262.615 57.264 259.843 57.264C258.369 57.264 257.335 56.604 256.653 55.724ZM259.623 55.856C261.471 55.856 262.593 54.316 262.593 52.49C262.593 50.246 261.075 49.058 259.601 49.058C258.127 49.058 256.565 50.268 256.565 52.468C256.565 54.338 257.753 55.856 259.623 55.856ZM266.649 40.962H268.233V57H266.649V40.962ZM278.001 53.942L279.321 54.668C279.057 55.174 278.661 55.724 278.199 56.142C277.363 56.89 276.329 57.264 275.163 57.264C272.963 57.264 270.653 55.878 270.653 52.49C270.653 49.762 272.325 47.65 275.075 47.65C276.857 47.65 277.979 48.53 278.529 49.322C279.101 50.136 279.431 51.544 279.387 52.754H272.281C272.303 54.646 273.601 55.856 275.185 55.856C275.933 55.856 276.527 55.636 277.055 55.196C277.473 54.844 277.803 54.382 278.001 53.942ZM272.391 51.434H277.759C277.495 50.004 276.417 49.058 275.075 49.058C273.733 49.058 272.633 50.07 272.391 51.434ZM288.813 49.168V40.962H290.397V57H288.813V55.724C288.285 56.406 287.295 57.264 285.689 57.264C283.379 57.264 281.245 55.636 281.245 52.424C281.245 49.278 283.357 47.65 285.689 47.65C287.449 47.65 288.395 48.618 288.813 49.168ZM285.865 49.058C284.303 49.058 282.873 50.202 282.873 52.424C282.873 54.382 283.973 55.856 285.865 55.856C287.801 55.856 288.901 54.25 288.901 52.446C288.901 50.092 287.273 49.058 285.865 49.058ZM300.116 55.724V57H298.532V40.962H300.116V49.146C301.194 47.804 302.58 47.65 303.24 47.65C306.1 47.65 307.684 50.026 307.684 52.49C307.684 54.998 306.078 57.264 303.306 57.264C301.832 57.264 300.798 56.604 300.116 55.724ZM303.086 55.856C304.934 55.856 306.056 54.316 306.056 52.49C306.056 50.246 304.538 49.058 303.064 49.058C301.59 49.058 300.028 50.268 300.028 52.468C300.028 54.338 301.216 55.856 303.086 55.856ZM310.09 62.06L312.994 56.142L308.792 47.87H310.596L313.83 54.404L316.8 47.87H318.56L311.85 62.06H310.09ZM332.362 49.168V47.87H333.946V57H332.362V55.724C331.834 56.406 330.844 57.264 329.238 57.264C326.928 57.264 324.794 55.636 324.794 52.424C324.794 49.278 326.906 47.65 329.238 47.65C330.998 47.65 331.944 48.618 332.362 49.168ZM329.414 49.058C327.852 49.058 326.422 50.202 326.422 52.424C326.422 54.382 327.522 55.856 329.414 55.856C331.35 55.856 332.45 54.25 332.45 52.446C332.45 50.092 330.822 49.058 329.414 49.058ZM338.53 55.724V62.06H336.946V47.87H338.53V49.146C339.608 47.804 340.994 47.65 341.654 47.65C344.514 47.65 346.098 50.026 346.098 52.49C346.098 54.998 344.492 57.264 341.72 57.264C340.246 57.264 339.212 56.604 338.53 55.724ZM341.5 55.856C343.348 55.856 344.47 54.316 344.47 52.49C344.47 50.246 342.952 49.058 341.478 49.058C340.004 49.058 338.442 50.268 338.442 52.468C338.442 54.338 339.63 55.856 341.5 55.856ZM350.11 55.724V62.06H348.526V47.87H350.11V49.146C351.188 47.804 352.574 47.65 353.234 47.65C356.094 47.65 357.678 50.026 357.678 52.49C357.678 54.998 356.072 57.264 353.3 57.264C351.826 57.264 350.792 56.604 350.11 55.724ZM353.08 55.856C354.928 55.856 356.05 54.316 356.05 52.49C356.05 50.246 354.532 49.058 353.058 49.058C351.584 49.058 350.022 50.268 350.022 52.468C350.022 54.338 351.21 55.856 353.08 55.856ZM360.106 40.962H361.69V57H360.106V40.962ZM364.661 62.06L367.565 56.142L363.363 47.87H365.167L368.401 54.404L371.371 47.87H373.131L366.421 62.06H364.661ZM374.802 47.87H376.386V57H374.802V47.87ZM374.472 44.416C374.472 43.8 374.978 43.294 375.594 43.294C376.21 43.294 376.716 43.8 376.716 44.416C376.716 45.032 376.21 45.538 375.594 45.538C374.978 45.538 374.472 45.032 374.472 44.416ZM379.378 57V47.87H380.962V48.926C381.248 48.552 382.062 47.65 383.58 47.65C384.658 47.65 385.648 48.09 386.198 48.904C386.66 49.586 386.726 50.334 386.726 51.346V57H385.142V51.39C385.142 50.84 385.098 50.202 384.724 49.718C384.416 49.322 383.932 49.058 383.228 49.058C382.678 49.058 382.084 49.212 381.622 49.762C381.006 50.488 380.962 51.566 380.962 52.226V57H379.378ZM396.708 49.168V47.87H398.292V56.78C398.292 57.77 398.292 59.178 397.412 60.366C396.73 61.29 395.476 62.06 393.76 62.06C392.198 62.06 391.12 61.444 390.504 60.828C389.888 60.212 389.316 59.222 389.316 57.88H390.878C390.878 58.65 391.186 59.332 391.582 59.772C392.242 60.498 393.078 60.652 393.782 60.652C394.904 60.652 395.674 60.256 396.202 59.376C396.664 58.628 396.708 57.814 396.708 57.044V55.724C396.18 56.406 395.19 57.264 393.584 57.264C392.242 57.264 391.164 56.736 390.46 56.032C389.844 55.416 389.14 54.272 389.14 52.424C389.14 50.642 389.8 49.542 390.46 48.882C391.23 48.134 392.352 47.65 393.584 47.65C394.926 47.65 395.982 48.222 396.708 49.168ZM393.76 49.058C392.792 49.058 392.132 49.476 391.692 49.916C390.922 50.708 390.768 51.676 390.768 52.424C390.768 53.216 390.922 54.294 391.802 55.108C392.308 55.57 392.924 55.856 393.76 55.856C394.596 55.856 395.256 55.592 395.762 55.086C396.378 54.492 396.796 53.524 396.796 52.446C396.796 51.368 396.4 50.422 395.828 49.872C395.322 49.366 394.574 49.058 393.76 49.058ZM410.299 49.322H408.055V57H406.471V49.322H405.591V47.87H406.471V43.888C406.471 43.052 406.537 41.996 407.351 41.314C407.791 40.94 408.451 40.72 409.177 40.72C409.749 40.72 410.123 40.852 410.299 40.918V42.458C409.969 42.326 409.595 42.26 409.265 42.26C408.913 42.26 408.495 42.348 408.253 42.744C408.055 43.074 408.055 43.58 408.055 44.064V47.87H410.299V49.322ZM418.708 49.168V47.87H420.292V57H418.708V55.724C418.18 56.406 417.19 57.264 415.584 57.264C413.274 57.264 411.14 55.636 411.14 52.424C411.14 49.278 413.252 47.65 415.584 47.65C417.344 47.65 418.29 48.618 418.708 49.168ZM415.76 49.058C414.198 49.058 412.768 50.202 412.768 52.424C412.768 54.382 413.868 55.856 415.76 55.856C417.696 55.856 418.796 54.25 418.796 52.446C418.796 50.092 417.168 49.058 415.76 49.058ZM430.442 48.53V50.422C429.606 49.366 428.396 49.058 427.582 49.058C425.888 49.058 424.348 50.246 424.348 52.468C424.348 54.69 425.932 55.856 427.56 55.856C428.506 55.856 429.672 55.438 430.508 54.426V56.318C429.518 57.044 428.462 57.264 427.604 57.264C424.766 57.264 422.72 55.24 422.72 52.49C422.72 49.696 424.788 47.65 427.604 47.65C429.056 47.65 430.002 48.222 430.442 48.53ZM439.714 53.942L441.034 54.668C440.77 55.174 440.374 55.724 439.912 56.142C439.076 56.89 438.042 57.264 436.876 57.264C434.676 57.264 432.366 55.878 432.366 52.49C432.366 49.762 434.038 47.65 436.788 47.65C438.57 47.65 439.692 48.53 440.242 49.322C440.814 50.136 441.144 51.544 441.1 52.754H433.994C434.016 54.646 435.314 55.856 436.898 55.856C437.646 55.856 438.24 55.636 438.768 55.196C439.186 54.844 439.516 54.382 439.714 53.942ZM434.104 51.434H439.472C439.208 50.004 438.13 49.058 436.788 49.058C435.446 49.058 434.346 50.07 434.104 51.434ZM448.665 57V40.962H450.249V48.926C450.535 48.552 451.349 47.65 452.867 47.65C453.945 47.65 454.935 48.09 455.485 48.904C455.947 49.586 456.013 50.334 456.013 51.346V57H454.429V51.39C454.429 50.84 454.385 50.202 454.011 49.718C453.703 49.322 453.219 49.058 452.515 49.058C451.965 49.058 451.371 49.212 450.909 49.762C450.293 50.488 450.249 51.566 450.249 52.226V57H448.665ZM465.56 53.942L466.88 54.668C466.616 55.174 466.22 55.724 465.758 56.142C464.922 56.89 463.888 57.264 462.722 57.264C460.522 57.264 458.212 55.878 458.212 52.49C458.212 49.762 459.884 47.65 462.634 47.65C464.416 47.65 465.538 48.53 466.088 49.322C466.66 50.136 466.99 51.544 466.946 52.754H459.84C459.862 54.646 461.16 55.856 462.744 55.856C463.492 55.856 464.086 55.636 464.614 55.196C465.032 54.844 465.362 54.382 465.56 53.942ZM459.95 51.434H465.318C465.054 50.004 463.976 49.058 462.634 49.058C461.292 49.058 460.192 50.07 459.95 51.434ZM476.372 49.168V47.87H477.956V57H476.372V55.724C475.844 56.406 474.854 57.264 473.248 57.264C470.938 57.264 468.804 55.636 468.804 52.424C468.804 49.278 470.916 47.65 473.248 47.65C475.008 47.65 475.954 48.618 476.372 49.168ZM473.424 49.058C471.862 49.058 470.432 50.202 470.432 52.424C470.432 54.382 471.532 55.856 473.424 55.856C475.36 55.856 476.46 54.25 476.46 52.446C476.46 50.092 474.832 49.058 473.424 49.058ZM484.168 49.322H482.584V57H481V49.322H480.032V47.87H481V44.57H482.584V47.87H484.168V49.322ZM494.008 49.322H492.424V57H490.84V49.322H489.872V47.87H490.84V44.57H492.424V47.87H494.008V49.322ZM495.501 57V47.87H497.085V48.86C497.239 48.618 497.921 47.65 499.153 47.65C499.637 47.65 500.165 47.826 500.561 48.024L499.813 49.454C499.461 49.212 499.131 49.146 498.889 49.146C498.251 49.146 497.855 49.41 497.613 49.718C497.349 50.07 497.085 50.686 497.085 52.182V57H495.501ZM508.25 53.942L509.57 54.668C509.306 55.174 508.91 55.724 508.448 56.142C507.612 56.89 506.578 57.264 505.412 57.264C503.212 57.264 500.902 55.878 500.902 52.49C500.902 49.762 502.574 47.65 505.324 47.65C507.106 47.65 508.228 48.53 508.778 49.322C509.35 50.136 509.68 51.544 509.636 52.754H502.53C502.552 54.646 503.85 55.856 505.434 55.856C506.182 55.856 506.776 55.636 507.304 55.196C507.722 54.844 508.052 54.382 508.25 53.942ZM502.64 51.434H508.008C507.744 50.004 506.666 49.058 505.324 49.058C503.982 49.058 502.882 50.07 502.64 51.434ZM519.061 49.168V47.87H520.645V57H519.061V55.724C518.533 56.406 517.543 57.264 515.937 57.264C513.627 57.264 511.493 55.636 511.493 52.424C511.493 49.278 513.605 47.65 515.937 47.65C517.697 47.65 518.643 48.618 519.061 49.168ZM516.113 49.058C514.551 49.058 513.121 50.202 513.121 52.424C513.121 54.382 514.221 55.856 516.113 55.856C518.049 55.856 519.149 54.25 519.149 52.446C519.149 50.092 517.521 49.058 516.113 49.058ZM526.857 49.322H525.273V57H523.689V49.322H522.721V47.87H523.689V44.57H525.273V47.87H526.857V49.322ZM528.35 57V47.87H529.934V48.838C530.44 48.09 531.232 47.65 532.2 47.65C533.85 47.65 534.51 48.816 534.686 49.124C535.566 47.738 536.82 47.65 537.436 47.65C540.142 47.65 540.406 49.916 540.406 51.214V57H538.822V51.456C538.822 50.422 538.69 49.058 537.194 49.058C535.368 49.058 535.17 50.818 535.17 51.918V57H533.586V51.588C533.586 50.95 533.608 49.058 531.936 49.058C530.132 49.058 529.934 50.928 529.934 52.028V57H528.35ZM550.187 53.942L551.507 54.668C551.243 55.174 550.847 55.724 550.385 56.142C549.549 56.89 548.515 57.264 547.349 57.264C545.149 57.264 542.839 55.878 542.839 52.49C542.839 49.762 544.511 47.65 547.261 47.65C549.043 47.65 550.165 48.53 550.715 49.322C551.287 50.136 551.617 51.544 551.573 52.754H544.467C544.489 54.646 545.787 55.856 547.371 55.856C548.119 55.856 548.713 55.636 549.241 55.196C549.659 54.844 549.989 54.382 550.187 53.942ZM544.577 51.434H549.945C549.681 50.004 548.603 49.058 547.261 49.058C545.919 49.058 544.819 50.07 544.577 51.434ZM554.003 57V47.87H555.587V48.926C555.873 48.552 556.687 47.65 558.205 47.65C559.283 47.65 560.273 48.09 560.823 48.904C561.285 49.586 561.351 50.334 561.351 51.346V57H559.767V51.39C559.767 50.84 559.723 50.202 559.349 49.718C559.041 49.322 558.557 49.058 557.853 49.058C557.303 49.058 556.709 49.212 556.247 49.762C555.631 50.488 555.587 51.566 555.587 52.226V57H554.003ZM567.549 49.322H565.965V57H564.381V49.322H563.413V47.87H564.381V44.57H565.965V47.87H567.549V49.322ZM574.177 47.87H575.761V57H574.177V47.87ZM573.847 44.416C573.847 43.8 574.353 43.294 574.969 43.294C575.585 43.294 576.091 43.8 576.091 44.416C576.091 45.032 575.585 45.538 574.969 45.538C574.353 45.538 573.847 45.032 573.847 44.416ZM578.753 57V47.87H580.337V48.926C580.623 48.552 581.437 47.65 582.955 47.65C584.033 47.65 585.023 48.09 585.573 48.904C586.035 49.586 586.101 50.334 586.101 51.346V57H584.517V51.39C584.517 50.84 584.473 50.202 584.099 49.718C583.791 49.322 583.307 49.058 582.603 49.058C582.053 49.058 581.459 49.212 580.997 49.762C580.381 50.488 580.337 51.566 580.337 52.226V57H578.753ZM597.434 49.322H595.85V57H594.266V49.322H593.298V47.87H594.266V44.57H595.85V47.87H597.434V49.322ZM598.927 57V40.962H600.511V48.926C600.797 48.552 601.611 47.65 603.129 47.65C604.207 47.65 605.197 48.09 605.747 48.904C606.209 49.586 606.275 50.334 606.275 51.346V57H604.691V51.39C604.691 50.84 604.647 50.202 604.273 49.718C603.965 49.322 603.481 49.058 602.777 49.058C602.227 49.058 601.633 49.212 601.171 49.762C600.555 50.488 600.511 51.566 600.511 52.226V57H598.927ZM615.822 53.942L617.142 54.668C616.878 55.174 616.482 55.724 616.02 56.142C615.184 56.89 614.15 57.264 612.984 57.264C610.784 57.264 608.474 55.878 608.474 52.49C608.474 49.762 610.146 47.65 612.896 47.65C614.678 47.65 615.8 48.53 616.35 49.322C616.922 50.136 617.252 51.544 617.208 52.754H610.102C610.124 54.646 611.422 55.856 613.006 55.856C613.754 55.856 614.348 55.636 614.876 55.196C615.294 54.844 615.624 54.382 615.822 53.942ZM610.212 51.434H615.58C615.316 50.004 614.238 49.058 612.896 49.058C611.554 49.058 610.454 50.07 610.212 51.434ZM628.644 49.322H626.4V57H624.816V49.322H623.936V47.87H624.816V44.438C624.816 43.448 624.882 42.7 625.344 42.04C625.762 41.424 626.642 40.698 628.358 40.698C629.128 40.698 630.602 40.83 631.372 42.04C631.878 42.854 631.9 43.734 631.9 44.438V44.812H630.316V44.438C630.316 44.086 630.294 43.448 630.008 43.008C629.744 42.612 629.238 42.304 628.358 42.304C627.478 42.304 626.972 42.612 626.708 43.008C626.422 43.426 626.4 43.976 626.4 44.438V47.87H628.644V49.322ZM630.316 47.87H631.9V57H630.316V47.87ZM634.892 57V47.87H636.476V48.926C636.762 48.552 637.576 47.65 639.094 47.65C640.172 47.65 641.162 48.09 641.712 48.904C642.174 49.586 642.24 50.334 642.24 51.346V57H640.656V51.39C640.656 50.84 640.612 50.202 640.238 49.718C639.93 49.322 639.446 49.058 638.742 49.058C638.192 49.058 637.598 49.212 637.136 49.762C636.52 50.488 636.476 51.566 636.476 52.226V57H634.892ZM645.225 47.87H646.809V57H645.225V47.87ZM644.895 44.416C644.895 43.8 645.401 43.294 646.017 43.294C646.633 43.294 647.139 43.8 647.139 44.416C647.139 45.032 646.633 45.538 646.017 45.538C645.401 45.538 644.895 45.032 644.895 44.416ZM654.862 49.3L653.564 49.982C653.344 49.454 652.882 49.058 652.288 49.058C651.716 49.058 651.188 49.388 651.188 50.092C651.188 50.752 651.628 50.95 652.662 51.39C653.982 51.94 654.598 52.358 654.95 52.798C655.346 53.282 655.434 53.766 655.434 54.272C655.434 56.186 654.048 57.264 652.288 57.264C651.914 57.264 649.868 57.22 649.098 54.932L650.462 54.36C650.638 54.844 651.166 55.856 652.31 55.856C653.344 55.856 653.806 55.086 653.806 54.404C653.806 53.546 653.19 53.26 652.332 52.886C651.232 52.402 650.528 52.05 650.11 51.544C649.758 51.104 649.692 50.664 649.692 50.202C649.692 48.596 650.814 47.65 652.354 47.65C652.838 47.65 654.136 47.738 654.862 49.3ZM657.536 57V40.962H659.12V48.926C659.406 48.552 660.22 47.65 661.738 47.65C662.816 47.65 663.806 48.09 664.356 48.904C664.818 49.586 664.884 50.334 664.884 51.346V57H663.3V51.39C663.3 50.84 663.256 50.202 662.882 49.718C662.574 49.322 662.09 49.058 661.386 49.058C660.836 49.058 660.242 49.212 659.78 49.762C659.164 50.488 659.12 51.566 659.12 52.226V57H657.536ZM667.87 47.87H669.454V57H667.87V47.87ZM667.54 44.416C667.54 43.8 668.046 43.294 668.662 43.294C669.278 43.294 669.784 43.8 669.784 44.416C669.784 45.032 669.278 45.538 668.662 45.538C668.046 45.538 667.54 45.032 667.54 44.416ZM672.446 57V47.87H674.03V48.926C674.316 48.552 675.13 47.65 676.648 47.65C677.726 47.65 678.716 48.09 679.266 48.904C679.728 49.586 679.794 50.334 679.794 51.346V57H678.21V51.39C678.21 50.84 678.166 50.202 677.792 49.718C677.484 49.322 677 49.058 676.296 49.058C675.746 49.058 675.152 49.212 674.69 49.762C674.074 50.488 674.03 51.566 674.03 52.226V57H672.446ZM689.776 49.168V47.87H691.36V56.78C691.36 57.77 691.36 59.178 690.48 60.366C689.798 61.29 688.544 62.06 686.828 62.06C685.266 62.06 684.188 61.444 683.572 60.828C682.956 60.212 682.384 59.222 682.384 57.88H683.946C683.946 58.65 684.254 59.332 684.65 59.772C685.31 60.498 686.146 60.652 686.85 60.652C687.972 60.652 688.742 60.256 689.27 59.376C689.732 58.628 689.776 57.814 689.776 57.044V55.724C689.248 56.406 688.258 57.264 686.652 57.264C685.31 57.264 684.232 56.736 683.528 56.032C682.912 55.416 682.208 54.272 682.208 52.424C682.208 50.642 682.868 49.542 683.528 48.882C684.298 48.134 685.42 47.65 686.652 47.65C687.994 47.65 689.05 48.222 689.776 49.168ZM686.828 49.058C685.86 49.058 685.2 49.476 684.76 49.916C683.99 50.708 683.836 51.676 683.836 52.424C683.836 53.216 683.99 54.294 684.87 55.108C685.376 55.57 685.992 55.856 686.828 55.856C687.664 55.856 688.324 55.592 688.83 55.086C689.446 54.492 689.864 53.524 689.864 52.446C689.864 51.368 689.468 50.422 688.896 49.872C688.39 49.366 687.642 49.058 686.828 49.058ZM701.079 55.724V62.06H699.495V47.87H701.079V49.146C702.157 47.804 703.543 47.65 704.203 47.65C707.063 47.65 708.647 50.026 708.647 52.49C708.647 54.998 707.041 57.264 704.269 57.264C702.795 57.264 701.761 56.604 701.079 55.724ZM704.049 55.856C705.897 55.856 707.019 54.316 707.019 52.49C707.019 50.246 705.501 49.058 704.027 49.058C702.553 49.058 700.991 50.268 700.991 52.468C700.991 54.338 702.179 55.856 704.049 55.856ZM711.075 57V47.87H712.659V48.86C712.813 48.618 713.495 47.65 714.727 47.65C715.211 47.65 715.739 47.826 716.135 48.024L715.387 49.454C715.035 49.212 714.705 49.146 714.463 49.146C713.825 49.146 713.429 49.41 713.187 49.718C712.923 50.07 712.659 50.686 712.659 52.182V57H711.075ZM721.316 57.264C718.544 57.264 716.476 55.24 716.476 52.468C716.476 49.696 718.522 47.65 721.316 47.65C724.11 47.65 726.156 49.696 726.156 52.468C726.156 55.24 724.088 57.264 721.316 57.264ZM721.316 49.058C719.644 49.058 718.104 50.246 718.104 52.468C718.104 54.712 719.688 55.856 721.316 55.856C722.966 55.856 724.528 54.69 724.528 52.468C724.528 50.224 722.988 49.058 721.316 49.058ZM735.735 48.53V50.422C734.899 49.366 733.689 49.058 732.875 49.058C731.181 49.058 729.641 50.246 729.641 52.468C729.641 54.69 731.225 55.856 732.853 55.856C733.799 55.856 734.965 55.438 735.801 54.426V56.318C734.811 57.044 733.755 57.264 732.897 57.264C730.059 57.264 728.013 55.24 728.013 52.49C728.013 49.696 730.081 47.65 732.897 47.65C734.349 47.65 735.295 48.222 735.735 48.53ZM745.007 53.942L746.327 54.668C746.063 55.174 745.667 55.724 745.205 56.142C744.369 56.89 743.335 57.264 742.169 57.264C739.969 57.264 737.659 55.878 737.659 52.49C737.659 49.762 739.331 47.65 742.081 47.65C743.863 47.65 744.985 48.53 745.535 49.322C746.107 50.136 746.437 51.544 746.393 52.754H739.287C739.309 54.646 740.607 55.856 742.191 55.856C742.939 55.856 743.533 55.636 744.061 55.196C744.479 54.844 744.809 54.382 745.007 53.942ZM739.397 51.434H744.765C744.501 50.004 743.423 49.058 742.081 49.058C740.739 49.058 739.639 50.07 739.397 51.434ZM753.883 49.3L752.585 49.982C752.365 49.454 751.903 49.058 751.309 49.058C750.737 49.058 750.209 49.388 750.209 50.092C750.209 50.752 750.649 50.95 751.683 51.39C753.003 51.94 753.619 52.358 753.971 52.798C754.367 53.282 754.455 53.766 754.455 54.272C754.455 56.186 753.069 57.264 751.309 57.264C750.935 57.264 748.889 57.22 748.119 54.932L749.483 54.36C749.659 54.844 750.187 55.856 751.331 55.856C752.365 55.856 752.827 55.086 752.827 54.404C752.827 53.546 752.211 53.26 751.353 52.886C750.253 52.402 749.549 52.05 749.131 51.544C748.779 51.104 748.713 50.664 748.713 50.202C748.713 48.596 749.835 47.65 751.375 47.65C751.859 47.65 753.157 47.738 753.883 49.3ZM761.618 49.3L760.32 49.982C760.1 49.454 759.638 49.058 759.044 49.058C758.472 49.058 757.944 49.388 757.944 50.092C757.944 50.752 758.384 50.95 759.418 51.39C760.738 51.94 761.354 52.358 761.706 52.798C762.102 53.282 762.19 53.766 762.19 54.272C762.19 56.186 760.804 57.264 759.044 57.264C758.67 57.264 756.624 57.22 755.854 54.932L757.218 54.36C757.394 54.844 757.922 55.856 759.066 55.856C760.1 55.856 760.562 55.086 760.562 54.404C760.562 53.546 759.946 53.26 759.088 52.886C757.988 52.402 757.284 52.05 756.866 51.544C756.514 51.104 756.448 50.664 756.448 50.202C756.448 48.596 757.57 47.65 759.11 47.65C759.594 47.65 760.892 47.738 761.618 49.3ZM764.204 56.12C764.204 55.526 764.71 55.02 765.304 55.02C765.898 55.02 766.404 55.526 766.404 56.12C766.404 56.714 765.898 57.22 765.304 57.22C764.71 57.22 764.204 56.714 764.204 56.12Z" fill="#B4B4B4"/>
</svg>
