<svg width="371" height="62" viewBox="0 0 371 62" fill="none" xmlns="http://www.w3.org/2000/svg">
<path d="M45.9119 7.52L44.7919 17.12C39.7519 12.08 33.6719 11.2 30.1519 11.2C24.5519 11.2 19.4319 13.04 15.6719 16.64C11.7519 20.4 8.95188 26.72 8.95188 33.92C8.95188 39.68 11.0319 43.76 13.5919 46.48C16.6319 49.76 20.7119 51.52 26.1519 51.52C33.2719 51.52 38.4719 47.76 41.2719 45.36L40.1519 55.04C33.6719 58.56 29.1919 59.04 25.4319 59.04C19.0319 59.04 13.1919 57.68 7.91188 52.4C3.27188 47.76 0.791875 41.84 0.791875 33.92C0.791875 24.08 4.47188 16.88 9.59188 11.84C15.4319 6.16 22.5519 3.68 30.7119 3.68C35.5919 3.68 40.2319 4.72 45.9119 7.52ZM86.9575 58L82.9575 45.12H60.1575L52.7175 58H43.7575L77.2775 1.52L95.5975 58H86.9575ZM64.4775 37.44H80.6375L74.8775 19.36L64.4775 37.44ZM109.218 58H100.738L118.978 0.639999L132.418 42.08L156.258 0.639999L159.298 58H151.138L149.618 25.84L129.858 60.48L118.738 25.76L109.218 58ZM206.463 4.64L205.503 12.32H184.223L182.623 25.84H203.263L202.303 33.52H181.663L179.583 50.32H200.863L199.903 58H170.463L177.023 4.64H206.463ZM217.023 4.64H226.543C230.703 4.64 236.143 4.96 239.983 7.92C242.543 9.84 245.103 13.6 245.103 19.2C245.103 24.64 242.863 28.48 240.463 30.72C238.143 32.88 234.703 34.56 231.343 35.2L245.182 58H235.343L222.783 36.16H221.343L218.623 58H210.463L217.023 4.64ZM224.223 12.16L222.143 29.12H224.703C227.582 29.12 231.503 28.56 233.983 26.56C235.823 25.12 237.263 22.56 237.263 19.68C237.263 16.88 235.983 14.8 234.303 13.68C232.863 12.72 230.543 12.16 227.023 12.16H224.223ZM285.037 3.68C294.317 3.68 299.917 7.52 303.037 10.64C309.117 16.64 309.917 24.16 309.917 28.72C309.917 39.68 305.517 46.72 301.517 50.8C294.477 57.92 286.237 59.04 279.517 59.04C272.237 59.04 266.157 57.44 261.037 52.16C256.797 47.84 253.917 41.44 253.917 34C253.917 25.52 257.277 17.36 262.637 12.08C267.917 6.8 275.917 3.68 285.037 3.68ZM279.597 51.52C286.637 51.52 291.757 49.28 295.277 45.76C299.357 41.76 301.757 35.44 301.757 29.2C301.757 22.96 299.197 18.96 296.957 16.64C293.997 13.6 289.357 11.2 283.437 11.2C278.317 11.2 273.117 12.72 268.637 17.12C264.957 20.72 261.997 26.24 261.997 33.44C261.997 40.08 264.877 44.24 266.957 46.4C270.717 50.4 275.117 51.52 279.597 51.52ZM325.029 58H316.869L323.829 1.04L357.589 41.6L362.149 4.64H370.309L363.349 61.28L329.589 20.72L325.029 58Z" fill="#C4C4C4"/>
</svg>
