<svg width="901" height="74" viewBox="0 0 901 74" fill="none" xmlns="http://www.w3.org/2000/svg">
<path d="M503.44 11.32H491.2V57H483.04V11.32H470.8V3.64H503.44V11.32ZM532.656 2.68C548.656 2.68 560.416 14.68 560.416 30.36C560.416 46.04 548.656 58.04 532.656 58.04C516.656 58.04 504.896 46.04 504.896 30.36C504.896 14.68 516.656 2.68 532.656 2.68ZM532.656 50.52C544.096 50.52 552.256 42.2 552.256 30.36C552.256 18.52 544.096 10.2 532.656 10.2C521.216 10.2 513.056 18.52 513.056 30.36C513.056 42.2 521.216 50.52 532.656 50.52ZM613.171 11.32H600.931V57H592.771V11.32H580.531V3.64H613.171V11.32ZM626.91 3.64V24.76H649.79V3.64H657.95V57H649.79V32.44H626.91V57H618.75V3.64H626.91ZM698.621 3.64V11.32H677.341V24.84H697.981V32.52H677.341V49.32H698.621V57H669.181V3.64H698.621ZM732.813 3.64V24.76H755.693V3.64H763.853V57H755.693V32.44H732.813V57H724.653V3.64H732.813ZM800.284 2.68C816.284 2.68 828.044 14.68 828.044 30.36C828.044 46.04 816.284 58.04 800.284 58.04C784.284 58.04 772.524 46.04 772.524 30.36C772.524 14.68 784.284 2.68 800.284 2.68ZM800.284 50.52C811.724 50.52 819.884 42.2 819.884 30.36C819.884 18.52 811.724 10.2 800.284 10.2C788.844 10.2 780.684 18.52 780.684 30.36C780.684 42.2 788.844 50.52 800.284 50.52ZM836.688 3.64H844.848V49.32H860.528V57H836.688V3.64ZM896.012 3.64V11.32H874.732V24.84H895.372V32.52H874.732V49.32H896.012V57H866.572V3.64H896.012Z" fill="white"/>
<path d="M24.24 0.52C21.2 6.17333 18.9867 12.0667 17.6 18.2C16.2133 24.28 15.52 30.4667 15.52 36.76C15.52 43.16 16.1867 49.4267 17.52 55.56C18.9067 61.6933 21.12 67.6667 24.16 73.48H14.72C11.36 67.9867 8.74667 62.2 6.88 56.12C5.06667 50.04 4.16 43.8533 4.16 37.56C4.16 34.5733 4.37333 31.4533 4.8 28.2C5.28 24.8933 5.94667 21.6133 6.8 18.36C7.70667 15.1067 8.8 11.96 10.08 8.92C11.4133 5.88 12.96 3.08 14.72 0.52H24.24Z" fill="white"/>
<path d="M424.52 73.48C427.453 67.8267 429.613 61.9867 431 55.96C432.44 49.88 433.16 43.6933 433.16 37.4C433.16 31 432.467 24.7067 431.08 18.52C429.693 12.3333 427.533 6.33333 424.6 0.52H433.96C437.32 6.01333 439.907 11.8267 441.72 17.96C443.587 24.0933 444.52 30.3067 444.52 36.6C444.52 39.5867 444.307 42.7333 443.88 46.04C443.453 49.2933 442.787 52.5467 441.88 55.8C441.027 59 439.933 62.12 438.6 65.16C437.267 68.2 435.72 70.9733 433.96 73.48H424.52Z" fill="white"/>
</svg>
