<svg width="673" height="307" viewBox="0 0 673 307" fill="none" xmlns="http://www.w3.org/2000/svg">
<path d="M400.398 172.137L399.617 171.258L418.172 142.84C421.622 137.501 423.706 133.302 424.422 130.242C425.203 127.182 424.747 124.936 423.055 123.504C421.427 122.072 418.725 121.193 414.949 120.867L415.047 119.793H446.98L446.785 120.867C443.725 121.193 440.991 122.039 438.582 123.406C436.238 124.773 433.699 126.987 430.965 130.047C428.296 133.107 424.91 137.534 420.809 143.328L400.398 172.137ZM414.656 207L362.215 143.133C354.207 133.302 348.38 125.001 344.734 118.23C341.089 111.395 339.298 104.721 339.363 98.2109C339.363 92.2214 340.796 86.6875 343.66 81.6094C346.525 76.4661 350.594 72.332 355.867 69.207C361.206 66.0169 367.521 64.4219 374.812 64.4219C381.974 64.4219 387.964 65.6914 392.781 68.2305C397.599 70.7044 401.212 73.9271 403.621 77.8984C406.03 81.8698 407.234 86.1341 407.234 90.6914C407.234 94.8581 405.997 99.0247 403.523 103.191C401.049 107.293 397.013 111.329 391.414 115.301C385.815 119.207 378.23 123.016 368.66 126.727L368.465 125.945C375.496 122.365 381.355 117.384 386.043 111.004C390.73 104.559 393.074 97.4948 393.074 89.8125C393.074 83.4323 391.479 77.8659 388.289 73.1133C385.164 68.3607 380.672 65.9844 374.812 65.9844C368.693 65.9844 363.777 67.9049 360.066 71.7461C356.355 75.5872 354.5 81.2839 354.5 88.8359C354.5 92.8073 355.151 96.8763 356.453 101.043C357.755 105.145 359.904 109.637 362.898 114.52C365.893 119.402 369.962 124.936 375.105 131.121L421.688 187.957C424.096 190.822 426.538 193.491 429.012 195.965C431.551 198.374 434.025 200.457 436.434 202.215C438.842 203.908 441.154 205.21 443.367 206.121L443.172 207H414.656ZM312.898 175.262C312.898 168.296 314.754 161.883 318.465 156.023C322.176 150.164 327.352 145.021 333.992 140.594C340.698 136.167 348.51 132.618 357.43 129.949L357.527 130.73C355.639 131.512 353.133 132.781 350.008 134.539C346.948 136.232 343.823 138.478 340.633 141.277C337.508 144.077 334.871 147.56 332.723 151.727C330.574 155.893 329.5 160.841 329.5 166.57C329.5 173.146 330.9 178.94 333.699 183.953C336.499 188.901 340.177 192.742 344.734 195.477C349.292 198.146 354.207 199.48 359.48 199.48C364.559 199.48 369.344 198.406 373.836 196.258C378.393 194.109 382.788 190.952 387.02 186.785C391.251 182.553 395.418 177.443 399.52 171.453L400.203 172.43C394.995 179.656 389.689 186.004 384.285 191.473C378.882 196.876 373.315 201.076 367.586 204.07C361.857 207.065 355.867 208.562 349.617 208.562C342.391 208.562 336.01 207.065 330.477 204.07C325.008 201.076 320.711 197.072 317.586 192.059C314.461 186.98 312.898 181.382 312.898 175.262Z" fill="#545454"/>
<path d="M54.1194 37.96V49.48H22.1994V69.76H53.1594V81.28H22.1994L22.1994 106.48H54.1194V118H9.95938L9.95938 37.96H54.1194ZM107.639 37.96V49.48H79.7994V69.76H106.679V81.28H79.7994L79.7994 118H67.5594L67.5594 37.96H107.639ZM159.263 37.96V49.48H131.423V69.76H158.303V81.28H131.423V118H119.183L119.183 37.96H159.263ZM208.606 36.52C232.606 36.52 250.246 54.52 250.246 78.04C250.246 101.56 232.606 119.56 208.606 119.56C184.606 119.56 166.966 101.56 166.966 78.04C166.966 54.52 184.606 36.52 208.606 36.52ZM208.606 108.28C225.766 108.28 238.006 95.8 238.006 78.04C238.006 60.28 225.766 47.8 208.606 47.8C191.446 47.8 179.206 60.28 179.206 78.04C179.206 95.8 191.446 108.28 208.606 108.28ZM263.211 37.96H277.491C287.211 37.96 293.451 39.16 298.611 42.64C307.371 48.52 308.091 58 308.091 61.48C308.091 73 301.011 81.4 290.331 83.8L315.291 118H300.531L277.611 85.24H275.451V118H263.211V37.96ZM275.451 49.24V74.68H279.291C282.651 74.68 296.331 74.32 296.331 61.6C296.331 50.32 285.651 49.24 279.651 49.24H275.451ZM365.473 49.48H347.113V118H334.873V49.48H316.513V37.96H365.473V49.48Z" fill="white"/>
<path d="M157.855 190.96H172.135C181.855 190.96 188.095 192.16 193.255 195.64C202.015 201.52 202.735 211 202.735 214.48C202.735 226 195.655 234.4 184.975 236.8L209.935 271H195.175L172.255 238.24H170.095V271H157.855V190.96ZM170.095 202.24V227.68H173.935C177.295 227.68 190.975 227.32 190.975 214.6C190.975 203.32 180.295 202.24 174.295 202.24H170.095ZM263.717 190.96V202.48H231.797V222.76H262.757V234.28H231.797V259.48H263.717V271H219.557V190.96H263.717ZM321.557 202.96L311.717 208.72C310.997 206.92 309.917 205.24 308.117 203.68C305.597 201.64 302.957 200.8 299.477 200.8C292.037 200.8 288.197 205.24 288.197 210.4C288.197 212.8 289.037 217 296.837 220.12L304.877 223.36C319.637 229.36 323.717 237.76 323.717 246.88C323.717 262.12 312.917 272.56 297.917 272.56C288.677 272.56 283.157 269.08 279.077 264.52C274.757 259.72 272.837 254.44 272.357 248.92L284.477 246.28C284.477 250.24 285.917 253.96 287.837 256.48C290.117 259.36 293.477 261.28 298.277 261.28C305.717 261.28 311.477 255.88 311.477 247.84C311.477 239.68 305.237 236.32 299.957 234.16L292.277 230.92C285.677 228.16 275.957 222.64 275.957 210.64C275.957 199.84 284.357 189.52 299.357 189.52C307.997 189.52 312.917 192.76 315.437 194.92C317.597 196.84 319.877 199.6 321.557 202.96ZM380.792 190.96V202.48H348.872V222.76H379.832V234.28H348.872V259.48H380.792V271H336.632V190.96H380.792ZM449.672 271L441.272 251.68H407.072L398.312 271H385.112L424.952 186.28L462.872 271H449.672ZM412.112 240.16H436.352L424.472 213.04L412.112 240.16ZM470.582 190.96H484.862C494.582 190.96 500.822 192.16 505.982 195.64C514.742 201.52 515.462 211 515.462 214.48C515.462 226 508.382 234.4 497.702 236.8L522.662 271H507.902L484.982 238.24H482.822V271H470.582V190.96ZM482.822 202.24V227.68H486.662C490.022 227.68 503.702 227.32 503.702 214.6C503.702 203.32 493.022 202.24 487.022 202.24H482.822ZM591.564 195.28V209.68C582.684 201.64 574.404 200.8 569.844 200.8C552.444 200.8 540.684 213.64 540.684 231.28C540.684 248.2 552.924 261.28 569.964 261.28C579.564 261.28 587.004 256.36 591.564 252.04V266.56C583.524 271.36 575.124 272.56 569.604 272.56C555.084 272.56 545.964 265.96 541.284 261.52C531.924 252.76 528.444 242.56 528.444 231.28C528.444 216.52 534.564 206.32 541.284 199.96C549.564 192.16 559.164 189.52 570.204 189.52C577.524 189.52 584.604 190.84 591.564 195.28ZM616.538 190.96V222.64H650.858V190.96H663.098V271H650.858V234.16H616.538V271H604.298V190.96H616.538Z" fill="white"/>
</svg>
