<svg width="468" height="76" viewBox="0 0 468 76" fill="none" xmlns="http://www.w3.org/2000/svg">
<path d="M24.8281 58.7422C21.2083 58.7422 17.9141 58.1432 14.9453 56.9453C11.9766 55.7214 9.42448 53.9896 7.28906 51.75C5.15365 49.5104 3.51302 46.8542 2.36719 43.7812C1.22135 40.6823 0.648438 37.2578 0.648438 33.5078C0.622396 29.1328 1.3125 24.9922 2.71875 21.0859C4.15104 17.1536 6.16927 13.6771 8.77344 10.6562C11.4036 7.60938 14.5026 5.21354 18.0703 3.46875C21.638 1.72396 25.5573 0.851562 29.8281 0.851562C33.4479 0.851562 36.7292 1.46354 39.6719 2.6875C42.6406 3.88542 45.1927 5.60417 47.3281 7.84375C49.4635 10.0833 51.1042 12.7526 52.25 15.8516C53.4219 18.9245 54.0078 22.349 54.0078 26.125C54.0078 30.5 53.2917 34.6536 51.8594 38.5859C50.4271 42.4922 48.4089 45.9557 45.8047 48.9766C43.2005 51.9974 40.1146 54.3802 36.5469 56.125C33.0052 57.8698 29.099 58.7422 24.8281 58.7422ZM24.0859 56.4375C27.1589 56.4375 29.9844 55.5781 32.5625 53.8594C35.1406 52.1406 37.3932 49.7708 39.3203 46.75C41.2734 43.7031 42.7839 40.2005 43.8516 36.2422C44.9193 32.2839 45.4531 28.0781 45.4531 23.625C45.4531 16.9583 44.0859 11.8802 41.3516 8.39062C38.6172 4.90104 35.0104 3.15625 30.5312 3.15625C27.3021 3.15625 24.3724 4.09375 21.7422 5.96875C19.112 7.84375 16.8594 10.3568 14.9844 13.5078C13.1094 16.6589 11.6641 20.1875 10.6484 24.0938C9.65885 27.974 9.16406 31.9323 9.16406 35.9688C9.16406 42.6354 10.5313 47.7135 13.2656 51.2031C16 54.6927 19.6068 56.4375 24.0859 56.4375ZM69.4375 19.6406L72.3672 52.1016C74.1901 49.7578 75.9349 47.3359 77.6016 44.8359C79.2682 42.3359 80.7786 39.862 82.1328 37.4141C83.487 34.9401 84.5938 32.5443 85.4531 30.2266C86.3385 27.9089 86.8854 25.7734 87.0938 23.8203H88.9688C88.9688 24.8359 88.6172 25.6823 87.9141 26.3594C87.237 27.0104 86.3516 27.3359 85.2578 27.3359C84.112 27.3359 83.1484 26.9583 82.3672 26.2031C81.612 25.4479 81.2344 24.5234 81.2344 23.4297C81.2344 22.2578 81.625 21.2943 82.4062 20.5391C83.2135 19.7578 84.2292 19.3672 85.4531 19.3672C86.625 19.3672 87.6146 19.7708 88.4219 20.5781C89.2292 21.3854 89.6328 22.4531 89.6328 23.7812C89.6328 25.3437 89.138 27.362 88.1484 29.8359C87.1849 32.2839 85.8047 35.0443 84.0078 38.1172C82.237 41.1901 80.1276 44.4453 77.6797 47.8828C75.2318 51.3203 72.5625 54.7708 69.6719 58.2344H66.1172L62.8359 26.3203C62.7057 25.3047 62.4714 24.5885 62.1328 24.1719C61.8203 23.7292 61.1693 23.4036 60.1797 23.1953L57.7578 22.7266L58.0312 21.2422L69.4375 19.6406ZM106.273 58.7031C103.773 58.7031 101.482 58.1172 99.3984 56.9453C97.3151 55.7474 95.6484 53.9896 94.3984 51.6719C93.1484 49.3542 92.5234 46.4896 92.5234 43.0781C92.5234 39.7708 93.0312 36.6849 94.0469 33.8203C95.0625 30.9297 96.4688 28.4036 98.2656 26.2422C100.062 24.0807 102.12 22.401 104.438 21.2031C106.781 19.9792 109.255 19.3672 111.859 19.3672C114.854 19.3672 117.263 20.0443 119.086 21.3984C120.935 22.7266 121.859 24.5625 121.859 26.9062C121.859 28.9115 121.117 30.7214 119.633 32.3359C118.174 33.9245 115.987 35.4089 113.07 36.7891C110.154 38.1432 106.521 39.4583 102.172 40.7344L98.6562 41.75L98.8125 40.0312L102.172 38.9766C104.229 38.3255 106.091 37.5573 107.758 36.6719C109.424 35.7865 110.844 34.7969 112.016 33.7031C113.214 32.6094 114.125 31.4245 114.75 30.1484C115.375 28.8464 115.688 27.4661 115.688 26.0078C115.688 24.5234 115.362 23.3906 114.711 22.6094C114.06 21.8021 112.992 21.3984 111.508 21.3984C109.763 21.3984 108.174 21.9974 106.742 23.1953C105.336 24.3672 104.125 25.9557 103.109 27.9609C102.094 29.9401 101.312 32.1927 100.766 34.7187C100.219 37.2187 99.9453 39.7839 99.9453 42.4141C99.9453 45.2005 100.349 47.5443 101.156 49.4453C101.99 51.3464 103.122 52.7917 104.555 53.7812C106.013 54.7448 107.68 55.2266 109.555 55.2266C111.169 55.2266 112.784 54.888 114.398 54.2109C116.013 53.5078 117.419 52.5703 118.617 51.3984L118.266 53.1172C117.432 54.237 116.391 55.2266 115.141 56.0859C113.891 56.9193 112.51 57.5573 111 58C109.49 58.4687 107.914 58.7031 106.273 58.7031ZM140.414 19.6406L138.109 30.5781C139.984 27.7917 141.573 25.6042 142.875 24.0156C144.203 22.4271 145.388 21.3073 146.43 20.6562C147.497 19.9792 148.565 19.6406 149.633 19.6406C150.727 19.6406 151.573 19.9792 152.172 20.6562C152.771 21.3333 153.07 22.2318 153.07 23.3516C153.07 23.8984 152.979 24.4193 152.797 24.9141C152.615 25.4089 152.419 25.7734 152.211 26.0078C151.924 25.9036 151.508 25.8125 150.961 25.7344C150.44 25.6302 149.841 25.5781 149.164 25.5781C147.003 25.5781 144.919 26.1901 142.914 27.4141C140.935 28.612 139.281 30.1745 137.953 32.1016L132.602 58H125.453L132.172 26.3594C132.38 25.4219 132.354 24.7448 132.094 24.3281C131.859 23.8854 131.234 23.5208 130.219 23.2344L127.641 22.7266L127.953 21.2422L140.414 19.6406ZM185.609 19.6797L188.383 52.1016C190.128 49.7578 191.781 47.362 193.344 44.9141C194.932 42.4401 196.365 39.9922 197.641 37.5703C198.917 35.1224 199.971 32.7526 200.805 30.4609C201.638 28.1432 202.172 25.9818 202.406 23.9766H204.32C204.32 24.9661 203.969 25.7734 203.266 26.3984C202.589 27.0234 201.703 27.3359 200.609 27.3359C199.464 27.3359 198.5 26.9583 197.719 26.2031C196.964 25.4479 196.586 24.5234 196.586 23.4297C196.586 22.2578 196.977 21.2943 197.758 20.5391C198.565 19.7578 199.581 19.3672 200.805 19.3672C202.029 19.3672 203.031 19.7839 203.812 20.6172C204.594 21.4245 204.984 22.5312 204.984 23.9375C204.984 25.1615 204.685 26.6849 204.086 28.5078C203.487 30.3047 202.615 32.349 201.469 34.6406C200.349 36.9062 199.008 39.3411 197.445 41.9453C195.883 44.5234 194.125 47.1927 192.172 49.9531C190.219 52.7135 188.122 55.474 185.883 58.2344H182.406L179.008 20.7734L185.609 19.6797ZM165.531 19.6406L168.383 51.5547C169.607 49.263 170.87 46.9062 172.172 44.4844C173.474 42.0625 174.659 39.6536 175.727 37.2578C176.82 34.862 177.693 32.5703 178.344 30.3828C178.995 28.1693 179.333 26.151 179.359 24.3281L180.688 26.3984C180.766 27.7786 180.466 29.5495 179.789 31.7109C179.112 33.8464 178.122 36.3073 176.82 39.0937C175.544 41.8542 173.969 44.862 172.094 48.1172C170.245 51.3464 168.161 54.7187 165.844 58.2344H162.289L159.008 26.3203C158.904 25.3047 158.682 24.5885 158.344 24.1719C158.005 23.7292 157.354 23.4036 156.391 23.1953L153.93 22.7266L154.242 21.2422L165.531 19.6406ZM226.547 0.304687L219.672 31.4766C220.766 28.6901 222.068 26.3984 223.578 24.6016C225.115 22.8047 226.781 21.4896 228.578 20.6562C230.375 19.7969 232.198 19.3672 234.047 19.3672C237.406 19.3672 239.841 20.4219 241.352 22.5312C242.888 24.6406 243.227 27.7005 242.367 31.7109L238.148 51.3984C237.888 52.5703 237.94 53.4557 238.305 54.0547C238.695 54.6276 239.333 54.9141 240.219 54.9141C240.87 54.9141 241.625 54.7839 242.484 54.5234C243.344 54.237 244.086 53.8073 244.711 53.2344L244.398 54.875C243.591 55.9687 242.341 56.8672 240.648 57.5703C238.982 58.2474 237.354 58.5859 235.766 58.5859C233.76 58.5859 232.328 57.9479 231.469 56.6719C230.635 55.3958 230.518 53.3776 231.117 50.6172L235.336 30.8125C235.883 28.3385 235.792 26.3984 235.062 24.9922C234.359 23.5599 232.94 22.8437 230.805 22.8437C229.294 22.8437 227.758 23.3776 226.195 24.4453C224.633 25.513 223.214 27.0104 221.938 28.9375C220.661 30.8385 219.698 33.0521 219.047 35.5781L214.281 58H207.094L218.031 6.75C218.214 5.78646 218.174 5.09635 217.914 4.67969C217.68 4.23698 217.068 3.88542 216.078 3.625L213.461 3.11719L213.812 1.59375L226.547 0.304687ZM264.477 58.7031C261.977 58.7031 259.685 58.1172 257.602 56.9453C255.518 55.7474 253.852 53.9896 252.602 51.6719C251.352 49.3542 250.727 46.4896 250.727 43.0781C250.727 39.7708 251.234 36.6849 252.25 33.8203C253.266 30.9297 254.672 28.4036 256.469 26.2422C258.266 24.0807 260.323 22.401 262.641 21.2031C264.984 19.9792 267.458 19.3672 270.062 19.3672C273.057 19.3672 275.466 20.0443 277.289 21.3984C279.138 22.7266 280.062 24.5625 280.062 26.9062C280.062 28.9115 279.32 30.7214 277.836 32.3359C276.378 33.9245 274.19 35.4089 271.273 36.7891C268.357 38.1432 264.724 39.4583 260.375 40.7344L256.859 41.75L257.016 40.0312L260.375 38.9766C262.432 38.3255 264.294 37.5573 265.961 36.6719C267.628 35.7865 269.047 34.7969 270.219 33.7031C271.417 32.6094 272.328 31.4245 272.953 30.1484C273.578 28.8464 273.891 27.4661 273.891 26.0078C273.891 24.5234 273.565 23.3906 272.914 22.6094C272.263 21.8021 271.195 21.3984 269.711 21.3984C267.966 21.3984 266.378 21.9974 264.945 23.1953C263.539 24.3672 262.328 25.9557 261.312 27.9609C260.297 29.9401 259.516 32.1927 258.969 34.7187C258.422 37.2187 258.148 39.7839 258.148 42.4141C258.148 45.2005 258.552 47.5443 259.359 49.4453C260.193 51.3464 261.326 52.7917 262.758 53.7812C264.216 54.7448 265.883 55.2266 267.758 55.2266C269.372 55.2266 270.987 54.888 272.602 54.2109C274.216 53.5078 275.622 52.5703 276.82 51.3984L276.469 53.1172C275.635 54.237 274.594 55.2266 273.344 56.0859C272.094 56.9193 270.714 57.5573 269.203 58C267.693 58.4687 266.117 58.7031 264.477 58.7031ZM302.641 0.304687L291.781 51.3984C291.521 52.5703 291.573 53.4557 291.938 54.0547C292.328 54.6276 292.966 54.9141 293.852 54.9141C294.503 54.9141 295.258 54.7839 296.117 54.5234C296.977 54.237 297.719 53.8073 298.344 53.2344L297.992 54.875C297.211 55.9687 295.974 56.8672 294.281 57.5703C292.615 58.2474 290.987 58.5859 289.398 58.5859C287.393 58.5859 285.961 57.9479 285.102 56.6719C284.268 55.3958 284.151 53.3776 284.75 50.6172L294.086 6.75C294.294 5.78646 294.268 5.09635 294.008 4.67969C293.747 4.23698 293.122 3.88542 292.133 3.625L289.516 3.11719L289.867 1.59375L302.641 0.304687ZM310.609 26.3594C310.818 25.4219 310.792 24.7448 310.531 24.3281C310.297 23.8854 309.672 23.5208 308.656 23.2344L306.078 22.7266L306.391 21.2422L319.008 19.6406L316.469 31.4375C317.901 27.4271 319.815 24.4193 322.211 22.4141C324.607 20.3828 327.263 19.3672 330.18 19.3672C332.211 19.3672 333.904 19.7708 335.258 20.5781C336.612 21.3854 337.576 22.5703 338.148 24.1328C338.721 25.6693 338.852 27.5573 338.539 29.7969C338.487 30.0573 338.422 30.3307 338.344 30.6172C338.292 30.8776 338.24 31.138 338.188 31.3984C339.073 28.8724 340.206 26.7109 341.586 24.9141C342.992 23.1172 344.555 21.75 346.273 20.8125C348.018 19.849 349.867 19.3672 351.82 19.3672C355.076 19.3672 357.471 20.4089 359.008 22.4922C360.57 24.5755 360.922 27.6224 360.062 31.6328L355.805 51.3984C355.544 52.5703 355.596 53.4557 355.961 54.0547C356.326 54.6276 356.951 54.9141 357.836 54.9141C358.513 54.9141 359.281 54.7839 360.141 54.5234C361 54.237 361.742 53.8073 362.367 53.2344L362.016 54.875C361.234 55.9687 359.997 56.8672 358.305 57.5703C356.638 58.2474 355.01 58.5859 353.422 58.5859C351.417 58.5859 349.984 57.9479 349.125 56.6719C348.292 55.3958 348.174 53.3776 348.773 50.6172L353.031 30.8516C353.526 28.4557 353.422 26.5286 352.719 25.0703C352.042 23.5859 350.701 22.8437 348.695 22.8437C347.107 22.8437 345.557 23.4167 344.047 24.5625C342.562 25.7083 341.234 27.2708 340.062 29.25C338.891 31.2031 338.018 33.4036 337.445 35.8516L332.719 58H325.531L331.43 30.5781C331.898 28.3385 331.781 26.4896 331.078 25.0312C330.401 23.5729 329.06 22.8437 327.055 22.8437C325.466 22.8437 323.917 23.4167 322.406 24.5625C320.922 25.7083 319.594 27.2708 318.422 29.25C317.25 31.2031 316.365 33.4036 315.766 35.8516L311.039 58H303.891L310.609 26.3594ZM382.523 19.6406L375.727 51.3984C375.492 52.5703 375.557 53.4557 375.922 54.0547C376.312 54.6276 376.951 54.9141 377.836 54.9141C378.487 54.9141 379.242 54.7839 380.102 54.5234C380.961 54.237 381.69 53.8073 382.289 53.2344L381.977 54.875C381.169 55.9687 379.932 56.8672 378.266 57.5703C376.599 58.2474 374.971 58.5859 373.383 58.5859C371.378 58.5859 369.945 57.9479 369.086 56.6719C368.253 55.3958 368.135 53.3776 368.734 50.6172L373.891 26.3594C374.099 25.4219 374.073 24.7448 373.812 24.3281C373.552 23.8854 372.927 23.5208 371.938 23.2344L369.32 22.7266L369.672 21.2422L382.523 19.6406ZM380.727 12.4531C379.503 12.4531 378.474 12.0495 377.641 11.2422C376.833 10.4089 376.43 9.39323 376.43 8.19531C376.43 6.94531 376.872 5.89062 377.758 5.03125C378.643 4.14583 379.724 3.70312 381 3.70312C382.224 3.70312 383.24 4.11979 384.047 4.95312C384.88 5.76042 385.297 6.76302 385.297 7.96094C385.297 8.76823 385.089 9.52344 384.672 10.2266C384.255 10.9297 383.708 11.4766 383.031 11.8672C382.354 12.2578 381.586 12.4531 380.727 12.4531ZM402.992 19.6406L400.453 31.4375C401.443 28.8333 402.667 26.6328 404.125 24.8359C405.583 23.0391 407.211 21.6849 409.008 20.7734C410.831 19.8359 412.745 19.3672 414.75 19.3672C418.083 19.3672 420.518 20.4219 422.055 22.5312C423.591 24.6406 423.93 27.7005 423.07 31.7109L418.852 51.3984C418.591 52.5703 418.643 53.4557 419.008 54.0547C419.398 54.6276 420.036 54.9141 420.922 54.9141C421.573 54.9141 422.328 54.7839 423.188 54.5234C424.047 54.237 424.789 53.8073 425.414 53.2344L425.102 54.875C424.294 55.9687 423.044 56.8672 421.352 57.5703C419.685 58.2474 418.057 58.5859 416.469 58.5859C414.464 58.5859 413.031 57.9479 412.172 56.6719C411.339 55.3958 411.221 53.3776 411.82 50.6172L416.078 30.8125C416.599 28.3385 416.495 26.3984 415.766 24.9922C415.062 23.5599 413.656 22.8437 411.547 22.8437C409.88 22.8437 408.253 23.4167 406.664 24.5625C405.102 25.7083 403.708 27.2708 402.484 29.25C401.286 31.2031 400.375 33.4036 399.75 35.8516L395.023 58H387.875L394.594 26.3594C394.802 25.4219 394.776 24.7448 394.516 24.3281C394.281 23.8854 393.656 23.5208 392.641 23.2344L390.062 22.7266L390.375 21.2422L402.992 19.6406ZM467.211 23.5859L455.219 22.8047L455.062 21.3984L467.797 20.7734L467.211 23.5859ZM439.867 34.9922C439.867 37.4401 440.375 39.4974 441.391 41.1641C442.432 42.8047 443.995 43.625 446.078 43.625C447.38 43.625 448.539 43.2474 449.555 42.4922C450.596 41.7109 451.469 40.6562 452.172 39.3281C452.901 38 453.448 36.5156 453.812 34.875C454.203 33.2083 454.398 31.4896 454.398 29.7187C454.398 27.2448 453.878 25.1875 452.836 23.5469C451.82 21.8802 450.271 21.0469 448.188 21.0469C446.885 21.0469 445.714 21.4375 444.672 22.2187C443.656 23 442.784 24.0547 442.055 25.3828C441.352 26.7109 440.805 28.2083 440.414 29.875C440.049 31.5156 439.867 33.2214 439.867 34.9922ZM432.875 33.4687C432.875 30.9167 433.474 28.5859 434.672 26.4766C435.896 24.3411 437.641 22.6354 439.906 21.3594C442.198 20.0573 444.932 19.3932 448.109 19.3672C451 19.3672 453.422 19.9141 455.375 21.0078C457.354 22.0755 458.852 23.5078 459.867 25.3047C460.883 27.1016 461.391 29.0677 461.391 31.2031C461.391 33.7292 460.779 36.0729 459.555 38.2344C458.357 40.3958 456.625 42.1276 454.359 43.4297C452.094 44.7057 449.359 45.3307 446.156 45.3047C443.344 45.2786 440.948 44.7318 438.969 43.6641C436.99 42.5964 435.479 41.1641 434.438 39.3672C433.396 37.5703 432.875 35.6042 432.875 33.4687ZM441.586 75.6172C438.487 75.6172 435.688 75.2526 433.188 74.5234C430.688 73.7943 428.695 72.7266 427.211 71.3203C425.753 69.9401 425.023 68.2734 425.023 66.3203C425.023 64.0286 426.208 62.0885 428.578 60.5C430.974 58.9115 434.242 57.8307 438.383 57.2578L439.984 57.7266C436.938 58.4036 434.672 59.4323 433.188 60.8125C431.703 62.1927 430.961 63.8594 430.961 65.8125C430.961 68.0521 431.99 69.9141 434.047 71.3984C436.104 72.9089 438.747 73.6641 441.977 73.6641C444.086 73.6641 446 73.3385 447.719 72.6875C449.464 72.0365 450.844 71.125 451.859 69.9531C452.875 68.7812 453.383 67.4141 453.383 65.8516C453.383 64.263 452.797 62.9089 451.625 61.7891C450.479 60.6953 448.5 59.849 445.688 59.25L439.516 58C437.016 57.4792 435.18 56.6458 434.008 55.5C432.836 54.3281 432.237 52.9609 432.211 51.3984C432.211 49.7318 432.953 48.2734 434.438 47.0234C435.922 45.7474 438.305 44.8229 441.586 44.25L443.109 44.7187C441.286 45.0312 439.945 45.5521 439.086 46.2812C438.253 47.0104 437.836 47.8047 437.836 48.6641C437.862 49.4193 438.188 50.0964 438.812 50.6953C439.464 51.2943 440.648 51.776 442.367 52.1406L448.812 53.5078C452.51 54.2891 455.167 55.526 456.781 57.2187C458.422 58.8854 459.242 60.9948 459.242 63.5469C459.242 66.0469 458.37 68.2083 456.625 70.0312C454.906 71.8542 452.693 73.2344 449.984 74.1719C447.276 75.1354 444.477 75.6172 441.586 75.6172Z" fill="#AF001B"/>
</svg>
