<svg width="1335" height="631" viewBox="0 0 1335 631" fill="none" xmlns="http://www.w3.org/2000/svg">
<path d="M1222.62 407.972H1257.29V442.644C1257.29 448.891 1256.56 454.826 1255.1 460.449C1253.85 465.863 1251.77 470.653 1248.86 474.818C1246.15 478.983 1242.61 482.314 1238.23 484.813C1234.07 487.312 1228.97 488.562 1222.93 488.562V472.944C1226.47 472.944 1229.38 472.111 1231.68 470.445C1233.97 468.57 1235.84 466.176 1237.3 463.26C1238.76 460.345 1239.69 457.117 1240.11 453.577C1240.73 449.829 1241.05 446.184 1241.05 442.644H1222.62V407.972ZM1279.78 407.972H1314.45V442.644C1314.45 448.891 1313.72 454.826 1312.27 460.449C1311.02 465.863 1308.93 470.653 1306.02 474.818C1303.31 478.983 1299.77 482.314 1295.4 484.813C1291.23 487.312 1286.13 488.562 1280.09 488.562V472.944C1283.63 472.944 1286.55 472.111 1288.84 470.445C1291.13 468.57 1293 466.176 1294.46 463.26C1295.92 460.345 1296.86 457.117 1297.27 453.577C1297.9 449.829 1298.21 446.184 1298.21 442.644H1279.78V407.972Z" fill="white"/>
<path d="M112.383 0.971709H77.711V35.6442C77.711 41.8915 78.4398 47.8264 79.8975 53.449C81.147 58.8633 83.2294 63.6529 86.1448 67.8177C88.852 71.9826 92.3921 75.3145 96.7652 77.8134C100.93 80.3123 106.032 81.5618 112.071 81.5618V65.9435C108.531 65.9435 105.616 65.1106 103.325 63.4446C101.034 61.5704 99.16 59.1756 97.7023 56.2602C96.2446 53.3448 95.3075 50.1171 94.891 46.5769C94.2663 42.8286 93.9539 39.1843 93.9539 35.6442H112.383V0.971709ZM55.2207 0.971709H20.5482V35.6442C20.5482 41.8915 21.2771 47.8264 22.7348 53.449C23.9843 58.8633 26.0667 63.6529 28.9821 67.8177C31.6892 71.9826 35.2294 75.3145 39.6025 77.8134C43.7673 80.3123 48.8693 81.5618 54.9083 81.5618V65.9435C51.3682 65.9435 48.4528 65.1106 46.1621 63.4446C43.8715 61.5704 41.9973 59.1756 40.5396 56.2602C39.0819 53.3448 38.1448 50.1171 37.7283 46.5769C37.1036 42.8286 36.7912 39.1843 36.7912 35.6442H55.2207V0.971709Z" fill="white"/>
</svg>
