<svg width="618" height="84" viewBox="0 0 618 84" fill="none" xmlns="http://www.w3.org/2000/svg">
<path d="M49.478 13.48H31.118L31.118 82H18.878L18.878 13.48H0.517963L0.517963 1.95999H49.478V13.48ZM70.0861 1.95999V33.64H104.406V1.95999H116.646L116.646 82L104.406 82L104.406 45.16H70.0861L70.0861 82H57.8461L57.8461 1.95999H70.0861ZM177.653 1.95999V13.48L145.733 13.48V33.76H176.693V45.28H145.733V70.48H177.653V82H133.493V1.95999L177.653 1.95999ZM257.261 13.48H238.901V82H226.661V13.48H208.301V1.95999H257.261V13.48ZM265.629 1.95999H277.869V82H265.629V1.95999ZM335.195 13.48H316.835V82H304.595V13.48L286.235 13.48V1.95999L335.195 1.95999V13.48ZM343.563 1.95999H355.803V70.48H379.323V82L343.563 82V1.95999ZM432.55 1.95999V13.48L400.63 13.48V33.76H431.59V45.28H400.63V70.48H432.55V82H388.39V1.95999L432.55 1.95999ZM445.99 1.95999H458.23V70.48H481.75V82H445.99V1.95999ZM490.816 1.95999H503.056V82H490.816V1.95999ZM564.223 13.96L554.383 19.72C553.663 17.92 552.583 16.24 550.783 14.68C548.263 12.64 545.623 11.8 542.143 11.8C534.703 11.8 530.863 16.24 530.863 21.4C530.863 23.8 531.703 28 539.503 31.12L547.543 34.36C562.303 40.36 566.383 48.76 566.383 57.88C566.383 73.12 555.583 83.56 540.583 83.56C531.343 83.56 525.823 80.08 521.743 75.52C517.423 70.72 515.503 65.44 515.023 59.92L527.143 57.28C527.143 61.24 528.583 64.96 530.503 67.48C532.783 70.36 536.143 72.28 540.943 72.28C548.383 72.28 554.143 66.88 554.143 58.84C554.143 50.68 547.903 47.32 542.623 45.16L534.943 41.92C528.343 39.16 518.623 33.64 518.623 21.64C518.623 10.84 527.023 0.519998 542.023 0.519998C550.663 0.519998 555.583 3.76 558.103 5.92C560.263 7.84 562.543 10.6 564.223 13.96ZM617.514 13.48H599.154V82H586.914V13.48H568.554V1.95999H617.514V13.48Z" fill="white"/>
</svg>
