<svg width="341" height="131" viewBox="0 0 341 131" fill="none" xmlns="http://www.w3.org/2000/svg">
<path d="M38.2383 130.494C33.4336 130.494 28.6289 130.143 23.8242 129.439C19.0195 128.736 14.5957 127.74 10.5527 126.451C6.50977 125.162 3.22852 123.697 0.708984 122.057L5.63086 91.4707H6.77344C6.71484 100.377 8.00391 107.555 10.6406 113.004C13.2773 118.453 16.8809 122.408 21.4512 124.869C26.0215 127.33 31.0605 128.561 36.5684 128.561C41.4316 128.561 45.8848 127.623 49.9277 125.748C53.9707 123.873 57.2227 121.119 59.6836 117.486C62.1445 113.854 63.375 109.459 63.375 104.303C63.375 99.1465 62.2324 94.459 59.9473 90.2402C57.7207 85.9629 53.9414 81.7734 48.6094 77.6719L37.1836 68.8828C30.7969 64.0781 25.9336 59.0684 22.5938 53.8535C19.2539 48.5801 17.584 42.7793 17.584 36.4512C17.584 29.0098 19.4297 22.623 23.1211 17.291C26.8125 11.959 31.8809 7.85742 38.3262 4.98633C44.8301 2.05664 52.2422 0.591797 60.5625 0.591797C69.0586 0.591797 76.0898 1.58789 81.6562 3.58008C87.2227 5.57227 91.6465 7.97461 94.9277 10.7871L90.2695 40.9336H89.127C88.7754 28.2773 86.2559 18.7266 81.5684 12.2812C76.8809 5.83594 70.4648 2.61328 62.3203 2.61328C54.4688 2.61328 48.3457 4.72266 43.9512 8.94141C39.5566 13.1602 37.3594 18.7559 37.3594 25.7285C37.3594 30.2988 38.4727 34.5176 40.6992 38.3848C42.9258 42.1934 46.6172 46.0605 51.7734 49.9863L63.1992 58.7754C70.1719 64.1074 75.2402 69.5273 78.4043 75.0352C81.627 80.4844 83.2383 86.4609 83.2383 92.9648C83.2383 99 82.0078 104.361 79.5469 109.049C77.0859 113.736 73.7461 117.691 69.5273 120.914C65.3086 124.078 60.5039 126.48 55.1133 128.121C49.7227 129.703 44.0977 130.494 38.2383 130.494ZM153.375 129H145.729L127.975 13.3359H128.502L108.023 103.512C106.969 108.082 106.266 111.861 105.914 114.85C105.562 117.779 105.65 120.123 106.178 121.881C106.705 123.58 107.701 124.869 109.166 125.748C110.631 126.568 112.682 127.213 115.318 127.682L115.055 129H86.2266L86.4902 127.682C89.8301 127.096 92.4668 126.07 94.4004 124.605C96.3926 123.141 98.0918 120.797 99.498 117.574C100.904 114.293 102.398 109.605 103.98 103.512L125.162 19.4883C126.1 16.0313 126.451 13.2188 126.217 11.0508C126.041 8.82422 125.279 7.125 123.932 5.95312C122.643 4.72266 120.768 3.87305 118.307 3.4043L118.57 2.08594H148.98L164.273 106.324H163.658L218.414 2.08594H250.406L250.23 3.4043C247.359 3.93164 245.133 4.60547 243.551 5.42578C241.969 6.1875 240.797 7.30078 240.035 8.76562C239.273 10.1719 238.658 12.1348 238.189 14.6543L220.348 116.432C219.938 119.068 219.82 121.119 219.996 122.584C220.172 124.049 220.904 125.133 222.193 125.836C223.541 126.539 225.592 127.154 228.346 127.682L228.082 129H186.158L186.422 127.682C189.41 127.213 191.725 126.627 193.365 125.924C195.006 125.162 196.236 124.049 197.057 122.584C197.877 121.119 198.521 119.068 198.99 116.432L217.359 11.8418H217.975L165.416 106.324L153.375 129ZM255.592 43.7461C255.592 35.8359 257.408 28.6289 261.041 22.125C264.674 15.5625 269.947 10.3477 276.861 6.48047C283.775 2.55469 292.154 0.591797 301.998 0.591797C307.213 0.591797 311.871 1.38281 315.973 2.96484C320.133 4.54688 323.766 6.74414 326.871 9.55664C329.977 12.3105 332.525 15.5625 334.518 19.3125C336.568 23.0625 338.092 27.1055 339.088 31.4414C340.084 35.7188 340.582 40.1426 340.582 44.7129C340.582 52.2715 339.234 59.9766 336.539 67.8281C333.902 75.6797 330.006 83.209 324.85 90.416C319.693 97.623 313.307 104.127 305.689 109.928C298.072 115.67 289.312 120.27 279.41 123.727C269.508 127.184 258.492 129.088 246.363 129.439L246.539 128.121C255.621 127.828 263.971 125.865 271.588 122.232C279.264 118.6 286.119 113.766 292.154 107.73C298.189 101.637 303.346 94.7227 307.623 86.9883C311.9 79.1953 315.211 70.9629 317.555 62.291C319.898 53.6191 321.188 44.918 321.422 36.1875H321.51C321.1 45.6211 319.342 53.4727 316.236 59.7422C313.131 65.9531 309.029 70.6113 303.932 73.7168C298.893 76.7637 293.209 78.2871 286.881 78.2871C280.729 78.2871 275.279 76.7344 270.533 73.6289C265.846 70.4648 262.184 66.2754 259.547 61.0605C256.91 55.8457 255.592 50.0742 255.592 43.7461ZM276.422 43.7461C276.422 48.375 277.066 52.7988 278.355 57.0176C279.645 61.2363 281.637 64.7227 284.332 67.4766C287.086 70.1719 290.66 71.5195 295.055 71.5195C298.336 71.5195 301.529 70.6992 304.635 69.0586C307.799 67.3594 310.641 64.8691 313.16 61.5879C315.738 58.248 317.76 54.0586 319.225 49.0195C320.748 43.9805 321.51 38.1211 321.51 31.4414C321.51 26.2852 320.865 21.5098 319.576 17.1152C318.287 12.7207 316.207 9.20508 313.336 6.56836C310.523 3.87305 306.744 2.49609 301.998 2.4375C296.607 2.49609 291.979 4.45898 288.111 8.32617C284.303 12.1934 281.402 17.291 279.41 23.6191C277.418 29.8887 276.422 36.5977 276.422 43.7461Z" fill="white"/>
</svg>
