<svg width="789" height="209" viewBox="0 0 789 209" fill="none" xmlns="http://www.w3.org/2000/svg">
<path d="M9.12 14.96L30 14.96C41.16 14.96 50.88 16.16 59.76 22.76C69.48 30.08 75.12 41.72 75.12 55.04C75.12 68.36 69.6 79.88 59.04 87.32C49.68 93.92 40.92 95 29.76 95H9.12L9.12 14.96ZM24.72 28.4L24.72 81.56H29.52C33.48 81.56 42.12 81.32 49.08 76.28C55.44 71.72 59.04 63.56 59.04 55.04C59.04 46.64 55.56 38.48 49.2 33.68C42.72 28.88 34.8 28.4 29.52 28.4L24.72 28.4ZM87.1106 14.96L110.271 14.96C121.311 14.96 126.951 17.84 130.671 20.96C136.791 26.12 138.591 32.96 138.591 38.96C138.591 46.76 135.471 53.6 129.231 57.8C127.191 59.24 124.311 60.56 120.471 61.28L145.431 95H125.991L104.631 62.84H102.711V95H87.1106V14.96ZM102.711 27.68V51.8H107.151C110.151 51.8 122.511 51.44 122.511 39.68C122.511 27.8 110.271 27.68 107.391 27.68H102.711ZM192.497 13.16C217.697 13.16 235.217 30.68 235.217 55.04C235.217 79.4 217.697 96.8 192.497 96.8C167.297 96.8 149.777 79.4 149.777 55.04C149.777 30.68 167.297 13.16 192.497 13.16ZM192.497 82.64C208.097 82.64 219.137 71.24 219.137 55.04C219.137 38.84 208.097 27.32 192.497 27.32C176.897 27.32 165.857 38.84 165.857 55.04C165.857 71.24 176.897 82.64 192.497 82.64ZM247.193 14.96H270.473C279.473 14.96 285.713 15.92 291.593 21.08C298.073 26.84 299.753 34.64 299.753 40.4C299.753 43.52 299.273 52.16 293.153 58.28C288.713 62.72 282.113 65.36 272.873 65.36H262.793V95H247.193V14.96ZM262.793 28.4V51.92H269.153C272.153 51.92 275.993 51.92 279.353 49.4C282.233 47.12 283.673 43.52 283.673 40.04C283.673 35.6 281.513 32.6 279.233 30.92C275.993 28.64 271.913 28.4 268.193 28.4H262.793ZM305.775 74.12V60.68H336.975V74.12H305.775ZM409.256 95L402.176 78.2H369.896L362.816 95L345.896 95L380.336 14.96L392.576 14.96L426.056 95H409.256ZM374.816 65.48H397.616L386.216 36.68L374.816 65.48ZM448.601 95H433.001V14.96H443.801L492.521 68.36V14.96L508.121 14.96V95H497.321L448.601 41.48V95ZM524 14.96L544.88 14.96C556.04 14.96 565.76 16.16 574.64 22.76C584.36 30.08 590 41.72 590 55.04C590 68.36 584.48 79.88 573.92 87.32C564.56 93.92 555.8 95 544.64 95H524V14.96ZM539.6 28.4V81.56H544.4C548.36 81.56 557 81.32 563.96 76.28C570.32 71.72 573.92 63.56 573.92 55.04C573.92 46.64 570.44 38.48 564.08 33.68C557.6 28.88 549.68 28.4 544.4 28.4H539.6Z" fill="black"/>
<path d="M488 175.12V161.68H519.2V175.12H488ZM579.482 123.52L571.322 134.2C566.642 127.96 561.122 127.36 558.242 127.36C549.842 127.36 547.202 132.64 547.202 136.72C547.202 138.64 547.802 140.44 549.722 142.12C551.642 143.92 554.282 144.88 559.322 146.68C565.562 148.84 571.442 151 575.522 154.72C579.122 157.96 582.362 163.36 582.362 171.52C582.362 187.12 571.082 197.8 554.522 197.8C539.762 197.8 531.122 188.8 526.922 182.68L537.122 172.96C540.962 180.76 548.282 183.64 553.922 183.64C561.002 183.64 566.282 179.32 566.282 172.6C566.282 169.72 565.322 167.44 563.162 165.4C560.162 162.64 555.362 161.08 550.802 159.52C546.602 158.08 541.562 156.16 537.482 152.56C534.842 150.28 531.122 145.84 531.122 137.68C531.122 125.92 539.042 114.16 556.802 114.16C561.842 114.16 571.322 115.12 579.482 123.52ZM635.692 129.4H617.692V196H602.092V129.4H584.092V115.96L635.692 115.96V129.4ZM678.542 114.16C703.742 114.16 721.262 131.68 721.262 156.04C721.262 180.4 703.742 197.8 678.542 197.8C653.342 197.8 635.822 180.4 635.822 156.04C635.822 131.68 653.342 114.16 678.542 114.16ZM678.542 183.64C694.142 183.64 705.182 172.24 705.182 156.04C705.182 139.84 694.142 128.32 678.542 128.32C662.942 128.32 651.902 139.84 651.902 156.04C651.902 172.24 662.942 183.64 678.542 183.64ZM733.239 115.96H756.519C765.519 115.96 771.759 116.92 777.639 122.08C784.119 127.84 785.799 135.64 785.799 141.4C785.799 144.52 785.319 153.16 779.199 159.28C774.759 163.72 768.159 166.36 758.919 166.36H748.839V196H733.239V115.96ZM748.839 129.4V152.92H755.199C758.199 152.92 762.039 152.92 765.399 150.4C768.279 148.12 769.719 144.52 769.719 141.04C769.719 136.6 767.559 133.6 765.279 131.92C762.039 129.64 757.959 129.4 754.239 129.4H748.839Z" fill="black"/>
</svg>
