<svg width="1054" height="91" viewBox="0 0 1054 91" fill="none" xmlns="http://www.w3.org/2000/svg">
<mask id="path-1-outside-1_427_575" maskUnits="userSpaceOnUse" x="-1" y="-1" width="1056" height="93" fill="black">
<rect fill="white" x="-1" y="-1" width="1056" height="93"/>
<path d="M46.9 2.28999V16.85H17.78V36.22H45.08V50.78H17.78V89H0.880001V2.28999H46.9ZM58.8366 2.28999H75.7366V74.44H102.517V89H58.8366V2.28999ZM173.401 89L165.731 70.8H130.761L123.091 89H104.761L142.071 2.28999H155.331L191.601 89H173.401ZM136.091 57.02H160.791L148.441 25.82L136.091 57.02ZM241.482 16.85H221.982V89H205.082V16.85H185.582V2.28999H241.482V16.85ZM328.813 10.48L319.973 22.05C314.903 15.29 308.923 14.64 305.803 14.64C296.703 14.64 293.843 20.36 293.843 24.78C293.843 26.86 294.493 28.81 296.573 30.63C298.653 32.58 301.513 33.62 306.973 35.57C313.733 37.91 320.103 40.25 324.523 44.28C328.423 47.79 331.933 53.64 331.933 62.48C331.933 79.38 319.713 90.95 301.773 90.95C285.783 90.95 276.423 81.2 271.873 74.57L282.923 64.04C287.083 72.49 295.013 75.61 301.123 75.61C308.793 75.61 314.513 70.93 314.513 63.65C314.513 60.53 313.473 58.06 311.133 55.85C307.883 52.86 302.683 51.17 297.743 49.48C293.193 47.92 287.733 45.84 283.313 41.94C280.453 39.47 276.423 34.66 276.423 25.82C276.423 13.08 285.003 0.339995 304.243 0.339995C309.703 0.339995 319.973 1.38 328.813 10.48ZM344.176 2.28999H361.076V56.76C361.076 63.39 363.286 67.42 365.236 69.63C367.706 72.62 372.256 75.61 379.016 75.61C385.776 75.61 390.326 72.62 392.796 69.63C394.746 67.42 396.956 63.39 396.956 56.76V2.28999H413.856V55.33C413.856 63.52 412.556 71.84 407.356 78.47C401.116 86.66 390.196 90.95 379.016 90.95C367.836 90.95 356.916 86.66 350.676 78.47C345.476 71.84 344.176 63.52 344.176 55.33V2.28999ZM431.078 2.28999H456.168C468.128 2.28999 474.238 5.41 478.268 8.78999C484.898 14.38 486.848 21.79 486.848 28.29C486.848 36.74 483.468 44.15 476.708 48.7C474.498 50.26 471.378 51.69 467.218 52.47L494.258 89H473.198L450.058 54.16H447.978V89H431.078V2.28999ZM447.978 16.07V42.2H452.788C456.038 42.2 469.428 41.81 469.428 29.07C469.428 16.2 456.168 16.07 453.048 16.07H447.978ZM549.147 2.28999V16.85H520.027V36.22H547.327V50.78H520.027V89H503.127V2.28999H549.147ZM610.455 89L602.785 70.8H567.815L560.145 89H541.815L579.125 2.28999H592.385L628.655 89H610.455ZM573.145 57.02H597.845L585.495 25.82L573.145 57.02ZM696.306 66.12V85.88C691.106 88.61 684.216 90.95 674.856 90.95C659.646 90.95 650.416 85.75 643.136 78.86C633.126 69.24 629.226 58.45 629.226 45.71C629.226 29.98 635.726 18.67 643.136 11.78C651.846 3.59 662.636 0.339995 674.986 0.339995C681.096 0.339995 688.376 1.38 696.306 5.67V25.43C688.376 16.33 678.496 15.68 675.376 15.68C657.956 15.68 646.646 29.98 646.646 45.97C646.646 65.21 661.466 75.61 676.026 75.61C684.086 75.61 691.236 72.1 696.306 66.12ZM757.343 2.28999V16.85H726.143V36.22H756.043V50.78H726.143V74.44H757.343V89H709.243V2.28999H757.343ZM844.897 2.28999V16.85H815.777V36.22H843.077V50.78H815.777V89H798.877V2.28999H844.897ZM906.205 89L898.535 70.8H863.565L855.895 89H837.565L874.875 2.28999H888.135L924.405 89H906.205ZM868.895 57.02H893.595L881.245 25.82L868.895 57.02ZM992.056 66.12V85.88C986.856 88.61 979.966 90.95 970.606 90.95C955.396 90.95 946.166 85.75 938.886 78.86C928.876 69.24 924.976 58.45 924.976 45.71C924.976 29.98 931.476 18.67 938.886 11.78C947.596 3.59 958.386 0.339995 970.736 0.339995C976.846 0.339995 984.126 1.38 992.056 5.67V25.43C984.126 16.33 974.246 15.68 971.126 15.68C953.706 15.68 942.396 29.98 942.396 45.97C942.396 65.21 957.216 75.61 971.776 75.61C979.836 75.61 986.986 72.1 992.056 66.12ZM1053.09 2.28999V16.85H1021.89V36.22H1051.79V50.78H1021.89V74.44H1053.09V89H1004.99V2.28999H1053.09Z"/>
</mask>
<path d="M46.9 2.28999H47.9V1.28999H46.9V2.28999ZM46.9 16.85V17.85H47.9V16.85H46.9ZM17.78 16.85V15.85H16.78V16.85H17.78ZM17.78 36.22H16.78V37.22H17.78V36.22ZM45.08 36.22H46.08V35.22H45.08V36.22ZM45.08 50.78V51.78H46.08V50.78H45.08ZM17.78 50.78V49.78H16.78V50.78H17.78ZM17.78 89V90H18.78V89H17.78ZM0.880001 89H-0.119999V90H0.880001V89ZM0.880001 2.28999V1.28999H-0.119999V2.28999H0.880001ZM45.9 2.28999V16.85H47.9V2.28999H45.9ZM46.9 15.85H17.78V17.85H46.9V15.85ZM16.78 16.85V36.22H18.78V16.85H16.78ZM17.78 37.22H45.08V35.22H17.78V37.22ZM44.08 36.22V50.78H46.08V36.22H44.08ZM45.08 49.78H17.78V51.78H45.08V49.78ZM16.78 50.78V89H18.78V50.78H16.78ZM17.78 88H0.880001V90H17.78V88ZM1.88 89V2.28999H-0.119999V89H1.88ZM0.880001 3.28999H46.9V1.28999H0.880001V3.28999ZM58.8366 2.28999V1.28999H57.8366V2.28999H58.8366ZM75.7366 2.28999H76.7366V1.28999H75.7366V2.28999ZM75.7366 74.44H74.7366V75.44H75.7366V74.44ZM102.517 74.44H103.517V73.44H102.517V74.44ZM102.517 89V90H103.517V89H102.517ZM58.8366 89H57.8366V90H58.8366V89ZM58.8366 3.28999H75.7366V1.28999H58.8366V3.28999ZM74.7366 2.28999V74.44H76.7366V2.28999H74.7366ZM75.7366 75.44H102.517V73.44H75.7366V75.44ZM101.517 74.44V89H103.517V74.44H101.517ZM102.517 88H58.8366V90H102.517V88ZM59.8366 89V2.28999H57.8366V89H59.8366ZM173.401 89L172.48 89.3884L172.737 90H173.401V89ZM165.731 70.8L166.653 70.4117L166.395 69.8H165.731V70.8ZM130.761 70.8V69.8H130.097L129.84 70.4117L130.761 70.8ZM123.091 89V90H123.755L124.013 89.3884L123.091 89ZM104.761 89L103.843 88.6048L103.242 90H104.761V89ZM142.071 2.28999V1.28999H141.413L141.153 1.89474L142.071 2.28999ZM155.331 2.28999L156.254 1.9041L155.997 1.28999H155.331V2.28999ZM191.601 89V90H193.103L192.524 88.6141L191.601 89ZM136.091 57.02L135.161 56.6519L134.62 58.02H136.091V57.02ZM160.791 57.02V58.02H162.262L161.721 56.6519L160.791 57.02ZM148.441 25.82L149.371 25.452L148.441 23.103L147.511 25.452L148.441 25.82ZM174.323 88.6116L166.653 70.4117L164.81 71.1884L172.48 89.3884L174.323 88.6116ZM165.731 69.8H130.761V71.8H165.731V69.8ZM129.84 70.4117L122.17 88.6116L124.013 89.3884L131.683 71.1884L129.84 70.4117ZM123.091 88H104.761V90H123.091V88ZM105.68 89.3952L142.99 2.68524L141.153 1.89474L103.843 88.6048L105.68 89.3952ZM142.071 3.28999H155.331V1.28999H142.071V3.28999ZM154.409 2.67588L190.679 89.3859L192.524 88.6141L156.254 1.9041L154.409 2.67588ZM191.601 88H173.401V90H191.601V88ZM136.091 58.02H160.791V56.02H136.091V58.02ZM161.721 56.6519L149.371 25.452L147.511 26.188L159.861 57.388L161.721 56.6519ZM147.511 25.452L135.161 56.6519L137.021 57.388L149.371 26.188L147.511 25.452ZM241.482 16.85V17.85H242.482V16.85H241.482ZM221.982 16.85V15.85H220.982V16.85H221.982ZM221.982 89V90H222.982V89H221.982ZM205.082 89H204.082V90H205.082V89ZM205.082 16.85H206.082V15.85H205.082V16.85ZM185.582 16.85H184.582V17.85H185.582V16.85ZM185.582 2.28999V1.28999H184.582V2.28999H185.582ZM241.482 2.28999H242.482V1.28999H241.482V2.28999ZM241.482 15.85H221.982V17.85H241.482V15.85ZM220.982 16.85V89H222.982V16.85H220.982ZM221.982 88H205.082V90H221.982V88ZM206.082 89V16.85H204.082V89H206.082ZM205.082 15.85H185.582V17.85H205.082V15.85ZM186.582 16.85V2.28999H184.582V16.85H186.582ZM185.582 3.28999H241.482V1.28999H185.582V3.28999ZM240.482 2.28999V16.85H242.482V2.28999H240.482ZM328.813 10.48L329.608 11.0871L330.131 10.4018L329.53 9.78321L328.813 10.48ZM319.973 22.05L319.173 22.65L319.966 23.7068L320.768 22.6571L319.973 22.05ZM296.573 30.63L297.257 29.9005L297.245 29.8887L297.232 29.8774L296.573 30.63ZM306.973 35.57L306.637 36.5118L306.646 36.515L306.973 35.57ZM324.523 44.28L323.849 45.019L323.854 45.0233L324.523 44.28ZM271.873 74.57L271.183 73.8461L270.567 74.4336L271.049 75.1358L271.873 74.57ZM282.923 64.04L283.82 63.5983L283.219 62.3768L282.233 63.3161L282.923 64.04ZM311.133 55.85L311.82 55.1229L311.81 55.1141L311.133 55.85ZM297.743 49.48L297.419 50.4259L297.419 50.4262L297.743 49.48ZM283.313 41.94L283.975 41.1901L283.967 41.1832L283.313 41.94ZM328.019 9.87288L319.179 21.4429L320.768 22.6571L329.608 11.0871L328.019 9.87288ZM320.773 21.45C315.446 14.3474 309.104 13.64 305.803 13.64V15.64C308.742 15.64 314.36 16.2326 319.173 22.65L320.773 21.45ZM305.803 13.64C301.032 13.64 297.757 15.1474 295.68 17.3698C293.622 19.5727 292.843 22.3692 292.843 24.78H294.843C294.843 22.7708 295.495 20.4973 297.141 18.7352C298.77 16.9926 301.474 15.64 305.803 15.64V13.64ZM292.843 24.78C292.843 27.1229 293.599 29.3565 295.915 31.3826L297.232 29.8774C295.387 28.2635 294.843 26.5971 294.843 24.78H292.843ZM295.889 31.3595C298.156 33.4843 301.254 34.5895 306.637 36.5117L307.309 34.6283C301.772 32.6505 299.151 31.6757 297.257 29.9005L295.889 31.3595ZM306.646 36.515C313.444 38.8681 319.608 41.1514 323.849 45.019L325.197 43.541C320.599 39.3486 314.022 36.9519 307.3 34.625L306.646 36.515ZM323.854 45.0233C327.551 48.3508 330.933 53.934 330.933 62.48H332.933C332.933 53.346 329.295 47.2292 325.192 43.5367L323.854 45.0233ZM330.933 62.48C330.933 70.6788 327.975 77.5253 322.894 82.3256C317.808 87.1303 310.527 89.95 301.773 89.95V91.95C310.96 91.95 318.758 88.9847 324.267 83.7794C329.781 78.5697 332.933 71.1812 332.933 62.48H330.933ZM301.773 89.95C286.252 89.95 277.157 80.502 272.698 74.0042L271.049 75.1358C275.689 81.898 285.314 91.95 301.773 91.95V89.95ZM272.563 75.2939L283.613 64.7639L282.233 63.3161L271.183 73.8461L272.563 75.2939ZM282.026 64.4817C286.384 73.3339 294.704 76.61 301.123 76.61V74.61C295.322 74.61 287.782 71.646 283.82 63.5983L282.026 64.4817ZM301.123 76.61C305.157 76.61 308.751 75.3784 311.351 73.1142C313.964 70.839 315.513 67.5711 315.513 63.65H313.513C313.513 67.0089 312.202 69.721 310.038 71.6058C307.86 73.5016 304.759 74.61 301.123 74.61V76.61ZM315.513 63.65C315.513 60.2557 314.36 57.5225 311.82 55.123L310.447 56.577C312.586 58.5975 313.513 60.8043 313.513 63.65H315.513ZM311.81 55.1141C310.067 53.51 307.838 52.2869 305.47 51.26C303.101 50.233 300.521 49.3735 298.067 48.5338L297.419 50.4262C299.905 51.2765 302.395 52.107 304.674 53.095C306.953 54.0831 308.95 55.2 310.456 56.5859L311.81 55.1141ZM298.067 48.534C293.525 46.9767 288.234 44.948 283.975 41.1902L282.651 42.6898C287.233 46.732 292.861 48.8633 297.419 50.4259L298.067 48.534ZM283.967 41.1832C281.266 38.8508 277.423 34.2979 277.423 25.82H275.423C275.423 35.0221 279.64 40.0892 282.66 42.6968L283.967 41.1832ZM277.423 25.82C277.423 19.6681 279.494 13.5575 283.842 8.99215C288.177 4.44028 294.856 1.34 304.243 1.34V-0.660004C294.39 -0.660004 287.159 2.60971 282.394 7.61284C277.642 12.6025 275.423 19.2319 275.423 25.82H277.423ZM304.243 1.34C309.576 1.34 319.525 2.35354 328.096 11.1768L329.53 9.78321C320.422 0.406456 309.83 -0.660004 304.243 -0.660004V1.34ZM344.176 2.28999V1.28999H343.176V2.28999H344.176ZM361.076 2.28999H362.076V1.28999H361.076V2.28999ZM365.236 69.63L366.007 68.9931L365.997 68.9806L365.986 68.9684L365.236 69.63ZM392.796 69.63L392.047 68.9684L392.036 68.9806L392.026 68.9931L392.796 69.63ZM396.956 2.28999V1.28999H395.956V2.28999H396.956ZM413.856 2.28999H414.856V1.28999H413.856V2.28999ZM407.356 78.47L406.57 77.8528L406.561 77.864L407.356 78.47ZM350.676 78.47L351.472 77.8639L351.463 77.8529L350.676 78.47ZM344.176 3.28999H361.076V1.28999H344.176V3.28999ZM360.076 2.28999V56.76H362.076V2.28999H360.076ZM360.076 56.76C360.076 63.6322 362.374 67.8978 364.487 70.2916L365.986 68.9684C364.198 66.9422 362.076 63.1478 362.076 56.76H360.076ZM364.466 70.2669C367.111 73.4696 371.937 76.61 379.016 76.61V74.61C372.576 74.61 368.302 71.7704 366.007 68.9931L364.466 70.2669ZM379.016 76.61C386.096 76.61 390.922 73.4696 393.567 70.2669L392.026 68.9931C389.731 71.7704 385.457 74.61 379.016 74.61V76.61ZM393.546 70.2916C395.659 67.8978 397.956 63.6322 397.956 56.76H395.956C395.956 63.1478 393.834 66.9422 392.047 68.9684L393.546 70.2916ZM397.956 56.76V2.28999H395.956V56.76H397.956ZM396.956 3.28999H413.856V1.28999H396.956V3.28999ZM412.856 2.28999V55.33H414.856V2.28999H412.856ZM412.856 55.33C412.856 63.4387 411.564 71.4853 406.57 77.8529L408.143 79.0871C413.549 72.1947 414.856 63.6013 414.856 55.33H412.856ZM406.561 77.864C400.558 85.743 389.973 89.95 379.016 89.95V91.95C390.42 91.95 401.675 87.577 408.152 79.076L406.561 77.864ZM379.016 89.95C368.06 89.95 357.475 85.743 351.472 77.864L349.881 79.076C356.358 87.577 367.613 91.95 379.016 91.95V89.95ZM351.463 77.8529C346.469 71.4853 345.176 63.4387 345.176 55.33H343.176C343.176 63.6013 344.484 72.1947 349.89 79.0871L351.463 77.8529ZM345.176 55.33V2.28999H343.176V55.33H345.176ZM431.078 2.28999V1.28999H430.078V2.28999H431.078ZM478.268 8.78999L478.913 8.02547L478.911 8.0238L478.268 8.78999ZM476.708 48.7L476.15 47.8704L476.141 47.8766L476.132 47.883L476.708 48.7ZM467.218 52.47L467.034 51.4871L465.465 51.7814L466.415 53.0649L467.218 52.47ZM494.258 89V90H496.243L495.062 88.405L494.258 89ZM473.198 89L472.365 89.5533L472.662 90H473.198V89ZM450.058 54.16L450.891 53.6067L450.595 53.16H450.058V54.16ZM447.978 54.16V53.16H446.978V54.16H447.978ZM447.978 89V90H448.978V89H447.978ZM431.078 89H430.078V90H431.078V89ZM447.978 16.07V15.07H446.978V16.07H447.978ZM447.978 42.2H446.978V43.2H447.978V42.2ZM431.078 3.28999H456.168V1.28999H431.078V3.28999ZM456.168 3.28999C467.923 3.28999 473.797 6.34521 477.626 9.55619L478.911 8.0238C474.68 4.47478 468.334 1.28999 456.168 1.28999V3.28999ZM477.624 9.55452C483.963 14.8996 485.848 21.9873 485.848 28.29H487.848C487.848 21.5927 485.834 13.8604 478.913 8.02547L477.624 9.55452ZM485.848 28.29C485.848 36.4647 482.589 43.5362 476.15 47.8704L477.267 49.5296C484.347 44.7638 487.848 37.0153 487.848 28.29H485.848ZM476.132 47.883C474.049 49.3533 471.065 50.7313 467.034 51.4871L467.403 53.4529C471.692 52.6487 474.948 51.1667 477.285 49.517L476.132 47.883ZM466.415 53.0649L493.455 89.595L495.062 88.405L468.022 51.875L466.415 53.0649ZM494.258 88H473.198V90H494.258V88ZM474.031 88.4467L450.891 53.6067L449.225 54.7133L472.365 89.5533L474.031 88.4467ZM450.058 53.16H447.978V55.16H450.058V53.16ZM446.978 54.16V89H448.978V54.16H446.978ZM447.978 88H431.078V90H447.978V88ZM432.078 89V2.28999H430.078V89H432.078ZM446.978 16.07V42.2H448.978V16.07H446.978ZM447.978 43.2H452.788V41.2H447.978V43.2ZM452.788 43.2C454.435 43.2 458.778 43.107 462.738 41.3243C464.732 40.4266 466.665 39.0843 468.099 37.0776C469.539 35.0619 470.428 32.4403 470.428 29.07H468.428C468.428 32.0697 467.644 34.2743 466.472 35.9149C465.293 37.5644 463.676 38.7084 461.917 39.5006C458.369 41.098 454.392 41.2 452.788 41.2V43.2ZM470.428 29.07C470.428 25.6717 469.55 23.0422 468.124 21.0308C466.703 19.0272 464.787 17.7036 462.813 16.8294C458.898 15.0951 454.614 15.07 453.048 15.07V17.07C454.603 17.07 458.509 17.1099 462.003 18.6581C463.735 19.4251 465.329 20.5472 466.492 22.1876C467.65 23.8203 468.428 26.0333 468.428 29.07H470.428ZM453.048 15.07H447.978V17.07H453.048V15.07ZM549.147 2.28999H550.147V1.28999H549.147V2.28999ZM549.147 16.85V17.85H550.147V16.85H549.147ZM520.027 16.85V15.85H519.027V16.85H520.027ZM520.027 36.22H519.027V37.22H520.027V36.22ZM547.327 36.22H548.327V35.22H547.327V36.22ZM547.327 50.78V51.78H548.327V50.78H547.327ZM520.027 50.78V49.78H519.027V50.78H520.027ZM520.027 89V90H521.027V89H520.027ZM503.127 89H502.127V90H503.127V89ZM503.127 2.28999V1.28999H502.127V2.28999H503.127ZM548.147 2.28999V16.85H550.147V2.28999H548.147ZM549.147 15.85H520.027V17.85H549.147V15.85ZM519.027 16.85V36.22H521.027V16.85H519.027ZM520.027 37.22H547.327V35.22H520.027V37.22ZM546.327 36.22V50.78H548.327V36.22H546.327ZM547.327 49.78H520.027V51.78H547.327V49.78ZM519.027 50.78V89H521.027V50.78H519.027ZM520.027 88H503.127V90H520.027V88ZM504.127 89V2.28999H502.127V89H504.127ZM503.127 3.28999H549.147V1.28999H503.127V3.28999ZM610.455 89L609.534 89.3884L609.791 90H610.455V89ZM602.785 70.8L603.707 70.4117L603.449 69.8H602.785V70.8ZM567.815 70.8V69.8H567.151L566.894 70.4117L567.815 70.8ZM560.145 89V90H560.809L561.067 89.3884L560.145 89ZM541.815 89L540.896 88.6048L540.296 90H541.815V89ZM579.125 2.28999V1.28999H578.467L578.206 1.89474L579.125 2.28999ZM592.385 2.28999L593.308 1.9041L593.051 1.28999H592.385V2.28999ZM628.655 89V90H630.157L629.578 88.6141L628.655 89ZM573.145 57.02L572.215 56.6519L571.674 58.02H573.145V57.02ZM597.845 57.02V58.02H599.316L598.775 56.6519L597.845 57.02ZM585.495 25.82L586.425 25.452L585.495 23.103L584.565 25.452L585.495 25.82ZM611.377 88.6116L603.707 70.4117L601.864 71.1884L609.534 89.3884L611.377 88.6116ZM602.785 69.8H567.815V71.8H602.785V69.8ZM566.894 70.4117L559.224 88.6116L561.067 89.3884L568.737 71.1884L566.894 70.4117ZM560.145 88H541.815V90H560.145V88ZM542.734 89.3952L580.044 2.68524L578.206 1.89474L540.896 88.6048L542.734 89.3952ZM579.125 3.28999H592.385V1.28999H579.125V3.28999ZM591.463 2.67588L627.732 89.3859L629.578 88.6141L593.308 1.9041L591.463 2.67588ZM628.655 88H610.455V90H628.655V88ZM573.145 58.02H597.845V56.02H573.145V58.02ZM598.775 56.6519L586.425 25.452L584.565 26.188L596.915 57.388L598.775 56.6519ZM584.565 25.452L572.215 56.6519L574.075 57.388L586.425 26.188L584.565 25.452ZM696.306 66.12H697.306V63.3942L695.543 65.4733L696.306 66.12ZM696.306 85.88L696.771 86.7654L697.306 86.4844V85.88H696.306ZM643.136 78.86L642.443 79.581L642.448 79.5863L643.136 78.86ZM643.136 11.78L643.817 12.5123L643.821 12.5085L643.136 11.78ZM696.306 5.66999H697.306V5.07402L696.782 4.79045L696.306 5.66999ZM696.306 25.43L695.552 26.087L697.306 28.0997V25.43H696.306ZM695.306 66.12V85.88H697.306V66.12H695.306ZM695.841 84.9946C690.767 87.6585 684.035 89.95 674.856 89.95V91.95C684.396 91.95 691.445 89.5615 696.771 86.7654L695.841 84.9946ZM674.856 89.95C659.93 89.95 650.94 84.8688 643.823 78.1337L642.448 79.5863C649.892 86.6312 659.361 91.95 674.856 91.95V89.95ZM643.829 78.139C634.033 68.7248 630.226 58.2038 630.226 45.71H628.226C628.226 58.6962 632.219 69.7552 642.443 79.581L643.829 78.139ZM630.226 45.71C630.226 30.2764 636.596 19.2261 643.817 12.5123L642.455 11.0477C634.855 18.1139 628.226 29.6836 628.226 45.71H630.226ZM643.821 12.5085C652.301 4.53506 662.821 1.34 674.986 1.34V-0.660004C662.45 -0.660004 651.391 2.64493 642.451 11.0515L643.821 12.5085ZM674.986 1.34C680.972 1.34 688.079 2.35637 695.83 6.54954L696.782 4.79045C688.673 0.403625 681.22 -0.660004 674.986 -0.660004V1.34ZM695.306 5.66999V25.43H697.306V5.66999H695.306ZM697.06 24.773C688.853 15.3557 678.62 14.68 675.376 14.68V16.68C678.372 16.68 687.898 17.3043 695.552 26.087L697.06 24.773ZM675.376 14.68C657.305 14.68 645.646 29.5317 645.646 45.97H647.646C647.646 30.4283 658.607 16.68 675.376 16.68V14.68ZM645.646 45.97C645.646 65.853 661.009 76.61 676.026 76.61V74.61C661.923 74.61 647.646 64.567 647.646 45.97H645.646ZM676.026 76.61C684.392 76.61 691.817 72.9608 697.069 66.7667L695.543 65.4733C690.655 71.2392 683.779 74.61 676.026 74.61V76.61ZM757.343 2.28999H758.343V1.28999H757.343V2.28999ZM757.343 16.85V17.85H758.343V16.85H757.343ZM726.143 16.85V15.85H725.143V16.85H726.143ZM726.143 36.22H725.143V37.22H726.143V36.22ZM756.043 36.22H757.043V35.22H756.043V36.22ZM756.043 50.78V51.78H757.043V50.78H756.043ZM726.143 50.78V49.78H725.143V50.78H726.143ZM726.143 74.44H725.143V75.44H726.143V74.44ZM757.343 74.44H758.343V73.44H757.343V74.44ZM757.343 89V90H758.343V89H757.343ZM709.243 89H708.243V90H709.243V89ZM709.243 2.28999V1.28999H708.243V2.28999H709.243ZM756.343 2.28999V16.85H758.343V2.28999H756.343ZM757.343 15.85H726.143V17.85H757.343V15.85ZM725.143 16.85V36.22H727.143V16.85H725.143ZM726.143 37.22H756.043V35.22H726.143V37.22ZM755.043 36.22V50.78H757.043V36.22H755.043ZM756.043 49.78H726.143V51.78H756.043V49.78ZM725.143 50.78V74.44H727.143V50.78H725.143ZM726.143 75.44H757.343V73.44H726.143V75.44ZM756.343 74.44V89H758.343V74.44H756.343ZM757.343 88H709.243V90H757.343V88ZM710.243 89V2.28999H708.243V89H710.243ZM709.243 3.28999H757.343V1.28999H709.243V3.28999ZM844.897 2.28999H845.897V1.28999H844.897V2.28999ZM844.897 16.85V17.85H845.897V16.85H844.897ZM815.777 16.85V15.85H814.777V16.85H815.777ZM815.777 36.22H814.777V37.22H815.777V36.22ZM843.077 36.22H844.077V35.22H843.077V36.22ZM843.077 50.78V51.78H844.077V50.78H843.077ZM815.777 50.78V49.78H814.777V50.78H815.777ZM815.777 89V90H816.777V89H815.777ZM798.877 89H797.877V90H798.877V89ZM798.877 2.28999V1.28999H797.877V2.28999H798.877ZM843.897 2.28999V16.85H845.897V2.28999H843.897ZM844.897 15.85H815.777V17.85H844.897V15.85ZM814.777 16.85V36.22H816.777V16.85H814.777ZM815.777 37.22H843.077V35.22H815.777V37.22ZM842.077 36.22V50.78H844.077V36.22H842.077ZM843.077 49.78H815.777V51.78H843.077V49.78ZM814.777 50.78V89H816.777V50.78H814.777ZM815.777 88H798.877V90H815.777V88ZM799.877 89V2.28999H797.877V89H799.877ZM798.877 3.28999H844.897V1.28999H798.877V3.28999ZM906.205 89L905.284 89.3884L905.541 90H906.205V89ZM898.535 70.8L899.457 70.4117L899.199 69.8H898.535V70.8ZM863.565 70.8V69.8H862.901L862.644 70.4117L863.565 70.8ZM855.895 89V90H856.559L856.817 89.3884L855.895 89ZM837.565 89L836.646 88.6048L836.046 90H837.565V89ZM874.875 2.28999V1.28999H874.217L873.956 1.89474L874.875 2.28999ZM888.135 2.28999L889.058 1.9041L888.801 1.28999H888.135V2.28999ZM924.405 89V90H925.907L925.328 88.6141L924.405 89ZM868.895 57.02L867.965 56.6519L867.424 58.02H868.895V57.02ZM893.595 57.02V58.02H895.066L894.525 56.6519L893.595 57.02ZM881.245 25.82L882.175 25.452L881.245 23.103L880.315 25.452L881.245 25.82ZM907.127 88.6116L899.457 70.4117L897.614 71.1884L905.284 89.3884L907.127 88.6116ZM898.535 69.8H863.565V71.8H898.535V69.8ZM862.644 70.4117L854.974 88.6116L856.817 89.3884L864.487 71.1884L862.644 70.4117ZM855.895 88H837.565V90H855.895V88ZM838.484 89.3952L875.794 2.68524L873.956 1.89474L836.646 88.6048L838.484 89.3952ZM874.875 3.28999H888.135V1.28999H874.875V3.28999ZM887.213 2.67588L923.482 89.3859L925.328 88.6141L889.058 1.9041L887.213 2.67588ZM924.405 88H906.205V90H924.405V88ZM868.895 58.02H893.595V56.02H868.895V58.02ZM894.525 56.6519L882.175 25.452L880.315 26.188L892.665 57.388L894.525 56.6519ZM880.315 25.452L867.965 56.6519L869.825 57.388L882.175 26.188L880.315 25.452ZM992.056 66.12H993.056V63.3942L991.293 65.4733L992.056 66.12ZM992.056 85.88L992.521 86.7654L993.056 86.4844V85.88H992.056ZM938.886 78.86L938.193 79.581L938.198 79.5863L938.886 78.86ZM938.886 11.78L939.567 12.5123L939.571 12.5085L938.886 11.78ZM992.056 5.66999H993.056V5.07402L992.532 4.79045L992.056 5.66999ZM992.056 25.43L991.302 26.087L993.056 28.0997V25.43H992.056ZM991.056 66.12V85.88H993.056V66.12H991.056ZM991.591 84.9946C986.517 87.6585 979.785 89.95 970.606 89.95V91.95C980.146 91.95 987.195 89.5615 992.521 86.7654L991.591 84.9946ZM970.606 89.95C955.68 89.95 946.69 84.8688 939.573 78.1337L938.198 79.5863C945.642 86.6312 955.111 91.95 970.606 91.95V89.95ZM939.579 78.139C929.783 68.7248 925.976 58.2038 925.976 45.71H923.976C923.976 58.6962 927.969 69.7552 938.193 79.581L939.579 78.139ZM925.976 45.71C925.976 30.2764 932.346 19.2261 939.567 12.5123L938.205 11.0477C930.605 18.1139 923.976 29.6836 923.976 45.71H925.976ZM939.571 12.5085C948.051 4.53506 958.571 1.34 970.736 1.34V-0.660004C958.2 -0.660004 947.141 2.64493 938.201 11.0515L939.571 12.5085ZM970.736 1.34C976.722 1.34 983.829 2.35637 991.58 6.54954L992.532 4.79045C984.423 0.403625 976.97 -0.660004 970.736 -0.660004V1.34ZM991.056 5.66999V25.43H993.056V5.66999H991.056ZM992.81 24.773C984.603 15.3557 974.37 14.68 971.126 14.68V16.68C974.122 16.68 983.648 17.3043 991.302 26.087L992.81 24.773ZM971.126 14.68C953.055 14.68 941.396 29.5317 941.396 45.97H943.396C943.396 30.4283 954.357 16.68 971.126 16.68V14.68ZM941.396 45.97C941.396 65.853 956.759 76.61 971.776 76.61V74.61C957.673 74.61 943.396 64.567 943.396 45.97H941.396ZM971.776 76.61C980.142 76.61 987.567 72.9608 992.819 66.7667L991.293 65.4733C986.405 71.2392 979.529 74.61 971.776 74.61V76.61ZM1053.09 2.28999H1054.09V1.28999H1053.09V2.28999ZM1053.09 16.85V17.85H1054.09V16.85H1053.09ZM1021.89 16.85V15.85H1020.89V16.85H1021.89ZM1021.89 36.22H1020.89V37.22H1021.89V36.22ZM1051.79 36.22H1052.79V35.22H1051.79V36.22ZM1051.79 50.78V51.78H1052.79V50.78H1051.79ZM1021.89 50.78V49.78H1020.89V50.78H1021.89ZM1021.89 74.44H1020.89V75.44H1021.89V74.44ZM1053.09 74.44H1054.09V73.44H1053.09V74.44ZM1053.09 89V90H1054.09V89H1053.09ZM1004.99 89H1003.99V90H1004.99V89ZM1004.99 2.28999V1.28999H1003.99V2.28999H1004.99ZM1052.09 2.28999V16.85H1054.09V2.28999H1052.09ZM1053.09 15.85H1021.89V17.85H1053.09V15.85ZM1020.89 16.85V36.22H1022.89V16.85H1020.89ZM1021.89 37.22H1051.79V35.22H1021.89V37.22ZM1050.79 36.22V50.78H1052.79V36.22H1050.79ZM1051.79 49.78H1021.89V51.78H1051.79V49.78ZM1020.89 50.78V74.44H1022.89V50.78H1020.89ZM1021.89 75.44H1053.09V73.44H1021.89V75.44ZM1052.09 74.44V89H1054.09V74.44H1052.09ZM1053.09 88H1004.99V90H1053.09V88ZM1005.99 89V2.28999H1003.99V89H1005.99ZM1004.99 3.28999H1053.09V1.28999H1004.99V3.28999Z" fill="white" mask="url(#path-1-outside-1_427_575)"/>
</svg>
