<svg width="200" height="217" viewBox="0 0 200 217" fill="none" xmlns="http://www.w3.org/2000/svg">
<path d="M130.414 160.973L130.121 160.533L158.246 116.734C163.422 108.727 166.547 102.379 167.621 97.6914C168.695 92.9062 168.061 89.4395 165.717 87.291C163.373 85.0449 159.564 83.6777 154.291 83.1895V83.043H199.115V83.1895C194.721 83.6777 190.766 84.9473 187.25 86.998C183.832 89.0488 180.121 92.418 176.117 97.1055C172.113 101.793 167.084 108.482 161.029 117.174L130.414 160.973ZM153.266 214L75.3359 118.932C63.1289 103.893 54.1934 91.2949 48.5293 81.1387C42.9629 70.9824 40.1797 60.9727 40.1797 51.1094C40.1797 42.125 42.2793 33.8242 46.4785 26.207C50.7754 18.4922 56.8301 12.291 64.6426 7.60352C72.5527 2.81836 81.9277 0.425781 92.7676 0.425781C103.51 0.425781 112.396 2.33008 119.428 6.13867C126.557 9.84961 131.879 14.6836 135.395 20.6406C138.91 26.5 140.668 32.7012 140.668 39.2441C140.668 45.2988 138.91 51.3535 135.395 57.4082C131.879 63.4629 126.02 69.4199 117.816 75.2793C109.711 81.1387 98.627 86.9004 84.5645 92.5645V92.418C94.2324 87.2422 102.582 79.6738 109.613 69.7129C116.645 59.752 120.16 48.9609 120.16 37.3398C120.16 27.4766 117.768 18.9316 112.982 11.7051C108.197 4.47852 101.459 0.865234 92.7676 0.865234C83.5879 0.865234 76.166 3.79492 70.502 9.6543C64.9355 15.5137 62.1523 24.2539 62.1523 35.875C62.1523 42.0273 63.1289 48.2773 65.082 54.625C67.1328 60.9727 70.4531 67.8574 75.043 75.2793C79.6328 82.7012 85.7852 91.1484 93.5 100.621L165.717 188.805C169.037 192.809 172.504 196.52 176.117 199.938C179.73 203.258 183.246 206.09 186.664 208.434C190.18 210.777 193.451 212.584 196.479 213.854V214H153.266ZM0.628906 166.539C0.628906 156.383 3.36328 146.959 8.83203 138.268C14.3984 129.479 22.1133 121.764 31.9766 115.123C41.9375 108.385 53.5098 103.062 66.6934 99.1562L66.5469 99.3027C64.2031 100.279 60.7852 101.988 56.293 104.43C51.8008 106.871 47.1621 110.24 42.377 114.537C37.5918 118.736 33.5391 124.01 30.2188 130.357C26.8984 136.705 25.2383 144.273 25.2383 153.062C25.2383 163.219 27.3379 172.105 31.5371 179.723C35.834 187.242 41.4004 193.053 48.2363 197.154C55.0723 201.256 62.3477 203.307 70.0625 203.307C77.582 203.307 84.7598 201.695 91.5957 198.473C98.4316 195.25 105.072 190.465 111.518 184.117C117.963 177.672 124.164 169.811 130.121 160.533L130.414 160.973C122.797 171.91 114.936 181.529 106.83 189.83C98.8223 198.131 90.5215 204.576 81.9277 209.166C73.334 213.756 64.3984 216.051 55.1211 216.051C44.5742 216.051 35.1992 213.805 26.9961 209.312C18.793 204.82 12.3477 198.863 7.66016 191.441C2.97266 183.922 0.628906 175.621 0.628906 166.539Z" fill="#E6E6E6"/>
</svg>
