<svg width="404" height="183" viewBox="0 0 404 183" fill="none" xmlns="http://www.w3.org/2000/svg">
<path d="M68.2828 3.866H64.7188V17H63.0908V3.866H59.5268V2.326H68.2828V3.866ZM68.4921 17V0.961999H70.0761V8.926C70.3621 8.552 71.1761 7.65 72.6941 7.65C73.7721 7.65 74.7621 8.09 75.3121 8.904C75.7741 9.586 75.8401 10.334 75.8401 11.346V17H74.2561V11.39C74.2561 10.84 74.2121 10.202 73.8381 9.718C73.5301 9.322 73.0461 9.058 72.3421 9.058C71.7921 9.058 71.1981 9.212 70.7361 9.762C70.1201 10.488 70.0761 11.566 70.0761 12.226V17H68.4921ZM85.3872 13.942L86.7072 14.668C86.4432 15.174 86.0472 15.724 85.5852 16.142C84.7492 16.89 83.7152 17.264 82.5492 17.264C80.3492 17.264 78.0392 15.878 78.0392 12.49C78.0392 9.762 79.7112 7.65 82.4612 7.65C84.2432 7.65 85.3652 8.53 85.9152 9.322C86.4872 10.136 86.8172 11.544 86.7732 12.754H79.6672C79.6892 14.646 80.9872 15.856 82.5712 15.856C83.3192 15.856 83.9132 15.636 84.4412 15.196C84.8592 14.844 85.1892 14.382 85.3872 13.942ZM79.7772 11.434H85.1452C84.8812 10.004 83.8032 9.058 82.4612 9.058C81.1192 9.058 80.0192 10.07 79.7772 11.434ZM102.588 4.372L101.29 5.23C101.092 4.834 100.762 4.394 100.432 4.13C100.146 3.91 99.6178 3.624 98.7818 3.624C97.3298 3.624 96.3178 4.526 96.3178 5.89C96.3178 6.462 96.4718 6.792 96.8678 7.166C97.3078 7.606 97.8578 7.848 98.4078 8.09L99.8158 8.706C100.674 9.08 101.466 9.476 102.082 10.092C102.83 10.84 103.138 11.698 103.138 12.754C103.138 15.46 101.136 17.264 98.4958 17.264C97.5278 17.264 96.3178 17.066 95.3058 16.076C94.5798 15.372 94.1398 14.36 93.9418 13.48L95.5258 13.04C95.6358 13.81 95.9878 14.47 96.4058 14.91C97.0438 15.548 97.7698 15.724 98.5178 15.724C100.52 15.724 101.466 14.294 101.466 12.82C101.466 12.16 101.268 11.588 100.74 11.104C100.322 10.708 99.7498 10.444 98.9798 10.092L97.6598 9.476C97.0878 9.212 96.3618 8.904 95.7018 8.266C95.0638 7.65 94.6898 6.968 94.6898 5.868C94.6898 3.602 96.4278 2.084 98.8038 2.084C99.7058 2.084 100.432 2.26 101.158 2.744C101.752 3.14 102.258 3.734 102.588 4.372ZM107.309 7.87V13.194C107.309 13.832 107.309 14.58 107.749 15.152C107.991 15.46 108.475 15.856 109.355 15.856C110.235 15.856 110.719 15.46 110.961 15.152C111.401 14.58 111.401 13.832 111.401 13.194V7.87H112.985V13.37C112.985 14.492 112.875 15.328 112.149 16.12C111.335 16.978 110.257 17.264 109.355 17.264C108.453 17.264 107.375 16.978 106.561 16.12C105.835 15.328 105.725 14.492 105.725 13.37V7.87H107.309ZM117.557 15.724V22.06H115.973V7.87H117.557V9.146C118.635 7.804 120.021 7.65 120.681 7.65C123.541 7.65 125.125 10.026 125.125 12.49C125.125 14.998 123.519 17.264 120.747 17.264C119.273 17.264 118.239 16.604 117.557 15.724ZM120.527 15.856C122.375 15.856 123.497 14.316 123.497 12.49C123.497 10.246 121.979 9.058 120.505 9.058C119.031 9.058 117.469 10.268 117.469 12.468C117.469 14.338 118.657 15.856 120.527 15.856ZM134.329 13.942L135.649 14.668C135.385 15.174 134.989 15.724 134.527 16.142C133.691 16.89 132.657 17.264 131.491 17.264C129.291 17.264 126.981 15.878 126.981 12.49C126.981 9.762 128.653 7.65 131.403 7.65C133.185 7.65 134.307 8.53 134.857 9.322C135.429 10.136 135.759 11.544 135.715 12.754H128.609C128.631 14.646 129.929 15.856 131.513 15.856C132.261 15.856 132.855 15.636 133.383 15.196C133.801 14.844 134.131 14.382 134.329 13.942ZM128.719 11.434H134.087C133.823 10.004 132.745 9.058 131.403 9.058C130.061 9.058 128.961 10.07 128.719 11.434ZM138.144 17V7.87H139.728V8.86C139.882 8.618 140.564 7.65 141.796 7.65C142.28 7.65 142.808 7.826 143.204 8.024L142.456 9.454C142.104 9.212 141.774 9.146 141.532 9.146C140.894 9.146 140.498 9.41 140.256 9.718C139.992 10.07 139.728 10.686 139.728 12.182V17H138.144ZM158.039 4.372L156.741 5.23C156.543 4.834 156.213 4.394 155.883 4.13C155.597 3.91 155.069 3.624 154.233 3.624C152.781 3.624 151.769 4.526 151.769 5.89C151.769 6.462 151.923 6.792 152.319 7.166C152.759 7.606 153.309 7.848 153.859 8.09L155.267 8.706C156.125 9.08 156.917 9.476 157.533 10.092C158.281 10.84 158.589 11.698 158.589 12.754C158.589 15.46 156.587 17.264 153.947 17.264C152.979 17.264 151.769 17.066 150.757 16.076C150.031 15.372 149.591 14.36 149.393 13.48L150.977 13.04C151.087 13.81 151.439 14.47 151.857 14.91C152.495 15.548 153.221 15.724 153.969 15.724C155.971 15.724 156.917 14.294 156.917 12.82C156.917 12.16 156.719 11.588 156.191 11.104C155.773 10.708 155.201 10.444 154.431 10.092L153.111 9.476C152.539 9.212 151.813 8.904 151.153 8.266C150.515 7.65 150.141 6.968 150.141 5.868C150.141 3.602 151.879 2.084 154.255 2.084C155.157 2.084 155.883 2.26 156.609 2.744C157.203 3.14 157.709 3.734 158.039 4.372ZM167.952 13.942L169.272 14.668C169.008 15.174 168.612 15.724 168.15 16.142C167.314 16.89 166.28 17.264 165.114 17.264C162.914 17.264 160.604 15.878 160.604 12.49C160.604 9.762 162.276 7.65 165.026 7.65C166.808 7.65 167.93 8.53 168.48 9.322C169.052 10.136 169.382 11.544 169.338 12.754H162.232C162.254 14.646 163.552 15.856 165.136 15.856C165.884 15.856 166.478 15.636 167.006 15.196C167.424 14.844 167.754 14.382 167.952 13.942ZM162.342 11.434H167.71C167.446 10.004 166.368 9.058 165.026 9.058C163.684 9.058 162.584 10.07 162.342 11.434ZM171.767 0.961999H173.351V17H171.767V0.961999ZM183.12 13.942L184.44 14.668C184.176 15.174 183.78 15.724 183.318 16.142C182.482 16.89 181.448 17.264 180.282 17.264C178.082 17.264 175.772 15.878 175.772 12.49C175.772 9.762 177.444 7.65 180.194 7.65C181.976 7.65 183.098 8.53 183.648 9.322C184.22 10.136 184.55 11.544 184.506 12.754H177.4C177.422 14.646 178.72 15.856 180.304 15.856C181.052 15.856 181.646 15.636 182.174 15.196C182.592 14.844 182.922 14.382 183.12 13.942ZM177.51 11.434H182.878C182.614 10.004 181.536 9.058 180.194 9.058C178.852 9.058 177.752 10.07 177.51 11.434ZM194.085 8.53V10.422C193.249 9.366 192.039 9.058 191.225 9.058C189.531 9.058 187.991 10.246 187.991 12.468C187.991 14.69 189.575 15.856 191.203 15.856C192.149 15.856 193.315 15.438 194.151 14.426V16.318C193.161 17.044 192.105 17.264 191.247 17.264C188.409 17.264 186.363 15.24 186.363 12.49C186.363 9.696 188.431 7.65 191.247 7.65C192.699 7.65 193.645 8.222 194.085 8.53ZM199.794 9.322H198.21V17H196.626V9.322H195.658V7.87H196.626V4.57H198.21V7.87H199.794V9.322ZM211.482 9.3L210.184 9.982C209.964 9.454 209.502 9.058 208.908 9.058C208.336 9.058 207.808 9.388 207.808 10.092C207.808 10.752 208.248 10.95 209.282 11.39C210.602 11.94 211.218 12.358 211.57 12.798C211.966 13.282 212.054 13.766 212.054 14.272C212.054 16.186 210.668 17.264 208.908 17.264C208.534 17.264 206.488 17.22 205.718 14.932L207.082 14.36C207.258 14.844 207.786 15.856 208.93 15.856C209.964 15.856 210.426 15.086 210.426 14.404C210.426 13.546 209.81 13.26 208.952 12.886C207.852 12.402 207.148 12.05 206.73 11.544C206.378 11.104 206.312 10.664 206.312 10.202C206.312 8.596 207.434 7.65 208.974 7.65C209.458 7.65 210.756 7.738 211.482 9.3ZM220.932 13.942L222.252 14.668C221.988 15.174 221.592 15.724 221.13 16.142C220.294 16.89 219.26 17.264 218.094 17.264C215.894 17.264 213.584 15.878 213.584 12.49C213.584 9.762 215.256 7.65 218.006 7.65C219.788 7.65 220.91 8.53 221.46 9.322C222.032 10.136 222.362 11.544 222.318 12.754H215.212C215.234 14.646 216.532 15.856 218.116 15.856C218.864 15.856 219.458 15.636 219.986 15.196C220.404 14.844 220.734 14.382 220.932 13.942ZM215.322 11.434H220.69C220.426 10.004 219.348 9.058 218.006 9.058C216.664 9.058 215.564 10.07 215.322 11.434ZM224.748 17V7.87H226.332V8.86C226.486 8.618 227.168 7.65 228.4 7.65C228.884 7.65 229.412 7.826 229.808 8.024L229.06 9.454C228.708 9.212 228.378 9.146 228.136 9.146C227.498 9.146 227.102 9.41 226.86 9.718C226.596 10.07 226.332 10.686 226.332 12.182V17H224.748ZM231.258 7.87H232.842V17H231.258V7.87ZM230.928 4.416C230.928 3.8 231.434 3.294 232.05 3.294C232.666 3.294 233.172 3.8 233.172 4.416C233.172 5.032 232.666 5.538 232.05 5.538C231.434 5.538 230.928 5.032 230.928 4.416ZM242.61 13.942L243.93 14.668C243.666 15.174 243.27 15.724 242.808 16.142C241.972 16.89 240.938 17.264 239.772 17.264C237.572 17.264 235.262 15.878 235.262 12.49C235.262 9.762 236.934 7.65 239.684 7.65C241.466 7.65 242.588 8.53 243.138 9.322C243.71 10.136 244.04 11.544 243.996 12.754H236.89C236.912 14.646 238.21 15.856 239.794 15.856C240.542 15.856 241.136 15.636 241.664 15.196C242.082 14.844 242.412 14.382 242.61 13.942ZM237 11.434H242.368C242.104 10.004 241.026 9.058 239.684 9.058C238.342 9.058 237.242 10.07 237 11.434ZM251.486 9.3L250.188 9.982C249.968 9.454 249.506 9.058 248.912 9.058C248.34 9.058 247.812 9.388 247.812 10.092C247.812 10.752 248.252 10.95 249.286 11.39C250.606 11.94 251.222 12.358 251.574 12.798C251.97 13.282 252.058 13.766 252.058 14.272C252.058 16.186 250.672 17.264 248.912 17.264C248.538 17.264 246.492 17.22 245.722 14.932L247.086 14.36C247.262 14.844 247.79 15.856 248.934 15.856C249.968 15.856 250.43 15.086 250.43 14.404C250.43 13.546 249.814 13.26 248.956 12.886C247.856 12.402 247.152 12.05 246.734 11.544C246.382 11.104 246.316 10.664 246.316 10.202C246.316 8.596 247.438 7.65 248.978 7.65C249.462 7.65 250.76 7.738 251.486 9.3ZM260.879 7.87V13.194C260.879 13.832 260.879 14.58 261.319 15.152C261.561 15.46 262.045 15.856 262.925 15.856C263.805 15.856 264.289 15.46 264.531 15.152C264.971 14.58 264.971 13.832 264.971 13.194V7.87H266.555V13.37C266.555 14.492 266.445 15.328 265.719 16.12C264.905 16.978 263.827 17.264 262.925 17.264C262.023 17.264 260.945 16.978 260.131 16.12C259.405 15.328 259.295 14.492 259.295 13.37V7.87H260.879ZM274.603 9.3L273.305 9.982C273.085 9.454 272.623 9.058 272.029 9.058C271.457 9.058 270.929 9.388 270.929 10.092C270.929 10.752 271.369 10.95 272.403 11.39C273.723 11.94 274.339 12.358 274.691 12.798C275.087 13.282 275.175 13.766 275.175 14.272C275.175 16.186 273.789 17.264 272.029 17.264C271.655 17.264 269.609 17.22 268.839 14.932L270.203 14.36C270.379 14.844 270.907 15.856 272.051 15.856C273.085 15.856 273.547 15.086 273.547 14.404C273.547 13.546 272.931 13.26 272.073 12.886C270.973 12.402 270.269 12.05 269.851 11.544C269.499 11.104 269.433 10.664 269.433 10.202C269.433 8.596 270.555 7.65 272.095 7.65C272.579 7.65 273.877 7.738 274.603 9.3ZM284.053 13.942L285.373 14.668C285.109 15.174 284.713 15.724 284.251 16.142C283.415 16.89 282.381 17.264 281.215 17.264C279.015 17.264 276.705 15.878 276.705 12.49C276.705 9.762 278.377 7.65 281.127 7.65C282.909 7.65 284.031 8.53 284.581 9.322C285.153 10.136 285.483 11.544 285.439 12.754H278.333C278.355 14.646 279.653 15.856 281.237 15.856C281.985 15.856 282.579 15.636 283.107 15.196C283.525 14.844 283.855 14.382 284.053 13.942ZM278.443 11.434H283.811C283.547 10.004 282.469 9.058 281.127 9.058C279.785 9.058 278.685 10.07 278.443 11.434ZM292.929 9.3L291.631 9.982C291.411 9.454 290.949 9.058 290.355 9.058C289.783 9.058 289.255 9.388 289.255 10.092C289.255 10.752 289.695 10.95 290.729 11.39C292.049 11.94 292.665 12.358 293.017 12.798C293.413 13.282 293.501 13.766 293.501 14.272C293.501 16.186 292.115 17.264 290.355 17.264C289.981 17.264 287.935 17.22 287.165 14.932L288.529 14.36C288.705 14.844 289.233 15.856 290.377 15.856C291.411 15.856 291.873 15.086 291.873 14.404C291.873 13.546 291.257 13.26 290.399 12.886C289.299 12.402 288.595 12.05 288.177 11.544C287.825 11.104 287.759 10.664 287.759 10.202C287.759 8.596 288.881 7.65 290.421 7.65C290.905 7.65 292.203 7.738 292.929 9.3ZM307.734 9.168V0.961999H309.318V17H307.734V15.724C307.206 16.406 306.216 17.264 304.61 17.264C302.3 17.264 300.166 15.636 300.166 12.424C300.166 9.278 302.278 7.65 304.61 7.65C306.37 7.65 307.316 8.618 307.734 9.168ZM304.786 9.058C303.224 9.058 301.794 10.202 301.794 12.424C301.794 14.382 302.894 15.856 304.786 15.856C306.722 15.856 307.822 14.25 307.822 12.446C307.822 10.092 306.194 9.058 304.786 9.058ZM319.094 13.942L320.414 14.668C320.15 15.174 319.754 15.724 319.292 16.142C318.456 16.89 317.422 17.264 316.256 17.264C314.056 17.264 311.746 15.878 311.746 12.49C311.746 9.762 313.418 7.65 316.168 7.65C317.95 7.65 319.072 8.53 319.622 9.322C320.194 10.136 320.524 11.544 320.48 12.754H313.374C313.396 14.646 314.694 15.856 316.278 15.856C317.026 15.856 317.62 15.636 318.148 15.196C318.566 14.844 318.896 14.382 319.094 13.942ZM313.484 11.434H318.852C318.588 10.004 317.51 9.058 316.168 9.058C314.826 9.058 313.726 10.07 313.484 11.434ZM329.686 13.942L331.006 14.668C330.742 15.174 330.346 15.724 329.884 16.142C329.048 16.89 328.014 17.264 326.848 17.264C324.648 17.264 322.338 15.878 322.338 12.49C322.338 9.762 324.01 7.65 326.76 7.65C328.542 7.65 329.664 8.53 330.214 9.322C330.786 10.136 331.116 11.544 331.072 12.754H323.966C323.988 14.646 325.286 15.856 326.87 15.856C327.618 15.856 328.212 15.636 328.74 15.196C329.158 14.844 329.488 14.382 329.686 13.942ZM324.076 11.434H329.444C329.18 10.004 328.102 9.058 326.76 9.058C325.418 9.058 324.318 10.07 324.076 11.434ZM335.086 15.724V22.06H333.502V7.87H335.086V9.146C336.164 7.804 337.55 7.65 338.21 7.65C341.07 7.65 342.654 10.026 342.654 12.49C342.654 14.998 341.048 17.264 338.276 17.264C336.802 17.264 335.768 16.604 335.086 15.724ZM338.056 15.856C339.904 15.856 341.026 14.316 341.026 12.49C341.026 10.246 339.508 9.058 338.034 9.058C336.56 9.058 334.998 10.268 334.998 12.468C334.998 14.338 336.186 15.856 338.056 15.856ZM350.217 17V7.87H351.801V8.838C352.307 8.09 353.099 7.65 354.067 7.65C355.717 7.65 356.377 8.816 356.553 9.124C357.433 7.738 358.687 7.65 359.303 7.65C362.009 7.65 362.273 9.916 362.273 11.214V17H360.689V11.456C360.689 10.422 360.557 9.058 359.061 9.058C357.235 9.058 357.037 10.818 357.037 11.918V17H355.453V11.588C355.453 10.95 355.475 9.058 353.803 9.058C351.999 9.058 351.801 10.928 351.801 12.028V17H350.217ZM365.277 7.87H366.861V17H365.277V7.87ZM364.947 4.416C364.947 3.8 365.453 3.294 366.069 3.294C366.685 3.294 367.191 3.8 367.191 4.416C367.191 5.032 366.685 5.538 366.069 5.538C365.453 5.538 364.947 5.032 364.947 4.416ZM369.853 0.961999H371.437V17H369.853V0.961999ZM374.43 0.961999H376.014V17H374.43V0.961999ZM379.006 7.87H380.59V17H379.006V7.87ZM378.676 4.416C378.676 3.8 379.182 3.294 379.798 3.294C380.414 3.294 380.92 3.8 380.92 4.416C380.92 5.032 380.414 5.538 379.798 5.538C379.182 5.538 378.676 5.032 378.676 4.416ZM383.582 17V7.87H385.166V8.926C385.452 8.552 386.266 7.65 387.784 7.65C388.862 7.65 389.852 8.09 390.402 8.904C390.864 9.586 390.93 10.334 390.93 11.346V17H389.346V11.39C389.346 10.84 389.302 10.202 388.928 9.718C388.62 9.322 388.136 9.058 387.432 9.058C386.882 9.058 386.288 9.212 385.826 9.762C385.21 10.488 385.166 11.566 385.166 12.226V17H383.582ZM400.912 9.168V7.87H402.496V16.78C402.496 17.77 402.496 19.178 401.616 20.366C400.934 21.29 399.68 22.06 397.964 22.06C396.402 22.06 395.324 21.444 394.708 20.828C394.092 20.212 393.52 19.222 393.52 17.88H395.082C395.082 18.65 395.39 19.332 395.786 19.772C396.446 20.498 397.282 20.652 397.986 20.652C399.108 20.652 399.878 20.256 400.406 19.376C400.868 18.628 400.912 17.814 400.912 17.044V15.724C400.384 16.406 399.394 17.264 397.788 17.264C396.446 17.264 395.368 16.736 394.664 16.032C394.048 15.416 393.344 14.272 393.344 12.424C393.344 10.642 394.004 9.542 394.664 8.882C395.434 8.134 396.556 7.65 397.788 7.65C399.13 7.65 400.186 8.222 400.912 9.168ZM397.964 9.058C396.996 9.058 396.336 9.476 395.896 9.916C395.126 10.708 394.972 11.676 394.972 12.424C394.972 13.216 395.126 14.294 396.006 15.108C396.512 15.57 397.128 15.856 397.964 15.856C398.8 15.856 399.46 15.592 399.966 15.086C400.582 14.492 401 13.524 401 12.446C401 11.368 400.604 10.422 400.032 9.872C399.526 9.366 398.778 9.058 397.964 9.058ZM4.28613 49.322H2.70213V57H1.11813V49.322H0.150125V47.87H1.11813V44.57H2.70213V47.87H4.28613V49.322ZM12.5552 53.942L13.8752 54.668C13.6112 55.174 13.2152 55.724 12.7532 56.142C11.9172 56.89 10.8832 57.264 9.7172 57.264C7.5172 57.264 5.2072 55.878 5.2072 52.49C5.2072 49.762 6.8792 47.65 9.6292 47.65C11.4112 47.65 12.5332 48.53 13.0832 49.322C13.6552 50.136 13.9852 51.544 13.9412 52.754H6.8352C6.8572 54.646 8.1552 55.856 9.7392 55.856C10.4872 55.856 11.0812 55.636 11.6092 55.196C12.0272 54.844 12.3572 54.382 12.5552 53.942ZM6.9452 51.434H12.3132C12.0492 50.004 10.9712 49.058 9.6292 49.058C8.2872 49.058 7.1872 50.07 6.9452 51.434ZM23.521 48.53V50.422C22.685 49.366 21.475 49.058 20.661 49.058C18.967 49.058 17.427 50.246 17.427 52.468C17.427 54.69 19.011 55.856 20.639 55.856C21.585 55.856 22.751 55.438 23.587 54.426V56.318C22.597 57.044 21.541 57.264 20.683 57.264C17.845 57.264 15.799 55.24 15.799 52.49C15.799 49.696 17.867 47.65 20.683 47.65C22.135 47.65 23.081 48.222 23.521 48.53ZM26.0175 57V40.962H27.6015V48.926C27.8875 48.552 28.7015 47.65 30.2195 47.65C31.2975 47.65 32.2875 48.09 32.8375 48.904C33.2995 49.586 33.3655 50.334 33.3655 51.346V57H31.7815V51.39C31.7815 50.84 31.7375 50.202 31.3635 49.718C31.0555 49.322 30.5715 49.058 29.8675 49.058C29.3175 49.058 28.7235 49.212 28.2615 49.762C27.6455 50.488 27.6015 51.566 27.6015 52.226V57H26.0175ZM36.3515 57V47.87H37.9355V48.926C38.2215 48.552 39.0355 47.65 40.5535 47.65C41.6315 47.65 42.6215 48.09 43.1715 48.904C43.6335 49.586 43.6995 50.334 43.6995 51.346V57H42.1155V51.39C42.1155 50.84 42.0715 50.202 41.6975 49.718C41.3895 49.322 40.9055 49.058 40.2015 49.058C39.6515 49.058 39.0575 49.212 38.5955 49.762C37.9795 50.488 37.9355 51.566 37.9355 52.226V57H36.3515ZM50.9535 57.264C48.1815 57.264 46.1135 55.24 46.1135 52.468C46.1135 49.696 48.1595 47.65 50.9535 47.65C53.7475 47.65 55.7935 49.696 55.7935 52.468C55.7935 55.24 53.7255 57.264 50.9535 57.264ZM50.9535 49.058C49.2815 49.058 47.7415 50.246 47.7415 52.468C47.7415 54.712 49.3255 55.856 50.9535 55.856C52.6035 55.856 54.1655 54.69 54.1655 52.468C54.1655 50.224 52.6255 49.058 50.9535 49.058ZM58.2226 40.962H59.8066V57H58.2226V40.962ZM67.0667 57.264C64.2947 57.264 62.2267 55.24 62.2267 52.468C62.2267 49.696 64.2727 47.65 67.0667 47.65C69.8607 47.65 71.9067 49.696 71.9067 52.468C71.9067 55.24 69.8387 57.264 67.0667 57.264ZM67.0667 49.058C65.3947 49.058 63.8547 50.246 63.8547 52.468C63.8547 54.712 65.4387 55.856 67.0667 55.856C68.7167 55.856 70.2787 54.69 70.2787 52.468C70.2787 50.224 68.7387 49.058 67.0667 49.058ZM81.3318 49.168V47.87H82.9158V56.78C82.9158 57.77 82.9158 59.178 82.0358 60.366C81.3538 61.29 80.0998 62.06 78.3838 62.06C76.8218 62.06 75.7438 61.444 75.1278 60.828C74.5118 60.212 73.9398 59.222 73.9398 57.88H75.5018C75.5018 58.65 75.8098 59.332 76.2058 59.772C76.8658 60.498 77.7018 60.652 78.4058 60.652C79.5278 60.652 80.2978 60.256 80.8258 59.376C81.2878 58.628 81.3318 57.814 81.3318 57.044V55.724C80.8038 56.406 79.8138 57.264 78.2078 57.264C76.8658 57.264 75.7878 56.736 75.0838 56.032C74.4678 55.416 73.7638 54.272 73.7638 52.424C73.7638 50.642 74.4238 49.542 75.0838 48.882C75.8538 48.134 76.9758 47.65 78.2078 47.65C79.5498 47.65 80.6058 48.222 81.3318 49.168ZM78.3838 49.058C77.4158 49.058 76.7558 49.476 76.3158 49.916C75.5458 50.708 75.3918 51.676 75.3918 52.424C75.3918 53.216 75.5458 54.294 76.4258 55.108C76.9318 55.57 77.5478 55.856 78.3838 55.856C79.2198 55.856 79.8798 55.592 80.3858 55.086C81.0018 54.492 81.4198 53.524 81.4198 52.446C81.4198 51.368 81.0238 50.422 80.4518 49.872C79.9458 49.366 79.1978 49.058 78.3838 49.058ZM85.8939 62.06L88.7979 56.142L84.5959 47.87H86.3999L89.6339 54.404L92.6039 47.87H94.3639L87.6539 62.06H85.8939ZM104.382 49.322H102.798V57H101.214V49.322H100.246V47.87H101.214V44.57H102.798V47.87H104.382V49.322ZM110.143 57.264C107.371 57.264 105.303 55.24 105.303 52.468C105.303 49.696 107.349 47.65 110.143 47.65C112.937 47.65 114.983 49.696 114.983 52.468C114.983 55.24 112.915 57.264 110.143 57.264ZM110.143 49.058C108.471 49.058 106.931 50.246 106.931 52.468C106.931 54.712 108.515 55.856 110.143 55.856C111.793 55.856 113.355 54.69 113.355 52.468C113.355 50.224 111.815 49.058 110.143 49.058ZM124.131 55.724V62.06H122.547V47.87H124.131V49.146C125.209 47.804 126.595 47.65 127.255 47.65C130.115 47.65 131.699 50.026 131.699 52.49C131.699 54.998 130.093 57.264 127.321 57.264C125.847 57.264 124.813 56.604 124.131 55.724ZM127.101 55.856C128.949 55.856 130.071 54.316 130.071 52.49C130.071 50.246 128.553 49.058 127.079 49.058C125.605 49.058 124.043 50.268 124.043 52.468C124.043 54.338 125.231 55.856 127.101 55.856ZM134.127 57V47.87H135.711V48.86C135.865 48.618 136.547 47.65 137.779 47.65C138.263 47.65 138.791 47.826 139.187 48.024L138.439 49.454C138.087 49.212 137.757 49.146 137.515 49.146C136.877 49.146 136.481 49.41 136.239 49.718C135.975 50.07 135.711 50.686 135.711 52.182V57H134.127ZM144.368 57.264C141.596 57.264 139.528 55.24 139.528 52.468C139.528 49.696 141.574 47.65 144.368 47.65C147.162 47.65 149.208 49.696 149.208 52.468C149.208 55.24 147.14 57.264 144.368 57.264ZM144.368 49.058C142.696 49.058 141.156 50.246 141.156 52.468C141.156 54.712 142.74 55.856 144.368 55.856C146.018 55.856 147.58 54.69 147.58 52.468C147.58 50.224 146.04 49.058 144.368 49.058ZM158.633 49.168V40.962H160.217V57H158.633V55.724C158.105 56.406 157.115 57.264 155.509 57.264C153.199 57.264 151.065 55.636 151.065 52.424C151.065 49.278 153.177 47.65 155.509 47.65C157.269 47.65 158.215 48.618 158.633 49.168ZM155.685 49.058C154.123 49.058 152.693 50.202 152.693 52.424C152.693 54.382 153.793 55.856 155.685 55.856C157.621 55.856 158.721 54.25 158.721 52.446C158.721 50.092 157.093 49.058 155.685 49.058ZM164.801 47.87V53.194C164.801 53.832 164.801 54.58 165.241 55.152C165.483 55.46 165.967 55.856 166.847 55.856C167.727 55.856 168.211 55.46 168.453 55.152C168.893 54.58 168.893 53.832 168.893 53.194V47.87H170.477V53.37C170.477 54.492 170.367 55.328 169.641 56.12C168.827 56.978 167.749 57.264 166.847 57.264C165.945 57.264 164.867 56.978 164.053 56.12C163.327 55.328 163.217 54.492 163.217 53.37V47.87H164.801ZM180.615 48.53V50.422C179.779 49.366 178.569 49.058 177.755 49.058C176.061 49.058 174.521 50.246 174.521 52.468C174.521 54.69 176.105 55.856 177.733 55.856C178.679 55.856 179.845 55.438 180.681 54.426V56.318C179.691 57.044 178.635 57.264 177.777 57.264C174.939 57.264 172.893 55.24 172.893 52.49C172.893 49.696 174.961 47.65 177.777 47.65C179.229 47.65 180.175 48.222 180.615 48.53ZM189.887 53.942L191.207 54.668C190.943 55.174 190.547 55.724 190.085 56.142C189.249 56.89 188.215 57.264 187.049 57.264C184.849 57.264 182.539 55.878 182.539 52.49C182.539 49.762 184.211 47.65 186.961 47.65C188.743 47.65 189.865 48.53 190.415 49.322C190.987 50.136 191.317 51.544 191.273 52.754H184.167C184.189 54.646 185.487 55.856 187.071 55.856C187.819 55.856 188.413 55.636 188.941 55.196C189.359 54.844 189.689 54.382 189.887 53.942ZM184.277 51.434H189.645C189.381 50.004 188.303 49.058 186.961 49.058C185.619 49.058 184.519 50.07 184.277 51.434ZM200.422 55.724V62.06H198.838V47.87H200.422V49.146C201.5 47.804 202.886 47.65 203.546 47.65C206.406 47.65 207.99 50.026 207.99 52.49C207.99 54.998 206.384 57.264 203.612 57.264C202.138 57.264 201.104 56.604 200.422 55.724ZM203.392 55.856C205.24 55.856 206.362 54.316 206.362 52.49C206.362 50.246 204.844 49.058 203.37 49.058C201.896 49.058 200.334 50.268 200.334 52.468C200.334 54.338 201.522 55.856 203.392 55.856ZM212.002 47.87V53.194C212.002 53.832 212.002 54.58 212.442 55.152C212.684 55.46 213.168 55.856 214.048 55.856C214.928 55.856 215.412 55.46 215.654 55.152C216.094 54.58 216.094 53.832 216.094 53.194V47.87H217.678V53.37C217.678 54.492 217.568 55.328 216.842 56.12C216.028 56.978 214.95 57.264 214.048 57.264C213.146 57.264 212.068 56.978 211.254 56.12C210.528 55.328 210.418 54.492 210.418 53.37V47.87H212.002ZM223.878 49.322H222.294V57H220.71V49.322H219.742V47.87H220.71V44.57H222.294V47.87H223.878V49.322ZM229.013 49.322H227.429V57H225.845V49.322H224.877V47.87H225.845V44.57H227.429V47.87H229.013V49.322ZM237.282 53.942L238.602 54.668C238.338 55.174 237.942 55.724 237.48 56.142C236.644 56.89 235.61 57.264 234.444 57.264C232.244 57.264 229.934 55.878 229.934 52.49C229.934 49.762 231.606 47.65 234.356 47.65C236.138 47.65 237.26 48.53 237.81 49.322C238.382 50.136 238.712 51.544 238.668 52.754H231.562C231.584 54.646 232.882 55.856 234.466 55.856C235.214 55.856 235.808 55.636 236.336 55.196C236.754 54.844 237.084 54.382 237.282 53.942ZM231.672 51.434H237.04C236.776 50.004 235.698 49.058 234.356 49.058C233.014 49.058 231.914 50.07 231.672 51.434ZM241.098 57V47.87H242.682V48.86C242.836 48.618 243.518 47.65 244.75 47.65C245.234 47.65 245.762 47.826 246.158 48.024L245.41 49.454C245.058 49.212 244.728 49.146 244.486 49.146C243.848 49.146 243.452 49.41 243.21 49.718C242.946 50.07 242.682 50.686 242.682 52.182V57H241.098ZM256.614 49.322H254.37V57H252.786V49.322H251.906V47.87H252.786V43.888C252.786 43.052 252.852 41.996 253.666 41.314C254.106 40.94 254.766 40.72 255.492 40.72C256.064 40.72 256.438 40.852 256.614 40.918V42.458C256.284 42.326 255.91 42.26 255.58 42.26C255.228 42.26 254.81 42.348 254.568 42.744C254.37 43.074 254.37 43.58 254.37 44.064V47.87H256.614V49.322ZM265.023 49.168V47.87H266.607V57H265.023V55.724C264.495 56.406 263.505 57.264 261.899 57.264C259.589 57.264 257.455 55.636 257.455 52.424C257.455 49.278 259.567 47.65 261.899 47.65C263.659 47.65 264.605 48.618 265.023 49.168ZM262.075 49.058C260.513 49.058 259.083 50.202 259.083 52.424C259.083 54.382 260.183 55.856 262.075 55.856C264.011 55.856 265.111 54.25 265.111 52.446C265.111 50.092 263.483 49.058 262.075 49.058ZM276.757 48.53V50.422C275.921 49.366 274.711 49.058 273.897 49.058C272.203 49.058 270.663 50.246 270.663 52.468C270.663 54.69 272.247 55.856 273.875 55.856C274.821 55.856 275.987 55.438 276.823 54.426V56.318C275.833 57.044 274.777 57.264 273.919 57.264C271.081 57.264 269.035 55.24 269.035 52.49C269.035 49.696 271.103 47.65 273.919 47.65C275.371 47.65 276.317 48.222 276.757 48.53ZM286.03 53.942L287.35 54.668C287.086 55.174 286.69 55.724 286.228 56.142C285.392 56.89 284.358 57.264 283.192 57.264C280.992 57.264 278.682 55.878 278.682 52.49C278.682 49.762 280.354 47.65 283.104 47.65C284.886 47.65 286.008 48.53 286.558 49.322C287.13 50.136 287.46 51.544 287.416 52.754H280.31C280.332 54.646 281.63 55.856 283.214 55.856C283.962 55.856 284.556 55.636 285.084 55.196C285.502 54.844 285.832 54.382 286.03 53.942ZM280.42 51.434H285.788C285.524 50.004 284.446 49.058 283.104 49.058C281.762 49.058 280.662 50.07 280.42 51.434ZM294.906 49.3L293.608 49.982C293.388 49.454 292.926 49.058 292.332 49.058C291.76 49.058 291.232 49.388 291.232 50.092C291.232 50.752 291.672 50.95 292.706 51.39C294.026 51.94 294.642 52.358 294.994 52.798C295.39 53.282 295.478 53.766 295.478 54.272C295.478 56.186 294.092 57.264 292.332 57.264C291.958 57.264 289.912 57.22 289.142 54.932L290.506 54.36C290.682 54.844 291.21 55.856 292.354 55.856C293.388 55.856 293.85 55.086 293.85 54.404C293.85 53.546 293.234 53.26 292.376 52.886C291.276 52.402 290.572 52.05 290.154 51.544C289.802 51.104 289.736 50.664 289.736 50.202C289.736 48.596 290.858 47.65 292.398 47.65C292.882 47.65 294.18 47.738 294.906 49.3ZM297.492 56.12C297.492 55.526 297.998 55.02 298.592 55.02C299.186 55.02 299.692 55.526 299.692 56.12C299.692 56.714 299.186 57.22 298.592 57.22C297.998 57.22 297.492 56.714 297.492 56.12ZM315.289 43.866H311.725V57H310.097V43.866H306.533V42.326H315.289V43.866ZM315.498 57V40.962H317.082V48.926C317.368 48.552 318.182 47.65 319.7 47.65C320.778 47.65 321.768 48.09 322.318 48.904C322.78 49.586 322.846 50.334 322.846 51.346V57H321.262V51.39C321.262 50.84 321.218 50.202 320.844 49.718C320.536 49.322 320.052 49.058 319.348 49.058C318.798 49.058 318.204 49.212 317.742 49.762C317.126 50.488 317.082 51.566 317.082 52.226V57H315.498ZM325.832 47.87H327.416V57H325.832V47.87ZM325.502 44.416C325.502 43.8 326.008 43.294 326.624 43.294C327.24 43.294 327.746 43.8 327.746 44.416C327.746 45.032 327.24 45.538 326.624 45.538C326.008 45.538 325.502 45.032 325.502 44.416ZM335.468 49.3L334.17 49.982C333.95 49.454 333.488 49.058 332.894 49.058C332.322 49.058 331.794 49.388 331.794 50.092C331.794 50.752 332.234 50.95 333.268 51.39C334.588 51.94 335.204 52.358 335.556 52.798C335.952 53.282 336.04 53.766 336.04 54.272C336.04 56.186 334.654 57.264 332.894 57.264C332.52 57.264 330.474 57.22 329.704 54.932L331.068 54.36C331.244 54.844 331.772 55.856 332.916 55.856C333.95 55.856 334.412 55.086 334.412 54.404C334.412 53.546 333.796 53.26 332.938 52.886C331.838 52.402 331.134 52.05 330.716 51.544C330.364 51.104 330.298 50.664 330.298 50.202C330.298 48.596 331.42 47.65 332.96 47.65C333.444 47.65 334.742 47.738 335.468 49.3ZM350.273 49.168V47.87H351.857V57H350.273V55.724C349.745 56.406 348.755 57.264 347.149 57.264C344.839 57.264 342.705 55.636 342.705 52.424C342.705 49.278 344.817 47.65 347.149 47.65C348.909 47.65 349.855 48.618 350.273 49.168ZM347.325 49.058C345.763 49.058 344.333 50.202 344.333 52.424C344.333 54.382 345.433 55.856 347.325 55.856C349.261 55.856 350.361 54.25 350.361 52.446C350.361 50.092 348.733 49.058 347.325 49.058ZM356.441 55.724V62.06H354.857V47.87H356.441V49.146C357.519 47.804 358.905 47.65 359.565 47.65C362.425 47.65 364.009 50.026 364.009 52.49C364.009 54.998 362.403 57.264 359.631 57.264C358.157 57.264 357.123 56.604 356.441 55.724ZM359.411 55.856C361.259 55.856 362.381 54.316 362.381 52.49C362.381 50.246 360.863 49.058 359.389 49.058C357.915 49.058 356.353 50.268 356.353 52.468C356.353 54.338 357.541 55.856 359.411 55.856ZM368.021 55.724V62.06H366.437V47.87H368.021V49.146C369.099 47.804 370.485 47.65 371.145 47.65C374.005 47.65 375.589 50.026 375.589 52.49C375.589 54.998 373.983 57.264 371.211 57.264C369.737 57.264 368.703 56.604 368.021 55.724ZM370.991 55.856C372.839 55.856 373.961 54.316 373.961 52.49C373.961 50.246 372.443 49.058 370.969 49.058C369.495 49.058 367.933 50.268 367.933 52.468C367.933 54.338 369.121 55.856 370.991 55.856ZM378.017 40.962H379.601V57H378.017V40.962ZM382.594 47.87H384.178V57H382.594V47.87ZM382.264 44.416C382.264 43.8 382.77 43.294 383.386 43.294C384.002 43.294 384.508 43.8 384.508 44.416C384.508 45.032 384.002 45.538 383.386 45.538C382.77 45.538 382.264 45.032 382.264 44.416ZM393.946 53.942L395.266 54.668C395.002 55.174 394.606 55.724 394.144 56.142C393.308 56.89 392.274 57.264 391.108 57.264C388.908 57.264 386.598 55.878 386.598 52.49C386.598 49.762 388.27 47.65 391.02 47.65C392.802 47.65 393.924 48.53 394.474 49.322C395.046 50.136 395.376 51.544 395.332 52.754H388.226C388.248 54.646 389.546 55.856 391.13 55.856C391.878 55.856 392.472 55.636 393 55.196C393.418 54.844 393.748 54.382 393.946 53.942ZM388.336 51.434H393.704C393.44 50.004 392.362 49.058 391.02 49.058C389.678 49.058 388.578 50.07 388.336 51.434ZM402.822 49.3L401.524 49.982C401.304 49.454 400.842 49.058 400.248 49.058C399.676 49.058 399.148 49.388 399.148 50.092C399.148 50.752 399.588 50.95 400.622 51.39C401.942 51.94 402.558 52.358 402.91 52.798C403.306 53.282 403.394 53.766 403.394 54.272C403.394 56.186 402.008 57.264 400.248 57.264C399.874 57.264 397.828 57.22 397.058 54.932L398.422 54.36C398.598 54.844 399.126 55.856 400.27 55.856C401.304 55.856 401.766 55.086 401.766 54.404C401.766 53.546 401.15 53.26 400.292 52.886C399.192 52.402 398.488 52.05 398.07 51.544C397.718 51.104 397.652 50.664 397.652 50.202C397.652 48.596 398.774 47.65 400.314 47.65C400.798 47.65 402.096 47.738 402.822 49.3ZM32.7557 89.168V80.962H34.3397V97H32.7557V95.724C32.2277 96.406 31.2377 97.264 29.6317 97.264C27.3217 97.264 25.1877 95.636 25.1877 92.424C25.1877 89.278 27.2997 87.65 29.6317 87.65C31.3917 87.65 32.3377 88.618 32.7557 89.168ZM29.8077 89.058C28.2457 89.058 26.8157 90.202 26.8157 92.424C26.8157 94.382 27.9157 95.856 29.8077 95.856C31.7437 95.856 32.8437 94.25 32.8437 92.446C32.8437 90.092 31.2157 89.058 29.8077 89.058ZM44.1158 93.942L45.4358 94.668C45.1718 95.174 44.7758 95.724 44.3138 96.142C43.4778 96.89 42.4438 97.264 41.2778 97.264C39.0777 97.264 36.7678 95.878 36.7678 92.49C36.7678 89.762 38.4398 87.65 41.1898 87.65C42.9718 87.65 44.0938 88.53 44.6438 89.322C45.2158 90.136 45.5458 91.544 45.5018 92.754H38.3958C38.4178 94.646 39.7158 95.856 41.2998 95.856C42.0478 95.856 42.6418 95.636 43.1698 95.196C43.5878 94.844 43.9178 94.382 44.1158 93.942ZM38.5058 91.434H43.8738C43.6098 90.004 42.5318 89.058 41.1898 89.058C39.8478 89.058 38.7477 90.07 38.5058 91.434ZM54.7075 93.942L56.0275 94.668C55.7635 95.174 55.3675 95.724 54.9055 96.142C54.0695 96.89 53.0355 97.264 51.8695 97.264C49.6695 97.264 47.3595 95.878 47.3595 92.49C47.3595 89.762 49.0315 87.65 51.7815 87.65C53.5635 87.65 54.6855 88.53 55.2355 89.322C55.8075 90.136 56.1375 91.544 56.0935 92.754H48.9875C49.0095 94.646 50.3075 95.856 51.8915 95.856C52.6395 95.856 53.2335 95.636 53.7615 95.196C54.1795 94.844 54.5095 94.382 54.7075 93.942ZM49.0975 91.434H54.4655C54.2015 90.004 53.1235 89.058 51.7815 89.058C50.4395 89.058 49.3395 90.07 49.0975 91.434ZM60.1073 95.724V102.06H58.5233V87.87H60.1073V89.146C61.1853 87.804 62.5713 87.65 63.2313 87.65C66.0913 87.65 67.6753 90.026 67.6753 92.49C67.6753 94.998 66.0693 97.264 63.2973 97.264C61.8233 97.264 60.7893 96.604 60.1073 95.724ZM63.0773 95.856C64.9253 95.856 66.0473 94.316 66.0473 92.49C66.0473 90.246 64.5293 89.058 63.0553 89.058C61.5813 89.058 60.0193 90.268 60.0193 92.468C60.0193 94.338 61.2073 95.856 63.0773 95.856ZM75.2382 97V87.87H76.8222V88.838C77.3282 88.09 78.1202 87.65 79.0882 87.65C80.7382 87.65 81.3982 88.816 81.5742 89.124C82.4542 87.738 83.7082 87.65 84.3242 87.65C87.0302 87.65 87.2942 89.916 87.2942 91.214V97H85.7102V91.456C85.7102 90.422 85.5782 89.058 84.0822 89.058C82.2562 89.058 82.0582 90.818 82.0582 91.918V97H80.4742V91.588C80.4742 90.95 80.4962 89.058 78.8242 89.058C77.0202 89.058 76.8222 90.928 76.8222 92.028V97H75.2382ZM90.2987 87.87H91.8827V97H90.2987V87.87ZM89.9687 84.416C89.9687 83.8 90.4747 83.294 91.0907 83.294C91.7067 83.294 92.2127 83.8 92.2127 84.416C92.2127 85.032 91.7067 85.538 91.0907 85.538C90.4747 85.538 89.9687 85.032 89.9687 84.416ZM94.8749 80.962H96.4589V97H94.8749V80.962ZM99.4511 80.962H101.035V97H99.4511V80.962ZM104.027 87.87H105.611V97H104.027V87.87ZM103.697 84.416C103.697 83.8 104.203 83.294 104.819 83.294C105.435 83.294 105.941 83.8 105.941 84.416C105.941 85.032 105.435 85.538 104.819 85.538C104.203 85.538 103.697 85.032 103.697 84.416ZM108.603 97V87.87H110.187V88.926C110.473 88.552 111.287 87.65 112.805 87.65C113.883 87.65 114.873 88.09 115.423 88.904C115.885 89.586 115.951 90.334 115.951 91.346V97H114.367V91.39C114.367 90.84 114.323 90.202 113.949 89.718C113.641 89.322 113.157 89.058 112.453 89.058C111.903 89.058 111.309 89.212 110.847 89.762C110.231 90.488 110.187 91.566 110.187 92.226V97H108.603ZM125.933 89.168V87.87H127.517V96.78C127.517 97.77 127.517 99.178 126.637 100.366C125.955 101.29 124.701 102.06 122.985 102.06C121.423 102.06 120.345 101.444 119.729 100.828C119.113 100.212 118.541 99.222 118.541 97.88H120.103C120.103 98.65 120.411 99.332 120.807 99.772C121.467 100.498 122.303 100.652 123.007 100.652C124.129 100.652 124.899 100.256 125.427 99.376C125.889 98.628 125.933 97.814 125.933 97.044V95.724C125.405 96.406 124.415 97.264 122.809 97.264C121.467 97.264 120.389 96.736 119.685 96.032C119.069 95.416 118.365 94.272 118.365 92.424C118.365 90.642 119.025 89.542 119.685 88.882C120.455 88.134 121.577 87.65 122.809 87.65C124.151 87.65 125.207 88.222 125.933 89.168ZM122.985 89.058C122.017 89.058 121.357 89.476 120.917 89.916C120.147 90.708 119.993 91.676 119.993 92.424C119.993 93.216 120.147 94.294 121.027 95.108C121.533 95.57 122.149 95.856 122.985 95.856C123.821 95.856 124.481 95.592 124.987 95.086C125.603 94.492 126.021 93.524 126.021 92.446C126.021 91.368 125.625 90.422 125.053 89.872C124.547 89.366 123.799 89.058 122.985 89.058ZM138.864 89.322H137.28V97H135.696V89.322H134.728V87.87H135.696V84.57H137.28V87.87H138.864V89.322ZM144.625 97.264C141.853 97.264 139.785 95.24 139.785 92.468C139.785 89.696 141.831 87.65 144.625 87.65C147.419 87.65 149.465 89.696 149.465 92.468C149.465 95.24 147.397 97.264 144.625 97.264ZM144.625 89.058C142.953 89.058 141.413 90.246 141.413 92.468C141.413 94.712 142.997 95.856 144.625 95.856C146.275 95.856 147.837 94.69 147.837 92.468C147.837 90.224 146.297 89.058 144.625 89.058ZM160.241 89.322H158.657V97H157.073V89.322H156.105V87.87H157.073V84.57H158.657V87.87H160.241V89.322ZM161.734 97V80.962H163.318V88.926C163.604 88.552 164.418 87.65 165.936 87.65C167.014 87.65 168.004 88.09 168.554 88.904C169.016 89.586 169.082 90.334 169.082 91.346V97H167.498V91.39C167.498 90.84 167.454 90.202 167.08 89.718C166.772 89.322 166.288 89.058 165.584 89.058C165.034 89.058 164.44 89.212 163.978 89.762C163.362 90.488 163.318 91.566 163.318 92.226V97H161.734ZM178.629 93.942L179.949 94.668C179.685 95.174 179.289 95.724 178.827 96.142C177.991 96.89 176.957 97.264 175.791 97.264C173.591 97.264 171.281 95.878 171.281 92.49C171.281 89.762 172.953 87.65 175.703 87.65C177.485 87.65 178.607 88.53 179.157 89.322C179.729 90.136 180.059 91.544 180.015 92.754H172.909C172.931 94.646 174.229 95.856 175.813 95.856C176.561 95.856 177.155 95.636 177.683 95.196C178.101 94.844 178.431 94.382 178.629 93.942ZM173.019 91.434H178.387C178.123 90.004 177.045 89.058 175.703 89.058C174.361 89.058 173.261 90.07 173.019 91.434ZM189.164 95.724V102.06H187.58V87.87H189.164V89.146C190.242 87.804 191.628 87.65 192.288 87.65C195.148 87.65 196.732 90.026 196.732 92.49C196.732 94.998 195.126 97.264 192.354 97.264C190.88 97.264 189.846 96.604 189.164 95.724ZM192.134 95.856C193.982 95.856 195.104 94.316 195.104 92.49C195.104 90.246 193.586 89.058 192.112 89.058C190.638 89.058 189.076 90.268 189.076 92.468C189.076 94.338 190.264 95.856 192.134 95.856ZM200.744 87.87V93.194C200.744 93.832 200.744 94.58 201.184 95.152C201.426 95.46 201.91 95.856 202.79 95.856C203.67 95.856 204.154 95.46 204.396 95.152C204.836 94.58 204.836 93.832 204.836 93.194V87.87H206.42V93.37C206.42 94.492 206.31 95.328 205.584 96.12C204.77 96.978 203.692 97.264 202.79 97.264C201.888 97.264 200.81 96.978 199.996 96.12C199.27 95.328 199.16 94.492 199.16 93.37V87.87H200.744ZM212.62 89.322H211.036V97H209.452V89.322H208.484V87.87H209.452V84.57H211.036V87.87H212.62V89.322ZM217.755 89.322H216.171V97H214.587V89.322H213.619V87.87H214.587V84.57H216.171V87.87H217.755V89.322ZM226.024 93.942L227.344 94.668C227.08 95.174 226.684 95.724 226.222 96.142C225.386 96.89 224.352 97.264 223.186 97.264C220.986 97.264 218.676 95.878 218.676 92.49C218.676 89.762 220.348 87.65 223.098 87.65C224.88 87.65 226.002 88.53 226.552 89.322C227.124 90.136 227.454 91.544 227.41 92.754H220.304C220.326 94.646 221.624 95.856 223.208 95.856C223.956 95.856 224.55 95.636 225.078 95.196C225.496 94.844 225.826 94.382 226.024 93.942ZM220.414 91.434H225.782C225.518 90.004 224.44 89.058 223.098 89.058C221.756 89.058 220.656 90.07 220.414 91.434ZM229.84 97V87.87H231.424V88.86C231.578 88.618 232.26 87.65 233.492 87.65C233.976 87.65 234.504 87.826 234.9 88.024L234.152 89.454C233.8 89.212 233.47 89.146 233.228 89.146C232.59 89.146 232.194 89.41 231.952 89.718C231.688 90.07 231.424 90.686 231.424 92.182V97H229.84ZM245.356 89.322H243.112V97H241.528V89.322H240.648V87.87H241.528V83.888C241.528 83.052 241.594 81.996 242.408 81.314C242.848 80.94 243.508 80.72 244.234 80.72C244.806 80.72 245.18 80.852 245.356 80.918V82.458C245.026 82.326 244.652 82.26 244.322 82.26C243.97 82.26 243.552 82.348 243.31 82.744C243.112 83.074 243.112 83.58 243.112 84.064V87.87H245.356V89.322ZM253.765 89.168V87.87H255.349V97H253.765V95.724C253.237 96.406 252.247 97.264 250.641 97.264C248.331 97.264 246.197 95.636 246.197 92.424C246.197 89.278 248.309 87.65 250.641 87.65C252.401 87.65 253.347 88.618 253.765 89.168ZM250.817 89.058C249.255 89.058 247.825 90.202 247.825 92.424C247.825 94.382 248.925 95.856 250.817 95.856C252.753 95.856 253.853 94.25 253.853 92.446C253.853 90.092 252.225 89.058 250.817 89.058ZM265.5 88.53V90.422C264.664 89.366 263.454 89.058 262.64 89.058C260.946 89.058 259.406 90.246 259.406 92.468C259.406 94.69 260.99 95.856 262.618 95.856C263.564 95.856 264.73 95.438 265.566 94.426V96.318C264.576 97.044 263.52 97.264 262.662 97.264C259.824 97.264 257.778 95.24 257.778 92.49C257.778 89.696 259.846 87.65 262.662 87.65C264.114 87.65 265.06 88.222 265.5 88.53ZM274.772 93.942L276.092 94.668C275.828 95.174 275.432 95.724 274.97 96.142C274.134 96.89 273.1 97.264 271.934 97.264C269.734 97.264 267.424 95.878 267.424 92.49C267.424 89.762 269.096 87.65 271.846 87.65C273.628 87.65 274.75 88.53 275.3 89.322C275.872 90.136 276.202 91.544 276.158 92.754H269.052C269.074 94.646 270.372 95.856 271.956 95.856C272.704 95.856 273.298 95.636 273.826 95.196C274.244 94.844 274.574 94.382 274.772 93.942ZM269.162 91.434H274.53C274.266 90.004 273.188 89.058 271.846 89.058C270.504 89.058 269.404 90.07 269.162 91.434ZM286.935 89.322H285.351V97H283.767V89.322H282.799V87.87H283.767V84.57H285.351V87.87H286.935V89.322ZM292.696 97.264C289.924 97.264 287.856 95.24 287.856 92.468C287.856 89.696 289.902 87.65 292.696 87.65C295.49 87.65 297.536 89.696 297.536 92.468C297.536 95.24 295.468 97.264 292.696 97.264ZM292.696 89.058C291.024 89.058 289.484 90.246 289.484 92.468C289.484 94.712 291.068 95.856 292.696 95.856C294.346 95.856 295.908 94.69 295.908 92.468C295.908 90.224 294.368 89.058 292.696 89.058ZM305.1 97V87.87H306.684V88.86C306.838 88.618 307.52 87.65 308.752 87.65C309.236 87.65 309.764 87.826 310.16 88.024L309.412 89.454C309.06 89.212 308.73 89.146 308.488 89.146C307.85 89.146 307.454 89.41 307.212 89.718C306.948 90.07 306.684 90.686 306.684 92.182V97H305.1ZM317.848 93.942L319.168 94.668C318.904 95.174 318.508 95.724 318.046 96.142C317.21 96.89 316.176 97.264 315.01 97.264C312.81 97.264 310.5 95.878 310.5 92.49C310.5 89.762 312.172 87.65 314.922 87.65C316.704 87.65 317.826 88.53 318.376 89.322C318.948 90.136 319.278 91.544 319.234 92.754H312.128C312.15 94.646 313.448 95.856 315.032 95.856C315.78 95.856 316.374 95.636 316.902 95.196C317.32 94.844 317.65 94.382 317.848 93.942ZM312.238 91.434H317.606C317.342 90.004 316.264 89.058 314.922 89.058C313.58 89.058 312.48 90.07 312.238 91.434ZM328.66 89.168V87.87H330.244V96.78C330.244 97.77 330.244 99.178 329.364 100.366C328.682 101.29 327.428 102.06 325.712 102.06C324.15 102.06 323.072 101.444 322.456 100.828C321.84 100.212 321.268 99.222 321.268 97.88H322.83C322.83 98.65 323.138 99.332 323.534 99.772C324.194 100.498 325.03 100.652 325.734 100.652C326.856 100.652 327.626 100.256 328.154 99.376C328.616 98.628 328.66 97.814 328.66 97.044V95.724C328.132 96.406 327.142 97.264 325.536 97.264C324.194 97.264 323.116 96.736 322.412 96.032C321.796 95.416 321.092 94.272 321.092 92.424C321.092 90.642 321.752 89.542 322.412 88.882C323.182 88.134 324.304 87.65 325.536 87.65C326.878 87.65 327.934 88.222 328.66 89.168ZM325.712 89.058C324.744 89.058 324.084 89.476 323.644 89.916C322.874 90.708 322.72 91.676 322.72 92.424C322.72 93.216 322.874 94.294 323.754 95.108C324.26 95.57 324.876 95.856 325.712 95.856C326.548 95.856 327.208 95.592 327.714 95.086C328.33 94.492 328.748 93.524 328.748 92.446C328.748 91.368 328.352 90.422 327.78 89.872C327.274 89.366 326.526 89.058 325.712 89.058ZM334.828 87.87V93.194C334.828 93.832 334.828 94.58 335.268 95.152C335.51 95.46 335.994 95.856 336.874 95.856C337.754 95.856 338.238 95.46 338.48 95.152C338.92 94.58 338.92 93.832 338.92 93.194V87.87H340.504V93.37C340.504 94.492 340.394 95.328 339.668 96.12C338.854 96.978 337.776 97.264 336.874 97.264C335.972 97.264 334.894 96.978 334.08 96.12C333.354 95.328 333.244 94.492 333.244 93.37V87.87H334.828ZM343.492 80.962H345.076V97H343.492V80.962ZM355.064 89.168V87.87H356.648V97H355.064V95.724C354.536 96.406 353.546 97.264 351.94 97.264C349.63 97.264 347.496 95.636 347.496 92.424C347.496 89.278 349.608 87.65 351.94 87.65C353.7 87.65 354.646 88.618 355.064 89.168ZM352.116 89.058C350.554 89.058 349.124 90.202 349.124 92.424C349.124 94.382 350.224 95.856 352.116 95.856C354.052 95.856 355.152 94.25 355.152 92.446C355.152 90.092 353.524 89.058 352.116 89.058ZM362.86 89.322H361.276V97H359.692V89.322H358.724V87.87H359.692V84.57H361.276V87.87H362.86V89.322ZM371.129 93.942L372.449 94.668C372.185 95.174 371.789 95.724 371.327 96.142C370.491 96.89 369.457 97.264 368.291 97.264C366.091 97.264 363.781 95.878 363.781 92.49C363.781 89.762 365.453 87.65 368.203 87.65C369.985 87.65 371.107 88.53 371.657 89.322C372.229 90.136 372.559 91.544 372.515 92.754H365.409C365.431 94.646 366.729 95.856 368.313 95.856C369.061 95.856 369.655 95.636 370.183 95.196C370.601 94.844 370.931 94.382 371.129 93.942ZM365.519 91.434H370.887C370.623 90.004 369.545 89.058 368.203 89.058C366.861 89.058 365.761 90.07 365.519 91.434ZM383.292 89.322H381.708V97H380.124V89.322H379.156V87.87H380.124V84.57H381.708V87.87H383.292V89.322ZM384.785 97V80.962H386.369V88.926C386.655 88.552 387.469 87.65 388.987 87.65C390.065 87.65 391.055 88.09 391.605 88.904C392.067 89.586 392.133 90.334 392.133 91.346V97H390.549V91.39C390.549 90.84 390.505 90.202 390.131 89.718C389.823 89.322 389.339 89.058 388.635 89.058C388.085 89.058 387.491 89.212 387.029 89.762C386.413 90.488 386.369 91.566 386.369 92.226V97H384.785ZM401.68 93.942L403 94.668C402.736 95.174 402.34 95.724 401.878 96.142C401.042 96.89 400.008 97.264 398.842 97.264C396.642 97.264 394.332 95.878 394.332 92.49C394.332 89.762 396.004 87.65 398.754 87.65C400.536 87.65 401.658 88.53 402.208 89.322C402.78 90.136 403.11 91.544 403.066 92.754H395.96C395.982 94.646 397.28 95.856 398.864 95.856C399.612 95.856 400.206 95.636 400.734 95.196C401.152 94.844 401.482 94.382 401.68 93.942ZM396.07 91.434H401.438C401.174 90.004 400.096 89.058 398.754 89.058C397.412 89.058 396.312 90.07 396.07 91.434ZM8.28256 129.3L6.98456 129.982C6.76456 129.454 6.30256 129.058 5.70856 129.058C5.13656 129.058 4.60856 129.388 4.60856 130.092C4.60856 130.752 5.04856 130.95 6.08256 131.39C7.40256 131.94 8.01856 132.358 8.37056 132.798C8.76656 133.282 8.85456 133.766 8.85456 134.272C8.85456 136.186 7.46856 137.264 5.70856 137.264C5.33456 137.264 3.28856 137.22 2.51856 134.932L3.88256 134.36C4.05856 134.844 4.58656 135.856 5.73056 135.856C6.76456 135.856 7.22656 135.086 7.22656 134.404C7.22656 133.546 6.61056 133.26 5.75256 132.886C4.65256 132.402 3.94856 132.05 3.53056 131.544C3.17856 131.104 3.11256 130.664 3.11256 130.202C3.11256 128.596 4.23456 127.65 5.77456 127.65C6.25856 127.65 7.55656 127.738 8.28256 129.3ZM15.2249 137.264C12.4529 137.264 10.3849 135.24 10.3849 132.468C10.3849 129.696 12.4309 127.65 15.2249 127.65C18.0189 127.65 20.0649 129.696 20.0649 132.468C20.0649 135.24 17.9969 137.264 15.2249 137.264ZM15.2249 129.058C13.5529 129.058 12.0129 130.246 12.0129 132.468C12.0129 134.712 13.5969 135.856 15.2249 135.856C16.8749 135.856 18.4369 134.69 18.4369 132.468C18.4369 130.224 16.8969 129.058 15.2249 129.058ZM24.078 127.87V133.194C24.078 133.832 24.078 134.58 24.518 135.152C24.76 135.46 25.244 135.856 26.124 135.856C27.004 135.856 27.488 135.46 27.73 135.152C28.17 134.58 28.17 133.832 28.17 133.194V127.87H29.754V133.37C29.754 134.492 29.644 135.328 28.918 136.12C28.104 136.978 27.026 137.264 26.124 137.264C25.222 137.264 24.144 136.978 23.33 136.12C22.604 135.328 22.494 134.492 22.494 133.37V127.87H24.078ZM32.7421 137V127.87H34.3261V128.926C34.6121 128.552 35.4261 127.65 36.9441 127.65C38.0221 127.65 39.0121 128.09 39.5621 128.904C40.0241 129.586 40.0901 130.334 40.0901 131.346V137H38.5061V131.39C38.5061 130.84 38.4621 130.202 38.0881 129.718C37.7801 129.322 37.2961 129.058 36.5921 129.058C36.0421 129.058 35.4481 129.212 34.9861 129.762C34.3701 130.488 34.3261 131.566 34.3261 132.226V137H32.7421ZM50.0721 129.168V120.962H51.6561V137H50.0721V135.724C49.5441 136.406 48.5541 137.264 46.9481 137.264C44.6381 137.264 42.5041 135.636 42.5041 132.424C42.5041 129.278 44.6161 127.65 46.9481 127.65C48.7081 127.65 49.6541 128.618 50.0721 129.168ZM47.1241 129.058C45.5621 129.058 44.1321 130.202 44.1321 132.424C44.1321 134.382 45.2321 135.856 47.1241 135.856C49.0601 135.856 50.1601 134.25 50.1601 132.446C50.1601 130.092 48.5321 129.058 47.1241 129.058ZM61.3749 135.724V142.06H59.7909V127.87H61.3749V129.146C62.4529 127.804 63.8389 127.65 64.4989 127.65C67.3589 127.65 68.9429 130.026 68.9429 132.49C68.9429 134.998 67.3369 137.264 64.5649 137.264C63.0909 137.264 62.0569 136.604 61.3749 135.724ZM64.3449 135.856C66.1929 135.856 67.3149 134.316 67.3149 132.49C67.3149 130.246 65.7969 129.058 64.3229 129.058C62.8489 129.058 61.2869 130.268 61.2869 132.468C61.2869 134.338 62.4749 135.856 64.3449 135.856ZM71.371 137V127.87H72.955V128.86C73.109 128.618 73.791 127.65 75.023 127.65C75.507 127.65 76.035 127.826 76.431 128.024L75.683 129.454C75.331 129.212 75.001 129.146 74.759 129.146C74.121 129.146 73.725 129.41 73.483 129.718C73.219 130.07 72.955 130.686 72.955 132.182V137H71.371ZM81.6117 137.264C78.8397 137.264 76.7717 135.24 76.7717 132.468C76.7717 129.696 78.8177 127.65 81.6117 127.65C84.4057 127.65 86.4517 129.696 86.4517 132.468C86.4517 135.24 84.3837 137.264 81.6117 137.264ZM81.6117 129.058C79.9397 129.058 78.3997 130.246 78.3997 132.468C78.3997 134.712 79.9837 135.856 81.6117 135.856C83.2617 135.856 84.8237 134.69 84.8237 132.468C84.8237 130.224 83.2837 129.058 81.6117 129.058ZM95.8768 129.168V120.962H97.4608V137H95.8768V135.724C95.3488 136.406 94.3588 137.264 92.7528 137.264C90.4428 137.264 88.3088 135.636 88.3088 132.424C88.3088 129.278 90.4208 127.65 92.7528 127.65C94.5128 127.65 95.4588 128.618 95.8768 129.168ZM92.9288 129.058C91.3668 129.058 89.9368 130.202 89.9368 132.424C89.9368 134.382 91.0368 135.856 92.9288 135.856C94.8648 135.856 95.9648 134.25 95.9648 132.446C95.9648 130.092 94.3368 129.058 92.9288 129.058ZM102.045 127.87V133.194C102.045 133.832 102.045 134.58 102.485 135.152C102.727 135.46 103.211 135.856 104.091 135.856C104.971 135.856 105.455 135.46 105.697 135.152C106.137 134.58 106.137 133.832 106.137 133.194V127.87H107.721V133.37C107.721 134.492 107.611 135.328 106.885 136.12C106.071 136.978 104.993 137.264 104.091 137.264C103.189 137.264 102.111 136.978 101.297 136.12C100.571 135.328 100.461 134.492 100.461 133.37V127.87H102.045ZM117.859 128.53V130.422C117.023 129.366 115.813 129.058 114.999 129.058C113.305 129.058 111.765 130.246 111.765 132.468C111.765 134.69 113.349 135.856 114.977 135.856C115.923 135.856 117.089 135.438 117.925 134.426V136.318C116.935 137.044 115.879 137.264 115.021 137.264C112.183 137.264 110.137 135.24 110.137 132.49C110.137 129.696 112.205 127.65 115.021 127.65C116.473 127.65 117.419 128.222 117.859 128.53ZM127.131 133.942L128.451 134.668C128.187 135.174 127.791 135.724 127.329 136.142C126.493 136.89 125.459 137.264 124.293 137.264C122.093 137.264 119.783 135.878 119.783 132.49C119.783 129.762 121.455 127.65 124.205 127.65C125.987 127.65 127.109 128.53 127.659 129.322C128.231 130.136 128.561 131.544 128.517 132.754H121.411C121.433 134.646 122.731 135.856 124.315 135.856C125.063 135.856 125.657 135.636 126.185 135.196C126.603 134.844 126.933 134.382 127.131 133.942ZM121.521 131.434H126.889C126.625 130.004 125.547 129.058 124.205 129.058C122.863 129.058 121.763 130.07 121.521 131.434ZM137.943 129.168V120.962H139.527V137H137.943V135.724C137.415 136.406 136.425 137.264 134.819 137.264C132.509 137.264 130.375 135.636 130.375 132.424C130.375 129.278 132.487 127.65 134.819 127.65C136.579 127.65 137.525 128.618 137.943 129.168ZM134.995 129.058C133.433 129.058 132.003 130.202 132.003 132.424C132.003 134.382 133.103 135.856 134.995 135.856C136.931 135.856 138.031 134.25 138.031 132.446C138.031 130.092 136.403 129.058 134.995 129.058ZM154.658 129.168V120.962H156.242V137H154.658V135.724C154.13 136.406 153.14 137.264 151.534 137.264C149.224 137.264 147.09 135.636 147.09 132.424C147.09 129.278 149.202 127.65 151.534 127.65C153.294 127.65 154.24 128.618 154.658 129.168ZM151.71 129.058C150.148 129.058 148.718 130.202 148.718 132.424C148.718 134.382 149.818 135.856 151.71 135.856C153.646 135.856 154.746 134.25 154.746 132.446C154.746 130.092 153.118 129.058 151.71 129.058ZM160.826 127.87V133.194C160.826 133.832 160.826 134.58 161.266 135.152C161.508 135.46 161.992 135.856 162.872 135.856C163.752 135.856 164.236 135.46 164.478 135.152C164.918 134.58 164.918 133.832 164.918 133.194V127.87H166.502V133.37C166.502 134.492 166.392 135.328 165.666 136.12C164.852 136.978 163.774 137.264 162.872 137.264C161.97 137.264 160.892 136.978 160.078 136.12C159.352 135.328 159.242 134.492 159.242 133.37V127.87H160.826ZM169.49 137V127.87H171.074V128.86C171.228 128.618 171.91 127.65 173.142 127.65C173.626 127.65 174.154 127.826 174.55 128.024L173.802 129.454C173.45 129.212 173.12 129.146 172.878 129.146C172.24 129.146 171.844 129.41 171.602 129.718C171.338 130.07 171.074 130.686 171.074 132.182V137H169.49ZM176 127.87H177.584V137H176V127.87ZM175.67 124.416C175.67 123.8 176.176 123.294 176.792 123.294C177.408 123.294 177.914 123.8 177.914 124.416C177.914 125.032 177.408 125.538 176.792 125.538C176.176 125.538 175.67 125.032 175.67 124.416ZM180.576 137V127.87H182.16V128.926C182.446 128.552 183.26 127.65 184.778 127.65C185.856 127.65 186.846 128.09 187.396 128.904C187.858 129.586 187.924 130.334 187.924 131.346V137H186.34V131.39C186.34 130.84 186.296 130.202 185.922 129.718C185.614 129.322 185.13 129.058 184.426 129.058C183.876 129.058 183.282 129.212 182.82 129.762C182.204 130.488 182.16 131.566 182.16 132.226V137H180.576ZM197.906 129.168V127.87H199.49V136.78C199.49 137.77 199.49 139.178 198.61 140.366C197.928 141.29 196.674 142.06 194.958 142.06C193.396 142.06 192.318 141.444 191.702 140.828C191.086 140.212 190.514 139.222 190.514 137.88H192.076C192.076 138.65 192.384 139.332 192.78 139.772C193.44 140.498 194.276 140.652 194.98 140.652C196.102 140.652 196.872 140.256 197.4 139.376C197.862 138.628 197.906 137.814 197.906 137.044V135.724C197.378 136.406 196.388 137.264 194.782 137.264C193.44 137.264 192.362 136.736 191.658 136.032C191.042 135.416 190.338 134.272 190.338 132.424C190.338 130.642 190.998 129.542 191.658 128.882C192.428 128.134 193.55 127.65 194.782 127.65C196.124 127.65 197.18 128.222 197.906 129.168ZM194.958 129.058C193.99 129.058 193.33 129.476 192.89 129.916C192.12 130.708 191.966 131.676 191.966 132.424C191.966 133.216 192.12 134.294 193 135.108C193.506 135.57 194.122 135.856 194.958 135.856C195.794 135.856 196.454 135.592 196.96 135.086C197.576 134.492 197.994 133.524 197.994 132.446C197.994 131.368 197.598 130.422 197.026 129.872C196.52 129.366 195.772 129.058 194.958 129.058ZM209.209 135.724V137H207.625V120.962H209.209V129.146C210.287 127.804 211.673 127.65 212.333 127.65C215.193 127.65 216.777 130.026 216.777 132.49C216.777 134.998 215.171 137.264 212.399 137.264C210.925 137.264 209.891 136.604 209.209 135.724ZM212.179 135.856C214.027 135.856 215.149 134.316 215.149 132.49C215.149 130.246 213.631 129.058 212.157 129.058C210.683 129.058 209.121 130.268 209.121 132.468C209.121 134.338 210.309 135.856 212.179 135.856ZM226.201 129.168V127.87H227.785V137H226.201V135.724C225.673 136.406 224.683 137.264 223.077 137.264C220.767 137.264 218.633 135.636 218.633 132.424C218.633 129.278 220.745 127.65 223.077 127.65C224.837 127.65 225.783 128.618 226.201 129.168ZM223.253 129.058C221.691 129.058 220.261 130.202 220.261 132.424C220.261 134.382 221.361 135.856 223.253 135.856C225.189 135.856 226.289 134.25 226.289 132.446C226.289 130.092 224.661 129.058 223.253 129.058ZM233.997 129.322H232.413V137H230.829V129.322H229.861V127.87H230.829V124.57H232.413V127.87H233.997V129.322ZM239.132 129.322H237.548V137H235.964V129.322H234.996V127.87H235.964V124.57H237.548V127.87H239.132V129.322ZM240.625 127.87H242.209V137H240.625V127.87ZM240.295 124.416C240.295 123.8 240.801 123.294 241.417 123.294C242.033 123.294 242.539 123.8 242.539 124.416C242.539 125.032 242.033 125.538 241.417 125.538C240.801 125.538 240.295 125.032 240.295 124.416ZM245.201 137V127.87H246.785V128.926C247.071 128.552 247.885 127.65 249.403 127.65C250.481 127.65 251.471 128.09 252.021 128.904C252.483 129.586 252.549 130.334 252.549 131.346V137H250.965V131.39C250.965 130.84 250.921 130.202 250.547 129.718C250.239 129.322 249.755 129.058 249.051 129.058C248.501 129.058 247.907 129.212 247.445 129.762C246.829 130.488 246.785 131.566 246.785 132.226V137H245.201ZM262.531 129.168V127.87H264.115V136.78C264.115 137.77 264.115 139.178 263.235 140.366C262.553 141.29 261.299 142.06 259.583 142.06C258.021 142.06 256.943 141.444 256.327 140.828C255.711 140.212 255.139 139.222 255.139 137.88H256.701C256.701 138.65 257.009 139.332 257.405 139.772C258.065 140.498 258.901 140.652 259.605 140.652C260.727 140.652 261.497 140.256 262.025 139.376C262.487 138.628 262.531 137.814 262.531 137.044V135.724C262.003 136.406 261.013 137.264 259.407 137.264C258.065 137.264 256.987 136.736 256.283 136.032C255.667 135.416 254.963 134.272 254.963 132.424C254.963 130.642 255.623 129.542 256.283 128.882C257.053 128.134 258.175 127.65 259.407 127.65C260.749 127.65 261.805 128.222 262.531 129.168ZM259.583 129.058C258.615 129.058 257.955 129.476 257.515 129.916C256.745 130.708 256.591 131.676 256.591 132.424C256.591 133.216 256.745 134.294 257.625 135.108C258.131 135.57 258.747 135.856 259.583 135.856C260.419 135.856 261.079 135.592 261.585 135.086C262.201 134.492 262.619 133.524 262.619 132.446C262.619 131.368 262.223 130.422 261.651 129.872C261.145 129.366 260.397 129.058 259.583 129.058ZM265.839 139.926L267.643 134.844L269.095 135.372L266.873 140.344L265.839 139.926ZM284.252 129.168V127.87H285.836V137H284.252V135.724C283.724 136.406 282.734 137.264 281.128 137.264C278.818 137.264 276.684 135.636 276.684 132.424C276.684 129.278 278.796 127.65 281.128 127.65C282.888 127.65 283.834 128.618 284.252 129.168ZM281.304 129.058C279.742 129.058 278.312 130.202 278.312 132.424C278.312 134.382 279.412 135.856 281.304 135.856C283.24 135.856 284.34 134.25 284.34 132.446C284.34 130.092 282.712 129.058 281.304 129.058ZM288.836 137V127.87H290.42V128.926C290.706 128.552 291.52 127.65 293.038 127.65C294.116 127.65 295.106 128.09 295.656 128.904C296.118 129.586 296.184 130.334 296.184 131.346V137H294.6V131.39C294.6 130.84 294.556 130.202 294.182 129.718C293.874 129.322 293.39 129.058 292.686 129.058C292.136 129.058 291.542 129.212 291.08 129.762C290.464 130.488 290.42 131.566 290.42 132.226V137H288.836ZM306.166 129.168V120.962H307.75V137H306.166V135.724C305.638 136.406 304.648 137.264 303.042 137.264C300.732 137.264 298.598 135.636 298.598 132.424C298.598 129.278 300.71 127.65 303.042 127.65C304.802 127.65 305.748 128.618 306.166 129.168ZM303.218 129.058C301.656 129.058 300.226 130.202 300.226 132.424C300.226 134.382 301.326 135.856 303.218 135.856C305.154 135.856 306.254 134.25 306.254 132.446C306.254 130.092 304.626 129.058 303.218 129.058ZM317.469 135.724V142.06H315.885V127.87H317.469V129.146C318.547 127.804 319.933 127.65 320.593 127.65C323.453 127.65 325.037 130.026 325.037 132.49C325.037 134.998 323.431 137.264 320.659 137.264C319.185 137.264 318.151 136.604 317.469 135.724ZM320.439 135.856C322.287 135.856 323.409 134.316 323.409 132.49C323.409 130.246 321.891 129.058 320.417 129.058C318.943 129.058 317.381 130.268 317.381 132.468C317.381 134.338 318.569 135.856 320.439 135.856ZM327.465 137V127.87H329.049V128.86C329.203 128.618 329.885 127.65 331.117 127.65C331.601 127.65 332.129 127.826 332.525 128.024L331.777 129.454C331.425 129.212 331.095 129.146 330.853 129.146C330.215 129.146 329.819 129.41 329.577 129.718C329.313 130.07 329.049 130.686 329.049 132.182V137H327.465ZM337.705 137.264C334.933 137.264 332.865 135.24 332.865 132.468C332.865 129.696 334.911 127.65 337.705 127.65C340.499 127.65 342.545 129.696 342.545 132.468C342.545 135.24 340.477 137.264 337.705 137.264ZM337.705 129.058C336.033 129.058 334.493 130.246 334.493 132.468C334.493 134.712 336.077 135.856 337.705 135.856C339.355 135.856 340.917 134.69 340.917 132.468C340.917 130.224 339.377 129.058 337.705 129.058ZM343.655 127.87H345.415L348.143 134.03L350.871 127.87H352.631L348.143 137.594L343.655 127.87ZM354.299 127.87H355.883V137H354.299V127.87ZM353.969 124.416C353.969 123.8 354.475 123.294 355.091 123.294C355.707 123.294 356.213 123.8 356.213 124.416C356.213 125.032 355.707 125.538 355.091 125.538C354.475 125.538 353.969 125.032 353.969 124.416ZM365.871 129.168V120.962H367.455V137H365.871V135.724C365.343 136.406 364.353 137.264 362.747 137.264C360.437 137.264 358.303 135.636 358.303 132.424C358.303 129.278 360.415 127.65 362.747 127.65C364.507 127.65 365.453 128.618 365.871 129.168ZM362.923 129.058C361.361 129.058 359.931 130.202 359.931 132.424C359.931 134.382 361.031 135.856 362.923 135.856C364.859 135.856 365.959 134.25 365.959 132.446C365.959 130.092 364.331 129.058 362.923 129.058ZM377.231 133.942L378.551 134.668C378.287 135.174 377.891 135.724 377.429 136.142C376.593 136.89 375.559 137.264 374.393 137.264C372.193 137.264 369.883 135.878 369.883 132.49C369.883 129.762 371.555 127.65 374.305 127.65C376.087 127.65 377.209 128.53 377.759 129.322C378.331 130.136 378.661 131.544 378.617 132.754H371.511C371.533 134.646 372.831 135.856 374.415 135.856C375.163 135.856 375.757 135.636 376.285 135.196C376.703 134.844 377.033 134.382 377.231 133.942ZM371.621 131.434H376.989C376.725 130.004 375.647 129.058 374.305 129.058C372.963 129.058 371.863 130.07 371.621 131.434ZM386.107 129.3L384.809 129.982C384.589 129.454 384.127 129.058 383.533 129.058C382.961 129.058 382.433 129.388 382.433 130.092C382.433 130.752 382.873 130.95 383.907 131.39C385.227 131.94 385.843 132.358 386.195 132.798C386.591 133.282 386.679 133.766 386.679 134.272C386.679 136.186 385.293 137.264 383.533 137.264C383.159 137.264 381.113 137.22 380.343 134.932L381.707 134.36C381.883 134.844 382.411 135.856 383.555 135.856C384.589 135.856 385.051 135.086 385.051 134.404C385.051 133.546 384.435 133.26 383.577 132.886C382.477 132.402 381.773 132.05 381.355 131.544C381.003 131.104 380.937 130.664 380.937 130.202C380.937 128.596 382.059 127.65 383.599 127.65C384.083 127.65 385.381 127.738 386.107 129.3ZM400.912 129.168V127.87H402.496V137H400.912V135.724C400.384 136.406 399.394 137.264 397.788 137.264C395.478 137.264 393.344 135.636 393.344 132.424C393.344 129.278 395.456 127.65 397.788 127.65C399.548 127.65 400.494 128.618 400.912 129.168ZM397.964 129.058C396.402 129.058 394.972 130.202 394.972 132.424C394.972 134.382 396.072 135.856 397.964 135.856C399.9 135.856 401 134.25 401 132.446C401 130.092 399.372 129.058 397.964 129.058ZM35.847 169.3L34.549 169.982C34.329 169.454 33.867 169.058 33.273 169.058C32.701 169.058 32.173 169.388 32.173 170.092C32.173 170.752 32.613 170.95 33.647 171.39C34.967 171.94 35.583 172.358 35.935 172.798C36.331 173.282 36.419 173.766 36.419 174.272C36.419 176.186 35.033 177.264 33.273 177.264C32.899 177.264 30.853 177.22 30.083 174.932L31.447 174.36C31.623 174.844 32.151 175.856 33.295 175.856C34.329 175.856 34.791 175.086 34.791 174.404C34.791 173.546 34.175 173.26 33.317 172.886C32.217 172.402 31.513 172.05 31.095 171.544C30.743 171.104 30.677 170.664 30.677 170.202C30.677 168.596 31.799 167.65 33.339 167.65C33.823 167.65 35.121 167.738 35.847 169.3ZM38.5214 177V167.87H40.1054V168.838C40.6114 168.09 41.4034 167.65 42.3714 167.65C44.0214 167.65 44.6814 168.816 44.8574 169.124C45.7374 167.738 46.9914 167.65 47.6074 167.65C50.3134 167.65 50.5774 169.916 50.5774 171.214V177H48.9934V171.456C48.9934 170.422 48.8614 169.058 47.3654 169.058C45.5394 169.058 45.3414 170.818 45.3414 171.918V177H43.7574V171.588C43.7574 170.95 43.7794 169.058 42.1074 169.058C40.3034 169.058 40.1054 170.928 40.1054 172.028V177H38.5214ZM57.8499 177.264C55.0779 177.264 53.0099 175.24 53.0099 172.468C53.0099 169.696 55.0559 167.65 57.8499 167.65C60.6439 167.65 62.6899 169.696 62.6899 172.468C62.6899 175.24 60.6219 177.264 57.8499 177.264ZM57.8499 169.058C56.1779 169.058 54.6379 170.246 54.6379 172.468C54.6379 174.712 56.2219 175.856 57.8499 175.856C59.4999 175.856 61.0619 174.69 61.0619 172.468C61.0619 170.224 59.5219 169.058 57.8499 169.058ZM69.387 177.264C66.615 177.264 64.547 175.24 64.547 172.468C64.547 169.696 66.593 167.65 69.387 167.65C72.181 167.65 74.227 169.696 74.227 172.468C74.227 175.24 72.159 177.264 69.387 177.264ZM69.387 169.058C67.715 169.058 66.175 170.246 66.175 172.468C66.175 174.712 67.759 175.856 69.387 175.856C71.037 175.856 72.599 174.69 72.599 172.468C72.599 170.224 71.059 169.058 69.387 169.058ZM79.8682 169.322H78.2842V177H76.7002V169.322H75.7322V167.87H76.7002V164.57H78.2842V167.87H79.8682V169.322ZM81.3612 177V160.962H82.9452V168.926C83.2312 168.552 84.0452 167.65 85.5632 167.65C86.6412 167.65 87.6312 168.09 88.1812 168.904C88.6432 169.586 88.7092 170.334 88.7092 171.346V177H87.1252V171.39C87.1252 170.84 87.0812 170.202 86.7072 169.718C86.3992 169.322 85.9152 169.058 85.2112 169.058C84.6612 169.058 84.0672 169.212 83.6052 169.762C82.9892 170.488 82.9452 171.566 82.9452 172.226V177H81.3612ZM98.2564 173.942L99.5764 174.668C99.3124 175.174 98.9164 175.724 98.4544 176.142C97.6184 176.89 96.5844 177.264 95.4184 177.264C93.2184 177.264 90.9084 175.878 90.9084 172.49C90.9084 169.762 92.5804 167.65 95.3304 167.65C97.1124 167.65 98.2344 168.53 98.7844 169.322C99.3564 170.136 99.6864 171.544 99.6424 172.754H92.5364C92.5584 174.646 93.8564 175.856 95.4404 175.856C96.1884 175.856 96.7824 175.636 97.3104 175.196C97.7284 174.844 98.0584 174.382 98.2564 173.942ZM92.6464 171.434H98.0144C97.7504 170.004 96.6724 169.058 95.3304 169.058C93.9884 169.058 92.8884 170.07 92.6464 171.434ZM102.072 177V167.87H103.656V168.86C103.81 168.618 104.492 167.65 105.724 167.65C106.208 167.65 106.736 167.826 107.132 168.024L106.384 169.454C106.032 169.212 105.702 169.146 105.46 169.146C104.822 169.146 104.426 169.41 104.184 169.718C103.92 170.07 103.656 170.686 103.656 172.182V177H102.072ZM120.713 169.168V167.87H122.297V177H120.713V175.724C120.185 176.406 119.195 177.264 117.589 177.264C115.279 177.264 113.145 175.636 113.145 172.424C113.145 169.278 115.257 167.65 117.589 167.65C119.349 167.65 120.295 168.618 120.713 169.168ZM117.765 169.058C116.203 169.058 114.773 170.202 114.773 172.424C114.773 174.382 115.873 175.856 117.765 175.856C119.701 175.856 120.801 174.25 120.801 172.446C120.801 170.092 119.173 169.058 117.765 169.058ZM125.297 177V167.87H126.881V168.926C127.167 168.552 127.981 167.65 129.499 167.65C130.577 167.65 131.567 168.09 132.117 168.904C132.579 169.586 132.645 170.334 132.645 171.346V177H131.061V171.39C131.061 170.84 131.017 170.202 130.643 169.718C130.335 169.322 129.851 169.058 129.147 169.058C128.597 169.058 128.003 169.212 127.541 169.762C126.925 170.488 126.881 171.566 126.881 172.226V177H125.297ZM142.627 169.168V160.962H144.211V177H142.627V175.724C142.099 176.406 141.109 177.264 139.503 177.264C137.193 177.264 135.059 175.636 135.059 172.424C135.059 169.278 137.171 167.65 139.503 167.65C141.263 167.65 142.209 168.618 142.627 169.168ZM139.679 169.058C138.117 169.058 136.687 170.202 136.687 172.424C136.687 174.382 137.787 175.856 139.679 175.856C141.615 175.856 142.715 174.25 142.715 172.446C142.715 170.092 141.087 169.058 139.679 169.058ZM152.346 177V167.87H153.93V168.838C154.436 168.09 155.228 167.65 156.196 167.65C157.846 167.65 158.506 168.816 158.682 169.124C159.562 167.738 160.816 167.65 161.432 167.65C164.138 167.65 164.402 169.916 164.402 171.214V177H162.818V171.456C162.818 170.422 162.686 169.058 161.19 169.058C159.364 169.058 159.166 170.818 159.166 171.918V177H157.582V171.588C157.582 170.95 157.604 169.058 155.932 169.058C154.128 169.058 153.93 170.928 153.93 172.028V177H152.346ZM171.674 177.264C168.902 177.264 166.834 175.24 166.834 172.468C166.834 169.696 168.88 167.65 171.674 167.65C174.468 167.65 176.514 169.696 176.514 172.468C176.514 175.24 174.446 177.264 171.674 177.264ZM171.674 169.058C170.002 169.058 168.462 170.246 168.462 172.468C168.462 174.712 170.046 175.856 171.674 175.856C173.324 175.856 174.886 174.69 174.886 172.468C174.886 170.224 173.346 169.058 171.674 169.058ZM178.943 177V167.87H180.527V168.86C180.681 168.618 181.363 167.65 182.595 167.65C183.079 167.65 183.607 167.826 184.003 168.024L183.255 169.454C182.903 169.212 182.573 169.146 182.331 169.146C181.693 169.146 181.297 169.41 181.055 169.718C180.791 170.07 180.527 170.686 180.527 172.182V177H178.943ZM191.692 173.942L193.012 174.668C192.748 175.174 192.352 175.724 191.89 176.142C191.054 176.89 190.02 177.264 188.854 177.264C186.654 177.264 184.344 175.878 184.344 172.49C184.344 169.762 186.016 167.65 188.766 167.65C190.548 167.65 191.67 168.53 192.22 169.322C192.792 170.136 193.122 171.544 193.078 172.754H185.972C185.994 174.646 187.292 175.856 188.876 175.856C189.624 175.856 190.218 175.636 190.746 175.196C191.164 174.844 191.494 174.382 191.692 173.942ZM186.082 171.434H191.45C191.186 170.004 190.108 169.058 188.766 169.058C187.424 169.058 186.324 170.07 186.082 171.434ZM205.702 169.3L204.404 169.982C204.184 169.454 203.722 169.058 203.128 169.058C202.556 169.058 202.028 169.388 202.028 170.092C202.028 170.752 202.468 170.95 203.502 171.39C204.822 171.94 205.438 172.358 205.79 172.798C206.186 173.282 206.274 173.766 206.274 174.272C206.274 176.186 204.888 177.264 203.128 177.264C202.754 177.264 200.708 177.22 199.938 174.932L201.302 174.36C201.478 174.844 202.006 175.856 203.15 175.856C204.184 175.856 204.646 175.086 204.646 174.404C204.646 173.546 204.03 173.26 203.172 172.886C202.072 172.402 201.368 172.05 200.95 171.544C200.598 171.104 200.532 170.664 200.532 170.202C200.532 168.596 201.654 167.65 203.194 167.65C203.678 167.65 204.976 167.738 205.702 169.3ZM215.373 169.168V167.87H216.957V177H215.373V175.724C214.845 176.406 213.855 177.264 212.249 177.264C209.939 177.264 207.805 175.636 207.805 172.424C207.805 169.278 209.917 167.65 212.249 167.65C214.009 167.65 214.955 168.618 215.373 169.168ZM212.425 169.058C210.863 169.058 209.433 170.202 209.433 172.424C209.433 174.382 210.533 175.856 212.425 175.856C214.361 175.856 215.461 174.25 215.461 172.446C215.461 170.092 213.833 169.058 212.425 169.058ZM223.169 169.322H221.585V177H220.001V169.322H219.033V167.87H220.001V164.57H221.585V167.87H223.169V169.322ZM224.662 167.87H226.246V177H224.662V167.87ZM224.332 164.416C224.332 163.8 224.838 163.294 225.454 163.294C226.07 163.294 226.576 163.8 226.576 164.416C226.576 165.032 226.07 165.538 225.454 165.538C224.838 165.538 224.332 165.032 224.332 164.416ZM234.298 169.3L233 169.982C232.78 169.454 232.318 169.058 231.724 169.058C231.152 169.058 230.624 169.388 230.624 170.092C230.624 170.752 231.064 170.95 232.098 171.39C233.418 171.94 234.034 172.358 234.386 172.798C234.782 173.282 234.87 173.766 234.87 174.272C234.87 176.186 233.484 177.264 231.724 177.264C231.35 177.264 229.304 177.22 228.534 174.932L229.898 174.36C230.074 174.844 230.602 175.856 231.746 175.856C232.78 175.856 233.242 175.086 233.242 174.404C233.242 173.546 232.626 173.26 231.768 172.886C230.668 172.402 229.964 172.05 229.546 171.544C229.194 171.104 229.128 170.664 229.128 170.202C229.128 168.596 230.25 167.65 231.79 167.65C232.274 167.65 233.572 167.738 234.298 169.3ZM240.845 169.322H238.601V177H237.017V169.322H236.137V167.87H237.017V163.888C237.017 163.052 237.083 161.996 237.897 161.314C238.337 160.94 238.997 160.72 239.723 160.72C240.295 160.72 240.669 160.852 240.845 160.918V162.458C240.515 162.326 240.141 162.26 239.811 162.26C239.459 162.26 239.041 162.348 238.799 162.744C238.601 163.074 238.601 163.58 238.601 164.064V167.87H240.845V169.322ZM242.665 182.06L245.569 176.142L241.367 167.87H243.171L246.405 174.404L249.375 167.87H251.135L244.425 182.06H242.665ZM252.807 167.87H254.391V177H252.807V167.87ZM252.477 164.416C252.477 163.8 252.983 163.294 253.599 163.294C254.215 163.294 254.721 163.8 254.721 164.416C254.721 165.032 254.215 165.538 253.599 165.538C252.983 165.538 252.477 165.032 252.477 164.416ZM257.383 177V167.87H258.967V168.926C259.253 168.552 260.067 167.65 261.585 167.65C262.663 167.65 263.653 168.09 264.203 168.904C264.665 169.586 264.731 170.334 264.731 171.346V177H263.147V171.39C263.147 170.84 263.103 170.202 262.729 169.718C262.421 169.322 261.937 169.058 261.233 169.058C260.683 169.058 260.089 169.212 259.627 169.762C259.011 170.488 258.967 171.566 258.967 172.226V177H257.383ZM274.713 169.168V167.87H276.297V176.78C276.297 177.77 276.297 179.178 275.417 180.366C274.735 181.29 273.481 182.06 271.765 182.06C270.203 182.06 269.125 181.444 268.509 180.828C267.893 180.212 267.321 179.222 267.321 177.88H268.883C268.883 178.65 269.191 179.332 269.587 179.772C270.247 180.498 271.083 180.652 271.787 180.652C272.909 180.652 273.679 180.256 274.207 179.376C274.669 178.628 274.713 177.814 274.713 177.044V175.724C274.185 176.406 273.195 177.264 271.589 177.264C270.247 177.264 269.169 176.736 268.465 176.032C267.849 175.416 267.145 174.272 267.145 172.424C267.145 170.642 267.805 169.542 268.465 168.882C269.235 168.134 270.357 167.65 271.589 167.65C272.931 167.65 273.987 168.222 274.713 169.168ZM271.765 169.058C270.797 169.058 270.137 169.476 269.697 169.916C268.927 170.708 268.773 171.676 268.773 172.424C268.773 173.216 268.927 174.294 269.807 175.108C270.313 175.57 270.929 175.856 271.765 175.856C272.601 175.856 273.261 175.592 273.767 175.086C274.383 174.492 274.801 173.524 274.801 172.446C274.801 171.368 274.405 170.422 273.833 169.872C273.327 169.366 272.579 169.058 271.765 169.058ZM286.016 175.724V177H284.432V160.962H286.016V169.146C287.094 167.804 288.48 167.65 289.14 167.65C292 167.65 293.584 170.026 293.584 172.49C293.584 174.998 291.978 177.264 289.206 177.264C287.732 177.264 286.698 176.604 286.016 175.724ZM288.986 175.856C290.834 175.856 291.956 174.316 291.956 172.49C291.956 170.246 290.438 169.058 288.964 169.058C287.49 169.058 285.928 170.268 285.928 172.468C285.928 174.338 287.116 175.856 288.986 175.856ZM303.008 169.168V167.87H304.592V177H303.008V175.724C302.48 176.406 301.49 177.264 299.884 177.264C297.574 177.264 295.44 175.636 295.44 172.424C295.44 169.278 297.552 167.65 299.884 167.65C301.644 167.65 302.59 168.618 303.008 169.168ZM300.06 169.058C298.498 169.058 297.068 170.202 297.068 172.424C297.068 174.382 298.168 175.856 300.06 175.856C301.996 175.856 303.096 174.25 303.096 172.446C303.096 170.092 301.468 169.058 300.06 169.058ZM310.804 169.322H309.22V177H307.636V169.322H306.668V167.87H307.636V164.57H309.22V167.87H310.804V169.322ZM315.938 169.322H314.354V177H312.77V169.322H311.802V167.87H312.77V164.57H314.354V167.87H315.938V169.322ZM317.432 167.87H319.016V177H317.432V167.87ZM317.102 164.416C317.102 163.8 317.608 163.294 318.224 163.294C318.84 163.294 319.346 163.8 319.346 164.416C319.346 165.032 318.84 165.538 318.224 165.538C317.608 165.538 317.102 165.032 317.102 164.416ZM322.008 177V167.87H323.592V168.926C323.878 168.552 324.692 167.65 326.21 167.65C327.288 167.65 328.278 168.09 328.828 168.904C329.29 169.586 329.356 170.334 329.356 171.346V177H327.772V171.39C327.772 170.84 327.728 170.202 327.354 169.718C327.046 169.322 326.562 169.058 325.858 169.058C325.308 169.058 324.714 169.212 324.252 169.762C323.636 170.488 323.592 171.566 323.592 172.226V177H322.008ZM339.338 169.168V167.87H340.922V176.78C340.922 177.77 340.922 179.178 340.042 180.366C339.36 181.29 338.106 182.06 336.39 182.06C334.828 182.06 333.75 181.444 333.134 180.828C332.518 180.212 331.946 179.222 331.946 177.88H333.508C333.508 178.65 333.816 179.332 334.212 179.772C334.872 180.498 335.708 180.652 336.412 180.652C337.534 180.652 338.304 180.256 338.832 179.376C339.294 178.628 339.338 177.814 339.338 177.044V175.724C338.81 176.406 337.82 177.264 336.214 177.264C334.872 177.264 333.794 176.736 333.09 176.032C332.474 175.416 331.77 174.272 331.77 172.424C331.77 170.642 332.43 169.542 333.09 168.882C333.86 168.134 334.982 167.65 336.214 167.65C337.556 167.65 338.612 168.222 339.338 169.168ZM336.39 169.058C335.422 169.058 334.762 169.476 334.322 169.916C333.552 170.708 333.398 171.676 333.398 172.424C333.398 173.216 333.552 174.294 334.432 175.108C334.938 175.57 335.554 175.856 336.39 175.856C337.226 175.856 337.886 175.592 338.392 175.086C339.008 174.492 339.426 173.524 339.426 172.446C339.426 171.368 339.03 170.422 338.458 169.872C337.952 169.366 337.204 169.058 336.39 169.058ZM354.117 169.3L352.819 169.982C352.599 169.454 352.137 169.058 351.543 169.058C350.971 169.058 350.443 169.388 350.443 170.092C350.443 170.752 350.883 170.95 351.917 171.39C353.237 171.94 353.853 172.358 354.205 172.798C354.601 173.282 354.689 173.766 354.689 174.272C354.689 176.186 353.303 177.264 351.543 177.264C351.169 177.264 349.123 177.22 348.353 174.932L349.717 174.36C349.893 174.844 350.421 175.856 351.565 175.856C352.599 175.856 353.061 175.086 353.061 174.404C353.061 173.546 352.445 173.26 351.587 172.886C350.487 172.402 349.783 172.05 349.365 171.544C349.013 171.104 348.947 170.664 348.947 170.202C348.947 168.596 350.069 167.65 351.609 167.65C352.093 167.65 353.391 167.738 354.117 169.3ZM361.059 177.264C358.287 177.264 356.219 175.24 356.219 172.468C356.219 169.696 358.265 167.65 361.059 167.65C363.853 167.65 365.899 169.696 365.899 172.468C365.899 175.24 363.831 177.264 361.059 177.264ZM361.059 169.058C359.387 169.058 357.847 170.246 357.847 172.468C357.847 174.712 359.431 175.856 361.059 175.856C362.709 175.856 364.271 174.69 364.271 172.468C364.271 170.224 362.731 169.058 361.059 169.058ZM369.912 167.87V173.194C369.912 173.832 369.912 174.58 370.352 175.152C370.594 175.46 371.078 175.856 371.958 175.856C372.838 175.856 373.322 175.46 373.564 175.152C374.004 174.58 374.004 173.832 374.004 173.194V167.87H375.588V173.37C375.588 174.492 375.478 175.328 374.752 176.12C373.938 176.978 372.86 177.264 371.958 177.264C371.056 177.264 369.978 176.978 369.164 176.12C368.438 175.328 368.328 174.492 368.328 173.37V167.87H369.912ZM378.576 177V167.87H380.16V168.926C380.446 168.552 381.26 167.65 382.778 167.65C383.856 167.65 384.846 168.09 385.396 168.904C385.858 169.586 385.924 170.334 385.924 171.346V177H384.34V171.39C384.34 170.84 384.296 170.202 383.922 169.718C383.614 169.322 383.13 169.058 382.426 169.058C381.876 169.058 381.282 169.212 380.82 169.762C380.204 170.488 380.16 171.566 380.16 172.226V177H378.576ZM395.906 169.168V160.962H397.49V177H395.906V175.724C395.378 176.406 394.388 177.264 392.782 177.264C390.472 177.264 388.338 175.636 388.338 172.424C388.338 169.278 390.45 167.65 392.782 167.65C394.542 167.65 395.488 168.618 395.906 169.168ZM392.958 169.058C391.396 169.058 389.966 170.202 389.966 172.424C389.966 174.382 391.066 175.856 392.958 175.856C394.894 175.856 395.994 174.25 395.994 172.446C395.994 170.092 394.366 169.058 392.958 169.058ZM400.402 176.12C400.402 175.526 400.908 175.02 401.502 175.02C402.096 175.02 402.602 175.526 402.602 176.12C402.602 176.714 402.096 177.22 401.502 177.22C400.908 177.22 400.402 176.714 400.402 176.12Z" fill="#B4B4B4"/>
</svg>
