<svg width="159" height="283" viewBox="0 0 159 283" fill="none" xmlns="http://www.w3.org/2000/svg">
<path fill-rule="evenodd" clip-rule="evenodd" d="M0 283H154.133L158.039 209.953H157.844C154.979 222.844 151.398 233.651 147.102 242.375C142.805 251.099 137.271 258.13 130.5 263.469C123.729 268.807 115.07 272.844 104.523 275.578C94.1068 278.182 81.3464 279.875 66.2422 280.656L23.4688 282.805V138.664L71.9062 140.617C82.8438 141.138 91.112 142.896 96.7109 145.891C102.44 148.885 106.542 153.247 109.016 158.977C111.62 164.576 113.768 171.672 115.461 180.266H115.656V96.6719H115.461C113.768 105.266 111.62 112.427 109.016 118.156C106.411 123.755 102.31 128.052 96.7109 131.047C91.112 134.042 82.8438 135.799 71.9062 136.32L23.4688 138.273V1.16406L52.7656 2.72656C73.7292 3.76823 90.3958 6.4375 102.766 10.7344C115.135 14.901 124.641 21.4766 131.281 30.4609C138.052 39.4453 143.326 51.8802 147.102 67.7656H147.297L143.977 0.96875H0V283Z" fill="#AF001B"/>
</svg>
