<svg width="320" height="76" viewBox="0 0 320 76" fill="none" xmlns="http://www.w3.org/2000/svg">
<path d="M16.5938 51.3203C16.3594 52.5182 16.2943 53.4427 16.3984 54.0938C16.5026 54.7448 16.9063 55.2266 17.6094 55.5391C18.3125 55.8516 19.4323 56.099 20.9688 56.2812L20.5781 58H0.109375L0.460938 56.2812C2.07552 56.099 3.29948 55.8516 4.13281 55.5391C4.96615 55.2005 5.5651 54.7188 5.92969 54.0938C6.32031 53.4427 6.64583 52.5182 6.90625 51.3203L16.0469 8.27344C16.3073 7.07552 16.3854 6.15104 16.2812 5.5C16.1771 4.84896 15.7734 4.36719 15.0703 4.05469C14.3672 3.74219 13.2474 3.49479 11.7109 3.3125L12.1016 1.59375L32.5703 1.59375L32.2188 3.3125C30.6302 3.49479 29.4062 3.74219 28.5469 4.05469C27.7135 4.36719 27.1016 4.84896 26.7109 5.5C26.3464 6.15104 26.0339 7.07552 25.7734 8.27344L16.5938 51.3203ZM35.8125 26.5156C36.0208 25.5 35.9948 24.7708 35.7344 24.3281C35.474 23.8594 34.862 23.4818 33.8984 23.1953L31.4766 22.6875L31.8281 21.0469L46.0078 19.2891L43.5078 30.8516C44.888 26.9453 46.7891 24.0026 49.2109 22.0234C51.6589 20.0182 54.3802 19.0156 57.375 19.0156C59.5104 19.0156 61.2812 19.4323 62.6875 20.2656C64.0938 21.099 65.0833 22.3099 65.6562 23.8984C66.2552 25.4609 66.3854 27.349 66.0469 29.5625C66.0208 29.8229 65.9688 30.0703 65.8906 30.3047C65.8125 30.5391 65.7474 30.7865 65.6953 31.0469C66.5286 28.4687 67.6484 26.2943 69.0547 24.5234C70.487 22.7266 72.0885 21.3594 73.8594 20.4219C75.6562 19.4844 77.5443 19.0156 79.5234 19.0156C82.9089 19.0156 85.3958 20.0833 86.9844 22.2187C88.5729 24.3542 88.9115 27.4922 88 31.6328L83.9375 50.5391C83.651 51.7891 83.6901 52.7135 84.0547 53.3125C84.4453 53.9115 85.0964 54.2109 86.0078 54.2109C86.6589 54.2109 87.388 54.0807 88.1953 53.8203C89.0026 53.5339 89.7057 53.1302 90.3047 52.6094L89.9141 54.4062C89.0286 55.6302 87.6745 56.6328 85.8516 57.4141C84.0547 58.1953 82.2318 58.5859 80.3828 58.5859C78.1432 58.5859 76.5417 57.8958 75.5781 56.5156C74.6406 55.1354 74.4844 52.9609 75.1094 49.9922L79.25 30.6953C79.7448 28.4297 79.6667 26.6068 79.0156 25.2266C78.3906 23.8203 77.1536 23.1172 75.3047 23.1172C73.8464 23.1172 72.4271 23.651 71.0469 24.7187C69.6927 25.7604 68.4818 27.1797 67.4141 28.9766C66.3724 30.7734 65.5781 32.8177 65.0312 35.1094L60.1875 58H51.2813L57.1406 30.5C57.6094 28.3125 57.5312 26.5417 56.9062 25.1875C56.2812 23.8073 55.0312 23.1172 53.1562 23.1172C51.6979 23.1172 50.2786 23.638 48.8984 24.6797C47.5443 25.7214 46.3333 27.1406 45.2656 28.9375C44.224 30.7344 43.4297 32.7656 42.8828 35.0312L38 58H29.0938L35.8125 26.5156ZM132.531 33C132.531 36.3333 132.062 39.5365 131.125 42.6094C130.214 45.6823 128.885 48.4297 127.141 50.8516C125.396 53.2734 123.299 55.2005 120.852 56.6328C118.43 58.0391 115.734 58.7422 112.766 58.7422C110.474 58.7422 108.664 58.3516 107.336 57.5703C106.034 56.763 105.122 55.8776 104.602 54.9141L101.359 70.2266C101.203 71.0859 101.203 71.75 101.359 72.2188C101.542 72.7135 102.023 73.1042 102.805 73.3906C103.612 73.6771 104.875 73.9505 106.594 74.2109L106.242 75.9688H86.2812L86.6719 74.2109C88.1562 73.9505 89.276 73.6771 90.0312 73.3906C90.8125 73.1302 91.3594 72.7656 91.6719 72.2969C92.0104 71.8281 92.2708 71.1771 92.4531 70.3438L101.75 26.5156C101.958 25.5 101.932 24.7708 101.672 24.3281C101.438 23.8594 100.826 23.4818 99.8359 23.1953L97.4141 22.6875L97.7656 21.0469L111.945 19.2891L109.719 29.7187C110.891 26.2292 112.57 23.5729 114.758 21.75C116.971 19.9271 119.471 19.0156 122.258 19.0156C124.263 19.0156 126.034 19.5885 127.57 20.7344C129.133 21.8542 130.344 23.4687 131.203 25.5781C132.089 27.6615 132.531 30.1354 132.531 33ZM123.312 32.2578C123.312 29.0026 122.857 26.6719 121.945 25.2656C121.034 23.8594 119.758 23.1562 118.117 23.1562C116.294 23.1562 114.536 24.1068 112.844 26.0078C111.177 27.9089 109.927 30.5911 109.094 34.0547L105.148 52.5312C105.409 53.4427 106.021 54.224 106.984 54.875C107.974 55.526 109.211 55.8516 110.695 55.8516C112.388 55.8516 113.898 55.3698 115.227 54.4062C116.581 53.4427 117.766 52.1406 118.781 50.5C119.797 48.8594 120.63 47.0104 121.281 44.9531C121.958 42.8958 122.466 40.7734 122.805 38.5859C123.143 36.3984 123.312 34.2891 123.312 32.2578ZM154.484 19.2891L152.023 30.9687C153.82 28.026 155.37 25.7083 156.672 24.0156C158 22.3229 159.198 21.112 160.266 20.3828C161.359 19.6276 162.479 19.25 163.625 19.25C164.875 19.25 165.812 19.6536 166.438 20.4609C167.089 21.2422 167.414 22.2839 167.414 23.5859C167.414 24.237 167.31 24.862 167.102 25.4609C166.893 26.0339 166.685 26.4766 166.477 26.7891C166.138 26.6589 165.669 26.5417 165.07 26.4375C164.471 26.3333 163.794 26.2812 163.039 26.2812C160.799 26.2812 158.677 26.8672 156.672 28.0391C154.667 29.2109 153.052 30.7214 151.828 32.5703L146.594 58H137.688L144.406 26.5156C144.615 25.5 144.589 24.7708 144.328 24.3281C144.094 23.8594 143.482 23.4818 142.492 23.1953L140.07 22.6875L140.422 21.0469L154.484 19.2891ZM183.234 58.7422C180.083 58.7422 177.336 58 174.992 56.5156C172.648 55.0312 170.826 53.013 169.523 50.4609C168.247 47.8828 167.609 44.9531 167.609 41.6719C167.609 38.651 168.091 35.7865 169.055 33.0781C170.018 30.3698 171.398 27.9609 173.195 25.8516C174.992 23.7161 177.167 22.0495 179.719 20.8516C182.297 19.6276 185.214 19.0156 188.469 19.0156C191.62 19.0156 194.367 19.7578 196.711 21.2422C199.055 22.7005 200.865 24.7187 202.141 27.2969C203.417 29.875 204.055 32.8047 204.055 36.0859C204.055 39.1068 203.573 41.9714 202.609 44.6797C201.672 47.388 200.292 49.8099 198.469 51.9453C196.672 54.0547 194.484 55.7214 191.906 56.9453C189.354 58.1432 186.464 58.7422 183.234 58.7422ZM183.391 56.4766C184.901 56.4766 186.255 55.9948 187.453 55.0312C188.677 54.0677 189.745 52.7656 190.656 51.125C191.568 49.4844 192.336 47.6354 192.961 45.5781C193.586 43.4948 194.055 41.3464 194.367 39.1328C194.68 36.8932 194.849 34.7318 194.875 32.6484C194.901 28.8203 194.341 25.9687 193.195 24.0937C192.049 22.2187 190.422 21.2812 188.312 21.2812C186.802 21.2812 185.435 21.763 184.211 22.7266C182.987 23.6901 181.919 24.9922 181.008 26.6328C180.096 28.2734 179.328 30.1224 178.703 32.1797C178.078 34.237 177.609 36.3854 177.297 38.625C176.984 40.8385 176.828 43 176.828 45.1094C176.802 48.9115 177.349 51.763 178.469 53.6641C179.615 55.5391 181.255 56.4766 183.391 56.4766ZM220.773 19.2891L223.43 51.8672C225.357 49.4453 227.167 47.0104 228.859 44.5625C230.578 42.1146 232.102 39.7057 233.43 37.3359C234.758 34.9401 235.839 32.6354 236.672 30.4219C237.505 28.1823 238.026 26.0859 238.234 24.1328H240.383C240.383 25.3568 239.966 26.3594 239.133 27.1406C238.326 27.8958 237.284 28.2734 236.008 28.2734C234.706 28.2734 233.599 27.8307 232.688 26.9453C231.802 26.0599 231.359 24.9792 231.359 23.7031C231.359 22.349 231.815 21.2292 232.727 20.3437C233.664 19.4583 234.81 19.0156 236.164 19.0156C237.544 19.0156 238.703 19.4844 239.641 20.4219C240.578 21.3333 241.047 22.5573 241.047 24.0937C241.047 25.7083 240.552 27.7396 239.562 30.1875C238.573 32.6094 237.154 35.3307 235.305 38.3516C233.482 41.3464 231.307 44.5365 228.781 47.9219C226.281 51.3073 223.521 54.7448 220.5 58.2344H215.539L212.414 26.3203C212.31 25.2786 212.089 24.5495 211.75 24.1328C211.411 23.6901 210.747 23.3516 209.758 23.1172L207.531 22.6875L207.883 21.0078L220.773 19.2891ZM258.117 58.7422C255.513 58.7422 253.117 58.1432 250.93 56.9453C248.742 55.7214 246.984 53.9245 245.656 51.5547C244.354 49.1589 243.703 46.2292 243.703 42.7656C243.703 39.4323 244.224 36.3333 245.266 33.4687C246.333 30.5781 247.792 28.0521 249.641 25.8906C251.516 23.7292 253.677 22.0495 256.125 20.8516C258.573 19.6276 261.19 19.0156 263.977 19.0156C267.258 19.0156 269.875 19.7187 271.828 21.125C273.781 22.5052 274.758 24.4062 274.758 26.8281C274.758 28.8594 274.029 30.6693 272.57 32.2578C271.138 33.8203 268.964 35.2656 266.047 36.5937C263.156 37.9219 259.51 39.224 255.109 40.5L251.633 41.5156L251.75 39.6406L254.992 38.625C256.919 38.026 258.651 37.2839 260.188 36.3984C261.75 35.487 263.078 34.4714 264.172 33.3516C265.266 32.2057 266.099 30.9948 266.672 29.7187C267.245 28.4167 267.531 27.0625 267.531 25.6562C267.531 24.25 267.219 23.1562 266.594 22.375C265.995 21.5937 265.005 21.2031 263.625 21.2031C262.01 21.2031 260.539 21.7891 259.211 22.9609C257.883 24.1068 256.75 25.6562 255.812 27.6094C254.875 29.5625 254.146 31.763 253.625 34.2109C253.13 36.6589 252.883 39.1719 252.883 41.75C252.883 44.6146 253.286 46.9974 254.094 48.8984C254.927 50.7995 256.073 52.2318 257.531 53.1953C258.99 54.1328 260.643 54.6016 262.492 54.6016C264.107 54.6016 265.695 54.263 267.258 53.5859C268.846 52.9089 270.214 52.0104 271.359 50.8906L270.969 52.7266C270.135 53.8984 269.055 54.9401 267.727 55.8516C266.424 56.737 264.94 57.4401 263.273 57.9609C261.633 58.4818 259.914 58.7422 258.117 58.7422ZM278.352 44.7578C278.352 41.4245 278.82 38.2214 279.758 35.1484C280.695 32.0755 282.036 29.3281 283.781 26.9062C285.526 24.4844 287.609 22.5703 290.031 21.1641C292.453 19.7318 295.161 19.0156 298.156 19.0156C300.448 19.0156 302.245 19.4062 303.547 20.1875C304.875 20.9687 305.799 21.8281 306.32 22.7656L309.602 7.10156C309.836 6.0599 309.823 5.31771 309.562 4.875C309.302 4.43229 308.677 4.06771 307.688 3.78125L305.266 3.23437L305.656 1.59375L319.992 0.148437L309.328 50.5391C309.042 51.7891 309.081 52.7135 309.445 53.3125C309.836 53.9115 310.487 54.2109 311.398 54.2109C312.049 54.2109 312.779 54.0807 313.586 53.8203C314.393 53.5339 315.083 53.1302 315.656 52.6094L315.305 54.4062C314.419 55.6042 313.065 56.6068 311.242 57.4141C309.445 58.1953 307.635 58.5859 305.812 58.5859C303.729 58.5859 302.232 57.9609 301.32 56.7109C300.409 55.4609 300.188 53.5599 300.656 51.0078C300.734 50.5911 300.826 50.0703 300.93 49.4453C301.06 48.8203 301.177 48.3125 301.281 47.9219C300.083 51.4115 298.378 54.0937 296.164 55.9687C293.951 57.8177 291.451 58.7422 288.664 58.7422C286.659 58.7422 284.875 58.1823 283.312 57.0625C281.776 55.9167 280.565 54.3021 279.68 52.2187C278.794 50.1094 278.352 47.6224 278.352 44.7578ZM287.57 45.5C287.57 48.7552 288.026 51.0859 288.938 52.4922C289.875 53.8984 291.164 54.6016 292.805 54.6016C294.628 54.6016 296.372 53.651 298.039 51.75C299.732 49.849 300.995 47.1536 301.828 43.6641L305.773 25.1875C305.513 24.276 304.888 23.4948 303.898 22.8437C302.935 22.1927 301.711 21.8672 300.227 21.8672C298.534 21.8672 297.01 22.349 295.656 23.3125C294.328 24.276 293.156 25.5911 292.141 27.2578C291.125 28.8984 290.279 30.7474 289.602 32.8047C288.951 34.8359 288.443 36.9453 288.078 39.1328C287.74 41.3203 287.57 43.4427 287.57 45.5Z" fill="#AF001B"/>
</svg>
