<svg width="314" height="59" viewBox="0 0 314 59" fill="none" xmlns="http://www.w3.org/2000/svg">
<path d="M17.5781 58.8984C15.3906 58.8984 13.1771 58.7031 10.9375 58.3125C8.69792 57.9479 6.64062 57.4531 4.76562 56.8281C2.89062 56.1771 1.40625 55.474 0.3125 54.7188L2.46094 41.6328H3.98438C4.01042 45.0443 4.60938 47.8438 5.78125 50.0312C6.95312 52.2188 8.52865 53.8333 10.5078 54.875C12.487 55.9167 14.7266 56.4375 17.2266 56.4375C19.3359 56.4375 21.263 56.0469 23.0078 55.2656C24.7786 54.4583 26.1979 53.2865 27.2656 51.75C28.3333 50.2135 28.8672 48.3516 28.8672 46.1641C28.8672 43.9505 28.3333 41.9583 27.2656 40.1875C26.224 38.3906 24.4141 36.5677 21.8359 34.7188L17.5781 31.6719C14.401 29.4583 12.0052 27.1667 10.3906 24.7969C8.77604 22.401 7.96875 19.7057 7.96875 16.7109C7.96875 13.4818 8.77604 10.6693 10.3906 8.27344C12.0312 5.8776 14.3099 4.01562 17.2266 2.6875C20.1693 1.35938 23.5807 0.695312 27.4609 0.695312C31.0547 0.695312 34.2057 1.13802 36.9141 2.02344C39.6484 2.88281 41.7578 3.92448 43.2422 5.14844L41.25 18.1172H39.7266C39.5443 13.1953 38.4115 9.48438 36.3281 6.98438C34.2708 4.45833 31.4323 3.19531 27.8125 3.19531C24.5833 3.19531 21.9922 4.05469 20.0391 5.77344C18.0859 7.46615 17.1094 9.75781 17.1094 12.6484C17.1094 14.6536 17.6432 16.5026 18.7109 18.1953C19.7786 19.862 21.6016 21.5807 24.1797 23.3516L28.4375 26.4375C31.7708 28.7812 34.1927 31.1901 35.7031 33.6641C37.2396 36.112 38.0078 38.8203 38.0078 41.7891C38.0078 44.4714 37.474 46.8802 36.4062 49.0156C35.3385 51.125 33.8672 52.9219 31.9922 54.4062C30.1172 55.8646 27.9427 56.9844 25.4688 57.7656C22.9948 58.5208 20.3646 58.8984 17.5781 58.8984ZM73.5156 56.3984C75.3646 56.3984 77.1224 56.0599 78.7891 55.3828C80.4557 54.7057 82.0182 53.7292 83.4766 52.4531C84.9609 51.1771 86.2891 49.6276 87.4609 47.8047C88.6589 45.9557 89.6875 43.8984 90.5469 41.6328H92.1094L89.3359 54.7969C87.5651 56.0469 85.2474 57.0495 82.3828 57.8047C79.5443 58.5339 76.3932 58.8984 72.9297 58.8984C69.5703 58.8984 66.3802 58.3385 63.3594 57.2188C60.3385 56.0729 57.6693 54.3802 55.3516 52.1406C53.0339 49.901 51.2109 47.1536 49.8828 43.8984C48.5547 40.6172 47.9036 36.8542 47.9297 32.6094C47.9557 27.8438 48.724 23.5078 50.2344 19.6016C51.7708 15.6953 53.9193 12.3359 56.6797 9.52344C59.4401 6.71094 62.6953 4.54948 66.4453 3.03906C70.2214 1.5026 74.349 0.734375 78.8281 0.734375C81.6406 0.734375 84.2708 0.994792 86.7188 1.51562C89.1927 2.01042 91.3802 2.67448 93.2812 3.50781C95.2083 4.3151 96.7578 5.17448 97.9297 6.08594L95.5469 19.0938L94.0234 19.0156C93.9193 15.3438 93.3203 12.349 92.2266 10.0312C91.1328 7.6875 89.5964 5.96875 87.6172 4.875C85.6641 3.75521 83.3203 3.19531 80.5859 3.19531C78.0078 3.19531 75.5859 3.72917 73.3203 4.79688C71.0807 5.83854 69.0365 7.32292 67.1875 9.25C65.3646 11.1771 63.8021 13.4688 62.5 16.125C61.1979 18.7552 60.1953 21.6719 59.4922 24.875C58.8151 28.0781 58.4766 31.4766 58.4766 35.0703C58.4766 39.1328 59.1146 42.7786 60.3906 46.0078C61.6667 49.2109 63.4375 51.75 65.7031 53.625C67.9688 55.474 70.5729 56.3984 73.5156 56.3984ZM126.328 58.7812C122.63 58.7812 119.271 58.1823 116.25 56.9844C113.229 55.7604 110.625 54.0286 108.438 51.7891C106.25 49.5234 104.57 46.8411 103.398 43.7422C102.227 40.6172 101.641 37.1667 101.641 33.3906C101.641 28.9896 102.357 24.8359 103.789 20.9297C105.247 16.9974 107.305 13.5208 109.961 10.5C112.643 7.47917 115.82 5.10938 119.492 3.39062C123.164 1.67188 127.188 0.8125 131.562 0.8125C135.26 0.8125 138.62 1.42448 141.641 2.64844C144.688 3.8724 147.292 5.61719 149.453 7.88281C151.641 10.1224 153.32 12.7917 154.492 15.8906C155.69 18.9896 156.289 22.4271 156.289 26.2031C156.289 30.6042 155.56 34.7708 154.102 38.7031C152.643 42.6094 150.573 46.0729 147.891 49.0938C145.234 52.1146 142.07 54.4844 138.398 56.2031C134.753 57.9219 130.729 58.7812 126.328 58.7812ZM125.586 56.3203C128.451 56.3203 131.107 55.4349 133.555 53.6641C136.029 51.8672 138.19 49.4062 140.039 46.2812C141.888 43.1302 143.32 39.5234 144.336 35.4609C145.378 31.3984 145.898 27.0885 145.898 22.5312C145.898 16.2552 144.648 11.4766 142.148 8.19531C139.674 4.91406 136.406 3.27344 132.344 3.27344C129.297 3.27344 126.523 4.23698 124.023 6.16406C121.549 8.0651 119.414 10.6302 117.617 13.8594C115.82 17.0885 114.427 20.7214 113.438 24.7578C112.474 28.7682 111.992 32.8698 111.992 37.0625C111.992 43.3646 113.229 48.1562 115.703 51.4375C118.177 54.6927 121.471 56.3203 125.586 56.3203ZM211.289 1.59375L208.984 15.5781H207.461C207.435 12.5573 207.083 10.2266 206.406 8.58594C205.729 6.94531 204.518 5.77344 202.773 5.07031C201.029 4.34115 198.529 3.8724 195.273 3.66406L193.32 3.58594L183.164 51.4375C182.904 52.5833 182.852 53.4688 183.008 54.0938C183.164 54.7188 183.659 55.1875 184.492 55.5C185.326 55.8125 186.641 56.0859 188.438 56.3203L188.086 58H165.82L166.211 56.3203C168.06 56.112 169.453 55.8516 170.391 55.5391C171.354 55.2005 172.044 54.7188 172.461 54.0938C172.904 53.4427 173.242 52.5573 173.477 51.4375L183.633 3.58594L181.602 3.66406C178.216 3.8724 175.482 4.36719 173.398 5.14844C171.315 5.90365 169.609 7.11458 168.281 8.78125C166.953 10.4219 165.703 12.6875 164.531 15.5781H162.969L166.445 1.59375H211.289ZM261.367 1.59375L259.062 15.5781H257.539C257.513 12.5573 257.161 10.2266 256.484 8.58594C255.807 6.94531 254.596 5.77344 252.852 5.07031C251.107 4.34115 248.607 3.8724 245.352 3.66406L243.398 3.58594L233.242 51.4375C232.982 52.5833 232.93 53.4688 233.086 54.0938C233.242 54.7188 233.737 55.1875 234.57 55.5C235.404 55.8125 236.719 56.0859 238.516 56.3203L238.164 58H215.898L216.289 56.3203C218.138 56.112 219.531 55.8516 220.469 55.5391C221.432 55.2005 222.122 54.7188 222.539 54.0938C222.982 53.4427 223.32 52.5573 223.555 51.4375L233.711 3.58594L231.68 3.66406C228.294 3.8724 225.56 4.36719 223.477 5.14844C221.393 5.90365 219.688 7.11458 218.359 8.78125C217.031 10.4219 215.781 12.6875 214.609 15.5781H213.047L216.523 1.59375H261.367ZM270.273 11.2812C269.518 9.14583 268.841 7.54427 268.242 6.47656C267.669 5.38281 267.018 4.6276 266.289 4.21094C265.56 3.79427 264.622 3.49479 263.477 3.3125L263.828 1.59375H284.961L284.609 3.3125C282.917 3.52083 281.68 3.88542 280.898 4.40625C280.143 4.92708 279.753 5.72135 279.727 6.78906C279.727 7.85677 280.026 9.3151 280.625 11.1641L286.914 30.4219H286.094L299.453 12.1016C301.042 9.91406 302.07 8.22135 302.539 7.02344C303.034 5.82552 302.982 4.96615 302.383 4.44531C301.784 3.89844 300.638 3.52083 298.945 3.3125L299.297 1.59375H313.984L313.633 3.3125C312.305 3.52083 311.159 3.8724 310.195 4.36719C309.232 4.86198 308.177 5.72135 307.031 6.94531C305.911 8.14323 304.427 9.92708 302.578 12.2969L287.305 31.75L283.125 51.4375C282.891 52.5833 282.852 53.4688 283.008 54.0938C283.164 54.7188 283.646 55.1875 284.453 55.5C285.286 55.8125 286.602 56.0859 288.398 56.3203L288.047 58H265.859L266.211 56.3203C268.086 56.112 269.492 55.8516 270.43 55.5391C271.367 55.2005 272.044 54.7188 272.461 54.0938C272.878 53.4427 273.216 52.5573 273.477 51.4375L277.578 31.9844L270.273 11.2812Z" fill="#C4C4C4"/>
</svg>
