<svg width="850" height="57" viewBox="0 0 850 57" fill="none" xmlns="http://www.w3.org/2000/svg">
<path d="M0.415938 1.64H10.8159V55H0.415938V1.64ZM47.1059 1.64H57.5059V37.64C57.5059 42.36 57.1859 49.8 51.2659 53.8C48.9459 55.32 45.7459 56.2 42.5459 56.2C38.7059 56.2 34.1459 54.92 30.3059 51.24L36.6259 43.64C37.6659 45.16 39.3459 46.52 41.8259 46.52C44.0659 46.52 45.3459 45.56 45.9059 44.68C47.1859 42.84 47.1059 39.32 47.1059 36.04V1.64ZM68.0378 1.64H78.4378V35.16C78.4378 39.24 79.7978 41.72 80.9978 43.08C82.5178 44.92 85.3178 46.76 89.4778 46.76C93.6378 46.76 96.4378 44.92 97.9578 43.08C99.1578 41.72 100.518 39.24 100.518 35.16V1.64H110.918V34.28C110.918 39.32 110.118 44.44 106.918 48.52C103.078 53.56 96.3578 56.2 89.4778 56.2C82.5978 56.2 75.8778 53.56 72.0378 48.52C68.8378 44.44 68.0378 39.32 68.0378 34.28V1.64ZM153.196 6.68L147.756 13.8C144.636 9.64 140.956 9.24 139.036 9.24C133.436 9.24 131.676 12.76 131.676 15.48C131.676 16.76 132.076 17.96 133.356 19.08C134.636 20.28 136.396 20.92 139.756 22.12C143.916 23.56 147.836 25 150.556 27.48C152.956 29.64 155.116 33.24 155.116 38.68C155.116 49.08 147.596 56.2 136.556 56.2C126.716 56.2 120.956 50.2 118.156 46.12L124.956 39.64C127.516 44.84 132.396 46.76 136.156 46.76C140.876 46.76 144.396 43.88 144.396 39.4C144.396 37.48 143.756 35.96 142.316 34.6C140.316 32.76 137.116 31.72 134.076 30.68C131.276 29.72 127.916 28.44 125.196 26.04C123.436 24.52 120.956 21.56 120.956 16.12C120.956 8.28 126.236 0.439997 138.076 0.439997C141.436 0.439997 147.756 1.08 153.196 6.68ZM190.669 10.6H178.669V55H168.269V10.6H156.269V1.64H190.669V10.6ZM245.452 21.16L233.212 55H225.372L206.812 1.64H217.852L229.772 37.96L242.812 1.16H248.572L260.892 37.96L273.692 1.64H284.732L264.972 55H257.132L245.452 21.16ZM322.295 55L317.575 43.8H296.055L291.335 55H280.055L303.015 1.64H311.175L333.495 55H322.295ZM299.335 35.32H314.535L306.935 16.12L299.335 35.32ZM348.525 55H338.125V1.64H345.325L377.805 37.24V1.64H388.205V55H381.005L348.525 19.32V55ZM427.591 10.6H415.591V55H405.191V10.6H393.191V1.64H427.591V10.6ZM462.182 1.64V10.6H442.982V22.52H461.382V31.48H442.982V46.04H462.182V55H432.582V1.64H462.182ZM470.669 1.64H484.589C492.029 1.64 498.509 2.44 504.429 6.84C510.909 11.72 514.669 19.48 514.669 28.36C514.669 37.24 510.989 44.92 503.949 49.88C497.709 54.28 491.869 55 484.429 55H470.669V1.64ZM481.069 10.6V46.04H484.269C486.909 46.04 492.669 45.88 497.309 42.52C501.549 39.48 503.949 34.04 503.949 28.36C503.949 22.76 501.629 17.32 497.389 14.12C493.069 10.92 487.789 10.6 484.269 10.6H481.069ZM568.535 10.6H556.535V55H546.135V10.6H534.135V1.64H568.535V10.6ZM597.102 0.439997C613.902 0.439997 625.582 12.12 625.582 28.36C625.582 44.6 613.902 56.2 597.102 56.2C580.302 56.2 568.622 44.6 568.622 28.36C568.622 12.12 580.302 0.439997 597.102 0.439997ZM597.102 46.76C607.502 46.76 614.862 39.16 614.862 28.36C614.862 17.56 607.502 9.88 597.102 9.88C586.702 9.88 579.342 17.56 579.342 28.36C579.342 39.16 586.702 46.76 597.102 46.76ZM647.918 55L657.838 1.64H665.358L679.518 35.56L694.318 1.64H701.838L710.798 55H700.238L695.438 22.12L681.118 55H677.598L663.918 22.12L658.478 55H647.918ZM754.967 55L750.247 43.8H728.727L724.007 55H712.727L735.687 1.64H743.847L766.167 55H754.967ZM732.007 35.32H747.207L739.607 16.12L732.007 35.32ZM781.197 1.64V24.2L800.797 1.64H813.917L791.357 26.28L815.117 55H801.357L782.397 31.08L781.197 32.28V55H770.797V1.64H781.197ZM849.657 1.64V10.6H830.457V22.52H848.857V31.48H830.457V46.04H849.657V55H820.057V1.64H849.657Z" fill="white"/>
</svg>
