<svg width="1465" height="830" viewBox="0 0 1465 830" fill="none" xmlns="http://www.w3.org/2000/svg">
<path d="M162.673 120.2C204.273 120.2 239.073 133 265.873 159C291.073 183.4 307.473 218.6 307.473 259.8C307.473 295.4 294.673 331.8 265.873 359.8C241.073 383.8 207.473 399 162.673 399C112.673 399 78.6734 379 58.6734 359.8C33.0734 335.8 17.0734 299.8 17.0734 260.6C17.0734 222.2 34.2734 183.4 58.2734 159.4C76.2734 141.4 109.473 120.2 162.673 120.2ZM162.273 177C139.073 177 118.273 185.4 103.873 199.8C92.2734 211 80.2734 230.6 80.2734 260.2C80.2734 284.6 88.2734 304.2 104.673 320.2C121.873 336.6 141.073 342.2 161.873 342.2C189.073 342.2 208.273 332.2 221.073 319.4C231.473 309.4 244.273 290.6 244.273 259.8C244.273 232.2 233.073 211.8 221.073 199.8C207.873 187 186.673 177 162.273 177ZM578.902 126.2V284.2C578.902 309.8 575.702 341.4 549.302 368.6C523.702 395 494.102 399 466.102 399C438.102 399 408.502 395 382.902 368.6C356.502 341.4 353.302 309.8 353.302 284.2V126.2H414.902V282.6C414.902 294.2 415.702 313.8 428.902 327.4C439.702 339 454.502 341.4 466.102 341.4C477.702 341.4 492.502 339 503.302 327.4C516.502 313.8 517.302 294.2 517.302 282.6V126.2H578.902ZM788.886 178.2H730.886V393H669.286V178.2H611.286V126.2H788.886V178.2ZM821.27 126.2H915.27C938.47 126.2 964.07 129.4 985.27 148.2C1008.07 168.2 1011.27 194.6 1011.27 213C1011.27 246.6 998.47 265.4 988.47 275.8C967.27 297.4 939.27 299.4 920.47 299.4H882.87V393H821.27V126.2ZM882.87 176.6V249H904.87C913.27 249 928.07 248.6 938.07 239C943.67 233.4 948.07 224.2 948.07 212.6C948.07 201.4 944.07 192.2 938.07 186.6C928.87 177.8 915.67 176.6 903.67 176.6H882.87ZM1200.98 126.2V178.2L1111.78 178.2V229.8L1196.58 229.8V281.8H1111.78V341H1200.98V393H1050.18V126.2H1200.98ZM1250.96 126.2L1344.56 126.2C1378.56 126.2 1399.76 137.4 1412.56 149.4C1423.76 160.2 1435.76 179.4 1435.76 209C1435.76 225.8 1432.16 246.6 1414.96 263.4C1405.76 272.2 1392.56 280.2 1377.76 283.8L1459.76 393L1384.56 393L1312.56 287.8V393H1250.96V126.2ZM1312.56 174.2V247.4H1326.56C1337.76 247.4 1352.96 246.2 1363.36 235.8C1367.76 231.4 1373.36 223 1373.36 209.8C1373.36 194.6 1366.16 186.6 1360.96 182.6C1350.96 175 1334.96 174.2 1326.96 174.2H1312.56Z" fill="white"/>
<path d="M377.484 451.969L380.805 522.281H380.609C377.094 505.875 372.081 492.919 365.57 483.414C359.19 473.909 350.141 466.878 338.422 462.32C326.833 457.763 311.273 454.833 291.742 453.531L266.938 452.164V591.422L303.461 589.469C314.268 588.948 322.536 587.125 328.266 584C333.995 580.875 338.161 576.383 340.766 570.523C343.5 564.534 345.714 557.112 347.406 548.258H347.602V634.781H347.406C345.714 625.927 343.5 618.57 340.766 612.711C338.161 606.721 333.995 602.164 328.266 599.039C322.536 595.914 314.268 594.026 303.461 593.375L266.938 591.617V703.922C266.938 710.432 267.523 715.641 268.695 719.547C269.867 723.453 272.146 726.513 275.531 728.727C279.047 730.94 284.125 732.633 290.766 733.805V734H188.422V733.805C194.151 732.242 198.578 730.549 201.703 728.727C204.958 726.904 207.172 724.299 208.344 720.914C209.646 717.529 210.297 712.906 210.297 707.047L210.297 478.922C210.297 472.932 209.646 468.31 208.344 465.055C207.172 461.669 204.958 459.065 201.703 457.242C198.578 455.289 194.151 453.596 188.422 452.164V451.969H377.484ZM392.523 592.984C392.523 572.932 395.909 554.247 402.68 536.93C409.451 519.482 419.086 504.182 431.586 491.031C444.086 477.88 459.06 467.594 476.508 460.172C493.956 452.75 513.357 449.039 534.711 449.039C554.112 449.039 572.536 452.424 589.984 459.195C607.432 465.836 622.862 475.406 636.273 487.906C649.815 500.406 660.362 515.51 667.914 533.219C675.596 550.797 679.438 570.589 679.438 592.594C679.438 612.516 676.052 631.201 669.281 648.648C662.641 666.096 653.005 681.461 640.375 694.742C627.875 708.023 612.901 718.375 595.453 725.797C578.135 733.219 558.734 736.93 537.25 736.93C517.719 736.93 499.229 733.544 481.781 726.773C464.464 720.003 449.099 710.367 435.688 697.867C422.276 685.367 411.729 670.263 404.047 652.555C396.365 634.846 392.523 614.99 392.523 592.984ZM455.414 591.227C455.414 613.232 457.302 633.154 461.078 650.992C464.854 668.831 470.323 684.13 477.484 696.891C484.646 709.521 493.24 719.286 503.266 726.188C513.422 732.958 524.75 736.344 537.25 736.344C556.13 736.344 571.365 730.484 582.953 718.766C594.672 706.917 603.201 690.38 608.539 669.156C614.008 647.802 616.742 622.867 616.742 594.352C616.742 572.346 614.854 552.424 611.078 534.586C607.302 516.747 601.833 501.513 594.672 488.883C587.51 476.253 578.852 466.552 568.695 459.781C558.669 453.01 547.341 449.625 534.711 449.625C515.961 449.625 500.727 455.484 489.008 467.203C477.289 478.922 468.76 495.393 463.422 516.617C458.083 537.841 455.414 562.711 455.414 591.227ZM921.234 525.992C921.234 537.451 918.565 547.672 913.227 556.656C908.018 565.51 900.922 572.867 891.938 578.727C882.953 584.456 872.797 588.492 861.469 590.836V582.633L909.125 683.023C915.635 696.044 921.039 705.94 925.336 712.711C929.633 719.482 933.474 724.365 936.859 727.359C940.375 730.224 943.956 732.372 947.602 733.805V734H877.094L814.008 597.672H779.438V708.609C779.438 713.948 780.023 718.18 781.195 721.305C782.497 724.43 784.646 726.969 787.641 728.922C790.635 730.745 794.867 732.372 800.336 733.805V734H700.922V733.805C706.651 732.112 711.078 730.354 714.203 728.531C717.458 726.578 719.672 723.909 720.844 720.523C722.146 717.138 722.797 712.646 722.797 707.047V478.922C722.797 472.802 722.146 468.049 720.844 464.664C719.672 461.279 717.458 458.674 714.203 456.852C711.078 454.898 706.651 453.336 700.922 452.164V451.969L802.289 451.969C828.982 451.969 851.117 455.029 868.695 461.148C886.273 467.268 899.424 475.862 908.148 486.93C916.872 497.997 921.234 511.018 921.234 525.992ZM865.375 527.164C865.375 514.404 863.096 502.49 858.539 491.422C853.982 480.354 846.495 471.37 836.078 464.469C825.661 457.437 811.664 453.531 794.086 452.75L779.438 452.164V597.477L798.578 596.695C818.109 595.914 834.125 589.599 846.625 577.75C859.125 565.771 865.375 548.909 865.375 527.164ZM1038.03 451.969L1119.48 678.531L1192.13 451.969H1267.91V452.164C1262.58 453.336 1258.34 454.964 1255.22 457.047C1252.22 459 1250.14 461.669 1248.97 465.055C1247.93 468.44 1247.47 472.997 1247.6 478.727L1256.39 707.242C1256.65 713.232 1257.37 717.984 1258.54 721.5C1259.71 724.885 1261.86 727.49 1264.98 729.312C1268.24 731.135 1272.86 732.633 1278.85 733.805V734H1177.68V733.805C1183.54 732.633 1188.1 731.201 1191.35 729.508C1194.61 727.685 1196.89 725.016 1198.19 721.5C1199.49 717.984 1200.01 713.232 1199.75 707.242L1191.35 474.234H1192.13L1120.06 678.531L1102.09 734H1080.22L984.32 468.375H986.273L982.758 680.094C982.628 693.375 983.083 703.661 984.125 710.953C985.167 718.245 987.445 723.518 990.961 726.773C994.607 730.029 1000.01 732.372 1007.17 733.805V734H947.992V733.805C955.023 732.633 960.362 730.419 964.008 727.164C967.784 723.779 970.453 718.44 972.016 711.148C973.708 703.727 974.88 693.375 975.531 680.094L985.102 485.172C985.492 478.531 984.971 473.062 983.539 468.766C982.107 464.339 979.763 460.823 976.508 458.219C973.383 455.484 969.346 453.466 964.398 452.164V451.969H1038.03Z" fill="white"/>
</svg>
