<svg width="215" height="91" viewBox="0 0 215 91" fill="none" xmlns="http://www.w3.org/2000/svg">
<path d="M50 18.96L40.16 24.72C39.44 22.92 38.36 21.24 36.56 19.68C34.04 17.64 31.4 16.8 27.92 16.8C20.48 16.8 16.64 21.24 16.64 26.4C16.64 28.8 17.48 33 25.28 36.12L33.32 39.36C48.08 45.36 52.16 53.76 52.16 62.88C52.16 78.12 41.36 88.56 26.36 88.56C17.12 88.56 11.6 85.08 7.52 80.52C3.2 75.72 1.28 70.44 0.8 64.92L12.92 62.28C12.92 66.24 14.36 69.96 16.28 72.48C18.56 75.36 21.92 77.28 26.72 77.28C34.16 77.28 39.92 71.88 39.92 63.84C39.92 55.68 33.68 52.32 28.4 50.16L20.72 46.92C14.12 44.16 4.4 38.64 4.4 26.64C4.4 15.84 12.8 5.52 27.8 5.52C36.44 5.52 41.36 8.76 43.88 10.92C46.04 12.84 48.32 15.6 50 18.96ZM72.5769 87H60.0969L76.8969 0.959999L104.737 63.12L132.817 0.959999L147.937 87H135.457L127.297 38.76L104.017 90.72L80.9769 38.64L72.5769 87ZM179.084 89.76L170.204 83.16L189.044 59.04C187.484 59.4 186.164 59.52 184.724 59.52C175.244 59.52 169.244 55.32 166.004 52.08C161.924 48 158.684 42.12 158.684 33.84C158.684 25.8 161.804 18.72 166.604 13.8C171.644 8.63999 178.364 5.64 187.244 5.64C198.164 5.64 204.524 10.08 207.884 13.56C211.244 17.04 214.844 22.8 214.844 31.68C214.844 37.44 213.524 42 211.004 46.92C208.004 52.92 204.884 56.52 201.284 61.2L179.084 89.76ZM186.644 49.08C190.724 49.08 195.044 47.52 198.164 44.28C201.164 41.16 202.844 36.6 202.844 32.4C202.844 28.08 201.164 23.88 198.164 21C195.164 18.12 190.844 16.44 186.764 16.44C182.324 16.44 178.004 18.48 175.364 21C172.724 23.64 170.684 27.84 170.684 32.76C170.684 37.2 172.364 41.64 175.364 44.64C178.004 47.16 182.204 49.08 186.644 49.08Z" fill="white"/>
</svg>
