<svg width="474" height="113" viewBox="0 0 474 113" fill="none" xmlns="http://www.w3.org/2000/svg">
<path d="M77.25 80.3V106.85C68.4 111.35 61.2 112.25 55.2 112.25C36.75 112.25 24.3 105.95 15.9 97.7C6.9 89 0.3 75.8 0.3 59.75C0.3 44 6.9 30.8 15.9 22.1C24.75 13.55 37.65 7.69999 53.25 7.69999C59.85 7.69999 67.5 9.04999 77.25 13.25V39.95C72.15 34.55 64.5 29.3 53.85 29.3C45.45 29.3 38.7 32 33.45 37.1C27.9 42.5 24 50.6 24 60.2C24 70.55 28.2 77.9 32.7 82.25C34.8 84.35 42 90.65 54.3 90.65C60.3 90.65 68.4 89 77.25 80.3ZM90.8203 110L90.8203 0.649995H112.42V51.05C115.12 47.75 117.97 45.5 120.52 44.15C125.02 41.75 128.77 41.3 133.57 41.3C138.82 41.3 146.62 42.05 152.47 48.05C158.62 54.2 159.07 62.45 159.07 67.55V110H137.47V75.65C137.47 71 137.32 65.6 133.87 62.3C131.92 60.35 128.62 59.3 125.47 59.3C120.82 59.3 118.12 61.4 116.92 62.6C112.57 66.8 112.42 73.25 112.42 76.55L112.42 110H90.8203ZM246.602 76.55C246.602 85.1 243.302 94.7 236.552 101.45C230.552 107.45 220.352 112.25 207.302 112.25C194.252 112.25 184.052 107.45 178.052 101.45C171.302 94.7 168.002 85.1 168.002 76.55C168.002 68 171.302 58.4 178.052 51.65C184.052 45.65 194.252 40.85 207.302 40.85C220.352 40.85 230.552 45.65 236.552 51.65C243.302 58.4 246.602 68 246.602 76.55ZM207.302 59.15C202.352 59.15 198.302 60.8 195.152 63.95C192.002 67.1 190.202 71.15 190.202 76.55C190.202 82.7 192.602 86.6 195.152 89.15C197.852 91.85 201.752 93.95 207.452 93.95C212.252 93.95 216.302 92.3 219.452 89.15C222.602 86 224.402 81.95 224.402 76.55C224.402 71.15 222.602 67.1 219.452 63.95C216.302 60.8 212.252 59.15 207.302 59.15ZM332.372 76.55C332.372 85.1 329.072 94.7 322.322 101.45C316.322 107.45 306.122 112.25 293.072 112.25C280.022 112.25 269.822 107.45 263.822 101.45C257.072 94.7 253.772 85.1 253.772 76.55C253.772 68 257.072 58.4 263.822 51.65C269.822 45.65 280.022 40.85 293.072 40.85C306.122 40.85 316.322 45.65 322.322 51.65C329.072 58.4 332.372 68 332.372 76.55ZM293.072 59.15C288.122 59.15 284.072 60.8 280.922 63.95C277.772 67.1 275.972 71.15 275.972 76.55C275.972 82.7 278.372 86.6 280.922 89.15C283.622 91.85 287.522 93.95 293.222 93.95C298.022 93.95 302.072 92.3 305.222 89.15C308.372 86 310.172 81.95 310.172 76.55C310.172 71.15 308.372 67.1 305.222 63.95C302.072 60.8 298.022 59.15 293.072 59.15ZM392.341 46.55L383.791 60.2C380.491 58.25 376.141 56.45 371.941 56.45C369.691 56.45 367.141 57.05 365.791 58.4C365.041 59.15 364.441 60.35 364.441 61.4C364.441 62.9 365.491 63.8 366.541 64.4C368.041 65.3 370.291 65.75 372.991 66.65L378.691 68.45C382.441 69.65 386.341 71.15 389.791 74.3C393.691 77.9 395.041 81.95 395.041 87.05C395.041 95.9 391.141 101.6 388.141 104.6C381.541 111.2 373.441 112.25 366.391 112.25C357.391 112.25 347.641 110.3 338.941 102.65L348.091 88.1C350.191 89.9 353.191 92 355.441 93.05C358.441 94.55 361.591 95.15 364.441 95.15C365.791 95.15 369.241 95.15 371.191 93.65C372.541 92.6 373.441 90.95 373.441 89.3C373.441 88.1 372.991 86.6 371.041 85.4C369.541 84.5 367.591 83.9 364.441 83L359.041 81.35C355.141 80.15 351.091 78.05 348.241 75.2C345.091 71.9 343.441 68.15 343.441 63.05C343.441 56.6 345.991 51.2 349.891 47.6C355.891 42.05 363.991 40.85 370.141 40.85C380.041 40.85 386.941 43.4 392.341 46.55ZM424.23 67.4H453.48C453.33 66.8 452.28 62.6 449.13 59.6C446.73 57.35 443.28 55.85 438.93 55.85C433.38 55.85 430.08 58.1 427.98 60.2C426.33 62 424.83 64.4 424.23 67.4ZM473.43 78.05V80.3H423.48C423.48 83.9 424.83 88.7 427.53 91.7C430.83 95.3 435.33 95.9 438.63 95.9C441.78 95.9 445.08 95.3 447.33 93.95C447.63 93.8 450.18 92.15 451.98 88.4L472.38 90.5C469.38 99.95 463.38 104.9 459.48 107.3C453.03 111.2 445.83 112.25 438.33 112.25C428.28 112.25 419.43 110.45 411.63 102.65C405.78 96.8 401.58 87.95 401.58 76.85C401.58 67.25 405.03 57.35 411.78 50.45C419.88 42.35 429.93 40.85 437.43 40.85C444.93 40.85 455.73 42.2 463.98 50.9C471.93 59.3 473.43 69.8 473.43 78.05Z" fill="white"/>
</svg>
