<svg width="984" height="145" viewBox="0 0 984 145" fill="none" xmlns="http://www.w3.org/2000/svg">
<mask id="path-1-outside-1_600_238" maskUnits="userSpaceOnUse" x="-0.700195" y="0" width="985" height="145" fill="black">
<rect fill="white" x="-0.700195" width="985" height="145"/>
<path d="M24.3998 109H1.2998L17.3498 8.95H36.5498L61.4498 68.8L86.3498 8.95H105.55L121.6 109H98.4998L90.5498 49.3L65.4998 109H57.3998L32.3498 49.3L24.3998 109ZM184.561 49.6V42.1H206.161V109H184.561V100.9C178.711 109.9 170.311 111.25 164.761 111.25C155.161 111.25 147.061 108.85 139.711 101.05C132.661 93.55 129.961 84.85 129.961 76C129.961 64.75 134.161 55.15 140.311 49C146.161 43.15 154.261 39.85 163.561 39.85C169.261 39.85 178.411 41.2 184.561 49.6ZM168.961 58.45C164.311 58.45 159.961 60.4 157.111 63.25C154.861 65.5 152.161 69.4 152.161 75.4C152.161 81.4 154.711 85.3 156.661 87.4C159.661 90.55 164.311 92.65 169.411 92.65C173.761 92.65 177.811 90.85 180.661 88C183.511 85.3 185.911 81.1 185.911 75.4C185.911 70.6 184.111 66.1 180.961 63.1C177.661 59.95 172.861 58.45 168.961 58.45ZM211.81 109L244.51 72.55L217.96 42.1H245.56L258.01 57.55L270.46 42.1H298.06L271.51 72.55L304.21 109H276.31L258.01 87.4L239.71 109H211.81ZM311.427 42.1H333.027V109H311.427V42.1ZM309.627 13.6C309.627 6.55 315.177 1 322.227 1C329.277 1 334.827 6.55 334.827 13.6C334.827 20.65 329.277 26.2 322.227 26.2C315.177 26.2 309.627 20.65 309.627 13.6ZM348.382 109V42.1H369.982V49.9C375.532 41.5 383.632 40.45 388.732 40.45C391.582 40.45 396.832 40.75 401.332 43.45C404.782 45.4 407.632 48.7 409.432 52.75C411.082 50.05 413.632 46.9 417.982 44.2C422.632 41.35 426.982 40.45 432.232 40.45C440.332 40.45 446.932 42.85 450.982 46.75C457.432 52.9 457.882 61.9 457.882 66.7V109H436.282V75.1C436.282 71.65 436.282 65.65 433.432 62.05C431.632 59.8 428.782 58.45 425.632 58.45C422.032 58.45 419.032 60.1 417.232 62.5C414.382 66.1 413.932 71.35 413.932 75.7V109H392.332V74.2C392.332 69.7 392.182 64.45 388.882 61.15C386.632 58.9 383.932 58.45 381.682 58.45C378.832 58.45 376.282 59.2 374.182 61.15C370.132 65.05 369.982 72.55 369.982 74.8V109H348.382ZM471.798 42.1H493.398V79C493.398 82 493.698 86.65 497.148 89.8C498.648 91.15 501.348 92.95 506.148 92.95C510.198 92.95 513.348 91.6 515.298 89.8C518.448 86.8 518.898 82.3 518.898 79V42.1H540.498V81.1C540.498 88.75 539.748 95.95 532.998 102.55C525.348 110.05 514.098 111.25 506.148 111.25C497.898 111.25 486.798 110.05 479.148 102.55C472.998 96.55 471.798 89.8 471.798 82.45V42.1ZM554.345 109V42.1H575.945V49.9C581.495 41.5 589.595 40.45 594.695 40.45C597.545 40.45 602.795 40.75 607.295 43.45C610.745 45.4 613.595 48.7 615.395 52.75C617.045 50.05 619.595 46.9 623.945 44.2C628.595 41.35 632.945 40.45 638.195 40.45C646.295 40.45 652.895 42.85 656.945 46.75C663.395 52.9 663.845 61.9 663.845 66.7V109H642.245V75.1C642.245 71.65 642.245 65.65 639.395 62.05C637.595 59.8 634.745 58.45 631.595 58.45C627.995 58.45 624.995 60.1 623.195 62.5C620.345 66.1 619.895 71.35 619.895 75.7V109H598.295V74.2C598.295 69.7 598.145 64.45 594.845 61.15C592.595 58.9 589.895 58.45 587.645 58.45C584.795 58.45 582.245 59.2 580.145 61.15C576.095 65.05 575.945 72.55 575.945 74.8V109H554.345ZM774.271 16.6L763.921 33.4C756.421 26.65 749.971 26.2 747.121 26.2C743.971 26.2 740.071 26.65 737.371 29.65C735.871 31.15 734.821 33.4 734.821 35.95C734.821 38.35 735.571 40.15 737.071 41.5C739.471 43.75 742.921 44.65 749.671 47.2L757.171 50.05C761.521 51.7 766.921 53.95 770.821 57.7C776.671 63.25 778.171 70.45 778.171 76.3C778.171 86.65 774.571 95.65 769.321 101.05C760.471 110.35 747.571 111.25 740.971 111.25C733.771 111.25 727.471 110.2 721.171 107.05C716.071 104.5 710.221 99.85 706.471 96.1L718.471 79.6C721.021 82.15 725.071 85.6 727.771 87.25C731.671 89.65 735.721 90.85 740.371 90.85C743.371 90.85 747.571 90.25 750.871 87.4C752.821 85.75 754.471 83.05 754.471 79.3C754.471 76 753.121 73.9 751.021 72.1C748.321 69.85 742.171 67.6 739.321 66.55L731.071 63.7C726.421 62.05 721.021 59.95 717.121 55.75C711.871 50.2 711.121 43.15 711.121 38.35C711.121 29.5 713.821 22 719.821 15.85C726.871 8.65 735.271 6.7 744.571 6.7C751.471 6.7 762.571 7.9 774.271 16.6ZM810.842 101.35V143.35H789.242V42.1H810.842V50.05C817.892 40.9 826.592 39.85 831.692 39.85C843.692 39.85 851.192 45.1 855.392 49.3C861.392 55.3 865.442 64.45 865.442 75.4C865.442 86.95 861.392 95.65 854.792 102.25C848.192 108.85 840.992 111.25 832.142 111.25C818.792 111.25 813.092 104.5 810.842 101.35ZM826.442 58.45C820.442 58.45 816.542 61.3 814.442 63.4C810.992 66.85 809.342 71.65 809.342 75.7C809.342 79.9 810.992 84.25 814.142 87.55C817.292 90.7 821.792 92.65 826.442 92.65C830.492 92.65 834.842 91 837.992 88C841.442 84.7 843.242 79.6 843.242 75.25C843.242 70.3 841.142 65.95 838.142 63.1C834.992 60.1 830.792 58.45 826.442 58.45ZM877.39 42.1H898.99V109H877.39V42.1ZM875.59 13.6C875.59 6.55 881.14 1 888.19 1C895.24 1 900.79 6.55 900.79 13.6C900.79 20.65 895.24 26.2 888.19 26.2C881.14 26.2 875.59 20.65 875.59 13.6ZM914.345 109V42.1H935.945V50.05C942.545 41.65 950.345 40.3 956.645 40.3C962.495 40.3 970.145 41.35 975.845 47.05C982.145 53.35 982.595 61.3 982.595 66.7V109H960.995V74.65C960.995 70.3 960.845 64.75 957.395 61.3C955.745 59.65 953.045 58.3 949.145 58.3C944.645 58.3 941.795 60.1 940.145 61.9C936.545 65.5 935.945 70.3 935.945 74.65V109H914.345Z"/>
</mask>
<path d="M24.3998 109H1.2998L17.3498 8.95H36.5498L61.4498 68.8L86.3498 8.95H105.55L121.6 109H98.4998L90.5498 49.3L65.4998 109H57.3998L32.3498 49.3L24.3998 109ZM184.561 49.6V42.1H206.161V109H184.561V100.9C178.711 109.9 170.311 111.25 164.761 111.25C155.161 111.25 147.061 108.85 139.711 101.05C132.661 93.55 129.961 84.85 129.961 76C129.961 64.75 134.161 55.15 140.311 49C146.161 43.15 154.261 39.85 163.561 39.85C169.261 39.85 178.411 41.2 184.561 49.6ZM168.961 58.45C164.311 58.45 159.961 60.4 157.111 63.25C154.861 65.5 152.161 69.4 152.161 75.4C152.161 81.4 154.711 85.3 156.661 87.4C159.661 90.55 164.311 92.65 169.411 92.65C173.761 92.65 177.811 90.85 180.661 88C183.511 85.3 185.911 81.1 185.911 75.4C185.911 70.6 184.111 66.1 180.961 63.1C177.661 59.95 172.861 58.45 168.961 58.45ZM211.81 109L244.51 72.55L217.96 42.1H245.56L258.01 57.55L270.46 42.1H298.06L271.51 72.55L304.21 109H276.31L258.01 87.4L239.71 109H211.81ZM311.427 42.1H333.027V109H311.427V42.1ZM309.627 13.6C309.627 6.55 315.177 1 322.227 1C329.277 1 334.827 6.55 334.827 13.6C334.827 20.65 329.277 26.2 322.227 26.2C315.177 26.2 309.627 20.65 309.627 13.6ZM348.382 109V42.1H369.982V49.9C375.532 41.5 383.632 40.45 388.732 40.45C391.582 40.45 396.832 40.75 401.332 43.45C404.782 45.4 407.632 48.7 409.432 52.75C411.082 50.05 413.632 46.9 417.982 44.2C422.632 41.35 426.982 40.45 432.232 40.45C440.332 40.45 446.932 42.85 450.982 46.75C457.432 52.9 457.882 61.9 457.882 66.7V109H436.282V75.1C436.282 71.65 436.282 65.65 433.432 62.05C431.632 59.8 428.782 58.45 425.632 58.45C422.032 58.45 419.032 60.1 417.232 62.5C414.382 66.1 413.932 71.35 413.932 75.7V109H392.332V74.2C392.332 69.7 392.182 64.45 388.882 61.15C386.632 58.9 383.932 58.45 381.682 58.45C378.832 58.45 376.282 59.2 374.182 61.15C370.132 65.05 369.982 72.55 369.982 74.8V109H348.382ZM471.798 42.1H493.398V79C493.398 82 493.698 86.65 497.148 89.8C498.648 91.15 501.348 92.95 506.148 92.95C510.198 92.95 513.348 91.6 515.298 89.8C518.448 86.8 518.898 82.3 518.898 79V42.1H540.498V81.1C540.498 88.75 539.748 95.95 532.998 102.55C525.348 110.05 514.098 111.25 506.148 111.25C497.898 111.25 486.798 110.05 479.148 102.55C472.998 96.55 471.798 89.8 471.798 82.45V42.1ZM554.345 109V42.1H575.945V49.9C581.495 41.5 589.595 40.45 594.695 40.45C597.545 40.45 602.795 40.75 607.295 43.45C610.745 45.4 613.595 48.7 615.395 52.75C617.045 50.05 619.595 46.9 623.945 44.2C628.595 41.35 632.945 40.45 638.195 40.45C646.295 40.45 652.895 42.85 656.945 46.75C663.395 52.9 663.845 61.9 663.845 66.7V109H642.245V75.1C642.245 71.65 642.245 65.65 639.395 62.05C637.595 59.8 634.745 58.45 631.595 58.45C627.995 58.45 624.995 60.1 623.195 62.5C620.345 66.1 619.895 71.35 619.895 75.7V109H598.295V74.2C598.295 69.7 598.145 64.45 594.845 61.15C592.595 58.9 589.895 58.45 587.645 58.45C584.795 58.45 582.245 59.2 580.145 61.15C576.095 65.05 575.945 72.55 575.945 74.8V109H554.345ZM774.271 16.6L763.921 33.4C756.421 26.65 749.971 26.2 747.121 26.2C743.971 26.2 740.071 26.65 737.371 29.65C735.871 31.15 734.821 33.4 734.821 35.95C734.821 38.35 735.571 40.15 737.071 41.5C739.471 43.75 742.921 44.65 749.671 47.2L757.171 50.05C761.521 51.7 766.921 53.95 770.821 57.7C776.671 63.25 778.171 70.45 778.171 76.3C778.171 86.65 774.571 95.65 769.321 101.05C760.471 110.35 747.571 111.25 740.971 111.25C733.771 111.25 727.471 110.2 721.171 107.05C716.071 104.5 710.221 99.85 706.471 96.1L718.471 79.6C721.021 82.15 725.071 85.6 727.771 87.25C731.671 89.65 735.721 90.85 740.371 90.85C743.371 90.85 747.571 90.25 750.871 87.4C752.821 85.75 754.471 83.05 754.471 79.3C754.471 76 753.121 73.9 751.021 72.1C748.321 69.85 742.171 67.6 739.321 66.55L731.071 63.7C726.421 62.05 721.021 59.95 717.121 55.75C711.871 50.2 711.121 43.15 711.121 38.35C711.121 29.5 713.821 22 719.821 15.85C726.871 8.65 735.271 6.7 744.571 6.7C751.471 6.7 762.571 7.9 774.271 16.6ZM810.842 101.35V143.35H789.242V42.1H810.842V50.05C817.892 40.9 826.592 39.85 831.692 39.85C843.692 39.85 851.192 45.1 855.392 49.3C861.392 55.3 865.442 64.45 865.442 75.4C865.442 86.95 861.392 95.65 854.792 102.25C848.192 108.85 840.992 111.25 832.142 111.25C818.792 111.25 813.092 104.5 810.842 101.35ZM826.442 58.45C820.442 58.45 816.542 61.3 814.442 63.4C810.992 66.85 809.342 71.65 809.342 75.7C809.342 79.9 810.992 84.25 814.142 87.55C817.292 90.7 821.792 92.65 826.442 92.65C830.492 92.65 834.842 91 837.992 88C841.442 84.7 843.242 79.6 843.242 75.25C843.242 70.3 841.142 65.95 838.142 63.1C834.992 60.1 830.792 58.45 826.442 58.45ZM877.39 42.1H898.99V109H877.39V42.1ZM875.59 13.6C875.59 6.55 881.14 1 888.19 1C895.24 1 900.79 6.55 900.79 13.6C900.79 20.65 895.24 26.2 888.19 26.2C881.14 26.2 875.59 20.65 875.59 13.6ZM914.345 109V42.1H935.945V50.05C942.545 41.65 950.345 40.3 956.645 40.3C962.495 40.3 970.145 41.35 975.845 47.05C982.145 53.35 982.595 61.3 982.595 66.7V109H960.995V74.65C960.995 70.3 960.845 64.75 957.395 61.3C955.745 59.65 953.045 58.3 949.145 58.3C944.645 58.3 941.795 60.1 940.145 61.9C936.545 65.5 935.945 70.3 935.945 74.65V109H914.345Z" stroke="white" stroke-width="2" mask="url(#path-1-outside-1_600_238)"/>
</svg>
