<svg width="549" height="114" viewBox="0 0 549 114" fill="none" xmlns="http://www.w3.org/2000/svg">
<path d="M71.832 2.39062L68.5508 23.0742H66.9688C66.8906 18.5039 66.3242 14.9492 65.2695 12.4102C64.2148 9.83203 62.3789 7.97656 59.7617 6.84375C57.1445 5.67188 53.4336 4.91016 48.6289 4.55859L45.7578 4.38281L30.1719 77.8594C29.8203 79.5781 29.7422 80.9258 29.9375 81.9023C30.1719 82.8398 30.875 83.5625 32.0469 84.0703C33.2188 84.5391 35.0547 84.9492 37.5547 85.3008L37.2031 87H5.09375L5.44531 85.3008C8.02344 84.9883 9.97656 84.5977 11.3047 84.1289C12.6719 83.6211 13.668 82.8789 14.293 81.9023C14.918 80.9258 15.4062 79.5781 15.7578 77.8594L31.4023 4.38281L28.4727 4.55859C23.3555 4.91016 19.2148 5.73047 16.0508 7.01953C12.8867 8.26953 10.2891 10.1836 8.25781 12.7617C6.22656 15.3398 4.3125 18.7773 2.51562 23.0742H0.933594L6.03125 2.39062H71.832ZM78.6289 87.9961C74.7617 87.9961 71.2266 87.1172 68.0234 85.3594C64.8203 83.5625 62.2617 80.9258 60.3477 77.4492C58.4727 73.9336 57.5352 69.6562 57.5352 64.6172C57.5352 59.6953 58.2969 55.1055 59.8203 50.8477C61.3438 46.5508 63.4531 42.7812 66.1484 39.5391C68.8828 36.2969 72.0664 33.7773 75.6992 31.9805C79.332 30.1445 83.2578 29.2266 87.4766 29.2266C92.2812 29.2266 96.1094 30.2422 98.9609 32.2734C101.852 34.2656 103.297 37.0195 103.297 40.5352C103.297 43.3867 102.281 45.9453 100.25 48.2109C98.2578 50.4766 95.1523 52.5859 90.9336 54.5391C86.7148 56.4531 81.2852 58.3672 74.6445 60.2812L69.8398 61.6875L70.0156 59.8125L74.4688 58.3477C77.3594 57.4102 79.9375 56.2383 82.2031 54.832C84.4688 53.4258 86.3828 51.8438 87.9453 50.0859C89.5078 48.2891 90.6992 46.375 91.5195 44.3438C92.3789 42.2734 92.8086 40.1445 92.8086 37.957C92.8086 35.9258 92.3594 34.3438 91.4609 33.2109C90.6016 32.0391 89.1562 31.4531 87.125 31.4531C84.625 31.4531 82.3789 32.3906 80.3867 34.2656C78.3945 36.1406 76.7148 38.6406 75.3477 41.7656C73.9805 44.8516 72.9258 48.2695 72.1836 52.0195C71.4805 55.7695 71.1289 59.5195 71.1289 63.2695C71.1289 67.6445 71.7344 71.2578 72.9453 74.1094C74.1562 76.9609 75.8359 79.0898 77.9844 80.4961C80.1328 81.9023 82.5742 82.6055 85.3086 82.6055C87.8477 82.6055 90.2695 82.0586 92.5742 80.9648C94.8789 79.8711 96.7734 78.543 98.2578 76.9805L97.8477 78.8555C96.6758 80.5742 95.1133 82.1367 93.1602 83.543C91.2461 84.9102 89.0391 86.0039 86.5391 86.8242C84.0781 87.6055 81.4414 87.9961 78.6289 87.9961ZM130.25 87.9961C126.344 87.9961 122.77 87.1172 119.527 85.3594C116.285 83.6016 113.688 80.9844 111.734 77.5078C109.781 73.9922 108.805 69.6367 108.805 64.4414C108.805 59.2852 109.586 54.5586 111.148 50.2617C112.711 45.9258 114.879 42.1953 117.652 39.0703C120.426 35.9453 123.629 33.5234 127.262 31.8047C130.895 30.0859 134.801 29.2266 138.98 29.2266C142.262 29.2266 145.035 29.7539 147.301 30.8086C149.566 31.8633 151.285 33.2891 152.457 35.0859C153.668 36.8828 154.273 38.875 154.273 41.0625C154.273 42.8984 153.629 44.4609 152.34 45.75C151.09 47 149.547 47.625 147.711 47.625C145.953 47.625 144.449 47 143.199 45.75C141.988 44.5 141.383 43.0156 141.383 41.2969C141.383 39.4609 142.008 37.9375 143.258 36.7266C144.547 35.5156 146.07 34.9102 147.828 34.9102C149.547 34.9102 150.992 35.4961 152.164 36.668C153.336 37.8398 153.922 39.3047 153.922 41.0625H152.105C152.027 39.3047 151.52 37.7617 150.582 36.4336C149.684 35.0664 148.453 33.9922 146.891 33.2109C145.367 32.4297 143.609 32.0391 141.617 32.0391C138.492 32.0391 135.738 32.9375 133.355 34.7344C130.973 36.5312 128.961 38.9531 127.32 42C125.719 45.0078 124.508 48.3867 123.688 52.1367C122.867 55.8867 122.457 59.7148 122.457 63.6211C122.457 67.8008 123.062 71.2969 124.273 74.1094C125.484 76.9219 127.164 79.0508 129.312 80.4961C131.5 81.9023 134 82.6055 136.812 82.6055C139.312 82.6055 141.773 82.0586 144.195 80.9648C146.617 79.8711 148.531 78.543 149.938 76.9805L149.586 78.8555C148.414 80.5352 146.832 82.0781 144.84 83.4844C142.887 84.8906 140.66 86.0039 138.16 86.8242C135.66 87.6055 133.023 87.9961 130.25 87.9961ZM188.785 0.574219L178.414 47.918C179.938 43.582 181.871 40.0469 184.215 37.3125C186.559 34.5391 189.137 32.5078 191.949 31.2188C194.801 29.8906 197.672 29.2266 200.562 29.2266C205.523 29.2266 209.176 30.75 211.52 33.7969C213.902 36.8438 214.43 41.4336 213.102 47.5664L206.891 76.3359C206.461 78.3281 206.559 79.7734 207.184 80.6719C207.809 81.5703 208.785 82.0195 210.113 82.0195C211.129 82.0195 212.203 81.8242 213.336 81.4336C214.469 81.0039 215.426 80.418 216.207 79.6758L215.855 81.4922C214.566 83.3672 212.594 84.9102 209.938 86.1211C207.281 87.293 204.547 87.8789 201.734 87.8789C198.453 87.8789 196.09 86.8633 194.645 84.832C193.238 82.8008 193.004 79.5586 193.941 75.1055L200.27 45.6914C201.012 42.2539 200.914 39.5391 199.977 37.5469C199.039 35.5547 197.047 34.5586 194 34.5586C191.93 34.5586 189.82 35.3008 187.672 36.7852C185.562 38.2305 183.629 40.2617 181.871 42.8789C180.113 45.4961 178.746 48.5625 177.77 52.0781L170.328 87H157.145L173.551 10.0078C173.863 8.44531 173.824 7.3125 173.434 6.60938C173.082 5.90625 172.164 5.32031 170.68 4.85156L167.574 4.08984L167.984 2.39062L188.785 0.574219ZM247.848 29.6367L243.922 47.8594C245.289 43.8359 247.086 40.4375 249.312 37.6641C251.539 34.8906 254.078 32.8008 256.93 31.3945C259.781 29.9492 262.789 29.2266 265.953 29.2266C270.875 29.2266 274.527 30.75 276.91 33.7969C279.293 36.8438 279.82 41.4336 278.492 47.5664L272.281 76.3359C271.852 78.3281 271.949 79.7734 272.574 80.6719C273.199 81.5703 274.176 82.0195 275.504 82.0195C276.48 82.0195 277.535 81.8242 278.668 81.4336C279.84 81.0039 280.816 80.418 281.598 79.6758L281.246 81.4922C279.957 83.3672 277.984 84.9102 275.328 86.1211C272.672 87.293 269.938 87.8789 267.125 87.8789C263.844 87.8789 261.48 86.8633 260.035 84.832C258.629 82.8008 258.395 79.5586 259.332 75.1055L265.66 45.6914C266.402 42.2539 266.305 39.5391 265.367 37.5469C264.43 35.5547 262.438 34.5586 259.391 34.5586C257.086 34.5586 254.859 35.3398 252.711 36.9023C250.602 38.4258 248.707 40.5156 247.027 43.1719C245.387 45.8281 244.117 48.8359 243.219 52.1953L235.777 87H222.594L232.73 39.6562C233.043 38.0938 233.004 36.9609 232.613 36.2578C232.262 35.5547 231.344 34.9688 229.859 34.5L226.812 33.7383L227.164 32.0391L247.848 29.6367ZM313.062 87.9961C308.492 87.9961 304.449 86.9023 300.934 84.7148C297.457 82.5273 294.742 79.5195 292.789 75.6914C290.836 71.8633 289.859 67.4883 289.859 62.5664C289.859 58.1133 290.562 53.8945 291.969 49.9102C293.375 45.8867 295.406 42.332 298.062 39.2461C300.758 36.1211 304.02 33.6797 307.848 31.9219C311.715 30.125 316.07 29.2266 320.914 29.2266C325.484 29.2266 329.508 30.3203 332.984 32.5078C336.5 34.6953 339.234 37.7031 341.188 41.5312C343.141 45.3594 344.117 49.7344 344.117 54.6562C344.117 59.1094 343.414 63.3477 342.008 67.3711C340.602 71.3555 338.551 74.9102 335.855 78.0352C333.199 81.1211 329.938 83.5625 326.07 85.3594C322.242 87.1172 317.906 87.9961 313.062 87.9961ZM313.238 85.7109C315.465 85.7109 317.477 84.9688 319.273 83.4844C321.109 82 322.711 80.0078 324.078 77.5078C325.484 74.9688 326.656 72.1172 327.594 68.9531C328.531 65.7891 329.234 62.5078 329.703 59.1094C330.211 55.6719 330.484 52.332 330.523 49.0898C330.562 43.1914 329.742 38.7969 328.062 35.9062C326.422 33.0156 324 31.5703 320.797 31.5703C318.531 31.5703 316.48 32.3125 314.645 33.7969C312.848 35.2422 311.246 37.2344 309.84 39.7734C308.473 42.2734 307.32 45.1055 306.383 48.2695C305.445 51.4336 304.723 54.7344 304.215 58.1719C303.746 61.5703 303.492 64.8906 303.453 68.1328C303.414 74.0312 304.215 78.4453 305.855 81.375C307.535 84.2656 309.996 85.7109 313.238 85.7109ZM383.023 0.574219L366.91 76.3359C366.48 78.3281 366.559 79.7734 367.145 80.6719C367.77 81.5703 368.766 82.0195 370.133 82.0195C371.109 82.0195 372.164 81.8242 373.297 81.4336C374.43 81.0039 375.387 80.418 376.168 79.6758L375.875 81.4922C374.547 83.3672 372.555 84.9102 369.898 86.1211C367.242 87.293 364.508 87.8789 361.695 87.8789C358.453 87.8789 356.109 86.8633 354.664 84.832C353.219 82.8008 352.984 79.5586 353.961 75.1055L367.789 10.0078C368.102 8.44531 368.062 7.3125 367.672 6.60938C367.32 5.90625 366.402 5.32031 364.918 4.85156L361.871 4.08984L362.223 2.39062L383.023 0.574219ZM408.219 87.9961C403.648 87.9961 399.605 86.9023 396.09 84.7148C392.613 82.5273 389.898 79.5195 387.945 75.6914C385.992 71.8633 385.016 67.4883 385.016 62.5664C385.016 58.1133 385.719 53.8945 387.125 49.9102C388.531 45.8867 390.562 42.332 393.219 39.2461C395.914 36.1211 399.176 33.6797 403.004 31.9219C406.871 30.125 411.227 29.2266 416.07 29.2266C420.641 29.2266 424.664 30.3203 428.141 32.5078C431.656 34.6953 434.391 37.7031 436.344 41.5312C438.297 45.3594 439.273 49.7344 439.273 54.6562C439.273 59.1094 438.57 63.3477 437.164 67.3711C435.758 71.3555 433.707 74.9102 431.012 78.0352C428.355 81.1211 425.094 83.5625 421.227 85.3594C417.398 87.1172 413.062 87.9961 408.219 87.9961ZM408.395 85.7109C410.621 85.7109 412.633 84.9688 414.43 83.4844C416.266 82 417.867 80.0078 419.234 77.5078C420.641 74.9688 421.812 72.1172 422.75 68.9531C423.688 65.7891 424.391 62.5078 424.859 59.1094C425.367 55.6719 425.641 52.332 425.68 49.0898C425.719 43.1914 424.898 38.7969 423.219 35.9062C421.578 33.0156 419.156 31.5703 415.953 31.5703C413.688 31.5703 411.637 32.3125 409.801 33.7969C408.004 35.2422 406.402 37.2344 404.996 39.7734C403.629 42.2734 402.477 45.1055 401.539 48.2695C400.602 51.4336 399.879 54.7344 399.371 58.1719C398.902 61.5703 398.648 64.8906 398.609 68.1328C398.57 74.0312 399.371 78.4453 401.012 81.375C402.691 84.2656 405.152 85.7109 408.395 85.7109ZM504.137 35.0859L486.207 33.6211L485.738 32.1562L504.957 31.2773L504.137 35.0859ZM463.121 53.3672C463.121 57.1172 463.824 60.1641 465.23 62.5078C466.637 64.8125 468.766 65.9648 471.617 65.9648C473.453 65.9648 475.113 65.3398 476.598 64.0898C478.082 62.8008 479.352 61.1016 480.406 58.9922C481.461 56.8828 482.262 54.5195 482.809 51.9023C483.355 49.2852 483.629 46.6289 483.629 43.9336C483.629 40.1445 482.906 37.0977 481.461 34.793C480.055 32.4883 477.945 31.3359 475.133 31.3359C473.258 31.3359 471.578 31.9805 470.094 33.2695C468.648 34.5195 467.398 36.2188 466.344 38.3672C465.289 40.4766 464.488 42.8398 463.941 45.457C463.395 48.0352 463.121 50.6719 463.121 53.3672ZM450.523 50.2031C450.523 46.3359 451.5 42.8398 453.453 39.7148C455.406 36.5508 458.219 34.0508 461.891 32.2148C465.602 30.3398 469.996 29.4023 475.074 29.4023C479.84 29.4023 483.785 30.2227 486.91 31.8633C490.035 33.4648 492.359 35.6133 493.883 38.3086C495.445 41.0039 496.227 43.9141 496.227 47.0391C496.227 50.8672 495.25 54.3828 493.297 57.5859C491.344 60.75 488.531 63.2695 484.859 65.1445C481.188 67.0195 476.793 67.9375 471.676 67.8984C467.027 67.8594 463.121 67.0391 459.957 65.4375C456.832 63.7969 454.469 61.6484 452.867 58.9922C451.305 56.2969 450.523 53.3672 450.523 50.2031ZM464.996 113.895C459.996 113.895 455.543 113.348 451.637 112.254C447.77 111.16 444.703 109.617 442.438 107.625C440.211 105.633 439.098 103.289 439.098 100.594C439.098 97.1562 440.934 94.3242 444.605 92.0977C448.277 89.8711 453.473 88.4062 460.191 87.7031L461.773 88.1719C457.594 88.9531 454.488 90.3594 452.457 92.3906C450.426 94.4219 449.41 96.8828 449.41 99.7734C449.41 103.172 450.895 106.004 453.863 108.27C456.871 110.535 460.699 111.668 465.348 111.668C468.551 111.668 471.402 111.18 473.902 110.203C476.441 109.227 478.434 107.859 479.879 106.102C481.324 104.344 482.047 102.332 482.047 100.066C482.047 97.6445 481.168 95.6133 479.41 93.9727C477.652 92.3711 474.527 91.1211 470.035 90.2227L460.895 88.4062C457.066 87.6641 454.195 86.375 452.281 84.5391C450.367 82.7031 449.391 80.5352 449.352 78.0352C449.352 75.2617 450.621 72.8594 453.16 70.8281C455.699 68.7578 459.742 67.3711 465.289 66.668L466.812 67.1953C464.195 67.5859 462.32 68.2891 461.188 69.3047C460.094 70.2812 459.547 71.375 459.547 72.5859C459.547 73.7188 460.055 74.7539 461.07 75.6914C462.125 76.5898 463.961 77.3125 466.578 77.8594L475.953 79.793C481.852 81.0039 486.09 82.9375 488.668 85.5938C491.246 88.2109 492.535 91.4922 492.535 95.4375C492.535 99.2656 491.227 102.547 488.609 105.281C486.031 108.055 482.633 110.184 478.414 111.668C474.234 113.152 469.762 113.895 464.996 113.895ZM520.309 29.6367L524.938 79.0312C529.547 72.625 533.375 66.8438 536.422 61.6875C539.508 56.5312 541.832 51.8633 543.395 47.6836C544.996 43.5039 545.836 39.7344 545.914 36.375H548.082C548.121 38.2109 547.574 39.6953 546.441 40.8281C545.309 41.9219 543.805 42.4883 541.93 42.5273C540.055 42.5273 538.473 41.9023 537.184 40.6523C535.895 39.3633 535.25 37.7812 535.25 35.9062C535.211 33.9531 535.836 32.3516 537.125 31.1016C538.453 29.8125 540.074 29.168 541.988 29.168C543.941 29.168 545.582 29.8125 546.91 31.1016C548.238 32.3906 548.922 34.1289 548.961 36.3164C548.961 39.2852 548.16 42.8594 546.559 47.0391C544.957 51.1797 542.477 56.0234 539.117 61.5703C535.758 67.1172 531.461 73.4648 526.227 80.6133C525.25 81.8633 524.234 83.1719 523.18 84.5391C522.164 85.8672 521.129 87.2148 520.074 88.582C519.02 89.9492 517.965 91.2969 516.91 92.625C514.293 96.0625 511.734 99.5 509.234 102.938C506.773 106.375 504.332 110.047 501.91 113.953H489.02V113.543C490.895 112.137 492.945 110.535 495.172 108.738C497.398 106.941 499.664 105.066 501.969 103.113C504.312 101.16 506.578 99.168 508.766 97.1367C510.992 95.1445 513.004 93.25 514.801 91.4531L508.355 39.4805C508.16 37.8008 507.809 36.6289 507.301 35.9648C506.793 35.2617 505.797 34.7148 504.312 34.3242L501.5 33.7383L501.852 32.0391L520.309 29.6367Z" fill="#AF001B"/>
</svg>
