<svg width="414" height="111" viewBox="0 0 414 111" fill="none" xmlns="http://www.w3.org/2000/svg">
<path d="M0.518555 55.167C0.518555 46.4756 1.93457 38.834 4.7666 32.2422C7.64746 25.6016 11.6025 20.0352 16.6318 15.543C21.71 11.002 27.5449 7.6084 34.1367 5.3623C40.7285 3.06738 47.7842 1.91992 55.3037 1.91992C63.8975 1.91992 70.8555 2.60352 76.1777 3.9707C81.5 5.33789 85.4551 6.94922 88.043 8.80469L88.9951 34.8057H87.6035C86.6758 30.2646 85.3086 26.1143 83.502 22.3545C81.6953 18.5947 79.4492 15.3721 76.7637 12.6865C74.0781 9.95215 70.9775 7.82812 67.4619 6.31445C63.9463 4.80078 60.0156 4.04395 55.6699 4.04395C48.6387 4.04395 42.5352 6.11914 37.3594 10.2695C32.1836 14.3711 28.2041 20.1816 25.4209 27.7012C22.6377 35.1719 21.2461 43.9854 21.2461 54.1416C21.2461 61.0752 21.9541 67.7891 23.3701 74.2832C24.835 80.7285 27.0078 86.5146 29.8887 91.6416C32.8184 96.7197 36.4805 100.748 40.875 103.727C45.2695 106.705 50.3965 108.194 56.2559 108.194C60.1621 108.194 63.7754 107.511 67.0957 106.144C70.4648 104.776 73.5166 102.799 76.251 100.211C79.0342 97.5742 81.4023 94.3271 83.3555 90.4697C85.3086 86.6123 86.8223 82.1689 87.8965 77.1396H89.2881L88.2627 103.214C86.749 104.288 84.4053 105.387 81.2314 106.51C78.1064 107.584 74.3711 108.487 70.0254 109.22C65.6797 109.952 60.9434 110.318 55.8164 110.318C47.8086 110.318 40.4355 109.049 33.6973 106.51C26.959 103.971 21.0996 100.309 16.1191 95.5234C11.1875 90.6895 7.35449 84.8789 4.62012 78.0918C1.88574 71.3047 0.518555 63.6631 0.518555 55.167ZM123.492 0.381836V99.4785C123.492 102.164 123.98 104.02 124.957 105.045C125.934 106.07 128.106 106.9 131.476 107.535V109H98.4434V107.535C101.813 106.9 103.985 106.07 104.962 105.045C105.938 104.02 106.427 102.164 106.427 99.4785L106.427 12.2471C106.427 10.1475 106.158 8.73145 105.621 7.99902C105.133 7.2666 103.912 6.53418 101.959 5.80176L98.4434 4.55664V3.23828L123.492 0.381836ZM177.032 110.172C170.196 110.172 163.971 108.707 158.355 105.777C152.74 102.848 148.272 98.6729 144.952 93.2529C141.632 87.7842 139.972 81.3389 139.972 73.917C139.972 66.6904 141.632 60.3428 144.952 54.874C148.272 49.4053 152.74 45.1328 158.355 42.0566C164.02 38.9316 170.318 37.3691 177.252 37.3691C184.137 37.3691 190.387 38.834 196.002 41.7637C201.617 44.6934 206.085 48.8926 209.405 54.3613C212.726 59.7812 214.386 66.2266 214.386 73.6973C214.386 80.875 212.701 87.2227 209.332 92.7402C206.012 98.209 201.52 102.481 195.855 105.558C190.24 108.634 183.966 110.172 177.032 110.172ZM177.325 108.121C181.183 108.121 184.479 106.729 187.213 103.946C189.996 101.114 192.12 97.1592 193.585 92.0811C195.05 87.0029 195.782 81.0703 195.782 74.2832C195.782 67.3008 195.001 61.1973 193.438 55.9727C191.925 50.748 189.752 46.6953 186.92 43.8145C184.137 40.8848 180.816 39.4199 176.959 39.4199C173.102 39.4199 169.806 40.8359 167.071 43.668C164.337 46.4512 162.237 50.3818 160.772 55.46C159.308 60.5381 158.575 66.4951 158.575 73.3311C158.575 80.2646 159.332 86.3682 160.846 91.6416C162.408 96.8662 164.581 100.919 167.364 103.8C170.147 106.681 173.468 108.121 177.325 108.121ZM226.178 58.4629C226.178 53.9219 227.398 50.0889 229.84 46.9639C232.281 43.79 235.602 41.3975 239.801 39.7861C244.049 38.1748 248.834 37.3691 254.156 37.3691C259.039 37.3691 263.238 37.7842 266.754 38.6143C270.318 39.4443 272.882 40.3721 274.444 41.3975L274.737 59.708H273.346C272.125 53.165 269.781 48.1602 266.314 44.6934C262.896 41.1777 258.868 39.4199 254.229 39.4199C249.64 39.4199 246.124 40.543 243.683 42.7891C241.29 44.9863 240.094 47.7695 240.094 51.1387C240.094 54.5078 241.266 57.1445 243.609 59.0488C245.953 60.9531 249.298 62.6621 253.644 64.1758L259.137 66.0801C265.387 68.2773 270.172 71.207 273.492 74.8691C276.861 78.5312 278.546 83.1943 278.546 88.8584C278.546 93.3994 277.179 97.2812 274.444 100.504C271.759 103.678 268.243 106.095 263.897 107.755C259.601 109.366 255.084 110.172 250.348 110.172C247.027 110.172 243.829 109.928 240.753 109.439C237.726 109 234.991 108.39 232.55 107.608C230.108 106.827 228.106 105.899 226.544 104.825L225.738 84.6836H227.057C228.082 89.6641 229.815 93.8877 232.257 97.3545C234.698 100.821 237.506 103.482 240.68 105.338C243.854 107.145 247.027 108.048 250.201 108.048C254.645 108.048 258.16 106.876 260.748 104.532C263.336 102.188 264.63 99.3076 264.63 95.8896C264.63 92.374 263.556 89.5176 261.407 87.3203C259.308 85.123 256.012 83.2432 251.52 81.6807L246.026 79.7764C239.728 77.5791 234.845 74.7959 231.378 71.4268C227.911 68.0576 226.178 63.7363 226.178 58.4629ZM289.825 73.624C289.825 66.6904 291.192 60.4893 293.927 55.0205C296.661 49.5518 300.567 45.2549 305.646 42.1299C310.724 38.9561 316.754 37.3691 323.736 37.3691C329.84 37.3691 335.064 38.6143 339.41 41.1045C343.756 43.5459 347.101 46.9395 349.444 51.2852C351.788 55.582 352.96 60.4893 352.96 66.0068C352.96 67.4229 352.862 68.668 352.667 69.7422L302.569 69.7422V67.9844L337.945 67.4717L336.847 68.2773C336.944 67.4961 337.018 66.6416 337.066 65.7139C337.115 64.7373 337.14 63.6631 337.14 62.4912C337.14 58.1943 336.676 54.3125 335.748 50.8457C334.82 47.3789 333.355 44.6201 331.354 42.5693C329.4 40.4697 326.837 39.4199 323.663 39.4199C318.292 39.4199 314.166 41.8613 311.285 46.7441C308.453 51.627 307.037 58.3896 307.037 67.0322C307.037 74.3076 308.185 80.6797 310.479 86.1484C312.774 91.6172 315.948 95.8896 320.001 98.9658C324.054 101.993 328.766 103.507 334.137 103.507C338.238 103.507 341.754 102.848 344.684 101.529C347.613 100.162 350.006 98.4531 351.861 96.4023L351.935 97.8672C349.64 101.578 346.148 104.557 341.461 106.803C336.822 109.049 331.402 110.172 325.201 110.172C318.414 110.172 312.335 108.658 306.964 105.631C301.642 102.555 297.442 98.2822 294.366 92.8135C291.339 87.2959 289.825 80.8994 289.825 73.624ZM385.846 37.7354V55.0205C389.752 49.1123 393.219 44.7422 396.246 41.9102C399.322 39.0781 402.398 37.6621 405.475 37.6621C408.111 37.6621 410.04 38.4678 411.261 40.0791C412.53 41.6416 413.165 43.5459 413.165 45.792C413.165 46.9639 412.994 48.0869 412.652 49.1611C412.359 50.2354 412.018 51.041 411.627 51.5781C410.895 51.334 409.771 51.1143 408.258 50.9189C406.793 50.7236 405.206 50.626 403.497 50.626C400.079 50.626 396.759 51.1387 393.536 52.1641C390.313 53.1406 387.774 54.4834 385.919 56.1924L385.992 99.1123C385.992 100.968 386.188 102.433 386.578 103.507C386.969 104.581 387.774 105.411 388.995 105.997C390.265 106.583 392.169 107.096 394.708 107.535V109H360.943V107.535C364.41 106.949 366.607 106.168 367.535 105.191C368.463 104.166 368.927 102.384 368.927 99.8447V49.6006C368.927 47.501 368.658 46.085 368.121 45.3525C367.633 44.6201 366.412 43.8877 364.459 43.1553L360.943 41.9102V40.5918L385.846 37.7354Z" fill="white"/>
</svg>
