<svg width="270" height="96" viewBox="0 0 270 96" fill="none" xmlns="http://www.w3.org/2000/svg">
<path d="M59.1836 61.1348C59.5091 63.7715 59.9323 65.7897 60.4531 67.1895C60.974 68.5566 61.6738 69.5169 62.5527 70.0703C63.4642 70.5911 64.6035 70.9655 65.9707 71.1934L65.6289 73H39.2129L39.6035 71.1934C41.6868 70.9329 43.2656 70.4609 44.3398 69.7773C45.4466 69.0938 46.1465 68.0684 46.4395 66.7012C46.765 65.3014 46.7975 63.4297 46.5371 61.0859L40.9707 12.4531H41.752L16.8008 59.8652C15.3034 62.7298 14.4082 64.9271 14.1152 66.457C13.8223 67.9544 14.1315 69.0449 15.043 69.7285C15.9544 70.3796 17.5007 70.8678 19.6816 71.1934L19.291 73H0.833984L1.22461 71.1934C2.88477 70.9329 4.28451 70.5098 5.42383 69.9238C6.56315 69.3053 7.70247 68.2311 8.8418 66.7012C9.98112 65.1387 11.4134 62.8275 13.1387 59.7676L44.9746 2.44336H51.6641L59.1836 61.1348ZM21.5371 48.0488L22.9043 45.4609H50.248L50.6387 48.0488H21.5371ZM92.5625 0.832031L79.1348 63.918C78.8092 65.513 78.8906 66.6849 79.3789 67.4336C79.8672 68.1823 80.6647 68.5566 81.7715 68.5566C82.6178 68.5566 83.513 68.3939 84.457 68.0684C85.4336 67.7103 86.2799 67.222 86.9961 66.6035L86.6055 68.459C85.5312 69.9889 83.8711 71.2585 81.625 72.2676C79.3789 73.2441 77.1003 73.7324 74.7891 73.7324C72.0221 73.7324 70.0365 72.8861 68.832 71.1934C67.6602 69.4681 67.4648 66.75 68.2461 63.0391L79.7207 9.08398C79.9811 7.81445 79.9486 6.88672 79.623 6.30078C79.3301 5.71484 78.5651 5.24284 77.3281 4.88477L74.5449 4.20117L74.8867 2.49219L92.5625 0.832031ZM129.75 24.9531L133.021 65.627C135.235 62.7298 137.351 59.7513 139.369 56.6914C141.387 53.6315 143.194 50.6042 144.789 47.6094C146.417 44.582 147.735 41.6686 148.744 38.8691C149.786 36.0371 150.437 33.4004 150.697 30.959H153.041C153.041 32.4238 152.536 33.612 151.527 34.5234C150.551 35.4349 149.281 35.8906 147.719 35.8906C146.124 35.8906 144.773 35.3535 143.666 34.2793C142.592 33.2051 142.055 31.8704 142.055 30.2754C142.055 28.6152 142.624 27.248 143.764 26.1738C144.903 25.0996 146.303 24.5625 147.963 24.5625C149.656 24.5625 151.055 25.1322 152.162 26.2715C153.269 27.4108 153.822 28.957 153.822 30.9102C153.822 32.4727 153.432 34.3932 152.65 36.6719C151.869 38.9505 150.746 41.4896 149.281 44.2891C147.849 47.056 146.124 50.0345 144.105 53.2246C142.087 56.3822 139.841 59.6699 137.367 63.0879C134.893 66.4733 132.224 69.8913 129.359 73.3418H123.451L119.447 26.6133L129.75 24.9531ZM103.432 24.9043L106.85 64.748C108.412 61.9811 109.975 59.1165 111.537 56.1543C113.1 53.1921 114.516 50.2624 115.785 47.3652C117.055 44.4355 118.064 41.6523 118.812 39.0156C119.561 36.3464 119.919 33.9049 119.887 31.6914L121.645 33.6445C121.71 35.4349 121.335 37.7135 120.521 40.4805C119.708 43.2148 118.503 46.3073 116.908 49.7578C115.313 53.2083 113.36 56.9355 111.049 60.9395C108.738 64.9108 106.117 69.0449 103.188 73.3418H97.2305L93.2754 33.3516C93.1452 32.0169 92.8685 31.0892 92.4453 30.5684C92.0221 30.015 91.1921 29.5755 89.9551 29.25L87.416 28.7129L87.7578 26.9551L103.432 24.9043ZM151.02 56.4961C151.02 52.3945 151.589 48.4395 152.729 44.6309C153.9 40.7897 155.561 37.3717 157.709 34.377C159.89 31.3496 162.478 28.957 165.473 27.1992C168.467 25.4414 171.837 24.5625 175.58 24.5625C178.77 24.5625 181.228 25.1647 182.953 26.3691C184.711 27.541 185.834 28.8268 186.322 30.2266L191.889 25.4414H197.65L189.447 63.918C189.089 65.513 189.154 66.6849 189.643 67.4336C190.131 68.1823 190.945 68.5566 192.084 68.5566C192.898 68.5566 193.793 68.3939 194.77 68.0684C195.746 67.7103 196.576 67.222 197.26 66.6035L196.918 68.459C195.811 69.9889 194.135 71.2585 191.889 72.2676C189.675 73.2441 187.413 73.7324 185.102 73.7324C182.53 73.7324 180.674 72.9674 179.535 71.4375C178.396 69.875 178.119 67.4661 178.705 64.2109C178.803 63.625 178.933 62.9414 179.096 62.1602C179.258 61.3464 179.405 60.6465 179.535 60.0605C178.07 64.5202 175.954 67.9382 173.188 70.3145C170.421 72.6908 167.279 73.8789 163.764 73.8789C161.257 73.8789 159.044 73.1628 157.123 71.7305C155.202 70.2982 153.705 68.2799 152.631 65.6758C151.557 63.0716 151.02 60.0117 151.02 56.4961ZM162.494 57.7168C162.494 61.7858 163.048 64.6992 164.154 66.457C165.294 68.1823 166.889 69.0449 168.939 69.0449C171.186 69.0449 173.35 67.873 175.434 65.5293C177.517 63.153 179.079 59.8327 180.121 55.5684L185.15 31.9355C184.825 30.7962 184.06 29.8197 182.855 29.0059C181.651 28.1921 180.137 27.7852 178.314 27.7852C176.199 27.7852 174.294 28.4036 172.602 29.6406C170.909 30.8451 169.428 32.5052 168.158 34.6211C166.921 36.7044 165.88 39.0482 165.033 41.6523C164.187 44.2565 163.552 46.9421 163.129 49.709C162.706 52.4759 162.494 55.1452 162.494 57.7168ZM211.938 24.9043L215.502 66.2129C219.343 60.9395 222.549 56.1706 225.121 51.9062C227.725 47.6094 229.695 43.7194 231.029 40.2363C232.396 36.7533 233.129 33.5794 233.227 30.7148H235.424C235.456 32.2448 234.968 33.4818 233.959 34.4258C232.982 35.3698 231.713 35.8581 230.15 35.8906C228.555 35.8906 227.204 35.3535 226.098 34.2793C224.991 33.1725 224.438 31.8379 224.438 30.2754C224.405 28.6152 224.942 27.248 226.049 26.1738C227.188 25.0671 228.588 24.5137 230.248 24.5137C231.908 24.5137 233.308 25.0671 234.447 26.1738C235.619 27.2806 236.205 28.778 236.205 30.666C236.238 33.1074 235.554 36.0697 234.154 39.5527C232.787 43.0033 230.671 47.0723 227.807 51.7598C224.942 56.4147 221.264 61.7695 216.771 67.8242C215.99 68.8659 215.16 69.9564 214.281 71.0957C213.435 72.2025 212.556 73.3092 211.645 74.416C210.766 75.5553 209.887 76.6784 209.008 77.7852C206.827 80.5846 204.678 83.4167 202.562 86.2812C200.447 89.1784 198.331 92.2383 196.215 95.4609H185.229V95.0215C186.824 93.8496 188.549 92.515 190.404 91.0176C192.292 89.5202 194.213 87.9414 196.166 86.2812C198.119 84.6536 200.007 82.9935 201.83 81.3008C203.686 79.6406 205.346 78.0618 206.811 76.5645L201.83 33.4004C201.667 32.0658 201.374 31.1217 200.951 30.5684C200.528 30.015 199.682 29.5755 198.412 29.25L195.873 28.7129L196.215 26.9551L211.938 24.9043ZM232.084 69.2891L234.33 56.5937H235.941C235.974 61.444 237.048 65.1549 239.164 67.7266C241.312 70.2656 244.047 71.5352 247.367 71.5352C249.809 71.5352 251.843 70.8678 253.471 69.5332C255.098 68.1986 255.912 66.3268 255.912 63.918C255.912 61.9648 255.505 60.2396 254.691 58.7422C253.878 57.2448 252.396 55.7637 250.248 54.2988L246.244 51.4668C243.607 49.6439 241.605 47.6582 240.238 45.5098C238.904 43.3613 238.236 41.0176 238.236 38.4785C238.236 35.7116 238.952 33.2865 240.385 31.2031C241.817 29.1198 243.852 27.4922 246.488 26.3203C249.158 25.1484 252.315 24.5625 255.961 24.5625C258.988 24.5625 261.69 24.9368 264.066 25.6855C266.443 26.4342 268.282 27.2806 269.584 28.2246L267.094 40.5293H265.531C265.564 38.153 265.255 35.9395 264.604 33.8887C263.952 31.8053 262.895 30.1289 261.43 28.8594C259.965 27.5573 258.044 26.9062 255.668 26.9062C253.194 26.9062 251.322 27.5573 250.053 28.8594C248.783 30.1615 248.148 31.8867 248.148 34.0352C248.148 35.7604 248.588 37.2904 249.467 38.625C250.346 39.9271 251.778 41.2617 253.764 42.6289L257.768 45.4609C260.6 47.4141 262.634 49.4648 263.871 51.6133C265.141 53.7292 265.775 56.1868 265.775 58.9863C265.775 61.9811 264.945 64.6016 263.285 66.8477C261.625 69.0612 259.411 70.7865 256.645 72.0234C253.878 73.2604 250.785 73.8789 247.367 73.8789C245.284 73.8789 243.266 73.6836 241.312 73.293C239.392 72.9023 237.634 72.3652 236.039 71.6816C234.444 70.9655 233.126 70.168 232.084 69.2891Z" fill="#AF001B"/>
</svg>
