<svg width="1920" height="1080" viewBox="0 0 1920 1080" fill="none" xmlns="http://www.w3.org/2000/svg">
<rect width="1920" height="1080" fill="#121212"/>
<path d="M390.673 242.2C432.273 242.2 467.073 255 493.873 281C519.073 305.4 535.473 340.6 535.473 381.8C535.473 417.4 522.673 453.8 493.873 481.8C469.073 505.8 435.473 521 390.673 521C340.673 521 306.673 501 286.673 481.8C261.073 457.8 245.073 421.8 245.073 382.6C245.073 344.2 262.273 305.4 286.273 281.4C304.273 263.4 337.473 242.2 390.673 242.2ZM390.273 299C367.073 299 346.273 307.4 331.873 321.8C320.273 333 308.273 352.6 308.273 382.2C308.273 406.6 316.273 426.2 332.673 442.2C349.873 458.6 369.073 464.2 389.873 464.2C417.073 464.2 436.273 454.2 449.073 441.4C459.473 431.4 472.273 412.6 472.273 381.8C472.273 354.2 461.073 333.8 449.073 321.8C435.873 309 414.673 299 390.273 299ZM806.902 248.2V406.2C806.902 431.8 803.702 463.4 777.302 490.6C751.702 517 722.102 521 694.102 521C666.102 521 636.502 517 610.902 490.6C584.502 463.4 581.302 431.8 581.302 406.2V248.2H642.902V404.6C642.902 416.2 643.702 435.8 656.902 449.4C667.702 461 682.502 463.4 694.102 463.4C705.702 463.4 720.502 461 731.302 449.4C744.502 435.8 745.302 416.2 745.302 404.6V248.2H806.902ZM1016.89 300.2H958.886V515H897.286V300.2H839.286V248.2L1016.89 248.2V300.2ZM1049.27 248.2H1143.27C1166.47 248.2 1192.07 251.4 1213.27 270.2C1236.07 290.2 1239.27 316.6 1239.27 335C1239.27 368.6 1226.47 387.4 1216.47 397.8C1195.27 419.4 1167.27 421.4 1148.47 421.4H1110.87V515H1049.27V248.2ZM1110.87 298.6V371H1132.87C1141.27 371 1156.07 370.6 1166.07 361C1171.67 355.4 1176.07 346.2 1176.07 334.6C1176.07 323.4 1172.07 314.2 1166.07 308.6C1156.87 299.8 1143.67 298.6 1131.67 298.6H1110.87ZM1428.98 248.2V300.2H1339.78V351.8H1424.58V403.8L1339.78 403.8V463L1428.98 463V515H1278.18V248.2L1428.98 248.2ZM1478.96 248.2H1572.56C1606.56 248.2 1627.76 259.4 1640.56 271.4C1651.76 282.2 1663.76 301.4 1663.76 331C1663.76 347.8 1660.16 368.6 1642.96 385.4C1633.76 394.2 1620.56 402.2 1605.76 405.8L1687.76 515L1612.56 515L1540.56 409.8V515H1478.96V248.2ZM1540.56 296.2V369.4H1554.56C1565.76 369.4 1580.96 368.2 1591.36 357.8C1595.76 353.4 1601.36 345 1601.36 331.8C1601.36 316.6 1594.16 308.6 1588.96 304.6C1578.96 297 1562.96 296.2 1554.96 296.2H1540.56Z" fill="white"/>
<path d="M605.484 574.969L608.805 645.281H608.609C605.094 628.875 600.081 615.919 593.57 606.414C587.19 596.909 578.141 589.878 566.422 585.32C554.833 580.763 539.273 577.833 519.742 576.531L494.938 575.164V714.422L531.461 712.469C542.268 711.948 550.536 710.125 556.266 707C561.995 703.875 566.161 699.383 568.766 693.523C571.5 687.534 573.714 680.112 575.406 671.258H575.602V757.781H575.406C573.714 748.927 571.5 741.57 568.766 735.711C566.161 729.721 561.995 725.164 556.266 722.039C550.536 718.914 542.268 717.026 531.461 716.375L494.938 714.617V826.922C494.938 833.432 495.523 838.641 496.695 842.547C497.867 846.453 500.146 849.513 503.531 851.727C507.047 853.94 512.125 855.633 518.766 856.805V857H416.422V856.805C422.151 855.242 426.578 853.549 429.703 851.727C432.958 849.904 435.172 847.299 436.344 843.914C437.646 840.529 438.297 835.906 438.297 830.047V601.922C438.297 595.932 437.646 591.31 436.344 588.055C435.172 584.669 432.958 582.065 429.703 580.242C426.578 578.289 422.151 576.596 416.422 575.164V574.969H605.484ZM620.523 715.984C620.523 695.932 623.909 677.247 630.68 659.93C637.451 642.482 647.086 627.182 659.586 614.031C672.086 600.88 687.06 590.594 704.508 583.172C721.956 575.75 741.357 572.039 762.711 572.039C782.112 572.039 800.536 575.424 817.984 582.195C835.432 588.836 850.862 598.406 864.273 610.906C877.815 623.406 888.362 638.51 895.914 656.219C903.596 673.797 907.438 693.589 907.438 715.594C907.438 735.516 904.052 754.201 897.281 771.648C890.641 789.096 881.005 804.461 868.375 817.742C855.875 831.023 840.901 841.375 823.453 848.797C806.135 856.219 786.734 859.93 765.25 859.93C745.719 859.93 727.229 856.544 709.781 849.773C692.464 843.003 677.099 833.367 663.688 820.867C650.276 808.367 639.729 793.263 632.047 775.555C624.365 757.846 620.523 737.99 620.523 715.984ZM683.414 714.227C683.414 736.232 685.302 756.154 689.078 773.992C692.854 791.831 698.323 807.13 705.484 819.891C712.646 832.521 721.24 842.286 731.266 849.188C741.422 855.958 752.75 859.344 765.25 859.344C784.13 859.344 799.365 853.484 810.953 841.766C822.672 829.917 831.201 813.38 836.539 792.156C842.008 770.802 844.742 745.867 844.742 717.352C844.742 695.346 842.854 675.424 839.078 657.586C835.302 639.747 829.833 624.513 822.672 611.883C815.51 599.253 806.852 589.552 796.695 582.781C786.669 576.01 775.341 572.625 762.711 572.625C743.961 572.625 728.727 578.484 717.008 590.203C705.289 601.922 696.76 618.393 691.422 639.617C686.083 660.841 683.414 685.711 683.414 714.227ZM1149.23 648.992C1149.23 660.451 1146.57 670.672 1141.23 679.656C1136.02 688.51 1128.92 695.867 1119.94 701.727C1110.95 707.456 1100.8 711.492 1089.47 713.836V705.633L1137.12 806.023C1143.64 819.044 1149.04 828.94 1153.34 835.711C1157.63 842.482 1161.47 847.365 1164.86 850.359C1168.38 853.224 1171.96 855.372 1175.6 856.805V857H1105.09L1042.01 720.672H1007.44V831.609C1007.44 836.948 1008.02 841.18 1009.2 844.305C1010.5 847.43 1012.65 849.969 1015.64 851.922C1018.64 853.745 1022.87 855.372 1028.34 856.805V857H928.922V856.805C934.651 855.112 939.078 853.354 942.203 851.531C945.458 849.578 947.672 846.909 948.844 843.523C950.146 840.138 950.797 835.646 950.797 830.047V601.922C950.797 595.802 950.146 591.049 948.844 587.664C947.672 584.279 945.458 581.674 942.203 579.852C939.078 577.898 934.651 576.336 928.922 575.164V574.969H1030.29C1056.98 574.969 1079.12 578.029 1096.7 584.148C1114.27 590.268 1127.42 598.862 1136.15 609.93C1144.87 620.997 1149.23 634.018 1149.23 648.992ZM1093.38 650.164C1093.38 637.404 1091.1 625.49 1086.54 614.422C1081.98 603.354 1074.49 594.37 1064.08 587.469C1053.66 580.438 1039.66 576.531 1022.09 575.75L1007.44 575.164V720.477L1026.58 719.695C1046.11 718.914 1062.12 712.599 1074.62 700.75C1087.12 688.771 1093.38 671.909 1093.38 650.164ZM1266.03 574.969L1347.48 801.531L1420.13 574.969H1495.91V575.164C1490.58 576.336 1486.34 577.964 1483.22 580.047C1480.22 582 1478.14 584.669 1476.97 588.055C1475.93 591.44 1475.47 595.997 1475.6 601.727L1484.39 830.242C1484.65 836.232 1485.37 840.984 1486.54 844.5C1487.71 847.885 1489.86 850.49 1492.98 852.312C1496.24 854.135 1500.86 855.633 1506.85 856.805V857H1405.68V856.805C1411.54 855.633 1416.1 854.201 1419.35 852.508C1422.61 850.685 1424.89 848.016 1426.19 844.5C1427.49 840.984 1428.01 836.232 1427.75 830.242L1419.35 597.234H1420.13L1348.06 801.531L1330.09 857H1308.22L1212.32 591.375H1214.27L1210.76 803.094C1210.63 816.375 1211.08 826.661 1212.12 833.953C1213.17 841.245 1215.45 846.518 1218.96 849.773C1222.61 853.029 1228.01 855.372 1235.17 856.805V857H1175.99V856.805C1183.02 855.633 1188.36 853.419 1192.01 850.164C1195.78 846.779 1198.45 841.44 1200.02 834.148C1201.71 826.727 1202.88 816.375 1203.53 803.094L1213.1 608.172C1213.49 601.531 1212.97 596.062 1211.54 591.766C1210.11 587.339 1207.76 583.823 1204.51 581.219C1201.38 578.484 1197.35 576.466 1192.4 575.164V574.969H1266.03Z" fill="white"/>
</svg>
