<svg width="346" height="84" viewBox="0 0 346 84" fill="none" xmlns="http://www.w3.org/2000/svg">
<path d="M52.64 9.52L44.48 20.2C39.8 13.96 34.28 13.36 31.4 13.36C23 13.36 20.36 18.64 20.36 22.72C20.36 24.64 20.96 26.44 22.88 28.12C24.8 29.92 27.44 30.88 32.48 32.68C38.72 34.84 44.6 37 48.68 40.72C52.28 43.96 55.52 49.36 55.52 57.52C55.52 73.12 44.24 83.8 27.68 83.8C12.92 83.8 4.28 74.8 0.0800002 68.68L10.28 58.96C14.12 66.76 21.44 69.64 27.08 69.64C34.16 69.64 39.44 65.32 39.44 58.6C39.44 55.72 38.48 53.44 36.32 51.4C33.32 48.64 28.52 47.08 23.96 45.52C19.76 44.08 14.72 42.16 10.64 38.56C8 36.28 4.28 31.84 4.28 23.68C4.28 11.92 12.2 0.159995 29.96 0.159995C35 0.159995 44.48 1.12 52.64 9.52ZM82.4216 1.95999V32.92L116.262 32.92V1.95999H131.862V82H116.262L116.262 46.36L82.4216 46.36L82.4216 82H66.8216L66.8216 1.95999H82.4216ZM202.222 82L195.142 65.2H162.862L155.782 82H138.862L173.302 1.95999H185.542L219.022 82H202.222ZM167.782 52.48H190.582L179.182 23.68L167.782 52.48ZM225.967 1.95999H249.127C260.167 1.95999 265.807 4.84 269.527 7.95999C275.647 13.12 277.447 19.96 277.447 25.96C277.447 33.76 274.327 40.6 268.087 44.8C266.047 46.24 263.167 47.56 259.327 48.28L284.287 82H264.847L243.487 49.84H241.567V82H225.967V1.95999ZM241.567 14.68V38.8H246.007C249.007 38.8 261.367 38.44 261.367 26.68C261.367 14.8 249.127 14.68 246.247 14.68H241.567ZM292.473 1.95999H315.753C324.753 1.95999 330.993 2.92 336.873 8.07999C343.353 13.84 345.033 21.64 345.033 27.4C345.033 30.52 344.553 39.16 338.433 45.28C333.993 49.72 327.393 52.36 318.153 52.36H308.073V82H292.473V1.95999ZM308.073 15.4V38.92H314.433C317.433 38.92 321.273 38.92 324.633 36.4C327.513 34.12 328.953 30.52 328.953 27.04C328.953 22.6 326.793 19.6 324.513 17.92C321.273 15.64 317.193 15.4 313.473 15.4H308.073Z" fill="black"/>
</svg>
