<svg width="152" height="267" viewBox="0 0 152 267" fill="none" xmlns="http://www.w3.org/2000/svg">
<path fill-rule="evenodd" clip-rule="evenodd" d="M0 267H28.3999V168.2H61.9999C92.7999 168.2 114.8 159.4 129.6 144.6C150 124.2 151.6 95.4 151.6 85C151.6 65.8 146 39.8 124.4 20.5999C104.8 3.39995 83.9999 0.199951 53.9999 0.199951H0V267ZM28.3999 123.4V45H46.3999C58.7999 45 72.3999 45.7999 83.1999 53.3999C90.7999 58.9999 97.9999 69 97.9999 83.8C97.9999 95.4 93.1999 107.4 83.5999 115C72.3999 123.4 59.5999 123.4 49.5999 123.4H28.3999Z" fill="white"/>
</svg>
