<svg width="569" height="84" viewBox="0 0 569 84" fill="none" xmlns="http://www.w3.org/2000/svg">
<path d="M62.2 60.88V79.12C57.4 81.64 51.04 83.8 42.4 83.8C28.36 83.8 19.84 79 13.12 72.64C3.88 63.76 0.28 53.8 0.28 42.04C0.28 27.52 6.28 17.08 13.12 10.72C21.16 3.16 31.12 0.159995 42.52 0.159995C48.16 0.159995 54.88 1.12 62.2 5.08V23.32C54.88 14.92 45.76 14.32 42.88 14.32C26.8 14.32 16.36 27.52 16.36 42.28C16.36 60.04 30.04 69.64 43.48 69.64C50.92 69.64 57.52 66.4 62.2 60.88ZM113.022 0.159995C138.222 0.159995 155.742 17.68 155.742 42.04C155.742 66.4 138.222 83.8 113.022 83.8C87.8219 83.8 70.3019 66.4 70.3019 42.04C70.3019 17.68 87.8219 0.159995 113.022 0.159995ZM113.022 69.64C128.622 69.64 139.662 58.24 139.662 42.04C139.662 25.84 128.622 14.32 113.022 14.32C97.4219 14.32 86.3819 25.84 86.3819 42.04C86.3819 58.24 97.4219 69.64 113.022 69.64ZM183.318 82H167.718V1.95999H178.518L227.238 55.36V1.95999L242.838 1.95999V82H232.038L183.318 28.48V82ZM301.917 15.4H283.917V82H268.317V15.4L250.317 15.4V1.95999L301.917 1.95999V15.4ZM309.403 1.95999L332.563 1.95999C343.603 1.95999 349.243 4.84 352.963 7.95999C359.083 13.12 360.883 19.96 360.883 25.96C360.883 33.76 357.763 40.6 351.523 44.8C349.483 46.24 346.603 47.56 342.763 48.28L367.723 82H348.283L326.923 49.84H325.003V82H309.403V1.95999ZM325.003 14.68V38.8H329.443C332.443 38.8 344.803 38.44 344.803 26.68C344.803 14.8 332.563 14.68 329.683 14.68H325.003ZM414.789 0.159995C439.989 0.159995 457.509 17.68 457.509 42.04C457.509 66.4 439.989 83.8 414.789 83.8C389.589 83.8 372.069 66.4 372.069 42.04C372.069 17.68 389.589 0.159995 414.789 0.159995ZM414.789 69.64C430.389 69.64 441.429 58.24 441.429 42.04C441.429 25.84 430.389 14.32 414.789 14.32C399.189 14.32 388.149 25.84 388.149 42.04C388.149 58.24 399.189 69.64 414.789 69.64ZM469.486 1.95999L485.086 1.95999V68.56H509.806V82H469.486V1.95999ZM565.699 9.52L557.539 20.2C552.859 13.96 547.339 13.36 544.459 13.36C536.059 13.36 533.419 18.64 533.419 22.72C533.419 24.64 534.019 26.44 535.939 28.12C537.859 29.92 540.499 30.88 545.539 32.68C551.779 34.84 557.659 37 561.739 40.72C565.339 43.96 568.579 49.36 568.579 57.52C568.579 73.12 557.299 83.8 540.739 83.8C525.979 83.8 517.339 74.8 513.139 68.68L523.339 58.96C527.179 66.76 534.499 69.64 540.139 69.64C547.219 69.64 552.499 65.32 552.499 58.6C552.499 55.72 551.539 53.44 549.379 51.4C546.379 48.64 541.579 47.08 537.019 45.52C532.819 44.08 527.779 42.16 523.699 38.56C521.059 36.28 517.339 31.84 517.339 23.68C517.339 11.92 525.259 0.159995 543.019 0.159995C548.059 0.159995 557.539 1.12 565.699 9.52Z" fill="black"/>
</svg>
