<svg width="336" height="96" viewBox="0 0 336 96" fill="none" xmlns="http://www.w3.org/2000/svg">
<path d="M59.0313 61.1348C59.3568 63.7715 59.7799 65.7897 60.3008 67.1895C60.8216 68.5566 61.5215 69.5169 62.4004 70.0703C63.3118 70.5911 64.4512 70.9655 65.8184 71.1934L65.4766 73H39.0605L39.4512 71.1934C41.5345 70.9329 43.1133 70.4609 44.1875 69.7773C45.2943 69.0938 45.9941 68.0684 46.2871 66.7012C46.6126 65.3014 46.6452 63.4297 46.3848 61.0859L40.8184 12.4531H41.5996L16.6484 59.8652C15.151 62.7298 14.2559 64.9271 13.9629 66.457C13.6699 67.9544 13.9792 69.0449 14.8906 69.7285C15.8021 70.3796 17.3483 70.8678 19.5293 71.1934L19.1387 73H0.681641L1.07227 71.1934C2.73242 70.9329 4.13216 70.5098 5.27148 69.9238C6.41081 69.3053 7.55013 68.2311 8.68945 66.7012C9.82878 65.1387 11.2611 62.8275 12.9863 59.7676L44.8223 2.44336H51.5117L59.0313 61.1348ZM21.3848 48.0488L22.752 45.4609H50.0957L50.4863 48.0488H21.3848ZM127.547 73L79.6465 73L80.0371 71.1934C81.9577 70.9655 83.4225 70.6562 84.4316 70.2656C85.4408 69.8424 86.1732 69.224 86.6289 68.4102C87.1172 67.5964 87.5241 66.4408 87.8496 64.9434L99.3242 10.9883C99.6497 9.36068 99.7474 8.10742 99.6172 7.22852C99.5195 6.34961 99.0475 5.69857 98.2012 5.27539C97.3874 4.85221 96.069 4.52669 94.2461 4.29883L94.6367 2.49219H119.93L119.539 4.25C117.553 4.51042 116.04 4.85221 114.998 5.27539C113.956 5.66602 113.191 6.26823 112.703 7.08203C112.215 7.86328 111.808 9.01888 111.482 10.5488L98.6406 70.9492L108.113 70.5586C111.108 70.3958 113.745 69.9889 116.023 69.3379C118.302 68.6868 120.32 67.6777 122.078 66.3105C123.836 64.9434 125.431 63.1693 126.863 60.9883C128.328 58.8073 129.744 56.1217 131.111 52.9316H132.723L127.547 73ZM155.115 73.8789C151.242 73.8789 147.84 72.9674 144.91 71.1445C142.013 69.2891 139.751 66.7663 138.123 63.5762C136.495 60.3861 135.682 56.7402 135.682 52.6387C135.682 48.8952 136.268 45.347 137.439 41.9941C138.644 38.6087 140.369 35.6139 142.615 33.0098C144.861 30.373 147.579 28.306 150.77 26.8086C153.96 25.3112 157.589 24.5625 161.658 24.5625C165.532 24.5625 168.917 25.474 171.814 27.2969C174.744 29.1198 177.023 31.6426 178.65 34.8652C180.278 38.0553 181.092 41.7012 181.092 45.8027C181.092 49.5788 180.49 53.1432 179.285 56.4961C178.113 59.849 176.404 62.8437 174.158 65.4805C171.912 68.0846 169.178 70.1354 165.955 71.6328C162.765 73.1302 159.152 73.8789 155.115 73.8789ZM155.262 71.4863C157.15 71.4863 158.842 70.8841 160.34 69.6797C161.87 68.4427 163.204 66.7988 164.344 64.748C165.516 62.6647 166.492 60.321 167.273 57.7168C168.055 55.1126 168.641 52.3945 169.031 49.5625C169.422 46.7305 169.633 43.9961 169.666 41.3594C169.699 36.5091 169.015 32.8958 167.615 30.5195C166.215 28.1432 164.181 26.9551 161.512 26.9551C159.624 26.9551 157.915 27.5573 156.385 28.7617C154.887 29.9661 153.553 31.61 152.381 33.6934C151.242 35.7767 150.281 38.1204 149.5 40.7246C148.719 43.3288 148.133 46.0469 147.742 48.8789C147.352 51.6784 147.14 54.4128 147.107 57.082C147.075 61.9323 147.758 65.5456 149.158 67.9219C150.558 70.2982 152.592 71.4863 155.262 71.4863ZM194.109 73.7812C190.236 73.7812 187.387 72.4303 185.564 69.7285C183.774 67.0267 183.4 63.1693 184.441 58.1562L190.398 29.7871H184.344L184.686 28.127L191.131 26.6133L193.133 16.8965L204.607 15.1387L202.117 27.0039L214.227 26.3691L213.494 29.7871L201.629 29.25L195.281 59.1328C194.565 62.4531 194.646 64.8783 195.525 66.4082C196.437 67.9056 197.999 68.6543 200.213 68.6543C201.613 68.6543 202.882 68.3939 204.021 67.873C205.193 67.3522 206.17 66.6686 206.951 65.8223L206.609 67.6777C205.828 68.9798 204.786 70.0866 203.484 70.998C202.182 71.9095 200.717 72.5931 199.09 73.0488C197.495 73.5371 195.835 73.7812 194.109 73.7812ZM259.012 73.9277C254.454 73.9277 250.288 73.1953 246.512 71.7305C242.768 70.2331 239.529 68.1009 236.795 65.334C234.061 62.5345 231.945 59.1979 230.447 55.3242C228.982 51.4505 228.25 47.1211 228.25 42.3359C228.25 36.7695 229.161 31.5286 230.984 26.6133C232.84 21.6979 235.444 17.3685 238.797 13.625C242.15 9.84896 246.105 6.90299 250.662 4.78711C255.252 2.63867 260.265 1.56445 265.701 1.56445C270.258 1.56445 274.409 2.31315 278.152 3.81055C281.928 5.30794 285.184 7.45638 287.918 10.2559C290.652 13.0228 292.752 16.3431 294.217 20.2168C295.714 24.0905 296.463 28.4036 296.463 33.1562C296.463 38.7227 295.535 43.9635 293.68 48.8789C291.857 53.7943 289.269 58.14 285.916 61.916C282.596 65.6595 278.641 68.6055 274.051 70.7539C269.493 72.8698 264.48 73.9277 259.012 73.9277ZM258.035 71.3398C261.616 71.3398 264.936 70.2168 267.996 67.9707C271.089 65.6921 273.79 62.5671 276.102 58.5957C278.445 54.6243 280.268 50.0508 281.57 44.875C282.905 39.6667 283.572 34.1491 283.572 28.3223C283.572 20.4447 282.026 14.4551 278.934 10.3535C275.841 6.2194 271.756 4.15234 266.678 4.15234C262.902 4.15234 259.451 5.38932 256.326 7.86328C253.201 10.3047 250.499 13.5924 248.221 17.7266C245.942 21.8281 244.184 26.4342 242.947 31.5449C241.743 36.6556 241.141 41.8802 241.141 47.2187C241.141 55.0638 242.671 61.0534 245.73 65.1875C248.823 69.2891 252.924 71.3398 258.035 71.3398ZM305.77 20.8027C306.648 16.0827 307.983 12.209 309.773 9.18164C311.564 6.1543 313.696 3.9082 316.17 2.44336C318.676 0.978516 321.411 0.246094 324.373 0.246094C326.619 0.246094 328.54 0.587891 330.135 1.27148C331.762 1.92253 332.999 2.85026 333.846 4.05469C334.692 5.22656 335.115 6.5612 335.115 8.05859C335.115 9.55599 334.611 10.8092 333.602 11.8184C332.592 12.7949 331.355 13.2832 329.891 13.2832C328.491 13.2832 327.286 12.7949 326.277 11.8184C325.301 10.8418 324.812 9.62109 324.812 8.15625C324.812 6.65885 325.317 5.43815 326.326 4.49414C327.335 3.51758 328.54 3.0293 329.939 3.0293C331.274 3.0293 332.397 3.5013 333.309 4.44531C334.253 5.35677 334.741 6.5612 334.773 8.05859H333.113C333.048 7.08203 332.739 6.2194 332.186 5.4707C331.665 4.72201 330.949 4.13607 330.037 3.71289C329.126 3.25716 328.1 3.0293 326.961 3.0293C324.682 3.0293 322.762 4.11979 321.199 6.30078C319.637 8.48177 318.367 12.3066 317.391 17.7754L315.828 26.7598L326.863 26.125L326.131 29.543L315.486 29.0059L309.041 65.9199C308.032 71.6491 306.779 76.4342 305.281 80.2754C303.816 84.1165 302.14 87.1764 300.252 89.4551C298.396 91.7337 296.378 93.3613 294.197 94.3379C292.016 95.347 289.738 95.8516 287.361 95.8516C284.627 95.8516 282.446 95.0866 280.818 93.5566C279.158 92.0592 278.328 90.2201 278.328 88.0391C278.328 86.5417 278.833 85.3047 279.842 84.3281C280.818 83.3841 281.99 82.9121 283.357 82.9121C284.757 82.9121 285.945 83.4004 286.922 84.377C287.898 85.3535 288.387 86.5579 288.387 87.9902C288.387 89.4551 287.915 90.6595 286.971 91.6035C285.994 92.5801 284.839 93.0684 283.504 93.0684C282.169 93.0684 281.046 92.5964 280.135 91.6523C279.191 90.7083 278.702 89.5039 278.67 88.0391H279.988C280.086 89.4388 280.672 90.627 281.746 91.6035C282.788 92.6126 284.09 93.1172 285.652 93.1172C287.41 93.1172 288.94 92.6452 290.242 91.7012C291.544 90.7572 292.667 89.1296 293.611 86.8184C294.555 84.5397 295.369 81.3822 296.053 77.3457L304.207 29.543H298.299L298.641 27.9316L304.744 26.5156L305.77 20.8027Z" fill="#AF001B"/>
</svg>
