<svg width="314" height="69" viewBox="0 0 314 69" fill="none" xmlns="http://www.w3.org/2000/svg">
<path d="M0.32 2.64H9.12L23.2 38.32L37.6 0.0799952L51.52 38.32L66.08 2.64H74.88L51.04 59.44L37.12 21.6L23.04 59.44L0.32 2.64ZM109.474 2.64V10.32H88.1944V23.84H108.834V31.52H88.1944V48.32H109.474V56H80.0344V2.64H109.474ZM118.434 2.64H129.634C137.074 2.64 143.554 3.44 149.474 7.84C155.954 12.72 159.714 20.48 159.714 29.36C159.714 38.24 156.034 45.92 148.994 50.88C142.754 55.28 136.914 56 129.474 56H118.434V2.64ZM126.594 10.32V48.32H130.114C134.114 48.32 139.634 48 144.274 44.56C147.954 41.76 151.554 36.64 151.554 29.36C151.554 22.32 148.194 16.8 144.354 14C139.714 10.64 134.034 10.32 130.114 10.32H126.594ZM195.919 35.76V28.24H217.919V28.64C217.919 37.76 215.199 45.2 209.999 50.24C204.479 55.6 197.919 57.04 191.839 57.04C184.079 57.04 178.559 54.8 173.679 49.76C168.479 44.4 165.759 37.28 165.759 29.6C165.759 21.28 169.119 14.08 173.519 9.68C178.079 5.04 185.359 1.68 193.599 1.68C198.399 1.68 203.359 2.72 207.519 5.04C211.919 7.52 214.639 10.64 216.159 13.04L209.679 17.6C208.079 15.36 205.679 12.96 203.119 11.52C200.159 9.76 196.959 9.2 193.679 9.2C186.719 9.2 182.239 12.08 179.599 14.72C176.079 18.24 173.919 23.92 173.919 29.68C173.919 35.04 175.919 40.4 179.439 44.16C183.119 48.08 187.679 49.52 192.799 49.52C197.439 49.52 201.279 48.16 204.719 44.8C207.679 41.92 208.879 38.8 209.199 35.76H195.919ZM256.003 2.64V10.32H234.723V23.84H255.363V31.52H234.723V48.32H256.003V56H226.563V2.64H256.003ZM294.563 10.64L288.003 14.48C287.523 13.28 286.803 12.16 285.603 11.12C283.923 9.76 282.163 9.2 279.843 9.2C274.883 9.2 272.323 12.16 272.323 15.6C272.323 17.2 272.883 20 278.083 22.08L283.443 24.24C293.283 28.24 296.003 33.84 296.003 39.92C296.003 50.08 288.803 57.04 278.803 57.04C272.643 57.04 268.963 54.72 266.243 51.68C263.363 48.48 262.083 44.96 261.763 41.28L269.843 39.52C269.843 42.16 270.803 44.64 272.083 46.32C273.603 48.24 275.843 49.52 279.043 49.52C284.003 49.52 287.843 45.92 287.843 40.56C287.843 35.12 283.683 32.88 280.163 31.44L275.043 29.28C270.643 27.44 264.163 23.76 264.163 15.76C264.163 8.56 269.763 1.68 279.763 1.68C285.523 1.68 288.803 3.84 290.483 5.28C291.923 6.56 293.443 8.4 294.563 10.64ZM297.812 66.32L305.972 46L313.012 48.72L303.092 68.48L297.812 66.32Z" fill="white"/>
</svg>
