<svg width="630" height="206" viewBox="0 0 630 206" fill="none" xmlns="http://www.w3.org/2000/svg">
<path d="M563 24.44C579.8 24.44 591.48 36.12 591.48 52.36C591.48 68.6 579.8 80.2 563 80.2C546.2 80.2 534.52 68.6 534.52 52.36C534.52 36.12 546.2 24.44 563 24.44ZM563 70.76C573.4 70.76 580.76 63.16 580.76 52.36C580.76 41.56 573.4 33.88 563 33.88C552.6 33.88 545.24 41.56 545.24 52.36C545.24 63.16 552.6 70.76 563 70.76ZM627.784 25.64V34.6H609.864V46.52H626.664V55.48H609.864V79H599.464V25.64H627.784Z" fill="white"/>
<path d="M70.8 70.4L60.6 83.75C54.75 75.95 47.85 75.2 44.25 75.2C33.75 75.2 30.45 81.8 30.45 86.9C30.45 89.3 31.2 91.55 33.6 93.65C36 95.9 39.3 97.1 45.6 99.35C53.4 102.05 60.75 104.75 65.85 109.4C70.35 113.45 74.4 120.2 74.4 130.4C74.4 149.9 60.3 163.25 39.6 163.25C21.15 163.25 10.35 152 5.1 144.35L17.85 132.2C22.65 141.95 31.8 145.55 38.85 145.55C47.7 145.55 54.3 140.15 54.3 131.75C54.3 128.15 53.1 125.3 50.4 122.75C46.65 119.3 40.65 117.35 34.95 115.4C29.7 113.6 23.4 111.2 18.3 106.7C15 103.85 10.35 98.3 10.35 88.1C10.35 73.4 20.25 58.7 42.45 58.7C48.75 58.7 60.6 59.9 70.8 70.4ZM137.127 58.7C168.627 58.7 190.527 80.6 190.527 111.05C190.527 141.5 168.627 163.25 137.127 163.25C105.627 163.25 83.727 141.5 83.727 111.05C83.727 80.6 105.627 58.7 137.127 58.7ZM137.127 145.55C156.627 145.55 170.427 131.3 170.427 111.05C170.427 90.8 156.627 76.4 137.127 76.4C117.627 76.4 103.827 90.8 103.827 111.05C103.827 131.3 117.627 145.55 137.127 145.55ZM205.498 60.95H224.998V123.8C224.998 131.45 227.548 136.1 229.798 138.65C232.648 142.1 237.898 145.55 245.698 145.55C253.498 145.55 258.748 142.1 261.598 138.65C263.848 136.1 266.398 131.45 266.398 123.8V60.95H285.898V122.15C285.898 131.6 284.398 141.2 278.398 148.85C271.198 158.3 258.598 163.25 245.698 163.25C232.798 163.25 220.198 158.3 212.998 148.85C206.998 141.2 205.498 131.6 205.498 122.15V60.95ZM325.269 161H305.769V60.95H319.269L380.169 127.7V60.95H399.669V161H386.169L325.269 94.1V161ZM419.517 60.95H445.617C459.567 60.95 471.717 62.45 482.817 70.7C494.967 79.85 502.017 94.4 502.017 111.05C502.017 127.7 495.117 142.1 481.917 151.4C470.217 159.65 459.267 161 445.317 161H419.517V60.95ZM439.017 77.75V144.2H445.017C449.967 144.2 460.767 143.9 469.467 137.6C477.417 131.9 481.917 121.7 481.917 111.05C481.917 100.55 477.567 90.35 469.617 84.35C461.517 78.35 451.617 77.75 445.017 77.75H439.017Z" fill="white"/>
</svg>
