<svg width="485" height="126" viewBox="0 0 485 126" fill="none" xmlns="http://www.w3.org/2000/svg">
<path d="M90.28 14.28L76.06 30.3C72.82 25.44 66.7 20.04 56.8 20.04C50.32 20.04 46.36 22.02 44.02 24.18C41.14 26.7 39.34 30.12 39.34 34.26C39.34 38.22 40.96 41.1 44.38 43.44C46.72 45.06 49.78 46.32 55.72 48.84L63.82 52.26C68.5 54.24 74.08 57.3 78.76 62.34C84.16 68.1 86.14 73.68 86.14 81.6C86.14 94.74 81.1 106.98 73.36 114.36C63.46 123.9 50.5 125.7 40.6 125.7C31.42 125.7 23.68 123.9 15.94 118.86C9.82 114.9 4.42 108.78 0.64 103.02L17.74 88.44C19.54 91.86 22.96 96.72 26.2 99.42C30.88 103.38 35.92 104.46 41.32 104.46C46 104.46 52.3 103.74 56.98 98.52C59.5 95.82 61.48 91.86 61.48 86.1C61.48 81.78 60.04 78.36 56.08 75.12C52.12 71.88 48.52 71.16 43.84 69.18L37 66.3C29.44 63.06 25.12 60.18 22.42 57.48C16.12 51.36 15.04 43.98 15.04 37.68C15.04 28.32 17.74 19.32 25.3 11.76C35.02 2.03999 47.26 0.239993 57.88 0.239993C65.62 0.239993 78.94 1.5 90.28 14.28ZM112.632 2.93999H136.032L127.932 69.36C127.572 72.96 126.672 80.34 126.672 82.68C126.672 89.7 129.372 95.64 132.792 98.88C136.932 102.66 143.412 104.46 149.172 104.46C156.012 104.46 161.952 102.48 166.092 99.42C174.732 92.94 175.812 82.5 177.252 70.8L185.712 2.93999H209.112L200.472 73.32C198.672 87.36 196.872 102.3 186.252 113.1C174.912 124.62 159.252 125.7 148.992 125.7C137.832 125.7 123.432 123.9 113.352 113.64C105.432 105.54 103.452 95.64 103.452 85.92C103.452 81.06 104.532 69.54 105.072 65.58L112.632 2.93999ZM232.791 2.93999H265.191C271.671 2.93999 287.511 3.47999 297.411 12.66C302.631 17.52 307.131 25.44 307.131 38.22C307.131 51.18 302.631 61.62 295.791 68.1C286.251 77.1 272.751 78.54 262.851 78.54H246.831L241.431 123H218.031L232.791 2.93999ZM253.671 23.1L249.351 58.38H259.251C264.831 58.38 271.851 58.02 277.251 53.34C282.111 49.02 283.011 43.44 283.011 39.12C283.011 35.52 282.291 29.94 276.531 26.34C272.751 24 266.451 23.1 261.951 23.1H253.671ZM392.119 2.93999L389.599 23.1H346.399L343.159 49.92H384.559L382.039 70.08H340.639L336.679 102.84H379.879L377.359 123H334.159H310.759L325.519 2.93999H392.119ZM411.216 2.93999H445.956C455.136 2.93999 467.016 4.2 475.836 13.38C479.976 17.7 484.296 24.9 484.296 36.42C484.296 47.76 480.156 56.76 474.396 62.34C468.996 67.56 460.176 71.52 452.256 72.78L482.856 123H454.776L428.676 74.76H425.796L419.856 123H396.456L411.216 2.93999ZM432.276 22.02L427.776 58.2H436.056C442.356 58.2 450.276 56.4 454.776 51.9C456.936 49.74 459.996 45.42 459.996 38.22C459.996 34.8 459.276 30.12 455.136 26.52C452.256 24 447.396 22.02 439.656 22.02H432.276Z" fill="white"/>
</svg>
