<svg width="76" height="81" viewBox="0 0 76 81" fill="none" xmlns="http://www.w3.org/2000/svg">
<path d="M6.24 70.45C6.24 71.09 6.31 71.56 6.45 71.86C6.61 72.14 6.9 72.34 7.32 72.46C7.76 72.58 8.44 72.64 9.36 72.64C9.42 72.64 9.45 72.7 9.45 72.82C9.45 72.94 9.42 73 9.36 73C8.54 73 7.9 72.99 7.44 72.97L4.83 72.94L2.67 72.97C2.29 72.99 1.77 73 1.11 73C1.05 73 1.02 72.94 1.02 72.82C1.02 72.7 1.05 72.64 1.11 72.64C1.79 72.64 2.28 72.59 2.58 72.49C2.88 72.39 3.08 72.2 3.18 71.92C3.3 71.64 3.36 71.19 3.36 70.57V56.68C3.36 56.08 3.3 55.64 3.18 55.36C3.08 55.08 2.87 54.89 2.55 54.79C2.25 54.67 1.77 54.61 1.11 54.61C1.05 54.61 1.02 54.55 1.02 54.43C1.02 54.31 1.05 54.25 1.11 54.25L2.67 54.28C3.55 54.32 4.26 54.34 4.8 54.34C5.26 54.34 5.82 54.31 6.48 54.25C6.72 54.23 7.04 54.21 7.44 54.19C7.86 54.17 8.35 54.16 8.91 54.16C10.89 54.16 12.45 54.58 13.59 55.42C14.75 56.26 15.33 57.55 15.33 59.29C15.33 60.55 15 61.62 14.34 62.5C13.7 63.38 12.87 64.04 11.85 64.48C10.85 64.92 9.82 65.14 8.76 65.14C8.2 65.14 7.73 65.09 7.35 64.99C7.29 64.99 7.26 64.94 7.26 64.84C7.26 64.78 7.27 64.72 7.29 64.66C7.33 64.6 7.37 64.58 7.41 64.6C7.73 64.68 8.08 64.72 8.46 64.72C9.5 64.72 10.38 64.29 11.1 63.43C11.82 62.57 12.18 61.34 12.18 59.74C12.18 58.16 11.81 56.94 11.07 56.08C10.33 55.2 9.31 54.76 8.01 54.76C7.53 54.76 7.16 54.81 6.9 54.91C6.66 55.01 6.49 55.2 6.39 55.48C6.29 55.74 6.24 56.16 6.24 56.74V70.45ZM31.0805 71.11C31.1405 71.11 31.1905 71.16 31.2305 71.26C31.2705 71.36 31.2605 71.43 31.2005 71.47L27.2705 73.36L27.1505 73.39C26.9505 73.39 26.7705 73.17 26.6105 72.73C26.4505 72.27 26.3605 71.66 26.3405 70.9C24.9405 72.52 23.4605 73.33 21.9005 73.33C20.8205 73.33 19.9805 73 19.3805 72.34C18.7805 71.66 18.4805 70.74 18.4805 69.58V65.11C18.4805 63.75 18.1705 63.07 17.5505 63.07C17.3505 63.07 17.0705 63.15 16.7105 63.31H16.6805C16.6005 63.31 16.5405 63.26 16.5005 63.16C16.4605 63.06 16.4705 62.99 16.5305 62.95L20.3405 61.18L20.4605 61.15C20.5405 61.15 20.6305 61.19 20.7305 61.27C20.8305 61.35 20.8805 61.42 20.8805 61.48V68.29C20.8805 69.41 21.0805 70.25 21.4805 70.81C21.9005 71.35 22.5305 71.62 23.3705 71.62C23.8705 71.62 24.3805 71.5 24.9005 71.26C25.4405 71.02 25.9205 70.69 26.3405 70.27V65.11C26.3405 64.41 26.2605 63.9 26.1005 63.58C25.9605 63.24 25.7305 63.07 25.4105 63.07C25.2305 63.07 24.9505 63.15 24.5705 63.31H24.5405C24.4605 63.31 24.4005 63.26 24.3605 63.16C24.3205 63.04 24.3405 62.97 24.4205 62.95L28.2005 61.18C28.2405 61.16 28.2905 61.15 28.3505 61.15C28.4305 61.15 28.5205 61.19 28.6205 61.27C28.7205 61.35 28.7705 61.42 28.7705 61.48V69.61C28.7705 70.31 28.8405 70.8 28.9805 71.08C29.1205 71.36 29.3505 71.5 29.6705 71.5C29.9105 71.5 30.3605 71.38 31.0205 71.14L31.0805 71.11ZM40.8598 71.08C40.9198 71.08 40.9698 71.12 41.0098 71.2C41.0698 71.28 41.0698 71.34 41.0098 71.38C40.2698 72.08 39.5698 72.59 38.9098 72.91C38.2498 73.21 37.5498 73.36 36.8098 73.36C35.9498 73.36 35.2198 73.16 34.6198 72.76C34.0398 72.34 33.7498 71.65 33.7498 70.69V63.91C33.7498 63.25 33.6398 62.81 33.4198 62.59C33.2198 62.37 32.8198 62.26 32.2198 62.26C32.1998 62.26 32.1698 62.24 32.1298 62.2C32.1098 62.14 32.0998 62.08 32.0998 62.02C32.0998 61.96 32.1098 61.91 32.1298 61.87C32.1698 61.81 32.1998 61.78 32.2198 61.78C34.0998 61.7 35.2798 60.89 35.7598 59.35C35.7998 59.27 35.8798 59.23 35.9998 59.23C36.1398 59.23 36.2098 59.27 36.2098 59.35V61.72C37.1498 61.7 38.4798 61.6 40.1998 61.42C40.2398 61.42 40.2798 61.5 40.3198 61.66C40.3798 61.8 40.4098 61.96 40.4098 62.14C40.4098 62.32 40.3698 62.5 40.2898 62.68C40.2298 62.86 40.1598 62.94 40.0798 62.92C38.9598 62.66 37.6698 62.5 36.2098 62.44V69.7C36.2098 70.48 36.3998 71.06 36.7798 71.44C37.1798 71.8 37.7298 71.98 38.4298 71.98C39.2698 71.98 40.0598 71.69 40.7998 71.11L40.8598 71.08ZM50.9672 71.08C51.0272 71.08 51.0772 71.12 51.1172 71.2C51.1772 71.28 51.1772 71.34 51.1172 71.38C50.3772 72.08 49.6772 72.59 49.0172 72.91C48.3572 73.21 47.6572 73.36 46.9172 73.36C46.0572 73.36 45.3272 73.16 44.7272 72.76C44.1472 72.34 43.8572 71.65 43.8572 70.69V63.91C43.8572 63.25 43.7472 62.81 43.5272 62.59C43.3272 62.37 42.9272 62.26 42.3272 62.26C42.3072 62.26 42.2772 62.24 42.2372 62.2C42.2172 62.14 42.2072 62.08 42.2072 62.02C42.2072 61.96 42.2172 61.91 42.2372 61.87C42.2772 61.81 42.3072 61.78 42.3272 61.78C44.2072 61.7 45.3872 60.89 45.8672 59.35C45.9072 59.27 45.9872 59.23 46.1072 59.23C46.2472 59.23 46.3172 59.27 46.3172 59.35V61.72C47.2572 61.7 48.5872 61.6 50.3072 61.42C50.3472 61.42 50.3872 61.5 50.4272 61.66C50.4872 61.8 50.5172 61.96 50.5172 62.14C50.5172 62.32 50.4772 62.5 50.3972 62.68C50.3372 62.86 50.2672 62.94 50.1872 62.92C49.0672 62.66 47.7772 62.5 46.3172 62.44V69.7C46.3172 70.48 46.5072 71.06 46.8872 71.44C47.2872 71.8 47.8372 71.98 48.5372 71.98C49.3772 71.98 50.1672 71.69 50.9072 71.11L50.9672 71.08ZM62.8446 71.11C62.8846 71.11 62.9246 71.15 62.9646 71.23C63.0246 71.31 63.0346 71.37 62.9946 71.41C62.2546 72.09 61.5146 72.59 60.7746 72.91C60.0346 73.21 59.2346 73.36 58.3746 73.36C57.1546 73.36 56.0946 73.09 55.1946 72.55C54.3146 72.01 53.6346 71.3 53.1546 70.42C52.6946 69.54 52.4646 68.59 52.4646 67.57C52.4646 66.39 52.7546 65.31 53.3346 64.33C53.9146 63.35 54.7046 62.58 55.7046 62.02C56.7246 61.44 57.8546 61.15 59.0946 61.15C60.2946 61.15 61.2246 61.44 61.8846 62.02C62.5446 62.6 62.8746 63.46 62.8746 64.6C62.8746 65.18 62.7546 65.47 62.5146 65.47L55.1946 65.5C55.1746 65.68 55.1646 65.95 55.1646 66.31C55.1646 68.07 55.5646 69.47 56.3646 70.51C57.1846 71.53 58.3446 72.04 59.8446 72.04C60.4046 72.04 60.8746 71.98 61.2546 71.86C61.6346 71.72 62.1446 71.48 62.7846 71.14L62.8446 71.11ZM58.0146 61.75C57.2746 61.75 56.6646 62.04 56.1846 62.62C55.7246 63.18 55.4146 63.96 55.2546 64.96L60.0546 64.87C60.0146 62.79 59.3346 61.75 58.0146 61.75ZM72.6558 61.12C73.1158 61.12 73.5558 61.27 73.9758 61.57C74.3958 61.87 74.6058 62.23 74.6058 62.65C74.6058 63.03 74.4858 63.34 74.2458 63.58C74.0258 63.82 73.7158 63.94 73.3158 63.94C73.0558 63.94 72.8358 63.89 72.6558 63.79C72.4958 63.67 72.3258 63.51 72.1458 63.31C71.9658 63.13 71.8058 63 71.6658 62.92C71.5258 62.82 71.3558 62.77 71.1558 62.77C70.9358 62.77 70.6958 62.86 70.4358 63.04C70.1958 63.2 69.8158 63.55 69.2958 64.09V70.57C69.2958 71.13 69.3758 71.56 69.5358 71.86C69.6958 72.14 69.9658 72.34 70.3458 72.46C70.7258 72.58 71.2858 72.64 72.0258 72.64C72.1058 72.64 72.1458 72.7 72.1458 72.82C72.1458 72.94 72.1058 73 72.0258 73C71.3658 73 70.8358 72.99 70.4358 72.97L68.0658 72.94L66.3258 72.97C66.0458 72.99 65.6558 73 65.1558 73C65.0958 73 65.0658 72.94 65.0658 72.82C65.0658 72.7 65.0958 72.64 65.1558 72.64C65.8358 72.64 66.2858 72.5 66.5058 72.22C66.7258 71.94 66.8358 71.39 66.8358 70.57V64.84C66.8358 64.2 66.7558 63.73 66.5958 63.43C66.4558 63.13 66.2158 62.98 65.8758 62.98C65.5758 62.98 65.0758 63.13 64.3758 63.43H64.3458C64.2658 63.43 64.2058 63.38 64.1658 63.28C64.1258 63.18 64.1358 63.12 64.1958 63.1L68.1258 61.18C68.2458 61.14 68.3158 61.12 68.3358 61.12C68.5358 61.12 68.7358 61.34 68.9358 61.78C69.1358 62.2 69.2558 62.76 69.2958 63.46C70.0758 62.58 70.7258 61.97 71.2458 61.63C71.7658 61.29 72.2358 61.12 72.6558 61.12Z" fill="white"/>
<path d="M28 31.65C25.9667 31.65 24.15 31.2 22.55 30.3C20.95 29.4 19.7 28.1667 18.8 26.6C17.9 25 17.45 23.2167 17.45 21.25C17.45 19.2833 17.9 17.5333 18.8 16C19.7 14.4333 20.95 13.2167 22.55 12.35C24.15 11.4833 25.9667 11.05 28 11.05C30.0333 11.05 31.8333 11.5 33.4 12.4C34.9667 13.2667 36.1833 14.4833 37.05 16.05C37.95 17.6167 38.4 19.3833 38.4 21.35C38.4 23.3167 37.95 25.0833 37.05 26.65C36.1833 28.2167 34.95 29.45 33.35 30.35C31.7833 31.2167 30 31.65 28 31.65ZM28.5 30.7C30.2 30.7 31.4833 29.9333 32.35 28.4C33.2167 26.8667 33.65 24.7333 33.65 22C33.65 18.6667 33.0667 16.1667 31.9 14.5C30.7333 12.8333 29.2833 12 27.55 12C25.85 12 24.5167 12.8 23.55 14.4C22.6167 15.9667 22.15 18.0833 22.15 20.75C22.15 23.6833 22.7333 26.0833 23.9 27.95C25.0667 29.7833 26.6 30.7 28.5 30.7ZM41.6781 29.85C44.6115 27.25 46.7781 25.25 48.1781 23.85C49.5781 22.45 50.5781 21.2333 51.1781 20.2C51.8115 19.1667 52.1281 18.1167 52.1281 17.05C52.1281 15.75 51.7781 14.6667 51.0781 13.8C50.3781 12.9 49.4281 12.45 48.2281 12.45C46.9615 12.45 45.8948 13 45.0281 14.1C44.1948 15.1667 43.4281 16.7833 42.7281 18.95C42.7281 18.9833 42.6615 19 42.5281 19C42.2281 19 42.0948 18.95 42.1281 18.85L44.2281 10.6C44.2281 10.5333 44.2948 10.5 44.4281 10.5C44.5281 10.5 44.6115 10.5333 44.6781 10.6C44.7781 10.6333 44.8115 10.6667 44.7781 10.7C44.7448 10.8667 44.7281 11.0667 44.7281 11.3C44.7281 11.8333 44.9781 12.1 45.4781 12.1C45.7781 12.1 46.2781 11.9833 46.9781 11.75C48.4448 11.2833 49.7281 11.05 50.8281 11.05C52.6281 11.05 54.0281 11.5 55.0281 12.4C56.0615 13.2667 56.5781 14.4167 56.5781 15.85C56.5781 17.05 56.2115 18.2 55.4781 19.3C54.7448 20.4 53.8448 21.4167 52.7781 22.35C51.7448 23.25 50.3281 24.3833 48.5281 25.75C48.1281 26.05 47.7781 26.3167 47.4781 26.55C47.1781 26.7833 46.9115 26.9833 46.6781 27.15C46.5448 27.25 46.4948 27.3333 46.5281 27.4C46.5948 27.4667 46.7115 27.5 46.8781 27.5C49.9115 27.5 52.1115 27.45 53.4781 27.35C54.8448 27.25 55.8948 27.0167 56.6281 26.65C57.3615 26.2833 57.8448 25.65 58.0781 24.75C58.0781 24.6833 58.1615 24.65 58.3281 24.65C58.5615 24.65 58.6781 24.7 58.6781 24.8L57.7281 30.45C57.7281 30.5833 57.6781 30.7167 57.5781 30.85C57.5115 30.95 57.4115 31 57.2781 31H41.9781C41.8115 31 41.6781 30.85 41.5781 30.55C41.5115 30.2167 41.5448 29.9833 41.6781 29.85Z" fill="white"/>
</svg>
