<svg width="680" height="103" viewBox="0 0 680 103" fill="none" xmlns="http://www.w3.org/2000/svg">
<path d="M41.0033 2.326H42.6313V17H41.0033V2.326ZM49.2334 9.322H47.6494V17H46.0654V9.322H45.0974V7.87H46.0654V4.57H47.6494V7.87H49.2334V9.322ZM55.8612 7.87H57.4452V17H55.8612V7.87ZM55.5312 4.416C55.5312 3.8 56.0372 3.294 56.6532 3.294C57.2692 3.294 57.7752 3.8 57.7752 4.416C57.7752 5.032 57.2692 5.538 56.6532 5.538C56.0372 5.538 55.5312 5.032 55.5312 4.416ZM65.4974 9.3L64.1994 9.982C63.9794 9.454 63.5174 9.058 62.9234 9.058C62.3514 9.058 61.8234 9.388 61.8234 10.092C61.8234 10.752 62.2634 10.95 63.2974 11.39C64.6174 11.94 65.2334 12.358 65.5854 12.798C65.9814 13.282 66.0694 13.766 66.0694 14.272C66.0694 16.186 64.6834 17.264 62.9234 17.264C62.5494 17.264 60.5034 17.22 59.7334 14.932L61.0974 14.36C61.2734 14.844 61.8014 15.856 62.9454 15.856C63.9794 15.856 64.4414 15.086 64.4414 14.404C64.4414 13.546 63.8254 13.26 62.9674 12.886C61.8674 12.402 61.1634 12.05 60.7454 11.544C60.3934 11.104 60.3274 10.664 60.3274 10.202C60.3274 8.596 61.4494 7.65 62.9894 7.65C63.4734 7.65 64.7714 7.738 65.4974 9.3ZM73.3065 17V7.87H74.8905V8.838C75.3965 8.09 76.1885 7.65 77.1565 7.65C78.8065 7.65 79.4665 8.816 79.6425 9.124C80.5225 7.738 81.7765 7.65 82.3925 7.65C85.0985 7.65 85.3625 9.916 85.3625 11.214V17H83.7785V11.456C83.7785 10.422 83.6465 9.058 82.1505 9.058C80.3245 9.058 80.1265 10.818 80.1265 11.918V17H78.5425V11.588C78.5425 10.95 78.5645 9.058 76.8925 9.058C75.0885 9.058 74.8905 10.928 74.8905 12.028V17H73.3065ZM95.3631 9.168V7.87H96.9471V17H95.3631V15.724C94.8351 16.406 93.8451 17.264 92.2391 17.264C89.9291 17.264 87.7951 15.636 87.7951 12.424C87.7951 9.278 89.9071 7.65 92.2391 7.65C93.9991 7.65 94.9451 8.618 95.3631 9.168ZM92.4151 9.058C90.8531 9.058 89.4231 10.202 89.4231 12.424C89.4231 14.382 90.5231 15.856 92.4151 15.856C94.3511 15.856 95.4511 14.25 95.4511 12.446C95.4511 10.092 93.8231 9.058 92.4151 9.058ZM106.943 9.168V0.961999H108.527V17H106.943V15.724C106.415 16.406 105.425 17.264 103.819 17.264C101.509 17.264 99.3752 15.636 99.3752 12.424C99.3752 9.278 101.487 7.65 103.819 7.65C105.579 7.65 106.525 8.618 106.943 9.168ZM103.995 9.058C102.433 9.058 101.003 10.202 101.003 12.424C101.003 14.382 102.103 15.856 103.995 15.856C105.931 15.856 107.031 14.25 107.031 12.446C107.031 10.092 105.403 9.058 103.995 9.058ZM118.303 13.942L119.623 14.668C119.359 15.174 118.963 15.724 118.501 16.142C117.665 16.89 116.631 17.264 115.465 17.264C113.265 17.264 110.955 15.878 110.955 12.49C110.955 9.762 112.627 7.65 115.377 7.65C117.159 7.65 118.281 8.53 118.831 9.322C119.403 10.136 119.733 11.544 119.689 12.754H112.583C112.605 14.646 113.903 15.856 115.487 15.856C116.235 15.856 116.829 15.636 117.357 15.196C117.775 14.844 118.105 14.382 118.303 13.942ZM112.693 11.434H118.061C117.797 10.004 116.719 9.058 115.377 9.058C114.035 9.058 112.935 10.07 112.693 11.434ZM128.838 7.87V13.194C128.838 13.832 128.838 14.58 129.278 15.152C129.52 15.46 130.004 15.856 130.884 15.856C131.764 15.856 132.248 15.46 132.49 15.152C132.93 14.58 132.93 13.832 132.93 13.194V7.87H134.514V13.37C134.514 14.492 134.404 15.328 133.678 16.12C132.864 16.978 131.786 17.264 130.884 17.264C129.982 17.264 128.904 16.978 128.09 16.12C127.364 15.328 127.254 14.492 127.254 13.37V7.87H128.838ZM142.562 9.3L141.264 9.982C141.044 9.454 140.582 9.058 139.988 9.058C139.416 9.058 138.888 9.388 138.888 10.092C138.888 10.752 139.328 10.95 140.362 11.39C141.682 11.94 142.298 12.358 142.65 12.798C143.046 13.282 143.134 13.766 143.134 14.272C143.134 16.186 141.748 17.264 139.988 17.264C139.614 17.264 137.568 17.22 136.798 14.932L138.162 14.36C138.338 14.844 138.866 15.856 140.01 15.856C141.044 15.856 141.506 15.086 141.506 14.404C141.506 13.546 140.89 13.26 140.032 12.886C138.932 12.402 138.228 12.05 137.81 11.544C137.458 11.104 137.392 10.664 137.392 10.202C137.392 8.596 138.514 7.65 140.054 7.65C140.538 7.65 141.836 7.738 142.562 9.3ZM145.236 7.87H146.82V17H145.236V7.87ZM144.906 4.416C144.906 3.8 145.412 3.294 146.028 3.294C146.644 3.294 147.15 3.8 147.15 4.416C147.15 5.032 146.644 5.538 146.028 5.538C145.412 5.538 144.906 5.032 144.906 4.416ZM149.812 17V7.87H151.396V8.926C151.682 8.552 152.496 7.65 154.014 7.65C155.092 7.65 156.082 8.09 156.632 8.904C157.094 9.586 157.16 10.334 157.16 11.346V17H155.576V11.39C155.576 10.84 155.532 10.202 155.158 9.718C154.85 9.322 154.366 9.058 153.662 9.058C153.112 9.058 152.518 9.212 152.056 9.762C151.44 10.488 151.396 11.566 151.396 12.226V17H149.812ZM167.142 9.168V7.87H168.726V16.78C168.726 17.77 168.726 19.178 167.846 20.366C167.164 21.29 165.91 22.06 164.194 22.06C162.632 22.06 161.554 21.444 160.938 20.828C160.322 20.212 159.75 19.222 159.75 17.88H161.312C161.312 18.65 161.62 19.332 162.016 19.772C162.676 20.498 163.512 20.652 164.216 20.652C165.338 20.652 166.108 20.256 166.636 19.376C167.098 18.628 167.142 17.814 167.142 17.044V15.724C166.614 16.406 165.624 17.264 164.018 17.264C162.676 17.264 161.598 16.736 160.894 16.032C160.278 15.416 159.574 14.272 159.574 12.424C159.574 10.642 160.234 9.542 160.894 8.882C161.664 8.134 162.786 7.65 164.018 7.65C165.36 7.65 166.416 8.222 167.142 9.168ZM164.194 9.058C163.226 9.058 162.566 9.476 162.126 9.916C161.356 10.708 161.202 11.676 161.202 12.424C161.202 13.216 161.356 14.294 162.236 15.108C162.742 15.57 163.358 15.856 164.194 15.856C165.03 15.856 165.69 15.592 166.196 15.086C166.812 14.492 167.23 13.524 167.23 12.446C167.23 11.368 166.834 10.422 166.262 9.872C165.756 9.366 165.008 9.058 164.194 9.058ZM180.073 9.322H178.489V17H176.905V9.322H175.937V7.87H176.905V4.57H178.489V7.87H180.073V9.322ZM180.934 7.87H182.694L185.4 14.074L188.26 7.166L191.098 14.074L193.826 7.87H195.586L191.054 17.638L188.238 10.818L185.422 17.638L180.934 7.87ZM201.518 17.264C198.746 17.264 196.678 15.24 196.678 12.468C196.678 9.696 198.724 7.65 201.518 7.65C204.312 7.65 206.358 9.696 206.358 12.468C206.358 15.24 204.29 17.264 201.518 17.264ZM201.518 9.058C199.846 9.058 198.306 10.246 198.306 12.468C198.306 14.712 199.89 15.856 201.518 15.856C203.168 15.856 204.73 14.69 204.73 12.468C204.73 10.224 203.19 9.058 201.518 9.058ZM220.918 9.168V0.961999H222.502V17H220.918V15.724C220.39 16.406 219.4 17.264 217.794 17.264C215.484 17.264 213.35 15.636 213.35 12.424C213.35 9.278 215.462 7.65 217.794 7.65C219.554 7.65 220.5 8.618 220.918 9.168ZM217.97 9.058C216.408 9.058 214.978 10.202 214.978 12.424C214.978 14.382 216.078 15.856 217.97 15.856C219.906 15.856 221.006 14.25 221.006 12.446C221.006 10.092 219.378 9.058 217.97 9.058ZM225.287 7.87H226.871V17H225.287V7.87ZM224.957 4.416C224.957 3.8 225.463 3.294 226.079 3.294C226.695 3.294 227.201 3.8 227.201 4.416C227.201 5.032 226.695 5.538 226.079 5.538C225.463 5.538 224.957 5.032 224.957 4.416ZM233.735 9.322H231.491V17H229.907V9.322H229.027V7.87H229.907V3.888C229.907 3.052 229.973 1.996 230.787 1.314C231.227 0.94 231.887 0.72 232.613 0.72C233.185 0.72 233.559 0.851999 233.735 0.918V2.458C233.405 2.326 233.031 2.26 232.701 2.26C232.349 2.26 231.931 2.348 231.689 2.744C231.491 3.074 231.491 3.58 231.491 4.064V7.87H233.735V9.322ZM239.45 9.322H237.206V17H235.622V9.322H234.742V7.87H235.622V3.888C235.622 3.052 235.688 1.996 236.502 1.314C236.942 0.94 237.602 0.72 238.328 0.72C238.9 0.72 239.274 0.851999 239.45 0.918V2.458C239.12 2.326 238.746 2.26 238.416 2.26C238.064 2.26 237.646 2.348 237.404 2.744C237.206 3.074 237.206 3.58 237.206 4.064V7.87H239.45V9.322ZM247.639 13.942L248.959 14.668C248.695 15.174 248.299 15.724 247.837 16.142C247.001 16.89 245.967 17.264 244.801 17.264C242.601 17.264 240.291 15.878 240.291 12.49C240.291 9.762 241.963 7.65 244.713 7.65C246.495 7.65 247.617 8.53 248.167 9.322C248.739 10.136 249.069 11.544 249.025 12.754H241.919C241.941 14.646 243.239 15.856 244.823 15.856C245.571 15.856 246.165 15.636 246.693 15.196C247.111 14.844 247.441 14.382 247.639 13.942ZM242.029 11.434H247.397C247.133 10.004 246.055 9.058 244.713 9.058C243.371 9.058 242.271 10.07 242.029 11.434ZM251.455 17V7.87H253.039V8.86C253.193 8.618 253.875 7.65 255.107 7.65C255.591 7.65 256.119 7.826 256.515 8.024L255.767 9.454C255.415 9.212 255.085 9.146 254.843 9.146C254.205 9.146 253.809 9.41 253.567 9.718C253.303 10.07 253.039 10.686 253.039 12.182V17H251.455ZM264.204 13.942L265.524 14.668C265.26 15.174 264.864 15.724 264.402 16.142C263.566 16.89 262.532 17.264 261.366 17.264C259.166 17.264 256.856 15.878 256.856 12.49C256.856 9.762 258.528 7.65 261.278 7.65C263.06 7.65 264.182 8.53 264.732 9.322C265.304 10.136 265.634 11.544 265.59 12.754H258.484C258.506 14.646 259.804 15.856 261.388 15.856C262.136 15.856 262.73 15.636 263.258 15.196C263.676 14.844 264.006 14.382 264.204 13.942ZM258.594 11.434H263.962C263.698 10.004 262.62 9.058 261.278 9.058C259.936 9.058 258.836 10.07 258.594 11.434ZM268.019 17V7.87H269.603V8.926C269.889 8.552 270.703 7.65 272.221 7.65C273.299 7.65 274.289 8.09 274.839 8.904C275.301 9.586 275.367 10.334 275.367 11.346V17H273.783V11.39C273.783 10.84 273.739 10.202 273.365 9.718C273.057 9.322 272.573 9.058 271.869 9.058C271.319 9.058 270.725 9.212 270.263 9.762C269.647 10.488 269.603 11.566 269.603 12.226V17H268.019ZM281.565 9.322H279.981V17H278.397V9.322H277.429V7.87H278.397V4.57H279.981V7.87H281.565V9.322ZM288.193 17V7.87H289.777V8.838C290.283 8.09 291.075 7.65 292.043 7.65C293.693 7.65 294.353 8.816 294.529 9.124C295.409 7.738 296.663 7.65 297.279 7.65C299.985 7.65 300.249 9.916 300.249 11.214V17H298.665V11.456C298.665 10.422 298.533 9.058 297.037 9.058C295.211 9.058 295.013 10.818 295.013 11.918V17H293.429V11.588C293.429 10.95 293.451 9.058 291.779 9.058C289.975 9.058 289.777 10.928 289.777 12.028V17H288.193ZM303.254 7.87H304.838V17H303.254V7.87ZM302.924 4.416C302.924 3.8 303.43 3.294 304.046 3.294C304.662 3.294 305.168 3.8 305.168 4.416C305.168 5.032 304.662 5.538 304.046 5.538C303.43 5.538 302.924 5.032 302.924 4.416ZM307.83 0.961999H309.414V17H307.83V0.961999ZM312.406 0.961999H313.99V17H312.406V0.961999ZM316.982 7.87H318.566V17H316.982V7.87ZM316.652 4.416C316.652 3.8 317.158 3.294 317.774 3.294C318.39 3.294 318.896 3.8 318.896 4.416C318.896 5.032 318.39 5.538 317.774 5.538C317.158 5.538 316.652 5.032 316.652 4.416ZM321.559 17V7.87H323.143V8.926C323.429 8.552 324.243 7.65 325.761 7.65C326.839 7.65 327.829 8.09 328.379 8.904C328.841 9.586 328.907 10.334 328.907 11.346V17H327.323V11.39C327.323 10.84 327.279 10.202 326.905 9.718C326.597 9.322 326.113 9.058 325.409 9.058C324.859 9.058 324.265 9.212 323.803 9.762C323.187 10.488 323.143 11.566 323.143 12.226V17H321.559ZM338.888 9.168V7.87H340.472V16.78C340.472 17.77 340.472 19.178 339.592 20.366C338.91 21.29 337.656 22.06 335.94 22.06C334.378 22.06 333.3 21.444 332.684 20.828C332.068 20.212 331.496 19.222 331.496 17.88H333.058C333.058 18.65 333.366 19.332 333.762 19.772C334.422 20.498 335.258 20.652 335.962 20.652C337.084 20.652 337.854 20.256 338.382 19.376C338.844 18.628 338.888 17.814 338.888 17.044V15.724C338.36 16.406 337.37 17.264 335.764 17.264C334.422 17.264 333.344 16.736 332.64 16.032C332.024 15.416 331.32 14.272 331.32 12.424C331.32 10.642 331.98 9.542 332.64 8.882C333.41 8.134 334.532 7.65 335.764 7.65C337.106 7.65 338.162 8.222 338.888 9.168ZM335.94 9.058C334.972 9.058 334.312 9.476 333.872 9.916C333.102 10.708 332.948 11.676 332.948 12.424C332.948 13.216 333.102 14.294 333.982 15.108C334.488 15.57 335.104 15.856 335.94 15.856C336.776 15.856 337.436 15.592 337.942 15.086C338.558 14.492 338.976 13.524 338.976 12.446C338.976 11.368 338.58 10.422 338.008 9.872C337.502 9.366 336.754 9.058 335.94 9.058ZM350.191 15.724V22.06H348.607V7.87H350.191V9.146C351.269 7.804 352.655 7.65 353.315 7.65C356.175 7.65 357.759 10.026 357.759 12.49C357.759 14.998 356.153 17.264 353.381 17.264C351.907 17.264 350.873 16.604 350.191 15.724ZM353.161 15.856C355.009 15.856 356.131 14.316 356.131 12.49C356.131 10.246 354.613 9.058 353.139 9.058C351.665 9.058 350.103 10.268 350.103 12.468C350.103 14.338 351.291 15.856 353.161 15.856ZM367.183 9.168V7.87H368.767V17H367.183V15.724C366.655 16.406 365.665 17.264 364.059 17.264C361.749 17.264 359.615 15.636 359.615 12.424C359.615 9.278 361.727 7.65 364.059 7.65C365.819 7.65 366.765 8.618 367.183 9.168ZM364.235 9.058C362.673 9.058 361.243 10.202 361.243 12.424C361.243 14.382 362.343 15.856 364.235 15.856C366.171 15.856 367.271 14.25 367.271 12.446C367.271 10.092 365.643 9.058 364.235 9.058ZM374.979 9.322H373.395V17H371.811V9.322H370.843V7.87H371.811V4.57H373.395V7.87H374.979V9.322ZM380.114 9.322H378.53V17H376.946V9.322H375.978V7.87H376.946V4.57H378.53V7.87H380.114V9.322ZM388.383 13.942L389.703 14.668C389.439 15.174 389.043 15.724 388.581 16.142C387.745 16.89 386.711 17.264 385.545 17.264C383.345 17.264 381.035 15.878 381.035 12.49C381.035 9.762 382.707 7.65 385.457 7.65C387.239 7.65 388.361 8.53 388.911 9.322C389.483 10.136 389.813 11.544 389.769 12.754H382.663C382.685 14.646 383.983 15.856 385.567 15.856C386.315 15.856 386.909 15.636 387.437 15.196C387.855 14.844 388.185 14.382 388.383 13.942ZM382.773 11.434H388.141C387.877 10.004 386.799 9.058 385.457 9.058C384.115 9.058 383.015 10.07 382.773 11.434ZM392.199 17V7.87H393.783V8.86C393.937 8.618 394.619 7.65 395.851 7.65C396.335 7.65 396.863 7.826 397.259 8.024L396.511 9.454C396.159 9.212 395.829 9.146 395.587 9.146C394.949 9.146 394.553 9.41 394.311 9.718C394.047 10.07 393.783 10.686 393.783 12.182V17H392.199ZM398.709 17V7.87H400.293V8.926C400.579 8.552 401.393 7.65 402.911 7.65C403.989 7.65 404.979 8.09 405.529 8.904C405.991 9.586 406.057 10.334 406.057 11.346V17H404.473V11.39C404.473 10.84 404.429 10.202 404.055 9.718C403.747 9.322 403.263 9.058 402.559 9.058C402.009 9.058 401.415 9.212 400.953 9.762C400.337 10.488 400.293 11.566 400.293 12.226V17H398.709ZM414.103 9.3L412.805 9.982C412.585 9.454 412.123 9.058 411.529 9.058C410.957 9.058 410.429 9.388 410.429 10.092C410.429 10.752 410.869 10.95 411.903 11.39C413.223 11.94 413.839 12.358 414.191 12.798C414.587 13.282 414.675 13.766 414.675 14.272C414.675 16.186 413.289 17.264 411.529 17.264C411.155 17.264 409.109 17.22 408.339 14.932L409.703 14.36C409.879 14.844 410.407 15.856 411.551 15.856C412.585 15.856 413.047 15.086 413.047 14.404C413.047 13.546 412.431 13.26 411.573 12.886C410.473 12.402 409.769 12.05 409.351 11.544C408.999 11.104 408.933 10.664 408.933 10.202C408.933 8.596 410.055 7.65 411.595 7.65C412.079 7.65 413.377 7.738 414.103 9.3ZM426.18 17.264C423.408 17.264 421.34 15.24 421.34 12.468C421.34 9.696 423.386 7.65 426.18 7.65C428.974 7.65 431.02 9.696 431.02 12.468C431.02 15.24 428.952 17.264 426.18 17.264ZM426.18 9.058C424.508 9.058 422.968 10.246 422.968 12.468C422.968 14.712 424.552 15.856 426.18 15.856C427.83 15.856 429.392 14.69 429.392 12.468C429.392 10.224 427.852 9.058 426.18 9.058ZM433.449 17V7.87H435.033V8.926C435.319 8.552 436.133 7.65 437.651 7.65C438.729 7.65 439.719 8.09 440.269 8.904C440.731 9.586 440.797 10.334 440.797 11.346V17H439.213V11.39C439.213 10.84 439.169 10.202 438.795 9.718C438.487 9.322 438.003 9.058 437.299 9.058C436.749 9.058 436.155 9.212 435.693 9.762C435.077 10.488 435.033 11.566 435.033 12.226V17H433.449ZM452.13 9.322H450.546V17H448.962V9.322H447.994V7.87H448.962V4.57H450.546V7.87H452.13V9.322ZM453.623 17V0.961999H455.207V8.926C455.493 8.552 456.307 7.65 457.825 7.65C458.903 7.65 459.893 8.09 460.443 8.904C460.905 9.586 460.971 10.334 460.971 11.346V17H459.387V11.39C459.387 10.84 459.343 10.202 458.969 9.718C458.661 9.322 458.177 9.058 457.473 9.058C456.923 9.058 456.329 9.212 455.867 9.762C455.251 10.488 455.207 11.566 455.207 12.226V17H453.623ZM470.518 13.942L471.838 14.668C471.574 15.174 471.178 15.724 470.716 16.142C469.88 16.89 468.846 17.264 467.68 17.264C465.48 17.264 463.17 15.878 463.17 12.49C463.17 9.762 464.842 7.65 467.592 7.65C469.374 7.65 470.496 8.53 471.046 9.322C471.618 10.136 471.948 11.544 471.904 12.754H464.798C464.82 14.646 466.118 15.856 467.702 15.856C468.45 15.856 469.044 15.636 469.572 15.196C469.99 14.844 470.32 14.382 470.518 13.942ZM464.908 11.434H470.276C470.012 10.004 468.934 9.058 467.592 9.058C466.25 9.058 465.15 10.07 464.908 11.434ZM481.053 15.724V22.06H479.469V7.87H481.053V9.146C482.131 7.804 483.517 7.65 484.177 7.65C487.037 7.65 488.621 10.026 488.621 12.49C488.621 14.998 487.015 17.264 484.243 17.264C482.769 17.264 481.735 16.604 481.053 15.724ZM484.023 15.856C485.871 15.856 486.993 14.316 486.993 12.49C486.993 10.246 485.475 9.058 484.001 9.058C482.527 9.058 480.965 10.268 480.965 12.468C480.965 14.338 482.153 15.856 484.023 15.856ZM492.633 7.87V13.194C492.633 13.832 492.633 14.58 493.073 15.152C493.315 15.46 493.799 15.856 494.679 15.856C495.559 15.856 496.043 15.46 496.285 15.152C496.725 14.58 496.725 13.832 496.725 13.194V7.87H498.309V13.37C498.309 14.492 498.199 15.328 497.473 16.12C496.659 16.978 495.581 17.264 494.679 17.264C493.777 17.264 492.699 16.978 491.885 16.12C491.159 15.328 491.049 14.492 491.049 13.37V7.87H492.633ZM504.509 9.322H502.925V17H501.341V9.322H500.373V7.87H501.341V4.57H502.925V7.87H504.509V9.322ZM509.644 9.322H508.06V17H506.476V9.322H505.508V7.87H506.476V4.57H508.06V7.87H509.644V9.322ZM517.913 13.942L519.233 14.668C518.969 15.174 518.573 15.724 518.111 16.142C517.275 16.89 516.241 17.264 515.075 17.264C512.875 17.264 510.565 15.878 510.565 12.49C510.565 9.762 512.237 7.65 514.987 7.65C516.769 7.65 517.891 8.53 518.441 9.322C519.013 10.136 519.343 11.544 519.299 12.754H512.193C512.215 14.646 513.513 15.856 515.097 15.856C515.845 15.856 516.439 15.636 516.967 15.196C517.385 14.844 517.715 14.382 517.913 13.942ZM512.303 11.434H517.671C517.407 10.004 516.329 9.058 514.987 9.058C513.645 9.058 512.545 10.07 512.303 11.434ZM521.728 17V7.87H523.312V8.86C523.466 8.618 524.148 7.65 525.38 7.65C525.864 7.65 526.392 7.826 526.788 8.024L526.04 9.454C525.688 9.212 525.358 9.146 525.116 9.146C524.478 9.146 524.082 9.41 523.84 9.718C523.576 10.07 523.312 10.686 523.312 12.182V17H521.728ZM529.69 2.326L529.404 8.222H528.216L527.93 2.326H529.69ZM537.445 9.3L536.147 9.982C535.927 9.454 535.465 9.058 534.871 9.058C534.299 9.058 533.771 9.388 533.771 10.092C533.771 10.752 534.211 10.95 535.245 11.39C536.565 11.94 537.181 12.358 537.533 12.798C537.929 13.282 538.017 13.766 538.017 14.272C538.017 16.186 536.631 17.264 534.871 17.264C534.497 17.264 532.451 17.22 531.681 14.932L533.045 14.36C533.221 14.844 533.749 15.856 534.893 15.856C535.927 15.856 536.389 15.086 536.389 14.404C536.389 13.546 535.773 13.26 534.915 12.886C533.815 12.402 533.111 12.05 532.693 11.544C532.341 11.104 532.275 10.664 532.275 10.202C532.275 8.596 533.397 7.65 534.937 7.65C535.421 7.65 536.719 7.738 537.445 9.3ZM549.126 9.322H546.882V17H545.298V9.322H544.418V7.87H545.298V3.888C545.298 3.052 545.364 1.996 546.178 1.314C546.618 0.94 547.278 0.72 548.004 0.72C548.576 0.72 548.95 0.851999 549.126 0.918V2.458C548.796 2.326 548.422 2.26 548.092 2.26C547.74 2.26 547.322 2.348 547.08 2.744C546.882 3.074 546.882 3.58 546.882 4.064V7.87H549.126V9.322ZM557.535 9.168V7.87H559.119V17H557.535V15.724C557.007 16.406 556.017 17.264 554.411 17.264C552.101 17.264 549.967 15.636 549.967 12.424C549.967 9.278 552.079 7.65 554.411 7.65C556.171 7.65 557.117 8.618 557.535 9.168ZM554.587 9.058C553.025 9.058 551.595 10.202 551.595 12.424C551.595 14.382 552.695 15.856 554.587 15.856C556.523 15.856 557.623 14.25 557.623 12.446C557.623 10.092 555.995 9.058 554.587 9.058ZM569.269 8.53V10.422C568.433 9.366 567.223 9.058 566.409 9.058C564.715 9.058 563.175 10.246 563.175 12.468C563.175 14.69 564.759 15.856 566.387 15.856C567.333 15.856 568.499 15.438 569.335 14.426V16.318C568.345 17.044 567.289 17.264 566.431 17.264C563.593 17.264 561.547 15.24 561.547 12.49C561.547 9.696 563.615 7.65 566.431 7.65C567.883 7.65 568.829 8.222 569.269 8.53ZM578.542 13.942L579.862 14.668C579.598 15.174 579.202 15.724 578.74 16.142C577.904 16.89 576.87 17.264 575.704 17.264C573.504 17.264 571.194 15.878 571.194 12.49C571.194 9.762 572.866 7.65 575.616 7.65C577.398 7.65 578.52 8.53 579.07 9.322C579.642 10.136 579.972 11.544 579.928 12.754H572.822C572.844 14.646 574.142 15.856 575.726 15.856C576.474 15.856 577.068 15.636 577.596 15.196C578.014 14.844 578.344 14.382 578.542 13.942ZM572.932 11.434H578.3C578.036 10.004 576.958 9.058 575.616 9.058C574.274 9.058 573.174 10.07 572.932 11.434ZM581.081 19.926L582.885 14.844L584.337 15.372L582.115 20.344L581.081 19.926ZM591.178 7.87H592.938L595.644 14.074L598.504 7.166L601.342 14.074L604.07 7.87H605.83L601.298 17.638L598.482 10.818L595.666 17.638L591.178 7.87ZM607.494 17V0.961999H609.078V8.926C609.364 8.552 610.178 7.65 611.696 7.65C612.774 7.65 613.764 8.09 614.314 8.904C614.776 9.586 614.842 10.334 614.842 11.346V17H613.258V11.39C613.258 10.84 613.214 10.202 612.84 9.718C612.532 9.322 612.048 9.058 611.344 9.058C610.794 9.058 610.2 9.212 609.738 9.762C609.122 10.488 609.078 11.566 609.078 12.226V17H607.494ZM617.828 7.87H619.412V17H617.828V7.87ZM617.498 4.416C617.498 3.8 618.004 3.294 618.62 3.294C619.236 3.294 619.742 3.8 619.742 4.416C619.742 5.032 619.236 5.538 618.62 5.538C618.004 5.538 617.498 5.032 617.498 4.416ZM629.554 8.53V10.422C628.718 9.366 627.508 9.058 626.694 9.058C625 9.058 623.46 10.246 623.46 12.468C623.46 14.69 625.044 15.856 626.672 15.856C627.618 15.856 628.784 15.438 629.62 14.426V16.318C628.63 17.044 627.574 17.264 626.716 17.264C623.878 17.264 621.832 15.24 621.832 12.49C621.832 9.696 623.9 7.65 626.716 7.65C628.168 7.65 629.114 8.222 629.554 8.53ZM632.051 17V0.961999H633.635V8.926C633.921 8.552 634.735 7.65 636.253 7.65C637.331 7.65 638.321 8.09 638.871 8.904C639.333 9.586 639.399 10.334 639.399 11.346V17H637.815V11.39C637.815 10.84 637.771 10.202 637.397 9.718C637.089 9.322 636.605 9.058 635.901 9.058C635.351 9.058 634.757 9.212 634.295 9.762C633.679 10.488 633.635 11.566 633.635 12.226V17H632.051ZM7.86084 48.53V50.422C7.02484 49.366 5.81484 49.058 5.00084 49.058C3.30684 49.058 1.76684 50.246 1.76684 52.468C1.76684 54.69 3.35084 55.856 4.97884 55.856C5.92484 55.856 7.09084 55.438 7.92684 54.426V56.318C6.93684 57.044 5.88084 57.264 5.02284 57.264C2.18484 57.264 0.138844 55.24 0.138844 52.49C0.138844 49.696 2.20684 47.65 5.02284 47.65C6.47484 47.65 7.42084 48.222 7.86084 48.53ZM14.6253 57.264C11.8533 57.264 9.78533 55.24 9.78533 52.468C9.78533 49.696 11.8313 47.65 14.6253 47.65C17.4193 47.65 19.4653 49.696 19.4653 52.468C19.4653 55.24 17.3973 57.264 14.6253 57.264ZM14.6253 49.058C12.9533 49.058 11.4133 50.246 11.4133 52.468C11.4133 54.712 12.9973 55.856 14.6253 55.856C16.2753 55.856 17.8373 54.69 17.8373 52.468C17.8373 50.224 16.2973 49.058 14.6253 49.058ZM21.8944 57V47.87H23.4784V48.838C23.9844 48.09 24.7764 47.65 25.7444 47.65C27.3944 47.65 28.0544 48.816 28.2304 49.124C29.1104 47.738 30.3644 47.65 30.9804 47.65C33.6864 47.65 33.9504 49.916 33.9504 51.214V57H32.3664V51.456C32.3664 50.422 32.2344 49.058 30.7384 49.058C28.9124 49.058 28.7144 50.818 28.7144 51.918V57H27.1304V51.588C27.1304 50.95 27.1524 49.058 25.4804 49.058C23.6764 49.058 23.4784 50.928 23.4784 52.028V57H21.8944ZM38.539 55.724V57H36.955V40.962H38.539V49.146C39.617 47.804 41.003 47.65 41.663 47.65C44.523 47.65 46.107 50.026 46.107 52.49C46.107 54.998 44.501 57.264 41.729 57.264C40.255 57.264 39.221 56.604 38.539 55.724ZM41.509 55.856C43.357 55.856 44.479 54.316 44.479 52.49C44.479 50.246 42.961 49.058 41.487 49.058C40.013 49.058 38.451 50.268 38.451 52.468C38.451 54.338 39.639 55.856 41.509 55.856ZM48.5351 47.87H50.1191V57H48.5351V47.87ZM48.2051 44.416C48.2051 43.8 48.7111 43.294 49.3271 43.294C49.9431 43.294 50.4491 43.8 50.4491 44.416C50.4491 45.032 49.9431 45.538 49.3271 45.538C48.7111 45.538 48.2051 45.032 48.2051 44.416ZM53.1112 57V47.87H54.6952V48.926C54.9812 48.552 55.7952 47.65 57.3132 47.65C58.3912 47.65 59.3812 48.09 59.9312 48.904C60.3932 49.586 60.4592 50.334 60.4592 51.346V57H58.8752V51.39C58.8752 50.84 58.8312 50.202 58.4572 49.718C58.1492 49.322 57.6652 49.058 56.9612 49.058C56.4112 49.058 55.8172 49.212 55.3552 49.762C54.7392 50.488 54.6952 51.566 54.6952 52.226V57H53.1112ZM70.2212 53.942L71.5412 54.668C71.2772 55.174 70.8812 55.724 70.4192 56.142C69.5832 56.89 68.5492 57.264 67.3832 57.264C65.1832 57.264 62.8732 55.878 62.8732 52.49C62.8732 49.762 64.5452 47.65 67.2952 47.65C69.0772 47.65 70.1992 48.53 70.7492 49.322C71.3212 50.136 71.6512 51.544 71.6072 52.754H64.5012C64.5232 54.646 65.8212 55.856 67.4052 55.856C68.1532 55.856 68.7472 55.636 69.2752 55.196C69.6932 54.844 70.0232 54.382 70.2212 53.942ZM64.6112 51.434H69.9792C69.7152 50.004 68.6372 49.058 67.2952 49.058C65.9532 49.058 64.8532 50.07 64.6112 51.434ZM79.097 49.3L77.799 49.982C77.579 49.454 77.117 49.058 76.523 49.058C75.951 49.058 75.423 49.388 75.423 50.092C75.423 50.752 75.863 50.95 76.897 51.39C78.217 51.94 78.833 52.358 79.185 52.798C79.581 53.282 79.669 53.766 79.669 54.272C79.669 56.186 78.283 57.264 76.523 57.264C76.149 57.264 74.103 57.22 73.333 54.932L74.697 54.36C74.873 54.844 75.401 55.856 76.545 55.856C77.579 55.856 78.041 55.086 78.041 54.404C78.041 53.546 77.425 53.26 76.567 52.886C75.467 52.402 74.763 52.05 74.345 51.544C73.993 51.104 73.927 50.664 73.927 50.202C73.927 48.596 75.049 47.65 76.589 47.65C77.073 47.65 78.371 47.738 79.097 49.3ZM90.1182 49.322H88.5342V57H86.9502V49.322H85.9822V47.87H86.9502V44.57H88.5342V47.87H90.1182V49.322ZM91.6112 57V40.962H93.1952V48.926C93.4812 48.552 94.2952 47.65 95.8132 47.65C96.8912 47.65 97.8812 48.09 98.4312 48.904C98.8932 49.586 98.9592 50.334 98.9592 51.346V57H97.3752V51.39C97.3752 50.84 97.3312 50.202 96.9572 49.718C96.6492 49.322 96.1652 49.058 95.4612 49.058C94.9112 49.058 94.3172 49.212 93.8552 49.762C93.2392 50.488 93.1952 51.566 93.1952 52.226V57H91.6112ZM108.506 53.942L109.826 54.668C109.562 55.174 109.166 55.724 108.704 56.142C107.868 56.89 106.834 57.264 105.668 57.264C103.468 57.264 101.158 55.878 101.158 52.49C101.158 49.762 102.83 47.65 105.58 47.65C107.362 47.65 108.484 48.53 109.034 49.322C109.606 50.136 109.936 51.544 109.892 52.754H102.786C102.808 54.646 104.106 55.856 105.69 55.856C106.438 55.856 107.032 55.636 107.56 55.196C107.978 54.844 108.308 54.382 108.506 53.942ZM102.896 51.434H108.264C108 50.004 106.922 49.058 105.58 49.058C104.238 49.058 103.138 50.07 102.896 51.434ZM117.457 57V40.962H119.041V48.926C119.327 48.552 120.141 47.65 121.659 47.65C122.737 47.65 123.727 48.09 124.277 48.904C124.739 49.586 124.805 50.334 124.805 51.346V57H123.221V51.39C123.221 50.84 123.177 50.202 122.803 49.718C122.495 49.322 122.011 49.058 121.307 49.058C120.757 49.058 120.163 49.212 119.701 49.762C119.085 50.488 119.041 51.566 119.041 52.226V57H117.457ZM134.787 49.168V47.87H136.371V57H134.787V55.724C134.259 56.406 133.269 57.264 131.663 57.264C129.353 57.264 127.219 55.636 127.219 52.424C127.219 49.278 129.331 47.65 131.663 47.65C133.423 47.65 134.369 48.618 134.787 49.168ZM131.839 49.058C130.277 49.058 128.847 50.202 128.847 52.424C128.847 54.382 129.947 55.856 131.839 55.856C133.775 55.856 134.875 54.25 134.875 52.446C134.875 50.092 133.247 49.058 131.839 49.058ZM139.371 57V47.87H140.955V48.86C141.109 48.618 141.791 47.65 143.023 47.65C143.507 47.65 144.035 47.826 144.431 48.024L143.683 49.454C143.331 49.212 143.001 49.146 142.759 49.146C142.121 49.146 141.725 49.41 141.483 49.718C141.219 50.07 140.955 50.686 140.955 52.182V57H139.371ZM152.34 49.168V40.962H153.924V57H152.34V55.724C151.812 56.406 150.822 57.264 149.216 57.264C146.906 57.264 144.772 55.636 144.772 52.424C144.772 49.278 146.884 47.65 149.216 47.65C150.976 47.65 151.922 48.618 152.34 49.168ZM149.392 49.058C147.83 49.058 146.4 50.202 146.4 52.424C146.4 54.382 147.5 55.856 149.392 55.856C151.328 55.856 152.428 54.25 152.428 52.446C152.428 50.092 150.8 49.058 149.392 49.058ZM169.055 49.168V47.87H170.639V57H169.055V55.724C168.527 56.406 167.537 57.264 165.931 57.264C163.621 57.264 161.487 55.636 161.487 52.424C161.487 49.278 163.599 47.65 165.931 47.65C167.691 47.65 168.637 48.618 169.055 49.168ZM166.107 49.058C164.545 49.058 163.115 50.202 163.115 52.424C163.115 54.382 164.215 55.856 166.107 55.856C168.043 55.856 169.143 54.25 169.143 52.446C169.143 50.092 167.515 49.058 166.107 49.058ZM173.639 57V47.87H175.223V48.926C175.509 48.552 176.323 47.65 177.841 47.65C178.919 47.65 179.909 48.09 180.459 48.904C180.921 49.586 180.987 50.334 180.987 51.346V57H179.403V51.39C179.403 50.84 179.359 50.202 178.985 49.718C178.677 49.322 178.193 49.058 177.489 49.058C176.939 49.058 176.345 49.212 175.883 49.762C175.267 50.488 175.223 51.566 175.223 52.226V57H173.639ZM190.969 49.168V40.962H192.553V57H190.969V55.724C190.441 56.406 189.451 57.264 187.845 57.264C185.535 57.264 183.401 55.636 183.401 52.424C183.401 49.278 185.513 47.65 187.845 47.65C189.605 47.65 190.551 48.618 190.969 49.168ZM188.021 49.058C186.459 49.058 185.029 50.202 185.029 52.424C185.029 54.382 186.129 55.856 188.021 55.856C189.957 55.856 191.057 54.25 191.057 52.446C191.057 50.092 189.429 49.058 188.021 49.058ZM205.747 49.3L204.449 49.982C204.229 49.454 203.767 49.058 203.173 49.058C202.601 49.058 202.073 49.388 202.073 50.092C202.073 50.752 202.513 50.95 203.547 51.39C204.867 51.94 205.483 52.358 205.835 52.798C206.231 53.282 206.319 53.766 206.319 54.272C206.319 56.186 204.933 57.264 203.173 57.264C202.799 57.264 200.753 57.22 199.983 54.932L201.347 54.36C201.523 54.844 202.051 55.856 203.195 55.856C204.229 55.856 204.691 55.086 204.691 54.404C204.691 53.546 204.075 53.26 203.217 52.886C202.117 52.402 201.413 52.05 200.995 51.544C200.643 51.104 200.577 50.664 200.577 50.202C200.577 48.596 201.699 47.65 203.239 47.65C203.723 47.65 205.021 47.738 205.747 49.3ZM212.69 57.264C209.918 57.264 207.85 55.24 207.85 52.468C207.85 49.696 209.896 47.65 212.69 47.65C215.484 47.65 217.53 49.696 217.53 52.468C217.53 55.24 215.462 57.264 212.69 57.264ZM212.69 49.058C211.018 49.058 209.478 50.246 209.478 52.468C209.478 54.712 211.062 55.856 212.69 55.856C214.34 55.856 215.902 54.69 215.902 52.468C215.902 50.224 214.362 49.058 212.69 49.058ZM223.831 49.322H221.587V57H220.003V49.322H219.123V47.87H220.003V43.888C220.003 43.052 220.069 41.996 220.883 41.314C221.323 40.94 221.983 40.72 222.709 40.72C223.281 40.72 223.655 40.852 223.831 40.918V42.458C223.501 42.326 223.127 42.26 222.797 42.26C222.445 42.26 222.027 42.348 221.785 42.744C221.587 43.074 221.587 43.58 221.587 44.064V47.87H223.831V49.322ZM228.886 49.322H227.302V57H225.718V49.322H224.75V47.87H225.718V44.57H227.302V47.87H228.886V49.322ZM237.098 55.724V62.06H235.514V47.87H237.098V49.146C238.176 47.804 239.562 47.65 240.222 47.65C243.082 47.65 244.666 50.026 244.666 52.49C244.666 54.998 243.06 57.264 240.288 57.264C238.814 57.264 237.78 56.604 237.098 55.724ZM240.068 55.856C241.916 55.856 243.038 54.316 243.038 52.49C243.038 50.246 241.52 49.058 240.046 49.058C238.572 49.058 237.01 50.268 237.01 52.468C237.01 54.338 238.198 55.856 240.068 55.856ZM254.09 49.168V47.87H255.674V57H254.09V55.724C253.562 56.406 252.572 57.264 250.966 57.264C248.656 57.264 246.522 55.636 246.522 52.424C246.522 49.278 248.634 47.65 250.966 47.65C252.726 47.65 253.672 48.618 254.09 49.168ZM251.142 49.058C249.58 49.058 248.15 50.202 248.15 52.424C248.15 54.382 249.25 55.856 251.142 55.856C253.078 55.856 254.178 54.25 254.178 52.446C254.178 50.092 252.55 49.058 251.142 49.058ZM258.674 57V47.87H260.258V48.86C260.412 48.618 261.094 47.65 262.326 47.65C262.81 47.65 263.338 47.826 263.734 48.024L262.986 49.454C262.634 49.212 262.304 49.146 262.062 49.146C261.424 49.146 261.028 49.41 260.786 49.718C260.522 50.07 260.258 50.686 260.258 52.182V57H258.674ZM268.825 49.322H267.241V57H265.657V49.322H264.689V47.87H265.657V44.57H267.241V47.87H268.825V49.322ZM275.378 49.3L274.08 49.982C273.86 49.454 273.398 49.058 272.804 49.058C272.232 49.058 271.704 49.388 271.704 50.092C271.704 50.752 272.144 50.95 273.178 51.39C274.498 51.94 275.114 52.358 275.466 52.798C275.862 53.282 275.95 53.766 275.95 54.272C275.95 56.186 274.564 57.264 272.804 57.264C272.43 57.264 270.384 57.22 269.614 54.932L270.978 54.36C271.154 54.844 271.682 55.856 272.826 55.856C273.86 55.856 274.322 55.086 274.322 54.404C274.322 53.546 273.706 53.26 272.848 52.886C271.748 52.402 271.044 52.05 270.626 51.544C270.274 51.104 270.208 50.664 270.208 50.202C270.208 48.596 271.33 47.65 272.87 47.65C273.354 47.65 274.652 47.738 275.378 49.3ZM287.455 57.264C284.683 57.264 282.615 55.24 282.615 52.468C282.615 49.696 284.661 47.65 287.455 47.65C290.249 47.65 292.295 49.696 292.295 52.468C292.295 55.24 290.227 57.264 287.455 57.264ZM287.455 49.058C285.783 49.058 284.243 50.246 284.243 52.468C284.243 54.712 285.827 55.856 287.455 55.856C289.105 55.856 290.667 54.69 290.667 52.468C290.667 50.224 289.127 49.058 287.455 49.058ZM298.597 49.322H296.353V57H294.769V49.322H293.889V47.87H294.769V43.888C294.769 43.052 294.835 41.996 295.649 41.314C296.089 40.94 296.749 40.72 297.475 40.72C298.047 40.72 298.421 40.852 298.597 40.918V42.458C298.267 42.326 297.893 42.26 297.563 42.26C297.211 42.26 296.793 42.348 296.551 42.744C296.353 43.074 296.353 43.58 296.353 44.064V47.87H298.597V49.322ZM308.356 49.322H306.772V57H305.188V49.322H304.22V47.87H305.188V44.57H306.772V47.87H308.356V49.322ZM309.85 57V40.962H311.434V48.926C311.72 48.552 312.534 47.65 314.052 47.65C315.13 47.65 316.12 48.09 316.67 48.904C317.132 49.586 317.198 50.334 317.198 51.346V57H315.614V51.39C315.614 50.84 315.57 50.202 315.196 49.718C314.888 49.322 314.404 49.058 313.7 49.058C313.15 49.058 312.556 49.212 312.094 49.762C311.478 50.488 311.434 51.566 311.434 52.226V57H309.85ZM326.745 53.942L328.065 54.668C327.801 55.174 327.405 55.724 326.943 56.142C326.107 56.89 325.073 57.264 323.907 57.264C321.707 57.264 319.397 55.878 319.397 52.49C319.397 49.762 321.069 47.65 323.819 47.65C325.601 47.65 326.723 48.53 327.273 49.322C327.845 50.136 328.175 51.544 328.131 52.754H321.025C321.047 54.646 322.345 55.856 323.929 55.856C324.677 55.856 325.271 55.636 325.799 55.196C326.217 54.844 326.547 54.382 326.745 53.942ZM321.135 51.434H326.503C326.239 50.004 325.161 49.058 323.819 49.058C322.477 49.058 321.377 50.07 321.135 51.434ZM337.279 55.724V62.06H335.695V47.87H337.279V49.146C338.357 47.804 339.743 47.65 340.403 47.65C343.263 47.65 344.847 50.026 344.847 52.49C344.847 54.998 343.241 57.264 340.469 57.264C338.995 57.264 337.961 56.604 337.279 55.724ZM340.249 55.856C342.097 55.856 343.219 54.316 343.219 52.49C343.219 50.246 341.701 49.058 340.227 49.058C338.753 49.058 337.191 50.268 337.191 52.468C337.191 54.338 338.379 55.856 340.249 55.856ZM348.859 47.87V53.194C348.859 53.832 348.859 54.58 349.299 55.152C349.541 55.46 350.025 55.856 350.905 55.856C351.785 55.856 352.269 55.46 352.511 55.152C352.951 54.58 352.951 53.832 352.951 53.194V47.87H354.535V53.37C354.535 54.492 354.425 55.328 353.699 56.12C352.885 56.978 351.807 57.264 350.905 57.264C350.003 57.264 348.925 56.978 348.111 56.12C347.385 55.328 347.275 54.492 347.275 53.37V47.87H348.859ZM360.735 49.322H359.151V57H357.567V49.322H356.599V47.87H357.567V44.57H359.151V47.87H360.735V49.322ZM365.87 49.322H364.286V57H362.702V49.322H361.734V47.87H362.702V44.57H364.286V47.87H365.87V49.322ZM374.139 53.942L375.459 54.668C375.195 55.174 374.799 55.724 374.337 56.142C373.501 56.89 372.467 57.264 371.301 57.264C369.101 57.264 366.791 55.878 366.791 52.49C366.791 49.762 368.463 47.65 371.213 47.65C372.995 47.65 374.117 48.53 374.667 49.322C375.239 50.136 375.569 51.544 375.525 52.754H368.419C368.441 54.646 369.739 55.856 371.323 55.856C372.071 55.856 372.665 55.636 373.193 55.196C373.611 54.844 373.941 54.382 374.139 53.942ZM368.529 51.434H373.897C373.633 50.004 372.555 49.058 371.213 49.058C369.871 49.058 368.771 50.07 368.529 51.434ZM377.955 57V47.87H379.539V48.86C379.693 48.618 380.375 47.65 381.607 47.65C382.091 47.65 382.619 47.826 383.015 48.024L382.267 49.454C381.915 49.212 381.585 49.146 381.343 49.146C380.705 49.146 380.309 49.41 380.067 49.718C379.803 50.07 379.539 50.686 379.539 52.182V57H377.955ZM392.812 49.322H391.228V57H389.644V49.322H388.676V47.87H389.644V44.57H391.228V47.87H392.812V49.322ZM398.573 57.264C395.801 57.264 393.733 55.24 393.733 52.468C393.733 49.696 395.779 47.65 398.573 47.65C401.367 47.65 403.413 49.696 403.413 52.468C403.413 55.24 401.345 57.264 398.573 57.264ZM398.573 49.058C396.901 49.058 395.361 50.246 395.361 52.468C395.361 54.712 396.945 55.856 398.573 55.856C400.223 55.856 401.785 54.69 401.785 52.468C401.785 50.224 400.245 49.058 398.573 49.058ZM410.976 47.87H412.56V57H410.976V47.87ZM410.646 44.416C410.646 43.8 411.152 43.294 411.768 43.294C412.384 43.294 412.89 43.8 412.89 44.416C412.89 45.032 412.384 45.538 411.768 45.538C411.152 45.538 410.646 45.032 410.646 44.416ZM415.553 57V47.87H417.137V48.838C417.643 48.09 418.435 47.65 419.403 47.65C421.053 47.65 421.713 48.816 421.889 49.124C422.769 47.738 424.023 47.65 424.639 47.65C427.345 47.65 427.609 49.916 427.609 51.214V57H426.025V51.456C426.025 50.422 425.893 49.058 424.397 49.058C422.571 49.058 422.373 50.818 422.373 51.918V57H420.789V51.588C420.789 50.95 420.811 49.058 419.139 49.058C417.335 49.058 417.137 50.928 417.137 52.028V57H415.553ZM432.197 55.724V62.06H430.613V47.87H432.197V49.146C433.275 47.804 434.661 47.65 435.321 47.65C438.181 47.65 439.765 50.026 439.765 52.49C439.765 54.998 438.159 57.264 435.387 57.264C433.913 57.264 432.879 56.604 432.197 55.724ZM435.167 55.856C437.015 55.856 438.137 54.316 438.137 52.49C438.137 50.246 436.619 49.058 435.145 49.058C433.671 49.058 432.109 50.268 432.109 52.468C432.109 54.338 433.297 55.856 435.167 55.856ZM442.193 57V47.87H443.777V48.86C443.931 48.618 444.613 47.65 445.845 47.65C446.329 47.65 446.857 47.826 447.253 48.024L446.505 49.454C446.153 49.212 445.823 49.146 445.581 49.146C444.943 49.146 444.547 49.41 444.305 49.718C444.041 50.07 443.777 50.686 443.777 52.182V57H442.193ZM452.434 57.264C449.662 57.264 447.594 55.24 447.594 52.468C447.594 49.696 449.64 47.65 452.434 47.65C455.228 47.65 457.274 49.696 457.274 52.468C457.274 55.24 455.206 57.264 452.434 57.264ZM452.434 49.058C450.762 49.058 449.222 50.246 449.222 52.468C449.222 54.712 450.806 55.856 452.434 55.856C454.084 55.856 455.646 54.69 455.646 52.468C455.646 50.224 454.106 49.058 452.434 49.058ZM458.383 47.87H460.143L462.871 54.03L465.599 47.87H467.359L462.871 57.594L458.383 47.87ZM475.803 53.942L477.123 54.668C476.859 55.174 476.463 55.724 476.001 56.142C475.165 56.89 474.131 57.264 472.965 57.264C470.765 57.264 468.455 55.878 468.455 52.49C468.455 49.762 470.127 47.65 472.877 47.65C474.659 47.65 475.781 48.53 476.331 49.322C476.903 50.136 477.233 51.544 477.189 52.754H470.083C470.105 54.646 471.403 55.856 472.987 55.856C473.735 55.856 474.329 55.636 474.857 55.196C475.275 54.844 475.605 54.382 475.803 53.942ZM470.193 51.434H475.561C475.297 50.004 474.219 49.058 472.877 49.058C471.535 49.058 470.435 50.07 470.193 51.434ZM491.904 48.53V50.422C491.068 49.366 489.858 49.058 489.044 49.058C487.35 49.058 485.81 50.246 485.81 52.468C485.81 54.69 487.394 55.856 489.022 55.856C489.968 55.856 491.134 55.438 491.97 54.426V56.318C490.98 57.044 489.924 57.264 489.066 57.264C486.228 57.264 484.182 55.24 484.182 52.49C484.182 49.696 486.25 47.65 489.066 47.65C490.518 47.65 491.464 48.222 491.904 48.53ZM498.668 57.264C495.896 57.264 493.828 55.24 493.828 52.468C493.828 49.696 495.874 47.65 498.668 47.65C501.462 47.65 503.508 49.696 503.508 52.468C503.508 55.24 501.44 57.264 498.668 57.264ZM498.668 49.058C496.996 49.058 495.456 50.246 495.456 52.468C495.456 54.712 497.04 55.856 498.668 55.856C500.318 55.856 501.88 54.69 501.88 52.468C501.88 50.224 500.34 49.058 498.668 49.058ZM505.937 57V47.87H507.521V48.926C507.807 48.552 508.621 47.65 510.139 47.65C511.217 47.65 512.207 48.09 512.757 48.904C513.219 49.586 513.285 50.334 513.285 51.346V57H511.701V51.39C511.701 50.84 511.657 50.202 511.283 49.718C510.975 49.322 510.491 49.058 509.787 49.058C509.237 49.058 508.643 49.212 508.181 49.762C507.565 50.488 507.521 51.566 507.521 52.226V57H505.937ZM521.331 49.3L520.033 49.982C519.813 49.454 519.351 49.058 518.757 49.058C518.185 49.058 517.657 49.388 517.657 50.092C517.657 50.752 518.097 50.95 519.131 51.39C520.451 51.94 521.067 52.358 521.419 52.798C521.815 53.282 521.903 53.766 521.903 54.272C521.903 56.186 520.517 57.264 518.757 57.264C518.383 57.264 516.337 57.22 515.567 54.932L516.931 54.36C517.107 54.844 517.635 55.856 518.779 55.856C519.813 55.856 520.275 55.086 520.275 54.404C520.275 53.546 519.659 53.26 518.801 52.886C517.701 52.402 516.997 52.05 516.579 51.544C516.227 51.104 516.161 50.664 516.161 50.202C516.161 48.596 517.283 47.65 518.823 47.65C519.307 47.65 520.605 47.738 521.331 49.3ZM524.006 47.87H525.59V57H524.006V47.87ZM523.676 44.416C523.676 43.8 524.182 43.294 524.798 43.294C525.414 43.294 525.92 43.8 525.92 44.416C525.92 45.032 525.414 45.538 524.798 45.538C524.182 45.538 523.676 45.032 523.676 44.416ZM533.642 49.3L532.344 49.982C532.124 49.454 531.662 49.058 531.068 49.058C530.496 49.058 529.968 49.388 529.968 50.092C529.968 50.752 530.408 50.95 531.442 51.39C532.762 51.94 533.378 52.358 533.73 52.798C534.126 53.282 534.214 53.766 534.214 54.272C534.214 56.186 532.828 57.264 531.068 57.264C530.694 57.264 528.648 57.22 527.878 54.932L529.242 54.36C529.418 54.844 529.946 55.856 531.09 55.856C532.124 55.856 532.586 55.086 532.586 54.404C532.586 53.546 531.97 53.26 531.112 52.886C530.012 52.402 529.308 52.05 528.89 51.544C528.538 51.104 528.472 50.664 528.472 50.202C528.472 48.596 529.594 47.65 531.134 47.65C531.618 47.65 532.916 47.738 533.642 49.3ZM539.528 49.322H537.944V57H536.36V49.322H535.392V47.87H536.36V44.57H537.944V47.87H539.528V49.322ZM547.797 53.942L549.117 54.668C548.853 55.174 548.457 55.724 547.995 56.142C547.159 56.89 546.125 57.264 544.959 57.264C542.759 57.264 540.449 55.878 540.449 52.49C540.449 49.762 542.121 47.65 544.871 47.65C546.653 47.65 547.775 48.53 548.325 49.322C548.897 50.136 549.227 51.544 549.183 52.754H542.077C542.099 54.646 543.397 55.856 544.981 55.856C545.729 55.856 546.323 55.636 546.851 55.196C547.269 54.844 547.599 54.382 547.797 53.942ZM542.187 51.434H547.555C547.291 50.004 546.213 49.058 544.871 49.058C543.529 49.058 542.429 50.07 542.187 51.434ZM551.613 57V47.87H553.197V48.926C553.483 48.552 554.297 47.65 555.815 47.65C556.893 47.65 557.883 48.09 558.433 48.904C558.895 49.586 558.961 50.334 558.961 51.346V57H557.377V51.39C557.377 50.84 557.333 50.202 556.959 49.718C556.651 49.322 556.167 49.058 555.463 49.058C554.913 49.058 554.319 49.212 553.857 49.762C553.241 50.488 553.197 51.566 553.197 52.226V57H551.613ZM569.097 48.53V50.422C568.261 49.366 567.051 49.058 566.237 49.058C564.543 49.058 563.003 50.246 563.003 52.468C563.003 54.69 564.587 55.856 566.215 55.856C567.161 55.856 568.327 55.438 569.163 54.426V56.318C568.173 57.044 567.117 57.264 566.259 57.264C563.421 57.264 561.375 55.24 561.375 52.49C561.375 49.696 563.443 47.65 566.259 47.65C567.711 47.65 568.657 48.222 569.097 48.53ZM571.572 62.06L574.476 56.142L570.274 47.87H572.078L575.312 54.404L578.282 47.87H580.042L573.332 62.06H571.572ZM593.844 49.168V47.87H595.428V57H593.844V55.724C593.316 56.406 592.326 57.264 590.72 57.264C588.41 57.264 586.276 55.636 586.276 52.424C586.276 49.278 588.388 47.65 590.72 47.65C592.48 47.65 593.426 48.618 593.844 49.168ZM590.896 49.058C589.334 49.058 587.904 50.202 587.904 52.424C587.904 54.382 589.004 55.856 590.896 55.856C592.832 55.856 593.932 54.25 593.932 52.446C593.932 50.092 592.304 49.058 590.896 49.058ZM598.428 57V47.87H600.012V48.926C600.298 48.552 601.112 47.65 602.63 47.65C603.708 47.65 604.698 48.09 605.248 48.904C605.71 49.586 605.776 50.334 605.776 51.346V57H604.192V51.39C604.192 50.84 604.148 50.202 603.774 49.718C603.466 49.322 602.982 49.058 602.278 49.058C601.728 49.058 601.134 49.212 600.672 49.762C600.056 50.488 600.012 51.566 600.012 52.226V57H598.428ZM615.758 49.168V40.962H617.342V57H615.758V55.724C615.23 56.406 614.24 57.264 612.634 57.264C610.324 57.264 608.19 55.636 608.19 52.424C608.19 49.278 610.302 47.65 612.634 47.65C614.394 47.65 615.34 48.618 615.758 49.168ZM612.81 49.058C611.248 49.058 609.818 50.202 609.818 52.424C609.818 54.382 610.918 55.856 612.81 55.856C614.746 55.856 615.846 54.25 615.846 52.446C615.846 50.092 614.218 49.058 612.81 49.058ZM628.688 49.322H627.104V57H625.52V49.322H624.552V47.87H625.52V44.57H627.104V47.87H628.688V49.322ZM636.958 53.942L638.278 54.668C638.014 55.174 637.618 55.724 637.156 56.142C636.32 56.89 635.286 57.264 634.12 57.264C631.92 57.264 629.61 55.878 629.61 52.49C629.61 49.762 631.282 47.65 634.032 47.65C635.814 47.65 636.936 48.53 637.486 49.322C638.058 50.136 638.388 51.544 638.344 52.754H631.238C631.26 54.646 632.558 55.856 634.142 55.856C634.89 55.856 635.484 55.636 636.012 55.196C636.43 54.844 636.76 54.382 636.958 53.942ZM631.348 51.434H636.716C636.452 50.004 635.374 49.058 634.032 49.058C632.69 49.058 631.59 50.07 631.348 51.434ZM639.453 57L643.347 52.116L640.025 47.87H641.961L644.315 50.972L646.713 47.87H648.649L645.305 52.138L649.089 57H647.153L644.271 53.282L641.389 57H639.453ZM653.976 49.322H652.392V57H650.808V49.322H649.84V47.87H650.808V44.57H652.392V47.87H653.976V49.322ZM657.053 47.87V53.194C657.053 53.832 657.053 54.58 657.493 55.152C657.735 55.46 658.219 55.856 659.099 55.856C659.979 55.856 660.463 55.46 660.705 55.152C661.145 54.58 661.145 53.832 661.145 53.194V47.87H662.729V53.37C662.729 54.492 662.619 55.328 661.893 56.12C661.079 56.978 660.001 57.264 659.099 57.264C658.197 57.264 657.119 56.978 656.305 56.12C655.579 55.328 655.469 54.492 655.469 53.37V47.87H657.053ZM665.717 57V47.87H667.301V48.86C667.455 48.618 668.137 47.65 669.369 47.65C669.853 47.65 670.381 47.826 670.777 48.024L670.029 49.454C669.677 49.212 669.347 49.146 669.105 49.146C668.467 49.146 668.071 49.41 667.829 49.718C667.565 50.07 667.301 50.686 667.301 52.182V57H665.717ZM678.465 53.942L679.785 54.668C679.521 55.174 679.125 55.724 678.663 56.142C677.827 56.89 676.793 57.264 675.627 57.264C673.427 57.264 671.117 55.878 671.117 52.49C671.117 49.762 672.789 47.65 675.539 47.65C677.321 47.65 678.443 48.53 678.993 49.322C679.565 50.136 679.895 51.544 679.851 52.754H672.745C672.767 54.646 674.065 55.856 675.649 55.856C676.397 55.856 676.991 55.636 677.519 55.196C677.937 54.844 678.267 54.382 678.465 53.942ZM672.855 51.434H678.223C677.959 50.004 676.881 49.058 675.539 49.058C674.197 49.058 673.097 50.07 672.855 51.434ZM28.1497 97.264C25.3777 97.264 23.3097 95.24 23.3097 92.468C23.3097 89.696 25.3557 87.65 28.1497 87.65C30.9437 87.65 32.9897 89.696 32.9897 92.468C32.9897 95.24 30.9217 97.264 28.1497 97.264ZM28.1497 89.058C26.4777 89.058 24.9377 90.246 24.9377 92.468C24.9377 94.712 26.5217 95.856 28.1497 95.856C29.7997 95.856 31.3617 94.69 31.3617 92.468C31.3617 90.224 29.8217 89.058 28.1497 89.058ZM39.2909 89.322H37.0469V97H35.4629V89.322H34.5829V87.87H35.4629V83.888C35.4629 83.052 35.5289 81.996 36.3429 81.314C36.7829 80.94 37.4429 80.72 38.1689 80.72C38.7409 80.72 39.1149 80.852 39.2909 80.918V82.458C38.9609 82.326 38.5869 82.26 38.2569 82.26C37.9049 82.26 37.4869 82.348 37.2449 82.744C37.0469 83.074 37.0469 83.58 37.0469 84.064V87.87H39.2909V89.322ZM49.0508 89.322H47.4668V97H45.8828V89.322H44.9148V87.87H45.8828V84.57H47.4668V87.87H49.0508V89.322ZM50.5439 97V80.962H52.1279V88.926C52.4139 88.552 53.2279 87.65 54.7459 87.65C55.8239 87.65 56.8139 88.09 57.3639 88.904C57.8259 89.586 57.8919 90.334 57.8919 91.346V97H56.3079V91.39C56.3079 90.84 56.2639 90.202 55.8899 89.718C55.5819 89.322 55.0979 89.058 54.3939 89.058C53.8439 89.058 53.2499 89.212 52.7879 89.762C52.1719 90.488 52.1279 91.566 52.1279 92.226V97H50.5439ZM67.439 93.942L68.759 94.668C68.495 95.174 68.099 95.724 67.637 96.142C66.801 96.89 65.767 97.264 64.601 97.264C62.401 97.264 60.091 95.878 60.091 92.49C60.091 89.762 61.763 87.65 64.513 87.65C66.295 87.65 67.417 88.53 67.967 89.322C68.539 90.136 68.869 91.544 68.825 92.754H61.719C61.741 94.646 63.039 95.856 64.623 95.856C65.371 95.856 65.965 95.636 66.493 95.196C66.911 94.844 67.241 94.382 67.439 93.942ZM61.829 91.434H67.197C66.933 90.004 65.855 89.058 64.513 89.058C63.171 89.058 62.071 90.07 61.829 91.434ZM76.3896 97V80.962H77.9736V88.926C78.2596 88.552 79.0736 87.65 80.5916 87.65C81.6696 87.65 82.6596 88.09 83.2096 88.904C83.6716 89.586 83.7376 90.334 83.7376 91.346V97H82.1536V91.39C82.1536 90.84 82.1096 90.202 81.7356 89.718C81.4276 89.322 80.9436 89.058 80.2396 89.058C79.6896 89.058 79.0956 89.212 78.6336 89.762C78.0176 90.488 77.9736 91.566 77.9736 92.226V97H76.3896ZM86.7235 87.87H88.3075V97H86.7235V87.87ZM86.3935 84.416C86.3935 83.8 86.8995 83.294 87.5155 83.294C88.1315 83.294 88.6375 83.8 88.6375 84.416C88.6375 85.032 88.1315 85.538 87.5155 85.538C86.8995 85.538 86.3935 85.032 86.3935 84.416ZM94.5117 89.322H92.9277V97H91.3437V89.322H90.3757V87.87H91.3437V84.57H92.9277V87.87H94.5117V89.322ZM95.9168 96.12C95.9168 95.526 96.4228 95.02 97.0168 95.02C97.6108 95.02 98.1168 95.526 98.1168 96.12C98.1168 96.714 97.6108 97.22 97.0168 97.22C96.4228 97.22 95.9168 96.714 95.9168 96.12ZM113.713 83.866H110.149V97H108.521V83.866H104.957V82.326H113.713V83.866ZM113.923 97V80.962H115.507V88.926C115.793 88.552 116.607 87.65 118.125 87.65C119.203 87.65 120.193 88.09 120.743 88.904C121.205 89.586 121.271 90.334 121.271 91.346V97H119.687V91.39C119.687 90.84 119.643 90.202 119.269 89.718C118.961 89.322 118.477 89.058 117.773 89.058C117.223 89.058 116.629 89.212 116.167 89.762C115.551 90.488 115.507 91.566 115.507 92.226V97H113.923ZM124.257 87.87H125.841V97H124.257V87.87ZM123.927 84.416C123.927 83.8 124.433 83.294 125.049 83.294C125.665 83.294 126.171 83.8 126.171 84.416C126.171 85.032 125.665 85.538 125.049 85.538C124.433 85.538 123.927 85.032 123.927 84.416ZM133.893 89.3L132.595 89.982C132.375 89.454 131.913 89.058 131.319 89.058C130.747 89.058 130.219 89.388 130.219 90.092C130.219 90.752 130.659 90.95 131.693 91.39C133.013 91.94 133.629 92.358 133.981 92.798C134.377 93.282 134.465 93.766 134.465 94.272C134.465 96.186 133.079 97.264 131.319 97.264C130.945 97.264 128.899 97.22 128.129 94.932L129.493 94.36C129.669 94.844 130.197 95.856 131.341 95.856C132.375 95.856 132.837 95.086 132.837 94.404C132.837 93.546 132.221 93.26 131.363 92.886C130.263 92.402 129.559 92.05 129.141 91.544C128.789 91.104 128.723 90.664 128.723 90.202C128.723 88.596 129.845 87.65 131.385 87.65C131.869 87.65 133.167 87.738 133.893 89.3ZM148.698 89.168V87.87H150.282V97H148.698V95.724C148.17 96.406 147.18 97.264 145.574 97.264C143.264 97.264 141.13 95.636 141.13 92.424C141.13 89.278 143.242 87.65 145.574 87.65C147.334 87.65 148.28 88.618 148.698 89.168ZM145.75 89.058C144.188 89.058 142.758 90.202 142.758 92.424C142.758 94.382 143.858 95.856 145.75 95.856C147.686 95.856 148.786 94.25 148.786 92.446C148.786 90.092 147.158 89.058 145.75 89.058ZM153.282 80.962H154.866V97H153.282V80.962ZM157.858 80.962H159.442V97H157.858V80.962ZM166.702 97.264C163.93 97.264 161.862 95.24 161.862 92.468C161.862 89.696 163.908 87.65 166.702 87.65C169.496 87.65 171.542 89.696 171.542 92.468C171.542 95.24 169.474 97.264 166.702 97.264ZM166.702 89.058C165.03 89.058 163.49 90.246 163.49 92.468C163.49 94.712 165.074 95.856 166.702 95.856C168.352 95.856 169.914 94.69 169.914 92.468C169.914 90.224 168.374 89.058 166.702 89.058ZM172.652 87.87H174.412L177.118 94.074L179.978 87.166L182.816 94.074L185.544 87.87H187.304L182.772 97.638L179.956 90.818L177.14 97.638L172.652 87.87ZM194.028 89.3L192.73 89.982C192.51 89.454 192.048 89.058 191.454 89.058C190.882 89.058 190.354 89.388 190.354 90.092C190.354 90.752 190.794 90.95 191.828 91.39C193.148 91.94 193.764 92.358 194.116 92.798C194.512 93.282 194.6 93.766 194.6 94.272C194.6 96.186 193.214 97.264 191.454 97.264C191.08 97.264 189.034 97.22 188.264 94.932L189.628 94.36C189.804 94.844 190.332 95.856 191.476 95.856C192.51 95.856 192.972 95.086 192.972 94.404C192.972 93.546 192.356 93.26 191.498 92.886C190.398 92.402 189.694 92.05 189.276 91.544C188.924 91.104 188.858 90.664 188.858 90.202C188.858 88.596 189.98 87.65 191.52 87.65C192.004 87.65 193.302 87.738 194.028 89.3ZM203.421 87.87V93.194C203.421 93.832 203.421 94.58 203.861 95.152C204.103 95.46 204.587 95.856 205.467 95.856C206.347 95.856 206.831 95.46 207.073 95.152C207.513 94.58 207.513 93.832 207.513 93.194V87.87H209.097V93.37C209.097 94.492 208.987 95.328 208.261 96.12C207.447 96.978 206.369 97.264 205.467 97.264C204.565 97.264 203.487 96.978 202.673 96.12C201.947 95.328 201.837 94.492 201.837 93.37V87.87H203.421ZM217.145 89.3L215.847 89.982C215.627 89.454 215.165 89.058 214.571 89.058C213.999 89.058 213.471 89.388 213.471 90.092C213.471 90.752 213.911 90.95 214.945 91.39C216.265 91.94 216.881 92.358 217.233 92.798C217.629 93.282 217.717 93.766 217.717 94.272C217.717 96.186 216.331 97.264 214.571 97.264C214.197 97.264 212.151 97.22 211.381 94.932L212.745 94.36C212.921 94.844 213.449 95.856 214.593 95.856C215.627 95.856 216.089 95.086 216.089 94.404C216.089 93.546 215.473 93.26 214.615 92.886C213.515 92.402 212.811 92.05 212.393 91.544C212.041 91.104 211.975 90.664 211.975 90.202C211.975 88.596 213.097 87.65 214.637 87.65C215.121 87.65 216.419 87.738 217.145 89.3ZM228.166 89.322H226.582V97H224.998V89.322H224.03V87.87H224.998V84.57H226.582V87.87H228.166V89.322ZM233.927 97.264C231.155 97.264 229.087 95.24 229.087 92.468C229.087 89.696 231.133 87.65 233.927 87.65C236.721 87.65 238.767 89.696 238.767 92.468C238.767 95.24 236.699 97.264 233.927 97.264ZM233.927 89.058C232.255 89.058 230.715 90.246 230.715 92.468C230.715 94.712 232.299 95.856 233.927 95.856C235.577 95.856 237.139 94.69 237.139 92.468C237.139 90.224 235.599 89.058 233.927 89.058ZM253.107 93.942L254.427 94.668C254.163 95.174 253.767 95.724 253.305 96.142C252.469 96.89 251.435 97.264 250.269 97.264C248.069 97.264 245.759 95.878 245.759 92.49C245.759 89.762 247.431 87.65 250.181 87.65C251.963 87.65 253.085 88.53 253.635 89.322C254.207 90.136 254.537 91.544 254.493 92.754H247.387C247.409 94.646 248.707 95.856 250.291 95.856C251.039 95.856 251.633 95.636 252.161 95.196C252.579 94.844 252.909 94.382 253.107 93.942ZM247.497 91.434H252.865C252.601 90.004 251.523 89.058 250.181 89.058C248.839 89.058 247.739 90.07 247.497 91.434ZM255.603 97L259.497 92.116L256.175 87.87H258.111L260.465 90.972L262.863 87.87H264.799L261.455 92.138L265.239 97H263.303L260.421 93.282L257.539 97H255.603ZM268.497 95.724V102.06H266.913V87.87H268.497V89.146C269.575 87.804 270.961 87.65 271.621 87.65C274.481 87.65 276.065 90.026 276.065 92.49C276.065 94.998 274.459 97.264 271.687 97.264C270.213 97.264 269.179 96.604 268.497 95.724ZM271.467 95.856C273.315 95.856 274.437 94.316 274.437 92.49C274.437 90.246 272.919 89.058 271.445 89.058C269.971 89.058 268.409 90.268 268.409 92.468C268.409 94.338 269.597 95.856 271.467 95.856ZM285.269 93.942L286.589 94.668C286.325 95.174 285.929 95.724 285.467 96.142C284.631 96.89 283.597 97.264 282.431 97.264C280.231 97.264 277.921 95.878 277.921 92.49C277.921 89.762 279.593 87.65 282.343 87.65C284.125 87.65 285.247 88.53 285.797 89.322C286.369 90.136 286.699 91.544 286.655 92.754H279.549C279.571 94.646 280.869 95.856 282.453 95.856C283.201 95.856 283.795 95.636 284.323 95.196C284.741 94.844 285.071 94.382 285.269 93.942ZM279.659 91.434H285.027C284.763 90.004 283.685 89.058 282.343 89.058C281.001 89.058 279.901 90.07 279.659 91.434ZM296.235 88.53V90.422C295.399 89.366 294.189 89.058 293.375 89.058C291.681 89.058 290.141 90.246 290.141 92.468C290.141 94.69 291.725 95.856 293.353 95.856C294.299 95.856 295.465 95.438 296.301 94.426V96.318C295.311 97.044 294.255 97.264 293.397 97.264C290.559 97.264 288.513 95.24 288.513 92.49C288.513 89.696 290.581 87.65 293.397 87.65C294.849 87.65 295.795 88.222 296.235 88.53ZM301.943 89.322H300.359V97H298.775V89.322H297.807V87.87H298.775V84.57H300.359V87.87H301.943V89.322ZM308.571 97V87.87H310.155V88.838C310.661 88.09 311.453 87.65 312.421 87.65C314.071 87.65 314.731 88.816 314.907 89.124C315.787 87.738 317.041 87.65 317.657 87.65C320.363 87.65 320.627 89.916 320.627 91.214V97H319.043V91.456C319.043 90.422 318.911 89.058 317.415 89.058C315.589 89.058 315.391 90.818 315.391 91.918V97H313.807V91.588C313.807 90.95 313.829 89.058 312.157 89.058C310.353 89.058 310.155 90.928 310.155 92.028V97H308.571ZM327.9 97.264C325.128 97.264 323.06 95.24 323.06 92.468C323.06 89.696 325.106 87.65 327.9 87.65C330.694 87.65 332.74 89.696 332.74 92.468C332.74 95.24 330.672 97.264 327.9 97.264ZM327.9 89.058C326.228 89.058 324.688 90.246 324.688 92.468C324.688 94.712 326.272 95.856 327.9 95.856C329.55 95.856 331.112 94.69 331.112 92.468C331.112 90.224 329.572 89.058 327.9 89.058ZM335.169 97V87.87H336.753V88.86C336.907 88.618 337.589 87.65 338.821 87.65C339.305 87.65 339.833 87.826 340.229 88.024L339.481 89.454C339.129 89.212 338.799 89.146 338.557 89.146C337.919 89.146 337.523 89.41 337.281 89.718C337.017 90.07 336.753 90.686 336.753 92.182V97H335.169ZM347.918 93.942L349.238 94.668C348.974 95.174 348.578 95.724 348.116 96.142C347.28 96.89 346.246 97.264 345.08 97.264C342.88 97.264 340.57 95.878 340.57 92.49C340.57 89.762 342.242 87.65 344.992 87.65C346.774 87.65 347.896 88.53 348.446 89.322C349.018 90.136 349.348 91.544 349.304 92.754H342.198C342.22 94.646 343.518 95.856 345.102 95.856C345.85 95.856 346.444 95.636 346.972 95.196C347.39 94.844 347.72 94.382 347.918 93.942ZM342.308 91.434H347.676C347.412 90.004 346.334 89.058 344.992 89.058C343.65 89.058 342.55 90.07 342.308 91.434ZM364.018 88.53V90.422C363.182 89.366 361.972 89.058 361.158 89.058C359.464 89.058 357.924 90.246 357.924 92.468C357.924 94.69 359.508 95.856 361.136 95.856C362.082 95.856 363.248 95.438 364.084 94.426V96.318C363.094 97.044 362.038 97.264 361.18 97.264C358.342 97.264 356.296 95.24 356.296 92.49C356.296 89.696 358.364 87.65 361.18 87.65C362.632 87.65 363.578 88.222 364.018 88.53ZM370.783 97.264C368.011 97.264 365.943 95.24 365.943 92.468C365.943 89.696 367.989 87.65 370.783 87.65C373.577 87.65 375.623 89.696 375.623 92.468C375.623 95.24 373.555 97.264 370.783 97.264ZM370.783 89.058C369.111 89.058 367.571 90.246 367.571 92.468C367.571 94.712 369.155 95.856 370.783 95.856C372.433 95.856 373.995 94.69 373.995 92.468C373.995 90.224 372.455 89.058 370.783 89.058ZM378.052 97V87.87H379.636V88.926C379.922 88.552 380.736 87.65 382.254 87.65C383.332 87.65 384.322 88.09 384.872 88.904C385.334 89.586 385.4 90.334 385.4 91.346V97H383.816V91.39C383.816 90.84 383.772 90.202 383.398 89.718C383.09 89.322 382.606 89.058 381.902 89.058C381.352 89.058 380.758 89.212 380.296 89.762C379.68 90.488 379.636 91.566 379.636 92.226V97H378.052ZM393.446 89.3L392.148 89.982C391.928 89.454 391.466 89.058 390.872 89.058C390.3 89.058 389.772 89.388 389.772 90.092C389.772 90.752 390.212 90.95 391.246 91.39C392.566 91.94 393.182 92.358 393.534 92.798C393.93 93.282 394.018 93.766 394.018 94.272C394.018 96.186 392.632 97.264 390.872 97.264C390.498 97.264 388.452 97.22 387.682 94.932L389.046 94.36C389.222 94.844 389.75 95.856 390.894 95.856C391.928 95.856 392.39 95.086 392.39 94.404C392.39 93.546 391.774 93.26 390.916 92.886C389.816 92.402 389.112 92.05 388.694 91.544C388.342 91.104 388.276 90.664 388.276 90.202C388.276 88.596 389.398 87.65 390.938 87.65C391.422 87.65 392.72 87.738 393.446 89.3ZM396.12 87.87H397.704V97H396.12V87.87ZM395.79 84.416C395.79 83.8 396.296 83.294 396.912 83.294C397.528 83.294 398.034 83.8 398.034 84.416C398.034 85.032 397.528 85.538 396.912 85.538C396.296 85.538 395.79 85.032 395.79 84.416ZM405.756 89.3L404.458 89.982C404.238 89.454 403.776 89.058 403.182 89.058C402.61 89.058 402.082 89.388 402.082 90.092C402.082 90.752 402.522 90.95 403.556 91.39C404.876 91.94 405.492 92.358 405.844 92.798C406.24 93.282 406.328 93.766 406.328 94.272C406.328 96.186 404.942 97.264 403.182 97.264C402.808 97.264 400.762 97.22 399.992 94.932L401.356 94.36C401.532 94.844 402.06 95.856 403.204 95.856C404.238 95.856 404.7 95.086 404.7 94.404C404.7 93.546 404.084 93.26 403.226 92.886C402.126 92.402 401.422 92.05 401.004 91.544C400.652 91.104 400.586 90.664 400.586 90.202C400.586 88.596 401.708 87.65 403.248 87.65C403.732 87.65 405.03 87.738 405.756 89.3ZM411.643 89.322H410.059V97H408.475V89.322H407.507V87.87H408.475V84.57H410.059V87.87H411.643V89.322ZM419.912 93.942L421.232 94.668C420.968 95.174 420.572 95.724 420.11 96.142C419.274 96.89 418.24 97.264 417.074 97.264C414.874 97.264 412.564 95.878 412.564 92.49C412.564 89.762 414.236 87.65 416.986 87.65C418.768 87.65 419.89 88.53 420.44 89.322C421.012 90.136 421.342 91.544 421.298 92.754H414.192C414.214 94.646 415.512 95.856 417.096 95.856C417.844 95.856 418.438 95.636 418.966 95.196C419.384 94.844 419.714 94.382 419.912 93.942ZM414.302 91.434H419.67C419.406 90.004 418.328 89.058 416.986 89.058C415.644 89.058 414.544 90.07 414.302 91.434ZM423.727 97V87.87H425.311V88.926C425.597 88.552 426.411 87.65 427.929 87.65C429.007 87.65 429.997 88.09 430.547 88.904C431.009 89.586 431.075 90.334 431.075 91.346V97H429.491V91.39C429.491 90.84 429.447 90.202 429.073 89.718C428.765 89.322 428.281 89.058 427.577 89.058C427.027 89.058 426.433 89.212 425.971 89.762C425.355 90.488 425.311 91.566 425.311 92.226V97H423.727ZM437.273 89.322H435.689V97H434.105V89.322H433.137V87.87H434.105V84.57H435.689V87.87H437.273V89.322ZM445.485 95.724V102.06H443.901V87.87H445.485V89.146C446.563 87.804 447.949 87.65 448.609 87.65C451.469 87.65 453.053 90.026 453.053 92.49C453.053 94.998 451.447 97.264 448.675 97.264C447.201 97.264 446.167 96.604 445.485 95.724ZM448.455 95.856C450.303 95.856 451.425 94.316 451.425 92.49C451.425 90.246 449.907 89.058 448.433 89.058C446.959 89.058 445.397 90.268 445.397 92.468C445.397 94.338 446.585 95.856 448.455 95.856ZM462.257 93.942L463.577 94.668C463.313 95.174 462.917 95.724 462.455 96.142C461.619 96.89 460.585 97.264 459.419 97.264C457.219 97.264 454.909 95.878 454.909 92.49C454.909 89.762 456.581 87.65 459.331 87.65C461.113 87.65 462.235 88.53 462.785 89.322C463.357 90.136 463.687 91.544 463.643 92.754H456.537C456.559 94.646 457.857 95.856 459.441 95.856C460.189 95.856 460.783 95.636 461.311 95.196C461.729 94.844 462.059 94.382 462.257 93.942ZM456.647 91.434H462.015C461.751 90.004 460.673 89.058 459.331 89.058C457.989 89.058 456.889 90.07 456.647 91.434ZM466.073 97V87.87H467.657V88.86C467.811 88.618 468.493 87.65 469.725 87.65C470.209 87.65 470.737 87.826 471.133 88.024L470.385 89.454C470.033 89.212 469.703 89.146 469.461 89.146C468.823 89.146 468.427 89.41 468.185 89.718C467.921 90.07 467.657 90.686 467.657 92.182V97H466.073ZM476.928 89.322H474.684V97H473.1V89.322H472.22V87.87H473.1V83.888C473.1 83.052 473.166 81.996 473.98 81.314C474.42 80.94 475.08 80.72 475.806 80.72C476.378 80.72 476.752 80.852 476.928 80.918V82.458C476.598 82.326 476.224 82.26 475.894 82.26C475.542 82.26 475.124 82.348 474.882 82.744C474.684 83.074 474.684 83.58 474.684 84.064V87.87H476.928V89.322ZM482.609 97.264C479.837 97.264 477.769 95.24 477.769 92.468C477.769 89.696 479.815 87.65 482.609 87.65C485.403 87.65 487.449 89.696 487.449 92.468C487.449 95.24 485.381 97.264 482.609 97.264ZM482.609 89.058C480.937 89.058 479.397 90.246 479.397 92.468C479.397 94.712 480.981 95.856 482.609 95.856C484.259 95.856 485.821 94.69 485.821 92.468C485.821 90.224 484.281 89.058 482.609 89.058ZM489.878 97V87.87H491.462V88.86C491.616 88.618 492.298 87.65 493.53 87.65C494.014 87.65 494.542 87.826 494.938 88.024L494.19 89.454C493.838 89.212 493.508 89.146 493.266 89.146C492.628 89.146 492.232 89.41 491.99 89.718C491.726 90.07 491.462 90.686 491.462 92.182V97H489.878ZM496.388 97V87.87H497.972V88.838C498.478 88.09 499.27 87.65 500.238 87.65C501.888 87.65 502.548 88.816 502.724 89.124C503.604 87.738 504.858 87.65 505.474 87.65C508.18 87.65 508.444 89.916 508.444 91.214V97H506.86V91.456C506.86 90.422 506.728 89.058 505.232 89.058C503.406 89.058 503.208 90.818 503.208 91.918V97H501.624V91.588C501.624 90.95 501.646 89.058 499.974 89.058C498.17 89.058 497.972 90.928 497.972 92.028V97H496.388ZM518.444 89.168V87.87H520.028V97H518.444V95.724C517.916 96.406 516.926 97.264 515.32 97.264C513.01 97.264 510.876 95.636 510.876 92.424C510.876 89.278 512.988 87.65 515.32 87.65C517.08 87.65 518.026 88.618 518.444 89.168ZM515.496 89.058C513.934 89.058 512.504 90.202 512.504 92.424C512.504 94.382 513.604 95.856 515.496 95.856C517.432 95.856 518.532 94.25 518.532 92.446C518.532 90.092 516.904 89.058 515.496 89.058ZM523.028 97V87.87H524.612V88.926C524.898 88.552 525.712 87.65 527.23 87.65C528.308 87.65 529.298 88.09 529.848 88.904C530.31 89.586 530.376 90.334 530.376 91.346V97H528.792V91.39C528.792 90.84 528.748 90.202 528.374 89.718C528.066 89.322 527.582 89.058 526.878 89.058C526.328 89.058 525.734 89.212 525.272 89.762C524.656 90.488 524.612 91.566 524.612 92.226V97H523.028ZM540.512 88.53V90.422C539.676 89.366 538.466 89.058 537.652 89.058C535.958 89.058 534.418 90.246 534.418 92.468C534.418 94.69 536.002 95.856 537.63 95.856C538.576 95.856 539.742 95.438 540.578 94.426V96.318C539.588 97.044 538.532 97.264 537.674 97.264C534.836 97.264 532.79 95.24 532.79 92.49C532.79 89.696 534.858 87.65 537.674 87.65C539.126 87.65 540.072 88.222 540.512 88.53ZM549.785 93.942L551.105 94.668C550.841 95.174 550.445 95.724 549.983 96.142C549.147 96.89 548.113 97.264 546.947 97.264C544.747 97.264 542.437 95.878 542.437 92.49C542.437 89.762 544.109 87.65 546.859 87.65C548.641 87.65 549.763 88.53 550.313 89.322C550.885 90.136 551.215 91.544 551.171 92.754H544.065C544.087 94.646 545.385 95.856 546.969 95.856C547.717 95.856 548.311 95.636 548.839 95.196C549.257 94.844 549.587 94.382 549.785 93.942ZM544.175 91.434H549.543C549.279 90.004 548.201 89.058 546.859 89.058C545.517 89.058 544.417 90.07 544.175 91.434ZM562.607 89.322H560.363V97H558.779V89.322H557.899V87.87H558.779V83.888C558.779 83.052 558.845 81.996 559.659 81.314C560.099 80.94 560.759 80.72 561.485 80.72C562.057 80.72 562.431 80.852 562.607 80.918V82.458C562.277 82.326 561.903 82.26 561.573 82.26C561.221 82.26 560.803 82.348 560.561 82.744C560.363 83.074 560.363 83.58 560.363 84.064V87.87H562.607V89.322ZM568.288 97.264C565.516 97.264 563.448 95.24 563.448 92.468C563.448 89.696 565.494 87.65 568.288 87.65C571.082 87.65 573.128 89.696 573.128 92.468C573.128 95.24 571.06 97.264 568.288 97.264ZM568.288 89.058C566.616 89.058 565.076 90.246 565.076 92.468C565.076 94.712 566.66 95.856 568.288 95.856C569.938 95.856 571.5 94.69 571.5 92.468C571.5 90.224 569.96 89.058 568.288 89.058ZM575.558 97V87.87H577.142V88.86C577.296 88.618 577.978 87.65 579.21 87.65C579.694 87.65 580.222 87.826 580.618 88.024L579.87 89.454C579.518 89.212 579.188 89.146 578.946 89.146C578.308 89.146 577.912 89.41 577.67 89.718C577.406 90.07 577.142 90.686 577.142 92.182V97H575.558ZM593.978 93.942L595.298 94.668C595.034 95.174 594.638 95.724 594.176 96.142C593.34 96.89 592.306 97.264 591.14 97.264C588.94 97.264 586.63 95.878 586.63 92.49C586.63 89.762 588.302 87.65 591.052 87.65C592.834 87.65 593.956 88.53 594.506 89.322C595.078 90.136 595.408 91.544 595.364 92.754H588.258C588.28 94.646 589.578 95.856 591.162 95.856C591.91 95.856 592.504 95.636 593.032 95.196C593.45 94.844 593.78 94.382 593.978 93.942ZM588.368 91.434H593.736C593.472 90.004 592.394 89.058 591.052 89.058C589.71 89.058 588.61 90.07 588.368 91.434ZM604.79 89.168V87.87H606.374V97H604.79V95.724C604.262 96.406 603.272 97.264 601.666 97.264C599.356 97.264 597.222 95.636 597.222 92.424C597.222 89.278 599.334 87.65 601.666 87.65C603.426 87.65 604.372 88.618 604.79 89.168ZM601.842 89.058C600.28 89.058 598.85 90.202 598.85 92.424C598.85 94.382 599.95 95.856 601.842 95.856C603.778 95.856 604.878 94.25 604.878 92.446C604.878 90.092 603.25 89.058 601.842 89.058ZM616.524 88.53V90.422C615.688 89.366 614.478 89.058 613.664 89.058C611.97 89.058 610.43 90.246 610.43 92.468C610.43 94.69 612.014 95.856 613.642 95.856C614.588 95.856 615.754 95.438 616.59 94.426V96.318C615.6 97.044 614.544 97.264 613.686 97.264C610.848 97.264 608.802 95.24 608.802 92.49C608.802 89.696 610.87 87.65 613.686 87.65C615.138 87.65 616.084 88.222 616.524 88.53ZM619.02 97V80.962H620.604V88.926C620.89 88.552 621.704 87.65 623.222 87.65C624.3 87.65 625.29 88.09 625.84 88.904C626.302 89.586 626.368 90.334 626.368 91.346V97H624.784V91.39C624.784 90.84 624.74 90.202 624.366 89.718C624.058 89.322 623.574 89.058 622.87 89.058C622.32 89.058 621.726 89.212 621.264 89.762C620.648 90.488 620.604 91.566 620.604 92.226V97H619.02ZM634.489 97V80.962H636.073V88.926C636.359 88.552 637.173 87.65 638.691 87.65C639.769 87.65 640.759 88.09 641.309 88.904C641.771 89.586 641.837 90.334 641.837 91.346V97H640.253V91.39C640.253 90.84 640.209 90.202 639.835 89.718C639.527 89.322 639.043 89.058 638.339 89.058C637.789 89.058 637.195 89.212 636.733 89.762C636.117 90.488 636.073 91.566 636.073 92.226V97H634.489ZM644.823 87.87H646.407V97H644.823V87.87ZM644.493 84.416C644.493 83.8 644.999 83.294 645.615 83.294C646.231 83.294 646.737 83.8 646.737 84.416C646.737 85.032 646.231 85.538 645.615 85.538C644.999 85.538 644.493 85.032 644.493 84.416ZM652.611 89.322H651.027V97H649.443V89.322H648.475V87.87H649.443V84.57H651.027V87.87H652.611V89.322ZM654.016 96.12C654.016 95.526 654.522 95.02 655.116 95.02C655.71 95.02 656.216 95.526 656.216 96.12C656.216 96.714 655.71 97.22 655.116 97.22C654.522 97.22 654.016 96.714 654.016 96.12Z" fill="#B4B4B4"/>
</svg>
