<svg width="783" height="89" viewBox="0 0 783 89" fill="none" xmlns="http://www.w3.org/2000/svg">
<path d="M72.9883 2.39062L69.5898 23.8945H67.8906C67.8125 19.3242 67.2461 15.7109 66.1914 13.0547C65.1367 10.3594 63.3398 8.38672 60.8008 7.13672C58.2617 5.88672 54.7266 5.06641 50.1953 4.67578L47.5586 4.5L32.0312 77.625C31.6406 79.3828 31.543 80.75 31.7383 81.7266C31.9727 82.6641 32.6562 83.3867 33.7891 83.8945C34.9609 84.3633 36.7578 84.793 39.1797 85.1836L38.8281 87H4.90234L5.3125 85.1836C7.8125 84.832 9.72656 84.4219 11.0547 83.9531C12.3828 83.4453 13.3594 82.7031 13.9844 81.7266C14.6094 80.75 15.1172 79.3828 15.5078 77.625L31.0352 4.5L28.3398 4.67578C23.4961 5.06641 19.5117 5.94531 16.3867 7.3125C13.2617 8.67969 10.6445 10.7109 8.53516 13.4062C6.46484 16.0625 4.51172 19.5586 2.67578 23.8945H0.976562L6.36719 2.39062H72.9883ZM101.875 0.398438L91.6211 47.1562C93.0664 42.8984 94.9609 39.4219 97.3047 36.7266C99.6484 34.0312 102.246 32.0391 105.098 30.75C107.949 29.4609 110.859 28.8164 113.828 28.8164C118.984 28.8164 122.754 30.3789 125.137 33.5039C127.559 36.5898 128.105 41.2773 126.777 47.5664L120.801 75.3984C120.332 77.4297 120.41 78.9141 121.035 79.8516C121.66 80.7891 122.637 81.2578 123.965 81.2578C124.98 81.2578 126.016 81.0625 127.07 80.6719C128.164 80.2422 129.102 79.6953 129.883 79.0312L129.531 80.9648C128.125 82.957 126.016 84.6172 123.203 85.9453C120.391 87.2344 117.422 87.8789 114.297 87.8789C110.742 87.8789 108.184 86.8047 106.621 84.6562C105.098 82.5078 104.824 79.0703 105.801 74.3438L111.953 45.5742C112.695 42.2539 112.617 39.6367 111.719 37.7227C110.859 35.8086 108.984 34.8516 106.094 34.8516C104.141 34.8516 102.168 35.5352 100.176 36.9023C98.1836 38.2305 96.3867 40.125 94.7852 42.5859C93.1836 45.0078 91.9336 47.8594 91.0352 51.1406L83.418 87H68.2422L84.5312 10.3594C84.8828 8.71875 84.8633 7.54688 84.4727 6.84375C84.1211 6.10156 83.2227 5.47656 81.7773 4.96875L78.8477 4.14844L79.2578 2.39062L101.875 0.398438ZM159.355 88.0547C155.371 88.0547 151.719 87.1367 148.398 85.3008C145.078 83.4648 142.422 80.7695 140.43 77.2148C138.477 73.6602 137.5 69.3438 137.5 64.2656C137.5 59.3047 138.281 54.6953 139.844 50.4375C141.406 46.1406 143.594 42.3711 146.406 39.1289C149.219 35.8867 152.5 33.3672 156.25 31.5703C160.039 29.7344 164.141 28.8164 168.555 28.8164C173.672 28.8164 177.734 29.8516 180.742 31.9219C183.75 33.9922 185.254 36.8242 185.254 40.418C185.254 43.2695 184.258 45.8281 182.266 48.0938C180.273 50.3203 177.148 52.3906 172.891 54.3047C168.672 56.1797 163.223 58.0742 156.543 59.9883L151.855 61.3359L151.914 59.3438L156.309 57.9375C159.004 57.0781 161.426 55.9258 163.574 54.4805C165.723 53.0352 167.539 51.4141 169.023 49.6172C170.508 47.7812 171.621 45.8281 172.363 43.7578C173.145 41.6875 173.535 39.5977 173.535 37.4883C173.535 35.5352 173.125 33.9922 172.305 32.8594C171.484 31.7266 170.117 31.1602 168.203 31.1602C165.82 31.1602 163.691 32.0977 161.816 33.9727C159.98 35.8086 158.398 38.25 157.07 41.2969C155.781 44.3438 154.785 47.7227 154.082 51.4336C153.418 55.1055 153.086 58.8164 153.086 62.5664C153.086 67.0195 153.691 70.6719 154.902 73.5234C156.152 76.375 157.852 78.5039 160 79.9102C162.148 81.2773 164.57 81.9609 167.266 81.9609C169.805 81.9609 172.207 81.4336 174.473 80.3789C176.738 79.2852 178.574 77.957 179.98 76.3945L179.629 78.3867C178.418 80.1836 176.797 81.8047 174.766 83.25C172.734 84.6953 170.41 85.8672 167.793 86.7656C165.176 87.625 162.363 88.0547 159.355 88.0547ZM283.34 61.043C283.34 66.1602 281.621 70.6719 278.184 74.5781C274.746 78.4844 269.668 81.5312 262.949 83.7188C256.27 85.9062 248.047 87 238.281 87H208.926L209.277 85.125C211.465 84.8516 213.125 84.4609 214.258 83.9531C215.43 83.4453 216.289 82.7031 216.836 81.7266C217.422 80.75 217.91 79.3438 218.301 77.5078L232.246 11.8828C232.637 10.0469 232.754 8.64063 232.598 7.66406C232.441 6.64844 231.875 5.90625 230.898 5.4375C229.961 4.92969 228.477 4.53906 226.445 4.26562L226.855 2.39062H256.094C266.484 2.39062 274.355 4.12891 279.707 7.60547C285.098 11.082 287.793 15.6328 287.793 21.2578C287.754 24.8125 286.855 27.8398 285.098 30.3398C283.379 32.8008 281.094 34.8125 278.242 36.375C275.43 37.9375 272.285 39.1289 268.809 39.9492C265.371 40.7305 261.934 41.1992 258.496 41.3555C263.965 41.668 268.535 42.7422 272.207 44.5781C275.879 46.375 278.652 48.7188 280.527 51.6094C282.402 54.4609 283.34 57.6055 283.34 61.043ZM265.586 60.3398C265.586 57.1367 264.961 54.2656 263.711 51.7266C262.5 49.1875 260.723 47.1562 258.379 45.6328C256.035 44.1094 253.184 43.3086 249.824 43.2305L242.148 43.0547L233.242 84.8906L238.164 84.7148C244.531 84.4805 249.727 83.2109 253.75 80.9062C257.812 78.6016 260.801 75.6523 262.715 72.0586C264.629 68.4258 265.586 64.5195 265.586 60.3398ZM270.801 20.6133C270.801 16.0039 269.492 12.2539 266.875 9.36328C264.297 6.43359 260.371 4.87109 255.098 4.67578L250.352 4.5L242.559 40.8867L250.41 40.8281C254.824 40.75 258.535 39.8125 261.543 38.0156C264.59 36.2188 266.895 33.7969 268.457 30.75C270.02 27.7031 270.801 24.3242 270.801 20.6133ZM315.098 88.0547C311.113 88.0547 307.461 87.1367 304.141 85.3008C300.82 83.4648 298.164 80.7695 296.172 77.2148C294.219 73.6602 293.242 69.3438 293.242 64.2656C293.242 59.3047 294.023 54.6953 295.586 50.4375C297.148 46.1406 299.336 42.3711 302.148 39.1289C304.961 35.8867 308.242 33.3672 311.992 31.5703C315.781 29.7344 319.883 28.8164 324.297 28.8164C329.414 28.8164 333.477 29.8516 336.484 31.9219C339.492 33.9922 340.996 36.8242 340.996 40.418C340.996 43.2695 340 45.8281 338.008 48.0938C336.016 50.3203 332.891 52.3906 328.633 54.3047C324.414 56.1797 318.965 58.0742 312.285 59.9883L307.598 61.3359L307.656 59.3438L312.051 57.9375C314.746 57.0781 317.168 55.9258 319.316 54.4805C321.465 53.0352 323.281 51.4141 324.766 49.6172C326.25 47.7812 327.363 45.8281 328.105 43.7578C328.887 41.6875 329.277 39.5977 329.277 37.4883C329.277 35.5352 328.867 33.9922 328.047 32.8594C327.227 31.7266 325.859 31.1602 323.945 31.1602C321.562 31.1602 319.434 32.0977 317.559 33.9727C315.723 35.8086 314.141 38.25 312.812 41.2969C311.523 44.3438 310.527 47.7227 309.824 51.4336C309.16 55.1055 308.828 58.8164 308.828 62.5664C308.828 67.0195 309.434 70.6719 310.645 73.5234C311.895 76.375 313.594 78.5039 315.742 79.9102C317.891 81.2773 320.312 81.9609 323.008 81.9609C325.547 81.9609 327.949 81.4336 330.215 80.3789C332.48 79.2852 334.316 77.957 335.723 76.3945L335.371 78.3867C334.16 80.1836 332.539 81.8047 330.508 83.25C328.477 84.6953 326.152 85.8672 323.535 86.7656C320.918 87.625 318.105 88.0547 315.098 88.0547ZM342.578 82.6055L345.391 66.9609H347.031C347.07 73.0156 348.379 77.6445 350.957 80.8477C353.574 84.0508 356.914 85.6523 360.977 85.6523C363.789 85.6523 366.152 84.8711 368.066 83.3086C369.98 81.7461 370.938 79.5195 370.938 76.6289C370.977 74.3633 370.508 72.3516 369.531 70.5938C368.594 68.8359 366.875 67.0781 364.375 65.3203L359.395 61.8047C356.27 59.6562 353.887 57.3125 352.246 54.7734C350.605 52.1953 349.785 49.2852 349.785 46.043C349.785 42.6055 350.703 39.5977 352.539 37.0195C354.375 34.4414 356.973 32.4297 360.332 30.9844C363.73 29.5391 367.773 28.8164 372.461 28.8164C376.094 28.8164 379.336 29.2656 382.188 30.1641C385.078 31.0625 387.305 32.0781 388.867 33.2109L385.938 48.1523H384.238C384.277 45.1445 383.887 42.3711 383.066 39.832C382.246 37.2539 380.938 35.1836 379.141 33.6211C377.383 32.0195 375.078 31.2188 372.227 31.2188C369.336 31.2188 367.129 31.9805 365.605 33.5039C364.121 35.0273 363.379 37.0586 363.379 39.5977C363.379 41.6289 363.906 43.4453 364.961 45.0469C366.016 46.6094 367.695 48.1914 370 49.793L374.98 53.3672C378.262 55.5938 380.664 57.9961 382.188 60.5742C383.75 63.1133 384.531 66.1406 384.531 69.6562C384.531 73.3281 383.496 76.5508 381.426 79.3242C379.395 82.0586 376.602 84.207 373.047 85.7695C369.531 87.293 365.508 88.0547 360.977 88.0547C358.477 88.0547 356.055 87.8008 353.711 87.293C351.367 86.8242 349.238 86.1797 347.324 85.3594C345.41 84.5391 343.828 83.6211 342.578 82.6055ZM408.73 87.9961C403.887 87.957 400.332 86.2969 398.066 83.0156C395.84 79.7344 395.391 74.9688 396.719 68.7188L403.809 34.9102H396.953L397.305 33.2695L404.629 31.2773L407.031 19.6758L422.734 17.3906L419.746 31.8633L433.633 30.9258L432.812 34.9102L419.219 34.1484L411.543 70.3594C410.723 74.1484 410.82 76.9219 411.836 78.6797C412.852 80.4375 414.668 81.3164 417.285 81.3164C418.887 81.3164 420.332 81.0234 421.621 80.4375C422.949 79.8516 424.043 79.0508 424.902 78.0352L424.551 79.9688C423.613 81.6484 422.305 83.0938 420.625 84.3047C418.984 85.4766 417.129 86.375 415.059 87C413.027 87.6641 410.918 87.9961 408.73 87.9961ZM483.789 87H451.152L451.562 85.125C453.75 84.8516 455.41 84.4609 456.543 83.9531C457.715 83.4453 458.594 82.7031 459.18 81.7266C459.766 80.7109 460.254 79.2852 460.645 77.4492L474.59 11.9414C474.98 10.0664 475.098 8.64063 474.941 7.66406C474.785 6.64844 474.219 5.90625 473.242 5.4375C472.266 4.92969 470.762 4.53906 468.73 4.26562L469.141 2.39062H498.496C504.238 2.39062 509.16 2.99609 513.262 4.20703C517.402 5.41797 520.781 7.09766 523.398 9.24609C526.016 11.3555 527.93 13.8164 529.141 16.6289C530.391 19.4414 531.016 22.4688 531.016 25.7109C531.016 30.3594 529.922 34.3828 527.734 37.7812C525.586 41.1406 522.617 43.9336 518.828 46.1602C515.078 48.3477 510.742 49.9883 505.82 51.082C500.938 52.1367 495.781 52.6641 490.352 52.6641H482.5L477.168 77.5078C476.816 79.2266 476.738 80.5938 476.934 81.6094C477.168 82.625 477.832 83.3867 478.926 83.8945C480.059 84.4023 481.797 84.8125 484.141 85.125L483.789 87ZM492.695 4.5L482.91 50.5547L488.066 50.3789C493.496 50.1445 498.125 48.8945 501.953 46.6289C505.82 44.3242 508.77 41.2188 510.801 37.3125C512.871 33.3672 513.906 28.875 513.906 23.8359C513.906 20.2422 513.301 17.0391 512.09 14.2266C510.879 11.4141 509.023 9.16797 506.523 7.48828C504.062 5.76953 500.938 4.83203 497.148 4.67578L492.695 4.5ZM558.613 29.2266L550 70.0078C549.219 73.6797 549.219 76.5898 550 78.7383C550.82 80.8477 552.734 81.9023 555.742 81.9023C559.023 81.9023 561.953 80.418 564.531 77.4492C567.109 74.4414 568.984 70.6719 570.156 66.1406L575.781 39.7734C576.172 38.0938 576.172 36.9023 575.781 36.1992C575.391 35.4961 574.473 34.8711 573.027 34.3242L570.215 33.5625L570.566 31.9219L593.242 29.2266L583.398 75.3984C582.93 77.4297 583.008 78.9141 583.633 79.8516C584.258 80.7891 585.234 81.2578 586.562 81.2578C587.578 81.2578 588.613 81.0625 589.668 80.6719C590.762 80.2422 591.699 79.6953 592.48 79.0312L592.129 80.9648C590.723 82.957 588.613 84.6172 585.801 85.9453C582.988 87.2344 580.059 87.8789 577.012 87.8789C573.77 87.8789 571.387 86.9609 569.863 85.125C568.34 83.25 567.891 80.3398 568.516 76.3945C568.672 75.457 568.848 74.4023 569.043 73.2305C569.277 72.0586 569.512 71.0039 569.746 70.0664C568.457 73.9336 566.699 77.2148 564.473 79.9102C562.246 82.5664 559.727 84.5977 556.914 86.0039C554.102 87.3711 551.152 88.0547 548.066 88.0547C542.559 88.0547 538.711 86.3164 536.523 82.8398C534.336 79.3242 533.906 74.4219 535.234 68.1328L541.211 39.7734C541.562 38.0938 541.543 36.9023 541.152 36.1992C540.762 35.457 539.863 34.8516 538.457 34.3828L535.527 33.5625L535.879 31.8047L558.613 29.2266ZM614.746 87.9961C609.902 87.957 606.348 86.2969 604.082 83.0156C601.855 79.7344 601.406 74.9688 602.734 68.7188L609.824 34.9102H602.969L603.32 33.2695L610.645 31.2773L613.047 19.6758L628.75 17.3906L625.762 31.8633L639.648 30.9258L638.828 34.9102L625.234 34.1484L617.559 70.3594C616.738 74.1484 616.836 76.9219 617.852 78.6797C618.867 80.4375 620.684 81.3164 623.301 81.3164C624.902 81.3164 626.348 81.0234 627.637 80.4375C628.965 79.8516 630.059 79.0508 630.918 78.0352L630.566 79.9688C629.629 81.6484 628.32 83.0938 626.641 84.3047C625 85.4766 623.145 86.375 621.074 87C619.043 87.6641 616.934 87.9961 614.746 87.9961ZM652.832 87.9961C647.988 87.957 644.434 86.2969 642.168 83.0156C639.941 79.7344 639.492 74.9688 640.82 68.7188L647.91 34.9102H641.055L641.406 33.2695L648.73 31.2773L651.133 19.6758L666.836 17.3906L663.848 31.8633L677.734 30.9258L676.914 34.9102L663.32 34.1484L655.645 70.3594C654.824 74.1484 654.922 76.9219 655.938 78.6797C656.953 80.4375 658.77 81.3164 661.387 81.3164C662.988 81.3164 664.434 81.0234 665.723 80.4375C667.051 79.8516 668.145 79.0508 669.004 78.0352L668.652 79.9688C667.715 81.6484 666.406 83.0938 664.727 84.3047C663.086 85.4766 661.23 86.375 659.16 87C657.129 87.6641 655.02 87.9961 652.832 87.9961ZM698.535 88.0547C694.551 88.0547 690.898 87.1367 687.578 85.3008C684.258 83.4648 681.602 80.7695 679.609 77.2148C677.656 73.6602 676.68 69.3438 676.68 64.2656C676.68 59.3047 677.461 54.6953 679.023 50.4375C680.586 46.1406 682.773 42.3711 685.586 39.1289C688.398 35.8867 691.68 33.3672 695.43 31.5703C699.219 29.7344 703.32 28.8164 707.734 28.8164C712.852 28.8164 716.914 29.8516 719.922 31.9219C722.93 33.9922 724.434 36.8242 724.434 40.418C724.434 43.2695 723.438 45.8281 721.445 48.0938C719.453 50.3203 716.328 52.3906 712.07 54.3047C707.852 56.1797 702.402 58.0742 695.723 59.9883L691.035 61.3359L691.094 59.3438L695.488 57.9375C698.184 57.0781 700.605 55.9258 702.754 54.4805C704.902 53.0352 706.719 51.4141 708.203 49.6172C709.688 47.7812 710.801 45.8281 711.543 43.7578C712.324 41.6875 712.715 39.5977 712.715 37.4883C712.715 35.5352 712.305 33.9922 711.484 32.8594C710.664 31.7266 709.297 31.1602 707.383 31.1602C705 31.1602 702.871 32.0977 700.996 33.9727C699.16 35.8086 697.578 38.25 696.25 41.2969C694.961 44.3438 693.965 47.7227 693.262 51.4336C692.598 55.1055 692.266 58.8164 692.266 62.5664C692.266 67.0195 692.871 70.6719 694.082 73.5234C695.332 76.375 697.031 78.5039 699.18 79.9102C701.328 81.2773 703.75 81.9609 706.445 81.9609C708.984 81.9609 711.387 81.4336 713.652 80.3789C715.918 79.2852 717.754 77.957 719.16 76.3945L718.809 78.3867C717.598 80.1836 715.977 81.8047 713.945 83.25C711.914 84.6953 709.59 85.8672 706.973 86.7656C704.355 87.625 701.543 88.0547 698.535 88.0547ZM754.785 29.2266L750.801 48.0938C753.379 43.3672 755.625 39.6172 757.539 36.8438C759.453 34.0703 761.23 32.0977 762.871 30.9258C764.551 29.7148 766.27 29.1094 768.027 29.1094C770.02 29.1094 771.504 29.7539 772.48 31.043C773.457 32.332 773.945 34.0117 773.945 36.082C773.945 37.1758 773.77 38.2305 773.418 39.2461C773.105 40.2227 772.773 40.9648 772.422 41.4727C771.875 41.2383 771.133 41.043 770.195 40.8867C769.258 40.7305 768.184 40.6523 766.973 40.6523C763.613 40.6523 760.449 41.5312 757.48 43.2891C754.551 45.0469 752.246 47.2344 750.566 49.8516L742.773 87H727.656L737.734 39.7734C738.086 38.0938 738.066 36.9023 737.676 36.1992C737.285 35.457 736.367 34.8516 734.922 34.3828L731.992 33.5625L732.402 31.8047L754.785 29.2266ZM773.359 87.9961C770.898 87.9961 768.848 87.1758 767.207 85.5352C765.605 83.8945 764.805 81.9414 764.805 79.6758C764.805 77.2539 765.645 75.2227 767.324 73.582C769.043 71.9023 771.113 71.0625 773.535 71.0625C775.957 71.0625 777.988 71.8633 779.629 73.4648C781.27 75.0664 782.09 77.0391 782.09 79.3828C782.09 80.9844 781.699 82.4492 780.918 83.7773C780.137 85.0664 779.082 86.1016 777.754 86.8828C776.426 87.625 774.961 87.9961 773.359 87.9961Z" fill="white"/>
</svg>
