<svg width="309" height="84" viewBox="0 0 309 84" fill="none" xmlns="http://www.w3.org/2000/svg">
<path d="M52.64 9.52L44.48 20.2C39.8 13.96 34.28 13.36 31.4 13.36C23 13.36 20.36 18.64 20.36 22.72C20.36 24.64 20.96 26.44 22.88 28.12C24.8 29.92 27.44 30.88 32.48 32.68C38.72 34.84 44.6 37 48.68 40.72C52.28 43.96 55.52 49.36 55.52 57.52C55.52 73.12 44.24 83.8 27.68 83.8C12.92 83.8 4.28 74.8 0.0800002 68.68L10.28 58.96C14.12 66.76 21.44 69.64 27.08 69.64C34.16 69.64 39.44 65.32 39.44 58.6C39.44 55.72 38.48 53.44 36.32 51.4C33.32 48.64 28.52 47.08 23.96 45.52C19.76 44.08 14.72 42.16 10.64 38.56C8 36.28 4.28 31.84 4.28 23.68C4.28 11.92 12.2 0.159995 29.96 0.159995C35 0.159995 44.48 1.12 52.64 9.52ZM66.8216 1.95999H90.1016C99.1016 1.95999 105.342 2.92 111.222 8.07999C117.702 13.84 119.382 21.64 119.382 27.4C119.382 30.52 118.902 39.16 112.782 45.28C108.342 49.72 101.742 52.36 92.5016 52.36H82.4216L82.4216 82H66.8216L66.8216 1.95999ZM82.4216 15.4V38.92H88.7816C91.7816 38.92 95.6216 38.92 98.9816 36.4C101.862 34.12 103.302 30.52 103.302 27.04C103.302 22.6 101.142 19.6 98.8616 17.92C95.6216 15.64 91.5416 15.4 87.8216 15.4H82.4216ZM172.923 1.95999V15.4L144.123 15.4V33.28H171.723V46.72H144.123V68.56H172.923V82H128.523V1.95999L172.923 1.95999ZM230.054 1.95999V15.4H201.254V33.28H228.854V46.72H201.254V68.56H230.054V82H185.654V1.95999H230.054ZM242.786 1.95999H263.666C274.826 1.95999 284.546 3.16 293.426 9.75999C303.146 17.08 308.786 28.72 308.786 42.04C308.786 55.36 303.266 66.88 292.706 74.32C283.346 80.92 274.586 82 263.426 82H242.786V1.95999ZM258.386 15.4V68.56H263.186C267.146 68.56 275.786 68.32 282.746 63.28C289.106 58.72 292.706 50.56 292.706 42.04C292.706 33.64 289.226 25.48 282.866 20.68C276.386 15.88 268.466 15.4 263.186 15.4H258.386Z" fill="black"/>
</svg>
