<svg width="1056" height="93" viewBox="0 0 1056 93" fill="none" xmlns="http://www.w3.org/2000/svg">
<mask id="path-1-outside-1_600_237" maskUnits="userSpaceOnUse" x="0.879883" y="0.339844" width="1055" height="93" fill="black">
<rect fill="white" x="0.879883" y="0.339844" width="1055" height="93"/>
<path d="M47.8999 3.28984V17.8498H18.7799V37.2198H46.0799V51.7799H18.7799V89.9998H1.87988V3.28984H47.8999ZM59.8365 3.28984H76.7365V75.4398H103.517V89.9998H59.8365V3.28984ZM174.401 89.9998L166.731 71.7999H131.761L124.091 89.9998H105.761L143.071 3.28984H156.331L192.601 89.9998H174.401ZM137.091 58.0198H161.791L149.441 26.8198L137.091 58.0198ZM242.481 17.8498H222.981V89.9998H206.081V17.8498H186.581V3.28984H242.481V17.8498ZM329.813 11.4798L320.973 23.0498C315.903 16.2898 309.923 15.6398 306.803 15.6398C297.703 15.6398 294.843 21.3598 294.843 25.7798C294.843 27.8598 295.493 29.8098 297.573 31.6298C299.653 33.5798 302.513 34.6198 307.973 36.5698C314.733 38.9098 321.103 41.2498 325.523 45.2798C329.423 48.7898 332.933 54.6398 332.933 63.4798C332.933 80.3798 320.713 91.9499 302.773 91.9499C286.783 91.9499 277.423 82.1998 272.873 75.5698L283.923 65.0398C288.083 73.4898 296.013 76.6098 302.123 76.6098C309.793 76.6098 315.513 71.9298 315.513 64.6498C315.513 61.5298 314.473 59.0598 312.133 56.8498C308.883 53.8598 303.683 52.1698 298.743 50.4798C294.193 48.9198 288.733 46.8398 284.313 42.9398C281.453 40.4698 277.423 35.6598 277.423 26.8198C277.423 14.0798 286.003 1.33984 305.243 1.33984C310.703 1.33984 320.973 2.37985 329.813 11.4798ZM345.176 3.28984H362.076V57.7598C362.076 64.3898 364.286 68.4199 366.236 70.6299C368.706 73.6199 373.256 76.6098 380.016 76.6098C386.776 76.6098 391.326 73.6199 393.796 70.6299C395.746 68.4199 397.956 64.3898 397.956 57.7598V3.28984H414.856V56.3298C414.856 64.5198 413.556 72.8398 408.356 79.4698C402.116 87.6598 391.196 91.9499 380.016 91.9499C368.836 91.9499 357.916 87.6598 351.676 79.4698C346.476 72.8398 345.176 64.5198 345.176 56.3298V3.28984ZM432.078 3.28984H457.168C469.128 3.28984 475.238 6.40985 479.268 9.78984C485.898 15.3798 487.848 22.7898 487.848 29.2898C487.848 37.7398 484.468 45.1498 477.708 49.6998C475.498 51.2598 472.378 52.6899 468.218 53.4698L495.258 89.9998H474.198L451.058 55.1598H448.978V89.9998H432.078V3.28984ZM448.978 17.0698V43.1998H453.788C457.038 43.1998 470.428 42.8098 470.428 30.0698C470.428 17.1998 457.168 17.0698 454.048 17.0698H448.978ZM550.147 3.28984V17.8498H521.027V37.2198H548.327V51.7799H521.027V89.9998H504.127V3.28984H550.147ZM611.455 89.9998L603.785 71.7999H568.815L561.145 89.9998H542.815L580.125 3.28984H593.385L629.655 89.9998H611.455ZM574.145 58.0198H598.845L586.495 26.8198L574.145 58.0198ZM697.306 67.1199V86.8799C692.106 89.6099 685.216 91.9499 675.856 91.9499C660.646 91.9499 651.416 86.7498 644.136 79.8598C634.126 70.2398 630.226 59.4498 630.226 46.7099C630.226 30.9798 636.726 19.6698 644.136 12.7798C652.846 4.58985 663.636 1.33984 675.986 1.33984C682.096 1.33984 689.376 2.37985 697.306 6.66984V26.4298C689.376 17.3298 679.496 16.6798 676.376 16.6798C658.956 16.6798 647.646 30.9798 647.646 46.9698C647.646 66.2098 662.466 76.6098 677.026 76.6098C685.086 76.6098 692.236 73.0999 697.306 67.1199ZM758.343 3.28984V17.8498H727.143V37.2198H757.043V51.7799H727.143V75.4398H758.343V89.9998H710.243V3.28984H758.343ZM845.897 3.28984V17.8498H816.777V37.2198H844.077V51.7799H816.777V89.9998H799.877V3.28984H845.897ZM907.205 89.9998L899.535 71.7999H864.565L856.895 89.9998H838.565L875.875 3.28984H889.135L925.405 89.9998H907.205ZM869.895 58.0198H894.595L882.245 26.8198L869.895 58.0198ZM993.056 67.1199V86.8799C987.856 89.6099 980.966 91.9499 971.606 91.9499C956.396 91.9499 947.166 86.7498 939.886 79.8598C929.876 70.2398 925.976 59.4498 925.976 46.7099C925.976 30.9798 932.476 19.6698 939.886 12.7798C948.596 4.58985 959.386 1.33984 971.736 1.33984C977.846 1.33984 985.126 2.37985 993.056 6.66984V26.4298C985.126 17.3298 975.246 16.6798 972.126 16.6798C954.706 16.6798 943.396 30.9798 943.396 46.9698C943.396 66.2098 958.216 76.6098 972.776 76.6098C980.836 76.6098 987.986 73.0999 993.056 67.1199ZM1054.09 3.28984V17.8498H1022.89V37.2198H1052.79V51.7799H1022.89V75.4398H1054.09V89.9998H1005.99V3.28984H1054.09Z"/>
</mask>
<path d="M47.8999 3.28984V17.8498H18.7799V37.2198H46.0799V51.7799H18.7799V89.9998H1.87988V3.28984H47.8999ZM59.8365 3.28984H76.7365V75.4398H103.517V89.9998H59.8365V3.28984ZM174.401 89.9998L166.731 71.7999H131.761L124.091 89.9998H105.761L143.071 3.28984H156.331L192.601 89.9998H174.401ZM137.091 58.0198H161.791L149.441 26.8198L137.091 58.0198ZM242.481 17.8498H222.981V89.9998H206.081V17.8498H186.581V3.28984H242.481V17.8498ZM329.813 11.4798L320.973 23.0498C315.903 16.2898 309.923 15.6398 306.803 15.6398C297.703 15.6398 294.843 21.3598 294.843 25.7798C294.843 27.8598 295.493 29.8098 297.573 31.6298C299.653 33.5798 302.513 34.6198 307.973 36.5698C314.733 38.9098 321.103 41.2498 325.523 45.2798C329.423 48.7898 332.933 54.6398 332.933 63.4798C332.933 80.3798 320.713 91.9499 302.773 91.9499C286.783 91.9499 277.423 82.1998 272.873 75.5698L283.923 65.0398C288.083 73.4898 296.013 76.6098 302.123 76.6098C309.793 76.6098 315.513 71.9298 315.513 64.6498C315.513 61.5298 314.473 59.0598 312.133 56.8498C308.883 53.8598 303.683 52.1698 298.743 50.4798C294.193 48.9198 288.733 46.8398 284.313 42.9398C281.453 40.4698 277.423 35.6598 277.423 26.8198C277.423 14.0798 286.003 1.33984 305.243 1.33984C310.703 1.33984 320.973 2.37985 329.813 11.4798ZM345.176 3.28984H362.076V57.7598C362.076 64.3898 364.286 68.4199 366.236 70.6299C368.706 73.6199 373.256 76.6098 380.016 76.6098C386.776 76.6098 391.326 73.6199 393.796 70.6299C395.746 68.4199 397.956 64.3898 397.956 57.7598V3.28984H414.856V56.3298C414.856 64.5198 413.556 72.8398 408.356 79.4698C402.116 87.6598 391.196 91.9499 380.016 91.9499C368.836 91.9499 357.916 87.6598 351.676 79.4698C346.476 72.8398 345.176 64.5198 345.176 56.3298V3.28984ZM432.078 3.28984H457.168C469.128 3.28984 475.238 6.40985 479.268 9.78984C485.898 15.3798 487.848 22.7898 487.848 29.2898C487.848 37.7398 484.468 45.1498 477.708 49.6998C475.498 51.2598 472.378 52.6899 468.218 53.4698L495.258 89.9998H474.198L451.058 55.1598H448.978V89.9998H432.078V3.28984ZM448.978 17.0698V43.1998H453.788C457.038 43.1998 470.428 42.8098 470.428 30.0698C470.428 17.1998 457.168 17.0698 454.048 17.0698H448.978ZM550.147 3.28984V17.8498H521.027V37.2198H548.327V51.7799H521.027V89.9998H504.127V3.28984H550.147ZM611.455 89.9998L603.785 71.7999H568.815L561.145 89.9998H542.815L580.125 3.28984H593.385L629.655 89.9998H611.455ZM574.145 58.0198H598.845L586.495 26.8198L574.145 58.0198ZM697.306 67.1199V86.8799C692.106 89.6099 685.216 91.9499 675.856 91.9499C660.646 91.9499 651.416 86.7498 644.136 79.8598C634.126 70.2398 630.226 59.4498 630.226 46.7099C630.226 30.9798 636.726 19.6698 644.136 12.7798C652.846 4.58985 663.636 1.33984 675.986 1.33984C682.096 1.33984 689.376 2.37985 697.306 6.66984V26.4298C689.376 17.3298 679.496 16.6798 676.376 16.6798C658.956 16.6798 647.646 30.9798 647.646 46.9698C647.646 66.2098 662.466 76.6098 677.026 76.6098C685.086 76.6098 692.236 73.0999 697.306 67.1199ZM758.343 3.28984V17.8498H727.143V37.2198H757.043V51.7799H727.143V75.4398H758.343V89.9998H710.243V3.28984H758.343ZM845.897 3.28984V17.8498H816.777V37.2198H844.077V51.7799H816.777V89.9998H799.877V3.28984H845.897ZM907.205 89.9998L899.535 71.7999H864.565L856.895 89.9998H838.565L875.875 3.28984H889.135L925.405 89.9998H907.205ZM869.895 58.0198H894.595L882.245 26.8198L869.895 58.0198ZM993.056 67.1199V86.8799C987.856 89.6099 980.966 91.9499 971.606 91.9499C956.396 91.9499 947.166 86.7498 939.886 79.8598C929.876 70.2398 925.976 59.4498 925.976 46.7099C925.976 30.9798 932.476 19.6698 939.886 12.7798C948.596 4.58985 959.386 1.33984 971.736 1.33984C977.846 1.33984 985.126 2.37985 993.056 6.66984V26.4298C985.126 17.3298 975.246 16.6798 972.126 16.6798C954.706 16.6798 943.396 30.9798 943.396 46.9698C943.396 66.2098 958.216 76.6098 972.776 76.6098C980.836 76.6098 987.986 73.0999 993.056 67.1199ZM1054.09 3.28984V17.8498H1022.89V37.2198H1052.79V51.7799H1022.89V75.4398H1054.09V89.9998H1005.99V3.28984H1054.09Z" stroke="white" stroke-width="2" mask="url(#path-1-outside-1_600_237)"/>
</svg>
