<svg width="517" height="126" viewBox="0 0 517 126" fill="none" xmlns="http://www.w3.org/2000/svg">
<path d="M78.96 14.28L66.72 30.3C59.7 20.94 51.42 20.04 47.1 20.04C34.5 20.04 30.54 27.96 30.54 34.08C30.54 36.96 31.44 39.66 34.32 42.18C37.2 44.88 41.16 46.32 48.72 49.02C58.08 52.26 66.9 55.5 73.02 61.08C78.42 65.94 83.28 74.04 83.28 86.28C83.28 109.68 66.36 125.7 41.52 125.7C19.38 125.7 6.42 112.2 0.12 103.02L15.42 88.44C21.18 100.14 32.16 104.46 40.62 104.46C51.24 104.46 59.16 97.98 59.16 87.9C59.16 83.58 57.72 80.16 54.48 77.1C49.98 72.96 42.78 70.62 35.94 68.28C29.64 66.12 22.08 63.24 15.96 57.84C12 54.42 6.42 47.76 6.42 35.52C6.42 17.88 18.3 0.239993 44.94 0.239993C52.5 0.239993 66.72 1.68 78.96 14.28ZM166.832 2.93999V23.1H123.632V49.92H165.032V70.08H123.632V102.84H166.832V123H100.232V2.93999H166.832ZM185.929 2.93999H209.329V102.84H246.409V123H185.929V2.93999ZM325.57 2.93999V23.1H282.37V49.92H323.77V70.08H282.37V102.84H325.57V123H258.97V2.93999H325.57ZM431.787 91.32V118.68C424.587 122.46 415.047 125.7 402.087 125.7C381.027 125.7 368.247 118.5 358.167 108.96C344.307 95.64 338.907 80.7 338.907 63.06C338.907 41.28 347.907 25.62 358.167 16.08C370.227 4.74 385.167 0.239993 402.267 0.239993C410.727 0.239993 420.807 1.68 431.787 7.61999V34.98C420.807 22.38 407.127 21.48 402.807 21.48C378.687 21.48 363.027 41.28 363.027 63.42C363.027 90.06 383.547 104.46 403.707 104.46C414.867 104.46 424.767 99.6 431.787 91.32ZM516.433 23.1H489.433V123H466.033V23.1H439.033V2.93999H516.433V23.1Z" fill="white"/>
</svg>
