<svg width="277" height="88" viewBox="0 0 277 88" fill="none" xmlns="http://www.w3.org/2000/svg">
<path d="M0.414062 47.9141C0.453125 40.6484 1.625 34.0859 3.92969 28.2266C6.27344 22.3672 9.53516 17.3672 13.7148 13.2266C17.8945 9.04688 22.7969 5.84375 28.4219 3.61719C34.0469 1.39062 40.1797 0.277344 46.8203 0.277344C51 0.277344 54.8867 0.648437 58.4805 1.39062C62.1133 2.09375 65.3359 3.03125 68.1484 4.20312C71 5.33594 73.3242 6.56641 75.1211 7.89453L71.4297 27.7578L69.9062 27.6406C69.75 21.7422 68.8125 16.9766 67.0938 13.3438C65.4141 9.71094 63.0703 7.05469 60.0625 5.375C57.0938 3.69531 53.5781 2.85547 49.5156 2.85547C45.5312 2.85547 41.8203 3.69531 38.3828 5.375C34.9453 7.01562 31.8398 9.35938 29.0664 12.4062C26.332 15.4141 23.9883 18.9883 22.0352 23.1289C20.1211 27.2305 18.6367 31.7617 17.582 36.7227C16.5664 41.6445 16.0586 46.8203 16.0586 52.25C16.0586 58.8906 17.0547 64.6523 19.0469 69.5352C21.0781 74.3789 23.8711 78.1094 27.4258 80.7266C30.9805 83.3047 35.0625 84.5938 39.6719 84.5938C41.9766 84.5938 44.3008 84.3398 46.6445 83.832C48.9883 83.2852 50.9023 82.3477 52.3867 81.0195L51.4492 82.4844L57.0742 55.707C57.4258 54.0664 57.5234 52.7773 57.3672 51.8398C57.25 50.8633 56.6836 50.1211 55.668 49.6133C54.6523 49.0664 52.9922 48.6367 50.6875 48.3242L51.0391 46.625H78.9297L78.5781 48.3242C76.5859 48.5977 75.0234 49.0078 73.8906 49.5547C72.7969 50.0625 71.9766 50.8047 71.4297 51.7812C70.8828 52.7578 70.4336 54.0859 70.082 55.7656L64.8672 79.7305C63.3047 80.9023 61.5078 81.957 59.4766 82.8945C57.4453 83.832 55.2773 84.6133 52.9727 85.2383C50.668 85.8633 48.2656 86.332 45.7656 86.6445C43.2656 86.9961 40.7656 87.1719 38.2656 87.1719C33.4609 87.1719 28.793 86.3125 24.2617 84.5938C19.7695 82.875 15.707 80.3555 12.0742 77.0352C8.48047 73.7148 5.62891 69.6133 3.51953 64.7305C1.41016 59.8477 0.375 54.2422 0.414062 47.9141ZM106.703 28.6367L102.895 46.5664C105.59 42.0352 107.895 38.4609 109.809 35.8438C111.723 33.2266 113.48 31.3711 115.082 30.2773C116.684 29.1445 118.324 28.5781 120.004 28.5781C121.84 28.5781 123.207 29.1641 124.105 30.3359C125.043 31.4688 125.512 32.9727 125.512 34.8477C125.512 35.8242 125.355 36.7422 125.043 37.6016C124.77 38.4609 124.457 39.125 124.105 39.5938C123.637 39.3594 122.973 39.1836 122.113 39.0664C121.254 38.9102 120.238 38.832 119.066 38.832C115.824 38.832 112.719 39.7305 109.75 41.5273C106.82 43.3242 104.477 45.5703 102.719 48.2656L94.8086 86H81.625L91.7031 38.6562C92.0547 37.0938 92.0352 35.9609 91.6445 35.2578C91.293 34.5547 90.375 33.9688 88.8906 33.5L85.8438 32.7383L86.1953 31.0391L106.703 28.6367ZM146.605 86.9961C142.738 86.9961 139.203 86.1172 136 84.3594C132.797 82.5625 130.238 79.9258 128.324 76.4492C126.449 72.9336 125.512 68.6562 125.512 63.6172C125.512 58.6953 126.273 54.1055 127.797 49.8477C129.32 45.5508 131.43 41.7812 134.125 38.5391C136.859 35.2969 140.043 32.7773 143.676 30.9805C147.309 29.1445 151.234 28.2266 155.453 28.2266C160.258 28.2266 164.086 29.2422 166.938 31.2734C169.828 33.2656 171.273 36.0195 171.273 39.5352C171.273 42.3867 170.258 44.9453 168.227 47.2109C166.234 49.4766 163.129 51.5859 158.91 53.5391C154.691 55.4531 149.262 57.3672 142.621 59.2812L137.816 60.6875L137.992 58.8125L142.445 57.3477C145.336 56.4102 147.914 55.2383 150.18 53.832C152.445 52.4258 154.359 50.8438 155.922 49.0859C157.484 47.2891 158.676 45.375 159.496 43.3438C160.355 41.2734 160.785 39.1445 160.785 36.957C160.785 34.9258 160.336 33.3438 159.438 32.2109C158.578 31.0391 157.133 30.4531 155.102 30.4531C152.602 30.4531 150.355 31.3906 148.363 33.2656C146.371 35.1406 144.691 37.6406 143.324 40.7656C141.957 43.8516 140.902 47.2695 140.16 51.0195C139.457 54.7695 139.105 58.5195 139.105 62.2695C139.105 66.6445 139.711 70.2578 140.922 73.1094C142.133 75.9609 143.812 78.0898 145.961 79.4961C148.109 80.9023 150.551 81.6055 153.285 81.6055C155.824 81.6055 158.246 81.0586 160.551 79.9648C162.855 78.8711 164.75 77.543 166.234 75.9805L165.824 77.8555C164.652 79.5742 163.09 81.1367 161.137 82.543C159.223 83.9102 157.016 85.0039 154.516 85.8242C152.055 86.6055 149.418 86.9961 146.605 86.9961ZM176.254 66.3125C176.254 61.4297 176.938 56.7227 178.305 52.1914C179.672 47.6211 181.625 43.5391 184.164 39.9453C186.742 36.3516 189.809 33.5 193.363 31.3906C196.957 29.2812 200.98 28.2266 205.434 28.2266C209.301 28.2266 212.25 28.9492 214.281 30.3945C216.352 31.8398 217.66 33.3828 218.207 35.0234L225.062 29.2227H231.918L222.016 75.3359C221.586 77.3281 221.684 78.7734 222.309 79.6719C222.934 80.5703 223.91 81.0195 225.238 81.0195C226.254 81.0195 227.328 80.8242 228.461 80.4336C229.594 80.0039 230.551 79.418 231.332 78.6758L230.98 80.4922C229.691 82.3281 227.719 83.8516 225.062 85.0625C222.406 86.2734 219.672 86.8789 216.859 86.8789C213.852 86.8789 211.645 85.9609 210.238 84.125C208.832 82.2891 208.5 79.3984 209.242 75.4531C209.359 74.6719 209.516 73.7734 209.711 72.7578C209.945 71.7422 210.141 70.8438 210.297 70.0625C208.617 75.5312 206.098 79.7305 202.738 82.6602C199.418 85.5508 195.648 86.9961 191.43 86.9961C188.383 86.9961 185.707 86.1367 183.402 84.418C181.137 82.6992 179.379 80.2773 178.129 77.1523C176.879 74.0273 176.254 70.4141 176.254 66.3125ZM189.906 68.1289C189.906 72.9727 190.57 76.4297 191.898 78.5C193.266 80.5703 195.16 81.6055 197.582 81.6055C200.238 81.6055 202.797 80.1992 205.258 77.3867C207.758 74.5742 209.633 70.668 210.883 65.668L217.035 36.6641C216.605 35.2969 215.688 34.125 214.281 33.1484C212.875 32.1719 211.098 31.6836 208.949 31.6836C206.371 31.6836 204.066 32.4258 202.035 33.9102C200.043 35.3945 198.285 37.4258 196.762 40.0039C195.238 42.543 193.969 45.3945 192.953 48.5586C191.938 51.7227 191.176 55.0039 190.668 58.4023C190.16 61.7617 189.906 65.0039 189.906 68.1289ZM253.012 86.9375C248.48 86.8984 245.141 85.2969 242.992 82.1328C240.883 78.9297 240.453 74.3398 241.703 68.3633L248.91 34.0273H241.938L242.23 32.4453L249.73 30.5703L252.133 18.9102L265.785 16.8008L262.797 31.1562L276.977 30.2773L276.156 34.0273L262.328 33.3242L254.594 69.8281C253.734 73.7344 253.812 76.6055 254.828 78.4414C255.844 80.2383 257.68 81.1367 260.336 81.1367C261.977 81.1367 263.461 80.8242 264.789 80.1992C266.156 79.5742 267.27 78.7344 268.129 77.6797L267.777 79.4961C266.879 81.0586 265.648 82.4062 264.086 83.5391C262.562 84.6328 260.844 85.4727 258.93 86.0586C257.055 86.6445 255.082 86.9375 253.012 86.9375Z" fill="#AF001B"/>
</svg>
