<svg width="634" height="77" viewBox="0 0 634 77" fill="none" xmlns="http://www.w3.org/2000/svg">
<path d="M0.710547 5.29999H11.7105L30.3105 51.8L48.9105 5.29999H59.9105L30.3105 76.3L0.710547 5.29999ZM94.7441 4.1C114.744 4.1 129.444 19.1 129.444 38.7C129.444 58.3 114.744 73.3 94.7441 73.3C74.7441 73.3 60.0441 58.3 60.0441 38.7C60.0441 19.1 74.7441 4.1 94.7441 4.1ZM94.7441 63.9C109.044 63.9 119.244 53.5 119.244 38.7C119.244 23.9 109.044 13.5 94.7441 13.5C80.4441 13.5 70.2441 23.9 70.2441 38.7C70.2441 53.5 80.4441 63.9 94.7441 63.9ZM150.448 5.29999V31.9L176.248 5.29999H189.648L159.548 35.5L189.848 72H176.248L152.448 42.4L150.448 44.4V72H140.248V5.29999H150.448ZM233.642 5.29999V14.9H207.042V31.8H232.842V41.4H207.042V62.4H233.642V72H196.842V5.29999H233.642ZM258.742 72V43.2L236.842 5.29999H248.442L263.842 32L279.242 5.29999H290.842L268.942 43.2V72H258.742ZM318.186 5.29999H332.186C341.486 5.29999 349.586 6.3 356.986 11.8C365.086 17.9 369.786 27.6 369.786 38.7C369.786 49.8 365.186 59.4 356.386 65.6C348.586 71.1 341.286 72 331.986 72H318.186V5.29999ZM328.386 14.9V62.4H332.786C337.786 62.4 344.686 62 350.486 57.7C355.086 54.2 359.586 47.8 359.586 38.7C359.586 29.9 355.386 23 350.586 19.5C344.786 15.3 337.686 14.9 332.786 14.9H328.386ZM417.341 5.29999V14.9H390.741V31.8H416.541V41.4H390.741V62.4H417.341V72H380.541V5.29999H417.341ZM465.541 15.3L457.341 20.1C456.741 18.6 455.841 17.2 454.341 15.9C452.241 14.2 450.041 13.5 447.141 13.5C440.941 13.5 437.741 17.2 437.741 21.5C437.741 23.5 438.441 27 444.941 29.6L451.641 32.3C463.941 37.3 467.341 44.3 467.341 51.9C467.341 64.6 458.341 73.3 445.841 73.3C438.141 73.3 433.541 70.4 430.141 66.6C426.541 62.6 424.941 58.2 424.541 53.6L434.641 51.4C434.641 54.7 435.841 57.8 437.441 59.9C439.341 62.3 442.141 63.9 446.141 63.9C452.341 63.9 457.141 59.4 457.141 52.7C457.141 45.9 451.941 43.1 447.541 41.3L441.141 38.6C435.641 36.3 427.541 31.7 427.541 21.7C427.541 12.7 434.541 4.1 447.041 4.1C454.241 4.1 458.341 6.8 460.441 8.6C462.241 10.2 464.141 12.5 465.541 15.3ZM478.104 5.29999H488.304V72H478.104V5.29999ZM536.775 46.7V37.3H564.275V37.8C564.275 49.2 560.875 58.5 554.375 64.8C547.475 71.5 539.275 73.3 531.675 73.3C521.975 73.3 515.075 70.5 508.975 64.2C502.475 57.5 499.075 48.6 499.075 39C499.075 28.6 503.275 19.6 508.775 14.1C514.475 8.3 523.575 4.1 533.875 4.1C539.875 4.1 546.075 5.4 551.275 8.3C556.775 11.4 560.175 15.3 562.075 18.3L553.975 24C551.975 21.2 548.975 18.2 545.775 16.4C542.075 14.2 538.075 13.5 533.975 13.5C525.275 13.5 519.675 17.1 516.375 20.4C511.975 24.8 509.275 31.9 509.275 39.1C509.275 45.8 511.775 52.5 516.175 57.2C520.775 62.1 526.475 63.9 532.875 63.9C538.675 63.9 543.475 62.2 547.775 58C551.475 54.4 552.975 50.5 553.375 46.7H536.775ZM585.28 72H575.08V0.799999L623.48 51.5V5.29999H633.68V76.1L585.28 25.4V72Z" fill="white"/>
</svg>
