<svg width="206" height="106" viewBox="0 0 206 106" fill="none" xmlns="http://www.w3.org/2000/svg">
<path d="M86.0801 0.238281L82.418 24.335H81.1729C80.9775 18.6221 80.1963 14.252 78.8291 11.2246C77.4619 8.14844 75.0938 5.97559 71.7246 4.70605C68.3555 3.3877 63.4971 2.50879 57.1494 2.06934L53.1943 1.77637L33.2725 95.4531C32.833 97.6016 32.7354 99.2861 32.9795 100.507C33.2725 101.679 34.127 102.582 35.543 103.217C37.0078 103.803 39.2783 104.291 42.3545 104.682L42.1348 106H6.02637L6.31934 104.682C9.44434 104.34 11.8125 103.876 13.4238 103.29C15.084 102.655 16.3047 101.728 17.0859 100.507C17.916 99.2861 18.5508 97.6016 18.9902 95.4531L38.8389 1.77637L34.8105 2.06934C28.0234 2.50879 22.6035 3.48535 18.5508 4.99902C14.498 6.46387 11.2266 8.75879 8.73633 11.8838C6.29492 14.96 4 19.1104 1.85156 24.335H0.606445L6.53906 0.238281L86.0801 0.238281ZM125.704 106H121.676L105.489 8.88086H105.929L88.2773 86.957C87.4961 90.1797 86.9834 92.8652 86.7393 95.0137C86.5439 97.1621 86.666 98.8955 87.1055 100.214C87.5938 101.483 88.4727 102.46 89.7422 103.144C91.0605 103.778 92.8428 104.291 95.0889 104.682L94.8691 106H70.1865L70.4062 104.682C73.2383 104.145 75.4844 103.339 77.1445 102.265C78.8047 101.142 80.1719 99.4082 81.2461 97.0645C82.3691 94.6719 83.4678 91.3027 84.542 86.957L102.853 13.9346C103.536 11.249 103.78 9.07617 103.585 7.41602C103.438 5.70703 102.828 4.41309 101.754 3.53418C100.68 2.60645 99.0928 1.94727 96.9932 1.55664L97.2861 0.238281L119.112 0.238281L133.321 90.3994H132.882L181.954 0.238281L205.318 0.238281L205.025 1.55664C202.584 1.99609 200.68 2.5332 199.312 3.16797C197.994 3.80273 196.993 4.73047 196.31 5.95117C195.675 7.12305 195.162 8.73437 194.771 10.7852L179.61 95.4531C179.269 97.6504 179.171 99.335 179.317 100.507C179.513 101.679 180.172 102.558 181.295 103.144C182.467 103.729 184.273 104.242 186.715 104.682L186.422 106H154.342L154.562 104.682C157.149 104.291 159.151 103.803 160.567 103.217C161.983 102.631 163.033 101.752 163.717 100.58C164.449 99.3594 165.011 97.6504 165.401 95.4531L180.855 8.88086L181.295 8.9541L134.713 90.3994L125.704 106Z" fill="#E6E6E6"/>
</svg>
