<svg width="299" height="38" viewBox="0 0 299 38" fill="none" xmlns="http://www.w3.org/2000/svg">
<path d="M16.4111 35.7061C17.5667 35.7061 18.6491 35.5352 19.6582 35.1934C20.6673 34.8353 21.6113 34.3063 22.4902 33.6064C23.3854 32.9066 24.1992 32.0277 24.9316 30.9697C25.6641 29.9118 26.3232 28.6748 26.9092 27.2588H28.0811L26.4697 34.8516C25.4118 35.6654 23.9551 36.3327 22.0996 36.8535C20.2441 37.3581 18.2178 37.6104 16.0205 37.6104C13.8395 37.6104 11.8132 37.2441 9.94141 36.5117C8.06966 35.763 6.42578 34.6807 5.00977 33.2646C3.61003 31.8324 2.51953 30.099 1.73828 28.0645C0.957031 26.0299 0.574544 23.7188 0.59082 21.1309C0.59082 18.2174 1.04655 15.54 1.95801 13.0986C2.86947 10.6572 4.16341 8.54948 5.83984 6.77539C7.51628 4.98503 9.50195 3.60156 11.7969 2.625C14.1081 1.63216 16.6553 1.13574 19.4385 1.13574C21.2614 1.13574 22.9622 1.31478 24.541 1.67285C26.1361 2.03092 27.5358 2.49479 28.7402 3.06445C29.9609 3.63411 30.9375 4.22819 31.6699 4.84668L30.2783 12.3662L29.1309 12.2686C29.0658 10.1364 28.6751 8.39486 27.959 7.04395C27.2591 5.67676 26.2663 4.66764 24.9805 4.0166C23.6947 3.34928 22.1403 3.01562 20.3174 3.01562C18.7061 3.01562 17.1761 3.30859 15.7275 3.89453C14.2952 4.48047 12.985 5.33496 11.7969 6.45801C10.625 7.56478 9.60775 8.89941 8.74512 10.4619C7.88249 12.0081 7.22331 13.7578 6.76758 15.7109C6.31185 17.6478 6.08398 19.7474 6.08398 22.0098C6.08398 24.6139 6.5153 26.9495 7.37793 29.0166C8.24056 31.0837 9.45312 32.7194 11.0156 33.9238C12.5781 35.112 14.3766 35.7061 16.4111 35.7061ZM45.0977 0.793945L40.8984 19.6416C41.5658 18.0303 42.3551 16.6956 43.2666 15.6377C44.1781 14.5798 45.179 13.7985 46.2695 13.2939C47.36 12.7894 48.4912 12.5371 49.6631 12.5371C51.8766 12.5371 53.4635 13.2451 54.4238 14.6611C55.3841 16.0609 55.5957 18.0384 55.0586 20.5938L52.4463 32.6543C52.2998 33.3379 52.3324 33.8669 52.5439 34.2412C52.7555 34.5993 53.138 34.7783 53.6914 34.7783C54.0983 34.7783 54.5866 34.6969 55.1562 34.5342C55.7259 34.3551 56.2305 34.0703 56.6699 33.6797L56.377 35.0713C55.8724 35.7549 55.083 36.3083 54.0088 36.7314C52.9346 37.1546 51.901 37.3662 50.9082 37.3662C49.6061 37.3662 48.6947 36.9593 48.1738 36.1455C47.653 35.3154 47.5798 34.0378 47.9541 32.3125L50.5176 20.2031C50.8757 18.5755 50.8105 17.3141 50.3223 16.4189C49.8503 15.5075 48.9714 15.0518 47.6855 15.0518C46.7253 15.0518 45.7487 15.3936 44.7559 16.0771C43.7793 16.7445 42.8923 17.6803 42.0947 18.8848C41.3135 20.0892 40.7357 21.4727 40.3613 23.0352L37.4072 37H32.8418L39.6045 5.18848C39.7184 4.61882 39.694 4.20378 39.5312 3.94336C39.3848 3.68294 39.0023 3.47949 38.3838 3.33301L36.4795 3.01562L36.7725 1.74609L45.0977 0.793945ZM70.0732 37.4883C68.1201 37.4883 66.4437 37.0244 65.0439 36.0967C63.6605 35.1689 62.6025 33.9076 61.8701 32.3125C61.1377 30.7174 60.7715 28.9271 60.7715 26.9414C60.7715 25.0534 61.0482 23.2549 61.6016 21.5459C62.1712 19.8206 62.9932 18.2826 64.0674 16.9316C65.1416 15.5645 66.4437 14.4902 67.9736 13.709C69.5199 12.9277 71.2695 12.5371 73.2227 12.5371C75.1758 12.5371 76.8441 13.001 78.2275 13.9287C79.6273 14.8402 80.6934 16.0934 81.4258 17.6885C82.1582 19.2835 82.5244 21.082 82.5244 23.084C82.5244 24.9557 82.2396 26.7542 81.6699 28.4795C81.1165 30.1885 80.2946 31.7266 79.2041 33.0938C78.1299 34.4447 76.8197 35.5189 75.2734 36.3164C73.7435 37.0977 72.0101 37.4883 70.0732 37.4883ZM70.1465 35.7549C71.1719 35.7549 72.0833 35.4782 72.8809 34.9248C73.6947 34.3714 74.4027 33.6146 75.0049 32.6543C75.6071 31.694 76.1035 30.6117 76.4941 29.4072C76.8848 28.1865 77.1777 26.9089 77.373 25.5742C77.5846 24.2396 77.6904 22.9294 77.6904 21.6436C77.7067 19.1859 77.3079 17.3467 76.4941 16.126C75.6803 14.889 74.5654 14.2705 73.1494 14.2705C72.124 14.2705 71.2044 14.5472 70.3906 15.1006C69.5768 15.654 68.8688 16.4108 68.2666 17.3711C67.6807 18.3151 67.1842 19.3975 66.7773 20.6182C66.3867 21.8226 66.0938 23.0921 65.8984 24.4268C65.7031 25.7614 65.5973 27.0798 65.5811 28.3818C65.5811 30.8232 65.9798 32.6624 66.7773 33.8994C67.5911 35.1364 68.7142 35.7549 70.1465 35.7549ZM96.4404 37.4883C94.4873 37.4883 92.8109 37.0244 91.4111 36.0967C90.0277 35.1689 88.9697 33.9076 88.2373 32.3125C87.5049 30.7174 87.1387 28.9271 87.1387 26.9414C87.1387 25.0534 87.4154 23.2549 87.9688 21.5459C88.5384 19.8206 89.3604 18.2826 90.4346 16.9316C91.5088 15.5645 92.8109 14.4902 94.3408 13.709C95.887 12.9277 97.6367 12.5371 99.5898 12.5371C101.543 12.5371 103.211 13.001 104.595 13.9287C105.994 14.8402 107.061 16.0934 107.793 17.6885C108.525 19.2835 108.892 21.082 108.892 23.084C108.892 24.9557 108.607 26.7542 108.037 28.4795C107.484 30.1885 106.662 31.7266 105.571 33.0938C104.497 34.4447 103.187 35.5189 101.641 36.3164C100.111 37.0977 98.3773 37.4883 96.4404 37.4883ZM96.5137 35.7549C97.5391 35.7549 98.4505 35.4782 99.248 34.9248C100.062 34.3714 100.77 33.6146 101.372 32.6543C101.974 31.694 102.471 30.6117 102.861 29.4072C103.252 28.1865 103.545 26.9089 103.74 25.5742C103.952 24.2396 104.058 22.9294 104.058 21.6436C104.074 19.1859 103.675 17.3467 102.861 16.126C102.048 14.889 100.933 14.2705 99.5166 14.2705C98.4912 14.2705 97.5716 14.5472 96.7578 15.1006C95.944 15.654 95.236 16.4108 94.6338 17.3711C94.0479 18.3151 93.5514 19.3975 93.1445 20.6182C92.7539 21.8226 92.4609 23.0921 92.2656 24.4268C92.0703 25.7614 91.9645 27.0798 91.9482 28.3818C91.9482 30.8232 92.347 32.6624 93.1445 33.8994C93.9583 35.1364 95.0814 35.7549 96.5137 35.7549ZM111.87 35.0225L112.969 29.0166H114.116C114.132 31.1976 114.661 32.8659 115.703 34.0215C116.761 35.1771 118.104 35.7549 119.731 35.7549C121.05 35.7549 122.108 35.4049 122.905 34.7051C123.719 33.9889 124.126 33.0531 124.126 31.8975C124.126 30.8883 123.898 30.0176 123.442 29.2852C123.003 28.5365 122.197 27.7796 121.025 27.0146L119.243 25.8184C117.827 24.8906 116.777 23.8896 116.094 22.8154C115.41 21.7249 115.068 20.5612 115.068 19.3242C115.068 18.0221 115.402 16.8665 116.069 15.8574C116.737 14.832 117.689 14.0264 118.926 13.4404C120.163 12.8382 121.636 12.5371 123.345 12.5371C124.94 12.5371 126.331 12.7161 127.52 13.0742C128.724 13.4323 129.66 13.8636 130.327 14.3682L129.058 20.374H127.91C127.959 19.251 127.812 18.2256 127.471 17.2979C127.129 16.3701 126.592 15.6296 125.859 15.0762C125.143 14.5228 124.215 14.2461 123.076 14.2461C121.823 14.2461 120.863 14.5798 120.195 15.2471C119.528 15.8981 119.194 16.7607 119.194 17.835C119.194 18.6976 119.43 19.4544 119.902 20.1055C120.374 20.7402 121.147 21.4076 122.222 22.1074L124.004 23.3281C125.599 24.3535 126.706 25.4115 127.324 26.502C127.959 27.5924 128.276 28.8213 128.276 30.1885C128.276 31.6696 127.861 32.9554 127.031 34.0459C126.217 35.1364 125.16 35.9827 123.857 36.585C122.572 37.1872 121.196 37.4883 119.731 37.4883C118.657 37.4883 117.616 37.3906 116.606 37.1953C115.614 37 114.71 36.7152 113.896 36.3408C113.083 35.9665 112.407 35.527 111.87 35.0225ZM142.29 37.4883C140.728 37.4883 139.271 37.1139 137.92 36.3652C136.585 35.6003 135.511 34.4772 134.697 32.9961C133.883 31.4987 133.477 29.6514 133.477 27.4541C133.477 25.3382 133.81 23.377 134.478 21.5703C135.145 19.7474 136.056 18.1605 137.212 16.8096C138.368 15.4587 139.678 14.4089 141.143 13.6602C142.624 12.9115 144.178 12.5371 145.806 12.5371C147.726 12.5371 149.272 12.9766 150.444 13.8555C151.616 14.7181 152.202 15.9144 152.202 17.4443C152.202 18.7627 151.706 19.9508 150.713 21.0088C149.72 22.0667 148.271 23.0352 146.367 23.9141C144.479 24.793 142.176 25.623 139.458 26.4043L137.09 27.0635L137.236 25.623L139.482 24.915C140.801 24.5244 141.989 24.0687 143.047 23.5479C144.121 23.0107 145.041 22.4167 145.806 21.7656C146.587 21.1146 147.181 20.4066 147.588 19.6416C147.995 18.8766 148.198 18.0628 148.198 17.2002C148.198 16.2399 147.979 15.5075 147.539 15.0029C147.116 14.4821 146.44 14.2217 145.513 14.2217C144.455 14.2217 143.478 14.5635 142.583 15.2471C141.704 15.9144 140.931 16.8421 140.264 18.0303C139.613 19.2021 139.108 20.5612 138.75 22.1074C138.392 23.6374 138.213 25.265 138.213 26.9902C138.213 28.7155 138.465 30.1722 138.97 31.3604C139.491 32.5485 140.207 33.4518 141.118 34.0703C142.046 34.6725 143.112 34.9736 144.316 34.9736C145.244 34.9736 146.229 34.7865 147.271 34.4121C148.328 34.0215 149.289 33.4193 150.151 32.6055L149.858 34.0459C149.289 34.7783 148.605 35.4049 147.808 35.9258C147.01 36.4303 146.139 36.8128 145.195 37.0732C144.251 37.3499 143.283 37.4883 142.29 37.4883ZM183.501 35.7061C184.657 35.7061 185.739 35.5352 186.748 35.1934C187.757 34.8353 188.701 34.3063 189.58 33.6064C190.475 32.9066 191.289 32.0277 192.021 30.9697C192.754 29.9118 193.413 28.6748 193.999 27.2588H195.171L193.56 34.8516C192.502 35.6654 191.045 36.3327 189.189 36.8535C187.334 37.3581 185.308 37.6104 183.11 37.6104C180.929 37.6104 178.903 37.2441 177.031 36.5117C175.16 35.763 173.516 34.6807 172.1 33.2646C170.7 31.8324 169.609 30.099 168.828 28.0645C168.047 26.0299 167.664 23.7188 167.681 21.1309C167.681 18.2174 168.136 15.54 169.048 13.0986C169.959 10.6572 171.253 8.54948 172.93 6.77539C174.606 4.98503 176.592 3.60156 178.887 2.625C181.198 1.63216 183.745 1.13574 186.528 1.13574C188.351 1.13574 190.052 1.31478 191.631 1.67285C193.226 2.03092 194.626 2.49479 195.83 3.06445C197.051 3.63411 198.027 4.22819 198.76 4.84668L197.368 12.3662L196.221 12.2686C196.156 10.1364 195.765 8.39486 195.049 7.04395C194.349 5.67676 193.356 4.66764 192.07 4.0166C190.785 3.34928 189.23 3.01562 187.407 3.01562C185.796 3.01562 184.266 3.30859 182.817 3.89453C181.385 4.48047 180.075 5.33496 178.887 6.45801C177.715 7.56478 176.698 8.89941 175.835 10.4619C174.972 12.0081 174.313 13.7578 173.857 15.7109C173.402 17.6478 173.174 19.7474 173.174 22.0098C173.174 24.6139 173.605 26.9495 174.468 29.0166C175.33 31.0837 176.543 32.7194 178.105 33.9238C179.668 35.112 181.466 35.7061 183.501 35.7061ZM211.772 0.793945L204.985 32.6543C204.839 33.3379 204.871 33.8669 205.083 34.2412C205.295 34.5993 205.677 34.7783 206.23 34.7783C206.637 34.7783 207.126 34.6969 207.695 34.5342C208.265 34.3551 208.761 34.0703 209.185 33.6797L208.916 35.0713C208.395 35.7549 207.598 36.3083 206.523 36.7314C205.465 37.1546 204.44 37.3662 203.447 37.3662C202.145 37.3662 201.234 36.9593 200.713 36.1455C200.192 35.3154 200.119 34.0378 200.493 32.3125L206.255 5.18848C206.369 4.61882 206.344 4.20378 206.182 3.94336C206.035 3.68294 205.653 3.47949 205.034 3.33301L203.13 3.01562L203.423 1.74609L211.772 0.793945ZM222.808 37.4883C220.854 37.4883 219.178 37.0244 217.778 36.0967C216.395 35.1689 215.337 33.9076 214.604 32.3125C213.872 30.7174 213.506 28.9271 213.506 26.9414C213.506 25.0534 213.783 23.2549 214.336 21.5459C214.906 19.8206 215.728 18.2826 216.802 16.9316C217.876 15.5645 219.178 14.4902 220.708 13.709C222.254 12.9277 224.004 12.5371 225.957 12.5371C227.91 12.5371 229.578 13.001 230.962 13.9287C232.362 14.8402 233.428 16.0934 234.16 17.6885C234.893 19.2835 235.259 21.082 235.259 23.084C235.259 24.9557 234.974 26.7542 234.404 28.4795C233.851 30.1885 233.029 31.7266 231.938 33.0938C230.864 34.4447 229.554 35.5189 228.008 36.3164C226.478 37.0977 224.744 37.4883 222.808 37.4883ZM222.881 35.7549C223.906 35.7549 224.818 35.4782 225.615 34.9248C226.429 34.3714 227.137 33.6146 227.739 32.6543C228.341 31.694 228.838 30.6117 229.229 29.4072C229.619 28.1865 229.912 26.9089 230.107 25.5742C230.319 24.2396 230.425 22.9294 230.425 21.6436C230.441 19.1859 230.042 17.3467 229.229 16.126C228.415 14.889 227.3 14.2705 225.884 14.2705C224.858 14.2705 223.939 14.5472 223.125 15.1006C222.311 15.654 221.603 16.4108 221.001 17.3711C220.415 18.3151 219.919 19.3975 219.512 20.6182C219.121 21.8226 218.828 23.0921 218.633 24.4268C218.438 25.7614 218.332 27.0798 218.315 28.3818C218.315 30.8232 218.714 32.6624 219.512 33.8994C220.326 35.1364 221.449 35.7549 222.881 35.7549ZM238.237 35.0225L239.336 29.0166H240.483C240.5 31.1976 241.029 32.8659 242.07 34.0215C243.128 35.1771 244.471 35.7549 246.099 35.7549C247.417 35.7549 248.475 35.4049 249.272 34.7051C250.086 33.9889 250.493 33.0531 250.493 31.8975C250.493 30.8883 250.265 30.0176 249.81 29.2852C249.37 28.5365 248.564 27.7796 247.393 27.0146L245.61 25.8184C244.194 24.8906 243.145 23.8896 242.461 22.8154C241.777 21.7249 241.436 20.5612 241.436 19.3242C241.436 18.0221 241.769 16.8665 242.437 15.8574C243.104 14.832 244.056 14.0264 245.293 13.4404C246.53 12.8382 248.003 12.5371 249.712 12.5371C251.307 12.5371 252.699 12.7161 253.887 13.0742C255.091 13.4323 256.027 13.8636 256.694 14.3682L255.425 20.374H254.277C254.326 19.251 254.18 18.2256 253.838 17.2979C253.496 16.3701 252.959 15.6296 252.227 15.0762C251.51 14.5228 250.583 14.2461 249.443 14.2461C248.19 14.2461 247.23 14.5798 246.562 15.2471C245.895 15.8981 245.562 16.7607 245.562 17.835C245.562 18.6976 245.798 19.4544 246.27 20.1055C246.742 20.7402 247.515 21.4076 248.589 22.1074L250.371 23.3281C251.966 24.3535 253.073 25.4115 253.691 26.502C254.326 27.5924 254.644 28.8213 254.644 30.1885C254.644 31.6696 254.229 32.9554 253.398 34.0459C252.585 35.1364 251.527 35.9827 250.225 36.585C248.939 37.1872 247.563 37.4883 246.099 37.4883C245.024 37.4883 243.983 37.3906 242.974 37.1953C241.981 37 241.077 36.7152 240.264 36.3408C239.45 35.9665 238.774 35.527 238.237 35.0225ZM268.657 37.4883C267.095 37.4883 265.638 37.1139 264.287 36.3652C262.952 35.6003 261.878 34.4772 261.064 32.9961C260.251 31.4987 259.844 29.6514 259.844 27.4541C259.844 25.3382 260.177 23.377 260.845 21.5703C261.512 19.7474 262.424 18.1605 263.579 16.8096C264.735 15.4587 266.045 14.4089 267.51 13.6602C268.991 12.9115 270.545 12.5371 272.173 12.5371C274.093 12.5371 275.64 12.9766 276.812 13.8555C277.983 14.7181 278.569 15.9144 278.569 17.4443C278.569 18.7627 278.073 19.9508 277.08 21.0088C276.087 22.0667 274.639 23.0352 272.734 23.9141C270.846 24.793 268.543 25.623 265.825 26.4043L263.457 27.0635L263.604 25.623L265.85 24.915C267.168 24.5244 268.356 24.0687 269.414 23.5479C270.488 23.0107 271.408 22.4167 272.173 21.7656C272.954 21.1146 273.548 20.4066 273.955 19.6416C274.362 18.8766 274.565 18.0628 274.565 17.2002C274.565 16.2399 274.346 15.5075 273.906 15.0029C273.483 14.4821 272.808 14.2217 271.88 14.2217C270.822 14.2217 269.845 14.5635 268.95 15.2471C268.071 15.9144 267.298 16.8421 266.631 18.0303C265.98 19.2021 265.475 20.5612 265.117 22.1074C264.759 23.6374 264.58 25.265 264.58 26.9902C264.58 28.7155 264.832 30.1722 265.337 31.3604C265.858 32.5485 266.574 33.4518 267.485 34.0703C268.413 34.6725 269.479 34.9736 270.684 34.9736C271.611 34.9736 272.596 34.7865 273.638 34.4121C274.696 34.0215 275.656 33.4193 276.519 32.6055L276.226 34.0459C275.656 34.7783 274.972 35.4049 274.175 35.9258C273.377 36.4303 272.507 36.8128 271.562 37.0732C270.618 37.3499 269.65 37.4883 268.657 37.4883ZM290.605 12.7324L289.189 19.3975C290.378 17.6885 291.395 16.3538 292.241 15.3936C293.088 14.4333 293.844 13.7497 294.512 13.3428C295.195 12.9359 295.879 12.7324 296.562 12.7324C297.262 12.7324 297.808 12.9521 298.198 13.3916C298.589 13.8311 298.784 14.417 298.784 15.1494C298.784 15.4749 298.727 15.8005 298.613 16.126C298.499 16.4515 298.369 16.6956 298.223 16.8584C298.044 16.7933 297.783 16.7363 297.441 16.6875C297.1 16.6224 296.717 16.5898 296.294 16.5898C294.894 16.5898 293.551 16.9561 292.266 17.6885C290.996 18.4046 289.93 19.3893 289.067 20.6426L285.747 37H281.206L285.405 17.2246C285.519 16.6549 285.495 16.2399 285.332 15.9795C285.186 15.7191 284.803 15.5156 284.185 15.3691L282.28 15.0518L282.573 13.7822L290.605 12.7324Z" fill="#AF001B"/>
</svg>
