<svg width="699" height="104" viewBox="0 0 699 104" fill="none" xmlns="http://www.w3.org/2000/svg">
<path d="M0.400001 0.949992H26.5C40.45 0.949992 52.6 2.45 63.7 10.7C75.85 19.85 82.9 34.4 82.9 51.05C82.9 67.7 76 82.1 62.8 91.4C51.1 99.65 40.15 101 26.2 101H0.400001V0.949992ZM19.9 17.75V84.2H25.9C30.85 84.2 41.65 83.9 50.35 77.6C58.3 71.9 62.8 61.7 62.8 51.05C62.8 40.55 58.45 30.35 50.5 24.35C42.4 18.35 32.5 17.75 25.9 17.75H19.9ZM97.8883 0.949992H117.388V63.8C117.388 71.45 119.938 76.1 122.188 78.65C125.038 82.1 130.288 85.55 138.088 85.55C145.888 85.55 151.138 82.1 153.988 78.65C156.238 76.1 158.788 71.45 158.788 63.8V0.949992H178.288V62.15C178.288 71.6 176.788 81.2 170.788 88.85C163.588 98.3 150.988 103.25 138.088 103.25C125.188 103.25 112.588 98.3 105.388 88.85C99.3883 81.2 97.8883 71.6 97.8883 62.15V0.949992ZM265.82 101L256.97 80H216.62L207.77 101H186.62L229.67 0.949992H244.97L286.82 101H265.82ZM222.77 64.1H251.27L237.02 28.1L222.77 64.1ZM295.502 0.949992H315.002V84.2H345.902V101H295.502V0.949992ZM383.279 101L401.879 0.949992H415.979L442.529 64.55L470.279 0.949992H484.379L501.179 101H481.379L472.379 39.35L445.529 101H438.929L413.279 39.35L403.079 101H383.279ZM515.896 0.949992H535.396V101H515.896V0.949992ZM555.23 0.949992H574.73V84.2H605.63V101H555.23V0.949992ZM616.097 0.949992H642.197C656.147 0.949992 668.297 2.45 679.397 10.7C691.547 19.85 698.597 34.4 698.597 51.05C698.597 67.7 691.697 82.1 678.497 91.4C666.797 99.65 655.847 101 641.897 101H616.097V0.949992ZM635.597 17.75V84.2H641.597C646.547 84.2 657.347 83.9 666.047 77.6C673.997 71.9 678.497 61.7 678.497 51.05C678.497 40.55 674.147 30.35 666.197 24.35C658.097 18.35 648.197 17.75 641.597 17.75H635.597Z" fill="white"/>
</svg>
