<svg width="540" height="113" viewBox="0 0 540 113" fill="none" xmlns="http://www.w3.org/2000/svg">
<path d="M85.55 9.94999V69.2C85.55 78.8 84.35 90.65 74.45 100.85C64.85 110.75 53.75 112.25 43.25 112.25C32.75 112.25 21.65 110.75 12.05 100.85C2.15 90.65 0.950001 78.8 0.950001 69.2L0.950001 9.94999H24.05L24.05 68.6C24.05 72.95 24.35 80.3 29.3 85.4C33.35 89.75 38.9 90.65 43.25 90.65C47.6 90.65 53.15 89.75 57.2 85.4C62.15 80.3 62.45 72.95 62.45 68.6V9.94999H85.55ZM102.494 0.649995H124.094V110H102.494L102.494 0.649995ZM173.995 60.5H160.645V110H139.045V60.5H131.545V43.1H139.045V21.5H160.645V43.1H173.995V60.5ZM181.769 43.1H203.369V110H181.769V43.1ZM179.969 14.6C179.969 7.55 185.519 2 192.569 2C199.619 2 205.169 7.55 205.169 14.6C205.169 21.65 199.619 27.2 192.569 27.2C185.519 27.2 179.969 21.65 179.969 14.6ZM218.724 110V43.1H240.324V50.9C245.874 42.5 253.974 41.45 259.074 41.45C261.924 41.45 267.174 41.75 271.674 44.45C275.124 46.4 277.974 49.7 279.774 53.75C281.424 51.05 283.974 47.9 288.324 45.2C292.974 42.35 297.324 41.45 302.574 41.45C310.674 41.45 317.274 43.85 321.324 47.75C327.774 53.9 328.224 62.9 328.224 67.7V110H306.624V76.1C306.624 72.65 306.624 66.65 303.774 63.05C301.974 60.8 299.124 59.45 295.974 59.45C292.374 59.45 289.374 61.1 287.574 63.5C284.724 67.1 284.274 72.35 284.274 76.7V110H262.674V75.2C262.674 70.7 262.524 65.45 259.224 62.15C256.974 59.9 254.274 59.45 252.024 59.45C249.174 59.45 246.624 60.2 244.524 62.15C240.474 66.05 240.324 73.55 240.324 75.8V110L218.724 110ZM393.44 50.6V43.1H415.04V110H393.44V101.9C387.59 110.9 379.19 112.25 373.64 112.25C364.04 112.25 355.94 109.85 348.59 102.05C341.54 94.55 338.84 85.85 338.84 77C338.84 65.75 343.04 56.15 349.19 50C355.04 44.15 363.14 40.85 372.44 40.85C378.14 40.85 387.29 42.2 393.44 50.6ZM377.84 59.45C373.19 59.45 368.84 61.4 365.99 64.25C363.74 66.5 361.04 70.4 361.04 76.4C361.04 82.4 363.59 86.3 365.54 88.4C368.54 91.55 373.19 93.65 378.29 93.65C382.64 93.65 386.69 91.85 389.54 89C392.39 86.3 394.79 82.1 394.79 76.4C394.79 71.6 392.99 67.1 389.84 64.1C386.54 60.95 381.74 59.45 377.84 59.45ZM464.339 60.5H450.989V110H429.389V60.5H421.889V43.1H429.389V21.5H450.989V43.1H464.339V60.5ZM489.963 67.4H519.213C519.063 66.8 518.013 62.6 514.863 59.6C512.463 57.35 509.013 55.85 504.663 55.85C499.113 55.85 495.813 58.1 493.713 60.2C492.063 62 490.563 64.4 489.963 67.4ZM539.163 78.05V80.3H489.213C489.213 83.9 490.563 88.7 493.263 91.7C496.563 95.3 501.063 95.9 504.363 95.9C507.513 95.9 510.813 95.3 513.063 93.95C513.363 93.8 515.913 92.15 517.713 88.4L538.113 90.5C535.113 99.95 529.113 104.9 525.213 107.3C518.763 111.2 511.563 112.25 504.063 112.25C494.013 112.25 485.163 110.45 477.363 102.65C471.513 96.8 467.313 87.95 467.313 76.85C467.313 67.25 470.763 57.35 477.513 50.45C485.613 42.35 495.663 40.85 503.163 40.85C510.663 40.85 521.463 42.2 529.713 50.9C537.663 59.3 539.163 69.8 539.163 78.05Z" fill="white"/>
</svg>
