<svg width="591" height="126" viewBox="0 0 591 126" fill="none" xmlns="http://www.w3.org/2000/svg">
<path d="M82.1217 46.86L44.5017 123H27.9417L0.581732 2.93999H25.0617L41.8017 84.66L81.4017 2.93999H94.3617L111.822 84.66L150.702 2.93999H175.902L115.602 123H99.0417L82.1217 46.86ZM252.859 2.93999L250.339 23.1H207.139L203.899 49.92H245.299L242.779 70.08H201.379L197.419 102.84H240.619L238.099 123H194.899H171.499L186.259 2.93999H252.859ZM271.956 2.93999H303.276C312.456 2.93999 334.236 3.83999 349.176 18.24C357.636 26.34 364.116 39.66 364.116 57.48C364.116 85.56 352.056 99.42 346.476 104.82C332.976 118.14 314.796 123 289.596 123H280.236H257.196L271.956 2.93999ZM292.836 23.1L283.116 102.84H291.036C306.876 102.84 320.016 99.78 329.016 89.88C336.576 81.6 339.996 69.18 339.996 58.02C339.996 51.36 338.556 40.56 329.556 32.46C319.836 23.82 306.336 23.1 300.036 23.1H292.836ZM441.309 78.9L443.829 58.74H498.909C497.649 72.42 493.329 94.38 478.569 109.14C465.249 122.46 449.229 125.7 434.829 125.7C420.969 125.7 405.489 122.46 392.709 110.04C384.249 101.94 376.329 88.98 376.329 68.82C376.329 47.22 385.329 29.76 396.669 18.78C406.389 9.41999 421.869 0.239993 445.629 0.239993C455.169 0.239993 466.509 1.85999 477.489 8.69999C484.149 12.84 490.629 19.14 495.489 27.42L474.429 39.48C471.189 33.54 466.869 29.4 462.369 26.7C456.609 23.1 450.129 21.48 442.929 21.48C429.069 21.48 419.529 27.24 413.589 33.18C405.309 41.46 400.449 54.6 400.449 67.56C400.449 81.78 406.569 90.24 410.889 94.56C418.989 102.66 428.889 104.46 436.629 104.46C443.469 104.46 453.009 103.38 461.109 96.36C466.509 91.68 470.289 84.84 472.269 78.9H441.309ZM590.281 2.93999L587.761 23.1H544.561L541.321 49.92H582.721L580.201 70.08H538.801L534.841 102.84H578.041L575.521 123H532.321H508.921L523.681 2.93999H590.281Z" fill="white"/>
</svg>
