<svg width="1572" height="154" viewBox="0 0 1572 154" fill="none" xmlns="http://www.w3.org/2000/svg">
<path d="M5.94922 75.6367C5.94922 69.6602 6.92578 64.0547 8.87891 58.8203C10.8711 53.5859 13.6836 48.9766 17.3164 44.9922C20.9883 41.0078 25.3633 37.8828 30.4414 35.6172C35.5586 33.3516 41.2812 32.2188 47.6094 32.2188C52.8828 32.2188 58.0195 33.2148 63.0195 35.207C68.0195 37.1992 72.5117 40.0898 76.4961 43.8789C80.4805 47.6289 83.6445 52.1797 85.9883 57.5312C88.332 62.8828 89.5039 68.918 89.5039 75.6367C89.5039 81.6133 88.5273 87.2383 86.5742 92.5117C84.6211 97.7461 81.8086 102.375 78.1367 106.398C74.4648 110.383 70.0703 113.508 64.9531 115.773C59.875 118.039 54.1914 119.172 47.9023 119.172C42.5898 119.172 37.4336 118.176 32.4336 116.184C27.4727 114.191 22.9805 111.32 18.957 107.57C14.9727 103.781 11.8086 99.2109 9.46484 93.8594C7.12109 88.4688 5.94922 82.3945 5.94922 75.6367ZM19.4844 74.875C19.4844 80.8516 20.1484 86.3984 21.4766 91.5156C22.8047 96.5938 24.7188 101.027 27.2188 104.816C29.7188 108.605 32.7461 111.555 36.3008 113.664C39.8555 115.773 43.8594 116.828 48.3125 116.828C54.875 116.828 60.1875 115.051 64.25 111.496C68.3125 107.941 71.2812 103.117 73.1562 97.0234C75.0703 90.9297 76.0273 84.0742 76.0273 76.457C76.0273 70.4414 75.3438 64.8945 73.9766 59.8164C72.6484 54.7383 70.7344 50.3242 68.2344 46.5742C65.7344 42.7852 62.707 39.8359 59.1523 37.7266C55.5977 35.6172 51.6133 34.5625 47.1992 34.5625C40.6367 34.5625 35.3047 36.3398 31.2031 39.8945C27.1406 43.4102 24.1719 48.2148 22.2969 54.3086C20.4219 60.3633 19.4844 67.2188 19.4844 74.875ZM103.391 42.0039C103.391 40.3633 103.195 39.1133 102.805 38.2539C102.453 37.3555 101.73 36.6719 100.637 36.2031C99.543 35.7344 97.9023 35.3242 95.7148 34.9727V33.3906H123.488V34.9727C121.184 35.3242 119.465 35.7539 118.332 36.2617C117.199 36.7695 116.438 37.4922 116.047 38.4297C115.656 39.3281 115.461 40.6562 115.461 42.4141V84.543C115.461 91.7305 116.535 97.6094 118.684 102.18C120.871 106.711 123.84 110.07 127.59 112.258C131.379 114.406 135.734 115.48 140.656 115.48C145.734 115.48 150.188 114.27 154.016 111.848C157.844 109.426 160.793 105.969 162.863 101.477C164.973 96.9844 165.988 91.6328 165.91 85.4219L165.383 48.9766C165.344 45.4609 165.109 42.7656 164.68 40.8906C164.25 38.9766 163.391 37.6094 162.102 36.7891C160.852 35.9687 158.938 35.3633 156.359 34.9727V33.3906L177.277 33.3906V35.0312C174.973 35.3437 173.234 35.9297 172.062 36.7891C170.891 37.6094 170.09 38.9766 169.66 40.8906C169.27 42.7656 169.055 45.4609 169.016 48.9766L168.488 85.7734C168.41 92.375 167.16 98.1953 164.738 103.234C162.316 108.234 158.742 112.141 154.016 114.953C149.289 117.766 143.43 119.172 136.438 119.172C132.219 119.172 128.117 118.547 124.133 117.297C120.188 116.008 116.652 113.996 113.527 111.262C110.441 108.527 107.98 104.953 106.145 100.539C104.309 96.0859 103.391 90.6953 103.391 84.3672V42.0039ZM248.41 33.3906L249.348 52.9023H247.883C246.945 48.4102 245.637 44.9727 243.957 42.5898C242.277 40.168 239.875 38.4492 236.75 37.4336C233.664 36.3789 229.484 35.7148 224.211 35.4414L220.812 35.207V108.098C220.812 110.012 220.988 111.516 221.34 112.609C221.73 113.664 222.551 114.484 223.801 115.07C225.051 115.617 226.926 116.066 229.426 116.418V118H200.129V116.418C202.668 116.066 204.543 115.617 205.754 115.07C207.004 114.484 207.805 113.664 208.156 112.609C208.547 111.516 208.742 110.012 208.742 108.098V35.207L205.344 35.4414C200.07 35.7148 195.871 36.3789 192.746 37.4336C189.66 38.4492 187.277 40.168 185.598 42.5898C183.957 44.9727 182.648 48.4102 181.672 52.9023H180.207L181.145 33.3906H248.41ZM287.451 76L280.371 79.72C279.171 76.84 276.651 74.68 273.411 74.68C270.291 74.68 267.411 76.48 267.411 80.32C267.411 83.92 269.811 85 275.451 87.4C282.651 90.4 286.011 92.68 287.931 95.08C290.091 97.72 290.571 100.36 290.571 103.12C290.571 113.56 283.011 119.44 273.411 119.44C271.371 119.44 260.211 119.2 256.011 106.72L263.451 103.6C264.411 106.24 267.291 111.76 273.531 111.76C279.171 111.76 281.691 107.56 281.691 103.84C281.691 99.16 278.331 97.6 273.651 95.56C267.651 92.92 263.811 91 261.531 88.24C259.611 85.84 259.251 83.44 259.251 80.92C259.251 72.16 265.371 67 273.771 67C276.411 67 283.491 67.48 287.451 76ZM319.559 76.12H310.919V118H302.279V76.12H296.999V68.2H302.279V50.2H310.919V68.2H319.559V76.12ZM365.863 75.28V68.2H374.503V118H365.863V111.04C362.983 114.76 357.583 119.44 348.823 119.44C336.223 119.44 324.583 110.56 324.583 93.04C324.583 75.88 336.103 67 348.823 67C358.423 67 363.583 72.28 365.863 75.28ZM349.783 74.68C341.263 74.68 333.463 80.92 333.463 93.04C333.463 103.72 339.463 111.76 349.783 111.76C360.343 111.76 366.343 103 366.343 93.16C366.343 80.32 357.463 74.68 349.783 74.68ZM390.867 118V68.2H399.507V73.96C401.067 71.92 405.507 67 413.787 67C419.667 67 425.067 69.4 428.067 73.84C430.587 77.56 430.947 81.64 430.947 87.16V118H422.307V87.4C422.307 84.4 422.067 80.92 420.027 78.28C418.347 76.12 415.707 74.68 411.867 74.68C408.867 74.68 405.627 75.52 403.107 78.52C399.747 82.48 399.507 88.36 399.507 91.96V118H390.867ZM485.394 75.28V30.52L494.034 30.52V118H485.394V111.04C482.514 114.76 477.114 119.44 468.354 119.44C455.754 119.44 444.114 110.56 444.114 93.04C444.114 75.88 455.634 67 468.354 67C477.954 67 483.114 72.28 485.394 75.28ZM469.314 74.68C460.794 74.68 452.994 80.92 452.994 93.04C452.994 103.72 458.994 111.76 469.314 111.76C479.874 111.76 485.874 103 485.874 93.16C485.874 80.32 476.994 74.68 469.314 74.68ZM509.226 68.2H517.866V118H509.226V68.2ZM507.426 49.36C507.426 46 510.186 43.24 513.546 43.24C516.906 43.24 519.666 46 519.666 49.36C519.666 52.72 516.906 55.48 513.546 55.48C510.186 55.48 507.426 52.72 507.426 49.36ZM534.187 118V68.2H542.827V73.96C544.387 71.92 548.827 67 557.107 67C562.987 67 568.387 69.4 571.387 73.84C573.907 77.56 574.267 81.64 574.267 87.16V118H565.627V87.4C565.627 84.4 565.387 80.92 563.347 78.28C561.667 76.12 559.027 74.68 555.187 74.68C552.187 74.68 548.947 75.52 546.427 78.52C543.067 82.48 542.827 88.36 542.827 91.96V118H534.187ZM628.715 75.28V68.2H637.355V116.8C637.355 122.2 637.355 129.88 632.555 136.36C628.835 141.4 621.995 145.6 612.635 145.6C604.115 145.6 598.235 142.24 594.875 138.88C591.515 135.52 588.395 130.12 588.395 122.8H596.915C596.915 127 598.595 130.72 600.755 133.12C604.355 137.08 608.915 137.92 612.755 137.92C618.875 137.92 623.075 135.76 625.955 130.96C628.475 126.88 628.715 122.44 628.715 118.24V111.04C625.835 114.76 620.435 119.44 611.675 119.44C604.355 119.44 598.475 116.56 594.635 112.72C591.275 109.36 587.435 103.12 587.435 93.04C587.435 83.32 591.035 77.32 594.635 73.72C598.835 69.64 604.955 67 611.675 67C618.995 67 624.755 70.12 628.715 75.28ZM612.635 74.68C607.355 74.68 603.755 76.96 601.355 79.36C597.155 83.68 596.315 88.96 596.315 93.04C596.315 97.36 597.155 103.24 601.955 107.68C604.715 110.2 608.075 111.76 612.635 111.76C617.195 111.76 620.795 110.32 623.555 107.56C626.915 104.32 629.195 99.04 629.195 93.16C629.195 87.28 627.035 82.12 623.915 79.12C621.155 76.36 617.075 74.68 612.635 74.68Z" fill="white"/>
<path d="M866.547 57.4727C866.547 61.8086 865.609 65.5781 863.734 68.7812C861.898 71.9453 859.34 74.6016 856.059 76.75C852.816 78.8594 849.066 80.4414 844.809 81.4961C840.551 82.5117 836 83.0195 831.156 83.0195H823.48V108.098C823.48 110.012 823.676 111.516 824.066 112.609C824.457 113.664 825.277 114.484 826.527 115.07C827.777 115.617 829.652 116.066 832.152 116.418V118H803.441V116.418C805.707 116.027 807.406 115.598 808.539 115.129C809.711 114.621 810.492 113.898 810.883 112.961C811.273 112.023 811.469 110.695 811.469 108.977V42.4141C811.469 40.6562 811.273 39.3281 810.883 38.4297C810.492 37.4922 809.711 36.7695 808.539 36.2617C807.406 35.7539 805.707 35.3242 803.441 34.9727V33.3906H831.156C842.484 33.3906 851.215 35.4805 857.348 39.6602C863.48 43.8008 866.547 49.7383 866.547 57.4727ZM853.539 58.1172C853.539 53.8984 852.68 50.1289 850.961 46.8086C849.281 43.4492 846.645 40.7734 843.051 38.7812C839.457 36.75 834.809 35.6367 829.105 35.4414L823.48 35.207V81.2031L829.105 80.9688C834.73 80.8125 839.34 79.7188 842.934 77.6875C846.566 75.6562 849.242 72.9609 850.961 69.6016C852.68 66.2422 853.539 62.4141 853.539 58.1172ZM931.117 33.3906L932.055 52.9023H930.59C929.535 48.4883 928.09 45.0898 926.254 42.707C924.457 40.3242 921.879 38.625 918.52 37.6094C915.199 36.5938 910.688 35.9687 904.984 35.7344L892.855 35.207V73.7031L909.496 73.293C912.074 73.2148 914.027 72.8242 915.355 72.1211C916.684 71.3789 917.68 70.1875 918.344 68.5469C919.047 66.8672 919.672 64.6211 920.219 61.8086H921.625V87.4727H920.219C919.711 84.6602 919.125 82.4336 918.461 80.793C917.797 79.1523 916.781 77.9609 915.414 77.2188C914.047 76.4766 912.074 76.0664 909.496 75.9883L892.855 75.5781V116.184L907.973 115.539C912.387 115.305 916.078 114.895 919.047 114.309C922.055 113.723 924.496 112.746 926.371 111.379C928.246 109.973 929.75 108.059 930.883 105.637C932.055 103.215 933.031 100.07 933.812 96.2031H935.277L934.105 118L872.816 118V116.418C875.082 116.027 876.781 115.598 877.914 115.129C879.086 114.621 879.867 113.898 880.258 112.961C880.648 112.023 880.844 110.695 880.844 108.977V42.4141C880.844 40.6562 880.648 39.3281 880.258 38.4297C879.867 37.4922 879.086 36.7695 877.914 36.2617C876.781 35.7539 875.082 35.3242 872.816 34.9727V33.3906H931.117ZM1004.42 56.0078C1004.42 59.4844 1003.62 62.6094 1002.02 65.3828C1000.45 68.1562 998.285 70.4805 995.512 72.3555C992.777 74.1914 989.633 75.5 986.078 76.2812V74.5234L999.496 100.305C1001.84 104.68 1003.75 107.961 1005.24 110.148C1006.76 112.336 1008.07 113.859 1009.16 114.719C1010.3 115.578 1011.43 116.184 1012.56 116.535V118H996.215L975.766 78.5664H962.23V109.387C962.23 110.949 962.426 112.18 962.816 113.078C963.207 113.937 963.949 114.621 965.043 115.129C966.137 115.598 967.777 116.027 969.965 116.418V118H942.191V116.418C944.457 115.988 946.156 115.52 947.289 115.012C948.461 114.504 949.242 113.801 949.633 112.902C950.023 111.965 950.219 110.656 950.219 108.977V42.4141C950.219 40.6172 950.023 39.25 949.633 38.3125C949.242 37.375 948.461 36.6719 947.289 36.2031C946.156 35.6953 944.457 35.2852 942.191 34.9727V33.3906H970.551C978.012 33.3906 984.242 34.3086 989.242 36.1445C994.242 37.9414 998.012 40.5391 1000.55 43.9375C1003.13 47.3359 1004.42 51.3594 1004.42 56.0078ZM991.996 56.7109C991.996 52.8828 991.234 49.3867 989.711 46.2227C988.188 43.0586 985.707 40.5195 982.27 38.6055C978.832 36.6914 974.223 35.6367 968.441 35.4414L962.23 35.207V76.75L970.258 76.5156C976.859 76.3203 982.133 74.582 986.078 71.3008C990.023 67.9805 991.996 63.1172 991.996 56.7109ZM1072.27 33.3906L1073.21 52.9023H1071.74C1070.73 48.4883 1069.34 45.0898 1067.58 42.707C1065.86 40.3242 1063.4 38.625 1060.2 37.6094C1057.04 36.5937 1052.74 35.9492 1047.31 35.6758L1036.29 35.207V74.1719L1050.36 73.7617C1052.89 73.6836 1054.81 73.293 1056.1 72.5898C1057.43 71.8477 1058.42 70.6562 1059.09 69.0156C1059.75 67.375 1060.36 65.1289 1060.9 62.2773H1062.31V87.9414H1060.9C1060.39 85.0898 1059.81 82.8437 1059.14 81.2031C1058.52 79.5625 1057.52 78.3906 1056.16 77.6875C1054.83 76.9453 1052.89 76.5352 1050.36 76.457L1036.29 76.0469V108.098C1036.29 110.012 1036.49 111.516 1036.88 112.609C1037.27 113.664 1038.09 114.484 1039.34 115.07C1040.59 115.617 1042.46 116.066 1044.96 116.418V118H1016.25V116.418C1018.52 116.027 1020.22 115.598 1021.35 115.129C1022.52 114.621 1023.3 113.898 1023.7 112.961C1024.09 112.023 1024.28 110.695 1024.28 108.977V42.4141C1024.28 40.6562 1024.09 39.3281 1023.7 38.4297C1023.3 37.4922 1022.52 36.7695 1021.35 36.2617C1020.22 35.7539 1018.52 35.3242 1016.25 34.9727V33.3906H1072.27ZM1078.13 75.6367C1078.13 69.6602 1079.11 64.0547 1081.06 58.8203C1083.05 53.5859 1085.86 48.9766 1089.5 44.9922C1093.17 41.0078 1097.54 37.8828 1102.62 35.6172C1107.74 33.3516 1113.46 32.2187 1119.79 32.2187C1125.06 32.2187 1130.2 33.2148 1135.2 35.207C1140.2 37.1992 1144.69 40.0898 1148.68 43.8789C1152.66 47.6289 1155.82 52.1797 1158.17 57.5312C1160.51 62.8828 1161.68 68.918 1161.68 75.6367C1161.68 81.6133 1160.71 87.2383 1158.75 92.5117C1156.8 97.7461 1153.99 102.375 1150.32 106.398C1146.64 110.383 1142.25 113.508 1137.13 115.773C1132.05 118.039 1126.37 119.172 1120.08 119.172C1114.77 119.172 1109.61 118.176 1104.61 116.184C1099.65 114.191 1095.16 111.32 1091.14 107.57C1087.15 103.781 1083.99 99.2109 1081.64 93.8594C1079.3 88.4687 1078.13 82.3945 1078.13 75.6367ZM1091.66 74.875C1091.66 80.8516 1092.33 86.3984 1093.66 91.5156C1094.98 96.5937 1096.9 101.027 1099.4 104.816C1101.9 108.605 1104.93 111.555 1108.48 113.664C1112.04 115.773 1116.04 116.828 1120.49 116.828C1127.05 116.828 1132.37 115.051 1136.43 111.496C1140.49 107.941 1143.46 103.117 1145.34 97.0234C1147.25 90.9297 1148.21 84.0742 1148.21 76.457C1148.21 70.4414 1147.52 64.8945 1146.16 59.8164C1144.83 54.7383 1142.91 50.3242 1140.41 46.5742C1137.91 42.7852 1134.89 39.8359 1131.33 37.7266C1127.78 35.6172 1123.79 34.5625 1119.38 34.5625C1112.82 34.5625 1107.48 36.3398 1103.38 39.8945C1099.32 43.4102 1096.35 48.2148 1094.48 54.3086C1092.6 60.3633 1091.66 67.2187 1091.66 74.875ZM1231.18 56.0078C1231.18 59.4844 1230.38 62.6094 1228.77 65.3828C1227.21 68.1562 1225.04 70.4805 1222.27 72.3555C1219.54 74.1914 1216.39 75.5 1212.84 76.2812V74.5234L1226.25 100.305C1228.6 104.68 1230.51 107.961 1232 110.148C1233.52 112.336 1234.83 113.859 1235.92 114.719C1237.05 115.578 1238.19 116.184 1239.32 116.535V118H1222.97L1202.52 78.5664H1188.99V109.387C1188.99 110.949 1189.18 112.18 1189.57 113.078C1189.96 113.937 1190.71 114.621 1191.8 115.129C1192.89 115.598 1194.54 116.027 1196.72 116.418V118H1168.95V116.418C1171.21 115.988 1172.91 115.52 1174.05 115.012C1175.22 114.504 1176 113.801 1176.39 112.902C1176.78 111.965 1176.98 110.656 1176.98 108.977V42.4141C1176.98 40.6172 1176.78 39.25 1176.39 38.3125C1176 37.375 1175.22 36.6719 1174.05 36.2031C1172.91 35.6953 1171.21 35.2852 1168.95 34.9727V33.3906H1197.31C1204.77 33.3906 1211 34.3086 1216 36.1445C1221 37.9414 1224.77 40.5391 1227.31 43.9375C1229.89 47.3359 1231.18 51.3594 1231.18 56.0078ZM1218.75 56.7109C1218.75 52.8828 1217.99 49.3867 1216.47 46.2227C1214.95 43.0586 1212.46 40.5195 1209.03 38.6055C1205.59 36.6914 1200.98 35.6367 1195.2 35.4414L1188.99 35.207V76.75L1197.02 76.5156C1203.62 76.3203 1208.89 74.582 1212.84 71.3008C1216.78 67.9805 1218.75 63.1172 1218.75 56.7109ZM1263.99 33.3906L1291.94 105.695H1291.59L1317.19 33.3906L1336.76 33.3906V34.9727C1334.69 35.3242 1333.11 35.7539 1332.02 36.2617C1330.92 36.7695 1330.2 37.4922 1329.85 38.4297C1329.5 39.3672 1329.34 40.6758 1329.38 42.3555L1331.72 109.035C1331.8 110.793 1332.02 112.16 1332.37 113.137C1332.76 114.074 1333.5 114.777 1334.59 115.246C1335.69 115.715 1337.37 116.105 1339.63 116.418V118H1312.09V116.418C1314.28 116.105 1315.92 115.734 1317.02 115.305C1318.11 114.836 1318.83 114.133 1319.18 113.195C1319.57 112.219 1319.75 110.852 1319.71 109.094L1317.31 39.8359H1318.25L1294.4 102.766L1288.66 118H1284.79L1253.5 38.3711H1254.67L1253.56 103.059C1253.52 106.379 1253.66 108.957 1253.97 110.793C1254.32 112.59 1255.08 113.898 1256.25 114.719C1257.46 115.5 1259.32 116.066 1261.82 116.418V118H1240.79V116.418C1243.25 116.066 1245.1 115.5 1246.35 114.719C1247.6 113.898 1248.46 112.59 1248.93 110.793C1249.44 108.957 1249.75 106.418 1249.87 103.176L1252.33 44.6406C1252.41 42.4922 1252.23 40.793 1251.8 39.543C1251.41 38.293 1250.67 37.3164 1249.57 36.6133C1248.48 35.9102 1247 35.3633 1245.12 34.9727V33.3906H1263.99ZM1388.12 75.28V68.2H1396.76V118H1388.12V111.04C1385.24 114.76 1379.84 119.44 1371.08 119.44C1358.48 119.44 1346.84 110.56 1346.84 93.04C1346.84 75.88 1358.36 67 1371.08 67C1380.68 67 1385.84 72.28 1388.12 75.28ZM1372.04 74.68C1363.52 74.68 1355.72 80.92 1355.72 93.04C1355.72 103.72 1361.72 111.76 1372.04 111.76C1382.6 111.76 1388.6 103 1388.6 93.16C1388.6 80.32 1379.72 74.68 1372.04 74.68ZM1413.12 118V68.2H1421.76V73.96C1423.32 71.92 1427.76 67 1436.04 67C1441.92 67 1447.32 69.4 1450.32 73.84C1452.84 77.56 1453.2 81.64 1453.2 87.16V118H1444.56V87.4C1444.56 84.4 1444.32 80.92 1442.28 78.28C1440.6 76.12 1437.96 74.68 1434.12 74.68C1431.12 74.68 1427.88 75.52 1425.36 78.52C1422 82.48 1421.76 88.36 1421.76 91.96V118H1413.12ZM1508.49 71.8V82.12C1503.93 76.36 1497.33 74.68 1492.89 74.68C1483.65 74.68 1475.25 81.16 1475.25 93.28C1475.25 105.4 1483.89 111.76 1492.77 111.76C1497.93 111.76 1504.29 109.48 1508.85 103.96V114.28C1503.45 118.24 1497.69 119.44 1493.01 119.44C1477.53 119.44 1466.37 108.4 1466.37 93.4C1466.37 78.16 1477.65 67 1493.01 67C1500.93 67 1506.09 70.12 1508.49 71.8ZM1559.07 101.32L1566.27 105.28C1564.83 108.04 1562.67 111.04 1560.15 113.32C1555.59 117.4 1549.95 119.44 1543.59 119.44C1531.59 119.44 1518.99 111.88 1518.99 93.4C1518.99 78.52 1528.11 67 1543.11 67C1552.83 67 1558.95 71.8 1561.95 76.12C1565.07 80.56 1566.87 88.24 1566.63 94.84H1527.87C1527.99 105.16 1535.07 111.76 1543.71 111.76C1547.79 111.76 1551.03 110.56 1553.91 108.16C1556.19 106.24 1557.99 103.72 1559.07 101.32ZM1528.47 87.64H1557.75C1556.31 79.84 1550.43 74.68 1543.11 74.68C1535.79 74.68 1529.79 80.2 1528.47 87.64Z" fill="white"/>
</svg>
