<svg width="75" height="82" viewBox="0 0 75 82" fill="none" xmlns="http://www.w3.org/2000/svg">
<path d="M21.64 61.42C21.7 61.42 21.73 61.48 21.73 61.6C21.73 61.72 21.7 61.78 21.64 61.78C21.1 61.78 20.62 61.98 20.2 62.38C19.8 62.78 19.41 63.42 19.03 64.3L15.31 72.97C15.31 73.05 15.21 73.09 15.01 73.09C14.79 73.09 14.67 73.05 14.65 72.97L11.11 65.77L8.02 72.97C8.02 73.05 7.92 73.09 7.72 73.09C7.54 73.09 7.42 73.05 7.36 72.97L2.92 63.91C2.48 63.05 2.11 62.48 1.81 62.2C1.51 61.92 1.15 61.78 0.73 61.78C0.67 61.78 0.64 61.72 0.64 61.6C0.64 61.48 0.67 61.42 0.73 61.42C1.09 61.42 1.38 61.43 1.6 61.45L3.34 61.48L5.38 61.45C5.68 61.43 6.09 61.42 6.61 61.42C6.67 61.42 6.7 61.48 6.7 61.6C6.7 61.72 6.67 61.78 6.61 61.78C5.55 61.78 5.02 62.01 5.02 62.47C5.02 62.59 5.07 62.75 5.17 62.95L8.71 69.7L10.69 64.96L10.18 63.91C9.74 63.03 9.4 62.46 9.16 62.2C8.92 61.92 8.61 61.78 8.23 61.78C8.19 61.78 8.17 61.72 8.17 61.6C8.17 61.48 8.19 61.42 8.23 61.42C8.57 61.42 8.85 61.43 9.07 61.45L10.63 61.48L12.7 61.45C13 61.43 13.4 61.42 13.9 61.42C13.94 61.42 13.96 61.48 13.96 61.6C13.96 61.72 13.94 61.78 13.9 61.78C13.44 61.78 13.07 61.84 12.79 61.96C12.53 62.08 12.4 62.26 12.4 62.5C12.4 62.6 12.45 62.75 12.55 62.95L16 69.73L18.25 64.24C18.41 63.82 18.49 63.48 18.49 63.22C18.49 62.76 18.31 62.41 17.95 62.17C17.59 61.91 17.08 61.78 16.42 61.78C16.36 61.78 16.33 61.72 16.33 61.6C16.33 61.48 16.36 61.42 16.42 61.42C16.96 61.42 17.36 61.43 17.62 61.45L19.42 61.48L20.62 61.45C20.82 61.43 21.16 61.42 21.64 61.42ZM32.7606 71.11C32.8006 71.11 32.8406 71.15 32.8806 71.23C32.9406 71.31 32.9506 71.37 32.9106 71.41C32.1706 72.09 31.4306 72.59 30.6906 72.91C29.9506 73.21 29.1506 73.36 28.2906 73.36C27.0706 73.36 26.0106 73.09 25.1106 72.55C24.2306 72.01 23.5506 71.3 23.0706 70.42C22.6106 69.54 22.3806 68.59 22.3806 67.57C22.3806 66.39 22.6706 65.31 23.2506 64.33C23.8306 63.35 24.6206 62.58 25.6206 62.02C26.6406 61.44 27.7706 61.15 29.0106 61.15C30.2106 61.15 31.1406 61.44 31.8006 62.02C32.4606 62.6 32.7906 63.46 32.7906 64.6C32.7906 65.18 32.6706 65.47 32.4306 65.47L25.1106 65.5C25.0906 65.68 25.0806 65.95 25.0806 66.31C25.0806 68.07 25.4806 69.47 26.2806 70.51C27.1006 71.53 28.2606 72.04 29.7606 72.04C30.3206 72.04 30.7906 71.98 31.1706 71.86C31.5506 71.72 32.0606 71.48 32.7006 71.14L32.7606 71.11ZM27.9306 61.75C27.1906 61.75 26.5806 62.04 26.1006 62.62C25.6406 63.18 25.3306 63.96 25.1706 64.96L29.9706 64.87C29.9306 62.79 29.2506 61.75 27.9306 61.75ZM48.786 71.14C48.846 71.14 48.896 71.19 48.936 71.29C48.996 71.39 48.996 71.45 48.936 71.47L45.096 73.33L44.916 73.36C44.716 73.36 44.526 73.16 44.346 72.76C44.186 72.36 44.096 71.82 44.076 71.14C43.356 71.82 42.616 72.37 41.856 72.79C41.096 73.19 40.266 73.39 39.366 73.39C38.506 73.39 37.716 73.16 36.996 72.7C36.276 72.22 35.706 71.54 35.286 70.66C34.866 69.78 34.656 68.75 34.656 67.57C34.656 66.09 35.006 64.86 35.706 63.88C36.406 62.9 37.286 62.18 38.346 61.72C39.406 61.26 40.466 61.03 41.526 61.03C42.406 61.03 43.246 61.19 44.046 61.51V55.24C44.046 54.54 43.976 54.04 43.836 53.74C43.716 53.42 43.486 53.26 43.146 53.26C42.926 53.26 42.526 53.38 41.946 53.62H41.886C41.806 53.62 41.746 53.57 41.706 53.47C41.666 53.37 41.666 53.31 41.706 53.29L45.936 51.28L46.056 51.25C46.136 51.25 46.226 51.29 46.326 51.37C46.426 51.45 46.476 51.52 46.476 51.58V69.58C46.476 70.28 46.546 70.78 46.686 71.08C46.826 71.36 47.066 71.5 47.406 71.5C47.806 71.5 48.256 71.38 48.756 71.14H48.786ZM40.866 72.07C41.446 72.07 41.986 71.94 42.486 71.68C43.006 71.42 43.526 71.05 44.046 70.57V70.54V63.4C43.646 62.84 43.196 62.43 42.696 62.17C42.216 61.89 41.636 61.75 40.956 61.75C39.816 61.75 38.926 62.15 38.286 62.95C37.666 63.75 37.356 64.98 37.356 66.64C37.356 68.32 37.686 69.65 38.346 70.63C39.006 71.59 39.846 72.07 40.866 72.07ZM56.5183 71.95C57.6583 71.97 58.5883 72.03 59.3083 72.13C60.0283 72.23 60.6483 72.51 61.1683 72.97C61.7083 73.43 61.9783 74.15 61.9783 75.13C61.9783 76.23 61.6283 77.26 60.9283 78.22C60.2283 79.2 59.2983 79.98 58.1383 80.56C56.9783 81.14 55.7383 81.43 54.4183 81.43C53.0383 81.43 51.9183 81.12 51.0583 80.5C50.2183 79.88 49.7983 79.07 49.7983 78.07C49.7983 76.65 50.8183 75.26 52.8583 73.9C51.3783 73.62 50.6383 72.91 50.6383 71.77C50.6383 71.15 50.8083 70.58 51.1483 70.06C51.5083 69.54 52.0483 69.03 52.7683 68.53C52.0283 68.19 51.4483 67.7 51.0283 67.06C50.6283 66.42 50.4283 65.74 50.4283 65.02C50.4283 64.24 50.6683 63.56 51.1483 62.98C51.6283 62.4 52.2483 61.96 53.0083 61.66C53.7883 61.36 54.6183 61.21 55.4983 61.21C56.7783 61.21 57.8383 61.53 58.6783 62.17C59.2183 61.83 59.7483 61.58 60.2683 61.42C60.7883 61.24 61.3483 61.15 61.9483 61.15C62.0883 61.15 62.1583 61.41 62.1583 61.93C62.1583 62.21 62.1183 62.5 62.0383 62.8C61.9783 63.1 61.9083 63.22 61.8283 63.16C60.9883 62.84 60.2683 62.68 59.6683 62.68C59.4883 62.68 59.3583 62.69 59.2783 62.71C59.8583 63.35 60.1483 64.11 60.1483 64.99C60.1483 65.75 59.9083 66.44 59.4283 67.06C58.9483 67.68 58.3183 68.16 57.5383 68.5C56.7583 68.84 55.9283 69.01 55.0483 69.01C54.3883 69.01 53.7883 68.92 53.2483 68.74C52.8083 69.16 52.5883 69.66 52.5883 70.24C52.5883 70.96 52.8783 71.42 53.4583 71.62C54.0583 71.82 55.0783 71.93 56.5183 71.95ZM54.5983 61.75C53.5183 61.75 52.9783 62.56 52.9783 64.18C52.9783 65.02 53.1083 65.77 53.3683 66.43C53.6483 67.09 53.9983 67.6 54.4183 67.96C54.8583 68.32 55.3083 68.5 55.7683 68.5C56.2883 68.5 56.7183 68.28 57.0583 67.84C57.3983 67.38 57.5683 66.69 57.5683 65.77C57.5683 64.93 57.4183 64.21 57.1183 63.61C56.8383 62.99 56.4683 62.53 56.0083 62.23C55.5683 61.91 55.0983 61.75 54.5983 61.75ZM56.0383 80.5C57.1783 80.5 58.0883 80.16 58.7683 79.48C59.4683 78.82 59.8183 77.92 59.8183 76.78C59.8183 75.94 59.6283 75.33 59.2483 74.95C58.8883 74.57 58.3983 74.33 57.7783 74.23C57.1783 74.13 56.3183 74.08 55.1983 74.08C54.6383 74.08 54.0983 74.05 53.5783 73.99C52.6383 74.67 52.1683 75.57 52.1683 76.69C52.1683 77.89 52.5283 78.82 53.2483 79.48C53.9883 80.16 54.9183 80.5 56.0383 80.5ZM73.4833 71.11C73.5233 71.11 73.5633 71.15 73.6033 71.23C73.6633 71.31 73.6733 71.37 73.6333 71.41C72.8933 72.09 72.1533 72.59 71.4133 72.91C70.6733 73.21 69.8733 73.36 69.0133 73.36C67.7933 73.36 66.7333 73.09 65.8333 72.55C64.9533 72.01 64.2733 71.3 63.7933 70.42C63.3333 69.54 63.1033 68.59 63.1033 67.57C63.1033 66.39 63.3933 65.31 63.9733 64.33C64.5533 63.35 65.3433 62.58 66.3433 62.02C67.3633 61.44 68.4933 61.15 69.7333 61.15C70.9333 61.15 71.8633 61.44 72.5233 62.02C73.1833 62.6 73.5133 63.46 73.5133 64.6C73.5133 65.18 73.3933 65.47 73.1533 65.47L65.8333 65.5C65.8133 65.68 65.8033 65.95 65.8033 66.31C65.8033 68.07 66.2033 69.47 67.0033 70.51C67.8233 71.53 68.9833 72.04 70.4833 72.04C71.0433 72.04 71.5133 71.98 71.8933 71.86C72.2733 71.72 72.7833 71.48 73.4233 71.14L73.4833 71.11ZM68.6533 61.75C67.9133 61.75 67.3033 62.04 66.8233 62.62C66.3633 63.18 66.0533 63.96 65.8933 64.96L70.6933 64.87C70.6533 62.79 69.9733 61.75 68.6533 61.75Z" fill="white"/>
<path d="M28 31.65C25.9667 31.65 24.15 31.2 22.55 30.3C20.95 29.4 19.7 28.1667 18.8 26.6C17.9 25 17.45 23.2167 17.45 21.25C17.45 19.2833 17.9 17.5333 18.8 16C19.7 14.4333 20.95 13.2167 22.55 12.35C24.15 11.4833 25.9667 11.05 28 11.05C30.0333 11.05 31.8333 11.5 33.4 12.4C34.9667 13.2667 36.1833 14.4833 37.05 16.05C37.95 17.6167 38.4 19.3833 38.4 21.35C38.4 23.3167 37.95 25.0833 37.05 26.65C36.1833 28.2167 34.95 29.45 33.35 30.35C31.7833 31.2167 30 31.65 28 31.65ZM28.5 30.7C30.2 30.7 31.4833 29.9333 32.35 28.4C33.2167 26.8667 33.65 24.7333 33.65 22C33.65 18.6667 33.0667 16.1667 31.9 14.5C30.7333 12.8333 29.2833 12 27.55 12C25.85 12 24.5167 12.8 23.55 14.4C22.6167 15.9667 22.15 18.0833 22.15 20.75C22.15 23.6833 22.7333 26.0833 23.9 27.95C25.0667 29.7833 26.6 30.7 28.5 30.7ZM50.7781 24.45C53.0781 24.7833 54.8115 25.6167 55.9781 26.95C57.1448 28.25 57.7281 29.7833 57.7281 31.55C57.7281 33.15 57.1781 34.7667 56.0781 36.4C54.9781 38.0667 53.2948 39.6333 51.0281 41.1C48.7615 42.5667 45.9615 43.7833 42.6281 44.75C42.4948 44.7833 42.3781 44.7 42.2781 44.5C42.2115 44.3333 42.2448 44.2333 42.3781 44.2C46.1448 42.8 48.8448 40.9833 50.4781 38.75C52.1115 36.55 52.9281 34.35 52.9281 32.15C52.9281 30.25 52.4281 28.7 51.4281 27.5C50.4615 26.3 49.0948 25.7 47.3281 25.7C46.6615 25.7 45.9448 25.8 45.1781 26C45.0781 26.0333 44.9948 25.95 44.9281 25.75C44.8615 25.55 44.8781 25.4333 44.9781 25.4C47.3781 24.7667 49.1115 23.85 50.1781 22.65C51.2781 21.4167 51.8281 19.7333 51.8281 17.6C51.8281 15.9333 51.5281 14.65 50.9281 13.75C50.3615 12.8167 49.5115 12.35 48.3781 12.35C46.9781 12.35 45.7281 12.8333 44.6281 13.8C43.5281 14.7667 42.6281 16.2 41.9281 18.1C41.8948 18.1333 41.8281 18.15 41.7281 18.15C41.4281 18.15 41.2948 18.0833 41.3281 17.95L43.1781 10.65C43.2448 10.5833 43.3115 10.55 43.3781 10.55C43.4781 10.55 43.5781 10.5833 43.6781 10.65C43.7781 10.6833 43.8115 10.7167 43.7781 10.75C43.7115 11.0167 43.6781 11.2 43.6781 11.3C43.6781 11.8667 43.9615 12.15 44.5281 12.15C44.9281 12.15 45.4781 12.0167 46.1781 11.75C46.9448 11.5167 47.5948 11.35 48.1281 11.25C48.6948 11.1167 49.3281 11.05 50.0281 11.05C51.9615 11.05 53.4781 11.6167 54.5781 12.75C55.6781 13.85 56.2281 15.1833 56.2281 16.75C56.2281 18.35 55.7448 19.8667 54.7781 21.3C53.8115 22.7 52.4781 23.75 50.7781 24.45Z" fill="white"/>
</svg>
