<svg width="340" height="76" viewBox="0 0 340 76" fill="none" xmlns="http://www.w3.org/2000/svg">
<path d="M46.8359 40.6172C46.8359 44.0026 45.7422 47.0104 43.5547 49.6406C41.3932 52.2448 38.2422 54.2891 34.1016 55.7734C29.9609 57.2578 24.9479 58 19.0625 58H0.625L0.9375 56.4375C2.57813 56.2552 3.8151 56.0208 4.64844 55.7344C5.48177 55.4219 6.08073 54.9401 6.44531 54.2891C6.83594 53.638 7.16146 52.7266 7.42188 51.5547L16.6797 8.03906C16.9401 6.86719 17.0182 5.95573 16.9141 5.30469C16.8099 4.65365 16.3932 4.1849 15.6641 3.89844C14.9609 3.58594 13.8151 3.33854 12.2266 3.15625L12.5781 1.59375L29.8047 1.59375C36.237 1.59375 41.1198 2.76562 44.4531 5.10937C47.7865 7.42708 49.4401 10.487 49.4141 14.2891C49.388 16.5547 48.8411 18.5078 47.7734 20.1484C46.7057 21.763 45.2995 23.1042 43.5547 24.1719C41.8359 25.2396 39.9349 26.0599 37.8516 26.6328C35.7943 27.2057 33.75 27.5833 31.7188 27.7656C34.9219 28 37.6432 28.7031 39.8828 29.875C42.1484 31.0469 43.8672 32.5703 45.0391 34.4453C46.237 36.2943 46.8359 38.3516 46.8359 40.6172ZM38.3203 40.7734C38.3203 38.5859 37.8646 36.6198 36.9531 34.875C36.0417 33.1302 34.7005 31.75 32.9297 30.7344C31.1849 29.7188 29.0234 29.1979 26.4453 29.1719L20.0391 29.0938L14.2969 56.2031L18.5156 56.0469C23.125 55.9167 26.888 55.1615 29.8047 53.7812C32.7214 52.401 34.8698 50.5911 36.25 48.3516C37.6302 46.0859 38.3203 43.5599 38.3203 40.7734ZM41.2109 14.25C41.2109 11.0208 40.2604 8.46875 38.3594 6.59375C36.4583 4.69271 33.5677 3.67708 29.6875 3.54687L25.5078 3.39062L20.3906 27.2969L26.8359 27.2578C29.9349 27.2318 32.5521 26.6328 34.6875 25.4609C36.8229 24.2891 38.4375 22.7266 39.5312 20.7734C40.651 18.8203 41.2109 16.6458 41.2109 14.25ZM53.9063 44.9922C53.9063 41.763 54.362 38.625 55.2734 35.5781C56.1849 32.5052 57.487 29.7578 59.1797 27.3359C60.8984 24.888 62.9557 22.9479 65.3516 21.5156C67.7474 20.0833 70.4297 19.3672 73.3984 19.3672C75.8984 19.3672 77.8125 19.8229 79.1406 20.7344C80.4948 21.6198 81.3932 22.5833 81.8359 23.625L85.8594 20.0703H89.1016L82.3828 51.3984C82.1224 52.5703 82.1745 53.4557 82.5391 54.0547C82.9036 54.6276 83.5417 54.9141 84.4531 54.9141C85.1042 54.9141 85.8594 54.7839 86.7188 54.5234C87.5781 54.237 88.3203 53.8073 88.9453 53.2344L88.5938 54.875C87.8125 55.9688 86.5755 56.8672 84.8828 57.5703C83.2161 58.2474 81.5885 58.5859 80 58.5859C78.0729 58.5859 76.7057 57.9609 75.8984 56.7109C75.0911 55.4609 74.974 53.5729 75.5469 51.0469C75.625 50.6302 75.7292 50.1094 75.8594 49.4844C76.0156 48.8333 76.1328 48.3125 76.2109 47.9219C74.987 51.4115 73.2943 54.0807 71.1328 55.9297C68.9714 57.7786 66.5104 58.7031 63.75 58.7031C61.849 58.7031 60.1563 58.1432 58.6719 57.0234C57.1875 55.9036 56.0156 54.3151 55.1563 52.2578C54.3229 50.2005 53.9063 47.7786 53.9063 44.9922ZM61.3672 45.4219C61.3672 48.9115 61.862 51.4115 62.8516 52.9219C63.8672 54.4323 65.2734 55.1875 67.0703 55.1875C69.0495 55.1875 70.9635 54.1719 72.8125 52.1406C74.6615 50.0833 76.0286 47.1797 76.9141 43.4297L80.7812 25.2656C80.4948 24.3021 79.8177 23.4687 78.75 22.7656C77.6823 22.0625 76.3411 21.7109 74.7266 21.7109C72.9557 21.7109 71.3542 22.1927 69.9219 23.1562C68.5156 24.0937 67.2786 25.3828 66.2109 27.0234C65.1432 28.638 64.2448 30.474 63.5156 32.5312C62.8125 34.5885 62.2786 36.724 61.9141 38.9375C61.5495 41.151 61.3672 43.3125 61.3672 45.4219ZM113.242 0.304687L102.383 51.3984C102.122 52.5703 102.174 53.4557 102.539 54.0547C102.93 54.6276 103.568 54.9141 104.453 54.9141C105.104 54.9141 105.859 54.7839 106.719 54.5234C107.578 54.237 108.32 53.8073 108.945 53.2344L108.594 54.875C107.812 55.9688 106.576 56.8672 104.883 57.5703C103.216 58.2474 101.589 58.5859 100 58.5859C97.9948 58.5859 96.5625 57.9479 95.7031 56.6719C94.8698 55.3958 94.7526 53.3776 95.3516 50.6172L104.688 6.75C104.896 5.78646 104.87 5.09635 104.609 4.67969C104.349 4.23698 103.724 3.88542 102.734 3.625L100.117 3.11719L100.469 1.59375L113.242 0.304687ZM133.398 0.304687L122.539 51.3984C122.279 52.5703 122.331 53.4557 122.695 54.0547C123.086 54.6276 123.724 54.9141 124.609 54.9141C125.26 54.9141 126.016 54.7839 126.875 54.5234C127.734 54.237 128.477 53.8073 129.102 53.2344L128.75 54.875C127.969 55.9687 126.732 56.8672 125.039 57.5703C123.372 58.2474 121.745 58.5859 120.156 58.5859C118.151 58.5859 116.719 57.9479 115.859 56.6719C115.026 55.3958 114.909 53.3776 115.508 50.6172L124.844 6.75C125.052 5.78646 125.026 5.09635 124.766 4.67969C124.505 4.23698 123.88 3.88542 122.891 3.625L120.273 3.11719L120.625 1.59375L133.398 0.304687ZM196.562 1.59375L194.336 14.875H192.891C192.786 11.9583 192.37 9.71875 191.641 8.15625C190.938 6.59375 189.727 5.5 188.008 4.875C186.315 4.25 183.919 3.8724 180.82 3.74219L173.047 3.39062L167.734 28.4297L176.68 28.3125C178.112 28.2604 179.284 28.026 180.195 27.6094C181.133 27.1927 181.953 26.4505 182.656 25.3828C183.359 24.3151 184.089 22.7917 184.844 20.8125H186.133L182.383 38.4687H181.094C181.172 36.4115 181.094 34.8099 180.859 33.6641C180.651 32.5182 180.182 31.7109 179.453 31.2422C178.75 30.7474 177.682 30.487 176.25 30.4609L167.344 30.3047L162.812 51.6719C162.578 52.7917 162.526 53.6641 162.656 54.2891C162.812 54.888 163.32 55.3437 164.18 55.6562C165.039 55.9687 166.406 56.2292 168.281 56.4375L167.969 58H148.125L148.477 56.4375C150.117 56.2552 151.354 56.0208 152.188 55.7344C153.021 55.4219 153.633 54.9401 154.023 54.2891C154.414 53.638 154.727 52.7266 154.961 51.5547L164.258 8.03906C164.518 6.86719 164.583 5.95573 164.453 5.30469C164.349 4.65365 163.932 4.1849 163.203 3.89844C162.5 3.58594 161.367 3.33854 159.805 3.15625L160.117 1.59375H196.562ZM213.008 0.304687L202.148 51.3984C201.888 52.5703 201.94 53.4557 202.305 54.0547C202.695 54.6276 203.333 54.9141 204.219 54.9141C204.87 54.9141 205.625 54.7839 206.484 54.5234C207.344 54.237 208.086 53.8073 208.711 53.2344L208.359 54.875C207.578 55.9687 206.341 56.8672 204.648 57.5703C202.982 58.2474 201.354 58.5859 199.766 58.5859C197.76 58.5859 196.328 57.9479 195.469 56.6719C194.635 55.3958 194.518 53.3776 195.117 50.6172L204.453 6.75C204.661 5.78646 204.635 5.09635 204.375 4.67969C204.115 4.23698 203.49 3.88542 202.5 3.625L199.883 3.11719L200.234 1.59375L213.008 0.304687ZM229.141 19.6406L222.344 51.3984C222.109 52.5703 222.174 53.4557 222.539 54.0547C222.93 54.6276 223.568 54.9141 224.453 54.9141C225.104 54.9141 225.859 54.7839 226.719 54.5234C227.578 54.237 228.307 53.8073 228.906 53.2344L228.594 54.875C227.786 55.9687 226.549 56.8672 224.883 57.5703C223.216 58.2474 221.589 58.5859 220 58.5859C217.995 58.5859 216.562 57.9479 215.703 56.6719C214.87 55.3958 214.753 53.3776 215.352 50.6172L220.508 26.3594C220.716 25.4219 220.69 24.7448 220.43 24.3281C220.169 23.8854 219.544 23.5208 218.555 23.2344L215.938 22.7266L216.289 21.2422L229.141 19.6406ZM227.344 12.4531C226.12 12.4531 225.091 12.0495 224.258 11.2422C223.451 10.4089 223.047 9.39323 223.047 8.19531C223.047 6.94531 223.49 5.89062 224.375 5.03125C225.26 4.14583 226.341 3.70312 227.617 3.70312C228.841 3.70312 229.857 4.11979 230.664 4.95312C231.497 5.76042 231.914 6.76302 231.914 7.96094C231.914 8.76823 231.706 9.52344 231.289 10.2266C230.872 10.9297 230.326 11.4766 229.648 11.8672C228.971 12.2578 228.203 12.4531 227.344 12.4531ZM271.016 23.5859L259.023 22.8047L258.867 21.3984L271.602 20.7734L271.016 23.5859ZM243.672 34.9922C243.672 37.4401 244.18 39.4974 245.195 41.1641C246.237 42.8047 247.799 43.625 249.883 43.625C251.185 43.625 252.344 43.2474 253.359 42.4922C254.401 41.7109 255.273 40.6562 255.977 39.3281C256.706 38 257.253 36.5156 257.617 34.875C258.008 33.2083 258.203 31.4896 258.203 29.7187C258.203 27.2448 257.682 25.1875 256.641 23.5469C255.625 21.8802 254.076 21.0469 251.992 21.0469C250.69 21.0469 249.518 21.4375 248.477 22.2187C247.461 23 246.589 24.0547 245.859 25.3828C245.156 26.7109 244.609 28.2083 244.219 29.875C243.854 31.5156 243.672 33.2214 243.672 34.9922ZM236.68 33.4687C236.68 30.9167 237.279 28.5859 238.477 26.4766C239.701 24.3411 241.445 22.6354 243.711 21.3594C246.003 20.0573 248.737 19.3932 251.914 19.3672C254.805 19.3672 257.227 19.9141 259.18 21.0078C261.159 22.0755 262.656 23.5078 263.672 25.3047C264.688 27.1016 265.195 29.0677 265.195 31.2031C265.195 33.7292 264.583 36.0729 263.359 38.2344C262.161 40.3958 260.43 42.1276 258.164 43.4297C255.898 44.7057 253.164 45.3307 249.961 45.3047C247.148 45.2786 244.753 44.7318 242.773 43.6641C240.794 42.5964 239.284 41.1641 238.242 39.3672C237.201 37.5703 236.68 35.6042 236.68 33.4687ZM245.391 75.6172C242.292 75.6172 239.492 75.2526 236.992 74.5234C234.492 73.7943 232.5 72.7266 231.016 71.3203C229.557 69.9401 228.828 68.2734 228.828 66.3203C228.828 64.0286 230.013 62.0885 232.383 60.5C234.779 58.9115 238.047 57.8307 242.188 57.2578L243.789 57.7266C240.742 58.4036 238.477 59.4323 236.992 60.8125C235.508 62.1927 234.766 63.8594 234.766 65.8125C234.766 68.0521 235.794 69.9141 237.852 71.3984C239.909 72.9089 242.552 73.6641 245.781 73.6641C247.891 73.6641 249.805 73.3385 251.523 72.6875C253.268 72.0365 254.648 71.125 255.664 69.9531C256.68 68.7812 257.188 67.4141 257.188 65.8516C257.188 64.263 256.602 62.9089 255.43 61.7891C254.284 60.6953 252.305 59.849 249.492 59.25L243.32 58C240.82 57.4792 238.984 56.6458 237.812 55.5C236.641 54.3281 236.042 52.9609 236.016 51.3984C236.016 49.7318 236.758 48.2734 238.242 47.0234C239.727 45.7474 242.109 44.8229 245.391 44.25L246.914 44.7187C245.091 45.0312 243.75 45.5521 242.891 46.2812C242.057 47.0104 241.641 47.8047 241.641 48.6641C241.667 49.4193 241.992 50.0964 242.617 50.6953C243.268 51.2943 244.453 51.776 246.172 52.1406L252.617 53.5078C256.315 54.2891 258.971 55.526 260.586 57.2187C262.227 58.8854 263.047 60.9948 263.047 63.5469C263.047 66.0469 262.174 68.2083 260.43 70.0312C258.711 71.8542 256.497 73.2344 253.789 74.1719C251.081 75.1354 248.281 75.6172 245.391 75.6172ZM290.586 0.304687L283.711 31.4766C284.805 28.6901 286.107 26.3984 287.617 24.6016C289.154 22.8047 290.82 21.4896 292.617 20.6562C294.414 19.7969 296.237 19.3672 298.086 19.3672C301.445 19.3672 303.88 20.4219 305.391 22.5312C306.927 24.6406 307.266 27.7005 306.406 31.7109L302.188 51.3984C301.927 52.5703 301.979 53.4557 302.344 54.0547C302.734 54.6276 303.372 54.9141 304.258 54.9141C304.909 54.9141 305.664 54.7839 306.523 54.5234C307.383 54.237 308.125 53.8073 308.75 53.2344L308.438 54.875C307.63 55.9687 306.38 56.8672 304.688 57.5703C303.021 58.2474 301.393 58.5859 299.805 58.5859C297.799 58.5859 296.367 57.9479 295.508 56.6719C294.674 55.3958 294.557 53.3776 295.156 50.6172L299.375 30.8125C299.922 28.3385 299.831 26.3984 299.102 24.9922C298.398 23.5599 296.979 22.8437 294.844 22.8437C293.333 22.8437 291.797 23.3776 290.234 24.4453C288.672 25.513 287.253 27.0104 285.977 28.9375C284.701 30.8385 283.737 33.0521 283.086 35.5781L278.32 58H271.133L282.07 6.75C282.253 5.78646 282.214 5.09635 281.953 4.67969C281.719 4.23698 281.107 3.88542 280.117 3.625L277.5 3.11719L277.852 1.59375L290.586 0.304687ZM323.75 58.625C320.807 58.625 318.646 57.5573 317.266 55.4219C315.885 53.2865 315.599 50.2917 316.406 46.4375L321.25 23.5078H316.016L316.328 22.1016L321.797 20.9687L323.438 13.1562L330.898 11.9062L328.906 21.2422L339.062 20.8125L338.477 23.5078L328.477 23.1953L323.438 47.0234C322.839 49.8359 322.904 51.8802 323.633 53.1562C324.388 54.4062 325.69 55.0312 327.539 55.0312C328.711 55.0312 329.792 54.8229 330.781 54.4062C331.771 53.9635 332.578 53.3906 333.203 52.6875L332.891 54.3281C332.318 55.2396 331.549 56.0208 330.586 56.6719C329.622 57.3229 328.555 57.8047 327.383 58.1172C326.211 58.4557 325 58.625 323.75 58.625Z" fill="#AF001B"/>
</svg>
