<svg width="601" height="537" viewBox="0 0 601 537" fill="none" xmlns="http://www.w3.org/2000/svg">
<path d="M46.3331 196.692C48.4015 198.797 49.2509 201.41 48.8812 204.532C48.5118 207.631 46.9905 210.494 44.3175 213.121C43.4376 213.985 42.4091 214.81 41.2318 215.595C40.0656 216.368 38.6508 217.168 36.9874 217.992L36.5113 217.508C35.6905 216.672 34.7102 215.775 33.5703 214.815C32.4194 213.845 31.5419 213.185 30.9376 212.838L31.6267 211.701C33.9416 213.389 36.0712 214.186 38.0153 214.092C39.9485 213.988 41.8562 213.011 43.7385 211.161C45.3645 209.564 46.2525 207.772 46.4025 205.785C46.5414 203.788 45.9433 202.11 44.6082 200.751C43.5029 199.626 42.1552 199.068 40.5651 199.076C38.9862 199.073 36.9991 199.658 34.6039 200.829L33.2233 201.496C30.2958 202.928 27.8941 203.58 26.0181 203.454C24.1422 203.327 22.4217 202.467 20.8568 200.874C19.0072 198.992 18.244 196.633 18.567 193.799C18.8899 190.964 20.2042 188.414 22.5096 186.148C23.3338 185.338 24.307 184.535 25.4292 183.739C26.5404 182.932 27.6729 182.224 28.8265 181.616C29.505 182.306 30.2005 182.947 30.9131 183.539C31.6258 184.108 32.5584 184.779 33.711 185.551L33.172 186.573C31.2495 185.463 29.509 185.006 27.9504 185.202C26.3809 185.387 24.7942 186.268 23.1904 187.844C21.6646 189.343 20.8392 190.92 20.7142 192.575C20.5893 194.23 21.1616 195.704 22.4311 196.996C23.4488 198.032 24.6865 198.545 26.1441 198.536C27.5907 198.515 29.5172 197.914 31.9236 196.731L33.2874 196.081C36.4146 194.54 38.9603 193.845 40.9244 193.995C42.8996 194.134 44.7025 195.033 46.3331 196.692Z" fill="#AF001B"/>
<path d="M69.5162 150.674C69.3706 150.739 69.2341 150.816 69.1066 150.906C68.5071 151.33 68.0818 151.783 67.8306 152.266C67.5831 152.728 67.5034 153.224 67.5913 153.754C67.6597 154.203 68.0521 155.016 68.7683 156.192C69.4755 157.356 70.676 159.136 72.3696 161.534L77.6262 168.976C80.1666 172.572 81.2497 175.946 80.8755 179.097C80.5013 182.248 78.6818 184.977 75.4168 187.283C71.833 189.814 68.3602 190.757 64.9982 190.111C61.6491 189.457 58.6772 187.293 56.0827 183.62C55.326 182.548 54.1965 180.909 52.6943 178.701C51.1831 176.48 50.0897 174.892 49.414 173.935C47.5852 171.346 46.2356 169.814 45.365 169.339C44.4981 168.843 43.529 168.973 42.4577 169.73C42.3302 169.82 42.2053 169.927 42.083 170.052L41.5155 169.248C41.9453 168.964 42.7759 168.435 44.007 167.661C45.2291 166.874 46.0761 166.314 46.548 165.98C47.2112 165.512 48.3594 164.634 49.9926 163.347C50.7398 162.781 51.3129 162.347 51.712 162.046L52.2796 162.849C52.134 162.914 51.9911 162.996 51.8508 163.095C50.652 163.942 50.082 164.813 50.1408 165.708C50.2033 166.581 50.9058 167.968 52.248 169.869L60.2748 181.232C62.3287 184.14 64.6165 185.917 67.138 186.564C69.6505 187.198 72.0737 186.691 74.4076 185.042C77.2006 183.069 78.6718 180.835 78.8211 178.34C78.9831 175.836 77.839 172.85 75.3886 169.381C72.3707 165.108 70.0514 161.919 68.4307 159.814C66.8009 157.696 65.6929 156.453 65.1068 156.083C64.4013 155.625 63.7915 155.425 63.2775 155.482C62.7635 155.54 62.1558 155.816 61.4543 156.311C61.3013 156.42 61.1846 156.511 61.1044 156.587C61.0279 156.641 60.9622 156.697 60.9075 156.755L60.3264 155.932C60.7908 155.643 61.5557 155.169 62.621 154.512C63.6773 153.843 64.5243 153.283 65.162 152.832C65.787 152.391 66.4366 151.903 67.1111 151.369C67.7855 150.836 68.398 150.336 68.9487 149.871L69.5162 150.674Z" fill="#AF001B"/>
<path d="M104.052 142.561C103.013 140.427 101.438 139.067 99.3282 138.479C97.2324 137.885 94.9913 138.169 92.6049 139.332C92.1136 139.571 91.6256 139.835 91.1407 140.123C90.6491 140.397 90.1957 140.679 89.7807 140.968C90.5592 142.673 91.4099 144.491 92.3328 146.42C93.2696 148.344 94.7023 151.284 96.6308 155.243C97.2125 155.046 97.7381 154.86 98.2078 154.683C98.6848 154.485 99.1267 154.288 99.5338 154.089C101.948 152.913 103.572 151.254 104.404 149.111C105.243 146.948 105.126 144.765 104.052 142.561ZM108.266 140.247C109.586 142.957 109.554 145.743 108.169 148.606C106.792 151.448 104.384 153.706 100.945 155.382C100.243 155.724 99.2439 156.132 97.9471 156.608C97.6947 156.696 97.509 156.76 97.3899 156.801C99.2295 160.577 100.551 163.164 101.353 164.562C102.17 165.953 102.88 166.806 103.485 167.119C103.95 167.361 104.434 167.464 104.938 167.427C105.441 167.391 106.064 167.191 106.808 166.829C107.089 166.692 107.37 166.538 107.651 166.366L108.092 167.271C107.805 167.394 107.387 167.571 106.84 167.803C104.574 168.785 102.873 169.553 101.736 170.107C100.487 170.716 98.7523 171.63 96.533 172.851C96.2029 173.029 95.9571 173.166 95.7955 173.262L95.3544 172.357C95.4314 172.336 95.5365 172.303 95.6697 172.255C95.81 172.187 95.9995 172.094 96.2382 171.978C97.4875 171.369 98.0965 170.552 98.0652 169.525C98.0339 168.498 97.307 166.525 95.8846 163.605L88.3246 148.087C87.0663 145.504 86.0803 143.943 85.3665 143.405C84.66 142.846 83.661 142.881 82.3696 143.51C82.1871 143.599 82.0571 143.671 81.9798 143.726C81.8955 143.767 81.8147 143.815 81.7373 143.87L81.2963 142.965C81.5137 142.877 81.8538 142.737 82.3167 142.546C84.4208 141.66 86.0625 140.93 87.2416 140.355C87.775 140.095 88.7054 139.599 90.0329 138.865C91.3675 138.111 92.4068 137.552 93.1508 137.19C96.5197 135.549 99.5631 135.004 102.281 135.556C105.006 136.087 107.001 137.651 108.266 140.247Z" fill="#AF001B"/>
<path d="M148.483 144.734C148.463 146.166 148.477 147.472 148.525 148.653C148.568 149.819 148.646 150.916 148.761 151.945C148.205 152.105 147.38 152.343 146.284 152.659C142.813 153.647 140.037 154.473 137.953 155.135C135.037 156.063 131.085 157.393 126.098 159.126L125.681 159.283L125.376 158.323C125.455 158.315 125.564 158.296 125.702 158.269C125.851 158.221 126.052 158.157 126.305 158.077C127.615 157.661 128.321 156.92 128.425 155.855C128.539 154.77 128.146 152.814 127.247 149.987L121.939 133.291C121.068 130.553 120.319 128.866 119.691 128.23C119.073 127.574 118.079 127.464 116.71 127.9C116.517 127.961 116.378 128.013 116.293 128.057C116.204 128.085 116.117 128.121 116.032 128.164L115.734 127.227L116.456 127.022C121.843 125.62 125.69 124.553 127.996 123.819C129.157 123.45 130.611 122.947 132.358 122.31C134.115 121.653 135.96 120.935 137.892 120.157C138.18 121.065 138.527 122.028 138.933 123.046C139.334 124.049 139.831 125.201 140.425 126.503L139.553 126.928C138.28 125.039 137.115 124.001 136.056 123.813C135.011 123.621 133.105 123.965 130.338 124.845C129.341 125.162 128.319 125.503 127.271 125.869C126.235 126.215 125.321 126.538 124.532 126.838C124.919 128.157 125.381 129.689 125.92 131.435C126.454 133.166 127.289 135.817 128.424 139.388C128.796 139.319 129.165 139.243 129.531 139.159C129.908 139.056 130.312 138.935 130.744 138.798L134.851 137.492C136.978 136.816 138.363 136.146 139.004 135.484C139.661 134.816 139.857 133.861 139.592 132.618L140.536 132.416C140.602 132.985 140.709 133.606 140.858 134.28C141.017 134.934 141.217 135.64 141.458 136.399C141.69 137.128 141.939 137.835 142.207 138.521C142.488 139.201 142.802 139.904 143.148 140.63L142.268 141.033C141.685 139.612 140.921 138.782 139.977 138.541C139.047 138.296 137.518 138.512 135.39 139.189L131.283 140.495C130.836 140.637 130.432 140.782 130.069 140.93C129.717 141.058 129.377 141.199 129.049 141.352C129.683 143.346 130.405 145.566 131.215 148.012C132.041 150.453 132.772 152.547 133.41 154.294C134.474 154.087 135.561 153.848 136.671 153.577C137.777 153.291 138.783 153.004 139.691 152.715C142.548 151.807 144.497 150.851 145.538 149.848C146.589 148.826 147.233 147.114 147.469 144.712L148.483 144.734Z" fill="#AF001B"/>
<path d="M175.534 122.402C175.174 120.087 174.094 118.327 172.295 117.122C170.496 115.916 168.331 115.51 165.801 115.904C165.338 115.976 164.84 116.077 164.307 116.207C163.79 116.335 163.304 116.466 162.851 116.599C163.103 118.425 163.387 120.403 163.703 122.535C164.016 124.651 164.484 127.707 165.105 131.703C165.29 131.675 165.563 131.648 165.922 131.624C167.171 131.524 168.166 131.417 168.906 131.302C169.956 131.139 170.726 131.011 171.217 130.919C171.724 130.824 172.137 130.736 172.456 130.655C173.733 129.619 174.627 128.405 175.137 127.014C175.663 125.621 175.795 124.083 175.534 122.402ZM190.823 144.201L190.143 144.402C189.538 144.575 188.983 144.717 188.479 144.827C187.992 144.95 187.525 145.046 187.078 145.116C185.504 145.36 184.17 145.315 183.075 144.98C181.98 144.644 180.936 143.93 179.944 142.835C179.356 142.2 178.534 141.285 177.479 140.09C177.134 139.701 176.875 139.41 176.703 139.215L174.055 136.214C173.157 135.216 172.406 134.4 171.802 133.767C171.214 133.132 170.838 132.748 170.675 132.615C170.147 132.776 169.539 132.934 168.852 133.088C168.181 133.24 167.505 133.369 166.826 133.474L165.415 133.694L166.296 139.364C166.803 142.619 167.352 144.675 167.943 145.531C168.547 146.37 169.575 146.676 171.025 146.451C171.226 146.419 171.372 146.397 171.465 146.382C171.571 146.35 171.662 146.328 171.739 146.316L171.89 147.288C171.767 147.307 171.58 147.328 171.331 147.351C168.563 147.639 166.601 147.874 165.443 148.053C164.302 148.231 162.368 148.603 159.644 149.169C159.384 149.225 159.2 149.262 159.092 149.278L158.93 148.237C159.009 148.24 159.12 148.239 159.261 148.233C159.415 148.209 159.624 148.176 159.886 148.136C161.244 147.924 162.055 147.3 162.321 146.264C162.599 145.209 162.51 143.216 162.055 140.284L159.362 122.973C158.921 120.134 158.438 118.352 157.915 117.628C157.404 116.886 156.439 116.625 155.02 116.846C154.819 116.877 154.674 116.907 154.584 116.937C154.491 116.951 154.4 116.974 154.31 117.003L154.155 116.008L154.436 115.988C157.037 115.742 158.931 115.526 160.119 115.341C160.906 115.219 162.003 115.009 163.411 114.711C164.831 114.395 165.935 114.176 166.722 114.054C170.286 113.5 173.314 113.866 175.805 115.154C178.31 116.423 179.764 118.354 180.167 120.946C180.448 122.752 180.17 124.47 179.333 126.101C178.494 127.717 177.097 129.254 175.143 130.711L182.142 138.369C184.288 140.69 185.845 142.163 186.811 142.787C187.792 143.408 188.846 143.632 189.973 143.457L190.69 143.345L190.823 144.201Z" fill="#AF001B"/>
<path d="M208.835 144.161C208.726 144.164 208.554 144.161 208.319 144.152C205.506 144.093 203.436 144.083 202.109 144.122C200.798 144.16 198.74 144.29 195.934 144.512C195.685 144.534 195.514 144.547 195.42 144.55L195.391 143.543C195.469 143.557 195.563 143.569 195.673 143.582C195.798 143.578 196.024 143.572 196.352 143.562C197.835 143.519 198.789 143.031 199.215 142.097C199.641 141.163 199.806 139.057 199.711 135.779L199.211 118.525C199.127 115.622 198.862 113.786 198.418 113.018C197.974 112.234 196.979 111.865 195.434 111.909C195.231 111.915 195.083 111.927 194.99 111.946C194.896 111.948 194.803 111.959 194.709 111.977L194.68 110.971C194.79 110.983 194.946 110.986 195.149 110.98C198.025 111.053 200.026 111.073 201.149 111.041C202.304 111.007 204.269 110.88 207.043 110.659C207.292 110.636 207.487 110.615 207.627 110.595L207.656 111.602C207.562 111.589 207.468 111.584 207.375 111.586C207.28 111.573 207.132 111.57 206.929 111.576C205.384 111.621 204.412 112.047 204.014 112.855C203.615 113.648 203.458 115.496 203.542 118.399L204.043 135.654C204.138 138.931 204.425 141.024 204.904 141.932C205.384 142.839 206.365 143.272 207.847 143.229C208.175 143.219 208.394 143.213 208.503 143.21C208.627 143.19 208.728 143.172 208.806 143.154L208.835 144.161Z" fill="#AF001B"/>
<path d="M247.52 131.125C248.061 126.157 247.392 122.056 245.514 118.82C243.636 115.584 240.927 113.774 237.388 113.389C234.206 113.042 231.437 114.092 229.082 116.537C226.728 118.967 225.314 122.363 224.84 126.725C224.299 131.692 224.962 135.777 226.828 138.98C228.711 142.169 231.43 143.957 234.985 144.344C238.183 144.692 240.949 143.666 243.283 141.266C245.635 138.851 247.047 135.471 247.52 131.125ZM252.863 130.74C252.343 135.521 250.279 139.404 246.672 142.388C243.081 145.359 238.958 146.591 234.301 146.084C229.38 145.548 225.543 143.497 222.79 139.931C220.037 136.364 218.931 132.089 219.474 127.107C219.987 122.388 222.064 118.53 225.704 115.533C229.362 112.523 233.472 111.266 238.036 111.763C242.895 112.292 246.714 114.356 249.495 117.957C252.278 121.543 253.4 125.804 252.863 130.74Z" fill="#AF001B"/>
<path d="M285.489 131.793C286.132 129.54 285.889 127.49 284.761 125.641C283.632 123.793 281.837 122.517 279.374 121.814C278.924 121.685 278.43 121.568 277.891 121.463C277.368 121.363 276.872 121.278 276.405 121.209C275.869 122.973 275.298 124.888 274.691 126.956C274.089 129.008 273.232 131.979 272.122 135.868C272.302 135.919 272.561 136.009 272.897 136.138C274.073 136.571 275.021 136.89 275.742 137.096C276.763 137.388 277.515 137.595 278 137.717C278.5 137.843 278.912 137.936 279.236 137.996C280.829 137.591 282.149 136.864 283.196 135.815C284.257 134.77 285.022 133.429 285.489 131.793ZM290.236 157.993L289.534 157.89C288.912 157.794 288.349 157.69 287.845 157.578C287.352 157.486 286.887 157.378 286.452 157.254C284.92 156.816 283.728 156.216 282.874 155.452C282.02 154.689 281.372 153.603 280.93 152.194C280.662 151.37 280.299 150.195 279.842 148.668C279.692 148.17 279.579 147.797 279.504 147.548L278.358 143.714C277.961 142.431 277.621 141.376 277.338 140.548C277.07 139.724 276.889 139.218 276.797 139.03C276.25 138.955 275.632 138.843 274.944 138.695C274.27 138.552 273.603 138.386 272.943 138.197L271.569 137.805L269.993 143.323C269.089 146.491 268.726 148.587 268.904 149.612C269.101 150.627 269.906 151.336 271.317 151.739C271.512 151.794 271.655 151.835 271.745 151.861C271.854 151.876 271.947 151.894 272.022 151.915L271.752 152.861C271.632 152.827 271.454 152.768 271.218 152.684C268.584 151.786 266.704 151.176 265.578 150.855C264.466 150.538 262.555 150.065 259.844 149.437C259.585 149.379 259.402 149.335 259.297 149.305L259.587 148.292C259.657 148.328 259.758 148.373 259.889 148.427C260.039 148.47 260.242 148.528 260.497 148.6C261.818 148.978 262.817 148.751 263.492 147.921C264.187 147.08 264.942 145.233 265.756 142.381L270.566 125.534C271.355 122.772 271.664 120.952 271.492 120.075C271.339 119.187 270.573 118.546 269.191 118.151C268.996 118.095 268.851 118.062 268.757 118.051C268.667 118.026 268.575 118.008 268.48 117.997L268.757 117.028L269.021 117.128C271.485 117.994 273.295 118.592 274.452 118.922C275.217 119.141 276.302 119.41 277.704 119.729C279.126 120.038 280.22 120.302 280.986 120.52C284.454 121.511 287.05 123.112 288.772 125.325C290.514 127.528 291.025 129.89 290.305 132.413C289.804 134.169 288.831 135.613 287.388 136.744C285.949 137.859 284.037 138.669 281.652 139.174L284.797 149.06C285.773 152.066 286.569 154.056 287.185 155.027C287.816 156.003 288.679 156.647 289.775 156.96L290.473 157.16L290.236 157.993Z" fill="#AF001B"/>
<path d="M394.048 186.405C395.524 184.546 396.072 182.538 395.691 180.382C395.322 178.235 394.099 176.336 392.02 174.685C391.592 174.345 391.143 174.018 390.674 173.705C390.215 173.38 389.765 173.093 389.325 172.843C388.123 174.281 386.851 175.833 385.508 177.499C384.178 179.174 382.143 181.735 379.405 185.184C379.833 185.623 380.228 186.017 380.59 186.365C380.974 186.709 381.344 187.023 381.698 187.304C383.801 188.975 385.999 189.723 388.29 189.549C390.604 189.372 392.523 188.324 394.048 186.405ZM397.953 189.207C396.079 191.567 393.552 192.741 390.372 192.728C387.214 192.712 384.137 191.514 381.141 189.135C380.53 188.65 379.73 187.925 378.741 186.96C378.553 186.77 378.415 186.631 378.327 186.541C375.714 189.83 373.951 192.138 373.036 193.466C372.134 194.803 371.672 195.812 371.65 196.492C371.632 197.016 371.748 197.498 371.999 197.936C372.249 198.374 372.698 198.85 373.346 199.365C373.591 199.559 373.851 199.746 374.127 199.925L373.501 200.714C373.266 200.507 372.926 200.207 372.481 199.814C370.617 198.194 369.19 196.991 368.199 196.204C367.111 195.34 365.538 194.17 363.479 192.695C363.176 192.474 362.946 192.311 362.79 192.207L363.416 191.418C363.468 191.479 363.543 191.559 363.644 191.659C363.766 191.756 363.931 191.887 364.139 192.052C365.227 192.917 366.228 193.113 367.141 192.642C368.053 192.17 369.52 190.663 371.54 188.119L382.275 174.602C384.062 172.352 385.044 170.789 385.221 169.913C385.421 169.035 384.958 168.149 383.833 167.255C383.674 167.129 383.553 167.043 383.47 166.997C383.397 166.939 383.318 166.886 383.235 166.84L383.862 166.052C384.035 166.21 384.308 166.456 384.68 166.791C386.387 168.307 387.755 169.473 388.782 170.288C389.247 170.657 390.096 171.282 391.331 172.163C392.587 173.041 393.54 173.738 394.188 174.253C397.122 176.583 398.927 179.094 399.602 181.783C400.3 184.471 399.75 186.945 397.953 189.207Z" fill="#AF001B"/>
<path d="M411.271 227.421C409.971 228.021 408.799 228.597 407.754 229.15C406.721 229.692 405.765 230.236 404.886 230.783C404.502 230.351 403.931 229.709 403.173 228.857C400.783 226.153 398.84 224.005 397.344 222.411C395.248 220.181 392.343 217.19 388.627 213.44L388.305 213.131L389.039 212.442C389.081 212.509 389.145 212.6 389.23 212.713C389.337 212.827 389.481 212.98 389.663 213.174C390.603 214.175 391.577 214.493 392.582 214.127C393.61 213.761 395.205 212.563 397.367 210.532L410.137 198.537C412.231 196.57 413.429 195.166 413.732 194.325C414.056 193.484 413.727 192.541 412.743 191.494C412.604 191.346 412.497 191.243 412.422 191.185C412.358 191.117 412.288 191.054 412.212 190.996L412.929 190.323L413.425 190.885C417.015 195.14 419.638 198.15 421.295 199.914C422.129 200.801 423.21 201.896 424.539 203.197C425.891 204.498 427.334 205.852 428.87 207.259C428.175 207.911 427.457 208.64 426.713 209.445C425.981 210.24 425.157 211.186 424.238 212.284L423.479 211.68C424.634 209.717 425.067 208.217 424.779 207.181C424.502 206.156 423.369 204.585 421.381 202.468C420.665 201.705 419.916 200.931 419.134 200.144C418.374 199.358 417.688 198.674 417.077 198.091C416.054 199.009 414.872 200.088 413.529 201.328C412.198 202.556 410.167 204.453 407.436 207.019C407.658 207.324 407.886 207.624 408.12 207.919C408.376 208.214 408.659 208.527 408.969 208.857L411.919 211.998C413.448 213.625 414.65 214.585 415.524 214.878C416.41 215.182 417.356 214.946 418.363 214.171L418.953 214.935C418.468 215.241 417.954 215.606 417.41 216.03C416.889 216.456 416.338 216.941 415.758 217.487C415.2 218.01 414.67 218.541 414.167 219.077C413.675 219.625 413.176 220.212 412.67 220.836L411.927 220.217C412.957 219.078 413.377 218.031 413.186 217.075C413.005 216.13 412.151 214.844 410.622 213.216L407.671 210.075C407.351 209.734 407.045 209.432 406.755 209.168C406.487 208.906 406.213 208.66 405.933 208.43C404.408 209.863 402.718 211.472 400.861 213.259C399.015 215.057 397.442 216.621 396.141 217.95C396.788 218.82 397.473 219.698 398.196 220.582C398.931 221.456 399.625 222.24 400.277 222.934C402.329 225.119 404.032 226.465 405.386 226.971C406.762 227.478 408.584 227.32 410.853 226.496L411.271 227.421Z" fill="#AF001B"/>
<path d="M443.086 242.178C445.018 240.855 446.14 239.121 446.451 236.978C446.761 234.835 446.193 232.707 444.746 230.594C444.482 230.207 444.176 229.802 443.828 229.377C443.489 228.966 443.162 228.585 442.846 228.233C441.308 229.249 439.646 230.359 437.859 231.564C436.085 232.76 433.53 234.5 430.194 236.786C430.3 236.94 430.441 237.175 430.618 237.488C431.247 238.572 431.773 239.423 432.197 240.041C432.797 240.917 433.244 241.557 433.539 241.96C433.844 242.377 434.101 242.711 434.312 242.964C435.798 243.669 437.278 243.951 438.753 243.811C440.237 243.685 441.681 243.14 443.086 242.178ZM430.02 265.379L429.545 264.852C429.128 264.381 428.761 263.942 428.444 263.534C428.123 263.149 427.835 262.769 427.579 262.395C426.679 261.081 426.144 259.858 425.973 258.725C425.803 257.593 425.998 256.343 426.557 254.976C426.876 254.171 427.346 253.035 427.969 251.567C428.171 251.088 428.322 250.729 428.423 250.49L429.988 246.806C430.501 245.565 430.913 244.536 431.223 243.718C431.542 242.912 431.726 242.408 431.775 242.203C431.402 241.797 430.998 241.317 430.562 240.763C430.135 240.223 429.728 239.669 429.339 239.103L428.532 237.924L423.798 241.167C421.08 243.028 419.462 244.411 418.945 245.314C418.45 246.221 418.617 247.28 419.446 248.491C419.561 248.658 419.645 248.781 419.697 248.858C419.772 248.939 419.831 249.012 419.876 249.077L419.064 249.633C418.993 249.529 418.894 249.37 418.766 249.156C417.311 246.783 416.253 245.114 415.591 244.148C414.938 243.194 413.768 241.611 412.082 239.397C411.919 239.187 411.807 239.037 411.745 238.947L412.614 238.351C412.646 238.424 412.694 238.523 412.761 238.648C412.849 238.777 412.968 238.951 413.118 239.17C413.895 240.303 414.808 240.766 415.858 240.558C416.929 240.354 418.689 239.414 421.137 237.737L435.591 227.837C437.961 226.214 439.36 225.009 439.788 224.224C440.237 223.444 440.056 222.461 439.244 221.275C439.129 221.108 439.039 220.99 438.973 220.921C438.92 220.844 438.861 220.771 438.795 220.703L439.626 220.134L439.765 220.379C441.11 222.618 442.122 224.234 442.801 225.226C443.252 225.883 443.915 226.782 444.791 227.923C445.689 229.068 446.363 229.969 446.813 230.626C448.851 233.602 449.827 236.492 449.741 239.295C449.677 242.102 448.562 244.247 446.398 245.73C444.891 246.762 443.221 247.253 441.388 247.202C439.568 247.143 437.579 246.546 435.421 245.412L431.534 255.031C430.366 257.969 429.71 260.008 429.564 261.149C429.427 262.303 429.68 263.35 430.325 264.29L430.735 264.889L430.02 265.379Z" fill="#AF001B"/>
<path d="M466.513 279.564L465.966 278.763C467.651 277.23 468.51 275.926 468.543 274.851C468.582 273.79 467.966 271.954 466.694 269.343C466.237 268.402 465.751 267.44 465.238 266.457C464.745 265.481 464.293 264.624 463.882 263.887C462.633 264.46 461.184 265.14 459.534 265.925C457.885 266.711 455.34 267.941 451.901 269.615C452.016 269.959 452.141 270.306 452.277 270.656C452.434 271.014 452.615 271.404 452.82 271.825L454.501 275.278C455.445 277.216 456.308 278.472 457.091 279.046C457.874 279.62 458.861 279.686 460.053 279.245L460.379 280.128C459.804 280.303 459.188 280.517 458.528 280.768C457.883 281.013 457.259 281.282 456.655 281.576C455.995 281.897 455.293 282.274 454.548 282.706C453.818 283.131 453.171 283.533 452.608 283.911L452.072 283.13C453.379 282.355 454.079 281.475 454.174 280.492C454.282 279.501 453.858 278.023 452.901 276.058L451.22 272.604C451.015 272.183 450.813 271.804 450.614 271.466C450.436 271.136 450.247 270.82 450.048 270.517C445.611 272.677 442.582 274.213 440.959 275.124C439.35 276.029 438.392 276.791 438.085 277.409C437.843 277.874 437.74 278.359 437.777 278.862C437.813 279.365 438.012 279.989 438.375 280.733C438.511 281.013 438.666 281.294 438.837 281.576L437.932 282.016C437.809 281.729 437.632 281.311 437.4 280.764C436.419 278.498 435.651 276.797 435.097 275.659C434.489 274.41 433.575 272.675 432.356 270.456C432.178 270.125 432.041 269.88 431.945 269.718L432.85 269.277C432.87 269.354 432.904 269.459 432.951 269.592C433.02 269.733 433.112 269.922 433.228 270.161C433.837 271.411 434.654 272.02 435.681 271.989C436.708 271.958 438.681 271.231 441.602 269.81L457.122 262.254C459.705 260.997 461.266 260.011 461.804 259.298C462.364 258.591 462.329 257.592 461.7 256.301C461.611 256.118 461.539 255.988 461.484 255.911C461.443 255.826 461.395 255.746 461.34 255.668L462.225 255.238L462.532 255.922C464.698 261.05 466.311 264.702 467.37 266.878C467.903 267.973 468.611 269.339 469.495 270.975C470.399 272.619 471.376 274.34 472.426 276.139C471.569 276.556 470.667 277.039 469.718 277.587C468.784 278.129 467.715 278.788 466.513 279.564Z" fill="#AF001B"/>
<path d="M469.235 321.567C474.018 320.121 477.531 317.902 479.775 314.908C482.018 311.914 482.625 308.713 481.596 305.305C480.67 302.241 478.621 300.103 475.45 298.892C472.293 297.676 468.615 297.703 464.414 298.972C459.631 300.417 456.131 302.624 453.913 305.594C451.714 308.575 451.132 311.777 452.166 315.2C453.096 318.279 455.122 320.423 458.245 321.633C461.386 322.853 465.05 322.831 469.235 321.567ZM471.678 326.334C467.075 327.725 462.694 327.344 458.536 325.191C454.398 323.048 451.652 319.735 450.297 315.25C448.866 310.512 449.253 306.179 451.458 302.25C453.664 298.321 457.166 295.632 461.964 294.182C466.508 292.809 470.871 293.212 475.052 295.39C479.253 297.579 482.018 300.871 483.345 305.265C484.759 309.944 484.352 314.267 482.126 318.235C479.914 322.198 476.432 324.897 471.678 326.334Z" fill="#AF001B"/>
<path d="M483.47 356.776C485.794 356.487 487.586 355.462 488.846 353.7C490.107 351.938 490.579 349.787 490.263 347.246C490.205 346.781 490.119 346.28 490.005 345.744C489.893 345.223 489.777 344.734 489.657 344.276C487.825 344.473 485.839 344.696 483.699 344.946C481.574 345.195 478.505 345.568 474.492 346.067C474.515 346.253 474.533 346.526 474.546 346.887C474.607 348.138 474.684 349.135 474.777 349.879C474.908 350.933 475.012 351.707 475.089 352.2C475.168 352.71 475.243 353.125 475.315 353.447C476.311 354.755 477.497 355.685 478.872 356.238C480.248 356.807 481.781 356.986 483.47 356.776ZM461.213 371.391L461.033 370.705C460.879 370.095 460.754 369.536 460.66 369.029C460.551 368.539 460.469 368.069 460.414 367.62C460.217 366.039 460.303 364.707 460.672 363.622C461.041 362.538 461.787 361.517 462.911 360.559C463.564 359.99 464.504 359.197 465.73 358.179C466.13 357.846 466.429 357.596 466.629 357.43L469.71 354.875C470.735 354.008 471.573 353.283 472.224 352.698C472.877 352.129 473.272 351.765 473.41 351.607C473.265 351.074 473.126 350.462 472.993 349.77C472.862 349.094 472.754 348.416 472.669 347.734L472.493 346.316L466.798 347.024C463.529 347.43 461.457 347.916 460.583 348.481C459.727 349.059 459.389 350.077 459.57 351.534C459.595 351.735 459.614 351.882 459.625 351.975C459.654 352.082 459.673 352.174 459.683 352.251L458.707 352.373C458.691 352.249 458.676 352.062 458.661 351.812C458.457 349.036 458.283 347.068 458.139 345.905C457.996 344.759 457.684 342.815 457.202 340.074C457.153 339.813 457.122 339.628 457.109 339.519L458.155 339.389C458.149 339.469 458.147 339.579 458.149 339.72C458.168 339.875 458.194 340.085 458.227 340.348C458.396 341.712 458.995 342.542 460.023 342.839C461.069 343.149 463.064 343.122 466.008 342.756L483.394 340.594C486.245 340.24 488.04 339.812 488.781 339.311C489.538 338.823 489.828 337.867 489.651 336.441C489.626 336.24 489.6 336.094 489.573 336.003C489.561 335.91 489.542 335.818 489.515 335.727L490.514 335.602L490.526 335.884C490.693 338.491 490.85 340.391 490.999 341.584C491.097 342.375 491.273 343.478 491.528 344.894C491.8 346.323 491.985 347.433 492.084 348.223C492.529 351.803 492.069 354.818 490.706 357.269C489.361 359.733 487.386 361.127 484.783 361.451C482.97 361.676 481.261 361.346 479.656 360.46C478.067 359.572 476.573 358.129 475.176 356.131L467.308 362.892C464.922 364.966 463.403 366.477 462.749 367.424C462.098 368.386 461.843 369.432 461.983 370.564L462.073 371.284L461.213 371.391Z" fill="#AF001B"/>
<path d="M459.014 417.156C459.022 417.031 459.051 416.822 459.1 416.528C459.369 414.229 459.542 412.448 459.621 411.186C459.687 410.126 459.734 408.369 459.761 405.915C459.772 405.493 459.776 405.172 459.774 404.953L460.779 405.016C460.771 405.156 460.752 405.327 460.724 405.529C460.696 405.73 460.679 405.878 460.673 405.971C460.603 407.093 460.779 407.902 461.202 408.398C461.64 408.91 462.435 409.202 463.588 409.274C466.051 409.428 469.516 409.55 473.985 409.64C478.468 409.747 483.002 409.803 487.585 409.807L486.875 409.528L466.425 398.398C465.336 397.798 464.372 397.323 463.533 396.974C462.693 396.64 461.78 396.356 460.794 396.123L460.868 394.931C461.389 394.853 461.968 394.717 462.606 394.523C463.244 394.328 464.548 393.861 466.519 393.124L487.929 385.07L489.399 384.458L485.581 383.962C482.4 383.545 479.099 383.167 475.678 382.829C472.258 382.491 469.036 382.227 466.012 382.039C464.516 381.946 463.488 382.132 462.927 382.598C462.365 383.079 462.041 384.005 461.956 385.377C461.945 385.548 461.946 385.791 461.957 386.104L460.952 386.042C460.978 385.871 461.01 385.615 461.047 385.273C461.309 383.084 461.469 381.506 461.53 380.539C461.585 379.651 461.617 378.253 461.627 376.345C461.626 375.86 461.624 375.5 461.623 375.265L462.629 375.328C462.577 375.653 462.546 375.894 462.537 376.05C462.489 376.813 462.561 377.42 462.752 377.87C462.942 378.335 463.286 378.717 463.784 379.014C464.343 379.33 466.927 379.781 471.537 380.365C472.127 380.449 472.561 380.507 472.841 380.54L479.965 381.453C480.57 381.538 482.354 381.782 485.317 382.185C488.295 382.59 490.096 382.812 490.72 382.851C491.795 382.917 492.597 382.717 493.127 382.25C493.657 381.782 493.955 381.01 494.022 379.935C494.032 379.779 494.027 379.615 494.006 379.441L495.011 379.504C494.987 379.643 494.958 379.853 494.925 380.132C494.665 382.056 494.513 383.361 494.47 384.046C494.44 384.529 494.425 385.146 494.425 385.897C494.425 386.664 494.431 387.439 494.445 388.222C494.26 388.179 494.113 388.146 494.005 388.124C493.912 388.103 493.827 388.09 493.749 388.085C492.892 388.031 491.045 388.558 488.207 389.664C487.742 389.838 487.389 389.973 487.149 390.067L468.416 397.325L483.757 405.72C487.327 407.679 489.53 408.848 490.367 409.229C491.203 409.625 491.878 409.839 492.392 409.872C492.47 409.876 492.556 409.874 492.651 409.864C492.761 409.855 492.91 409.841 493.099 409.822C493.063 410.148 493.004 410.598 492.921 411.172C492.752 412.381 492.647 413.314 492.606 413.968C492.573 414.498 492.553 415.201 492.545 416.076C492.552 416.969 492.561 417.704 492.572 418.284L491.59 418.223C491.631 418.069 491.657 417.914 491.666 417.758C491.747 416.465 491.562 415.546 491.111 415.001C490.674 414.474 489.871 414.173 488.703 414.1C488.251 414.072 487.166 414.036 485.447 413.992C483.728 413.963 482.032 413.943 480.359 413.933L471.727 413.864C468.505 413.851 466.205 413.849 464.828 413.857C463.466 413.882 462.548 413.926 462.074 413.991C461.364 414.087 460.857 414.322 460.552 414.694C460.246 415.081 460.068 415.68 460.018 416.491L460.019 417.218L459.014 417.156Z" fill="#AF001B"/>
<path d="M467.067 446.253L482.682 445.097L469.58 436.162C469.373 436.674 469.125 437.408 468.838 438.367C468.548 439.34 468.306 440.214 468.114 440.986C467.929 441.729 467.733 442.613 467.525 443.64C467.318 444.666 467.165 445.537 467.067 446.253ZM449.812 454.966C449.891 454.712 450.016 454.309 450.186 453.756C450.809 451.706 451.243 450.189 451.488 449.204C451.786 448.007 452.152 446.312 452.586 444.119C452.718 443.46 452.817 442.962 452.885 442.625L453.863 442.868C453.795 443.012 453.74 443.168 453.698 443.334C453.449 444.334 453.437 445.128 453.661 445.714C453.881 446.316 454.339 446.704 455.036 446.878C455.658 447.032 456.635 447.083 457.968 447.028C459.316 446.978 461.679 446.762 465.057 446.38C465.306 445.573 465.557 444.694 465.81 443.743C466.078 442.796 466.353 441.755 466.636 440.618C466.923 439.467 467.168 438.418 467.372 437.471C467.587 436.543 467.758 435.724 467.886 435.016C467.504 434.744 466.964 434.36 466.266 433.864C462.594 431.293 460.281 429.888 459.327 429.65C458.63 429.477 458.045 429.596 457.572 430.01C457.095 430.438 456.732 431.152 456.483 432.152C456.445 432.304 456.421 432.467 456.409 432.641L455.438 432.375C455.74 431.484 456.018 430.596 456.27 429.71C456.535 428.842 456.757 428.045 456.939 427.318C457.116 426.605 457.293 425.797 457.47 424.891C457.659 424.005 457.828 423.098 457.979 422.17L458.962 422.391C458.894 422.535 458.839 422.69 458.798 422.857C458.628 423.538 458.687 424.237 458.976 424.953C459.276 425.687 459.784 426.361 460.5 426.974C461.466 427.81 463.807 429.559 467.52 432.222C471.234 434.884 477.701 439.448 486.921 445.911L486.106 449.184C479.017 449.736 472.57 450.262 466.765 450.764C460.956 451.28 456.876 451.672 454.524 451.94C453.415 452.066 452.582 452.341 452.025 452.766C451.465 453.205 451.078 453.857 450.863 454.721C450.821 454.887 450.797 455.05 450.789 455.209L449.812 454.966Z" fill="#AF001B"/>
<path d="M443.412 490.405C443.023 489.884 442.344 489.146 441.375 488.191C440.406 487.237 439.557 486.461 438.827 485.862C438.726 484.343 438.854 482.684 439.211 480.885C439.562 479.1 440.085 477.389 440.781 475.75C442.82 470.95 445.85 467.691 449.872 465.972C453.907 464.259 458.275 464.401 462.974 466.397C467.832 468.46 471.129 471.642 472.865 475.942C474.601 480.242 474.437 484.821 472.374 489.679C471.66 491.36 470.804 492.956 469.806 494.466C468.817 495.997 467.695 497.42 466.44 498.736C466.193 498.598 465.915 498.454 465.605 498.305C465.295 498.157 464.996 498.021 464.709 497.899C463.947 497.576 463.091 497.255 462.141 496.936C461.199 496.637 460.305 496.385 459.46 496.179L459.69 494.978C462.211 495.592 464.442 495.352 466.382 494.259C468.316 493.18 469.857 491.29 471.005 488.588C472.537 484.981 472.525 481.735 470.967 478.851C469.404 475.982 466.345 473.58 461.789 471.644C457.549 469.844 453.59 469.46 449.911 470.492C446.246 471.531 443.66 473.826 442.152 477.376C441.285 479.416 441.032 481.531 441.391 483.72C441.759 485.929 442.702 487.924 444.218 489.705L443.412 490.405Z" fill="#AF001B"/>
<path d="M424.344 520.737C423.433 519.632 422.577 518.645 421.777 517.776C420.989 516.915 420.22 516.129 419.467 515.418C419.787 514.937 420.262 514.221 420.893 513.272C422.9 510.272 424.483 507.846 425.643 505.993C427.267 503.399 429.419 499.828 432.1 495.28L432.316 494.89L433.17 495.424C433.115 495.482 433.044 495.567 432.956 495.677C432.874 495.81 432.762 495.988 432.621 496.213C431.892 497.378 431.832 498.4 432.443 499.279C433.058 500.18 434.623 501.418 437.137 502.992L451.987 512.287C454.423 513.812 456.086 514.613 456.976 514.691C457.871 514.791 458.7 514.232 459.462 513.015C459.57 512.843 459.642 512.713 459.679 512.625C459.728 512.546 459.771 512.462 459.808 512.374L460.642 512.896L460.224 513.519C457.023 518.074 454.781 521.377 453.497 523.428C452.851 524.46 452.068 525.785 451.148 527.401C450.233 529.039 449.291 530.78 448.322 532.623C447.514 532.118 446.627 531.608 445.659 531.094C444.704 530.589 443.579 530.032 442.283 529.424L442.674 528.535C444.866 529.152 446.427 529.19 447.356 528.647C448.277 528.118 449.507 526.623 451.048 524.161C451.603 523.274 452.162 522.353 452.724 521.397C453.29 520.462 453.777 519.625 454.185 518.885C453.037 518.13 451.693 517.261 450.153 516.278C448.626 515.304 446.274 513.823 443.097 511.834C442.859 512.127 442.627 512.424 442.401 512.725C442.181 513.048 441.951 513.401 441.711 513.785L439.424 517.438C438.239 519.33 437.617 520.737 437.557 521.657C437.488 522.59 437.957 523.446 438.963 524.223L438.374 524.987C437.955 524.596 437.471 524.192 436.922 523.774C436.378 523.378 435.768 522.969 435.093 522.547C434.445 522.141 433.797 521.763 433.15 521.413C432.495 521.077 431.801 520.744 431.068 520.414L431.478 519.538C432.841 520.244 433.961 520.383 434.837 519.954C435.704 519.54 436.73 518.386 437.915 516.493L440.202 512.84C440.45 512.443 440.665 512.071 440.846 511.723C441.031 511.398 441.199 511.07 441.35 510.741C439.577 509.631 437.59 508.405 435.389 507.065C433.181 505.737 431.268 504.614 429.651 503.694C428.974 504.541 428.3 505.427 427.629 506.352C426.971 507.285 426.39 508.155 425.884 508.962C424.293 511.504 423.426 513.493 423.281 514.932C423.141 516.391 423.758 518.113 425.132 520.097L424.344 520.737Z" fill="#AF001B"/>
</svg>
