<svg width="694" height="57" viewBox="0 0 694 57" fill="none" xmlns="http://www.w3.org/2000/svg">
<mask id="path-1-outside-1_427_870" maskUnits="userSpaceOnUse" x="-1" y="-1" width="696" height="59" fill="black">
<rect fill="white" x="-1" y="-1" width="696" height="59"/>
<path d="M34.8909 10.6H22.8909V55H12.4909V10.6H0.490925V1.64H34.8909V10.6ZM50.2816 1.64V22.28H72.8416V1.64H83.2416V55H72.8416V31.24H50.2816V55H39.8816V1.64H50.2816ZM123.428 1.64V10.6H104.228V22.52H122.628V31.48H104.228V46.04H123.428V55H93.8284V1.64H123.428ZM176.028 35.4V26.44H200.508V27.08C200.508 30.68 200.028 41.88 192.668 49.16C187.148 54.68 180.348 56.2 173.708 56.2C167.068 56.2 160.188 54.84 154.348 49C152.508 47.16 146.428 40.44 146.428 28.44C146.428 18.12 151.068 11.8 154.268 8.6C158.268 4.52 164.988 0.439997 175.308 0.439997C179.308 0.439997 183.548 1.08 187.628 3.24C191.068 5 194.828 8.2 197.628 13L188.588 17.88C186.748 14.28 184.028 12.44 182.348 11.56C180.108 10.44 177.308 9.88 174.828 9.88C170.588 9.88 165.788 11.4 162.508 14.6C159.468 17.56 157.148 22.68 157.148 28.68C157.148 35.8 160.188 40.04 162.428 42.2C164.828 44.52 168.588 46.76 174.268 46.76C177.788 46.76 181.788 45.8 184.748 43.56C186.828 41.96 188.908 39.24 189.788 35.4H176.028ZM243.239 55L238.519 43.8H216.999L212.279 55H200.999L223.959 1.64H232.119L254.439 55H243.239ZM220.279 35.32H235.479L227.879 16.12L220.279 35.32ZM256.349 55L266.269 1.64H273.789L287.949 35.56L302.749 1.64H310.269L319.229 55H308.669L303.869 22.12L289.549 55H286.029L272.349 22.12L266.909 55H256.349ZM356.678 1.64V10.6H337.478V22.52H355.878V31.48H337.478V46.04H356.678V55H327.078V1.64H356.678ZM408.158 0.439997C424.958 0.439997 436.638 12.12 436.638 28.36C436.638 44.6 424.958 56.2 408.158 56.2C391.358 56.2 379.678 44.6 379.678 28.36C379.678 12.12 391.358 0.439997 408.158 0.439997ZM408.158 46.76C418.558 46.76 425.918 39.16 425.918 28.36C425.918 17.56 418.558 9.88 408.158 9.88C397.758 9.88 390.398 17.56 390.398 28.36C390.398 39.16 397.758 46.76 408.158 46.76ZM472.942 1.64V10.6H455.022V22.52H471.822V31.48H455.022V55H444.622V1.64H472.942ZM524.4 35.4V26.44H548.88V27.08C548.88 30.68 548.4 41.88 541.04 49.16C535.52 54.68 528.72 56.2 522.08 56.2C515.44 56.2 508.56 54.84 502.72 49C500.88 47.16 494.8 40.44 494.8 28.44C494.8 18.12 499.44 11.8 502.64 8.6C506.64 4.52 513.36 0.439997 523.68 0.439997C527.68 0.439997 531.92 1.08 536 3.24C539.44 5 543.2 8.2 546 13L536.96 17.88C535.12 14.28 532.4 12.44 530.72 11.56C528.48 10.44 525.68 9.88 523.2 9.88C518.96 9.88 514.16 11.4 510.88 14.6C507.84 17.56 505.52 22.68 505.52 28.68C505.52 35.8 508.56 40.04 510.8 42.2C513.2 44.52 516.96 46.76 522.64 46.76C526.16 46.76 530.16 45.8 533.12 43.56C535.2 41.96 537.28 39.24 538.16 35.4H524.4ZM582.773 0.439997C599.573 0.439997 611.253 12.12 611.253 28.36C611.253 44.6 599.573 56.2 582.773 56.2C565.973 56.2 554.293 44.6 554.293 28.36C554.293 12.12 565.973 0.439997 582.773 0.439997ZM582.773 46.76C593.173 46.76 600.533 39.16 600.533 28.36C600.533 17.56 593.173 9.88 582.773 9.88C572.373 9.88 565.013 17.56 565.013 28.36C565.013 39.16 572.373 46.76 582.773 46.76ZM619.238 1.64H629.638V46.04H646.118V55H619.238V1.64ZM680.02 1.64V10.6H662.1V22.52H678.9V31.48H662.1V55H651.7V1.64H680.02ZM680.673 49.8C680.673 46.28 683.393 43.56 686.913 43.56C690.433 43.56 693.153 46.28 693.153 49.8C693.153 53.32 690.433 56.04 686.913 56.04C683.393 56.04 680.673 53.32 680.673 49.8Z"/>
</mask>
<path d="M34.8909 10.6V11.6H35.8909V10.6H34.8909ZM22.8909 10.6V9.6H21.8909V10.6H22.8909ZM22.8909 55V56H23.8909V55H22.8909ZM12.4909 55H11.4909V56H12.4909V55ZM12.4909 10.6H13.4909V9.6H12.4909V10.6ZM0.490925 10.6H-0.509075V11.6H0.490925V10.6ZM0.490925 1.64V0.639996H-0.509075V1.64H0.490925ZM34.8909 1.64H35.8909V0.639996H34.8909V1.64ZM34.8909 9.6H22.8909V11.6H34.8909V9.6ZM21.8909 10.6V55H23.8909V10.6H21.8909ZM22.8909 54H12.4909V56H22.8909V54ZM13.4909 55V10.6H11.4909V55H13.4909ZM12.4909 9.6H0.490925V11.6H12.4909V9.6ZM1.49093 10.6V1.64H-0.509075V10.6H1.49093ZM0.490925 2.64H34.8909V0.639996H0.490925V2.64ZM33.8909 1.64V10.6H35.8909V1.64H33.8909ZM50.2816 1.64H51.2816V0.639996H50.2816V1.64ZM50.2816 22.28H49.2816V23.28H50.2816V22.28ZM72.8416 22.28V23.28H73.8416V22.28H72.8416ZM72.8416 1.64V0.639996H71.8416V1.64H72.8416ZM83.2416 1.64H84.2416V0.639996H83.2416V1.64ZM83.2416 55V56H84.2416V55H83.2416ZM72.8416 55H71.8416V56H72.8416V55ZM72.8416 31.24H73.8416V30.24H72.8416V31.24ZM50.2816 31.24V30.24H49.2816V31.24H50.2816ZM50.2816 55V56H51.2816V55H50.2816ZM39.8816 55H38.8816V56H39.8816V55ZM39.8816 1.64V0.639996H38.8816V1.64H39.8816ZM49.2816 1.64V22.28H51.2816V1.64H49.2816ZM50.2816 23.28H72.8416V21.28H50.2816V23.28ZM73.8416 22.28V1.64H71.8416V22.28H73.8416ZM72.8416 2.64H83.2416V0.639996H72.8416V2.64ZM82.2416 1.64V55H84.2416V1.64H82.2416ZM83.2416 54H72.8416V56H83.2416V54ZM73.8416 55V31.24H71.8416V55H73.8416ZM72.8416 30.24H50.2816V32.24H72.8416V30.24ZM49.2816 31.24V55H51.2816V31.24H49.2816ZM50.2816 54H39.8816V56H50.2816V54ZM40.8816 55V1.64H38.8816V55H40.8816ZM39.8816 2.64H50.2816V0.639996H39.8816V2.64ZM123.428 1.64H124.428V0.639996H123.428V1.64ZM123.428 10.6V11.6H124.428V10.6H123.428ZM104.228 10.6V9.6H103.228V10.6H104.228ZM104.228 22.52H103.228V23.52H104.228V22.52ZM122.628 22.52H123.628V21.52H122.628V22.52ZM122.628 31.48V32.48H123.628V31.48H122.628ZM104.228 31.48V30.48H103.228V31.48H104.228ZM104.228 46.04H103.228V47.04H104.228V46.04ZM123.428 46.04H124.428V45.04H123.428V46.04ZM123.428 55V56H124.428V55H123.428ZM93.8284 55H92.8284V56H93.8284V55ZM93.8284 1.64V0.639996H92.8284V1.64H93.8284ZM122.428 1.64V10.6H124.428V1.64H122.428ZM123.428 9.6H104.228V11.6H123.428V9.6ZM103.228 10.6V22.52H105.228V10.6H103.228ZM104.228 23.52H122.628V21.52H104.228V23.52ZM121.628 22.52V31.48H123.628V22.52H121.628ZM122.628 30.48H104.228V32.48H122.628V30.48ZM103.228 31.48V46.04H105.228V31.48H103.228ZM104.228 47.04H123.428V45.04H104.228V47.04ZM122.428 46.04V55H124.428V46.04H122.428ZM123.428 54H93.8284V56H123.428V54ZM94.8284 55V1.64H92.8284V55H94.8284ZM93.8284 2.64H123.428V0.639996H93.8284V2.64ZM176.028 35.4H175.028V36.4H176.028V35.4ZM176.028 26.44V25.44H175.028V26.44H176.028ZM200.508 26.44H201.508V25.44H200.508V26.44ZM192.668 49.16L191.965 48.449L191.961 48.4529L192.668 49.16ZM154.348 49L155.055 48.2929L154.348 49ZM154.268 8.6L154.975 9.30714L154.982 9.30007L154.268 8.6ZM187.628 3.24L187.16 4.12387L187.172 4.13025L187.628 3.24ZM197.628 13L198.103 13.88L199.012 13.389L198.492 12.4961L197.628 13ZM188.588 17.88L187.697 18.3351L188.163 19.2458L189.063 18.76L188.588 17.88ZM182.348 11.56L182.812 10.6742L182.803 10.6698L182.795 10.6656L182.348 11.56ZM162.508 14.6L163.205 15.3165L163.206 15.3158L162.508 14.6ZM162.428 42.2L163.123 41.481L163.122 41.4802L162.428 42.2ZM184.748 43.56L185.351 44.3574L185.358 44.3526L184.748 43.56ZM189.788 35.4L190.763 35.6234L191.043 34.4H189.788V35.4ZM177.028 35.4V26.44H175.028V35.4H177.028ZM176.028 27.44H200.508V25.44H176.028V27.44ZM199.508 26.44V27.08H201.508V26.44H199.508ZM199.508 27.08C199.508 30.6685 199.009 41.4817 191.965 48.449L193.371 49.871C201.047 42.2783 201.508 30.6914 201.508 27.08H199.508ZM191.961 48.4529C186.695 53.7184 180.195 55.2 173.708 55.2V57.2C180.5 57.2 187.6 55.6416 193.375 49.8671L191.961 48.4529ZM173.708 55.2C167.211 55.2 160.636 53.8739 155.055 48.2929L153.641 49.7071C159.74 55.8061 166.925 57.2 173.708 57.2V55.2ZM155.055 48.2929C153.311 46.5492 147.428 40.0689 147.428 28.44H145.428C145.428 40.8111 151.704 47.7708 153.641 49.7071L155.055 48.2929ZM147.428 28.44C147.428 18.4561 151.906 12.3764 154.975 9.3071L153.561 7.89289C150.23 11.2236 145.428 17.7839 145.428 28.44H147.428ZM154.982 9.30007C158.812 5.39332 165.281 1.44 175.308 1.44V-0.560003C164.694 -0.560003 157.724 3.64668 153.554 7.89993L154.982 9.30007ZM175.308 1.44C179.202 1.44 183.267 2.063 187.16 4.12379L188.096 2.35621C183.828 0.0969982 179.414 -0.560003 175.308 -0.560003V1.44ZM187.172 4.13025C190.445 5.80464 194.062 8.87186 196.764 13.5039L198.492 12.4961C195.594 7.52814 191.691 4.19536 188.083 2.34975L187.172 4.13025ZM197.153 12.12L188.113 17L189.063 18.76L198.103 13.88L197.153 12.12ZM189.478 17.4249C187.514 13.5815 184.606 11.6139 182.812 10.6742L181.884 12.4458C183.45 13.2661 185.982 14.9785 187.697 18.3351L189.478 17.4249ZM182.795 10.6656C180.395 9.46548 177.437 8.88 174.828 8.88V10.88C177.178 10.88 179.821 11.4145 181.901 12.4544L182.795 10.6656ZM174.828 8.88C170.383 8.88 165.313 10.4665 161.809 13.8842L163.206 15.3158C166.263 12.3335 170.793 10.88 174.828 10.88V8.88ZM161.81 13.8835C158.558 17.0504 156.148 22.4381 156.148 28.68H158.148C158.148 22.9219 160.378 18.0696 163.205 15.3165L161.81 13.8835ZM156.148 28.68C156.148 36.1219 159.338 40.6094 161.734 42.9198L163.122 41.4802C161.038 39.4706 158.148 35.4781 158.148 28.68H156.148ZM161.733 42.919C164.291 45.3915 168.291 47.76 174.268 47.76V45.76C168.884 45.76 165.365 43.6485 163.123 41.481L161.733 42.919ZM174.268 47.76C177.939 47.76 182.171 46.7639 185.351 44.3574L184.144 42.7626C181.404 44.8361 177.636 45.76 174.268 45.76V47.76ZM185.358 44.3526C187.611 42.6191 189.828 39.7024 190.763 35.6234L188.813 35.1766C187.988 38.7776 186.045 41.3009 184.138 42.7674L185.358 44.3526ZM189.788 34.4H176.028V36.4H189.788V34.4ZM243.239 55L242.318 55.3884L242.575 56H243.239V55ZM238.519 43.8L239.441 43.4117L239.183 42.8H238.519V43.8ZM216.999 43.8V42.8H216.335L216.078 43.4117L216.999 43.8ZM212.279 55V56H212.943L213.201 55.3884L212.279 55ZM200.999 55L200.08 54.6048L199.48 56H200.999V55ZM223.959 1.64V0.639996H223.301L223.04 1.24475L223.959 1.64ZM232.119 1.64L233.042 1.2541L232.785 0.639996H232.119V1.64ZM254.439 55V56H255.941L255.362 54.6141L254.439 55ZM220.279 35.32L219.349 34.952L218.808 36.32H220.279V35.32ZM235.479 35.32V36.32H236.95L236.409 34.952L235.479 35.32ZM227.879 16.12L228.809 15.7519L227.879 13.403L226.949 15.7519L227.879 16.12ZM244.161 54.6116L239.441 43.4117L237.598 44.1884L242.318 55.3884L244.161 54.6116ZM238.519 42.8H216.999V44.8H238.519V42.8ZM216.078 43.4117L211.358 54.6116L213.201 55.3884L217.921 44.1884L216.078 43.4117ZM212.279 54H200.999V56H212.279V54ZM201.918 55.3952L224.878 2.03524L223.04 1.24475L200.08 54.6048L201.918 55.3952ZM223.959 2.64H232.119V0.639996H223.959V2.64ZM231.197 2.02589L253.517 55.3859L255.362 54.6141L233.042 1.2541L231.197 2.02589ZM254.439 54H243.239V56H254.439V54ZM220.279 36.32H235.479V34.32H220.279V36.32ZM236.409 34.952L228.809 15.7519L226.949 16.488L234.549 35.688L236.409 34.952ZM226.949 15.7519L219.349 34.952L221.209 35.688L228.809 16.488L226.949 15.7519ZM256.349 55L255.366 54.8172L255.146 56H256.349V55ZM266.269 1.64V0.639996H265.438L265.286 1.45722L266.269 1.64ZM273.789 1.64L274.712 1.25476L274.455 0.639996H273.789V1.64ZM287.949 35.56L287.026 35.9452L287.929 38.1071L288.866 35.9599L287.949 35.56ZM302.749 1.64V0.639996H302.094L301.832 1.24008L302.749 1.64ZM310.269 1.64L311.255 1.4744L311.115 0.639996H310.269V1.64ZM319.229 55V56H320.411L320.215 54.8344L319.229 55ZM308.669 55L307.68 55.1445L307.804 56H308.669V55ZM303.869 22.12L304.859 21.9755L304.352 18.5064L302.952 21.7207L303.869 22.12ZM289.549 55V56H290.204L290.466 55.3993L289.549 55ZM286.029 55L285.106 55.3841L285.362 56H286.029V55ZM272.349 22.12L273.272 21.7359L271.932 18.5144L271.362 21.9568L272.349 22.12ZM266.909 55V56H267.757L267.896 55.1632L266.909 55ZM257.332 55.1828L267.252 1.82277L265.286 1.45722L255.366 54.8172L257.332 55.1828ZM266.269 2.64H273.789V0.639996H266.269V2.64ZM272.866 2.02523L287.026 35.9452L288.872 35.1748L274.712 1.25476L272.866 2.02523ZM288.866 35.9599L303.666 2.03991L301.832 1.24008L287.033 35.1601L288.866 35.9599ZM302.749 2.64H310.269V0.639996H302.749V2.64ZM309.283 1.80559L318.243 55.1656L320.215 54.8344L311.255 1.4744L309.283 1.80559ZM319.229 54H308.669V56H319.229V54ZM309.659 54.8555L304.859 21.9755L302.88 22.2645L307.68 55.1445L309.659 54.8555ZM302.952 21.7207L288.632 54.6007L290.466 55.3993L304.786 22.5193L302.952 21.7207ZM289.549 54H286.029V56H289.549V54ZM286.952 54.6159L273.272 21.7359L271.426 22.5041L285.106 55.3841L286.952 54.6159ZM271.362 21.9568L265.922 54.8368L267.896 55.1632L273.336 22.2832L271.362 21.9568ZM266.909 54H256.349V56H266.909V54ZM356.678 1.64H357.678V0.639996H356.678V1.64ZM356.678 10.6V11.6H357.678V10.6H356.678ZM337.478 10.6V9.6H336.478V10.6H337.478ZM337.478 22.52H336.478V23.52H337.478V22.52ZM355.878 22.52H356.878V21.52H355.878V22.52ZM355.878 31.48V32.48H356.878V31.48H355.878ZM337.478 31.48V30.48H336.478V31.48H337.478ZM337.478 46.04H336.478V47.04H337.478V46.04ZM356.678 46.04H357.678V45.04H356.678V46.04ZM356.678 55V56H357.678V55H356.678ZM327.078 55H326.078V56H327.078V55ZM327.078 1.64V0.639996H326.078V1.64H327.078ZM355.678 1.64V10.6H357.678V1.64H355.678ZM356.678 9.6H337.478V11.6H356.678V9.6ZM336.478 10.6V22.52H338.478V10.6H336.478ZM337.478 23.52H355.878V21.52H337.478V23.52ZM354.878 22.52V31.48H356.878V22.52H354.878ZM355.878 30.48H337.478V32.48H355.878V30.48ZM336.478 31.48V46.04H338.478V31.48H336.478ZM337.478 47.04H356.678V45.04H337.478V47.04ZM355.678 46.04V55H357.678V46.04H355.678ZM356.678 54H327.078V56H356.678V54ZM328.078 55V1.64H326.078V55H328.078ZM327.078 2.64H356.678V0.639996H327.078V2.64ZM408.158 1.44C416.32 1.44 423.18 4.27365 427.996 9.02205C432.811 13.77 435.638 20.4868 435.638 28.36H437.638C437.638 19.9932 434.625 12.75 429.4 7.59794C424.175 2.44635 416.795 -0.560003 408.158 -0.560003V1.44ZM435.638 28.36C435.638 36.2328 432.811 42.9289 427.997 47.6565C423.182 52.385 416.322 55.2 408.158 55.2V57.2C416.793 57.2 424.173 54.215 429.398 49.0835C434.625 43.9511 437.638 36.7271 437.638 28.36H435.638ZM408.158 55.2C399.993 55.2 393.133 52.385 388.318 47.6565C383.505 42.9289 380.678 36.2328 380.678 28.36H378.678C378.678 36.7271 381.691 43.9511 386.917 49.0835C392.142 54.215 399.522 57.2 408.158 57.2V55.2ZM380.678 28.36C380.678 20.4868 383.505 13.77 388.32 9.02205C393.135 4.27365 399.995 1.44 408.158 1.44V-0.560003C399.52 -0.560003 392.14 2.44635 386.916 7.59794C381.691 12.75 378.678 19.9932 378.678 28.36H380.678ZM408.158 47.76C413.61 47.76 418.316 45.7629 421.657 42.3048C424.996 38.8491 426.918 33.9911 426.918 28.36H424.918C424.918 33.5289 423.16 37.8709 420.219 40.9152C417.28 43.9571 413.105 45.76 408.158 45.76V47.76ZM426.918 28.36C426.918 22.7293 424.996 17.8526 421.659 14.3774C418.319 10.8994 413.614 8.88 408.158 8.88V10.88C413.102 10.88 417.276 12.7006 420.217 15.7626C423.159 18.8274 424.918 23.1907 424.918 28.36H426.918ZM408.158 8.88C402.702 8.88 397.996 10.8994 394.656 14.3774C391.319 17.8526 389.398 22.7293 389.398 28.36H391.398C391.398 23.1907 393.156 18.8274 396.099 15.7626C399.039 12.7006 403.214 10.88 408.158 10.88V8.88ZM389.398 28.36C389.398 33.9911 391.32 38.8491 394.659 42.3048C398 45.7629 402.705 47.76 408.158 47.76V45.76C403.21 45.76 399.036 43.9571 396.097 40.9152C393.156 37.8709 391.398 33.5289 391.398 28.36H389.398ZM472.942 1.64H473.942V0.639996H472.942V1.64ZM472.942 10.6V11.6H473.942V10.6H472.942ZM455.022 10.6V9.6H454.022V10.6H455.022ZM455.022 22.52H454.022V23.52H455.022V22.52ZM471.822 22.52H472.822V21.52H471.822V22.52ZM471.822 31.48V32.48H472.822V31.48H471.822ZM455.022 31.48V30.48H454.022V31.48H455.022ZM455.022 55V56H456.022V55H455.022ZM444.622 55H443.622V56H444.622V55ZM444.622 1.64V0.639996H443.622V1.64H444.622ZM471.942 1.64V10.6H473.942V1.64H471.942ZM472.942 9.6H455.022V11.6H472.942V9.6ZM454.022 10.6V22.52H456.022V10.6H454.022ZM455.022 23.52H471.822V21.52H455.022V23.52ZM470.822 22.52V31.48H472.822V22.52H470.822ZM471.822 30.48H455.022V32.48H471.822V30.48ZM454.022 31.48V55H456.022V31.48H454.022ZM455.022 54H444.622V56H455.022V54ZM445.622 55V1.64H443.622V55H445.622ZM444.622 2.64H472.942V0.639996H444.622V2.64ZM524.4 35.4H523.4V36.4H524.4V35.4ZM524.4 26.44V25.44H523.4V26.44H524.4ZM548.88 26.44H549.88V25.44H548.88V26.44ZM541.04 49.16L540.336 48.449L540.333 48.4529L541.04 49.16ZM502.72 49L503.427 48.2929L502.72 49ZM502.64 8.6L503.347 9.30714L503.354 9.30007L502.64 8.6ZM536 3.24L535.532 4.12387L535.544 4.13025L536 3.24ZM546 13L546.475 13.88L547.384 13.389L546.863 12.4961L546 13ZM536.96 17.88L536.069 18.3351L536.535 19.2458L537.435 18.76L536.96 17.88ZM530.72 11.56L531.184 10.6742L531.175 10.6698L531.167 10.6656L530.72 11.56ZM510.88 14.6L511.577 15.3165L511.578 15.3158L510.88 14.6ZM510.8 42.2L511.495 41.481L511.494 41.4802L510.8 42.2ZM533.12 43.56L533.723 44.3574L533.729 44.3526L533.12 43.56ZM538.16 35.4L539.134 35.6234L539.415 34.4H538.16V35.4ZM525.4 35.4V26.44H523.4V35.4H525.4ZM524.4 27.44H548.88V25.44H524.4V27.44ZM547.88 26.44V27.08H549.88V26.44H547.88ZM547.88 27.08C547.88 30.6685 547.38 41.4817 540.336 48.449L541.743 49.871C549.419 42.2783 549.88 30.6914 549.88 27.08H547.88ZM540.333 48.4529C535.067 53.7184 528.567 55.2 522.08 55.2V57.2C528.872 57.2 535.972 55.6416 541.747 49.8671L540.333 48.4529ZM522.08 55.2C515.583 55.2 509.008 53.8739 503.427 48.2929L502.013 49.7071C508.112 55.8061 515.296 57.2 522.08 57.2V55.2ZM503.427 48.2929C501.683 46.5492 495.8 40.0689 495.8 28.44H493.8C493.8 40.8111 500.076 47.7708 502.013 49.7071L503.427 48.2929ZM495.8 28.44C495.8 18.4561 500.277 12.3764 503.347 9.3071L501.933 7.89289C498.602 11.2236 493.8 17.7839 493.8 28.44H495.8ZM503.354 9.30007C507.184 5.39332 513.653 1.44 523.68 1.44V-0.560003C513.066 -0.560003 506.095 3.64668 501.926 7.89993L503.354 9.30007ZM523.68 1.44C527.574 1.44 531.639 2.063 535.532 4.12379L536.468 2.35621C532.2 0.0969982 527.786 -0.560003 523.68 -0.560003V1.44ZM535.544 4.13025C538.817 5.80464 542.434 8.87186 545.136 13.5039L546.863 12.4961C543.965 7.52814 540.062 4.19536 536.455 2.34975L535.544 4.13025ZM545.525 12.12L536.485 17L537.435 18.76L546.475 13.88L545.525 12.12ZM537.85 17.4249C535.886 13.5815 532.978 11.6139 531.184 10.6742L530.256 12.4458C531.822 13.2661 534.354 14.9785 536.069 18.3351L537.85 17.4249ZM531.167 10.6656C528.767 9.46548 525.809 8.88 523.2 8.88V10.88C525.55 10.88 528.193 11.4145 530.272 12.4544L531.167 10.6656ZM523.2 8.88C518.754 8.88 513.685 10.4665 510.181 13.8842L511.578 15.3158C514.635 12.3335 519.165 10.88 523.2 10.88V8.88ZM510.182 13.8835C506.93 17.0504 504.52 22.4381 504.52 28.68H506.52C506.52 22.9219 508.75 18.0696 511.577 15.3165L510.182 13.8835ZM504.52 28.68C504.52 36.1219 507.71 40.6094 510.106 42.9198L511.494 41.4802C509.41 39.4706 506.52 35.4781 506.52 28.68H504.52ZM510.105 42.919C512.662 45.3915 516.663 47.76 522.64 47.76V45.76C517.256 45.76 513.737 43.6485 511.495 41.481L510.105 42.919ZM522.64 47.76C526.311 47.76 530.543 46.7639 533.723 44.3574L532.516 42.7626C529.776 44.8361 526.008 45.76 522.64 45.76V47.76ZM533.729 44.3526C535.983 42.6191 538.2 39.7024 539.134 35.6234L537.185 35.1766C536.36 38.7776 534.416 41.3009 532.51 42.7674L533.729 44.3526ZM538.16 34.4H524.4V36.4H538.16V34.4ZM582.773 1.44C590.936 1.44 597.796 4.27365 602.611 9.02205C607.426 13.77 610.253 20.4868 610.253 28.36H612.253C612.253 19.9932 609.24 12.75 604.016 7.59794C598.791 2.44635 591.411 -0.560003 582.773 -0.560003V1.44ZM610.253 28.36C610.253 36.2328 607.427 42.9289 602.613 47.6565C597.798 52.385 590.938 55.2 582.773 55.2V57.2C591.409 57.2 598.789 54.215 604.014 49.0835C609.24 43.9511 612.253 36.7271 612.253 28.36H610.253ZM582.773 55.2C574.609 55.2 567.749 52.385 562.934 47.6565C558.12 42.9289 555.293 36.2328 555.293 28.36H553.293C553.293 36.7271 556.307 43.9511 561.533 49.0835C566.758 54.215 574.138 57.2 582.773 57.2V55.2ZM555.293 28.36C555.293 20.4868 558.12 13.77 562.936 9.02205C567.751 4.27365 574.611 1.44 582.773 1.44V-0.560003C574.136 -0.560003 566.756 2.44635 561.531 7.59794C556.306 12.75 553.293 19.9932 553.293 28.36H555.293ZM582.773 47.76C588.226 47.76 592.932 45.7629 596.273 42.3048C599.611 38.8491 601.533 33.9911 601.533 28.36H599.533C599.533 33.5289 597.775 37.8709 594.834 40.9152C591.895 43.9571 587.721 45.76 582.773 45.76V47.76ZM601.533 28.36C601.533 22.7293 599.612 17.8526 596.275 14.3774C592.935 10.8994 588.229 8.88 582.773 8.88V10.88C587.718 10.88 591.892 12.7006 594.832 15.7626C597.775 18.8274 599.533 23.1907 599.533 28.36H601.533ZM582.773 8.88C577.318 8.88 572.612 10.8994 569.272 14.3774C565.935 17.8526 564.013 22.7293 564.013 28.36H566.013C566.013 23.1907 567.772 18.8274 570.715 15.7626C573.655 12.7006 577.829 10.88 582.773 10.88V8.88ZM564.013 28.36C564.013 33.9911 565.935 38.8491 569.274 42.3048C572.615 45.7629 577.321 47.76 582.773 47.76V45.76C577.826 45.76 573.652 43.9571 570.713 40.9152C567.771 37.8709 566.013 33.5289 566.013 28.36H564.013ZM619.238 1.64V0.639996H618.238V1.64H619.238ZM629.638 1.64H630.638V0.639996H629.638V1.64ZM629.638 46.04H628.638V47.04H629.638V46.04ZM646.118 46.04H647.118V45.04H646.118V46.04ZM646.118 55V56H647.118V55H646.118ZM619.238 55H618.238V56H619.238V55ZM619.238 2.64H629.638V0.639996H619.238V2.64ZM628.638 1.64V46.04H630.638V1.64H628.638ZM629.638 47.04H646.118V45.04H629.638V47.04ZM645.118 46.04V55H647.118V46.04H645.118ZM646.118 54H619.238V56H646.118V54ZM620.238 55V1.64H618.238V55H620.238ZM680.02 1.64H681.02V0.639996H680.02V1.64ZM680.02 10.6V11.6H681.02V10.6H680.02ZM662.1 10.6V9.6H661.1V10.6H662.1ZM662.1 22.52H661.1V23.52H662.1V22.52ZM678.9 22.52H679.9V21.52H678.9V22.52ZM678.9 31.48V32.48H679.9V31.48H678.9ZM662.1 31.48V30.48H661.1V31.48H662.1ZM662.1 55V56H663.1V55H662.1ZM651.7 55H650.7V56H651.7V55ZM651.7 1.64V0.639996H650.7V1.64H651.7ZM679.02 1.64V10.6H681.02V1.64H679.02ZM680.02 9.6H662.1V11.6H680.02V9.6ZM661.1 10.6V22.52H663.1V10.6H661.1ZM662.1 23.52H678.9V21.52H662.1V23.52ZM677.9 22.52V31.48H679.9V22.52H677.9ZM678.9 30.48H662.1V32.48H678.9V30.48ZM661.1 31.48V55H663.1V31.48H661.1ZM662.1 54H651.7V56H662.1V54ZM652.7 55V1.64H650.7V55H652.7ZM651.7 2.64H680.02V0.639996H651.7V2.64ZM681.673 49.8C681.673 46.8323 683.945 44.56 686.913 44.56V42.56C682.841 42.56 679.673 45.7277 679.673 49.8H681.673ZM686.913 44.56C689.881 44.56 692.153 46.8323 692.153 49.8H694.153C694.153 45.7277 690.985 42.56 686.913 42.56V44.56ZM692.153 49.8C692.153 52.7677 689.881 55.04 686.913 55.04V57.04C690.985 57.04 694.153 53.8723 694.153 49.8H692.153ZM686.913 55.04C683.945 55.04 681.673 52.7677 681.673 49.8H679.673C679.673 53.8723 682.841 57.04 686.913 57.04V55.04Z" fill="white" mask="url(#path-1-outside-1_427_870)"/>
</svg>
