<svg width="406" height="142" viewBox="0 0 406 142" fill="none" xmlns="http://www.w3.org/2000/svg">
<path fill-rule="evenodd" clip-rule="evenodd" d="M404.302 4.59998H330.302V138H404.302V115.6H356.302V79.2H402.302V56.8H356.302V27H404.302V4.59998ZM357.302 28H405.302V3.59998H329.302V139H405.302V114.6H357.302V80.2H403.302V55.8H357.302V28Z" fill="white"/>
<path fill-rule="evenodd" clip-rule="evenodd" d="M307.399 100.074V133.804L306.864 134.085C298.738 138.351 287.979 142 273.399 142C249.714 142 235.275 133.881 223.911 123.126L223.906 123.121C208.292 108.115 202.199 91.2462 202.199 71.4C202.199 46.9056 212.327 29.2467 223.915 18.4702C237.545 5.65461 254.414 0.600006 273.599 0.600006C283.123 0.600006 294.496 2.22364 306.875 8.92046L307.399 9.20404V42.8697L305.645 40.857C293.721 27.1743 278.875 26.2 274.199 26.2C248.05 26.2 230.999 47.6483 230.999 71.8C230.999 100.757 253.256 116.4 275.199 116.4C287.292 116.4 298.018 111.139 305.636 102.153L307.399 100.074ZM224.599 19.2C213.199 29.8 203.199 47.2 203.199 71.4C203.199 91 209.199 107.6 224.599 122.4C235.799 133 249.999 141 273.399 141C287.799 141 298.399 137.4 306.399 133.2V102.8C306.071 103.187 305.738 103.566 305.399 103.939C297.672 112.444 287.078 117.4 275.199 117.4C252.799 117.4 229.999 101.4 229.999 71.8C229.999 47.2 247.399 25.2 274.199 25.2C278.868 25.2 293.381 26.1465 305.399 39.0883C305.734 39.4494 306.068 39.8199 306.399 40.2V9.80001C294.199 3.20001 282.999 1.60001 273.599 1.60001C254.599 1.60001 237.999 6.60001 224.599 19.2Z" fill="white"/>
<path fill-rule="evenodd" clip-rule="evenodd" d="M158.521 110L170.321 138H198.321L142.521 4.59998H122.121L64.7206 138H92.9206L104.721 110H158.521ZM157.857 111L169.657 139H199.823L143.186 3.59998H121.462L63.2017 139H93.5843L105.384 111H157.857ZM112.921 88.8L131.921 40.8L150.921 88.8H112.921ZM114.392 87.8H149.449L131.921 43.517L114.392 87.8Z" fill="white"/>
<path fill-rule="evenodd" clip-rule="evenodd" d="M72.0002 4.59998H1.2002V138H27.2002V79.2H69.2002V56.8H27.2002V27H72.0002V4.59998ZM28.2002 28H73.0002V3.59998H0.200195V139H28.2002V80.2H70.2002V55.8H28.2002V28Z" fill="white"/>
</svg>
