<svg width="46" height="74" viewBox="0 0 46 74" fill="none" xmlns="http://www.w3.org/2000/svg">
<path d="M10.53 62.47C12.17 62.65 13.48 63.2 14.46 64.12C15.44 65.04 15.93 66.18 15.93 67.54C15.93 68.58 15.64 69.53 15.06 70.39C14.5 71.23 13.71 71.9 12.69 72.4C11.69 72.88 10.57 73.12 9.33 73.12C8.75 73.12 8.08 73.09 7.32 73.03C7.06 73.01 6.73 72.99 6.33 72.97C5.93 72.95 5.48 72.94 4.98 72.94L2.82 72.97C2.44 72.99 1.92 73 1.26 73C1.2 73 1.17 72.94 1.17 72.82C1.17 72.7 1.2 72.64 1.26 72.64C1.9 72.64 2.38 72.59 2.7 72.49C3.02 72.37 3.24 72.17 3.36 71.89C3.5 71.61 3.57 71.17 3.57 70.57V56.68C3.57 56.1 3.5 55.67 3.36 55.39C3.24 55.09 3.02 54.89 2.7 54.79C2.4 54.67 1.93 54.61 1.29 54.61C1.25 54.61 1.23 54.55 1.23 54.43C1.23 54.31 1.25 54.25 1.29 54.25L2.85 54.28C3.73 54.32 4.44 54.34 4.98 54.34C5.54 54.34 6.13 54.31 6.75 54.25C6.97 54.23 7.23 54.21 7.53 54.19C7.85 54.17 8.21 54.16 8.61 54.16C10.39 54.16 11.75 54.5 12.69 55.18C13.63 55.86 14.1 56.82 14.1 58.06C14.1 59.02 13.79 59.89 13.17 60.67C12.55 61.43 11.67 62.03 10.53 62.47ZM8.1 54.76C7.46 54.76 7.02 54.89 6.78 55.15C6.56 55.41 6.45 55.94 6.45 56.74V62.44L7.71 62.47C8.89 62.47 9.78 62.09 10.38 61.33C10.98 60.55 11.28 59.55 11.28 58.33C11.28 57.19 11.01 56.31 10.47 55.69C9.93 55.07 9.14 54.76 8.1 54.76ZM8.85 72.43C11.55 72.43 12.9 71.04 12.9 68.26C12.9 66.74 12.5 65.52 11.7 64.6C10.92 63.68 9.77 63.22 8.25 63.22C7.53 63.22 6.93 63.24 6.45 63.28V70.57C6.45 71.03 6.51 71.39 6.63 71.65C6.75 71.91 6.98 72.11 7.32 72.25C7.66 72.37 8.17 72.43 8.85 72.43ZM30.0302 71.38C30.1102 71.38 30.1602 71.43 30.1802 71.53C30.2002 71.61 30.1702 71.67 30.0902 71.71L27.0002 73.18C26.9202 73.22 26.8302 73.24 26.7302 73.24C26.4302 73.24 26.1402 73.07 25.8602 72.73C25.6002 72.37 25.4302 71.9 25.3502 71.32L23.9702 72.28C23.4902 72.62 23.0502 72.86 22.6502 73C22.2702 73.14 21.8402 73.21 21.3602 73.21C20.5402 73.21 19.9102 73.02 19.4702 72.64C19.0502 72.24 18.8402 71.72 18.8402 71.08C18.8402 70.54 18.9802 70.1 19.2602 69.76C19.5602 69.42 19.9302 69.15 20.3702 68.95C20.8302 68.73 21.5002 68.46 22.3802 68.14L25.2902 67.06V65.26C25.2902 64.02 25.1602 63.12 24.9002 62.56C24.6602 61.98 24.2702 61.69 23.7302 61.69C23.0702 61.69 22.5902 61.94 22.2902 62.44C22.0102 62.92 21.8402 63.46 21.7802 64.06C21.6602 65.08 21.1502 65.59 20.2502 65.59C19.8102 65.59 19.4802 65.49 19.2602 65.29C19.0602 65.09 18.9602 64.84 18.9602 64.54C18.9602 63.98 19.2902 63.44 19.9502 62.92C20.6302 62.38 21.4402 61.95 22.3802 61.63C23.3402 61.29 24.1802 61.12 24.9002 61.12C25.7602 61.12 26.4402 61.39 26.9402 61.93C27.4602 62.47 27.7202 63.28 27.7202 64.36V69.76C27.7202 70.38 27.8202 70.85 28.0202 71.17C28.2202 71.49 28.5102 71.65 28.8902 71.65C29.1902 71.65 29.5502 71.56 29.9702 71.38H30.0302ZM25.2902 70.84V70.54V67.57L23.4902 68.32C22.9702 68.52 22.5402 68.76 22.2002 69.04C21.8802 69.3 21.7202 69.68 21.7202 70.18C21.7202 70.66 21.8702 71.05 22.1702 71.35C22.4902 71.63 22.8702 71.77 23.3102 71.77C23.6702 71.77 24.0502 71.65 24.4502 71.41L25.2902 70.84ZM31.1979 73C31.1379 73 31.1079 72.94 31.1079 72.82C31.1079 72.7 31.1379 72.64 31.1979 72.64C31.8579 72.64 32.3079 72.5 32.5479 72.22C32.7879 71.92 32.9079 71.37 32.9079 70.57V55.24C32.9079 54.54 32.8379 54.04 32.6979 53.74C32.5779 53.42 32.3479 53.26 32.0079 53.26C31.7079 53.26 31.3079 53.38 30.8079 53.62H30.7779C30.6979 53.62 30.6379 53.57 30.5979 53.47C30.5579 53.37 30.5579 53.3 30.5979 53.26L34.8279 51.28L34.9479 51.25C35.0279 51.25 35.1179 51.29 35.2179 51.37C35.3379 51.45 35.3979 51.52 35.3979 51.58V70.57C35.3979 71.39 35.5079 71.94 35.7279 72.22C35.9479 72.5 36.3979 72.64 37.0779 72.64C37.1379 72.64 37.1679 72.7 37.1679 72.82C37.1679 72.94 37.1379 73 37.0779 73C36.5979 73 36.2079 72.99 35.9079 72.97L34.1379 72.94L32.3979 72.97C32.0979 72.99 31.6979 73 31.1979 73ZM39.1373 73C39.0773 73 39.0473 72.94 39.0473 72.82C39.0473 72.7 39.0773 72.64 39.1373 72.64C39.7973 72.64 40.2473 72.5 40.4873 72.22C40.7273 71.92 40.8473 71.37 40.8473 70.57V55.24C40.8473 54.54 40.7773 54.04 40.6373 53.74C40.5173 53.42 40.2873 53.26 39.9473 53.26C39.6473 53.26 39.2473 53.38 38.7473 53.62H38.7173C38.6373 53.62 38.5773 53.57 38.5373 53.47C38.4973 53.37 38.4973 53.3 38.5373 53.26L42.7673 51.28L42.8873 51.25C42.9673 51.25 43.0573 51.29 43.1573 51.37C43.2773 51.45 43.3373 51.52 43.3373 51.58V70.57C43.3373 71.39 43.4473 71.94 43.6673 72.22C43.8873 72.5 44.3373 72.64 45.0173 72.64C45.0773 72.64 45.1073 72.7 45.1073 72.82C45.1073 72.94 45.0773 73 45.0173 73C44.5373 73 44.1473 72.99 43.8473 72.97L42.0773 72.94L40.3373 72.97C40.0373 72.99 39.6373 73 39.1373 73Z" fill="black"/>
<path d="M15 31.65C12.9667 31.65 11.15 31.2 9.55 30.3C7.95 29.4 6.7 28.1667 5.8 26.6C4.9 25 4.45 23.2167 4.45 21.25C4.45 19.2833 4.9 17.5333 5.8 16C6.7 14.4333 7.95 13.2167 9.55 12.35C11.15 11.4833 12.9667 11.05 15 11.05C17.0333 11.05 18.8333 11.5 20.4 12.4C21.9667 13.2667 23.1833 14.4833 24.05 16.05C24.95 17.6167 25.4 19.3833 25.4 21.35C25.4 23.3167 24.95 25.0833 24.05 26.65C23.1833 28.2167 21.95 29.45 20.35 30.35C18.7833 31.2167 17 31.65 15 31.65ZM15.5 30.7C17.2 30.7 18.4833 29.9333 19.35 28.4C20.2167 26.8667 20.65 24.7333 20.65 22C20.65 18.6667 20.0667 16.1667 18.9 14.5C17.7333 12.8333 16.2833 12 14.55 12C12.85 12 11.5167 12.8 10.55 14.4C9.61667 15.9667 9.15 18.0833 9.15 20.75C9.15 23.6833 9.73333 26.0833 10.9 27.95C12.0667 29.7833 13.6 30.7 15.5 30.7ZM33.0781 15.75C33.0781 14.7167 32.9781 13.9667 32.7781 13.5C32.6115 13.0333 32.2615 12.7167 31.7281 12.55C31.1948 12.3833 30.3115 12.3 29.0781 12.3C29.0115 12.3 28.9781 12.2 28.9781 12C28.9781 11.8 29.0115 11.7 29.0781 11.7C30.1448 11.7 30.9781 11.7167 31.5781 11.75L35.1281 11.8L38.6281 11.75C39.2615 11.7167 40.1115 11.7 41.1781 11.7C41.2781 11.7 41.3281 11.8 41.3281 12C41.3281 12.2 41.2781 12.3 41.1781 12.3C40.0115 12.3 39.1448 12.3833 38.5781 12.55C38.0448 12.7167 37.6781 13.05 37.4781 13.55C37.2781 14.0167 37.1781 14.75 37.1781 15.75V26.95C37.1781 27.9833 37.2615 28.7333 37.4281 29.2C37.6281 29.6667 37.9948 29.9833 38.5281 30.15C39.0615 30.3167 39.9448 30.4 41.1781 30.4C41.2781 30.4 41.3281 30.5 41.3281 30.7C41.3281 30.9 41.2781 31 41.1781 31C40.1115 31 39.2781 30.9833 38.6781 30.95L35.1281 30.9L31.6281 30.95C30.9948 30.9833 30.1448 31 29.0781 31C29.0115 31 28.9781 30.9 28.9781 30.7C28.9781 30.5 29.0115 30.4 29.0781 30.4C30.2448 30.4 31.0948 30.3167 31.6281 30.15C32.1948 29.9833 32.5781 29.6667 32.7781 29.2C32.9781 28.7 33.0781 27.95 33.0781 26.95V15.75Z" fill="black"/>
</svg>
