<svg width="227" height="84" viewBox="0 0 227 84" fill="none" xmlns="http://www.w3.org/2000/svg">
<path d="M0.0124992 1.95999H17.6525C22.5725 1.95999 29.4125 2.43999 35.1725 6.27999C41.8925 10.72 45.1325 18.4 45.1325 25.72C45.1325 30.4 43.9325 37.6 37.3325 43.24C30.9725 48.64 23.6525 49.48 17.7725 49.48H12.2525L12.2525 82H0.0124992L0.0124992 1.95999ZM12.2525 13.24V38.2H17.7725C28.3325 38.2 33.3725 33.04 33.3725 25.6C33.3725 21.16 31.5725 13.24 17.6525 13.24H12.2525ZM55.2687 1.95999H67.5087V50.2C67.5087 54.52 67.6287 59.8 70.0287 64C72.4287 68.08 77.8287 72.28 84.9087 72.28C91.9887 72.28 97.3887 68.08 99.7888 64C102.189 59.8 102.309 54.52 102.309 50.2V1.95999H114.549V53.44C114.549 59.8 113.229 67.48 107.109 74.2C102.909 78.76 95.8287 83.56 84.9087 83.56C73.9887 83.56 66.9087 78.76 62.7087 74.2C56.5887 67.48 55.2687 59.8 55.2687 53.44V1.95999ZM171.944 13.48L153.584 13.48V82H141.344V13.48H122.984V1.95999L171.944 1.95999V13.48ZM224.712 13.96L214.872 19.72C214.152 17.92 213.072 16.24 211.272 14.68C208.752 12.64 206.112 11.8 202.632 11.8C195.192 11.8 191.352 16.24 191.352 21.4C191.352 23.8 192.192 28 199.992 31.12L208.032 34.36C222.792 40.36 226.872 48.76 226.872 57.88C226.872 73.12 216.072 83.56 201.072 83.56C191.832 83.56 186.312 80.08 182.232 75.52C177.912 70.72 175.992 65.44 175.512 59.92L187.632 57.28C187.632 61.24 189.072 64.96 190.992 67.48C193.272 70.36 196.632 72.28 201.432 72.28C208.872 72.28 214.632 66.88 214.632 58.84C214.632 50.68 208.392 47.32 203.112 45.16L195.432 41.92C188.832 39.16 179.112 33.64 179.112 21.64C179.112 10.84 187.512 0.519998 202.512 0.519998C211.152 0.519998 216.072 3.76 218.592 5.92C220.752 7.84 223.032 10.6 224.712 13.96Z" fill="white"/>
</svg>
