<?xml version="1.0" encoding="UTF-8"?>
<svg id="Layer_1" data-name="Layer 1" xmlns="http://www.w3.org/2000/svg" viewBox="0 0 1920 1080">
  <defs>
    <style>
      .cls-1 {
        fill: #121212;
      }

      .cls-2 {
        fill: #0d0d0d;
      }
    </style>
  </defs>
  <path class="cls-1" d="m1165.8,340.76c5.6-5.6,10-14.8,10-26.4s-4-20.4-10-26c-9.2-8.8-22.4-10-34.4-10h-20.8v72.4h22c8.4,0,23.2-.4,33.2-10h0Z"/>
  <path class="cls-1" d="m1087.64,608.2c-4.56-11.07-12.04-20.08-22.46-27.05-10.42-6.96-24.41-10.84-41.99-11.62l-14.65-.59v145.31l19.14-.78c19.53-.78,35.55-7.13,48.05-19.04s18.75-28.74,18.75-50.49c0-12.76-2.28-24.67-6.84-35.74h0Z"/>
  <path class="cls-1" d="m823.77,605.66c-7.16-12.63-15.79-22.33-25.88-29.1-10.09-6.77-21.45-10.16-34.08-10.16-18.75,0-33.98,5.86-45.7,17.58s-20.25,28.19-25.59,49.41-8.01,46.09-8.01,74.61c0,22.01,1.89,41.93,5.66,59.77,3.78,17.84,9.24,33.11,16.41,45.8,7.16,12.7,15.79,22.46,25.88,29.3,10.09,6.84,21.39,10.25,33.89,10.25,18.88,0,34.15-5.89,45.8-17.68,11.65-11.78,20.18-28.32,25.59-49.61,5.4-21.29,8.11-46.19,8.11-74.71,0-22-1.89-41.92-5.66-59.77-3.78-17.84-9.25-33.07-16.41-45.7h0Z"/>
  <path class="cls-1" d="m389.8,278.76c-23.2,0-44,8.4-58.4,22.8-11.6,11.2-23.6,30.8-23.6,60.4,0,24.4,8,44,24.4,60,17.2,16.4,36.4,22,57.2,22,27.2,0,46.4-10,59.2-22.8,10.4-10,23.2-28.8,23.2-59.6,0-27.6-11.2-48-23.2-60-13.2-12.8-34.4-22.8-58.8-22.8h0Z"/>
  <path class="cls-2" d="m0,0v1080h1920V0H0Zm1277.79,227.96h150.8v52h-89.2v51.6h84.8v52h-84.8v59.2h89.2v52h-150.8V227.96Zm-228.8,0h94c23.2,0,48.8,3.2,70,22,22.8,20,26,46.4,26,64.8,0,33.6-12.8,52.4-22.8,62.8-21.2,21.6-49.2,23.6-68,23.6h-37.6v93.6h-61.6V227.96Zm-210,0h177.6v52h-58v214.8h-61.6v-214.8h-58v-52h0Zm-552.8,233.6c-25.6-24-41.6-60-41.6-99.2s17.2-77.2,41.2-101.2c18-18,51.2-39.2,104.4-39.2,41.6,0,76.4,12.8,103.2,38.8,25.2,24.4,41.6,59.6,41.6,100.8,0,35.6-12.8,72-41.6,100-24.8,24-58.4,39.2-103.2,39.2-50,0-84-20-104-39.2Zm323.5,177.5c-3.52-16.41-8.5-29.36-14.94-38.87-6.45-9.5-15.5-16.53-27.15-21.09s-27.25-7.49-46.78-8.79l-24.8-1.37v139.26l36.52-1.95c10.81-.52,19.07-2.34,24.8-5.47,5.73-3.12,9.93-7.65,12.6-13.57s4.85-13.31,6.54-22.17h.2v86.52h-.2c-1.69-8.85-3.88-16.24-6.54-22.17-2.67-5.92-6.87-10.45-12.6-13.57s-14-5.01-24.8-5.66l-36.52-1.76v112.3c0,6.51.59,11.72,1.76,15.62s3.48,6.97,6.93,9.18c3.45,2.22,8.5,3.91,15.14,5.08v.2h-102.34v-.2c5.73-1.56,10.19-3.25,13.38-5.08,3.19-1.82,5.4-4.42,6.64-7.81,1.24-3.38,1.86-8.01,1.86-13.87v-228.12c0-5.99-.62-10.64-1.86-13.96s-3.45-5.92-6.64-7.81-7.65-3.55-13.38-4.98v-.2h189.06l3.32,70.31h-.2,0Zm-28.7-253.09v-158h61.6v156.4c0,11.6.8,31.2,14,44.8,10.8,11.6,25.6,14,37.2,14s26.4-2.4,37.2-14c13.2-13.6,14-33.2,14-44.8v-156.4h61.6v158c0,25.6-3.2,57.2-29.6,84.4-25.6,26.4-55.2,30.4-83.2,30.4s-57.6-4-83.2-30.4c-26.4-27.2-29.6-58.8-29.6-84.4Zm317.47,379.46c-6.71,17.45-16.34,32.81-28.91,46.09-12.57,13.28-27.54,23.63-44.92,31.05s-36.82,11.13-58.3,11.13c-19.53,0-37.99-3.38-55.37-10.16-17.38-6.77-32.78-16.41-46.19-28.91-13.41-12.5-23.96-27.6-31.64-45.31s-11.52-37.56-11.52-59.57c0-20.05,3.38-38.77,10.16-56.15,6.77-17.38,16.41-32.65,28.91-45.8,12.5-13.15,27.47-23.44,44.92-30.86s36.85-11.13,58.2-11.13c19.4,0,37.82,3.35,55.27,10.06s32.91,16.31,46.39,28.81,24.02,27.57,31.64,45.21c7.62,17.65,11.43,37.47,11.43,59.47,0,19.92-3.35,38.61-10.06,56.05v.02Zm278.21,85.35h-70.51l-63.09-136.33h-34.57v110.94c0,5.34.62,9.57,1.86,12.7,1.24,3.12,3.35,5.63,6.35,7.52,2.99,1.89,7.23,3.55,12.7,4.98v.2h-99.41v-.2c5.73-1.69,10.19-3.48,13.38-5.37s5.4-4.52,6.64-7.91c1.24-3.38,1.86-7.88,1.86-13.48v-228.12c0-6.12-.62-10.87-1.86-14.26-1.24-3.38-3.45-6.02-6.64-7.91-3.19-1.89-7.65-3.42-13.38-4.59v-.2h101.37c26.69,0,48.83,3.06,66.41,9.18,17.58,6.12,30.73,14.72,39.45,25.78,8.72,11.07,13.09,24.09,13.09,39.06,0,11.46-2.64,21.65-7.91,30.57s-12.4,16.28-21.39,22.07c-8.04,5.19-17.03,8.98-26.96,11.4l44.14,92.99c6.51,13.02,11.91,22.92,16.21,29.69,4.3,6.77,8.17,11.62,11.62,14.55s7,5.11,10.64,6.54v.2h0Zm331.25,0h-101.17v-.2c5.86-1.17,10.42-2.64,13.67-4.39,3.25-1.76,5.53-4.39,6.84-7.91,1.3-3.52,1.82-8.27,1.56-14.26l-8.33-231-71.36,202.29-17.97,55.47h-21.88l-94.03-260.45-3.43,206.55c-.13,13.28.32,23.57,1.37,30.86,1.04,7.29,3.35,12.57,6.93,15.82,3.58,3.26,8.95,5.6,16.11,7.03v.2h-59.18v-.2c7.03-1.17,12.4-3.42,16.11-6.74s6.38-8.66,8.01-16.02c1.63-7.35,2.76-17.68,3.42-30.96l9.57-194.92c.39-6.64-.13-12.14-1.56-16.5s-3.74-7.88-6.93-10.55c-3.19-2.67-7.26-4.65-12.21-5.96v-.2h73.63l81.45,226.56,72.66-226.56h75.78v.2c-5.34,1.17-9.54,2.77-12.6,4.79-3.06,2.02-5.15,4.72-6.25,8.11-1.11,3.39-1.6,7.94-1.46,13.67l8.79,228.52c.26,5.99.98,10.71,2.15,14.16,1.17,3.45,3.35,6.09,6.54,7.91,3.19,1.83,7.78,3.32,13.77,4.49v.2h0Zm104.24-356.03l-72-105.2v105.2h-61.6V227.96h93.6c34,0,55.2,11.2,68,23.2,11.2,10.8,23.2,30,23.2,59.6,0,16.8-3.6,37.6-20.8,54.4-9.2,8.8-22.4,16.8-37.2,20.4l82,109.2h-75.2Z"/>
  <path class="cls-1" d="m1588.59,284.36c-10-7.6-26-8.4-34-8.4h-14.4v73.2h14c11.2,0,26.4-1.2,36.8-11.6,4.4-4.4,10-12.8,10-26,0-15.2-7.2-23.2-12.4-27.2h0Z"/>
</svg>