<svg width="591" height="143" viewBox="0 0 591 143" fill="none" xmlns="http://www.w3.org/2000/svg">
<path d="M9.064 3.866H5.5V17H3.872V3.866H0.308V2.326H9.064V3.866ZM9.27334 17V0.961999H10.8573V8.926C11.1433 8.552 11.9573 7.65 13.4753 7.65C14.5533 7.65 15.5433 8.09 16.0933 8.904C16.5553 9.586 16.6213 10.334 16.6213 11.346V17H15.0373V11.39C15.0373 10.84 14.9933 10.202 14.6193 9.718C14.3113 9.322 13.8273 9.058 13.1233 9.058C12.5733 9.058 11.9793 9.212 11.5173 9.762C10.9013 10.488 10.8573 11.566 10.8573 12.226V17H9.27334ZM26.1685 13.942L27.4885 14.668C27.2245 15.174 26.8285 15.724 26.3665 16.142C25.5305 16.89 24.4965 17.264 23.3305 17.264C21.1305 17.264 18.8205 15.878 18.8205 12.49C18.8205 9.762 20.4925 7.65 23.2425 7.65C25.0245 7.65 26.1465 8.53 26.6965 9.322C27.2685 10.136 27.5985 11.544 27.5545 12.754H20.4485C20.4705 14.646 21.7685 15.856 23.3525 15.856C24.1005 15.856 24.6945 15.636 25.2225 15.196C25.6405 14.844 25.9705 14.382 26.1685 13.942ZM20.5585 11.434H25.9265C25.6625 10.004 24.5845 9.058 23.2425 9.058C21.9005 9.058 20.8005 10.07 20.5585 11.434ZM43.369 4.372L42.071 5.23C41.873 4.834 41.543 4.394 41.213 4.13C40.927 3.91 40.399 3.624 39.563 3.624C38.111 3.624 37.099 4.526 37.099 5.89C37.099 6.462 37.253 6.792 37.649 7.166C38.089 7.606 38.639 7.848 39.189 8.09L40.597 8.706C41.455 9.08 42.247 9.476 42.863 10.092C43.611 10.84 43.919 11.698 43.919 12.754C43.919 15.46 41.917 17.264 39.277 17.264C38.309 17.264 37.099 17.066 36.087 16.076C35.361 15.372 34.921 14.36 34.723 13.48L36.307 13.04C36.417 13.81 36.769 14.47 37.187 14.91C37.825 15.548 38.551 15.724 39.299 15.724C41.301 15.724 42.247 14.294 42.247 12.82C42.247 12.16 42.049 11.588 41.521 11.104C41.103 10.708 40.531 10.444 39.761 10.092L38.441 9.476C37.869 9.212 37.143 8.904 36.483 8.266C35.845 7.65 35.471 6.968 35.471 5.868C35.471 3.602 37.209 2.084 39.585 2.084C40.487 2.084 41.213 2.26 41.939 2.744C42.533 3.14 43.039 3.734 43.369 4.372ZM48.0678 17H46.3958L48.8378 1.512L54.4698 13.898L60.2118 1.49L62.4998 17H60.8278L59.4418 6.792L54.4478 17.616L49.5198 6.792L48.0678 17ZM69.106 17.352L67.874 16.45L71.24 11.764C70.822 11.896 70.404 11.962 69.942 11.962C67.126 11.962 65.19 9.85 65.19 7.122C65.19 4.196 67.302 2.084 70.228 2.084C73.682 2.084 75.31 4.768 75.31 7.078C75.31 7.628 75.2 8.926 74.1 10.444L69.106 17.352ZM70.25 3.58C68.226 3.58 66.818 5.098 66.818 7.078C66.818 9.036 68.27 10.466 70.272 10.466C72.274 10.466 73.682 8.992 73.682 7.078C73.682 5.12 72.296 3.58 70.25 3.58ZM81.8166 7.87H83.5766L86.2826 14.074L89.1426 7.166L91.9806 14.074L94.7086 7.87H96.4686L91.9366 17.638L89.1206 10.818L86.3046 17.638L81.8166 7.87ZM104.909 13.942L106.229 14.668C105.965 15.174 105.569 15.724 105.107 16.142C104.271 16.89 103.237 17.264 102.071 17.264C99.8707 17.264 97.5607 15.878 97.5607 12.49C97.5607 9.762 99.2327 7.65 101.983 7.65C103.765 7.65 104.887 8.53 105.437 9.322C106.009 10.136 106.339 11.544 106.295 12.754H99.1887C99.2107 14.646 100.509 15.856 102.093 15.856C102.841 15.856 103.435 15.636 103.963 15.196C104.381 14.844 104.711 14.382 104.909 13.942ZM99.2987 11.434H104.667C104.403 10.004 103.325 9.058 101.983 9.058C100.641 9.058 99.5407 10.07 99.2987 11.434ZM115.721 9.168V0.961999H117.305V17H115.721V15.724C115.193 16.406 114.203 17.264 112.597 17.264C110.287 17.264 108.153 15.636 108.153 12.424C108.153 9.278 110.265 7.65 112.597 7.65C114.357 7.65 115.303 8.618 115.721 9.168ZM112.773 9.058C111.211 9.058 109.781 10.202 109.781 12.424C109.781 14.382 110.881 15.856 112.773 15.856C114.709 15.856 115.809 14.25 115.809 12.446C115.809 10.092 114.181 9.058 112.773 9.058ZM127.301 9.168V7.87H128.885V16.78C128.885 17.77 128.885 19.178 128.005 20.366C127.323 21.29 126.069 22.06 124.353 22.06C122.791 22.06 121.713 21.444 121.097 20.828C120.481 20.212 119.909 19.222 119.909 17.88H121.471C121.471 18.65 121.779 19.332 122.175 19.772C122.835 20.498 123.671 20.652 124.375 20.652C125.497 20.652 126.267 20.256 126.795 19.376C127.257 18.628 127.301 17.814 127.301 17.044V15.724C126.773 16.406 125.783 17.264 124.177 17.264C122.835 17.264 121.757 16.736 121.053 16.032C120.437 15.416 119.733 14.272 119.733 12.424C119.733 10.642 120.393 9.542 121.053 8.882C121.823 8.134 122.945 7.65 124.177 7.65C125.519 7.65 126.575 8.222 127.301 9.168ZM124.353 9.058C123.385 9.058 122.725 9.476 122.285 9.916C121.515 10.708 121.361 11.676 121.361 12.424C121.361 13.216 121.515 14.294 122.395 15.108C122.901 15.57 123.517 15.856 124.353 15.856C125.189 15.856 125.849 15.592 126.355 15.086C126.971 14.492 127.389 13.524 127.389 12.446C127.389 11.368 126.993 10.422 126.421 9.872C125.915 9.366 125.167 9.058 124.353 9.058ZM138.661 13.942L139.981 14.668C139.717 15.174 139.321 15.724 138.859 16.142C138.023 16.89 136.989 17.264 135.823 17.264C133.623 17.264 131.313 15.878 131.313 12.49C131.313 9.762 132.985 7.65 135.735 7.65C137.517 7.65 138.639 8.53 139.189 9.322C139.761 10.136 140.091 11.544 140.047 12.754H132.941C132.963 14.646 134.261 15.856 135.845 15.856C136.593 15.856 137.187 15.636 137.715 15.196C138.133 14.844 138.463 14.382 138.661 13.942ZM133.051 11.434H138.419C138.155 10.004 137.077 9.058 135.735 9.058C134.393 9.058 133.293 10.07 133.051 11.434ZM151.879 17.264C149.107 17.264 147.039 15.24 147.039 12.468C147.039 9.696 149.085 7.65 151.879 7.65C154.673 7.65 156.719 9.696 156.719 12.468C156.719 15.24 154.651 17.264 151.879 17.264ZM151.879 9.058C150.207 9.058 148.667 10.246 148.667 12.468C148.667 14.712 150.251 15.856 151.879 15.856C153.529 15.856 155.091 14.69 155.091 12.468C155.091 10.224 153.551 9.058 151.879 9.058ZM163.02 9.322H160.776V17H159.192V9.322H158.312V7.87H159.192V3.888C159.192 3.052 159.258 1.996 160.072 1.314C160.512 0.94 161.172 0.72 161.898 0.72C162.47 0.72 162.844 0.851999 163.02 0.918V2.458C162.69 2.326 162.316 2.26 161.986 2.26C161.634 2.26 161.216 2.348 160.974 2.744C160.776 3.074 160.776 3.58 160.776 4.064V7.87H163.02V9.322ZM168.735 9.322H166.491V17H164.907V9.322H164.027V7.87H164.907V3.888C164.907 3.052 164.973 1.996 165.787 1.314C166.227 0.94 166.887 0.72 167.613 0.72C168.185 0.72 168.559 0.851999 168.735 0.918V2.458C168.405 2.326 168.031 2.26 167.701 2.26C167.349 2.26 166.931 2.348 166.689 2.744C166.491 3.074 166.491 3.58 166.491 4.064V7.87H168.735V9.322ZM176.924 13.942L178.244 14.668C177.98 15.174 177.584 15.724 177.122 16.142C176.286 16.89 175.252 17.264 174.086 17.264C171.886 17.264 169.576 15.878 169.576 12.49C169.576 9.762 171.248 7.65 173.998 7.65C175.78 7.65 176.902 8.53 177.452 9.322C178.024 10.136 178.354 11.544 178.31 12.754H171.204C171.226 14.646 172.524 15.856 174.108 15.856C174.856 15.856 175.45 15.636 175.978 15.196C176.396 14.844 176.726 14.382 176.924 13.942ZM171.314 11.434H176.682C176.418 10.004 175.34 9.058 173.998 9.058C172.656 9.058 171.556 10.07 171.314 11.434ZM180.74 17V7.87H182.324V8.86C182.478 8.618 183.16 7.65 184.392 7.65C184.876 7.65 185.404 7.826 185.8 8.024L185.052 9.454C184.7 9.212 184.37 9.146 184.128 9.146C183.49 9.146 183.094 9.41 182.852 9.718C182.588 10.07 182.324 10.686 182.324 12.182V17H180.74ZM192.074 9.3L190.776 9.982C190.556 9.454 190.094 9.058 189.5 9.058C188.928 9.058 188.4 9.388 188.4 10.092C188.4 10.752 188.84 10.95 189.874 11.39C191.194 11.94 191.81 12.358 192.162 12.798C192.558 13.282 192.646 13.766 192.646 14.272C192.646 16.186 191.26 17.264 189.5 17.264C189.126 17.264 187.08 17.22 186.31 14.932L187.674 14.36C187.85 14.844 188.378 15.856 189.522 15.856C190.556 15.856 191.018 15.086 191.018 14.404C191.018 13.546 190.402 13.26 189.544 12.886C188.444 12.402 187.74 12.05 187.322 11.544C186.97 11.104 186.904 10.664 186.904 10.202C186.904 8.596 188.026 7.65 189.566 7.65C190.05 7.65 191.348 7.738 192.074 9.3ZM206.879 9.168V7.87H208.463V17H206.879V15.724C206.351 16.406 205.361 17.264 203.755 17.264C201.445 17.264 199.311 15.636 199.311 12.424C199.311 9.278 201.423 7.65 203.755 7.65C205.515 7.65 206.461 8.618 206.879 9.168ZM203.931 9.058C202.369 9.058 200.939 10.202 200.939 12.424C200.939 14.382 202.039 15.856 203.931 15.856C205.867 15.856 206.967 14.25 206.967 12.446C206.967 10.092 205.339 9.058 203.931 9.058ZM215.278 7.87H217.038L219.766 14.03L222.494 7.87H224.254L219.766 17.594L215.278 7.87ZM232.918 9.168V7.87H234.502V17H232.918V15.724C232.39 16.406 231.4 17.264 229.794 17.264C227.484 17.264 225.35 15.636 225.35 12.424C225.35 9.278 227.462 7.65 229.794 7.65C231.554 7.65 232.5 8.618 232.918 9.168ZM229.97 9.058C228.408 9.058 226.978 10.202 226.978 12.424C226.978 14.382 228.078 15.856 229.97 15.856C231.906 15.856 233.006 14.25 233.006 12.446C233.006 10.092 231.378 9.058 229.97 9.058ZM237.502 17V7.87H239.086V8.86C239.24 8.618 239.922 7.65 241.154 7.65C241.638 7.65 242.166 7.826 242.562 8.024L241.814 9.454C241.462 9.212 241.132 9.146 240.89 9.146C240.252 9.146 239.856 9.41 239.614 9.718C239.35 10.07 239.086 10.686 239.086 12.182V17H237.502ZM244.012 7.87H245.596V17H244.012V7.87ZM243.682 4.416C243.682 3.8 244.188 3.294 244.804 3.294C245.42 3.294 245.926 3.8 245.926 4.416C245.926 5.032 245.42 5.538 244.804 5.538C244.188 5.538 243.682 5.032 243.682 4.416ZM255.364 13.942L256.684 14.668C256.42 15.174 256.024 15.724 255.562 16.142C254.726 16.89 253.692 17.264 252.526 17.264C250.326 17.264 248.016 15.878 248.016 12.49C248.016 9.762 249.688 7.65 252.438 7.65C254.22 7.65 255.342 8.53 255.892 9.322C256.464 10.136 256.794 11.544 256.75 12.754H249.644C249.666 14.646 250.964 15.856 252.548 15.856C253.296 15.856 253.89 15.636 254.418 15.196C254.836 14.844 255.166 14.382 255.364 13.942ZM249.754 11.434H255.122C254.858 10.004 253.78 9.058 252.438 9.058C251.096 9.058 249.996 10.07 249.754 11.434ZM262.392 9.322H260.808V17H259.224V9.322H258.256V7.87H259.224V4.57H260.808V7.87H262.392V9.322ZM264.529 22.06L267.433 16.142L263.231 7.87H265.035L268.269 14.404L271.239 7.87H272.999L266.289 22.06H264.529ZM284.073 17.264C281.301 17.264 279.233 15.24 279.233 12.468C279.233 9.696 281.279 7.65 284.073 7.65C286.867 7.65 288.913 9.696 288.913 12.468C288.913 15.24 286.845 17.264 284.073 17.264ZM284.073 9.058C282.401 9.058 280.861 10.246 280.861 12.468C280.861 14.712 282.445 15.856 284.073 15.856C285.723 15.856 287.285 14.69 287.285 12.468C287.285 10.224 285.745 9.058 284.073 9.058ZM295.214 9.322H292.97V17H291.386V9.322H290.506V7.87H291.386V3.888C291.386 3.052 291.452 1.996 292.266 1.314C292.706 0.94 293.366 0.72 294.092 0.72C294.664 0.72 295.038 0.851999 295.214 0.918V2.458C294.884 2.326 294.51 2.26 294.18 2.26C293.828 2.26 293.41 2.348 293.168 2.744C292.97 3.074 292.97 3.58 292.97 4.064V7.87H295.214V9.322ZM301.762 0.961999H303.346V17H301.762V0.961999ZM310.606 17.264C307.834 17.264 305.766 15.24 305.766 12.468C305.766 9.696 307.812 7.65 310.606 7.65C313.4 7.65 315.446 9.696 315.446 12.468C315.446 15.24 313.378 17.264 310.606 17.264ZM310.606 9.058C308.934 9.058 307.394 10.246 307.394 12.468C307.394 14.712 308.978 15.856 310.606 15.856C312.256 15.856 313.818 14.69 313.818 12.468C313.818 10.224 312.278 9.058 310.606 9.058ZM321.747 9.322H319.503V17H317.919V9.322H317.039V7.87H317.919V3.888C317.919 3.052 317.985 1.996 318.799 1.314C319.239 0.94 319.899 0.72 320.625 0.72C321.197 0.72 321.571 0.851999 321.747 0.918V2.458C321.417 2.326 321.043 2.26 320.713 2.26C320.361 2.26 319.943 2.348 319.701 2.744C319.503 3.074 319.503 3.58 319.503 4.064V7.87H321.747V9.322ZM326.802 9.322H325.218V17H323.634V9.322H322.666V7.87H323.634V4.57H325.218V7.87H326.802V9.322ZM340.426 9.168V7.87H342.01V17H340.426V15.724C339.898 16.406 338.908 17.264 337.302 17.264C334.992 17.264 332.858 15.636 332.858 12.424C332.858 9.278 334.97 7.65 337.302 7.65C339.062 7.65 340.008 8.618 340.426 9.168ZM337.478 9.058C335.916 9.058 334.486 10.202 334.486 12.424C334.486 14.382 335.586 15.856 337.478 15.856C339.414 15.856 340.514 14.25 340.514 12.446C340.514 10.092 338.886 9.058 337.478 9.058ZM345.01 17V7.87H346.594V8.926C346.88 8.552 347.694 7.65 349.212 7.65C350.29 7.65 351.28 8.09 351.83 8.904C352.292 9.586 352.358 10.334 352.358 11.346V17H350.774V11.39C350.774 10.84 350.73 10.202 350.356 9.718C350.048 9.322 349.564 9.058 348.86 9.058C348.31 9.058 347.716 9.212 347.254 9.762C346.638 10.488 346.594 11.566 346.594 12.226V17H345.01ZM362.34 9.168V0.961999H363.924V17H362.34V15.724C361.812 16.406 360.822 17.264 359.216 17.264C356.906 17.264 354.772 15.636 354.772 12.424C354.772 9.278 356.884 7.65 359.216 7.65C360.976 7.65 361.922 8.618 362.34 9.168ZM359.392 9.058C357.83 9.058 356.4 10.202 356.4 12.424C356.4 14.382 357.5 15.856 359.392 15.856C361.328 15.856 362.428 14.25 362.428 12.446C362.428 10.092 360.8 9.058 359.392 9.058ZM373.643 15.724V17H372.059V0.961999H373.643V9.146C374.721 7.804 376.107 7.65 376.767 7.65C379.627 7.65 381.211 10.026 381.211 12.49C381.211 14.998 379.605 17.264 376.833 17.264C375.359 17.264 374.325 16.604 373.643 15.724ZM376.613 15.856C378.461 15.856 379.583 14.316 379.583 12.49C379.583 10.246 378.065 9.058 376.591 9.058C375.117 9.058 373.555 10.268 373.555 12.468C373.555 14.338 374.743 15.856 376.613 15.856ZM387.907 17.264C385.135 17.264 383.067 15.24 383.067 12.468C383.067 9.696 385.113 7.65 387.907 7.65C390.701 7.65 392.747 9.696 392.747 12.468C392.747 15.24 390.679 17.264 387.907 17.264ZM387.907 9.058C386.235 9.058 384.695 10.246 384.695 12.468C384.695 14.712 386.279 15.856 387.907 15.856C389.557 15.856 391.119 14.69 391.119 12.468C391.119 10.224 389.579 9.058 387.907 9.058ZM396.76 7.87V13.194C396.76 13.832 396.76 14.58 397.2 15.152C397.442 15.46 397.926 15.856 398.806 15.856C399.686 15.856 400.17 15.46 400.412 15.152C400.852 14.58 400.852 13.832 400.852 13.194V7.87H402.436V13.37C402.436 14.492 402.326 15.328 401.6 16.12C400.786 16.978 399.708 17.264 398.806 17.264C397.904 17.264 396.826 16.978 396.012 16.12C395.286 15.328 395.176 14.492 395.176 13.37V7.87H396.76ZM405.424 17V7.87H407.008V8.926C407.294 8.552 408.108 7.65 409.626 7.65C410.704 7.65 411.694 8.09 412.244 8.904C412.706 9.586 412.772 10.334 412.772 11.346V17H411.188V11.39C411.188 10.84 411.144 10.202 410.77 9.718C410.462 9.322 409.978 9.058 409.274 9.058C408.724 9.058 408.13 9.212 407.668 9.762C407.052 10.488 407.008 11.566 407.008 12.226V17H405.424ZM422.908 8.53V10.422C422.072 9.366 420.862 9.058 420.048 9.058C418.354 9.058 416.814 10.246 416.814 12.468C416.814 14.69 418.398 15.856 420.026 15.856C420.972 15.856 422.138 15.438 422.974 14.426V16.318C421.984 17.044 420.928 17.264 420.07 17.264C417.232 17.264 415.186 15.24 415.186 12.49C415.186 9.696 417.254 7.65 420.07 7.65C421.522 7.65 422.468 8.222 422.908 8.53ZM432.18 13.942L433.5 14.668C433.236 15.174 432.84 15.724 432.378 16.142C431.542 16.89 430.508 17.264 429.342 17.264C427.142 17.264 424.832 15.878 424.832 12.49C424.832 9.762 426.504 7.65 429.254 7.65C431.036 7.65 432.158 8.53 432.708 9.322C433.28 10.136 433.61 11.544 433.566 12.754H426.46C426.482 14.646 427.78 15.856 429.364 15.856C430.112 15.856 430.706 15.636 431.234 15.196C431.652 14.844 431.982 14.382 432.18 13.942ZM426.57 11.434H431.938C431.674 10.004 430.596 9.058 429.254 9.058C427.912 9.058 426.812 10.07 426.57 11.434ZM445.399 17.264C442.627 17.264 440.559 15.24 440.559 12.468C440.559 9.696 442.605 7.65 445.399 7.65C448.193 7.65 450.239 9.696 450.239 12.468C450.239 15.24 448.171 17.264 445.399 17.264ZM445.399 9.058C443.727 9.058 442.187 10.246 442.187 12.468C442.187 14.712 443.771 15.856 445.399 15.856C447.049 15.856 448.611 14.69 448.611 12.468C448.611 10.224 447.071 9.058 445.399 9.058ZM454.252 15.724V22.06H452.668V7.87H454.252V9.146C455.33 7.804 456.716 7.65 457.376 7.65C460.236 7.65 461.82 10.026 461.82 12.49C461.82 14.998 460.214 17.264 457.442 17.264C455.968 17.264 454.934 16.604 454.252 15.724ZM457.222 15.856C459.07 15.856 460.192 14.316 460.192 12.49C460.192 10.246 458.674 9.058 457.2 9.058C455.726 9.058 454.164 10.268 454.164 12.468C454.164 14.338 455.352 15.856 457.222 15.856ZM467.46 9.322H465.876V17H464.292V9.322H463.324V7.87H464.292V4.57H465.876V7.87H467.46V9.322ZM468.953 7.87H470.537V17H468.953V7.87ZM468.623 4.416C468.623 3.8 469.129 3.294 469.745 3.294C470.361 3.294 470.867 3.8 470.867 4.416C470.867 5.032 470.361 5.538 469.745 5.538C469.129 5.538 468.623 5.032 468.623 4.416ZM477.797 17.264C475.025 17.264 472.957 15.24 472.957 12.468C472.957 9.696 475.003 7.65 477.797 7.65C480.591 7.65 482.637 9.696 482.637 12.468C482.637 15.24 480.569 17.264 477.797 17.264ZM477.797 9.058C476.125 9.058 474.585 10.246 474.585 12.468C474.585 14.712 476.169 15.856 477.797 15.856C479.447 15.856 481.009 14.69 481.009 12.468C481.009 10.224 479.469 9.058 477.797 9.058ZM485.066 17V7.87H486.65V8.926C486.936 8.552 487.75 7.65 489.268 7.65C490.346 7.65 491.336 8.09 491.886 8.904C492.348 9.586 492.414 10.334 492.414 11.346V17H490.83V11.39C490.83 10.84 490.786 10.202 490.412 9.718C490.104 9.322 489.62 9.058 488.916 9.058C488.366 9.058 487.772 9.212 487.31 9.762C486.694 10.488 486.65 11.566 486.65 12.226V17H485.066ZM500.46 9.3L499.162 9.982C498.942 9.454 498.48 9.058 497.886 9.058C497.314 9.058 496.786 9.388 496.786 10.092C496.786 10.752 497.226 10.95 498.26 11.39C499.58 11.94 500.196 12.358 500.548 12.798C500.944 13.282 501.032 13.766 501.032 14.272C501.032 16.186 499.646 17.264 497.886 17.264C497.512 17.264 495.466 17.22 494.696 14.932L496.06 14.36C496.236 14.844 496.764 15.856 497.908 15.856C498.942 15.856 499.404 15.086 499.404 14.404C499.404 13.546 498.788 13.26 497.93 12.886C496.83 12.402 496.126 12.05 495.708 11.544C495.356 11.104 495.29 10.664 495.29 10.202C495.29 8.596 496.412 7.65 497.952 7.65C498.436 7.65 499.734 7.738 500.46 9.3ZM511.481 9.322H509.897V17H508.313V9.322H507.345V7.87H508.313V4.57H509.897V7.87H511.481V9.322ZM512.975 17V0.961999H514.559V8.926C514.845 8.552 515.659 7.65 517.177 7.65C518.255 7.65 519.245 8.09 519.795 8.904C520.257 9.586 520.323 10.334 520.323 11.346V17H518.739V11.39C518.739 10.84 518.695 10.202 518.321 9.718C518.013 9.322 517.529 9.058 516.825 9.058C516.275 9.058 515.681 9.212 515.219 9.762C514.603 10.488 514.559 11.566 514.559 12.226V17H512.975ZM530.305 9.168V7.87H531.889V17H530.305V15.724C529.777 16.406 528.787 17.264 527.181 17.264C524.871 17.264 522.737 15.636 522.737 12.424C522.737 9.278 524.849 7.65 527.181 7.65C528.941 7.65 529.887 8.618 530.305 9.168ZM527.357 9.058C525.795 9.058 524.365 10.202 524.365 12.424C524.365 14.382 525.465 15.856 527.357 15.856C529.293 15.856 530.393 14.25 530.393 12.446C530.393 10.092 528.765 9.058 527.357 9.058ZM538.101 9.322H536.517V17H534.933V9.322H533.965V7.87H534.933V4.57H536.517V7.87H538.101V9.322ZM551.724 9.168V7.87H553.308V17H551.724V15.724C551.196 16.406 550.206 17.264 548.6 17.264C546.29 17.264 544.156 15.636 544.156 12.424C544.156 9.278 546.268 7.65 548.6 7.65C550.36 7.65 551.306 8.618 551.724 9.168ZM548.776 9.058C547.214 9.058 545.784 10.202 545.784 12.424C545.784 14.382 546.884 15.856 548.776 15.856C550.712 15.856 551.812 14.25 551.812 12.446C551.812 10.092 550.184 9.058 548.776 9.058ZM556.309 0.961999H557.893V17H556.309V0.961999ZM560.885 0.961999H562.469V17H560.885V0.961999ZM569.729 17.264C566.957 17.264 564.889 15.24 564.889 12.468C564.889 9.696 566.935 7.65 569.729 7.65C572.523 7.65 574.569 9.696 574.569 12.468C574.569 15.24 572.501 17.264 569.729 17.264ZM569.729 9.058C568.057 9.058 566.517 10.246 566.517 12.468C566.517 14.712 568.101 15.856 569.729 15.856C571.379 15.856 572.941 14.69 572.941 12.468C572.941 10.224 571.401 9.058 569.729 9.058ZM575.678 7.87H577.438L580.144 14.074L583.004 7.166L585.842 14.074L588.57 7.87H590.33L585.798 17.638L582.982 10.818L580.166 17.638L575.678 7.87ZM1.474 62.06L4.378 56.142L0.176 47.87H1.98L5.214 54.404L8.184 47.87H9.944L3.234 62.06H1.474ZM15.8831 57.264C13.1111 57.264 11.0431 55.24 11.0431 52.468C11.0431 49.696 13.0891 47.65 15.8831 47.65C18.6771 47.65 20.7231 49.696 20.7231 52.468C20.7231 55.24 18.6551 57.264 15.8831 57.264ZM15.8831 49.058C14.2111 49.058 12.6711 50.246 12.6711 52.468C12.6711 54.712 14.2551 55.856 15.8831 55.856C17.5331 55.856 19.0951 54.69 19.0951 52.468C19.0951 50.224 17.5551 49.058 15.8831 49.058ZM24.7363 47.87V53.194C24.7363 53.832 24.7363 54.58 25.1763 55.152C25.4183 55.46 25.9023 55.856 26.7823 55.856C27.6623 55.856 28.1463 55.46 28.3883 55.152C28.8283 54.58 28.8283 53.832 28.8283 53.194V47.87H30.4123V53.37C30.4123 54.492 30.3023 55.328 29.5763 56.12C28.7623 56.978 27.6843 57.264 26.7823 57.264C25.8803 57.264 24.8023 56.978 23.9883 56.12C23.2623 55.328 23.1523 54.492 23.1523 53.37V47.87H24.7363ZM41.7471 49.322H40.1631V57H38.5791V49.322H37.6111V47.87H38.5791V44.57H40.1631V47.87H41.7471V49.322ZM47.5081 57.264C44.7361 57.264 42.6681 55.24 42.6681 52.468C42.6681 49.696 44.7141 47.65 47.5081 47.65C50.3021 47.65 52.3481 49.696 52.3481 52.468C52.3481 55.24 50.2801 57.264 47.5081 57.264ZM47.5081 49.058C45.8361 49.058 44.2961 50.246 44.2961 52.468C44.2961 54.712 45.8801 55.856 47.5081 55.856C49.1581 55.856 50.7201 54.69 50.7201 52.468C50.7201 50.224 49.1801 49.058 47.5081 49.058ZM59.912 57V47.87H61.496V48.86C61.65 48.618 62.332 47.65 63.564 47.65C64.048 47.65 64.576 47.826 64.972 48.024L64.224 49.454C63.872 49.212 63.542 49.146 63.3 49.146C62.662 49.146 62.266 49.41 62.024 49.718C61.76 50.07 61.496 50.686 61.496 52.182V57H59.912ZM68.0058 47.87V53.194C68.0058 53.832 68.0058 54.58 68.4458 55.152C68.6878 55.46 69.1718 55.856 70.0518 55.856C70.9318 55.856 71.4158 55.46 71.6578 55.152C72.0978 54.58 72.0978 53.832 72.0978 53.194V47.87H73.6818V53.37C73.6818 54.492 73.5718 55.328 72.8458 56.12C72.0318 56.978 70.9538 57.264 70.0518 57.264C69.1498 57.264 68.0718 56.978 67.2578 56.12C66.5318 55.328 66.4218 54.492 66.4218 53.37V47.87H68.0058ZM76.6698 57V47.87H78.2538V48.926C78.5398 48.552 79.3538 47.65 80.8718 47.65C81.9498 47.65 82.9398 48.09 83.4898 48.904C83.9518 49.586 84.0178 50.334 84.0178 51.346V57H82.4338V51.39C82.4338 50.84 82.3898 50.202 82.0158 49.718C81.7078 49.322 81.2238 49.058 80.5198 49.058C79.9698 49.058 79.3758 49.212 78.9138 49.762C78.2978 50.488 78.2538 51.566 78.2538 52.226V57H76.6698ZM99.1346 49.168V47.87H100.719V57H99.1346V55.724C98.6066 56.406 97.6166 57.264 96.0106 57.264C93.7006 57.264 91.5666 55.636 91.5666 52.424C91.5666 49.278 93.6786 47.65 96.0106 47.65C97.7706 47.65 98.7166 48.618 99.1346 49.168ZM96.1866 49.058C94.6246 49.058 93.1946 50.202 93.1946 52.424C93.1946 54.382 94.2946 55.856 96.1866 55.856C98.1226 55.856 99.2226 54.25 99.2226 52.446C99.2226 50.092 97.5946 49.058 96.1866 49.058ZM107.533 47.87H109.293L112.021 54.03L114.749 47.87H116.509L112.021 57.594L107.533 47.87ZM125.174 49.168V47.87H126.758V57H125.174V55.724C124.646 56.406 123.656 57.264 122.05 57.264C119.74 57.264 117.606 55.636 117.606 52.424C117.606 49.278 119.718 47.65 122.05 47.65C123.81 47.65 124.756 48.618 125.174 49.168ZM122.226 49.058C120.664 49.058 119.234 50.202 119.234 52.424C119.234 54.382 120.334 55.856 122.226 55.856C124.162 55.856 125.262 54.25 125.262 52.446C125.262 50.092 123.634 49.058 122.226 49.058ZM129.758 57V47.87H131.342V48.86C131.496 48.618 132.178 47.65 133.41 47.65C133.894 47.65 134.422 47.826 134.818 48.024L134.07 49.454C133.718 49.212 133.388 49.146 133.146 49.146C132.508 49.146 132.112 49.41 131.87 49.718C131.606 50.07 131.342 50.686 131.342 52.182V57H129.758ZM136.267 47.87H137.851V57H136.267V47.87ZM135.937 44.416C135.937 43.8 136.443 43.294 137.059 43.294C137.675 43.294 138.181 43.8 138.181 44.416C138.181 45.032 137.675 45.538 137.059 45.538C136.443 45.538 135.937 45.032 135.937 44.416ZM147.62 53.942L148.94 54.668C148.676 55.174 148.28 55.724 147.818 56.142C146.982 56.89 145.948 57.264 144.782 57.264C142.582 57.264 140.272 55.878 140.272 52.49C140.272 49.762 141.944 47.65 144.694 47.65C146.476 47.65 147.598 48.53 148.148 49.322C148.72 50.136 149.05 51.544 149.006 52.754H141.9C141.922 54.646 143.22 55.856 144.804 55.856C145.552 55.856 146.146 55.636 146.674 55.196C147.092 54.844 147.422 54.382 147.62 53.942ZM142.01 51.434H147.378C147.114 50.004 146.036 49.058 144.694 49.058C143.352 49.058 142.252 50.07 142.01 51.434ZM154.647 49.322H153.063V57H151.479V49.322H150.511V47.87H151.479V44.57H153.063V47.87H154.647V49.322ZM156.785 62.06L159.689 56.142L155.487 47.87H157.291L160.525 54.404L163.495 47.87H165.255L158.545 62.06H156.785ZM176.328 57.264C173.556 57.264 171.488 55.24 171.488 52.468C171.488 49.696 173.534 47.65 176.328 47.65C179.122 47.65 181.168 49.696 181.168 52.468C181.168 55.24 179.1 57.264 176.328 57.264ZM176.328 49.058C174.656 49.058 173.116 50.246 173.116 52.468C173.116 54.712 174.7 55.856 176.328 55.856C177.978 55.856 179.54 54.69 179.54 52.468C179.54 50.224 178 49.058 176.328 49.058ZM187.47 49.322H185.226V57H183.642V49.322H182.762V47.87H183.642V43.888C183.642 43.052 183.708 41.996 184.522 41.314C184.962 40.94 185.622 40.72 186.348 40.72C186.92 40.72 187.294 40.852 187.47 40.918V42.458C187.14 42.326 186.766 42.26 186.436 42.26C186.084 42.26 185.666 42.348 185.424 42.744C185.226 43.074 185.226 43.58 185.226 44.064V47.87H187.47V49.322ZM199.077 49.3L197.779 49.982C197.559 49.454 197.097 49.058 196.503 49.058C195.931 49.058 195.403 49.388 195.403 50.092C195.403 50.752 195.843 50.95 196.877 51.39C198.197 51.94 198.813 52.358 199.165 52.798C199.561 53.282 199.649 53.766 199.649 54.272C199.649 56.186 198.263 57.264 196.503 57.264C196.129 57.264 194.083 57.22 193.313 54.932L194.677 54.36C194.853 54.844 195.381 55.856 196.525 55.856C197.559 55.856 198.021 55.086 198.021 54.404C198.021 53.546 197.405 53.26 196.547 52.886C195.447 52.402 194.743 52.05 194.325 51.544C193.973 51.104 193.907 50.664 193.907 50.202C193.907 48.596 195.029 47.65 196.569 47.65C197.053 47.65 198.351 47.738 199.077 49.3ZM201.752 57V40.962H203.336V48.926C203.622 48.552 204.436 47.65 205.954 47.65C207.032 47.65 208.022 48.09 208.572 48.904C209.034 49.586 209.1 50.334 209.1 51.346V57H207.516V51.39C207.516 50.84 207.472 50.202 207.098 49.718C206.79 49.322 206.306 49.058 205.602 49.058C205.052 49.058 204.458 49.212 203.996 49.762C203.38 50.488 203.336 51.566 203.336 52.226V57H201.752ZM216.032 57.264C213.26 57.264 211.192 55.24 211.192 52.468C211.192 49.696 213.238 47.65 216.032 47.65C218.826 47.65 220.872 49.696 220.872 52.468C220.872 55.24 218.804 57.264 216.032 57.264ZM216.032 49.058C214.36 49.058 212.82 50.246 212.82 52.468C212.82 54.712 214.404 55.856 216.032 55.856C217.682 55.856 219.244 54.69 219.244 52.468C219.244 50.224 217.704 49.058 216.032 49.058ZM226.513 49.322H224.929V57H223.345V49.322H222.377V47.87H223.345V44.57H224.929V47.87H226.513V49.322ZM233.066 49.3L231.768 49.982C231.548 49.454 231.086 49.058 230.492 49.058C229.92 49.058 229.392 49.388 229.392 50.092C229.392 50.752 229.832 50.95 230.866 51.39C232.186 51.94 232.802 52.358 233.154 52.798C233.55 53.282 233.638 53.766 233.638 54.272C233.638 56.186 232.252 57.264 230.492 57.264C230.118 57.264 228.072 57.22 227.302 54.932L228.666 54.36C228.842 54.844 229.37 55.856 230.514 55.856C231.548 55.856 232.01 55.086 232.01 54.404C232.01 53.546 231.394 53.26 230.536 52.886C229.436 52.402 228.732 52.05 228.314 51.544C227.962 51.104 227.896 50.664 227.896 50.202C227.896 48.596 229.018 47.65 230.558 47.65C231.042 47.65 232.34 47.738 233.066 49.3ZM235.652 56.12C235.652 55.526 236.158 55.02 236.752 55.02C237.346 55.02 237.852 55.526 237.852 56.12C237.852 56.714 237.346 57.22 236.752 57.22C236.158 57.22 235.652 56.714 235.652 56.12ZM257.497 43.536V45.56C257.035 45.098 256.331 44.548 255.583 44.196C254.813 43.844 253.911 43.624 253.053 43.624C249.665 43.624 247.157 46.352 247.157 49.74C247.157 53.722 250.391 55.724 253.075 55.724C254.065 55.724 255.033 55.438 255.803 55.042C256.639 54.624 257.233 54.074 257.497 53.81V55.834C255.869 57 254.175 57.264 253.075 57.264C248.719 57.264 245.485 53.964 245.485 49.718C245.485 45.34 248.763 42.084 253.163 42.084C254.043 42.084 255.737 42.194 257.497 43.536ZM260.103 57V40.962H261.687V48.926C261.973 48.552 262.787 47.65 264.305 47.65C265.383 47.65 266.373 48.09 266.923 48.904C267.385 49.586 267.451 50.334 267.451 51.346V57H265.867V51.39C265.867 50.84 265.823 50.202 265.449 49.718C265.141 49.322 264.657 49.058 263.953 49.058C263.403 49.058 262.809 49.212 262.347 49.762C261.731 50.488 261.687 51.566 261.687 52.226V57H260.103ZM277.433 49.168V47.87H279.017V57H277.433V55.724C276.905 56.406 275.915 57.264 274.309 57.264C271.999 57.264 269.865 55.636 269.865 52.424C269.865 49.278 271.977 47.65 274.309 47.65C276.069 47.65 277.015 48.618 277.433 49.168ZM274.485 49.058C272.923 49.058 271.493 50.202 271.493 52.424C271.493 54.382 272.593 55.856 274.485 55.856C276.421 55.856 277.521 54.25 277.521 52.446C277.521 50.092 275.893 49.058 274.485 49.058ZM282.017 57V47.87H283.601V48.926C283.887 48.552 284.701 47.65 286.219 47.65C287.297 47.65 288.287 48.09 288.837 48.904C289.299 49.586 289.365 50.334 289.365 51.346V57H287.781V51.39C287.781 50.84 287.737 50.202 287.363 49.718C287.055 49.322 286.571 49.058 285.867 49.058C285.317 49.058 284.723 49.212 284.261 49.762C283.645 50.488 283.601 51.566 283.601 52.226V57H282.017ZM299.347 49.168V47.87H300.931V56.78C300.931 57.77 300.931 59.178 300.051 60.366C299.369 61.29 298.115 62.06 296.399 62.06C294.837 62.06 293.759 61.444 293.143 60.828C292.527 60.212 291.955 59.222 291.955 57.88H293.517C293.517 58.65 293.825 59.332 294.221 59.772C294.881 60.498 295.717 60.652 296.421 60.652C297.543 60.652 298.313 60.256 298.841 59.376C299.303 58.628 299.347 57.814 299.347 57.044V55.724C298.819 56.406 297.829 57.264 296.223 57.264C294.881 57.264 293.803 56.736 293.099 56.032C292.483 55.416 291.779 54.272 291.779 52.424C291.779 50.642 292.439 49.542 293.099 48.882C293.869 48.134 294.991 47.65 296.223 47.65C297.565 47.65 298.621 48.222 299.347 49.168ZM296.399 49.058C295.431 49.058 294.771 49.476 294.331 49.916C293.561 50.708 293.407 51.676 293.407 52.424C293.407 53.216 293.561 54.294 294.441 55.108C294.947 55.57 295.563 55.856 296.399 55.856C297.235 55.856 297.895 55.592 298.401 55.086C299.017 54.492 299.435 53.524 299.435 52.446C299.435 51.368 299.039 50.422 298.467 49.872C297.961 49.366 297.213 49.058 296.399 49.058ZM310.708 53.942L312.028 54.668C311.764 55.174 311.368 55.724 310.906 56.142C310.07 56.89 309.036 57.264 307.87 57.264C305.67 57.264 303.36 55.878 303.36 52.49C303.36 49.762 305.032 47.65 307.782 47.65C309.564 47.65 310.686 48.53 311.236 49.322C311.808 50.136 312.138 51.544 312.094 52.754H304.988C305.01 54.646 306.308 55.856 307.892 55.856C308.64 55.856 309.234 55.636 309.762 55.196C310.18 54.844 310.51 54.382 310.708 53.942ZM305.098 51.434H310.466C310.202 50.004 309.124 49.058 307.782 49.058C306.44 49.058 305.34 50.07 305.098 51.434ZM319.583 49.3L318.285 49.982C318.065 49.454 317.603 49.058 317.009 49.058C316.437 49.058 315.909 49.388 315.909 50.092C315.909 50.752 316.349 50.95 317.383 51.39C318.703 51.94 319.319 52.358 319.671 52.798C320.067 53.282 320.155 53.766 320.155 54.272C320.155 56.186 318.769 57.264 317.009 57.264C316.635 57.264 314.589 57.22 313.819 54.932L315.183 54.36C315.359 54.844 315.887 55.856 317.031 55.856C318.065 55.856 318.527 55.086 318.527 54.404C318.527 53.546 317.911 53.26 317.053 52.886C315.953 52.402 315.249 52.05 314.831 51.544C314.479 51.104 314.413 50.664 314.413 50.202C314.413 48.596 315.535 47.65 317.075 47.65C317.559 47.65 318.857 47.738 319.583 49.3ZM327.392 47.87H328.976V57H327.392V47.87ZM327.062 44.416C327.062 43.8 327.568 43.294 328.184 43.294C328.8 43.294 329.306 43.8 329.306 44.416C329.306 45.032 328.8 45.538 328.184 45.538C327.568 45.538 327.062 45.032 327.062 44.416ZM331.969 57V47.87H333.553V48.926C333.839 48.552 334.653 47.65 336.171 47.65C337.249 47.65 338.239 48.09 338.789 48.904C339.251 49.586 339.317 50.334 339.317 51.346V57H337.733V51.39C337.733 50.84 337.689 50.202 337.315 49.718C337.007 49.322 336.523 49.058 335.819 49.058C335.269 49.058 334.675 49.212 334.213 49.762C333.597 50.488 333.553 51.566 333.553 52.226V57H331.969ZM347.437 40.962H349.021V57H347.437V40.962ZM356.282 57.264C353.51 57.264 351.442 55.24 351.442 52.468C351.442 49.696 353.488 47.65 356.282 47.65C359.076 47.65 361.122 49.696 361.122 52.468C361.122 55.24 359.054 57.264 356.282 57.264ZM356.282 49.058C354.61 49.058 353.07 50.246 353.07 52.468C353.07 54.712 354.654 55.856 356.282 55.856C357.932 55.856 359.494 54.69 359.494 52.468C359.494 50.224 357.954 49.058 356.282 49.058ZM367.423 49.322H365.179V57H363.595V49.322H362.715V47.87H363.595V43.888C363.595 43.052 363.661 41.996 364.475 41.314C364.915 40.94 365.575 40.72 366.301 40.72C366.873 40.72 367.247 40.852 367.423 40.918V42.458C367.093 42.326 366.719 42.26 366.389 42.26C366.037 42.26 365.619 42.348 365.377 42.744C365.179 43.074 365.179 43.58 365.179 44.064V47.87H367.423V49.322ZM372.478 49.322H370.894V57H369.31V49.322H368.342V47.87H369.31V44.57H370.894V47.87H372.478V49.322ZM386.101 49.168V47.87H387.685V57H386.101V55.724C385.573 56.406 384.583 57.264 382.977 57.264C380.667 57.264 378.533 55.636 378.533 52.424C378.533 49.278 380.645 47.65 382.977 47.65C384.737 47.65 385.683 48.618 386.101 49.168ZM383.153 49.058C381.591 49.058 380.161 50.202 380.161 52.424C380.161 54.382 381.261 55.856 383.153 55.856C385.089 55.856 386.189 54.25 386.189 52.446C386.189 50.092 384.561 49.058 383.153 49.058ZM390.685 57V47.87H392.269V48.926C392.555 48.552 393.369 47.65 394.887 47.65C395.965 47.65 396.955 48.09 397.505 48.904C397.967 49.586 398.033 50.334 398.033 51.346V57H396.449V51.39C396.449 50.84 396.405 50.202 396.031 49.718C395.723 49.322 395.239 49.058 394.535 49.058C393.985 49.058 393.391 49.212 392.929 49.762C392.313 50.488 392.269 51.566 392.269 52.226V57H390.685ZM408.015 49.168V40.962H409.599V57H408.015V55.724C407.487 56.406 406.497 57.264 404.891 57.264C402.581 57.264 400.447 55.636 400.447 52.424C400.447 49.278 402.559 47.65 404.891 47.65C406.651 47.65 407.597 48.618 408.015 49.168ZM405.067 49.058C403.505 49.058 402.075 50.202 402.075 52.424C402.075 54.382 403.175 55.856 405.067 55.856C407.003 55.856 408.103 54.25 408.103 52.446C408.103 50.092 406.475 49.058 405.067 49.058ZM419.318 55.724V57H417.734V40.962H419.318V49.146C420.396 47.804 421.782 47.65 422.442 47.65C425.302 47.65 426.886 50.026 426.886 52.49C426.886 54.998 425.28 57.264 422.508 57.264C421.034 57.264 420 56.604 419.318 55.724ZM422.288 55.856C424.136 55.856 425.258 54.316 425.258 52.49C425.258 50.246 423.74 49.058 422.266 49.058C420.792 49.058 419.23 50.268 419.23 52.468C419.23 54.338 420.418 55.856 422.288 55.856ZM433.582 57.264C430.81 57.264 428.742 55.24 428.742 52.468C428.742 49.696 430.788 47.65 433.582 47.65C436.376 47.65 438.422 49.696 438.422 52.468C438.422 55.24 436.354 57.264 433.582 57.264ZM433.582 49.058C431.91 49.058 430.37 50.246 430.37 52.468C430.37 54.712 431.954 55.856 433.582 55.856C435.232 55.856 436.794 54.69 436.794 52.468C436.794 50.224 435.254 49.058 433.582 49.058ZM442.435 47.87V53.194C442.435 53.832 442.435 54.58 442.875 55.152C443.117 55.46 443.601 55.856 444.481 55.856C445.361 55.856 445.845 55.46 446.087 55.152C446.527 54.58 446.527 53.832 446.527 53.194V47.87H448.111V53.37C448.111 54.492 448.001 55.328 447.275 56.12C446.461 56.978 445.383 57.264 444.481 57.264C443.579 57.264 442.501 56.978 441.687 56.12C440.961 55.328 440.851 54.492 440.851 53.37V47.87H442.435ZM451.1 57V47.87H452.684V48.926C452.97 48.552 453.784 47.65 455.302 47.65C456.38 47.65 457.37 48.09 457.92 48.904C458.382 49.586 458.448 50.334 458.448 51.346V57H456.864V51.39C456.864 50.84 456.82 50.202 456.446 49.718C456.138 49.322 455.654 49.058 454.95 49.058C454.4 49.058 453.806 49.212 453.344 49.762C452.728 50.488 452.684 51.566 452.684 52.226V57H451.1ZM468.584 48.53V50.422C467.748 49.366 466.538 49.058 465.724 49.058C464.03 49.058 462.49 50.246 462.49 52.468C462.49 54.69 464.074 55.856 465.702 55.856C466.648 55.856 467.814 55.438 468.65 54.426V56.318C467.66 57.044 466.604 57.264 465.745 57.264C462.908 57.264 460.862 55.24 460.862 52.49C460.862 49.696 462.93 47.65 465.745 47.65C467.198 47.65 468.144 48.222 468.584 48.53ZM477.856 53.942L479.176 54.668C478.912 55.174 478.516 55.724 478.054 56.142C477.218 56.89 476.184 57.264 475.018 57.264C472.818 57.264 470.508 55.878 470.508 52.49C470.508 49.762 472.18 47.65 474.93 47.65C476.712 47.65 477.834 48.53 478.384 49.322C478.956 50.136 479.286 51.544 479.242 52.754H472.136C472.158 54.646 473.456 55.856 475.04 55.856C475.788 55.856 476.382 55.636 476.91 55.196C477.328 54.844 477.658 54.382 477.856 53.942ZM472.246 51.434H477.614C477.35 50.004 476.272 49.058 474.93 49.058C473.588 49.058 472.488 50.07 472.246 51.434ZM486.807 57V40.962H488.391V48.926C488.677 48.552 489.491 47.65 491.009 47.65C492.087 47.65 493.077 48.09 493.627 48.904C494.089 49.586 494.155 50.334 494.155 51.346V57H492.571V51.39C492.571 50.84 492.527 50.202 492.153 49.718C491.845 49.322 491.361 49.058 490.657 49.058C490.107 49.058 489.513 49.212 489.051 49.762C488.435 50.488 488.391 51.566 488.391 52.226V57H486.807ZM503.702 53.942L505.022 54.668C504.758 55.174 504.362 55.724 503.9 56.142C503.064 56.89 502.03 57.264 500.864 57.264C498.664 57.264 496.354 55.878 496.354 52.49C496.354 49.762 498.026 47.65 500.776 47.65C502.558 47.65 503.68 48.53 504.23 49.322C504.802 50.136 505.132 51.544 505.088 52.754H497.982C498.004 54.646 499.302 55.856 500.886 55.856C501.634 55.856 502.228 55.636 502.756 55.196C503.174 54.844 503.504 54.382 503.702 53.942ZM498.092 51.434H503.46C503.196 50.004 502.118 49.058 500.776 49.058C499.434 49.058 498.334 50.07 498.092 51.434ZM507.517 40.962H509.101V57H507.517V40.962ZM513.678 55.724V62.06H512.094V47.87H513.678V49.146C514.756 47.804 516.142 47.65 516.802 47.65C519.662 47.65 521.246 50.026 521.246 52.49C521.246 54.998 519.64 57.264 516.868 57.264C515.394 57.264 514.36 56.604 513.678 55.724ZM516.648 55.856C518.496 55.856 519.618 54.316 519.618 52.49C519.618 50.246 518.1 49.058 516.626 49.058C515.152 49.058 513.59 50.268 513.59 52.468C513.59 54.338 514.778 55.856 516.648 55.856ZM528.787 62.06L531.691 56.142L527.489 47.87H529.293L532.527 54.404L535.497 47.87H537.257L530.546 62.06H528.787ZM543.196 57.264C540.424 57.264 538.356 55.24 538.356 52.468C538.356 49.696 540.402 47.65 543.196 47.65C545.99 47.65 548.036 49.696 548.036 52.468C548.036 55.24 545.968 57.264 543.196 57.264ZM543.196 49.058C541.524 49.058 539.984 50.246 539.984 52.468C539.984 54.712 541.568 55.856 543.196 55.856C544.846 55.856 546.408 54.69 546.408 52.468C546.408 50.224 544.868 49.058 543.196 49.058ZM552.049 47.87V53.194C552.049 53.832 552.049 54.58 552.489 55.152C552.731 55.46 553.215 55.856 554.095 55.856C554.975 55.856 555.459 55.46 555.701 55.152C556.141 54.58 556.141 53.832 556.141 53.194V47.87H557.725V53.37C557.725 54.492 557.615 55.328 556.889 56.12C556.075 56.978 554.997 57.264 554.095 57.264C553.193 57.264 552.115 56.978 551.301 56.12C550.575 55.328 550.465 54.492 550.465 53.37V47.87H552.049ZM565.848 57V40.962H567.432V48.926C567.718 48.552 568.532 47.65 570.05 47.65C571.128 47.65 572.118 48.09 572.668 48.904C573.13 49.586 573.196 50.334 573.196 51.346V57H571.612V51.39C571.612 50.84 571.568 50.202 571.194 49.718C570.886 49.322 570.402 49.058 569.698 49.058C569.148 49.058 568.554 49.212 568.092 49.762C567.476 50.488 567.432 51.566 567.432 52.226V57H565.848ZM576.182 47.87H577.766V57H576.182V47.87ZM575.852 44.416C575.852 43.8 576.358 43.294 576.974 43.294C577.59 43.294 578.096 43.8 578.096 44.416C578.096 45.032 577.59 45.538 576.974 45.538C576.358 45.538 575.852 45.032 575.852 44.416ZM583.97 49.322H582.386V57H580.802V49.322H579.834V47.87H580.802V44.57H582.386V47.87H583.97V49.322ZM4.708 89.322H3.124V97H1.54V89.322H0.572V87.87H1.54V84.57H3.124V87.87H4.708V89.322ZM6.20108 97V80.962H7.78508V88.926C8.07108 88.552 8.88508 87.65 10.4031 87.65C11.4811 87.65 12.4711 88.09 13.0211 88.904C13.4831 89.586 13.5491 90.334 13.5491 91.346V97H11.9651V91.39C11.9651 90.84 11.9211 90.202 11.5471 89.718C11.2391 89.322 10.7551 89.058 10.0511 89.058C9.50108 89.058 8.90708 89.212 8.44508 89.762C7.82908 90.488 7.78508 91.566 7.78508 92.226V97H6.20108ZM23.0962 93.942L24.4162 94.668C24.1522 95.174 23.7562 95.724 23.2942 96.142C22.4582 96.89 21.4242 97.264 20.2582 97.264C18.0582 97.264 15.7482 95.878 15.7482 92.49C15.7482 89.762 17.4202 87.65 20.1702 87.65C21.9522 87.65 23.0742 88.53 23.6242 89.322C24.1962 90.136 24.5262 91.544 24.4822 92.754H17.3762C17.3982 94.646 18.6962 95.856 20.2802 95.856C21.0282 95.856 21.6222 95.636 22.1502 95.196C22.5682 94.844 22.8982 94.382 23.0962 93.942ZM17.4862 91.434H22.8542C22.5902 90.004 21.5122 89.058 20.1702 89.058C18.8282 89.058 17.7282 90.07 17.4862 91.434ZM33.6308 95.724V97H32.0468V80.962H33.6308V89.146C34.7088 87.804 36.0948 87.65 36.7548 87.65C39.6148 87.65 41.1988 90.026 41.1988 92.49C41.1988 94.998 39.5928 97.264 36.8208 97.264C35.3468 97.264 34.3128 96.604 33.6308 95.724ZM36.6008 95.856C38.4488 95.856 39.5708 94.316 39.5708 92.49C39.5708 90.246 38.0528 89.058 36.5788 89.058C35.1048 89.058 33.5428 90.268 33.5428 92.468C33.5428 94.338 34.7308 95.856 36.6008 95.856ZM50.6229 89.168V87.87H52.2069V97H50.6229V95.724C50.0949 96.406 49.1049 97.264 47.4989 97.264C45.1889 97.264 43.0549 95.636 43.0549 92.424C43.0549 89.278 45.1669 87.65 47.4989 87.65C49.2589 87.65 50.2049 88.618 50.6229 89.168ZM47.6749 89.058C46.1129 89.058 44.6829 90.202 44.6829 92.424C44.6829 94.382 45.7829 95.856 47.6749 95.856C49.6109 95.856 50.7109 94.25 50.7109 92.446C50.7109 90.092 49.0829 89.058 47.6749 89.058ZM55.2069 80.962H56.7909V97H55.2069V80.962ZM59.7831 80.962H61.3671V97H59.7831V80.962ZM73.366 89.322H71.122V97H69.538V89.322H68.658V87.87H69.538V83.888C69.538 83.052 69.604 81.996 70.418 81.314C70.858 80.94 71.518 80.72 72.244 80.72C72.816 80.72 73.19 80.852 73.366 80.918V82.458C73.036 82.326 72.662 82.26 72.332 82.26C71.98 82.26 71.562 82.348 71.32 82.744C71.122 83.074 71.122 83.58 71.122 84.064V87.87H73.366V89.322ZM74.7792 97V87.87H76.3632V88.86C76.5172 88.618 77.1992 87.65 78.4312 87.65C78.9152 87.65 79.4432 87.826 79.8392 88.024L79.0912 89.454C78.7392 89.212 78.4092 89.146 78.1672 89.146C77.5292 89.146 77.1332 89.41 76.8912 89.718C76.6272 90.07 76.3632 90.686 76.3632 92.182V97H74.7792ZM85.0199 97.264C82.2479 97.264 80.1799 95.24 80.1799 92.468C80.1799 89.696 82.2259 87.65 85.0199 87.65C87.8139 87.65 89.8599 89.696 89.8599 92.468C89.8599 95.24 87.7919 97.264 85.0199 97.264ZM85.0199 89.058C83.3479 89.058 81.8079 90.246 81.8079 92.468C81.8079 94.712 83.3919 95.856 85.0199 95.856C86.6699 95.856 88.2319 94.69 88.2319 92.468C88.2319 90.224 86.6919 89.058 85.0199 89.058ZM92.289 97V87.87H93.873V88.838C94.379 88.09 95.171 87.65 96.139 87.65C97.789 87.65 98.449 88.816 98.625 89.124C99.505 87.738 100.759 87.65 101.375 87.65C104.081 87.65 104.345 89.916 104.345 91.214V97H102.761V91.456C102.761 90.422 102.629 89.058 101.133 89.058C99.307 89.058 99.109 90.818 99.109 91.918V97H97.525V91.588C97.525 90.95 97.547 89.058 95.875 89.058C94.071 89.058 93.873 90.928 93.873 92.028V97H92.289ZM119.48 89.168V80.962H121.064V97H119.48V95.724C118.952 96.406 117.962 97.264 116.356 97.264C114.046 97.264 111.912 95.636 111.912 92.424C111.912 89.278 114.024 87.65 116.356 87.65C118.116 87.65 119.062 88.618 119.48 89.168ZM116.532 89.058C114.97 89.058 113.54 90.202 113.54 92.424C113.54 94.382 114.64 95.856 116.532 95.856C118.468 95.856 119.568 94.25 119.568 92.446C119.568 90.092 117.94 89.058 116.532 89.058ZM123.85 87.87H125.434V97H123.85V87.87ZM123.52 84.416C123.52 83.8 124.026 83.294 124.642 83.294C125.258 83.294 125.764 83.8 125.764 84.416C125.764 85.032 125.258 85.538 124.642 85.538C124.026 85.538 123.52 85.032 123.52 84.416ZM132.298 89.322H130.054V97H128.47V89.322H127.59V87.87H128.47V83.888C128.47 83.052 128.536 81.996 129.35 81.314C129.79 80.94 130.45 80.72 131.176 80.72C131.748 80.72 132.122 80.852 132.298 80.918V82.458C131.968 82.326 131.594 82.26 131.264 82.26C130.912 82.26 130.494 82.348 130.252 82.744C130.054 83.074 130.054 83.58 130.054 84.064V87.87H132.298V89.322ZM138.013 89.322H135.769V97H134.185V89.322H133.305V87.87H134.185V83.888C134.185 83.052 134.251 81.996 135.065 81.314C135.505 80.94 136.165 80.72 136.891 80.72C137.463 80.72 137.837 80.852 138.013 80.918V82.458C137.683 82.326 137.309 82.26 136.979 82.26C136.627 82.26 136.209 82.348 135.967 82.744C135.769 83.074 135.769 83.58 135.769 84.064V87.87H138.013V89.322ZM146.202 93.942L147.522 94.668C147.258 95.174 146.862 95.724 146.4 96.142C145.564 96.89 144.53 97.264 143.364 97.264C141.164 97.264 138.854 95.878 138.854 92.49C138.854 89.762 140.526 87.65 143.276 87.65C145.058 87.65 146.18 88.53 146.73 89.322C147.302 90.136 147.632 91.544 147.588 92.754H140.482C140.504 94.646 141.802 95.856 143.386 95.856C144.134 95.856 144.728 95.636 145.256 95.196C145.674 94.844 146.004 94.382 146.202 93.942ZM140.592 91.434H145.96C145.696 90.004 144.618 89.058 143.276 89.058C141.934 89.058 140.834 90.07 140.592 91.434ZM150.017 97V87.87H151.601V88.86C151.755 88.618 152.437 87.65 153.669 87.65C154.153 87.65 154.681 87.826 155.077 88.024L154.329 89.454C153.977 89.212 153.647 89.146 153.405 89.146C152.767 89.146 152.371 89.41 152.129 89.718C151.865 90.07 151.601 90.686 151.601 92.182V97H150.017ZM162.766 93.942L164.086 94.668C163.822 95.174 163.426 95.724 162.964 96.142C162.128 96.89 161.094 97.264 159.928 97.264C157.728 97.264 155.418 95.878 155.418 92.49C155.418 89.762 157.09 87.65 159.84 87.65C161.622 87.65 162.744 88.53 163.294 89.322C163.866 90.136 164.196 91.544 164.152 92.754H157.046C157.068 94.646 158.366 95.856 159.95 95.856C160.698 95.856 161.292 95.636 161.82 95.196C162.238 94.844 162.568 94.382 162.766 93.942ZM157.156 91.434H162.524C162.26 90.004 161.182 89.058 159.84 89.058C158.498 89.058 157.398 90.07 157.156 91.434ZM166.582 97V87.87H168.166V88.926C168.452 88.552 169.266 87.65 170.784 87.65C171.862 87.65 172.852 88.09 173.402 88.904C173.864 89.586 173.93 90.334 173.93 91.346V97H172.346V91.39C172.346 90.84 172.302 90.202 171.928 89.718C171.62 89.322 171.136 89.058 170.432 89.058C169.882 89.058 169.288 89.212 168.826 89.762C168.21 90.488 168.166 91.566 168.166 92.226V97H166.582ZM180.128 89.322H178.544V97H176.96V89.322H175.992V87.87H176.96V84.57H178.544V87.87H180.128V89.322ZM193.752 89.168V87.87H195.336V97H193.752V95.724C193.224 96.406 192.234 97.264 190.628 97.264C188.318 97.264 186.184 95.636 186.184 92.424C186.184 89.278 188.296 87.65 190.628 87.65C192.388 87.65 193.334 88.618 193.752 89.168ZM190.804 89.058C189.242 89.058 187.812 90.202 187.812 92.424C187.812 94.382 188.912 95.856 190.804 95.856C192.74 95.856 193.84 94.25 193.84 92.446C193.84 90.092 192.212 89.058 190.804 89.058ZM198.336 97V87.87H199.92V88.926C200.206 88.552 201.02 87.65 202.538 87.65C203.616 87.65 204.606 88.09 205.156 88.904C205.618 89.586 205.684 90.334 205.684 91.346V97H204.1V91.39C204.1 90.84 204.056 90.202 203.682 89.718C203.374 89.322 202.89 89.058 202.186 89.058C201.636 89.058 201.042 89.212 200.58 89.762C199.964 90.488 199.92 91.566 199.92 92.226V97H198.336ZM215.666 89.168V87.87H217.25V96.78C217.25 97.77 217.25 99.178 216.37 100.366C215.688 101.29 214.434 102.06 212.718 102.06C211.156 102.06 210.078 101.444 209.462 100.828C208.846 100.212 208.274 99.222 208.274 97.88H209.836C209.836 98.65 210.144 99.332 210.54 99.772C211.2 100.498 212.036 100.652 212.74 100.652C213.862 100.652 214.632 100.256 215.16 99.376C215.622 98.628 215.666 97.814 215.666 97.044V95.724C215.138 96.406 214.148 97.264 212.542 97.264C211.2 97.264 210.122 96.736 209.418 96.032C208.802 95.416 208.098 94.272 208.098 92.424C208.098 90.642 208.758 89.542 209.418 88.882C210.188 88.134 211.31 87.65 212.542 87.65C213.884 87.65 214.94 88.222 215.666 89.168ZM212.718 89.058C211.75 89.058 211.09 89.476 210.65 89.916C209.88 90.708 209.726 91.676 209.726 92.424C209.726 93.216 209.88 94.294 210.76 95.108C211.266 95.57 211.882 95.856 212.718 95.856C213.554 95.856 214.214 95.592 214.72 95.086C215.336 94.492 215.754 93.524 215.754 92.446C215.754 91.368 215.358 90.422 214.786 89.872C214.28 89.366 213.532 89.058 212.718 89.058ZM220.25 80.962H221.834V97H220.25V80.962ZM231.602 93.942L232.922 94.668C232.658 95.174 232.262 95.724 231.8 96.142C230.964 96.89 229.93 97.264 228.764 97.264C226.564 97.264 224.254 95.878 224.254 92.49C224.254 89.762 225.926 87.65 228.676 87.65C230.458 87.65 231.58 88.53 232.13 89.322C232.702 90.136 233.032 91.544 232.988 92.754H225.882C225.904 94.646 227.202 95.856 228.786 95.856C229.534 95.856 230.128 95.636 230.656 95.196C231.074 94.844 231.404 94.382 231.602 93.942ZM225.992 91.434H231.36C231.096 90.004 230.018 89.058 228.676 89.058C227.334 89.058 226.234 90.07 225.992 91.434ZM240.478 89.3L239.18 89.982C238.96 89.454 238.498 89.058 237.904 89.058C237.332 89.058 236.804 89.388 236.804 90.092C236.804 90.752 237.244 90.95 238.278 91.39C239.598 91.94 240.214 92.358 240.566 92.798C240.962 93.282 241.05 93.766 241.05 94.272C241.05 96.186 239.664 97.264 237.904 97.264C237.53 97.264 235.484 97.22 234.714 94.932L236.078 94.36C236.254 94.844 236.782 95.856 237.926 95.856C238.96 95.856 239.422 95.086 239.422 94.404C239.422 93.546 238.806 93.26 237.948 92.886C236.848 92.402 236.144 92.05 235.726 91.544C235.374 91.104 235.308 90.664 235.308 90.202C235.308 88.596 236.43 87.65 237.97 87.65C238.454 87.65 239.752 87.738 240.478 89.3ZM255.283 89.168V87.87H256.867V97H255.283V95.724C254.755 96.406 253.765 97.264 252.159 97.264C249.849 97.264 247.715 95.636 247.715 92.424C247.715 89.278 249.827 87.65 252.159 87.65C253.919 87.65 254.865 88.618 255.283 89.168ZM252.335 89.058C250.773 89.058 249.343 90.202 249.343 92.424C249.343 94.382 250.443 95.856 252.335 95.856C254.271 95.856 255.371 94.25 255.371 92.446C255.371 90.092 253.743 89.058 252.335 89.058ZM259.867 97V87.87H261.451V88.926C261.737 88.552 262.551 87.65 264.069 87.65C265.147 87.65 266.137 88.09 266.687 88.904C267.149 89.586 267.215 90.334 267.215 91.346V97H265.631V91.39C265.631 90.84 265.587 90.202 265.213 89.718C264.905 89.322 264.421 89.058 263.717 89.058C263.167 89.058 262.573 89.212 262.111 89.762C261.495 90.488 261.451 91.566 261.451 92.226V97H259.867ZM277.197 89.168V80.962H278.781V97H277.197V95.724C276.669 96.406 275.679 97.264 274.073 97.264C271.763 97.264 269.629 95.636 269.629 92.424C269.629 89.278 271.741 87.65 274.073 87.65C275.833 87.65 276.779 88.618 277.197 89.168ZM274.249 89.058C272.687 89.058 271.257 90.202 271.257 92.424C271.257 94.382 272.357 95.856 274.249 95.856C276.185 95.856 277.285 94.25 277.285 92.446C277.285 90.092 275.657 89.058 274.249 89.058ZM293.912 89.168V87.87H295.496V97H293.912V95.724C293.384 96.406 292.394 97.264 290.788 97.264C288.478 97.264 286.344 95.636 286.344 92.424C286.344 89.278 288.456 87.65 290.788 87.65C292.548 87.65 293.494 88.618 293.912 89.168ZM290.964 89.058C289.402 89.058 287.972 90.202 287.972 92.424C287.972 94.382 289.072 95.856 290.964 95.856C292.9 95.856 294 94.25 294 92.446C294 90.092 292.372 89.058 290.964 89.058ZM305.492 89.168V80.962H307.076V97H305.492V95.724C304.964 96.406 303.974 97.264 302.368 97.264C300.058 97.264 297.924 95.636 297.924 92.424C297.924 89.278 300.036 87.65 302.368 87.65C304.128 87.65 305.074 88.618 305.492 89.168ZM302.544 89.058C300.982 89.058 299.552 90.202 299.552 92.424C299.552 94.382 300.652 95.856 302.544 95.856C304.48 95.856 305.58 94.25 305.58 92.446C305.58 90.092 303.952 89.058 302.544 89.058ZM317.072 89.168V87.87H318.656V97H317.072V95.724C316.544 96.406 315.554 97.264 313.948 97.264C311.638 97.264 309.504 95.636 309.504 92.424C309.504 89.278 311.616 87.65 313.948 87.65C315.708 87.65 316.654 88.618 317.072 89.168ZM314.124 89.058C312.562 89.058 311.132 90.202 311.132 92.424C311.132 94.382 312.232 95.856 314.124 95.856C316.06 95.856 317.16 94.25 317.16 92.446C317.16 90.092 315.532 89.058 314.124 89.058ZM323.24 95.724V102.06H321.656V87.87H323.24V89.146C324.318 87.804 325.704 87.65 326.364 87.65C329.224 87.65 330.808 90.026 330.808 92.49C330.808 94.998 329.202 97.264 326.43 97.264C324.956 97.264 323.922 96.604 323.24 95.724ZM326.21 95.856C328.058 95.856 329.18 94.316 329.18 92.49C329.18 90.246 327.662 89.058 326.188 89.058C324.714 89.058 323.152 90.268 323.152 92.468C323.152 94.338 324.34 95.856 326.21 95.856ZM336.448 89.322H334.864V97H333.28V89.322H332.312V87.87H333.28V84.57H334.864V87.87H336.448V89.322ZM346.288 89.322H344.704V97H343.12V89.322H342.152V87.87H343.12V84.57H344.704V87.87H346.288V89.322ZM352.049 97.264C349.277 97.264 347.209 95.24 347.209 92.468C347.209 89.696 349.255 87.65 352.049 87.65C354.843 87.65 356.889 89.696 356.889 92.468C356.889 95.24 354.821 97.264 352.049 97.264ZM352.049 89.058C350.377 89.058 348.837 90.246 348.837 92.468C348.837 94.712 350.421 95.856 352.049 95.856C353.699 95.856 355.261 94.69 355.261 92.468C355.261 90.224 353.721 89.058 352.049 89.058ZM371.449 89.168V80.962H373.033V97H371.449V95.724C370.921 96.406 369.931 97.264 368.325 97.264C366.015 97.264 363.881 95.636 363.881 92.424C363.881 89.278 365.993 87.65 368.325 87.65C370.085 87.65 371.031 88.618 371.449 89.168ZM368.501 89.058C366.939 89.058 365.509 90.202 365.509 92.424C365.509 94.382 366.609 95.856 368.501 95.856C370.437 95.856 371.537 94.25 371.537 92.446C371.537 90.092 369.909 89.058 368.501 89.058ZM375.818 87.87H377.402V97H375.818V87.87ZM375.488 84.416C375.488 83.8 375.994 83.294 376.61 83.294C377.226 83.294 377.732 83.8 377.732 84.416C377.732 85.032 377.226 85.538 376.61 85.538C375.994 85.538 375.488 85.032 375.488 84.416ZM384.266 89.322H382.022V97H380.438V89.322H379.558V87.87H380.438V83.888C380.438 83.052 380.504 81.996 381.318 81.314C381.758 80.94 382.418 80.72 383.144 80.72C383.716 80.72 384.09 80.852 384.266 80.918V82.458C383.936 82.326 383.562 82.26 383.232 82.26C382.88 82.26 382.462 82.348 382.22 82.744C382.022 83.074 382.022 83.58 382.022 84.064V87.87H384.266V89.322ZM389.981 89.322H387.737V97H386.153V89.322H385.273V87.87H386.153V83.888C386.153 83.052 386.219 81.996 387.033 81.314C387.473 80.94 388.133 80.72 388.859 80.72C389.431 80.72 389.805 80.852 389.981 80.918V82.458C389.651 82.326 389.277 82.26 388.947 82.26C388.595 82.26 388.177 82.348 387.935 82.744C387.737 83.074 387.737 83.58 387.737 84.064V87.87H389.981V89.322ZM398.17 93.942L399.49 94.668C399.226 95.174 398.83 95.724 398.368 96.142C397.532 96.89 396.498 97.264 395.332 97.264C393.132 97.264 390.822 95.878 390.822 92.49C390.822 89.762 392.494 87.65 395.244 87.65C397.026 87.65 398.148 88.53 398.698 89.322C399.27 90.136 399.6 91.544 399.556 92.754H392.45C392.472 94.646 393.77 95.856 395.354 95.856C396.102 95.856 396.696 95.636 397.224 95.196C397.642 94.844 397.972 94.382 398.17 93.942ZM392.56 91.434H397.928C397.664 90.004 396.586 89.058 395.244 89.058C393.902 89.058 392.802 90.07 392.56 91.434ZM401.986 97V87.87H403.57V88.86C403.724 88.618 404.406 87.65 405.638 87.65C406.122 87.65 406.65 87.826 407.046 88.024L406.298 89.454C405.946 89.212 405.616 89.146 405.374 89.146C404.736 89.146 404.34 89.41 404.098 89.718C403.834 90.07 403.57 90.686 403.57 92.182V97H401.986ZM414.735 93.942L416.055 94.668C415.791 95.174 415.395 95.724 414.933 96.142C414.097 96.89 413.063 97.264 411.897 97.264C409.697 97.264 407.387 95.878 407.387 92.49C407.387 89.762 409.059 87.65 411.809 87.65C413.591 87.65 414.713 88.53 415.263 89.322C415.835 90.136 416.165 91.544 416.121 92.754H409.015C409.037 94.646 410.335 95.856 411.919 95.856C412.667 95.856 413.261 95.636 413.789 95.196C414.207 94.844 414.537 94.382 414.735 93.942ZM409.125 91.434H414.493C414.229 90.004 413.151 89.058 411.809 89.058C410.467 89.058 409.367 90.07 409.125 91.434ZM418.551 97V87.87H420.135V88.926C420.421 88.552 421.235 87.65 422.753 87.65C423.831 87.65 424.821 88.09 425.371 88.904C425.833 89.586 425.899 90.334 425.899 91.346V97H424.315V91.39C424.315 90.84 424.271 90.202 423.897 89.718C423.589 89.322 423.105 89.058 422.401 89.058C421.851 89.058 421.257 89.212 420.795 89.762C420.179 90.488 420.135 91.566 420.135 92.226V97H418.551ZM432.097 89.322H430.513V97H428.929V89.322H427.961V87.87H428.929V84.57H430.513V87.87H432.097V89.322ZM443.785 89.3L442.487 89.982C442.267 89.454 441.805 89.058 441.211 89.058C440.639 89.058 440.111 89.388 440.111 90.092C440.111 90.752 440.551 90.95 441.585 91.39C442.905 91.94 443.521 92.358 443.873 92.798C444.269 93.282 444.357 93.766 444.357 94.272C444.357 96.186 442.971 97.264 441.211 97.264C440.837 97.264 438.791 97.22 438.021 94.932L439.385 94.36C439.561 94.844 440.089 95.856 441.233 95.856C442.267 95.856 442.729 95.086 442.729 94.404C442.729 93.546 442.113 93.26 441.255 92.886C440.155 92.402 439.451 92.05 439.033 91.544C438.681 91.104 438.615 90.664 438.615 90.202C438.615 88.596 439.737 87.65 441.277 87.65C441.761 87.65 443.059 87.738 443.785 89.3ZM446.459 87.87H448.043V97H446.459V87.87ZM446.129 84.416C446.129 83.8 446.635 83.294 447.251 83.294C447.867 83.294 448.373 83.8 448.373 84.416C448.373 85.032 447.867 85.538 447.251 85.538C446.635 85.538 446.129 85.032 446.129 84.416ZM454.247 89.322H452.663V97H451.079V89.322H450.111V87.87H451.079V84.57H452.663V87.87H454.247V89.322ZM457.324 87.87V93.194C457.324 93.832 457.324 94.58 457.764 95.152C458.006 95.46 458.49 95.856 459.37 95.856C460.25 95.856 460.734 95.46 460.976 95.152C461.416 94.58 461.416 93.832 461.416 93.194V87.87H463V93.37C463 94.492 462.89 95.328 462.164 96.12C461.35 96.978 460.272 97.264 459.37 97.264C458.468 97.264 457.39 96.978 456.576 96.12C455.85 95.328 455.74 94.492 455.74 93.37V87.87H457.324ZM472.984 89.168V87.87H474.568V97H472.984V95.724C472.456 96.406 471.466 97.264 469.86 97.264C467.55 97.264 465.416 95.636 465.416 92.424C465.416 89.278 467.528 87.65 469.86 87.65C471.62 87.65 472.566 88.618 472.984 89.168ZM470.036 89.058C468.474 89.058 467.044 90.202 467.044 92.424C467.044 94.382 468.144 95.856 470.036 95.856C471.972 95.856 473.072 94.25 473.072 92.446C473.072 90.092 471.444 89.058 470.036 89.058ZM480.78 89.322H479.196V97H477.612V89.322H476.644V87.87H477.612V84.57H479.196V87.87H480.78V89.322ZM482.273 87.87H483.857V97H482.273V87.87ZM481.943 84.416C481.943 83.8 482.449 83.294 483.065 83.294C483.681 83.294 484.187 83.8 484.187 84.416C484.187 85.032 483.681 85.538 483.065 85.538C482.449 85.538 481.943 85.032 481.943 84.416ZM491.118 97.264C488.346 97.264 486.278 95.24 486.278 92.468C486.278 89.696 488.324 87.65 491.118 87.65C493.912 87.65 495.958 89.696 495.958 92.468C495.958 95.24 493.89 97.264 491.118 97.264ZM491.118 89.058C489.446 89.058 487.906 90.246 487.906 92.468C487.906 94.712 489.49 95.856 491.118 95.856C492.768 95.856 494.33 94.69 494.33 92.468C494.33 90.224 492.79 89.058 491.118 89.058ZM498.387 97V87.87H499.971V88.926C500.257 88.552 501.071 87.65 502.589 87.65C503.667 87.65 504.657 88.09 505.207 88.904C505.669 89.586 505.735 90.334 505.735 91.346V97H504.151V91.39C504.151 90.84 504.107 90.202 503.733 89.718C503.425 89.322 502.941 89.058 502.237 89.058C501.687 89.058 501.093 89.212 500.631 89.762C500.015 90.488 499.971 91.566 499.971 92.226V97H498.387ZM513.781 89.3L512.483 89.982C512.263 89.454 511.801 89.058 511.207 89.058C510.635 89.058 510.107 89.388 510.107 90.092C510.107 90.752 510.547 90.95 511.581 91.39C512.901 91.94 513.517 92.358 513.869 92.798C514.265 93.282 514.353 93.766 514.353 94.272C514.353 96.186 512.967 97.264 511.207 97.264C510.833 97.264 508.787 97.22 508.017 94.932L509.381 94.36C509.557 94.844 510.085 95.856 511.229 95.856C512.263 95.856 512.725 95.086 512.725 94.404C512.725 93.546 512.109 93.26 511.251 92.886C510.151 92.402 509.447 92.05 509.029 91.544C508.677 91.104 508.611 90.664 508.611 90.202C508.611 88.596 509.733 87.65 511.273 87.65C511.757 87.65 513.055 87.738 513.781 89.3ZM516.367 96.12C516.367 95.526 516.873 95.02 517.467 95.02C518.061 95.02 518.567 95.526 518.567 96.12C518.567 96.714 518.061 97.22 517.467 97.22C516.873 97.22 516.367 96.714 516.367 96.12ZM534.164 83.866H530.6V97H528.972V83.866H525.408V82.326H534.164V83.866ZM534.373 97V80.962H535.957V88.926C536.243 88.552 537.057 87.65 538.575 87.65C539.653 87.65 540.643 88.09 541.193 88.904C541.655 89.586 541.721 90.334 541.721 91.346V97H540.137V91.39C540.137 90.84 540.093 90.202 539.719 89.718C539.411 89.322 538.927 89.058 538.223 89.058C537.673 89.058 537.079 89.212 536.617 89.762C536.001 90.488 535.957 91.566 535.957 92.226V97H534.373ZM544.707 87.87H546.291V97H544.707V87.87ZM544.377 84.416C544.377 83.8 544.883 83.294 545.499 83.294C546.115 83.294 546.621 83.8 546.621 84.416C546.621 85.032 546.115 85.538 545.499 85.538C544.883 85.538 544.377 85.032 544.377 84.416ZM554.343 89.3L553.045 89.982C552.825 89.454 552.363 89.058 551.769 89.058C551.197 89.058 550.669 89.388 550.669 90.092C550.669 90.752 551.109 90.95 552.143 91.39C553.463 91.94 554.079 92.358 554.431 92.798C554.827 93.282 554.915 93.766 554.915 94.272C554.915 96.186 553.529 97.264 551.769 97.264C551.395 97.264 549.349 97.22 548.579 94.932L549.943 94.36C550.119 94.844 550.647 95.856 551.791 95.856C552.825 95.856 553.287 95.086 553.287 94.404C553.287 93.546 552.671 93.26 551.813 92.886C550.713 92.402 550.009 92.05 549.591 91.544C549.239 91.104 549.173 90.664 549.173 90.202C549.173 88.596 550.295 87.65 551.835 87.65C552.319 87.65 553.617 87.738 554.343 89.3ZM1.496 137V120.962H3.08V128.926C3.366 128.552 4.18 127.65 5.698 127.65C6.776 127.65 7.766 128.09 8.316 128.904C8.778 129.586 8.844 130.334 8.844 131.346V137H7.26V131.39C7.26 130.84 7.216 130.202 6.842 129.718C6.534 129.322 6.05 129.058 5.346 129.058C4.796 129.058 4.202 129.212 3.74 129.762C3.124 130.488 3.08 131.566 3.08 132.226V137H1.496ZM18.3911 133.942L19.7111 134.668C19.4471 135.174 19.0511 135.724 18.5891 136.142C17.7531 136.89 16.7191 137.264 15.5531 137.264C13.3531 137.264 11.0431 135.878 11.0431 132.49C11.0431 129.762 12.7151 127.65 15.4651 127.65C17.2471 127.65 18.3691 128.53 18.9191 129.322C19.4911 130.136 19.8211 131.544 19.7771 132.754H12.6711C12.6931 134.646 13.9911 135.856 15.5751 135.856C16.3231 135.856 16.9171 135.636 17.4451 135.196C17.8631 134.844 18.1931 134.382 18.3911 133.942ZM12.7811 131.434H18.1491C17.8851 130.004 16.8071 129.058 15.4651 129.058C14.1231 129.058 13.0231 130.07 12.7811 131.434ZM22.2069 120.962H23.7909V137H22.2069V120.962ZM28.3671 135.724V142.06H26.7831V127.87H28.3671V129.146C29.4451 127.804 30.8311 127.65 31.4911 127.65C34.3511 127.65 35.9351 130.026 35.9351 132.49C35.9351 134.998 34.3291 137.264 31.5571 137.264C30.0831 137.264 29.0491 136.604 28.3671 135.724ZM31.3371 135.856C33.1851 135.856 34.3071 134.316 34.3071 132.49C34.3071 130.246 32.7891 129.058 31.3151 129.058C29.8411 129.058 28.2791 130.268 28.2791 132.468C28.2791 134.338 29.4671 135.856 31.3371 135.856ZM43.4232 129.3L42.1252 129.982C41.9052 129.454 41.4432 129.058 40.8492 129.058C40.2772 129.058 39.7492 129.388 39.7492 130.092C39.7492 130.752 40.1892 130.95 41.2232 131.39C42.5432 131.94 43.1592 132.358 43.5112 132.798C43.9072 133.282 43.9952 133.766 43.9952 134.272C43.9952 136.186 42.6092 137.264 40.8492 137.264C40.4752 137.264 38.4292 137.22 37.6592 134.932L39.0232 134.36C39.1992 134.844 39.7272 135.856 40.8712 135.856C41.9052 135.856 42.3672 135.086 42.3672 134.404C42.3672 133.546 41.7512 133.26 40.8932 132.886C39.7932 132.402 39.0892 132.05 38.6712 131.544C38.3192 131.104 38.2532 130.664 38.2532 130.202C38.2532 128.596 39.3752 127.65 40.9152 127.65C41.3992 127.65 42.6972 127.738 43.4232 129.3ZM58.2283 129.168V127.87H59.8123V136.78C59.8123 137.77 59.8123 139.178 58.9323 140.366C58.2503 141.29 56.9963 142.06 55.2803 142.06C53.7183 142.06 52.6403 141.444 52.0243 140.828C51.4083 140.212 50.8363 139.222 50.8363 137.88H52.3983C52.3983 138.65 52.7063 139.332 53.1023 139.772C53.7623 140.498 54.5983 140.652 55.3023 140.652C56.4243 140.652 57.1943 140.256 57.7223 139.376C58.1843 138.628 58.2283 137.814 58.2283 137.044V135.724C57.7003 136.406 56.7103 137.264 55.1043 137.264C53.7623 137.264 52.6843 136.736 51.9803 136.032C51.3643 135.416 50.6603 134.272 50.6603 132.424C50.6603 130.642 51.3203 129.542 51.9803 128.882C52.7503 128.134 53.8723 127.65 55.1043 127.65C56.4463 127.65 57.5023 128.222 58.2283 129.168ZM55.2803 129.058C54.3123 129.058 53.6523 129.476 53.2123 129.916C52.4423 130.708 52.2883 131.676 52.2883 132.424C52.2883 133.216 52.4423 134.294 53.3223 135.108C53.8283 135.57 54.4443 135.856 55.2803 135.856C56.1163 135.856 56.7763 135.592 57.2823 135.086C57.8983 134.492 58.3163 133.524 58.3163 132.446C58.3163 131.368 57.9203 130.422 57.3483 129.872C56.8423 129.366 56.0943 129.058 55.2803 129.058ZM67.0804 137.264C64.3084 137.264 62.2404 135.24 62.2404 132.468C62.2404 129.696 64.2864 127.65 67.0804 127.65C69.8744 127.65 71.9204 129.696 71.9204 132.468C71.9204 135.24 69.8524 137.264 67.0804 137.264ZM67.0804 129.058C65.4084 129.058 63.8684 130.246 63.8684 132.468C63.8684 134.712 65.4524 135.856 67.0804 135.856C68.7304 135.856 70.2924 134.69 70.2924 132.468C70.2924 130.224 68.7524 129.058 67.0804 129.058ZM74.3495 120.962H75.9335V137H74.3495V120.962ZM82.7977 129.322H80.5537V137H78.9697V129.322H78.0897V127.87H78.9697V123.888C78.9697 123.052 79.0357 121.996 79.8497 121.314C80.2897 120.94 80.9497 120.72 81.6757 120.72C82.2477 120.72 82.6217 120.852 82.7977 120.918V122.458C82.4677 122.326 82.0937 122.26 81.7637 122.26C81.4117 122.26 80.9937 122.348 80.7517 122.744C80.5537 123.074 80.5537 123.58 80.5537 124.064V127.87H82.7977V129.322ZM90.9868 133.942L92.3068 134.668C92.0428 135.174 91.6468 135.724 91.1848 136.142C90.3488 136.89 89.3148 137.264 88.1488 137.264C85.9488 137.264 83.6388 135.878 83.6388 132.49C83.6388 129.762 85.3108 127.65 88.0608 127.65C89.8428 127.65 90.9648 128.53 91.5148 129.322C92.0868 130.136 92.4168 131.544 92.3728 132.754H85.2668C85.2888 134.646 86.5868 135.856 88.1708 135.856C88.9188 135.856 89.5128 135.636 90.0408 135.196C90.4588 134.844 90.7888 134.382 90.9868 133.942ZM85.3768 131.434H90.7448C90.4808 130.004 89.4028 129.058 88.0608 129.058C86.7188 129.058 85.6188 130.07 85.3768 131.434ZM94.8026 137V127.87H96.3866V128.86C96.5406 128.618 97.2226 127.65 98.4546 127.65C98.9386 127.65 99.4666 127.826 99.8626 128.024L99.1146 129.454C98.7626 129.212 98.4326 129.146 98.1906 129.146C97.5526 129.146 97.1566 129.41 96.9146 129.718C96.6506 130.07 96.3866 130.686 96.3866 132.182V137H94.8026ZM106.136 129.3L104.838 129.982C104.618 129.454 104.156 129.058 103.562 129.058C102.99 129.058 102.462 129.388 102.462 130.092C102.462 130.752 102.902 130.95 103.936 131.39C105.256 131.94 105.872 132.358 106.224 132.798C106.62 133.282 106.708 133.766 106.708 134.272C106.708 136.186 105.322 137.264 103.562 137.264C103.188 137.264 101.142 137.22 100.372 134.932L101.736 134.36C101.912 134.844 102.44 135.856 103.584 135.856C104.618 135.856 105.08 135.086 105.08 134.404C105.08 133.546 104.464 133.26 103.606 132.886C102.506 132.402 101.802 132.05 101.384 131.544C101.032 131.104 100.966 130.664 100.966 130.202C100.966 128.596 102.088 127.65 103.628 127.65C104.112 127.65 105.41 127.738 106.136 129.3ZM115.529 135.724V142.06H113.945V127.87H115.529V129.146C116.607 127.804 117.993 127.65 118.653 127.65C121.513 127.65 123.097 130.026 123.097 132.49C123.097 134.998 121.491 137.264 118.719 137.264C117.245 137.264 116.211 136.604 115.529 135.724ZM118.499 135.856C120.347 135.856 121.469 134.316 121.469 132.49C121.469 130.246 119.951 129.058 118.477 129.058C117.003 129.058 115.441 130.268 115.441 132.468C115.441 134.338 116.629 135.856 118.499 135.856ZM132.301 133.942L133.621 134.668C133.357 135.174 132.961 135.724 132.499 136.142C131.663 136.89 130.629 137.264 129.463 137.264C127.263 137.264 124.953 135.878 124.953 132.49C124.953 129.762 126.625 127.65 129.375 127.65C131.157 127.65 132.279 128.53 132.829 129.322C133.401 130.136 133.731 131.544 133.687 132.754H126.581C126.603 134.646 127.901 135.856 129.485 135.856C130.233 135.856 130.827 135.636 131.355 135.196C131.773 134.844 132.103 134.382 132.301 133.942ZM126.691 131.434H132.059C131.795 130.004 130.717 129.058 129.375 129.058C128.033 129.058 126.933 130.07 126.691 131.434ZM136.117 137V127.87H137.701V128.86C137.855 128.618 138.537 127.65 139.769 127.65C140.253 127.65 140.781 127.826 141.177 128.024L140.429 129.454C140.077 129.212 139.747 129.146 139.505 129.146C138.867 129.146 138.471 129.41 138.229 129.718C137.965 130.07 137.701 130.686 137.701 132.182V137H136.117ZM146.972 129.322H144.728V137H143.144V129.322H142.264V127.87H143.144V123.888C143.144 123.052 143.21 121.996 144.024 121.314C144.464 120.94 145.124 120.72 145.85 120.72C146.422 120.72 146.796 120.852 146.972 120.918V122.458C146.642 122.326 146.268 122.26 145.938 122.26C145.586 122.26 145.168 122.348 144.926 122.744C144.728 123.074 144.728 123.58 144.728 124.064V127.87H146.972V129.322ZM152.653 137.264C149.881 137.264 147.813 135.24 147.813 132.468C147.813 129.696 149.859 127.65 152.653 127.65C155.447 127.65 157.493 129.696 157.493 132.468C157.493 135.24 155.425 137.264 152.653 137.264ZM152.653 129.058C150.981 129.058 149.441 130.246 149.441 132.468C149.441 134.712 151.025 135.856 152.653 135.856C154.303 135.856 155.865 134.69 155.865 132.468C155.865 130.224 154.325 129.058 152.653 129.058ZM159.922 137V127.87H161.506V128.86C161.66 128.618 162.342 127.65 163.574 127.65C164.058 127.65 164.586 127.826 164.982 128.024L164.234 129.454C163.882 129.212 163.552 129.146 163.31 129.146C162.672 129.146 162.276 129.41 162.034 129.718C161.77 130.07 161.506 130.686 161.506 132.182V137H159.922ZM166.432 137V127.87H168.016V128.838C168.522 128.09 169.314 127.65 170.282 127.65C171.932 127.65 172.592 128.816 172.768 129.124C173.648 127.738 174.902 127.65 175.518 127.65C178.224 127.65 178.488 129.916 178.488 131.214V137H176.904V131.456C176.904 130.422 176.772 129.058 175.276 129.058C173.45 129.058 173.252 130.818 173.252 131.918V137H171.668V131.588C171.668 130.95 171.69 129.058 170.018 129.058C168.214 129.058 168.016 130.928 168.016 132.028V137H166.432ZM189.839 129.322H188.255V137H186.671V129.322H185.703V127.87H186.671V124.57H188.255V127.87H189.839V129.322ZM191.332 137V120.962H192.916V128.926C193.202 128.552 194.016 127.65 195.534 127.65C196.612 127.65 197.602 128.09 198.152 128.904C198.614 129.586 198.68 130.334 198.68 131.346V137H197.096V131.39C197.096 130.84 197.052 130.202 196.678 129.718C196.37 129.322 195.886 129.058 195.182 129.058C194.632 129.058 194.038 129.212 193.576 129.762C192.96 130.488 192.916 131.566 192.916 132.226V137H191.332ZM208.227 133.942L209.547 134.668C209.283 135.174 208.887 135.724 208.425 136.142C207.589 136.89 206.555 137.264 205.389 137.264C203.189 137.264 200.879 135.878 200.879 132.49C200.879 129.762 202.551 127.65 205.301 127.65C207.083 127.65 208.205 128.53 208.755 129.322C209.327 130.136 209.657 131.544 209.613 132.754H202.507C202.529 134.646 203.827 135.856 205.411 135.856C206.159 135.856 206.753 135.636 207.281 135.196C207.699 134.844 208.029 134.382 208.227 133.942ZM202.617 131.434H207.985C207.721 130.004 206.643 129.058 205.301 129.058C203.959 129.058 202.859 130.07 202.617 131.434ZM222.238 129.3L220.94 129.982C220.72 129.454 220.258 129.058 219.664 129.058C219.092 129.058 218.564 129.388 218.564 130.092C218.564 130.752 219.004 130.95 220.038 131.39C221.358 131.94 221.974 132.358 222.326 132.798C222.722 133.282 222.81 133.766 222.81 134.272C222.81 136.186 221.424 137.264 219.664 137.264C219.29 137.264 217.244 137.22 216.474 134.932L217.838 134.36C218.014 134.844 218.542 135.856 219.686 135.856C220.72 135.856 221.182 135.086 221.182 134.404C221.182 133.546 220.566 133.26 219.708 132.886C218.608 132.402 217.904 132.05 217.486 131.544C217.134 131.104 217.068 130.664 217.068 130.202C217.068 128.596 218.19 127.65 219.73 127.65C220.214 127.65 221.512 127.738 222.238 129.3ZM224.912 137V120.962H226.496V128.926C226.782 128.552 227.596 127.65 229.114 127.65C230.192 127.65 231.182 128.09 231.732 128.904C232.194 129.586 232.26 130.334 232.26 131.346V137H230.676V131.39C230.676 130.84 230.632 130.202 230.258 129.718C229.95 129.322 229.466 129.058 228.762 129.058C228.212 129.058 227.618 129.212 227.156 129.762C226.54 130.488 226.496 131.566 226.496 132.226V137H224.912ZM239.192 137.264C236.42 137.264 234.352 135.24 234.352 132.468C234.352 129.696 236.398 127.65 239.192 127.65C241.986 127.65 244.032 129.696 244.032 132.468C244.032 135.24 241.964 137.264 239.192 137.264ZM239.192 129.058C237.52 129.058 235.98 130.246 235.98 132.468C235.98 134.712 237.564 135.856 239.192 135.856C240.842 135.856 242.404 134.69 242.404 132.468C242.404 130.224 240.864 129.058 239.192 129.058ZM249.673 129.322H248.089V137H246.505V129.322H245.537V127.87H246.505V124.57H248.089V127.87H249.673V129.322ZM256.226 129.3L254.928 129.982C254.708 129.454 254.246 129.058 253.652 129.058C253.08 129.058 252.552 129.388 252.552 130.092C252.552 130.752 252.992 130.95 254.026 131.39C255.346 131.94 255.962 132.358 256.314 132.798C256.71 133.282 256.798 133.766 256.798 134.272C256.798 136.186 255.412 137.264 253.652 137.264C253.278 137.264 251.232 137.22 250.462 134.932L251.826 134.36C252.002 134.844 252.53 135.856 253.674 135.856C254.708 135.856 255.17 135.086 255.17 134.404C255.17 133.546 254.554 133.26 253.696 132.886C252.596 132.402 251.892 132.05 251.474 131.544C251.122 131.104 251.056 130.664 251.056 130.202C251.056 128.596 252.178 127.65 253.718 127.65C254.202 127.65 255.5 127.738 256.226 129.3ZM267.247 129.322H265.663V137H264.079V129.322H263.111V127.87H264.079V124.57H265.663V127.87H267.247V129.322ZM268.74 137V120.962H270.324V128.926C270.61 128.552 271.424 127.65 272.942 127.65C274.02 127.65 275.01 128.09 275.56 128.904C276.022 129.586 276.088 130.334 276.088 131.346V137H274.504V131.39C274.504 130.84 274.46 130.202 274.086 129.718C273.778 129.322 273.294 129.058 272.59 129.058C272.04 129.058 271.446 129.212 270.984 129.762C270.368 130.488 270.324 131.566 270.324 132.226V137H268.74ZM285.635 133.942L286.955 134.668C286.691 135.174 286.295 135.724 285.833 136.142C284.997 136.89 283.963 137.264 282.797 137.264C280.597 137.264 278.287 135.878 278.287 132.49C278.287 129.762 279.959 127.65 282.709 127.65C284.491 127.65 285.613 128.53 286.163 129.322C286.735 130.136 287.065 131.544 287.021 132.754H279.915C279.937 134.646 281.235 135.856 282.819 135.856C283.567 135.856 284.161 135.636 284.689 135.196C285.107 134.844 285.437 134.382 285.635 133.942ZM280.025 131.434H285.393C285.129 130.004 284.051 129.058 282.709 129.058C281.367 129.058 280.267 130.07 280.025 131.434ZM289.429 142.06L292.333 136.142L288.131 127.87H289.935L293.169 134.404L296.139 127.87H297.899L291.189 142.06H289.429ZM304.705 137V127.87H306.289V128.926C306.575 128.552 307.389 127.65 308.907 127.65C309.985 127.65 310.975 128.09 311.525 128.904C311.987 129.586 312.053 130.334 312.053 131.346V137H310.469V131.39C310.469 130.84 310.425 130.202 310.051 129.718C309.743 129.322 309.259 129.058 308.555 129.058C308.005 129.058 307.411 129.212 306.949 129.762C306.333 130.488 306.289 131.566 306.289 132.226V137H304.705ZM321.815 133.942L323.135 134.668C322.871 135.174 322.475 135.724 322.013 136.142C321.177 136.89 320.143 137.264 318.977 137.264C316.777 137.264 314.467 135.878 314.467 132.49C314.467 129.762 316.139 127.65 318.889 127.65C320.671 127.65 321.793 128.53 322.343 129.322C322.915 130.136 323.245 131.544 323.201 132.754H316.095C316.117 134.646 317.415 135.856 318.999 135.856C319.747 135.856 320.341 135.636 320.869 135.196C321.287 134.844 321.617 134.382 321.815 133.942ZM316.205 131.434H321.573C321.309 130.004 320.231 129.058 318.889 129.058C317.547 129.058 316.447 130.07 316.205 131.434ZM332.407 133.942L333.727 134.668C333.463 135.174 333.067 135.724 332.605 136.142C331.769 136.89 330.735 137.264 329.569 137.264C327.369 137.264 325.059 135.878 325.059 132.49C325.059 129.762 326.731 127.65 329.481 127.65C331.263 127.65 332.385 128.53 332.935 129.322C333.507 130.136 333.837 131.544 333.793 132.754H326.687C326.709 134.646 328.007 135.856 329.591 135.856C330.339 135.856 330.933 135.636 331.461 135.196C331.879 134.844 332.209 134.382 332.407 133.942ZM326.797 131.434H332.165C331.901 130.004 330.823 129.058 329.481 129.058C328.139 129.058 327.039 130.07 326.797 131.434ZM343.219 129.168V120.962H344.803V137H343.219V135.724C342.691 136.406 341.701 137.264 340.095 137.264C337.785 137.264 335.651 135.636 335.651 132.424C335.651 129.278 337.763 127.65 340.095 127.65C341.855 127.65 342.801 128.618 343.219 129.168ZM340.271 129.058C338.709 129.058 337.279 130.202 337.279 132.424C337.279 134.382 338.379 135.856 340.271 135.856C342.207 135.856 343.307 134.25 343.307 132.446C343.307 130.092 341.679 129.058 340.271 129.058ZM352.937 127.87H354.521V137H352.937V127.87ZM352.607 124.416C352.607 123.8 353.113 123.294 353.729 123.294C354.345 123.294 354.851 123.8 354.851 124.416C354.851 125.032 354.345 125.538 353.729 125.538C353.113 125.538 352.607 125.032 352.607 124.416ZM357.514 137V127.87H359.098V128.926C359.384 128.552 360.198 127.65 361.716 127.65C362.794 127.65 363.784 128.09 364.334 128.904C364.796 129.586 364.862 130.334 364.862 131.346V137H363.278V131.39C363.278 130.84 363.234 130.202 362.86 129.718C362.552 129.322 362.068 129.058 361.364 129.058C360.814 129.058 360.22 129.212 359.758 129.762C359.142 130.488 359.098 131.566 359.098 132.226V137H357.514ZM379.978 129.168V127.87H381.562V137H379.978V135.724C379.45 136.406 378.46 137.264 376.854 137.264C374.544 137.264 372.41 135.636 372.41 132.424C372.41 129.278 374.522 127.65 376.854 127.65C378.614 127.65 379.56 128.618 379.978 129.168ZM377.03 129.058C375.468 129.058 374.038 130.202 374.038 132.424C374.038 134.382 375.138 135.856 377.03 135.856C378.966 135.856 380.066 134.25 380.066 132.446C380.066 130.092 378.438 129.058 377.03 129.058ZM384.562 137V127.87H386.146V128.926C386.432 128.552 387.246 127.65 388.764 127.65C389.842 127.65 390.832 128.09 391.382 128.904C391.844 129.586 391.91 130.334 391.91 131.346V137H390.326V131.39C390.326 130.84 390.282 130.202 389.908 129.718C389.6 129.322 389.116 129.058 388.412 129.058C387.862 129.058 387.268 129.212 386.806 129.762C386.19 130.488 386.146 131.566 386.146 132.226V137H384.562ZM394.874 142.06L397.778 136.142L393.576 127.87H395.38L398.614 134.404L401.584 127.87H403.344L396.634 142.06H394.874ZM415.21 129.3L413.912 129.982C413.692 129.454 413.23 129.058 412.636 129.058C412.064 129.058 411.536 129.388 411.536 130.092C411.536 130.752 411.976 130.95 413.01 131.39C414.33 131.94 414.946 132.358 415.298 132.798C415.694 133.282 415.782 133.766 415.782 134.272C415.782 136.186 414.396 137.264 412.636 137.264C412.262 137.264 410.216 137.22 409.446 134.932L410.81 134.36C410.986 134.844 411.514 135.856 412.658 135.856C413.692 135.856 414.154 135.086 414.154 134.404C414.154 133.546 413.538 133.26 412.68 132.886C411.58 132.402 410.876 132.05 410.458 131.544C410.106 131.104 410.04 130.664 410.04 130.202C410.04 128.596 411.162 127.65 412.702 127.65C413.186 127.65 414.484 127.738 415.21 129.3ZM417.885 127.87H419.469V137H417.885V127.87ZM417.555 124.416C417.555 123.8 418.061 123.294 418.677 123.294C419.293 123.294 419.799 123.8 419.799 124.416C419.799 125.032 419.293 125.538 418.677 125.538C418.061 125.538 417.555 125.032 417.555 124.416ZM425.673 129.322H424.089V137H422.505V129.322H421.537V127.87H422.505V124.57H424.089V127.87H425.673V129.322ZM428.75 127.87V133.194C428.75 133.832 428.75 134.58 429.19 135.152C429.432 135.46 429.916 135.856 430.796 135.856C431.676 135.856 432.16 135.46 432.402 135.152C432.842 134.58 432.842 133.832 432.842 133.194V127.87H434.426V133.37C434.426 134.492 434.316 135.328 433.59 136.12C432.776 136.978 431.698 137.264 430.796 137.264C429.894 137.264 428.816 136.978 428.002 136.12C427.276 135.328 427.166 134.492 427.166 133.37V127.87H428.75ZM444.41 129.168V127.87H445.994V137H444.41V135.724C443.882 136.406 442.892 137.264 441.286 137.264C438.976 137.264 436.842 135.636 436.842 132.424C436.842 129.278 438.954 127.65 441.286 127.65C443.046 127.65 443.992 128.618 444.41 129.168ZM441.462 129.058C439.9 129.058 438.47 130.202 438.47 132.424C438.47 134.382 439.57 135.856 441.462 135.856C443.398 135.856 444.498 134.25 444.498 132.446C444.498 130.092 442.87 129.058 441.462 129.058ZM452.206 129.322H450.622V137H449.038V129.322H448.07V127.87H449.038V124.57H450.622V127.87H452.206V129.322ZM453.699 127.87H455.283V137H453.699V127.87ZM453.369 124.416C453.369 123.8 453.875 123.294 454.491 123.294C455.107 123.294 455.613 123.8 455.613 124.416C455.613 125.032 455.107 125.538 454.491 125.538C453.875 125.538 453.369 125.032 453.369 124.416ZM462.543 137.264C459.771 137.264 457.703 135.24 457.703 132.468C457.703 129.696 459.749 127.65 462.543 127.65C465.337 127.65 467.383 129.696 467.383 132.468C467.383 135.24 465.315 137.264 462.543 137.264ZM462.543 129.058C460.871 129.058 459.331 130.246 459.331 132.468C459.331 134.712 460.915 135.856 462.543 135.856C464.193 135.856 465.755 134.69 465.755 132.468C465.755 130.224 464.215 129.058 462.543 129.058ZM469.812 137V127.87H471.396V128.926C471.682 128.552 472.496 127.65 474.014 127.65C475.092 127.65 476.082 128.09 476.632 128.904C477.094 129.586 477.16 130.334 477.16 131.346V137H475.576V131.39C475.576 130.84 475.532 130.202 475.158 129.718C474.85 129.322 474.366 129.058 473.662 129.058C473.112 129.058 472.518 129.212 472.056 129.762C471.44 130.488 471.396 131.566 471.396 132.226V137H469.812ZM480.058 136.12C480.058 135.526 480.564 135.02 481.158 135.02C481.752 135.02 482.258 135.526 482.258 136.12C482.258 136.714 481.752 137.22 481.158 137.22C480.564 137.22 480.058 136.714 480.058 136.12Z" fill="#B4B4B4"/>
</svg>
