<svg width="922" height="57" viewBox="0 0 922 57" fill="none" xmlns="http://www.w3.org/2000/svg">
<path d="M0.104994 1.64H10.505V55H0.104994V1.64ZM38.155 1.64H52.075C59.515 1.64 65.995 2.44 71.915 6.84C78.395 11.72 82.155 19.48 82.155 28.36C82.155 37.24 78.475 44.92 71.435 49.88C65.195 54.28 59.355 55 51.915 55H38.155V1.64ZM48.555 10.6V46.04H51.755C54.395 46.04 60.155 45.88 64.795 42.52C69.035 39.48 71.435 34.04 71.435 28.36C71.435 22.76 69.115 17.32 64.875 14.12C60.555 10.92 55.275 10.6 51.755 10.6H48.555ZM90.1487 1.64H100.549V55H90.1487V1.64ZM111.127 1.64H125.047C132.487 1.64 138.967 2.44 144.887 6.84C151.367 11.72 155.127 19.48 155.127 28.36C155.127 37.24 151.447 44.92 144.407 49.88C138.167 54.28 132.327 55 124.887 55H111.127V1.64ZM121.527 10.6V46.04H124.727C127.367 46.04 133.127 45.88 137.767 42.52C142.007 39.48 144.407 34.04 144.407 28.36C144.407 22.76 142.087 17.32 137.847 14.12C133.527 10.92 128.247 10.6 124.727 10.6H121.527ZM173.521 55H163.121V1.64H170.321L202.801 37.24V1.64H213.201V55H206.001L173.521 19.32V55ZM231.466 1.64L229.626 23.08H222.906L221.066 1.64H231.466ZM268.096 10.6H256.096V55H245.696V10.6H233.696V1.64H268.096V10.6ZM321.838 6.68L316.398 13.8C313.278 9.64 309.598 9.24 307.678 9.24C302.078 9.24 300.318 12.76 300.318 15.48C300.318 16.76 300.718 17.96 301.998 19.08C303.278 20.28 305.038 20.92 308.398 22.12C312.558 23.56 316.478 25 319.198 27.48C321.598 29.64 323.758 33.24 323.758 38.68C323.758 49.08 316.238 56.2 305.198 56.2C295.358 56.2 289.598 50.2 286.798 46.12L293.598 39.64C296.158 44.84 301.038 46.76 304.798 46.76C309.518 46.76 313.038 43.88 313.038 39.4C313.038 37.48 312.398 35.96 310.958 34.6C308.958 32.76 305.758 31.72 302.718 30.68C299.918 29.72 296.558 28.44 293.838 26.04C292.078 24.52 289.598 21.56 289.598 16.12C289.598 8.28 294.878 0.439997 306.718 0.439997C310.078 0.439997 316.398 1.08 321.838 6.68ZM359.311 10.6H347.311V55H336.911V10.6H324.911V1.64H359.311V10.6ZM397.497 55L392.777 43.8H371.257L366.537 55H355.257L378.217 1.64H386.377L408.697 55H397.497ZM374.537 35.32H389.737L382.137 16.12L374.537 35.32ZM413.327 1.64H428.767C436.127 1.64 439.887 3.56 442.367 5.64C446.447 9.08 447.647 13.64 447.647 17.64C447.647 22.84 445.567 27.4 441.407 30.2C440.047 31.16 438.127 32.04 435.567 32.52L452.207 55H439.247L425.007 33.56H423.727V55H413.327V1.64ZM423.727 10.12V26.2H426.687C428.687 26.2 436.927 25.96 436.927 18.12C436.927 10.2 428.767 10.12 426.847 10.12H423.727ZM486.464 10.6H474.464V55H464.064V10.6H452.064V1.64H486.464V10.6ZM537.327 10.6H525.327V55H514.927V10.6H502.927V1.64H537.327V10.6ZM565.894 0.439997C582.694 0.439997 594.374 12.12 594.374 28.36C594.374 44.6 582.694 56.2 565.894 56.2C549.094 56.2 537.414 44.6 537.414 28.36C537.414 12.12 549.094 0.439997 565.894 0.439997ZM565.894 46.76C576.294 46.76 583.654 39.16 583.654 28.36C583.654 17.56 576.294 9.88 565.894 9.88C555.494 9.88 548.134 17.56 548.134 28.36C548.134 39.16 555.494 46.76 565.894 46.76ZM658.15 40.92V53.08C654.95 54.76 650.71 56.2 644.95 56.2C635.59 56.2 629.91 53 625.43 48.76C619.27 42.84 616.87 36.2 616.87 28.36C616.87 18.68 620.87 11.72 625.43 7.48C630.79 2.44 637.43 0.439997 645.03 0.439997C648.79 0.439997 653.27 1.08 658.15 3.72V15.88C653.27 10.28 647.19 9.88 645.27 9.88C634.55 9.88 627.59 18.68 627.59 28.52C627.59 40.36 636.71 46.76 645.67 46.76C650.63 46.76 655.03 44.6 658.15 40.92ZM676.511 1.64V22.28H699.071V1.64H709.471V55H699.071V31.24H676.511V55H666.111V1.64H676.511ZM756.378 55L751.658 43.8H730.138L725.418 55H714.138L737.098 1.64H745.258L767.578 55H756.378ZM733.418 35.32H748.618L741.018 16.12L733.418 35.32ZM782.608 55H772.208V1.64H779.408L811.888 37.24V1.64H822.288V55H815.088L782.608 19.32V55ZM859.914 35.4V26.44H884.394V27.08C884.394 30.68 883.914 41.88 876.554 49.16C871.034 54.68 864.234 56.2 857.594 56.2C850.954 56.2 844.074 54.84 838.234 49C836.394 47.16 830.314 40.44 830.314 28.44C830.314 18.12 834.954 11.8 838.154 8.6C842.154 4.52 848.874 0.439997 859.194 0.439997C863.194 0.439997 867.434 1.08 871.514 3.24C874.954 5 878.714 8.2 881.514 13L872.474 17.88C870.634 14.28 867.914 12.44 866.234 11.56C863.994 10.44 861.194 9.88 858.714 9.88C854.474 9.88 849.674 11.4 846.394 14.6C843.354 17.56 841.034 22.68 841.034 28.68C841.034 35.8 844.074 40.04 846.314 42.2C848.714 44.52 852.474 46.76 858.154 46.76C861.674 46.76 865.674 45.8 868.634 43.56C870.714 41.96 872.794 39.24 873.674 35.4H859.914ZM921.967 1.64V10.6H902.767V22.52H921.167V31.48H902.767V46.04H921.967V55H892.367V1.64H921.967Z" fill="white"/>
</svg>
