<svg width="870" height="106" viewBox="0 0 870 106" fill="none" xmlns="http://www.w3.org/2000/svg">
<path d="M23.4 103H0.3L16.35 2.94999H35.55L60.45 62.8L85.35 2.94999H104.55L120.6 103H97.5L89.55 43.3L64.5 103H56.4L31.35 43.3L23.4 103ZM184.761 0.699994C200.361 0.699994 213.411 5.49999 223.461 15.25C232.911 24.4 239.061 37.6 239.061 53.05C239.061 66.4 234.261 80.05 223.461 90.55C214.161 99.55 201.561 105.25 184.761 105.25C166.011 105.25 153.261 97.75 145.761 90.55C136.161 81.55 130.161 68.05 130.161 53.35C130.161 38.95 136.611 24.4 145.611 15.4C152.361 8.65 164.811 0.699994 184.761 0.699994ZM184.611 22C175.911 22 168.111 25.15 162.711 30.55C158.361 34.75 153.861 42.1 153.861 53.2C153.861 62.35 156.861 69.7 163.011 75.7C169.461 81.85 176.661 83.95 184.461 83.95C194.661 83.95 201.861 80.2 206.661 75.4C210.561 71.65 215.361 64.6 215.361 53.05C215.361 42.7 211.161 35.05 206.661 30.55C201.711 25.75 193.761 22 184.611 22ZM253.247 2.94999H288.347C301.097 2.94999 309.047 7.14999 313.847 11.65C318.047 15.7 322.547 22.9 322.547 34C322.547 40.3 321.197 48.1 314.747 54.4C311.297 57.7 306.347 60.7 300.797 62.05L331.547 103H303.347L276.347 63.55V103H253.247V2.94999ZM276.347 20.95V48.4H281.597C285.797 48.4 291.497 47.95 295.397 44.05C297.047 42.4 299.147 39.25 299.147 34.3C299.147 28.6 296.447 25.6 294.497 24.1C290.747 21.25 284.747 20.95 281.747 20.95H276.347ZM397.91 2.94999V22.45H364.46V41.8H396.26V61.3H364.46V83.5H397.91V103H341.36V2.94999H397.91ZM495.613 0.699994C511.213 0.699994 524.263 5.49999 534.313 15.25C543.763 24.4 549.913 37.6 549.913 53.05C549.913 66.4 545.113 80.05 534.313 90.55C525.013 99.55 512.413 105.25 495.613 105.25C476.863 105.25 464.113 97.75 456.613 90.55C447.013 81.55 441.013 68.05 441.013 53.35C441.013 38.95 447.463 24.4 456.463 15.4C463.213 8.65 475.663 0.699994 495.613 0.699994ZM495.463 22C486.763 22 478.963 25.15 473.563 30.55C469.213 34.75 464.713 42.1 464.713 53.2C464.713 62.35 467.713 69.7 473.863 75.7C480.313 81.85 487.513 83.95 495.313 83.95C505.513 83.95 512.713 80.2 517.513 75.4C521.413 71.65 526.213 64.6 526.213 53.05C526.213 42.7 522.013 35.05 517.513 30.55C512.563 25.75 504.613 22 495.463 22ZM619.598 2.94999V22.45H587.198V41.8H617.198V61.3H587.198V103H564.098V2.94999H619.598ZM690.458 22.45H668.708V103H645.608V22.45H623.858V2.94999H690.458V22.45ZM756.152 2.94999V22.45H722.702V41.8H754.502V61.3H722.702V83.5H756.152V103H699.602V2.94999H756.152ZM794.995 103H771.895V2.94999H791.995L846.295 67.45V2.94999H869.395V103H849.295L794.995 38.2V103Z" fill="white"/>
</svg>
