<svg width="449" height="88" viewBox="0 0 449 88" fill="none" xmlns="http://www.w3.org/2000/svg">
<path d="M75.043 2.39062L71.7031 23.0742H70.1797C69.9062 18.3477 69.2227 14.7148 68.1289 12.1758C67.0742 9.63672 65.1992 7.85937 62.5039 6.84375C59.8086 5.78906 55.9219 5.14453 50.8438 4.91016L39.5352 4.38281L31.4492 42.6445L44.2812 42.3516C47.0156 42.2344 49.2227 41.8242 50.9023 41.1211C52.582 40.3789 53.9883 39.207 55.1211 37.6055C56.2539 35.9648 57.3867 33.7383 58.5195 30.9258H59.9844L54.3594 57.4688H52.8945C52.9336 54.4219 52.7383 52 52.3086 50.2031C51.918 48.4062 51.0586 47.1172 49.7305 46.3359C48.4414 45.5156 46.4688 45.0664 43.8125 44.9883L30.9805 44.6953L22.4844 85.0078L34.8477 84.4805C39.1445 84.2852 42.8164 83.8359 45.8633 83.1328C48.9102 82.4297 51.5273 81.3359 53.7148 79.8516C55.9414 78.3281 57.9141 76.2969 59.6328 73.7578C61.3516 71.2188 62.9922 68.0547 64.5547 64.2656H66.1367L60.3359 87H0.101562L0.511719 85.2422C2.69922 84.9688 4.35938 84.5977 5.49219 84.1289C6.66406 83.6211 7.52344 82.8789 8.07031 81.9023C8.65625 80.9258 9.14453 79.5195 9.53516 77.6836L23.5977 11.707C23.9883 9.87109 24.1055 8.46484 23.9492 7.48828C23.793 6.47266 23.2266 5.73047 22.25 5.26172C21.3125 4.79297 19.8086 4.42188 17.7383 4.14844L18.0898 2.39062H75.043ZM95.9023 29.6367L109.145 73.1133C110.199 76.5117 111.293 78.8164 112.426 80.0273C113.598 81.1992 114.867 81.7852 116.234 81.7852C117.133 81.7852 118.012 81.5898 118.871 81.1992C119.77 80.7695 120.512 80.2227 121.098 79.5586L120.746 81.375C119.77 83.2109 118.246 84.7734 116.176 86.0625C114.105 87.3125 111.703 87.9375 108.969 87.9375C105.727 87.9375 103.207 86.9023 101.41 84.832C99.6133 82.7227 97.9922 79.3633 96.5469 74.7539L85.7656 39.4805C85.2188 37.7617 84.6328 36.5703 84.0078 35.9062C83.3828 35.2031 82.3086 34.6758 80.7852 34.3242L77.8555 33.7383L78.207 32.0391L95.9023 29.6367ZM128.129 35.6719C128.129 37.4688 127.504 38.9922 126.254 40.2422C125.043 41.4922 123.559 42.1172 121.801 42.1172C120.004 42.1172 118.5 41.5117 117.289 40.3008C116.078 39.0508 115.473 37.5469 115.473 35.7891C115.473 34.0312 116.078 32.5664 117.289 31.3945C118.5 30.2227 119.984 29.6172 121.742 29.5781V32.0977C120.492 32.0977 119.301 32.4297 118.168 33.0938C117.074 33.7578 115.883 34.9492 114.594 36.668C113.305 38.3477 111.742 40.7891 109.906 43.9922L102.816 56.0039L102.113 54.0703L108.324 42.8203C110.238 39.2266 111.918 36.4531 113.363 34.5C114.848 32.5078 116.234 31.1406 117.523 30.3984C118.852 29.6172 120.258 29.2266 121.742 29.2266C123.656 29.2266 125.199 29.8516 126.371 31.1016C127.543 32.3125 128.129 33.8359 128.129 35.6719ZM68.3047 81.5508C68.3047 79.7539 68.9297 78.2305 70.1797 76.9805C71.4297 75.7305 72.9336 75.1055 74.6914 75.1055C76.4492 75.1055 77.9336 75.7305 79.1445 76.9805C80.3555 78.1914 80.9609 79.6758 80.9609 81.4336C80.9609 83.1914 80.3555 84.6758 79.1445 85.8867C77.9336 87.0586 76.4492 87.6445 74.6914 87.6445V85.125C75.9414 85.125 77.1133 84.793 78.207 84.1289C79.3398 83.4648 80.5508 82.2734 81.8398 80.5547C83.1289 78.8359 84.7109 76.3945 86.5859 73.2305L93.5586 61.4531L94.2617 63.3867L88.168 74.4023C86.1758 77.9961 84.457 80.7891 83.0117 82.7812C81.5664 84.7344 80.1797 86.1016 78.8516 86.8828C77.5625 87.625 76.1758 87.9961 74.6914 87.9961C72.8164 87.9961 71.2734 87.3906 70.0625 86.1797C68.8906 84.9688 68.3047 83.4258 68.3047 81.5508ZM152.211 87.9961C148.305 87.9961 144.73 87.1172 141.488 85.3594C138.246 83.6016 135.648 80.9844 133.695 77.5078C131.742 73.9922 130.766 69.6367 130.766 64.4414C130.766 59.2852 131.547 54.5586 133.109 50.2617C134.672 45.9258 136.84 42.1953 139.613 39.0703C142.387 35.9453 145.59 33.5234 149.223 31.8047C152.855 30.0859 156.762 29.2266 160.941 29.2266C164.223 29.2266 166.996 29.7539 169.262 30.8086C171.527 31.8633 173.246 33.2891 174.418 35.0859C175.629 36.8828 176.234 38.875 176.234 41.0625C176.234 42.8984 175.59 44.4609 174.301 45.75C173.051 47 171.508 47.625 169.672 47.625C167.914 47.625 166.41 47 165.16 45.75C163.949 44.5 163.344 43.0156 163.344 41.2969C163.344 39.4609 163.969 37.9375 165.219 36.7266C166.508 35.5156 168.031 34.9102 169.789 34.9102C171.508 34.9102 172.953 35.4961 174.125 36.668C175.297 37.8398 175.883 39.3047 175.883 41.0625H174.066C173.988 39.3047 173.48 37.7617 172.543 36.4336C171.645 35.0664 170.414 33.9922 168.852 33.2109C167.328 32.4297 165.57 32.0391 163.578 32.0391C160.453 32.0391 157.699 32.9375 155.316 34.7344C152.934 36.5312 150.922 38.9531 149.281 42C147.68 45.0078 146.469 48.3867 145.648 52.1367C144.828 55.8867 144.418 59.7148 144.418 63.6211C144.418 67.8008 145.023 71.2969 146.234 74.1094C147.445 76.9219 149.125 79.0508 151.273 80.4961C153.461 81.9023 155.961 82.6055 158.773 82.6055C161.273 82.6055 163.734 82.0586 166.156 80.9648C168.578 79.8711 170.492 78.543 171.898 76.9805L171.547 78.8555C170.375 80.5352 168.793 82.0781 166.801 83.4844C164.848 84.8906 162.621 86.0039 160.121 86.8242C157.621 87.6055 154.984 87.9961 152.211 87.9961ZM201.723 87.9961C197.855 87.9961 194.32 87.1172 191.117 85.3594C187.914 83.5625 185.355 80.9258 183.441 77.4492C181.566 73.9336 180.629 69.6562 180.629 64.6172C180.629 59.6953 181.391 55.1055 182.914 50.8477C184.438 46.5508 186.547 42.7812 189.242 39.5391C191.977 36.2969 195.16 33.7773 198.793 31.9805C202.426 30.1445 206.352 29.2266 210.57 29.2266C215.375 29.2266 219.203 30.2422 222.055 32.2734C224.945 34.2656 226.391 37.0195 226.391 40.5352C226.391 43.3867 225.375 45.9453 223.344 48.2109C221.352 50.4766 218.246 52.5859 214.027 54.5391C209.809 56.4531 204.379 58.3672 197.738 60.2812L192.934 61.6875L193.109 59.8125L197.562 58.3477C200.453 57.4102 203.031 56.2383 205.297 54.832C207.562 53.4258 209.477 51.8438 211.039 50.0859C212.602 48.2891 213.793 46.375 214.613 44.3438C215.473 42.2734 215.902 40.1445 215.902 37.957C215.902 35.9258 215.453 34.3438 214.555 33.2109C213.695 32.0391 212.25 31.4531 210.219 31.4531C207.719 31.4531 205.473 32.3906 203.48 34.2656C201.488 36.1406 199.809 38.6406 198.441 41.7656C197.074 44.8516 196.02 48.2695 195.277 52.0195C194.574 55.7695 194.223 59.5195 194.223 63.2695C194.223 67.6445 194.828 71.2578 196.039 74.1094C197.25 76.9609 198.93 79.0898 201.078 80.4961C203.227 81.9023 205.668 82.6055 208.402 82.6055C210.941 82.6055 213.363 82.0586 215.668 80.9648C217.973 79.8711 219.867 78.543 221.352 76.9805L220.941 78.8555C219.77 80.5742 218.207 82.1367 216.254 83.543C214.34 84.9102 212.133 86.0039 209.633 86.8242C207.172 87.6055 204.535 87.9961 201.723 87.9961ZM261.312 0.574219L245.199 76.3359C244.77 78.3281 244.848 79.7734 245.434 80.6719C246.059 81.5703 247.055 82.0195 248.422 82.0195C249.398 82.0195 250.453 81.8242 251.586 81.4336C252.719 81.0039 253.676 80.418 254.457 79.6758L254.164 81.4922C252.836 83.3672 250.844 84.9102 248.188 86.1211C245.531 87.293 242.797 87.8789 239.984 87.8789C236.742 87.8789 234.398 86.8633 232.953 84.832C231.508 82.8008 231.273 79.5586 232.25 75.1055L246.078 10.0078C246.391 8.44531 246.352 7.3125 245.961 6.60938C245.609 5.90625 244.691 5.32031 243.207 4.85156L240.16 4.08984L240.512 2.39062L261.312 0.574219ZM292.484 0.574219L276.371 76.3359C275.941 78.3281 276.02 79.7734 276.605 80.6719C277.23 81.5703 278.227 82.0195 279.594 82.0195C280.57 82.0195 281.625 81.8242 282.758 81.4336C283.891 81.0039 284.848 80.418 285.629 79.6758L285.336 81.4922C284.008 83.3672 282.016 84.9102 279.359 86.1211C276.703 87.293 273.969 87.8789 271.156 87.8789C267.914 87.8789 265.57 86.8633 264.125 84.832C262.68 82.8008 262.445 79.5586 263.422 75.1055L277.25 10.0078C277.562 8.44531 277.523 7.3125 277.133 6.60938C276.781 5.90625 275.863 5.32031 274.379 4.85156L271.332 4.08984L271.684 2.39062L292.484 0.574219ZM315.277 87.9961C311.41 87.9961 307.875 87.1172 304.672 85.3594C301.469 83.5625 298.91 80.9258 296.996 77.4492C295.121 73.9336 294.184 69.6562 294.184 64.6172C294.184 59.6953 294.945 55.1055 296.469 50.8477C297.992 46.5508 300.102 42.7812 302.797 39.5391C305.531 36.2969 308.715 33.7773 312.348 31.9805C315.98 30.1445 319.906 29.2266 324.125 29.2266C328.93 29.2266 332.758 30.2422 335.609 32.2734C338.5 34.2656 339.945 37.0195 339.945 40.5352C339.945 43.3867 338.93 45.9453 336.898 48.2109C334.906 50.4766 331.801 52.5859 327.582 54.5391C323.363 56.4531 317.934 58.3672 311.293 60.2812L306.488 61.6875L306.664 59.8125L311.117 58.3477C314.008 57.4102 316.586 56.2383 318.852 54.832C321.117 53.4258 323.031 51.8438 324.594 50.0859C326.156 48.2891 327.348 46.375 328.168 44.3438C329.027 42.2734 329.457 40.1445 329.457 37.957C329.457 35.9258 329.008 34.3438 328.109 33.2109C327.25 32.0391 325.805 31.4531 323.773 31.4531C321.273 31.4531 319.027 32.3906 317.035 34.2656C315.043 36.1406 313.363 38.6406 311.996 41.7656C310.629 44.8516 309.574 48.2695 308.832 52.0195C308.129 55.7695 307.777 59.5195 307.777 63.2695C307.777 67.6445 308.383 71.2578 309.594 74.1094C310.805 76.9609 312.484 79.0898 314.633 80.4961C316.781 81.9023 319.223 82.6055 321.957 82.6055C324.496 82.6055 326.918 82.0586 329.223 80.9648C331.527 79.8711 333.422 78.543 334.906 76.9805L334.496 78.8555C333.324 80.5742 331.762 82.1367 329.809 83.543C327.895 84.9102 325.688 86.0039 323.188 86.8242C320.727 87.6055 318.09 87.9961 315.277 87.9961ZM369.066 29.6367L365.141 47.8594C366.508 43.8359 368.305 40.4375 370.531 37.6641C372.758 34.8906 375.297 32.8008 378.148 31.3945C381 29.9492 384.008 29.2266 387.172 29.2266C392.094 29.2266 395.746 30.75 398.129 33.7969C400.512 36.8438 401.039 41.4336 399.711 47.5664L393.5 76.3359C393.07 78.3281 393.168 79.7734 393.793 80.6719C394.418 81.5703 395.395 82.0195 396.723 82.0195C397.699 82.0195 398.754 81.8242 399.887 81.4336C401.059 81.0039 402.035 80.418 402.816 79.6758L402.465 81.4922C401.176 83.3672 399.203 84.9102 396.547 86.1211C393.891 87.293 391.156 87.8789 388.344 87.8789C385.062 87.8789 382.699 86.8633 381.254 84.832C379.848 82.8008 379.613 79.5586 380.551 75.1055L386.879 45.6914C387.621 42.2539 387.523 39.5391 386.586 37.5469C385.648 35.5547 383.656 34.5586 380.609 34.5586C378.305 34.5586 376.078 35.3398 373.93 36.9023C371.82 38.4258 369.926 40.5156 368.246 43.1719C366.605 45.8281 365.336 48.8359 364.438 52.1953L356.996 87H343.812L353.949 39.6562C354.262 38.0938 354.223 36.9609 353.832 36.2578C353.48 35.5547 352.562 34.9688 351.078 34.5L348.031 33.7383L348.383 32.0391L369.066 29.6367ZM424.262 87.9375C419.73 87.8984 416.391 86.2969 414.242 83.1328C412.133 79.9297 411.703 75.3398 412.953 69.3633L420.16 35.0273H413.188L413.48 33.4453L420.98 31.5703L423.383 19.9102L437.035 17.8008L434.047 32.1562L448.227 31.2773L447.406 35.0273L433.578 34.3242L425.844 70.8281C424.984 74.7344 425.062 77.6055 426.078 79.4414C427.094 81.2383 428.93 82.1367 431.586 82.1367C433.227 82.1367 434.711 81.8242 436.039 81.1992C437.406 80.5742 438.52 79.7344 439.379 78.6797L439.027 80.4961C438.129 82.0586 436.898 83.4062 435.336 84.5391C433.812 85.6328 432.094 86.4727 430.18 87.0586C428.305 87.6445 426.332 87.9375 424.262 87.9375Z" fill="#AF001B"/>
</svg>
