<svg width="799" height="177" viewBox="0 0 799 177" fill="none" xmlns="http://www.w3.org/2000/svg">
<path fill-rule="evenodd" clip-rule="evenodd" d="M797.877 33.25V5.25H690.377V33.25H727.877V172H760.377V33.25H797.877ZM761.377 34.25H798.877V4.25H689.377V34.25H726.877V173H761.377V34.25Z" fill="white"/>
<path fill-rule="evenodd" clip-rule="evenodd" d="M682.092 20.9218L663.766 44.9068L662.974 43.85C653.48 31.1926 642.343 30 636.523 30C627.995 30 622.53 32.6726 619.192 36.2453C615.835 39.8373 614.523 44.4508 614.523 48.5C614.523 52.2371 615.667 55.7035 619.432 58.9974L619.445 59.0087L619.457 59.0205C623.271 62.5954 628.531 64.5302 639.107 68.3073C652.067 72.7934 664.521 77.3499 673.197 85.261C680.898 92.194 687.773 103.71 687.773 121C687.773 137.501 681.802 151.46 671.398 161.289C660.998 171.115 646.24 176.75 628.773 176.75C597.555 176.75 579.29 157.698 570.449 144.816L569.967 144.114L592.819 122.337L593.421 123.558C601.223 139.406 616.082 145.25 627.523 145.25C634.699 145.25 640.891 143.062 645.273 139.246C649.643 135.441 652.273 129.969 652.273 123.25C652.273 117.526 650.388 113.041 646.091 108.981C643.086 106.218 639.141 104.022 634.719 102.105C630.676 100.352 626.292 98.8555 621.929 97.3661C621.519 97.2261 621.109 97.0862 620.7 96.9462C611.944 93.9441 601.277 89.8934 592.616 82.2537C586.957 77.3652 579.023 67.8585 579.023 50.5C579.023 38.0319 583.222 25.5225 592.174 16.1228C601.139 6.70972 614.79 0.5 633.523 0.5C644.151 0.5 664.222 2.52646 681.491 20.3032L682.092 20.9218ZM593.273 81.5C601.773 89 612.273 93 621.023 96C621.434 96.1404 621.845 96.2808 622.257 96.4214C631.381 99.5355 640.794 102.748 646.773 108.25C651.273 112.5 653.273 117.25 653.273 123.25C653.273 137.25 642.273 146.25 627.523 146.25C616.001 146.25 601.112 140.48 592.996 124.931C592.836 124.625 592.678 124.314 592.523 124L571.273 144.25C580.023 157 598.023 175.75 628.773 175.75C663.273 175.75 686.773 153.5 686.773 121C686.773 104 680.023 92.75 672.523 86C664.023 78.25 651.773 73.75 638.773 69.25C628.273 65.5 622.773 63.5 618.773 59.75C614.773 56.25 613.523 52.5 613.523 48.5C613.523 40 619.023 29 636.523 29C642.395 29 653.532 30.1969 663.143 42.4284C663.354 42.6969 663.564 42.9707 663.773 43.25L680.773 21C663.773 3.50001 644.023 1.5 633.523 1.5C596.523 1.5 580.023 26 580.023 50.5C580.023 67.5 587.773 76.75 593.273 81.5Z" fill="white"/>
<path fill-rule="evenodd" clip-rule="evenodd" d="M516.217 5.25V172H548.717V5.25H516.217ZM515.217 4.25H549.717V173H515.217V4.25Z" fill="white"/>
<path fill-rule="evenodd" clip-rule="evenodd" d="M489.693 5.25H397.193V172H489.693V144H429.693V98.5H487.193V70.5H429.693V33.25H489.693V5.25ZM430.693 34.25H490.693V4.25H396.193V173H490.693V143H430.693V99.5H488.193V69.5H430.693V34.25Z" fill="white"/>
<path fill-rule="evenodd" clip-rule="evenodd" d="M295.748 5.25V172H379.748V144H328.248V5.25H295.748ZM329.248 143V4.25H294.748V173H380.748V143H329.248Z" fill="white"/>
<path fill-rule="evenodd" clip-rule="evenodd" d="M280.152 33.25V5.25H172.652V33.25H210.152V172H242.652V33.25H280.152ZM243.652 34.25H281.152V4.25H171.652V34.25H209.152V173H243.652V34.25Z" fill="white"/>
<path fill-rule="evenodd" clip-rule="evenodd" d="M124.596 5.25V172H157.096V5.25H124.596ZM123.596 4.25H158.096V173H123.596V4.25Z" fill="white"/>
<path fill-rule="evenodd" clip-rule="evenodd" d="M109 33.25V5.25H1.5V33.25H39V172H71.5V33.25H109ZM72.5 34.25H110V4.25H0.5V34.25H38V173H72.5V34.25Z" fill="white"/>
</svg>
