<svg width="322" height="76" viewBox="0 0 322 76" fill="none" xmlns="http://www.w3.org/2000/svg">
<path d="M0.648438 32.6094C0.674479 27.8438 1.45573 23.5078 2.99219 19.6016C4.52865 15.6953 6.67708 12.3359 9.4375 9.52344C12.224 6.71094 15.5052 4.54948 19.2812 3.03906C23.0573 1.5026 27.1849 0.734375 31.6641 0.734375C34.5286 0.734375 37.1849 0.994792 39.6328 1.51562C42.1068 2.01042 44.2943 2.67448 46.1953 3.50781C48.1224 4.3151 49.6849 5.17448 50.8828 6.08594L48.5 19.0937L46.9766 19.0156C46.8724 15.3437 46.2604 12.349 45.1406 10.0312C44.0469 7.6875 42.5104 5.96875 40.5312 4.875C38.5521 3.75521 36.1953 3.19531 33.4609 3.19531C30.8568 3.19531 28.4219 3.72917 26.1562 4.79687C23.8906 5.83854 21.8464 7.32292 20.0234 9.25C18.2005 11.1771 16.625 13.4687 15.2969 16.125C13.9948 18.7552 12.9922 21.6719 12.2891 24.875C11.5859 28.0781 11.2344 31.4766 11.2344 35.0703C11.2344 39.4193 11.8984 43.1953 13.2266 46.3984C14.5807 49.6016 16.4557 52.0755 18.8516 53.8203C21.2474 55.5651 24.0078 56.4375 27.1328 56.4375C28.6693 56.4375 30.2448 56.2552 31.8594 55.8906C33.5 55.5 34.8411 54.8359 35.8828 53.8984L35.1016 55.1094L38.6953 38.0781C38.9297 36.9583 38.9818 36.0859 38.8516 35.4609C38.7474 34.8359 38.3177 34.3672 37.5625 34.0547C36.8333 33.7161 35.6224 33.4427 33.9297 33.2344L34.2812 31.5156H53.7734L53.4219 33.2344C51.9375 33.4167 50.8047 33.6771 50.0234 34.0156C49.2682 34.3281 48.7083 34.8099 48.3438 35.4609C48.0052 36.0859 47.7057 36.9583 47.4453 38.0781L44.0469 53.8984C43.0312 54.6536 41.8464 55.3438 40.4922 55.9688C39.1641 56.5938 37.7188 57.1276 36.1562 57.5703C34.5938 57.987 32.9531 58.3125 31.2344 58.5469C29.5417 58.7812 27.849 58.8984 26.1562 58.8984C22.8229 58.8984 19.6198 58.3125 16.5469 57.1406C13.5 55.9688 10.7786 54.263 8.38281 52.0234C5.98698 49.7839 4.09896 47.0365 2.71875 43.7812C1.33854 40.526 0.648438 36.8021 0.648438 32.6094ZM52.7031 44.7578C52.7031 41.4245 53.1589 38.2214 54.0703 35.1484C55.0078 32.0755 56.349 29.3281 58.0938 26.9062C59.8385 24.4844 61.9219 22.5703 64.3438 21.1641C66.7656 19.7318 69.474 19.0156 72.4688 19.0156C75.0208 19.0156 77 19.4974 78.4062 20.4609C79.8125 21.3984 80.75 22.4271 81.2188 23.5469L85.5156 19.7578H90.2031L83.6016 50.5391C83.3151 51.7891 83.3672 52.7135 83.7578 53.3125C84.1484 53.9115 84.7865 54.2109 85.6719 54.2109C86.349 54.2109 87.0781 54.0807 87.8594 53.8203C88.6667 53.5339 89.3698 53.1302 89.9688 52.6094L89.5781 54.4062C88.6927 55.6042 87.3516 56.6068 85.5547 57.4141C83.7578 58.1953 81.9349 58.5859 80.0859 58.5859C78.0286 58.5859 76.5443 57.9609 75.6328 56.7109C74.7214 55.4609 74.5 53.5599 74.9688 51.0078C75.0469 50.5911 75.138 50.0703 75.2422 49.4453C75.3724 48.8203 75.4896 48.3125 75.5938 47.9219C74.3958 51.4115 72.6901 54.0937 70.4766 55.9687C68.263 57.8177 65.763 58.7422 62.9766 58.7422C60.9714 58.7422 59.1875 58.1823 57.625 57.0625C56.0885 55.9167 54.8776 54.3021 53.9922 52.2187C53.1328 50.1094 52.7031 47.6224 52.7031 44.7578ZM61.8828 45.5C61.8828 48.7552 62.3385 51.0859 63.25 52.4922C64.1875 53.8984 65.4766 54.6016 67.1172 54.6016C68.9401 54.6016 70.6979 53.651 72.3906 51.75C74.0833 49.849 75.3333 47.1536 76.1406 43.6641L80.0859 25.1875C79.8255 24.276 79.2005 23.4948 78.2109 22.8437C77.2474 22.1927 76.0234 21.8672 74.5391 21.8672C72.8464 21.8672 71.3229 22.349 69.9688 23.3125C68.6406 24.276 67.4688 25.5911 66.4531 27.2578C65.4375 28.8984 64.5911 30.7474 63.9141 32.8047C63.263 34.8359 62.7552 36.9453 62.3906 39.1328C62.0521 41.3203 61.8828 43.4427 61.8828 45.5ZM97.6094 26.5156C97.8177 25.5 97.7917 24.7708 97.5312 24.3281C97.2708 23.8594 96.6589 23.4818 95.6953 23.1953L93.2734 22.6875L93.625 21.0469L107.805 19.2891L105.305 30.8516C106.685 26.9453 108.586 24.0026 111.008 22.0234C113.456 20.0182 116.177 19.0156 119.172 19.0156C121.307 19.0156 123.078 19.4323 124.484 20.2656C125.891 21.099 126.88 22.3099 127.453 23.8984C128.052 25.4609 128.182 27.349 127.844 29.5625C127.818 29.8229 127.766 30.0703 127.688 30.3047C127.609 30.5391 127.544 30.7865 127.492 31.0469C128.326 28.4687 129.445 26.2943 130.852 24.5234C132.284 22.7266 133.885 21.3594 135.656 20.4219C137.453 19.4844 139.341 19.0156 141.32 19.0156C144.706 19.0156 147.193 20.0833 148.781 22.2187C150.37 24.3542 150.708 27.4922 149.797 31.6328L145.734 50.5391C145.448 51.7891 145.487 52.7135 145.852 53.3125C146.242 53.9115 146.893 54.2109 147.805 54.2109C148.456 54.2109 149.185 54.0807 149.992 53.8203C150.799 53.5339 151.503 53.1302 152.102 52.6094L151.711 54.4062C150.826 55.6302 149.471 56.6328 147.648 57.4141C145.852 58.1953 144.029 58.5859 142.18 58.5859C139.94 58.5859 138.339 57.8958 137.375 56.5156C136.438 55.1354 136.281 52.9609 136.906 49.9922L141.047 30.6953C141.542 28.4297 141.464 26.6068 140.812 25.2266C140.188 23.8203 138.951 23.1172 137.102 23.1172C135.643 23.1172 134.224 23.651 132.844 24.7187C131.49 25.7604 130.279 27.1797 129.211 28.9766C128.169 30.7734 127.375 32.8177 126.828 35.1094L121.984 58H113.078L118.938 30.5C119.406 28.3125 119.328 26.5417 118.703 25.1875C118.078 23.8073 116.828 23.1172 114.953 23.1172C113.495 23.1172 112.076 23.638 110.695 24.6797C109.341 25.7214 108.13 27.1406 107.062 28.9375C106.021 30.7344 105.227 32.7656 104.68 35.0312L99.7969 58H90.8906L97.6094 26.5156ZM168.18 58.7422C165.576 58.7422 163.18 58.1432 160.992 56.9453C158.805 55.7214 157.047 53.9245 155.719 51.5547C154.417 49.1589 153.766 46.2292 153.766 42.7656C153.766 39.4323 154.286 36.3333 155.328 33.4687C156.396 30.5781 157.854 28.0521 159.703 25.8906C161.578 23.7292 163.74 22.0495 166.188 20.8516C168.635 19.6276 171.253 19.0156 174.039 19.0156C177.32 19.0156 179.938 19.7187 181.891 21.125C183.844 22.5052 184.82 24.4062 184.82 26.8281C184.82 28.8594 184.091 30.6693 182.633 32.2578C181.201 33.8203 179.026 35.2656 176.109 36.5937C173.219 37.9219 169.573 39.224 165.172 40.5L161.695 41.5156L161.812 39.6406L165.055 38.625C166.982 38.026 168.714 37.2839 170.25 36.3984C171.812 35.487 173.141 34.4714 174.234 33.3516C175.328 32.2057 176.161 30.9948 176.734 29.7187C177.307 28.4167 177.594 27.0625 177.594 25.6562C177.594 24.25 177.281 23.1562 176.656 22.375C176.057 21.5937 175.068 21.2031 173.688 21.2031C172.073 21.2031 170.602 21.7891 169.273 22.9609C167.945 24.1068 166.812 25.6562 165.875 27.6094C164.938 29.5625 164.208 31.763 163.688 34.2109C163.193 36.6589 162.945 39.1719 162.945 41.75C162.945 44.6146 163.349 46.9974 164.156 48.8984C164.99 50.7995 166.135 52.2318 167.594 53.1953C169.052 54.1328 170.706 54.6016 172.555 54.6016C174.169 54.6016 175.758 54.263 177.32 53.5859C178.909 52.9089 180.276 52.0104 181.422 50.8906L181.031 52.7266C180.198 53.8984 179.117 54.9401 177.789 55.8516C176.487 56.737 175.003 57.4401 173.336 57.9609C171.695 58.4818 169.977 58.7422 168.18 58.7422ZM196.078 54.9531L197.875 44.875H199.398C199.424 48.651 200.284 51.5417 201.977 53.5469C203.695 55.526 205.883 56.5156 208.539 56.5156C210.518 56.5156 212.146 55.9818 213.422 54.9141C214.698 53.8464 215.336 52.362 215.336 50.4609C215.336 48.9245 214.997 47.5703 214.32 46.3984C213.669 45.2266 212.471 44.0547 210.727 42.8828L207.602 40.6953C205.388 39.237 203.734 37.6484 202.641 35.9297C201.547 34.2109 201 32.3099 201 30.2266C201 28.0391 201.573 26.112 202.719 24.4453C203.891 22.7526 205.544 21.4245 207.68 20.4609C209.815 19.4974 212.354 19.0156 215.297 19.0156C217.797 19.0156 220.01 19.3151 221.938 19.9141C223.865 20.487 225.362 21.1641 226.43 21.9453L224.438 31.75H222.914C222.966 29.875 222.719 28.1432 222.172 26.5547C221.625 24.9661 220.766 23.6901 219.594 22.7266C218.422 21.737 216.898 21.2422 215.023 21.2422C213.07 21.2422 211.573 21.763 210.531 22.8047C209.516 23.8203 209.008 25.1745 209.008 26.8672C209.008 28.2214 209.372 29.4193 210.102 30.4609C210.831 31.5026 212.003 32.5573 213.617 33.625L216.742 35.8125C219.112 37.375 220.805 39.0286 221.82 40.7734C222.836 42.4922 223.344 44.4844 223.344 46.75C223.344 49.1458 222.68 51.2422 221.352 53.0391C220.023 54.8359 218.24 56.2422 216 57.2578C213.76 58.2474 211.273 58.7422 208.539 58.7422C206.82 58.7422 205.167 58.5729 203.578 58.2344C202.016 57.9219 200.583 57.4792 199.281 56.9062C197.979 56.3333 196.911 55.6823 196.078 54.9531ZM263.328 33C263.328 36.3333 262.859 39.5365 261.922 42.6094C261.01 45.6823 259.682 48.4297 257.938 50.8516C256.193 53.2734 254.096 55.2005 251.648 56.6328C249.227 58.0391 246.531 58.7422 243.562 58.7422C241.271 58.7422 239.461 58.3516 238.133 57.5703C236.831 56.763 235.919 55.8776 235.398 54.9141L232.156 70.2266C232 71.0859 232 71.75 232.156 72.2187C232.339 72.7135 232.82 73.1042 233.602 73.3906C234.409 73.6771 235.672 73.9505 237.391 74.2109L237.039 75.9687H217.078L217.469 74.2109C218.953 73.9505 220.073 73.6771 220.828 73.3906C221.609 73.1302 222.156 72.7656 222.469 72.2969C222.807 71.8281 223.068 71.1771 223.25 70.3437L232.547 26.5156C232.755 25.5 232.729 24.7708 232.469 24.3281C232.234 23.8594 231.622 23.4818 230.633 23.1953L228.211 22.6875L228.562 21.0469L242.742 19.2891L240.516 29.7187C241.688 26.2292 243.367 23.5729 245.555 21.75C247.768 19.9271 250.268 19.0156 253.055 19.0156C255.06 19.0156 256.831 19.5885 258.367 20.7344C259.93 21.8542 261.141 23.4687 262 25.5781C262.885 27.6615 263.328 30.1354 263.328 33ZM254.109 32.2578C254.109 29.0026 253.654 26.6719 252.742 25.2656C251.831 23.8594 250.555 23.1562 248.914 23.1562C247.091 23.1562 245.333 24.1068 243.641 26.0078C241.974 27.9089 240.724 30.5911 239.891 34.0547L235.945 52.5312C236.206 53.4427 236.818 54.224 237.781 54.875C238.771 55.526 240.008 55.8516 241.492 55.8516C243.185 55.8516 244.695 55.3698 246.023 54.4062C247.378 53.4427 248.562 52.1406 249.578 50.5C250.594 48.8594 251.427 47.0104 252.078 44.9531C252.755 42.8958 253.263 40.7734 253.602 38.5859C253.94 36.3984 254.109 34.2891 254.109 32.2578ZM281.242 19.2891L274.602 50.5391C274.341 51.7891 274.393 52.7135 274.758 53.3125C275.148 53.9115 275.799 54.2109 276.711 54.2109C277.362 54.2109 278.078 54.0807 278.859 53.8203C279.667 53.5339 280.37 53.1302 280.969 52.6094L280.617 54.4062C279.732 55.6302 278.378 56.6328 276.555 57.4141C274.758 58.1953 272.935 58.5859 271.086 58.5859C268.82 58.5859 267.219 57.8958 266.281 56.5156C265.344 55.1354 265.188 52.9609 265.812 49.9922L270.812 26.5156C271.021 25.5 270.995 24.7708 270.734 24.3281C270.5 23.8594 269.888 23.4818 268.898 23.1953L266.477 22.6875L266.828 21.0469L281.242 19.2891ZM278.391 12.7656C277.036 12.7656 275.878 12.2969 274.914 11.3594C273.977 10.4219 273.508 9.27604 273.508 7.92187C273.508 6.46354 274.016 5.23958 275.031 4.25C276.073 3.26042 277.323 2.76562 278.781 2.76562C280.161 2.76562 281.32 3.23437 282.258 4.17187C283.221 5.08333 283.703 6.22917 283.703 7.60937C283.703 8.54687 283.456 9.40625 282.961 10.1875C282.492 10.9687 281.867 11.5937 281.086 12.0625C280.305 12.5312 279.406 12.7656 278.391 12.7656ZM298.961 19.2891L296.461 30.8516C297.424 28.2995 298.635 26.151 300.094 24.4062C301.552 22.6354 303.193 21.2943 305.016 20.3828C306.865 19.4714 308.831 19.0156 310.914 19.0156C314.378 19.0156 316.891 20.0964 318.453 22.2578C320.042 24.4193 320.393 27.5703 319.508 31.7109L315.484 50.5391C315.198 51.7891 315.25 52.7135 315.641 53.3125C316.031 53.9115 316.669 54.2109 317.555 54.2109C318.206 54.2109 318.935 54.0807 319.742 53.8203C320.549 53.5339 321.253 53.1302 321.852 52.6094L321.461 54.4062C320.576 55.6302 319.221 56.6328 317.398 57.4141C315.602 58.1953 313.779 58.5859 311.93 58.5859C309.69 58.5859 308.089 57.8958 307.125 56.5156C306.188 55.1354 306.031 52.9609 306.656 49.9922L310.797 30.7344C311.292 28.3385 311.201 26.4766 310.523 25.1484C309.872 23.7943 308.557 23.1172 306.578 23.1172C305.068 23.1172 303.596 23.638 302.164 24.6797C300.732 25.7214 299.456 27.1406 298.336 28.9375C297.216 30.7344 296.383 32.7656 295.836 35.0312L290.953 58H282.047L288.766 26.5156C288.974 25.5 288.948 24.7708 288.688 24.3281C288.427 23.8594 287.815 23.4818 286.852 23.1953L284.43 22.6875L284.781 21.0469L298.961 19.2891Z" fill="#AF001B"/>
</svg>
