<svg width="1920" height="123" viewBox="0 0 1920 123" fill="none" xmlns="http://www.w3.org/2000/svg">
<rect width="1920" height="123" fill="black"/>
<path d="M140.713 72.672C140.713 69.6 143.225 67.152 146.233 67.152C149.241 67.152 151.753 69.6 151.753 72.672C151.753 75.712 149.257 78.176 146.233 78.176C143.209 78.176 140.713 75.712 140.713 72.672ZM150.857 72.672C150.857 70.112 148.793 68.048 146.233 68.048C143.673 68.048 141.609 70.112 141.609 72.672C141.609 75.216 143.673 77.28 146.233 77.28C148.793 77.28 150.857 75.216 150.857 72.672ZM148.536 70.048V71.328C147.977 70.64 147.145 70.4 146.585 70.4C145.433 70.4 144.377 71.232 144.377 72.736C144.377 74.272 145.481 75.04 146.569 75.04C147.385 75.04 148.105 74.64 148.585 74.064V75.36C147.817 75.92 147.113 76 146.601 76C144.681 76 143.273 74.656 143.273 72.752C143.273 70.864 144.713 69.44 146.601 69.44C147.177 69.44 147.897 69.584 148.536 70.048ZM159.852 78H152.956L156.844 73.504C157.116 73.184 157.836 72.336 158.092 71.952C158.572 71.264 158.684 70.752 158.684 70.32C158.684 69.12 157.82 68.24 156.556 68.24C155.804 68.24 155.18 68.576 154.78 69.184C154.572 69.504 154.444 69.904 154.428 70.448H153.244C153.292 69.376 153.628 68.72 154.044 68.24C154.492 67.728 155.244 67.152 156.572 67.152C158.46 67.152 159.868 68.496 159.868 70.336C159.868 71.056 159.66 71.712 159.02 72.624C158.572 73.248 157.996 73.904 157.564 74.4L155.34 76.912H159.852V78ZM165.388 78.192C164.54 78.192 163.468 77.776 162.652 76.592C161.948 75.568 161.58 74.192 161.58 72.672C161.58 71.152 161.948 69.776 162.652 68.752C163.468 67.568 164.54 67.152 165.388 67.152C166.236 67.152 167.308 67.568 168.124 68.752C168.828 69.776 169.196 71.152 169.196 72.672C169.196 74.192 168.828 75.568 168.124 76.592C167.308 77.776 166.236 78.192 165.388 78.192ZM165.388 68.24C164.844 68.24 164.108 68.528 163.548 69.424C162.972 70.336 162.764 71.552 162.764 72.672C162.764 73.792 162.972 75.008 163.548 75.92C164.108 76.816 164.844 77.104 165.388 77.104C165.932 77.104 166.668 76.816 167.228 75.92C167.804 75.008 168.012 73.792 168.012 72.672C168.012 71.552 167.804 70.336 167.228 69.424C166.668 68.528 165.932 68.24 165.388 68.24ZM177.634 78H170.738L174.626 73.504C174.898 73.184 175.618 72.336 175.874 71.952C176.354 71.264 176.466 70.752 176.466 70.32C176.466 69.12 175.602 68.24 174.338 68.24C173.586 68.24 172.962 68.576 172.562 69.184C172.354 69.504 172.226 69.904 172.21 70.448H171.026C171.074 69.376 171.41 68.72 171.826 68.24C172.274 67.728 173.026 67.152 174.354 67.152C176.242 67.152 177.65 68.496 177.65 70.336C177.65 71.056 177.442 71.712 176.802 72.624C176.354 73.248 175.778 73.904 175.346 74.4L173.122 76.912H177.634V78ZM180.982 69.968H179.798C179.83 69.376 180.022 68.832 180.294 68.4C180.998 67.296 182.134 67.152 182.774 67.152C184.79 67.152 185.782 68.56 185.782 70.032C185.782 70.8 185.494 71.856 184.406 72.4C184.774 72.544 185.942 73.136 185.942 74.976C185.942 76.976 184.486 78.192 182.662 78.192C181.558 78.192 180.262 77.728 179.686 76.352C179.526 75.968 179.462 75.616 179.446 75.232H180.63C180.678 75.616 180.806 76.016 181.014 76.304C181.366 76.816 181.99 77.104 182.662 77.104C183.846 77.104 184.758 76.128 184.758 74.944C184.758 74.336 184.518 73.52 183.702 73.152C183.366 72.992 182.902 72.912 182.486 72.928V71.872C182.902 71.904 183.366 71.824 183.702 71.648C184.038 71.472 184.598 71.024 184.598 70.064C184.598 69.12 184.086 68.24 182.774 68.24C182.342 68.24 181.814 68.32 181.398 68.848C181.19 69.12 181.014 69.52 180.982 69.968ZM199.762 78L198.514 74.992H193.97L192.69 78H191.378L196.29 66.816L201.074 78H199.762ZM194.434 73.872H198.05L196.258 69.6L194.434 73.872ZM207.491 71.84V73.216C206.883 72.448 206.003 72.224 205.411 72.224C204.179 72.224 203.059 73.088 203.059 74.704C203.059 76.32 204.211 77.168 205.395 77.168C206.083 77.168 206.931 76.864 207.539 76.128V77.504C206.819 78.032 206.051 78.192 205.427 78.192C203.363 78.192 201.875 76.72 201.875 74.72C201.875 72.688 203.379 71.2 205.427 71.2C206.483 71.2 207.171 71.616 207.491 71.84ZM210.459 71.36V75.232C210.459 75.696 210.459 76.24 210.779 76.656C210.955 76.88 211.307 77.168 211.947 77.168C212.587 77.168 212.939 76.88 213.115 76.656C213.435 76.24 213.435 75.696 213.435 75.232V71.36H214.587V75.36C214.587 76.176 214.507 76.784 213.979 77.36C213.387 77.984 212.603 78.192 211.947 78.192C211.291 78.192 210.507 77.984 209.915 77.36C209.387 76.784 209.307 76.176 209.307 75.36V71.36H210.459ZM220.44 72.4L219.496 72.896C219.336 72.512 219 72.224 218.568 72.224C218.152 72.224 217.768 72.464 217.768 72.976C217.768 73.456 218.088 73.6 218.84 73.92C219.8 74.32 220.248 74.624 220.504 74.944C220.792 75.296 220.856 75.648 220.856 76.016C220.856 77.408 219.848 78.192 218.568 78.192C218.296 78.192 216.808 78.16 216.248 76.496L217.24 76.08C217.368 76.432 217.752 77.168 218.584 77.168C219.336 77.168 219.672 76.608 219.672 76.112C219.672 75.488 219.224 75.28 218.6 75.008C217.8 74.656 217.288 74.4 216.984 74.032C216.728 73.712 216.68 73.392 216.68 73.056C216.68 71.888 217.496 71.2 218.616 71.2C218.968 71.2 219.912 71.264 220.44 72.4ZM222.385 78V66.336H223.537V72.128C223.745 71.856 224.337 71.2 225.441 71.2C226.225 71.2 226.945 71.52 227.345 72.112C227.681 72.608 227.729 73.152 227.729 73.888V78H226.577V73.92C226.577 73.52 226.545 73.056 226.273 72.704C226.049 72.416 225.697 72.224 225.185 72.224C224.785 72.224 224.353 72.336 224.017 72.736C223.569 73.264 223.537 74.048 223.537 74.528V78H222.385ZM229.901 78V71.36H231.053V72.128C231.261 71.856 231.853 71.2 232.957 71.2C233.741 71.2 234.461 71.52 234.861 72.112C235.197 72.608 235.245 73.152 235.245 73.888V78H234.093V73.92C234.093 73.52 234.061 73.056 233.789 72.704C233.565 72.416 233.213 72.224 232.701 72.224C232.301 72.224 231.869 72.336 231.533 72.736C231.085 73.264 231.053 74.048 231.053 74.528V78H229.901ZM242.344 75.776L243.304 76.304C243.112 76.672 242.824 77.072 242.488 77.376C241.88 77.92 241.128 78.192 240.28 78.192C238.68 78.192 237 77.184 237 74.72C237 72.736 238.216 71.2 240.216 71.2C241.512 71.2 242.328 71.84 242.728 72.416C243.144 73.008 243.384 74.032 243.352 74.912H238.184C238.2 76.288 239.144 77.168 240.296 77.168C240.84 77.168 241.272 77.008 241.656 76.688C241.96 76.432 242.2 76.096 242.344 75.776ZM238.264 73.952H242.168C241.976 72.912 241.192 72.224 240.216 72.224C239.24 72.224 238.44 72.96 238.264 73.952ZM247.455 72.416H246.303V78H245.151V72.416H244.447V71.36H245.151V68.96H246.303V71.36H247.455V72.416ZM260.724 68.208V69.68C260.388 69.344 259.876 68.944 259.332 68.688C258.772 68.432 258.116 68.272 257.492 68.272C255.028 68.272 253.204 70.256 253.204 72.72C253.204 75.616 255.556 77.072 257.508 77.072C258.228 77.072 258.932 76.864 259.492 76.576C260.1 76.272 260.532 75.872 260.724 75.68V77.152C259.54 78 258.308 78.192 257.508 78.192C254.34 78.192 251.988 75.792 251.988 72.704C251.988 69.52 254.372 67.152 257.572 67.152C258.212 67.152 259.444 67.232 260.724 68.208ZM265.723 78.192C263.707 78.192 262.203 76.72 262.203 74.704C262.203 72.688 263.691 71.2 265.723 71.2C267.755 71.2 269.243 72.688 269.243 74.704C269.243 76.72 267.739 78.192 265.723 78.192ZM265.723 72.224C264.507 72.224 263.387 73.088 263.387 74.704C263.387 76.336 264.539 77.168 265.723 77.168C266.923 77.168 268.059 76.32 268.059 74.704C268.059 73.072 266.939 72.224 265.723 72.224ZM271.01 78V71.36H272.162V72.064C272.53 71.52 273.106 71.2 273.81 71.2C275.01 71.2 275.49 72.048 275.618 72.272C276.258 71.264 277.17 71.2 277.618 71.2C279.586 71.2 279.778 72.848 279.778 73.792V78H278.626V73.968C278.626 73.216 278.53 72.224 277.442 72.224C276.114 72.224 275.97 73.504 275.97 74.304V78H274.818V74.064C274.818 73.6 274.834 72.224 273.618 72.224C272.306 72.224 272.162 73.584 272.162 74.384V78H271.01ZM283.115 77.072V81.68H281.963V71.36H283.115V72.288C283.899 71.312 284.907 71.2 285.387 71.2C287.467 71.2 288.619 72.928 288.619 74.72C288.619 76.544 287.451 78.192 285.435 78.192C284.363 78.192 283.611 77.712 283.115 77.072ZM285.275 77.168C286.619 77.168 287.435 76.048 287.435 74.72C287.435 73.088 286.331 72.224 285.259 72.224C284.187 72.224 283.051 73.104 283.051 74.704C283.051 76.064 283.915 77.168 285.275 77.168ZM295.473 72.304V71.36H296.625V78H295.473V77.072C295.089 77.568 294.369 78.192 293.201 78.192C291.521 78.192 289.969 77.008 289.969 74.672C289.969 72.384 291.505 71.2 293.201 71.2C294.481 71.2 295.169 71.904 295.473 72.304ZM293.329 72.224C292.193 72.224 291.153 73.056 291.153 74.672C291.153 76.096 291.953 77.168 293.329 77.168C294.737 77.168 295.537 76 295.537 74.688C295.537 72.976 294.353 72.224 293.329 72.224ZM298.807 78V71.36H299.959V72.128C300.167 71.856 300.759 71.2 301.863 71.2C302.647 71.2 303.367 71.52 303.767 72.112C304.103 72.608 304.151 73.152 304.151 73.888V78H302.999V73.92C302.999 73.52 302.967 73.056 302.695 72.704C302.471 72.416 302.119 72.224 301.607 72.224C301.207 72.224 300.775 72.336 300.439 72.736C299.991 73.264 299.959 74.048 299.959 74.528V78H298.807ZM306.306 81.68L308.418 77.376L305.362 71.36H306.674L309.026 76.112L311.186 71.36H312.466L307.586 81.68H306.306ZM312.93 77.36C312.93 76.928 313.298 76.56 313.73 76.56C314.162 76.56 314.53 76.928 314.53 77.36C314.53 77.792 314.162 78.16 313.73 78.16C313.298 78.16 312.93 77.792 312.93 77.36ZM327.793 78L326.545 74.992H322.001L320.721 78H319.409L324.321 66.816L329.105 78H327.793ZM322.465 73.872H326.081L324.289 69.6L322.465 73.872ZM330.322 66.336H331.474V78H330.322V66.336ZM333.651 66.336H334.803V78H333.651V66.336ZM340.713 78V71.36H341.865V72.08C341.977 71.904 342.473 71.2 343.369 71.2C343.721 71.2 344.105 71.328 344.393 71.472L343.849 72.512C343.593 72.336 343.353 72.288 343.177 72.288C342.713 72.288 342.425 72.48 342.249 72.704C342.057 72.96 341.865 73.408 341.865 74.496V78H340.713ZM345.447 71.36H346.599V78H345.447V71.36ZM345.207 68.848C345.207 68.4 345.575 68.032 346.023 68.032C346.471 68.032 346.839 68.4 346.839 68.848C346.839 69.296 346.471 69.664 346.023 69.664C345.575 69.664 345.207 69.296 345.207 68.848ZM353.864 72.304V71.36H355.016V77.84C355.016 78.56 355.016 79.584 354.376 80.448C353.88 81.12 352.968 81.68 351.72 81.68C350.584 81.68 349.799 81.232 349.352 80.784C348.904 80.336 348.488 79.616 348.488 78.64H349.624C349.624 79.2 349.848 79.696 350.136 80.016C350.616 80.544 351.224 80.656 351.736 80.656C352.552 80.656 353.112 80.368 353.496 79.728C353.832 79.184 353.864 78.592 353.864 78.032V77.072C353.48 77.568 352.76 78.192 351.592 78.192C350.616 78.192 349.832 77.808 349.32 77.296C348.872 76.848 348.36 76.016 348.36 74.672C348.36 73.376 348.84 72.576 349.32 72.096C349.88 71.552 350.696 71.2 351.592 71.2C352.568 71.2 353.336 71.616 353.864 72.304ZM351.72 72.224C351.016 72.224 350.536 72.528 350.216 72.848C349.656 73.424 349.544 74.128 349.544 74.672C349.544 75.248 349.656 76.032 350.296 76.624C350.664 76.96 351.112 77.168 351.72 77.168C352.328 77.168 352.808 76.976 353.176 76.608C353.624 76.176 353.928 75.472 353.928 74.688C353.928 73.904 353.64 73.216 353.224 72.816C352.856 72.448 352.312 72.224 351.72 72.224ZM357.197 78V66.336H358.349V72.128C358.557 71.856 359.149 71.2 360.253 71.2C361.037 71.2 361.757 71.52 362.157 72.112C362.493 72.608 362.541 73.152 362.541 73.888V78H361.389V73.92C361.389 73.52 361.357 73.056 361.085 72.704C360.861 72.416 360.509 72.224 359.997 72.224C359.597 72.224 359.165 72.336 358.829 72.736C358.381 73.264 358.349 74.048 358.349 74.528V78H357.197ZM367.049 72.416H365.897V78H364.745V72.416H364.041V71.36H364.745V68.96H365.897V71.36H367.049V72.416ZM371.815 72.4L370.871 72.896C370.711 72.512 370.375 72.224 369.943 72.224C369.527 72.224 369.143 72.464 369.143 72.976C369.143 73.456 369.463 73.6 370.215 73.92C371.175 74.32 371.623 74.624 371.879 74.944C372.167 75.296 372.231 75.648 372.231 76.016C372.231 77.408 371.223 78.192 369.943 78.192C369.671 78.192 368.183 78.16 367.623 76.496L368.615 76.08C368.743 76.432 369.127 77.168 369.959 77.168C370.711 77.168 371.047 76.608 371.047 76.112C371.047 75.488 370.599 75.28 369.975 75.008C369.175 74.656 368.663 74.4 368.359 74.032C368.103 73.712 368.055 73.392 368.055 73.056C368.055 71.888 368.871 71.2 369.991 71.2C370.343 71.2 371.287 71.264 371.815 72.4ZM377.494 78V71.36H378.646V72.08C378.758 71.904 379.254 71.2 380.15 71.2C380.502 71.2 380.886 71.328 381.174 71.472L380.63 72.512C380.374 72.336 380.134 72.288 379.958 72.288C379.494 72.288 379.206 72.48 379.03 72.704C378.838 72.96 378.646 73.408 378.646 74.496V78H377.494ZM386.766 75.776L387.726 76.304C387.534 76.672 387.246 77.072 386.91 77.376C386.302 77.92 385.55 78.192 384.702 78.192C383.102 78.192 381.422 77.184 381.422 74.72C381.422 72.736 382.638 71.2 384.638 71.2C385.934 71.2 386.75 71.84 387.15 72.416C387.566 73.008 387.806 74.032 387.774 74.912H382.606C382.622 76.288 383.566 77.168 384.718 77.168C385.262 77.168 385.694 77.008 386.078 76.688C386.382 76.432 386.622 76.096 386.766 75.776ZM382.686 73.952H386.59C386.398 72.912 385.614 72.224 384.638 72.224C383.662 72.224 382.862 72.96 382.686 73.952ZM393.221 72.4L392.277 72.896C392.117 72.512 391.781 72.224 391.349 72.224C390.933 72.224 390.549 72.464 390.549 72.976C390.549 73.456 390.869 73.6 391.621 73.92C392.581 74.32 393.029 74.624 393.285 74.944C393.573 75.296 393.637 75.648 393.637 76.016C393.637 77.408 392.629 78.192 391.349 78.192C391.077 78.192 389.589 78.16 389.029 76.496L390.021 76.08C390.149 76.432 390.533 77.168 391.365 77.168C392.117 77.168 392.453 76.608 392.453 76.112C392.453 75.488 392.005 75.28 391.381 75.008C390.581 74.656 390.069 74.4 389.765 74.032C389.509 73.712 389.461 73.392 389.461 73.056C389.461 71.888 390.277 71.2 391.397 71.2C391.749 71.2 392.693 71.264 393.221 72.4ZM400.094 75.776L401.054 76.304C400.862 76.672 400.574 77.072 400.238 77.376C399.63 77.92 398.878 78.192 398.03 78.192C396.43 78.192 394.75 77.184 394.75 74.72C394.75 72.736 395.966 71.2 397.966 71.2C399.262 71.2 400.078 71.84 400.478 72.416C400.894 73.008 401.134 74.032 401.102 74.912H395.934C395.95 76.288 396.894 77.168 398.046 77.168C398.59 77.168 399.022 77.008 399.406 76.688C399.71 76.432 399.95 76.096 400.094 75.776ZM396.014 73.952H399.918C399.726 72.912 398.942 72.224 397.966 72.224C396.99 72.224 396.19 72.96 396.014 73.952ZM402.869 78V71.36H404.021V72.08C404.133 71.904 404.629 71.2 405.525 71.2C405.877 71.2 406.261 71.328 406.549 71.472L406.005 72.512C405.749 72.336 405.509 72.288 405.333 72.288C404.869 72.288 404.581 72.48 404.405 72.704C404.213 72.96 404.021 73.408 404.021 74.496V78H402.869ZM406.987 71.36H408.267L410.251 75.84L412.235 71.36H413.515L410.251 78.432L406.987 71.36ZM419.657 75.776L420.617 76.304C420.425 76.672 420.137 77.072 419.801 77.376C419.193 77.92 418.441 78.192 417.593 78.192C415.993 78.192 414.313 77.184 414.313 74.72C414.313 72.736 415.529 71.2 417.529 71.2C418.825 71.2 419.641 71.84 420.041 72.416C420.457 73.008 420.697 74.032 420.665 74.912H415.497C415.513 76.288 416.457 77.168 417.609 77.168C418.153 77.168 418.585 77.008 418.969 76.688C419.273 76.432 419.513 76.096 419.657 75.776ZM415.577 73.952H419.481C419.289 72.912 418.505 72.224 417.529 72.224C416.553 72.224 415.753 72.96 415.577 73.952ZM427.52 72.304V66.336H428.672V78H427.52V77.072C427.136 77.568 426.416 78.192 425.248 78.192C423.568 78.192 422.016 77.008 422.016 74.672C422.016 72.384 423.552 71.2 425.248 71.2C426.528 71.2 427.216 71.904 427.52 72.304ZM425.376 72.224C424.24 72.224 423.2 73.056 423.2 74.672C423.2 76.096 424 77.168 425.376 77.168C426.784 77.168 427.584 76 427.584 74.688C427.584 72.976 426.4 72.224 425.376 72.224ZM430.79 77.36C430.79 76.928 431.158 76.56 431.59 76.56C432.022 76.56 432.39 76.928 432.39 77.36C432.39 77.792 432.022 78.16 431.59 78.16C431.158 78.16 430.79 77.792 430.79 77.36ZM444.053 67.328V68.448H439.701V71.616H443.925V72.736H439.701V76.88H444.053V78H438.517V67.328H444.053ZM451.035 72.304V71.36H452.187V81.68H451.035V77.072C450.651 77.568 449.931 78.192 448.763 78.192C447.083 78.192 445.531 77.008 445.531 74.672C445.531 72.384 447.067 71.2 448.763 71.2C450.043 71.2 450.731 71.904 451.035 72.304ZM448.891 72.224C447.755 72.224 446.715 73.056 446.715 74.672C446.715 76.096 447.515 77.168 448.891 77.168C450.299 77.168 451.099 76 451.099 74.688C451.099 72.976 449.915 72.224 448.891 72.224ZM455.521 71.36V75.232C455.521 75.696 455.521 76.24 455.841 76.656C456.017 76.88 456.369 77.168 457.009 77.168C457.649 77.168 458.001 76.88 458.177 76.656C458.497 76.24 458.497 75.696 458.497 75.232V71.36H459.649V75.36C459.649 76.176 459.569 76.784 459.041 77.36C458.449 77.984 457.665 78.192 457.009 78.192C456.353 78.192 455.569 77.984 454.977 77.36C454.449 76.784 454.369 76.176 454.369 75.36V71.36H455.521ZM461.822 71.36H462.974V78H461.822V71.36ZM461.582 68.848C461.582 68.4 461.95 68.032 462.398 68.032C462.846 68.032 463.214 68.4 463.214 68.848C463.214 69.296 462.846 69.664 462.398 69.664C461.95 69.664 461.582 69.296 461.582 68.848ZM466.303 77.072V81.68H465.151V71.36H466.303V72.288C467.087 71.312 468.095 71.2 468.575 71.2C470.655 71.2 471.807 72.928 471.807 74.72C471.807 76.544 470.639 78.192 468.623 78.192C467.551 78.192 466.799 77.712 466.303 77.072ZM468.463 77.168C469.807 77.168 470.623 76.048 470.623 74.72C470.623 73.088 469.519 72.224 468.447 72.224C467.375 72.224 466.239 73.104 466.239 74.704C466.239 76.064 467.103 77.168 468.463 77.168ZM473.572 78V71.36H474.724V72.064C475.092 71.52 475.668 71.2 476.372 71.2C477.572 71.2 478.052 72.048 478.18 72.272C478.82 71.264 479.732 71.2 480.18 71.2C482.148 71.2 482.34 72.848 482.34 73.792V78H481.188V73.968C481.188 73.216 481.092 72.224 480.004 72.224C478.676 72.224 478.532 73.504 478.532 74.304V78H477.38V74.064C477.38 73.6 477.396 72.224 476.18 72.224C474.868 72.224 474.724 73.584 474.724 74.384V78H473.572ZM489.454 75.776L490.414 76.304C490.222 76.672 489.934 77.072 489.598 77.376C488.99 77.92 488.238 78.192 487.39 78.192C485.789 78.192 484.11 77.184 484.11 74.72C484.11 72.736 485.326 71.2 487.326 71.2C488.622 71.2 489.438 71.84 489.838 72.416C490.254 73.008 490.494 74.032 490.462 74.912H485.294C485.31 76.288 486.254 77.168 487.406 77.168C487.95 77.168 488.382 77.008 488.766 76.688C489.07 76.432 489.31 76.096 489.454 75.776ZM485.374 73.952H489.278C489.086 72.912 488.302 72.224 487.326 72.224C486.35 72.224 485.549 72.96 485.374 73.952ZM492.229 78V71.36H493.381V72.128C493.589 71.856 494.181 71.2 495.285 71.2C496.069 71.2 496.789 71.52 497.189 72.112C497.525 72.608 497.573 73.152 497.573 73.888V78H496.421V73.92C496.421 73.52 496.389 73.056 496.117 72.704C495.893 72.416 495.541 72.224 495.029 72.224C494.629 72.224 494.197 72.336 493.861 72.736C493.413 73.264 493.381 74.048 493.381 74.528V78H492.229ZM502.08 72.416H500.928V78H499.776V72.416H499.072V71.36H499.776V68.96H500.928V71.36H502.08V72.416ZM512.101 71.84V73.216C511.493 72.448 510.613 72.224 510.021 72.224C508.789 72.224 507.669 73.088 507.669 74.704C507.669 76.32 508.821 77.168 510.005 77.168C510.693 77.168 511.541 76.864 512.149 76.128V77.504C511.429 78.032 510.661 78.192 510.036 78.192C507.973 78.192 506.485 76.72 506.485 74.72C506.485 72.688 507.989 71.2 510.036 71.2C511.093 71.2 511.781 71.616 512.101 71.84ZM517.02 78.192C515.004 78.192 513.5 76.72 513.5 74.704C513.5 72.688 514.988 71.2 517.02 71.2C519.052 71.2 520.54 72.688 520.54 74.704C520.54 76.72 519.036 78.192 517.02 78.192ZM517.02 72.224C515.804 72.224 514.684 73.088 514.684 74.704C514.684 76.336 515.836 77.168 517.02 77.168C518.22 77.168 519.356 76.32 519.356 74.704C519.356 73.072 518.236 72.224 517.02 72.224ZM523.459 71.36V75.232C523.459 75.696 523.459 76.24 523.779 76.656C523.955 76.88 524.307 77.168 524.947 77.168C525.587 77.168 525.939 76.88 526.115 76.656C526.435 76.24 526.435 75.696 526.435 75.232V71.36H527.587V75.36C527.587 76.176 527.507 76.784 526.979 77.36C526.387 77.984 525.603 78.192 524.947 78.192C524.291 78.192 523.507 77.984 522.915 77.36C522.387 76.784 522.307 76.176 522.307 75.36V71.36H523.459ZM529.76 78V71.36H530.912V72.128C531.12 71.856 531.712 71.2 532.816 71.2C533.6 71.2 534.32 71.52 534.72 72.112C535.056 72.608 535.104 73.152 535.104 73.888V78H533.952V73.92C533.952 73.52 533.92 73.056 533.648 72.704C533.424 72.416 533.072 72.224 532.56 72.224C532.16 72.224 531.728 72.336 531.392 72.736C530.944 73.264 530.912 74.048 530.912 74.528V78H529.76ZM539.612 72.416H538.46V78H537.308V72.416H536.604V71.36H537.308V68.96H538.46V71.36H539.612V72.416ZM544.377 72.4L543.433 72.896C543.273 72.512 542.937 72.224 542.505 72.224C542.089 72.224 541.705 72.464 541.705 72.976C541.705 73.456 542.025 73.6 542.777 73.92C543.737 74.32 544.185 74.624 544.441 74.944C544.729 75.296 544.793 75.648 544.793 76.016C544.793 77.408 543.785 78.192 542.505 78.192C542.233 78.192 540.745 78.16 540.185 76.496L541.177 76.08C541.305 76.432 541.689 77.168 542.521 77.168C543.273 77.168 543.609 76.608 543.609 76.112C543.609 75.488 543.161 75.28 542.537 75.008C541.737 74.656 541.225 74.4 540.921 74.032C540.665 73.712 540.617 73.392 540.617 73.056C540.617 71.888 541.433 71.2 542.553 71.2C542.905 71.2 543.849 71.264 544.377 72.4ZM555.257 71.84V73.216C554.649 72.448 553.769 72.224 553.177 72.224C551.945 72.224 550.825 73.088 550.825 74.704C550.825 76.32 551.977 77.168 553.161 77.168C553.849 77.168 554.697 76.864 555.305 76.128V77.504C554.585 78.032 553.817 78.192 553.193 78.192C551.129 78.192 549.641 76.72 549.641 74.72C549.641 72.688 551.145 71.2 553.193 71.2C554.249 71.2 554.937 71.616 555.257 71.84ZM560.176 78.192C558.16 78.192 556.656 76.72 556.656 74.704C556.656 72.688 558.144 71.2 560.176 71.2C562.208 71.2 563.696 72.688 563.696 74.704C563.696 76.72 562.192 78.192 560.176 78.192ZM560.176 72.224C558.96 72.224 557.84 73.088 557.84 74.704C557.84 76.336 558.992 77.168 560.176 77.168C561.376 77.168 562.512 76.32 562.512 74.704C562.512 73.072 561.392 72.224 560.176 72.224ZM566.615 71.36V75.232C566.615 75.696 566.615 76.24 566.935 76.656C567.111 76.88 567.463 77.168 568.103 77.168C568.743 77.168 569.095 76.88 569.271 76.656C569.591 76.24 569.591 75.696 569.591 75.232V71.36H570.743V75.36C570.743 76.176 570.663 76.784 570.135 77.36C569.543 77.984 568.759 78.192 568.103 78.192C567.447 78.192 566.663 77.984 566.071 77.36C565.543 76.784 565.463 76.176 565.463 75.36V71.36H566.615ZM572.916 78V71.36H574.068V72.08C574.18 71.904 574.676 71.2 575.572 71.2C575.924 71.2 576.308 71.328 576.596 71.472L576.052 72.512C575.796 72.336 575.556 72.288 575.38 72.288C574.916 72.288 574.628 72.48 574.452 72.704C574.26 72.96 574.068 73.408 574.068 74.496V78H572.916ZM580.299 72.416H579.147V78H577.995V72.416H577.291V71.36H577.995V68.96H579.147V71.36H580.299V72.416ZM586.313 75.776L587.273 76.304C587.081 76.672 586.793 77.072 586.457 77.376C585.849 77.92 585.097 78.192 584.249 78.192C582.649 78.192 580.969 77.184 580.969 74.72C580.969 72.736 582.185 71.2 584.185 71.2C585.481 71.2 586.297 71.84 586.697 72.416C587.113 73.008 587.353 74.032 587.321 74.912H582.153C582.169 76.288 583.113 77.168 584.265 77.168C584.809 77.168 585.241 77.008 585.625 76.688C585.929 76.432 586.169 76.096 586.313 75.776ZM582.233 73.952H586.137C585.945 72.912 585.161 72.224 584.185 72.224C583.209 72.224 582.409 72.96 582.233 73.952ZM592.768 72.4L591.824 72.896C591.664 72.512 591.328 72.224 590.896 72.224C590.48 72.224 590.096 72.464 590.096 72.976C590.096 73.456 590.416 73.6 591.168 73.92C592.128 74.32 592.576 74.624 592.832 74.944C593.12 75.296 593.184 75.648 593.184 76.016C593.184 77.408 592.176 78.192 590.896 78.192C590.624 78.192 589.136 78.16 588.576 76.496L589.568 76.08C589.696 76.432 590.08 77.168 590.912 77.168C591.664 77.168 592 76.608 592 76.112C592 75.488 591.552 75.28 590.928 75.008C590.128 74.656 589.616 74.4 589.312 74.032C589.056 73.712 589.008 73.392 589.008 73.056C589.008 71.888 589.824 71.2 590.944 71.2C591.296 71.2 592.24 71.264 592.768 72.4ZM594.697 81.68L596.809 77.376L593.753 71.36H595.065L597.417 76.112L599.577 71.36H600.857L595.977 81.68H594.697ZM608.911 78.192C606.895 78.192 605.391 76.72 605.391 74.704C605.391 72.688 606.879 71.2 608.911 71.2C610.943 71.2 612.431 72.688 612.431 74.704C612.431 76.72 610.927 78.192 608.911 78.192ZM608.911 72.224C607.695 72.224 606.575 73.088 606.575 74.704C606.575 76.336 607.727 77.168 608.911 77.168C610.111 77.168 611.247 76.32 611.247 74.704C611.247 73.072 610.127 72.224 608.911 72.224ZM617.013 72.416H615.381V78H614.229V72.416H613.589V71.36H614.229V68.464C614.229 67.856 614.277 67.088 614.869 66.592C615.189 66.32 615.669 66.16 616.197 66.16C616.613 66.16 616.885 66.256 617.013 66.304V67.424C616.773 67.328 616.501 67.28 616.261 67.28C616.005 67.28 615.701 67.344 615.525 67.632C615.381 67.872 615.381 68.24 615.381 68.592V71.36H617.013V72.416ZM622.064 78V67.328H624.24C625.312 67.328 626.832 67.44 628.176 68.576C629.152 69.392 630 70.752 630 72.672C630 74.912 628.896 76.112 628.128 76.768C627.152 77.6 626.128 78 624.224 78H622.064ZM623.248 68.448V76.88H624.288C625.136 76.88 626.304 76.784 627.344 75.92C628.144 75.248 628.784 74.192 628.784 72.672C628.784 70.112 626.992 68.448 624.288 68.448H623.248ZM636.973 72.304V71.36H638.125V78H636.973V77.072C636.589 77.568 635.869 78.192 634.701 78.192C633.021 78.192 631.469 77.008 631.469 74.672C631.469 72.384 633.005 71.2 634.701 71.2C635.981 71.2 636.669 71.904 636.973 72.304ZM634.829 72.224C633.693 72.224 632.653 73.056 632.653 74.672C632.653 76.096 633.453 77.168 634.829 77.168C636.237 77.168 637.037 76 637.037 74.688C637.037 72.976 635.853 72.224 634.829 72.224ZM640.307 78V71.36H641.459V72.08C641.571 71.904 642.067 71.2 642.963 71.2C643.315 71.2 643.699 71.328 643.987 71.472L643.443 72.512C643.187 72.336 642.947 72.288 642.771 72.288C642.307 72.288 642.019 72.48 641.843 72.704C641.651 72.96 641.459 73.408 641.459 74.496V78H640.307ZM645.041 78V71.36H646.193V72.08C646.305 71.904 646.801 71.2 647.697 71.2C648.049 71.2 648.433 71.328 648.721 71.472L648.177 72.512C647.921 72.336 647.681 72.288 647.505 72.288C647.041 72.288 646.753 72.48 646.577 72.704C646.385 72.96 646.193 73.408 646.193 74.496V78H645.041ZM654.313 75.776L655.273 76.304C655.081 76.672 654.793 77.072 654.457 77.376C653.849 77.92 653.097 78.192 652.249 78.192C650.649 78.192 648.969 77.184 648.969 74.72C648.969 72.736 650.185 71.2 652.185 71.2C653.481 71.2 654.297 71.84 654.697 72.416C655.113 73.008 655.353 74.032 655.321 74.912H650.153C650.169 76.288 651.113 77.168 652.265 77.168C652.809 77.168 653.241 77.008 653.625 76.688C653.929 76.432 654.169 76.096 654.313 75.776ZM650.233 73.952H654.137C653.945 72.912 653.161 72.224 652.185 72.224C651.209 72.224 650.409 72.96 650.233 73.952ZM657.088 66.336H658.24V78H657.088V66.336ZM660.416 66.336H661.568V78H660.416V66.336ZM673.479 68.816L672.535 69.44C672.391 69.152 672.151 68.832 671.911 68.64C671.703 68.48 671.319 68.272 670.711 68.272C669.655 68.272 668.919 68.928 668.919 69.92C668.919 70.336 669.031 70.576 669.319 70.848C669.639 71.168 670.039 71.344 670.439 71.52L671.463 71.968C672.087 72.24 672.663 72.528 673.111 72.976C673.655 73.52 673.879 74.144 673.879 74.912C673.879 76.88 672.423 78.192 670.503 78.192C669.799 78.192 668.919 78.048 668.183 77.328C667.655 76.816 667.335 76.08 667.191 75.44L668.343 75.12C668.423 75.68 668.679 76.16 668.983 76.48C669.447 76.944 669.975 77.072 670.519 77.072C671.975 77.072 672.663 76.032 672.663 74.96C672.663 74.48 672.519 74.064 672.135 73.712C671.831 73.424 671.415 73.232 670.855 72.976L669.895 72.528C669.479 72.336 668.951 72.112 668.471 71.648C668.007 71.2 667.735 70.704 667.735 69.904C667.735 68.256 668.999 67.152 670.727 67.152C671.383 67.152 671.911 67.28 672.439 67.632C672.871 67.92 673.239 68.352 673.479 68.816ZM676.912 71.36V75.232C676.912 75.696 676.912 76.24 677.232 76.656C677.408 76.88 677.76 77.168 678.4 77.168C679.04 77.168 679.392 76.88 679.568 76.656C679.888 76.24 679.888 75.696 679.888 75.232V71.36H681.04V75.36C681.04 76.176 680.96 76.784 680.432 77.36C679.84 77.984 679.056 78.192 678.4 78.192C677.744 78.192 676.96 77.984 676.368 77.36C675.84 76.784 675.76 76.176 675.76 75.36V71.36H676.912ZM683.213 78V71.36H684.365V72.08C684.477 71.904 684.973 71.2 685.869 71.2C686.221 71.2 686.605 71.328 686.893 71.472L686.349 72.512C686.093 72.336 685.853 72.288 685.677 72.288C685.213 72.288 684.925 72.48 684.749 72.704C684.557 72.96 684.365 73.408 684.365 74.496V78H683.213ZM687.331 71.36H688.611L690.595 75.84L692.579 71.36H693.859L690.595 78.432L687.331 71.36ZM700 75.776L700.96 76.304C700.768 76.672 700.48 77.072 700.144 77.376C699.536 77.92 698.784 78.192 697.936 78.192C696.336 78.192 694.656 77.184 694.656 74.72C694.656 72.736 695.872 71.2 697.872 71.2C699.168 71.2 699.984 71.84 700.384 72.416C700.8 73.008 701.04 74.032 701.008 74.912H695.84C695.856 76.288 696.8 77.168 697.952 77.168C698.496 77.168 698.928 77.008 699.312 76.688C699.616 76.432 699.856 76.096 700 75.776ZM695.92 73.952H699.824C699.632 72.912 698.848 72.224 697.872 72.224C696.896 72.224 696.096 72.96 695.92 73.952Z" fill="white"/>
<path d="M1532.6 54.312V56.52C1532.09 56.016 1531.32 55.416 1530.51 55.032C1529.67 54.648 1528.68 54.408 1527.75 54.408C1524.05 54.408 1521.32 57.384 1521.32 61.08C1521.32 65.424 1524.84 67.608 1527.77 67.608C1528.85 67.608 1529.91 67.296 1530.75 66.864C1531.66 66.408 1532.31 65.808 1532.6 65.52V67.728C1530.82 69 1528.97 69.288 1527.77 69.288C1523.02 69.288 1519.49 65.688 1519.49 61.056C1519.49 56.28 1523.07 52.728 1527.87 52.728C1528.83 52.728 1530.68 52.848 1532.6 54.312ZM1540.1 69.288C1537.07 69.288 1534.82 67.08 1534.82 64.056C1534.82 61.032 1537.05 58.8 1540.1 58.8C1543.14 58.8 1545.38 61.032 1545.38 64.056C1545.38 67.08 1543.12 69.288 1540.1 69.288ZM1540.1 60.336C1538.27 60.336 1536.59 61.632 1536.59 64.056C1536.59 66.504 1538.32 67.752 1540.1 67.752C1541.9 67.752 1543.6 66.48 1543.6 64.056C1543.6 61.608 1541.92 60.336 1540.1 60.336ZM1548.03 69V59.04H1549.75V60.192C1550.07 59.784 1550.95 58.8 1552.61 58.8C1553.79 58.8 1554.87 59.28 1555.47 60.168C1555.97 60.912 1556.04 61.728 1556.04 62.832V69H1554.31V62.88C1554.31 62.28 1554.27 61.584 1553.86 61.056C1553.52 60.624 1552.99 60.336 1552.23 60.336C1551.63 60.336 1550.98 60.504 1550.47 61.104C1549.8 61.896 1549.75 63.072 1549.75 63.792V69H1548.03ZM1559.3 69V59.04H1561.03V60.192C1561.34 59.784 1562.23 58.8 1563.88 58.8C1565.06 58.8 1566.14 59.28 1566.74 60.168C1567.24 60.912 1567.32 61.728 1567.32 62.832V69H1565.59V62.88C1565.59 62.28 1565.54 61.584 1565.13 61.056C1564.8 60.624 1564.27 60.336 1563.5 60.336C1562.9 60.336 1562.25 60.504 1561.75 61.104C1561.08 61.896 1561.03 63.072 1561.03 63.792V69H1559.3ZM1577.97 65.664L1579.41 66.456C1579.12 67.008 1578.69 67.608 1578.18 68.064C1577.27 68.88 1576.14 69.288 1574.87 69.288C1572.47 69.288 1569.95 67.776 1569.95 64.08C1569.95 61.104 1571.77 58.8 1574.77 58.8C1576.72 58.8 1577.94 59.76 1578.54 60.624C1579.17 61.512 1579.53 63.048 1579.48 64.368H1571.73C1571.75 66.432 1573.17 67.752 1574.89 67.752C1575.71 67.752 1576.36 67.512 1576.93 67.032C1577.39 66.648 1577.75 66.144 1577.97 65.664ZM1571.85 62.928H1577.7C1577.41 61.368 1576.24 60.336 1574.77 60.336C1573.31 60.336 1572.11 61.44 1571.85 62.928ZM1589.93 59.76V61.824C1589.02 60.672 1587.7 60.336 1586.81 60.336C1584.96 60.336 1583.28 61.632 1583.28 64.056C1583.28 66.48 1585.01 67.752 1586.78 67.752C1587.82 67.752 1589.09 67.296 1590 66.192V68.256C1588.92 69.048 1587.77 69.288 1586.83 69.288C1583.74 69.288 1581.5 67.08 1581.5 64.08C1581.5 61.032 1583.76 58.8 1586.83 58.8C1588.42 58.8 1589.45 59.424 1589.93 59.76ZM1596.16 60.624H1594.43V69H1592.7V60.624H1591.64V59.04H1592.7V55.44H1594.43V59.04H1596.16V60.624ZM1605.59 52.992V62.808C1605.59 64.152 1605.59 65.616 1606.87 66.696C1607.51 67.248 1608.62 67.608 1609.51 67.608C1610.39 67.608 1611.5 67.248 1612.15 66.696C1613.42 65.616 1613.42 64.152 1613.42 62.808V52.992H1615.19V63.288C1615.19 64.632 1615.05 65.928 1614.19 67.128C1613.23 68.448 1611.55 69.288 1609.51 69.288C1607.47 69.288 1605.79 68.448 1604.83 67.128C1603.96 65.928 1603.82 64.632 1603.82 63.288V52.992H1605.59ZM1624.42 60.6L1623.01 61.344C1622.77 60.768 1622.26 60.336 1621.61 60.336C1620.99 60.336 1620.41 60.696 1620.41 61.464C1620.41 62.184 1620.89 62.4 1622.02 62.88C1623.46 63.48 1624.13 63.936 1624.52 64.416C1624.95 64.944 1625.05 65.472 1625.05 66.024C1625.05 68.112 1623.53 69.288 1621.61 69.288C1621.21 69.288 1618.97 69.24 1618.13 66.744L1619.62 66.12C1619.81 66.648 1620.39 67.752 1621.64 67.752C1622.77 67.752 1623.27 66.912 1623.27 66.168C1623.27 65.232 1622.6 64.92 1621.66 64.512C1620.46 63.984 1619.69 63.6 1619.24 63.048C1618.85 62.568 1618.78 62.088 1618.78 61.584C1618.78 59.832 1620.01 58.8 1621.69 58.8C1622.21 58.8 1623.63 58.896 1624.42 60.6Z" fill="white"/>
<line x1="1518" y1="83.75" x2="1780" y2="83.75" stroke="white" stroke-width="0.5"/>
</svg>
