<svg width="982" height="143" viewBox="0 0 982 143" fill="none" xmlns="http://www.w3.org/2000/svg">
<mask id="path-1-outside-1_427_1137" maskUnits="userSpaceOnUse" x="-1" y="-1" width="984" height="145" fill="black">
<rect fill="white" x="-1" y="-1" width="984" height="145"/>
<path d="M23.4 108H0.3L16.35 7.94999H35.55L60.45 67.8L85.35 7.94999H104.55L120.6 108H97.5L89.55 48.3L64.5 108H56.4L31.35 48.3L23.4 108ZM183.561 48.6V41.1H205.161V108H183.561V99.9C177.711 108.9 169.311 110.25 163.761 110.25C154.161 110.25 146.061 107.85 138.711 100.05C131.661 92.55 128.961 83.85 128.961 75C128.961 63.75 133.161 54.15 139.311 48C145.161 42.15 153.261 38.85 162.561 38.85C168.261 38.85 177.411 40.2 183.561 48.6ZM167.961 57.45C163.311 57.45 158.961 59.4 156.111 62.25C153.861 64.5 151.161 68.4 151.161 74.4C151.161 80.4 153.711 84.3 155.661 86.4C158.661 89.55 163.311 91.65 168.411 91.65C172.761 91.65 176.811 89.85 179.661 87C182.511 84.3 184.911 80.1 184.911 74.4C184.911 69.6 183.111 65.1 179.961 62.1C176.661 58.95 171.861 57.45 167.961 57.45ZM210.81 108L243.51 71.55L216.96 41.1H244.56L257.01 56.55L269.46 41.1H297.06L270.51 71.55L303.21 108H275.31L257.01 86.4L238.71 108L210.81 108ZM310.427 41.1H332.027V108H310.427V41.1ZM308.627 12.6C308.627 5.55 314.177 -4.29153e-06 321.227 -4.29153e-06C328.277 -4.29153e-06 333.827 5.55 333.827 12.6C333.827 19.65 328.277 25.2 321.227 25.2C314.177 25.2 308.627 19.65 308.627 12.6ZM347.382 108V41.1H368.982V48.9C374.532 40.5 382.632 39.45 387.732 39.45C390.582 39.45 395.832 39.75 400.332 42.45C403.782 44.4 406.632 47.7 408.432 51.75C410.082 49.05 412.632 45.9 416.982 43.2C421.632 40.35 425.982 39.45 431.232 39.45C439.332 39.45 445.932 41.85 449.982 45.75C456.432 51.9 456.882 60.9 456.882 65.7V108H435.282V74.1C435.282 70.65 435.282 64.65 432.432 61.05C430.632 58.8 427.782 57.45 424.632 57.45C421.032 57.45 418.032 59.1 416.232 61.5C413.382 65.1 412.932 70.35 412.932 74.7V108H391.332V73.2C391.332 68.7 391.182 63.45 387.882 60.15C385.632 57.9 382.932 57.45 380.682 57.45C377.832 57.45 375.282 58.2 373.182 60.15C369.132 64.05 368.982 71.55 368.982 73.8V108H347.382ZM470.798 41.1H492.398V78C492.398 81 492.698 85.65 496.148 88.8C497.648 90.15 500.348 91.95 505.148 91.95C509.198 91.95 512.348 90.6 514.298 88.8C517.448 85.8 517.898 81.3 517.898 78V41.1H539.498V80.1C539.498 87.75 538.748 94.95 531.998 101.55C524.348 109.05 513.098 110.25 505.148 110.25C496.898 110.25 485.798 109.05 478.148 101.55C471.998 95.55 470.798 88.8 470.798 81.45V41.1ZM553.345 108V41.1L574.945 41.1V48.9C580.495 40.5 588.595 39.45 593.695 39.45C596.545 39.45 601.795 39.75 606.295 42.45C609.745 44.4 612.595 47.7 614.395 51.75C616.045 49.05 618.595 45.9 622.945 43.2C627.595 40.35 631.945 39.45 637.195 39.45C645.295 39.45 651.895 41.85 655.945 45.75C662.395 51.9 662.845 60.9 662.845 65.7V108H641.245V74.1C641.245 70.65 641.245 64.65 638.395 61.05C636.595 58.8 633.745 57.45 630.595 57.45C626.995 57.45 623.995 59.1 622.195 61.5C619.345 65.1 618.895 70.35 618.895 74.7V108H597.295V73.2C597.295 68.7 597.145 63.45 593.845 60.15C591.595 57.9 588.895 57.45 586.645 57.45C583.795 57.45 581.245 58.2 579.145 60.15C575.095 64.05 574.945 71.55 574.945 73.8V108H553.345ZM773.271 15.6L762.921 32.4C755.421 25.65 748.971 25.2 746.121 25.2C742.971 25.2 739.071 25.65 736.371 28.65C734.871 30.15 733.821 32.4 733.821 34.95C733.821 37.35 734.571 39.15 736.071 40.5C738.471 42.75 741.921 43.65 748.671 46.2L756.171 49.05C760.521 50.7 765.921 52.95 769.821 56.7C775.671 62.25 777.171 69.45 777.171 75.3C777.171 85.65 773.571 94.65 768.321 100.05C759.471 109.35 746.571 110.25 739.971 110.25C732.771 110.25 726.471 109.2 720.171 106.05C715.071 103.5 709.221 98.85 705.471 95.1L717.471 78.6C720.021 81.15 724.071 84.6 726.771 86.25C730.671 88.65 734.721 89.85 739.371 89.85C742.371 89.85 746.571 89.25 749.871 86.4C751.821 84.75 753.471 82.05 753.471 78.3C753.471 75 752.121 72.9 750.021 71.1C747.321 68.85 741.171 66.6 738.321 65.55L730.071 62.7C725.421 61.05 720.021 58.95 716.121 54.75C710.871 49.2 710.121 42.15 710.121 37.35C710.121 28.5 712.821 21 718.821 14.85C725.871 7.65 734.271 5.69999 743.571 5.69999C750.471 5.69999 761.571 6.9 773.271 15.6ZM809.842 100.35V142.35H788.242V41.1L809.842 41.1V49.05C816.892 39.9 825.592 38.85 830.692 38.85C842.692 38.85 850.192 44.1 854.392 48.3C860.392 54.3 864.442 63.45 864.442 74.4C864.442 85.95 860.392 94.65 853.792 101.25C847.192 107.85 839.992 110.25 831.142 110.25C817.792 110.25 812.092 103.5 809.842 100.35ZM825.442 57.45C819.442 57.45 815.542 60.3 813.442 62.4C809.992 65.85 808.342 70.65 808.342 74.7C808.342 78.9 809.992 83.25 813.142 86.55C816.292 89.7 820.792 91.65 825.442 91.65C829.492 91.65 833.842 90 836.992 87C840.442 83.7 842.242 78.6 842.242 74.25C842.242 69.3 840.142 64.95 837.142 62.1C833.992 59.1 829.792 57.45 825.442 57.45ZM876.39 41.1H897.99V108H876.39V41.1ZM874.59 12.6C874.59 5.55 880.14 -4.29153e-06 887.19 -4.29153e-06C894.24 -4.29153e-06 899.79 5.55 899.79 12.6C899.79 19.65 894.24 25.2 887.19 25.2C880.14 25.2 874.59 19.65 874.59 12.6ZM913.345 108V41.1H934.945V49.05C941.545 40.65 949.345 39.3 955.645 39.3C961.495 39.3 969.145 40.35 974.845 46.05C981.145 52.35 981.595 60.3 981.595 65.7V108H959.995V73.65C959.995 69.3 959.845 63.75 956.395 60.3C954.745 58.65 952.045 57.3 948.145 57.3C943.645 57.3 940.795 59.1 939.145 60.9C935.545 64.5 934.945 69.3 934.945 73.65V108H913.345Z"/>
</mask>
<path d="M23.4 108V109H24.2757L24.3913 108.132L23.4 108ZM0.300001 108L-0.687376 107.842L-0.873205 109H0.300001V108ZM16.35 7.94999V6.94999H15.4976L15.3626 7.7916L16.35 7.94999ZM35.55 7.94999L36.4733 7.56587L36.2171 6.94999H35.55V7.94999ZM60.45 67.8L59.5267 68.1841L60.45 70.4033L61.3733 68.1841L60.45 67.8ZM85.35 7.94999V6.94999H84.683L84.4267 7.56587L85.35 7.94999ZM104.55 7.94999L105.537 7.7916L105.402 6.94999H104.55V7.94999ZM120.6 108V109H121.773L121.587 107.842L120.6 108ZM97.5 108L96.5088 108.132L96.6243 109H97.5V108ZM89.55 48.3L90.5413 48.168L90.0545 44.513L88.6279 47.9131L89.55 48.3ZM64.5 108V109H65.1649L65.4221 108.387L64.5 108ZM56.4 108L55.4779 108.387L55.7351 109H56.4V108ZM31.35 48.3L32.2721 47.9131L30.8455 44.513L30.3588 48.168L31.35 48.3ZM23.4 107H0.300001V109H23.4V107ZM1.28738 108.158L17.3374 8.10839L15.3626 7.7916L-0.687376 107.842L1.28738 108.158ZM16.35 8.94999H35.55V6.94999H16.35V8.94999ZM34.6267 8.33411L59.5267 68.1841L61.3733 67.4159L36.4733 7.56587L34.6267 8.33411ZM61.3733 68.1841L86.2733 8.33411L84.4267 7.56587L59.5267 67.4159L61.3733 68.1841ZM85.35 8.94999H104.55V6.94999H85.35V8.94999ZM103.563 8.10839L119.613 108.158L121.587 107.842L105.537 7.7916L103.563 8.10839ZM120.6 107H97.5V109H120.6V107ZM98.4913 107.868L90.5413 48.168L88.5588 48.432L96.5088 108.132L98.4913 107.868ZM88.6279 47.9131L63.5779 107.613L65.4221 108.387L90.4721 48.6869L88.6279 47.9131ZM64.5 107H56.4V109H64.5V107ZM57.3221 107.613L32.2721 47.9131L30.4279 48.6869L55.4779 108.387L57.3221 107.613ZM30.3588 48.168L22.4088 107.868L24.3913 108.132L32.3413 48.432L30.3588 48.168ZM183.561 48.6L182.754 49.1907L184.561 51.6586V48.6H183.561ZM183.561 41.1V40.1H182.561V41.1H183.561ZM205.161 41.1H206.161V40.1H205.161V41.1ZM205.161 108V109H206.161V108H205.161ZM183.561 108H182.561V109H183.561V108ZM183.561 99.9H184.561V96.5266L182.723 99.355L183.561 99.9ZM138.711 100.05L137.983 100.735L137.984 100.736L138.711 100.05ZM139.311 48L140.018 48.7071L139.311 48ZM156.111 62.25L156.818 62.9571L156.111 62.25ZM155.661 86.4L154.928 87.0805L154.937 87.0897L155.661 86.4ZM179.661 87L178.974 86.274L178.964 86.2833L178.954 86.2929L179.661 87ZM179.961 62.1L179.271 62.8233L179.272 62.8241L179.961 62.1ZM184.561 48.6V41.1H182.561V48.6H184.561ZM183.561 42.1H205.161V40.1H183.561V42.1ZM204.161 41.1V108H206.161V41.1H204.161ZM205.161 107H183.561V109H205.161V107ZM184.561 108V99.9H182.561V108H184.561ZM182.723 99.355C177.135 107.952 169.145 109.25 163.761 109.25V111.25C169.477 111.25 178.288 109.848 184.4 100.445L182.723 99.355ZM163.761 109.25C154.369 109.25 146.558 106.919 139.439 99.3642L137.984 100.736C145.564 108.781 153.953 111.25 163.761 111.25V109.25ZM139.44 99.3651C132.587 92.0747 129.961 83.6307 129.961 75H127.961C127.961 84.0693 130.736 93.0253 137.983 100.735L139.44 99.3651ZM129.961 75C129.961 63.9942 134.07 54.6552 140.018 48.7071L138.604 47.2929C132.252 53.6448 127.961 63.5058 127.961 75H129.961ZM140.018 48.7071C145.666 43.0593 153.505 39.85 162.561 39.85V37.85C153.018 37.85 144.656 41.2407 138.604 47.2929L140.018 48.7071ZM162.561 39.85C168.137 39.85 176.884 41.1722 182.754 49.1907L184.368 48.0093C177.939 39.2278 168.386 37.85 162.561 37.85V39.85ZM167.961 56.45C163.043 56.45 158.44 58.5075 155.404 61.5429L156.818 62.9571C159.483 60.2925 163.58 58.45 167.961 58.45V56.45ZM155.404 61.5429C153.023 63.924 150.161 68.0644 150.161 74.4H152.161C152.161 68.7356 154.7 65.076 156.818 62.9571L155.404 61.5429ZM150.161 74.4C150.161 80.7108 152.851 84.8433 154.929 87.0805L156.394 85.7196C154.572 83.7567 152.161 80.0892 152.161 74.4H150.161ZM154.937 87.0897C158.131 90.4433 163.045 92.65 168.411 92.65V90.65C163.577 90.65 159.192 88.6567 156.385 85.7103L154.937 87.0897ZM168.411 92.65C173.036 92.65 177.337 90.7382 180.368 87.7071L178.954 86.2929C176.285 88.9618 172.487 90.65 168.411 90.65V92.65ZM180.349 87.726C183.376 84.8587 185.911 80.4044 185.911 74.4H183.911C183.911 79.7955 181.647 83.7413 178.974 86.274L180.349 87.726ZM185.911 74.4C185.911 69.3603 184.023 64.5868 180.651 61.3759L179.272 62.8241C182.2 65.6131 183.911 69.8397 183.911 74.4H185.911ZM180.652 61.3766C177.136 58.0203 172.074 56.45 167.961 56.45V58.45C171.649 58.45 176.187 59.8797 179.271 62.8233L180.652 61.3766ZM210.81 108L210.065 107.332L208.569 109H210.81V108ZM243.51 71.55L244.254 72.2178L244.845 71.5594L244.263 70.8928L243.51 71.55ZM216.96 41.1V40.1H214.761L216.206 41.7572L216.96 41.1ZM244.56 41.1L245.338 40.4725L245.038 40.1H244.56V41.1ZM257.01 56.55L256.231 57.1775L257.01 58.1437L257.788 57.1775L257.01 56.55ZM269.46 41.1V40.1H268.981L268.681 40.4725L269.46 41.1ZM297.06 41.1L297.814 41.7572L299.258 40.1H297.06V41.1ZM270.51 71.55L269.756 70.8928L269.175 71.5594L269.765 72.2178L270.51 71.55ZM303.21 108V109H305.45L303.954 107.332L303.21 108ZM275.31 108L274.547 108.646L274.846 109H275.31V108ZM257.01 86.4L257.773 85.7536L257.01 84.853L256.247 85.7536L257.01 86.4ZM238.71 108V109H239.173L239.473 108.646L238.71 108ZM211.554 108.668L244.254 72.2178L242.765 70.8822L210.065 107.332L211.554 108.668ZM244.263 70.8928L217.713 40.4428L216.206 41.7572L242.756 72.2072L244.263 70.8928ZM216.96 42.1H244.56V40.1H216.96V42.1ZM243.781 41.7275L256.231 57.1775L257.788 55.9225L245.338 40.4725L243.781 41.7275ZM257.788 57.1775L270.238 41.7275L268.681 40.4725L256.231 55.9225L257.788 57.1775ZM269.46 42.1H297.06V40.1H269.46V42.1ZM296.306 40.4428L269.756 70.8928L271.263 72.2072L297.814 41.7572L296.306 40.4428ZM269.765 72.2178L302.465 108.668L303.954 107.332L271.254 70.8822L269.765 72.2178ZM303.21 107H275.31V109H303.21V107ZM276.073 107.354L257.773 85.7536L256.247 87.0464L274.547 108.646L276.073 107.354ZM256.247 85.7536L237.947 107.354L239.473 108.646L257.773 87.0464L256.247 85.7536ZM238.71 107L210.81 107V109L238.71 109V107ZM310.427 41.1V40.1H309.427V41.1H310.427ZM332.027 41.1H333.027V40.1H332.027V41.1ZM332.027 108V109H333.027V108H332.027ZM310.427 108H309.427V109H310.427V108ZM310.427 42.1H332.027V40.1H310.427V42.1ZM331.027 41.1V108H333.027V41.1H331.027ZM332.027 107H310.427V109H332.027V107ZM311.427 108V41.1H309.427V108H311.427ZM309.627 12.6C309.627 6.10228 314.73 0.999996 321.227 0.999996V-1C313.625 -1 307.627 4.99771 307.627 12.6H309.627ZM321.227 0.999996C327.725 0.999996 332.827 6.10228 332.827 12.6H334.827C334.827 4.99771 328.83 -1 321.227 -1V0.999996ZM332.827 12.6C332.827 19.0977 327.725 24.2 321.227 24.2V26.2C328.83 26.2 334.827 20.2023 334.827 12.6H332.827ZM321.227 24.2C314.73 24.2 309.627 19.0977 309.627 12.6H307.627C307.627 20.2023 313.625 26.2 321.227 26.2V24.2ZM347.382 108H346.382V109H347.382V108ZM347.382 41.1V40.1H346.382V41.1H347.382ZM368.982 41.1H369.982V40.1H368.982V41.1ZM368.982 48.9H367.982V52.2275L369.817 49.4513L368.982 48.9ZM400.332 42.45L399.818 43.3075L399.829 43.3142L399.84 43.3206L400.332 42.45ZM408.432 51.75L407.519 52.1561L408.292 53.897L409.286 52.2714L408.432 51.75ZM416.982 43.2L416.46 42.3474L416.455 42.3504L416.982 43.2ZM449.982 45.75L449.289 46.4703L449.292 46.4737L449.982 45.75ZM456.882 108V109H457.882V108H456.882ZM435.282 108H434.282V109H435.282V108ZM432.432 61.05L433.216 60.4293L433.213 60.4253L432.432 61.05ZM416.232 61.5L417.016 62.1207L417.025 62.1105L417.032 62.1L416.232 61.5ZM412.932 108V109H413.932V108H412.932ZM391.332 108H390.332V109H391.332V108ZM387.882 60.15L387.175 60.8571V60.8571L387.882 60.15ZM373.182 60.15L372.502 59.4172L372.495 59.4234L372.489 59.4297L373.182 60.15ZM368.982 108V109H369.982V108H368.982ZM348.382 108V41.1H346.382V108H348.382ZM347.382 42.1H368.982V40.1H347.382V42.1ZM367.982 41.1V48.9H369.982V41.1H367.982ZM369.817 49.4513C375.092 41.4664 382.766 40.45 387.732 40.45V38.45C382.499 38.45 373.972 39.5336 368.148 48.3487L369.817 49.4513ZM387.732 40.45C390.541 40.45 395.561 40.7531 399.818 43.3075L400.847 41.5925C396.104 38.7469 390.624 38.45 387.732 38.45V40.45ZM399.84 43.3206C403.078 45.1504 405.793 48.2732 407.519 52.1561L409.346 51.3439C407.472 47.1268 404.487 43.6496 400.824 41.5794L399.84 43.3206ZM409.286 52.2714C410.871 49.6768 413.318 46.6515 417.51 44.0496L416.455 42.3504C411.947 45.1485 409.294 48.4232 407.579 51.2285L409.286 52.2714ZM417.505 44.0526C421.964 41.3195 426.123 40.45 431.232 40.45V38.45C425.842 38.45 421.301 39.3805 416.46 42.3474L417.505 44.0526ZM431.232 40.45C439.154 40.45 445.476 42.7988 449.289 46.4703L450.676 45.0297C446.389 40.9012 439.51 38.45 431.232 38.45V40.45ZM449.292 46.4737C455.411 52.3079 455.882 60.9071 455.882 65.7H457.882C457.882 60.8929 457.454 51.4921 450.672 45.0263L449.292 46.4737ZM455.882 65.7V108H457.882V65.7H455.882ZM456.882 107H435.282V109H456.882V107ZM436.282 108V74.1H434.282V108H436.282ZM436.282 74.1C436.282 72.3812 436.284 69.9482 435.915 67.4833C435.548 65.0307 434.8 62.4289 433.216 60.4293L431.648 61.6707C432.915 63.2711 433.592 65.4693 433.937 67.7792C434.281 70.0769 434.282 72.3688 434.282 74.1H436.282ZM433.213 60.4253C431.212 57.9233 428.067 56.45 424.632 56.45V58.45C427.498 58.45 430.053 59.6767 431.652 61.6747L433.213 60.4253ZM424.632 56.45C420.718 56.45 417.421 58.2482 415.432 60.9L417.032 62.1C418.644 59.9518 421.347 58.45 424.632 58.45V56.45ZM415.448 60.8793C412.364 64.7755 411.932 70.3502 411.932 74.7H413.932C413.932 70.3498 414.401 65.4245 417.016 62.1207L415.448 60.8793ZM411.932 74.7V108H413.932V74.7H411.932ZM412.932 107H391.332V109H412.932V107ZM392.332 108V73.2H390.332V108H392.332ZM392.332 73.2C392.332 70.9524 392.297 68.4259 391.826 66.032C391.354 63.63 390.428 61.2817 388.59 59.4429L387.175 60.8571C388.637 62.3183 389.436 64.245 389.864 66.418C390.293 68.5991 390.332 70.9476 390.332 73.2H392.332ZM388.59 59.4429C386.075 56.9279 383.063 56.45 380.682 56.45V58.45C382.802 58.45 385.19 58.8721 387.175 60.8571L388.59 59.4429ZM380.682 56.45C377.646 56.45 374.83 57.2554 372.502 59.4172L373.863 60.8828C375.735 59.1446 378.019 58.45 380.682 58.45V56.45ZM372.489 59.4297C370.25 61.5856 369.144 64.6702 368.584 67.3923C368.02 70.1359 367.982 72.6534 367.982 73.8H369.982C369.982 72.6966 370.02 70.3391 370.543 67.7952C371.071 65.2298 372.065 62.6144 373.876 60.8703L372.489 59.4297ZM367.982 73.8V108H369.982V73.8H367.982ZM368.982 107H347.382V109H368.982V107ZM470.798 41.1V40.1H469.798V41.1H470.798ZM492.398 41.1H493.398V40.1H492.398V41.1ZM496.148 88.8L495.474 89.5385L495.479 89.5433L496.148 88.8ZM514.298 88.8L514.977 89.5348L514.982 89.5295L514.988 89.5241L514.298 88.8ZM517.898 41.1V40.1H516.898V41.1H517.898ZM539.498 41.1H540.498V40.1H539.498V41.1ZM531.998 101.55L531.299 100.835L531.298 100.836L531.998 101.55ZM478.148 101.55L478.849 100.836L478.847 100.834L478.148 101.55ZM470.798 42.1H492.398V40.1H470.798V42.1ZM491.398 41.1V78H493.398V41.1H491.398ZM491.398 78C491.398 81.0085 491.677 86.0715 495.474 89.5385L496.823 88.0615C493.72 85.2285 493.398 80.9915 493.398 78H491.398ZM495.479 89.5433C497.126 91.0248 500.055 92.95 505.148 92.95V90.95C500.642 90.95 498.171 89.2752 496.817 88.0567L495.479 89.5433ZM505.148 92.95C509.417 92.95 512.82 91.5261 514.977 89.5348L513.62 88.0652C511.877 89.6739 508.979 90.95 505.148 90.95V92.95ZM514.988 89.5241C518.463 86.2146 518.898 81.3264 518.898 78H516.898C516.898 81.2736 516.434 85.3854 513.609 88.0759L514.988 89.5241ZM518.898 78V41.1H516.898V78H518.898ZM517.898 42.1H539.498V40.1H517.898V42.1ZM538.498 41.1V80.1H540.498V41.1H538.498ZM538.498 80.1C538.498 87.675 537.752 94.5254 531.299 100.835L532.698 102.265C539.745 95.3746 540.498 87.825 540.498 80.1H538.498ZM531.298 100.836C523.95 108.04 513.06 109.25 505.148 109.25V111.25C513.137 111.25 524.747 110.06 532.698 102.264L531.298 100.836ZM505.148 109.25C496.937 109.25 486.197 108.04 478.849 100.836L477.448 102.264C485.4 110.06 496.86 111.25 505.148 111.25V109.25ZM478.847 100.834C472.973 95.104 471.798 88.6755 471.798 81.45H469.798C469.798 88.9245 471.024 95.996 477.45 102.266L478.847 100.834ZM471.798 81.45V41.1H469.798V81.45H471.798ZM553.345 108H552.345V109H553.345V108ZM553.345 41.1V40.1H552.345V41.1H553.345ZM574.945 41.1H575.945V40.1H574.945V41.1ZM574.945 48.9L573.945 48.9V52.2275L575.78 49.4513L574.945 48.9ZM606.295 42.45L605.781 43.3075L605.792 43.3142L605.803 43.3206L606.295 42.45ZM614.395 51.75L613.482 52.1561L614.255 53.897L615.249 52.2714L614.395 51.75ZM622.945 43.2L622.423 42.3474L622.418 42.3504L622.945 43.2ZM655.945 45.75L655.252 46.4703L655.255 46.4737L655.945 45.75ZM662.845 108V109H663.845V108H662.845ZM641.245 108H640.245V109H641.245V108ZM638.395 61.05L639.179 60.4293L639.176 60.4253L638.395 61.05ZM622.195 61.5L622.979 62.1207L622.987 62.1105L622.995 62.1L622.195 61.5ZM618.895 108V109H619.895V108H618.895ZM597.295 108H596.295V109H597.295V108ZM593.845 60.15L593.138 60.8571V60.8571L593.845 60.15ZM579.145 60.15L578.465 59.4172L578.458 59.4234L578.452 59.4297L579.145 60.15ZM574.945 108V109H575.945V108H574.945ZM554.345 108V41.1H552.345V108H554.345ZM553.345 42.1L574.945 42.1V40.1L553.345 40.1V42.1ZM573.945 41.1V48.9L575.945 48.9V41.1L573.945 41.1ZM575.78 49.4513C581.055 41.4664 588.728 40.45 593.695 40.45V38.45C588.462 38.45 579.935 39.5336 574.111 48.3487L575.78 49.4513ZM593.695 40.45C596.504 40.45 601.523 40.7531 605.781 43.3075L606.81 41.5925C602.067 38.7469 596.587 38.45 593.695 38.45V40.45ZM605.803 43.3206C609.041 45.1504 611.756 48.2732 613.482 52.1561L615.309 51.3439C613.435 47.1268 610.45 43.6496 606.787 41.5794L605.803 43.3206ZM615.249 52.2714C616.834 49.6768 619.281 46.6515 623.473 44.0496L622.418 42.3504C617.91 45.1485 615.256 48.4232 613.542 51.2285L615.249 52.2714ZM623.468 44.0526C627.927 41.3195 632.086 40.45 637.195 40.45V38.45C631.805 38.45 627.263 39.3805 622.423 42.3474L623.468 44.0526ZM637.195 40.45C645.117 40.45 651.439 42.7988 655.252 46.4703L656.639 45.0297C652.352 40.9012 645.473 38.45 637.195 38.45V40.45ZM655.255 46.4737C661.374 52.3079 661.845 60.9071 661.845 65.7H663.845C663.845 60.8929 663.417 51.4921 656.635 45.0263L655.255 46.4737ZM661.845 65.7V108H663.845V65.7H661.845ZM662.845 107H641.245V109H662.845V107ZM642.245 108V74.1H640.245V108H642.245ZM642.245 74.1C642.245 72.3812 642.247 69.9482 641.878 67.4833C641.511 65.0307 640.762 62.4289 639.179 60.4293L637.611 61.6707C638.878 63.2711 639.555 65.4693 639.9 67.7792C640.244 70.0769 640.245 72.3688 640.245 74.1H642.245ZM639.176 60.4253C637.175 57.9233 634.03 56.45 630.595 56.45V58.45C633.461 58.45 636.016 59.6767 637.614 61.6747L639.176 60.4253ZM630.595 56.45C626.681 56.45 623.384 58.2482 621.395 60.9L622.995 62.1C624.606 59.9518 627.31 58.45 630.595 58.45V56.45ZM621.411 60.8793C618.327 64.7755 617.895 70.3502 617.895 74.7H619.895C619.895 70.3498 620.364 65.4245 622.979 62.1207L621.411 60.8793ZM617.895 74.7V108H619.895V74.7H617.895ZM618.895 107H597.295V109H618.895V107ZM598.295 108V73.2H596.295V108H598.295ZM598.295 73.2C598.295 70.9524 598.26 68.4259 597.789 66.032C597.316 63.63 596.391 61.2817 594.552 59.4429L593.138 60.8571C594.599 62.3183 595.399 64.245 595.827 66.418C596.256 68.5991 596.295 70.9476 596.295 73.2H598.295ZM594.552 59.4429C592.037 56.9279 589.026 56.45 586.645 56.45V58.45C588.765 58.45 591.153 58.8721 593.138 60.8571L594.552 59.4429ZM586.645 56.45C583.609 56.45 580.793 57.2554 578.465 59.4172L579.826 60.8828C581.698 59.1446 583.982 58.45 586.645 58.45V56.45ZM578.452 59.4297C576.213 61.5856 575.107 64.6702 574.547 67.3923C573.983 70.1359 573.945 72.6534 573.945 73.8L575.945 73.8C575.945 72.6966 575.983 70.3391 576.506 67.7952C577.034 65.2298 578.028 62.6144 579.839 60.8703L578.452 59.4297ZM573.945 73.8V108H575.945V73.8L573.945 73.8ZM574.945 107H553.345V109H574.945V107ZM773.271 15.6L774.122 16.1245L774.603 15.3443L773.868 14.7975L773.271 15.6ZM762.921 32.4L762.252 33.1433L763.143 33.9455L763.773 32.9245L762.921 32.4ZM736.371 28.65L737.078 29.3571L737.097 29.3385L737.114 29.319L736.371 28.65ZM736.071 40.5L736.755 39.7705L736.748 39.7635L736.74 39.7567L736.071 40.5ZM748.671 46.2L749.026 45.2652L749.024 45.2645L748.671 46.2ZM756.171 49.05L755.816 49.9848L755.816 49.985L756.171 49.05ZM769.821 56.7L769.128 57.4208L769.133 57.4255L769.821 56.7ZM768.321 100.05L767.604 99.3529L767.597 99.3606L768.321 100.05ZM720.171 106.05L719.724 106.944L720.171 106.05ZM705.471 95.1L704.662 94.5118L704.16 95.2029L704.764 95.8071L705.471 95.1ZM717.471 78.6L718.178 77.8929L717.351 77.0654L716.662 78.0118L717.471 78.6ZM726.771 86.25L727.295 85.3983L727.293 85.3967L726.771 86.25ZM749.871 86.4L749.225 85.6366L749.217 85.6432L749.871 86.4ZM750.021 71.1L750.672 70.3407L750.661 70.3318L750.021 71.1ZM738.321 65.55L738.667 64.6117L738.657 64.6081L738.648 64.6048L738.321 65.55ZM730.071 62.7L729.737 63.6425L729.745 63.6452L730.071 62.7ZM716.121 54.75L716.854 54.0695L716.848 54.0628L716.121 54.75ZM718.821 14.85L718.107 14.1504L718.105 14.1517L718.821 14.85ZM772.42 15.0755L762.07 31.8755L763.773 32.9245L774.122 16.1245L772.42 15.0755ZM763.59 31.6567C755.858 24.698 749.144 24.2 746.121 24.2V26.2C748.798 26.2 754.984 26.602 762.252 33.1433L763.59 31.6567ZM746.121 24.2C742.925 24.2 738.633 24.6423 735.628 27.981L737.114 29.319C739.509 26.6577 743.018 26.2 746.121 26.2V24.2ZM735.664 27.9429C733.982 29.6244 732.821 32.1264 732.821 34.95H734.821C734.821 32.6736 735.76 30.6755 737.078 29.3571L735.664 27.9429ZM732.821 34.95C732.821 37.5859 733.659 39.674 735.402 41.2433L736.74 39.7567C735.484 38.626 734.821 37.1141 734.821 34.95H732.821ZM735.387 41.2295C736.718 42.4775 738.312 43.3204 740.36 44.1624C742.378 44.9925 744.994 45.88 748.318 47.1355L749.024 45.2645C745.598 43.97 743.114 43.1325 741.12 42.3126C739.155 41.5046 737.824 40.7725 736.755 39.7705L735.387 41.2295ZM748.316 47.1348L755.816 49.9848L756.526 48.1152L749.026 45.2652L748.316 47.1348ZM755.816 49.985C760.171 51.6366 765.391 53.8277 769.128 57.4208L770.514 55.9792C766.451 52.0723 760.872 49.7634 756.526 48.115L755.816 49.985ZM769.133 57.4255C774.711 62.718 776.171 69.6054 776.171 75.3H778.171C778.171 69.2946 776.631 61.782 770.509 55.9745L769.133 57.4255ZM776.171 75.3C776.171 85.4379 772.642 94.1715 767.604 99.3529L769.038 100.747C774.501 95.1285 778.171 85.8621 778.171 75.3H776.171ZM767.597 99.3606C759.054 108.338 746.537 109.25 739.971 109.25V111.25C746.605 111.25 759.889 110.362 769.046 100.739L767.597 99.3606ZM739.971 109.25C732.878 109.25 726.742 108.217 720.618 105.156L719.724 106.944C726.201 110.183 732.665 111.25 739.971 111.25V109.25ZM720.618 105.156C715.642 102.667 709.878 98.0924 706.178 94.3929L704.764 95.8071C708.565 99.6076 714.5 104.333 719.724 106.944L720.618 105.156ZM706.28 95.6882L718.28 79.1882L716.662 78.0118L704.662 94.5118L706.28 95.6882ZM716.764 79.3071C719.342 81.8849 723.455 85.3955 726.25 87.1033L727.293 85.3967C724.687 83.8045 720.7 80.4151 718.178 77.8929L716.764 79.3071ZM726.247 87.1017C730.299 89.5951 734.529 90.85 739.371 90.85V88.85C734.913 88.85 731.043 87.7049 727.295 85.3983L726.247 87.1017ZM739.371 90.85C742.472 90.85 746.96 90.2353 750.525 87.1568L749.217 85.6432C746.182 88.2647 742.27 88.85 739.371 88.85V90.85ZM750.517 87.1634C752.671 85.341 754.471 82.3704 754.471 78.3H752.471C752.471 81.7296 750.971 84.159 749.225 85.6366L750.517 87.1634ZM754.471 78.3C754.471 74.6448 752.94 72.2853 750.672 70.3407L749.37 71.8593C751.302 73.5147 752.471 75.3552 752.471 78.3H754.471ZM750.661 70.3318C749.192 69.1078 746.863 67.9356 744.628 66.9587C742.365 65.9701 740.089 65.1355 738.667 64.6117L737.975 66.4883C739.404 67.0145 741.627 67.8299 743.827 68.7913C746.054 69.7644 748.15 70.8422 749.381 71.8682L750.661 70.3318ZM738.648 64.6048L730.398 61.7548L729.745 63.6452L737.995 66.4952L738.648 64.6048ZM730.406 61.7576C725.747 60.1046 720.568 58.0698 716.854 54.0695L715.388 55.4305C719.474 59.8301 725.095 61.9954 729.737 63.6424L730.406 61.7576ZM716.848 54.0628C711.866 48.7967 711.121 42.0727 711.121 37.35H709.121C709.121 42.2273 709.876 49.6033 715.395 55.4372L716.848 54.0628ZM711.121 37.35C711.121 28.7263 713.742 21.4881 719.537 15.5483L718.105 14.1517C711.9 20.5118 709.121 28.2737 709.121 37.35H711.121ZM719.536 15.5496C726.329 8.61213 734.422 6.69999 743.571 6.69999V4.69999C734.12 4.69999 725.414 6.68786 718.107 14.1504L719.536 15.5496ZM743.571 6.69999C750.338 6.69999 761.203 7.87231 772.674 16.4025L773.868 14.7975C761.939 5.92768 750.604 4.69999 743.571 4.69999V6.69999ZM809.842 100.35L810.656 99.7688L808.842 97.2295V100.35H809.842ZM809.842 142.35V143.35H810.842V142.35H809.842ZM788.242 142.35H787.242V143.35H788.242V142.35ZM788.242 41.1V40.1H787.242V41.1H788.242ZM809.842 41.1H810.842V40.1H809.842V41.1ZM809.842 49.05H808.842V51.9863L810.634 49.6603L809.842 49.05ZM854.392 48.3L855.099 47.5929L854.392 48.3ZM853.792 101.25L854.499 101.957L853.792 101.25ZM813.142 86.55L812.418 87.2405L812.426 87.2489L812.435 87.2571L813.142 86.55ZM836.992 87L837.681 87.7241L837.683 87.7226L836.992 87ZM837.142 62.1L836.452 62.8241L836.453 62.825L837.142 62.1ZM808.842 100.35V142.35H810.842V100.35H808.842ZM809.842 141.35H788.242V143.35H809.842V141.35ZM789.242 142.35V41.1H787.242V142.35H789.242ZM788.242 42.1L809.842 42.1V40.1L788.242 40.1V42.1ZM808.842 41.1V49.05H810.842V41.1H808.842ZM810.634 49.6603C817.418 40.8554 825.75 39.85 830.692 39.85V37.85C825.433 37.85 816.366 38.9446 809.05 48.4397L810.634 49.6603ZM830.692 39.85C842.362 39.85 849.621 44.9433 853.685 49.0071L855.099 47.5929C850.763 43.2567 843.022 37.85 830.692 37.85V39.85ZM853.685 49.0071C859.485 54.8073 863.442 63.6974 863.442 74.4H865.442C865.442 63.2026 861.299 53.7927 855.099 47.5929L853.685 49.0071ZM863.442 74.4C863.442 85.6857 859.497 94.131 853.085 100.543L854.499 101.957C861.287 95.1689 865.442 86.2143 865.442 74.4H863.442ZM853.085 100.543C846.7 106.928 839.768 109.25 831.142 109.25V111.25C840.215 111.25 847.684 108.772 854.499 101.957L853.085 100.543ZM831.142 109.25C824.646 109.25 820.066 107.611 816.854 105.63C813.636 103.645 811.739 101.286 810.656 99.7688L809.028 100.931C810.194 102.564 812.273 105.155 815.804 107.332C819.342 109.514 824.288 111.25 831.142 111.25V109.25ZM825.442 56.45C819.092 56.45 814.953 59.4749 812.735 61.6929L814.149 63.1071C816.131 61.1251 819.791 58.45 825.442 58.45V56.45ZM812.735 61.6929C809.08 65.3472 807.342 70.4094 807.342 74.7H809.342C809.342 70.8906 810.903 66.3528 814.149 63.1071L812.735 61.6929ZM807.342 74.7C807.342 79.1541 809.089 83.7522 812.418 87.2405L813.865 85.8595C810.895 82.7478 809.342 78.646 809.342 74.7H807.342ZM812.435 87.2571C815.767 90.5899 820.52 92.65 825.442 92.65V90.65C821.064 90.65 816.816 88.8101 813.849 85.8429L812.435 87.2571ZM825.442 92.65C829.744 92.65 834.342 90.9044 837.681 87.7241L836.302 86.2759C833.341 89.0956 829.24 90.65 825.442 90.65V92.65ZM837.683 87.7226C841.358 84.2072 843.242 78.8315 843.242 74.25H841.242C841.242 78.3685 839.525 83.1928 836.301 86.2774L837.683 87.7226ZM843.242 74.25C843.242 69.0173 841.023 64.4078 837.831 61.375L836.453 62.825C839.261 65.4922 841.242 69.5827 841.242 74.25H843.242ZM837.831 61.3759C834.492 58.1956 830.044 56.45 825.442 56.45V58.45C829.54 58.45 833.491 60.0044 836.452 62.8241L837.831 61.3759ZM876.39 41.1V40.1H875.39V41.1H876.39ZM897.99 41.1H898.99V40.1H897.99V41.1ZM897.99 108V109H898.99V108H897.99ZM876.39 108H875.39V109H876.39V108ZM876.39 42.1H897.99V40.1H876.39V42.1ZM896.99 41.1V108H898.99V41.1H896.99ZM897.99 107H876.39V109H897.99V107ZM877.39 108V41.1H875.39V108H877.39ZM875.59 12.6C875.59 6.10228 880.693 0.999996 887.19 0.999996V-1C879.588 -1 873.59 4.99771 873.59 12.6H875.59ZM887.19 0.999996C893.688 0.999996 898.79 6.10228 898.79 12.6H900.79C900.79 4.99771 894.793 -1 887.19 -1V0.999996ZM898.79 12.6C898.79 19.0977 893.688 24.2 887.19 24.2V26.2C894.793 26.2 900.79 20.2023 900.79 12.6H898.79ZM887.19 24.2C880.693 24.2 875.59 19.0977 875.59 12.6H873.59C873.59 20.2023 879.588 26.2 887.19 26.2V24.2ZM913.345 108H912.345V109H913.345V108ZM913.345 41.1V40.1H912.345V41.1H913.345ZM934.945 41.1H935.945V40.1H934.945V41.1ZM934.945 49.05H933.945V51.9413L935.732 49.6678L934.945 49.05ZM974.845 46.05L974.138 46.7571L974.845 46.05ZM981.595 108V109H982.595V108H981.595ZM959.995 108H958.995V109H959.995V108ZM939.145 60.9L939.852 61.6071L939.868 61.5917L939.882 61.5757L939.145 60.9ZM934.945 108V109H935.945V108H934.945ZM914.345 108V41.1H912.345V108H914.345ZM913.345 42.1H934.945V40.1H913.345V42.1ZM933.945 41.1V49.05H935.945V41.1H933.945ZM935.732 49.6678C942.074 41.5956 949.522 40.3 955.645 40.3V38.3C949.168 38.3 941.017 39.7044 934.159 48.4322L935.732 49.6678ZM955.645 40.3C961.41 40.3 968.723 41.3418 974.138 46.7571L975.552 45.3429C969.568 39.3582 961.581 38.3 955.645 38.3V40.3ZM974.138 46.7571C980.134 52.7529 980.595 60.3345 980.595 65.7H982.595C982.595 60.2655 982.157 51.9471 975.552 45.3429L974.138 46.7571ZM980.595 65.7V108H982.595V65.7H980.595ZM981.595 107H959.995V109H981.595V107ZM960.995 108V73.65H958.995V108H960.995ZM960.995 73.65C960.995 71.4754 960.96 68.9118 960.47 66.4429C959.979 63.9687 959.017 61.5074 957.102 59.5929L955.688 61.0071C957.224 62.5426 958.062 64.5813 958.508 66.8321C958.956 69.0881 958.995 71.4746 958.995 73.65H960.995ZM957.102 59.5929C955.25 57.7408 952.289 56.3 948.145 56.3V58.3C951.801 58.3 954.24 59.5592 955.688 61.0071L957.102 59.5929ZM948.145 56.3C943.346 56.3 940.234 58.232 938.408 60.2243L939.882 61.5757C941.356 59.968 943.945 58.3 948.145 58.3V56.3ZM938.438 60.1929C934.542 64.0889 933.945 69.2432 933.945 73.65H935.945C935.945 69.3568 936.548 64.911 939.852 61.6071L938.438 60.1929ZM933.945 73.65V108H935.945V73.65H933.945ZM934.945 107H913.345V109H934.945V107Z" fill="white" mask="url(#path-1-outside-1_427_1137)"/>
</svg>
