<svg width="655" height="84" viewBox="0 0 655 84" fill="none" xmlns="http://www.w3.org/2000/svg">
<path d="M62.6016 60.88V79.12C57.8016 81.64 51.4416 83.8 42.8016 83.8C28.7616 83.8 20.2416 79 13.5216 72.64C4.28155 63.76 0.681551 53.8 0.681551 42.04C0.681551 27.52 6.68155 17.08 13.5216 10.72C21.5616 3.16 31.5216 0.159995 42.9216 0.159995C48.5616 0.159995 55.2816 1.12 62.6016 5.08V23.32C55.2816 14.92 46.1616 14.32 43.2816 14.32C27.2016 14.32 16.7616 27.52 16.7616 42.28C16.7616 60.04 30.4416 69.64 43.8816 69.64C51.3216 69.64 57.9216 66.4 62.6016 60.88ZM113.423 0.159995C138.623 0.159995 156.143 17.68 156.143 42.04C156.143 66.4 138.623 83.8 113.423 83.8C88.2234 83.8 70.7034 66.4 70.7034 42.04C70.7034 17.68 88.2234 0.159995 113.423 0.159995ZM113.423 69.64C129.023 69.64 140.063 58.24 140.063 42.04C140.063 25.84 129.023 14.32 113.423 14.32C97.8234 14.32 86.7834 25.84 86.7834 42.04C86.7834 58.24 97.8234 69.64 113.423 69.64ZM183.72 82H168.12V1.95999L178.92 1.95999L227.64 55.36V1.95999H243.24V82H232.44L183.72 28.48V82ZM306.638 9.52L298.478 20.2C293.798 13.96 288.278 13.36 285.398 13.36C276.998 13.36 274.358 18.64 274.358 22.72C274.358 24.64 274.958 26.44 276.878 28.12C278.798 29.92 281.438 30.88 286.478 32.68C292.718 34.84 298.598 37 302.678 40.72C306.278 43.96 309.518 49.36 309.518 57.52C309.518 73.12 298.238 83.8 281.678 83.8C266.918 83.8 258.278 74.8 254.078 68.68L264.278 58.96C268.118 66.76 275.438 69.64 281.078 69.64C288.158 69.64 293.438 65.32 293.438 58.6C293.438 55.72 292.478 53.44 290.318 51.4C287.318 48.64 282.518 47.08 277.958 45.52C273.758 44.08 268.718 42.16 264.638 38.56C261.998 36.28 258.278 31.84 258.278 23.68C258.278 11.92 266.198 0.159995 283.958 0.159995C288.998 0.159995 298.478 1.12 306.638 9.52ZM320.82 1.95999H336.42V82H320.82V1.95999ZM399.807 9.52L391.647 20.2C386.967 13.96 381.447 13.36 378.567 13.36C370.167 13.36 367.527 18.64 367.527 22.72C367.527 24.64 368.127 26.44 370.047 28.12C371.967 29.92 374.607 30.88 379.647 32.68C385.887 34.84 391.767 37 395.847 40.72C399.447 43.96 402.687 49.36 402.687 57.52C402.687 73.12 391.407 83.8 374.847 83.8C360.087 83.8 351.447 74.8 347.247 68.68L357.447 58.96C361.287 66.76 368.607 69.64 374.247 69.64C381.327 69.64 386.607 65.32 386.607 58.6C386.607 55.72 385.647 53.44 383.487 51.4C380.487 48.64 375.687 47.08 371.127 45.52C366.927 44.08 361.887 42.16 357.807 38.56C355.167 36.28 351.447 31.84 351.447 23.68C351.447 11.92 359.367 0.159995 377.127 0.159995C382.167 0.159995 391.647 1.12 399.807 9.52ZM456.017 15.4H438.017V82H422.417V15.4H404.417V1.95999H456.017V15.4ZM507.903 1.95999V15.4H479.103V33.28H506.703V46.72H479.103V68.56H507.903V82H463.503V1.95999H507.903ZM536.234 82H520.634V1.95999H531.434L580.154 55.36V1.95999H595.754V82H584.954L536.234 28.48V82ZM654.833 15.4H636.833V82H621.233V15.4H603.233V1.95999L654.833 1.95999V15.4Z" fill="black"/>
</svg>
