<svg width="249" height="88" viewBox="0 0 249 88" fill="none" xmlns="http://www.w3.org/2000/svg">
<path d="M49.06 12H47.876V0.879999L56.196 9.6V1.328H57.38V12.48L49.06 3.76V12ZM64.766 9.776L65.726 10.304C65.534 10.672 65.246 11.072 64.91 11.376C64.302 11.92 63.55 12.192 62.702 12.192C61.102 12.192 59.422 11.184 59.422 8.72C59.422 6.736 60.638 5.2 62.638 5.2C63.934 5.2 64.75 5.84 65.15 6.416C65.566 7.008 65.806 8.032 65.774 8.912H60.606C60.622 10.288 61.566 11.168 62.718 11.168C63.262 11.168 63.694 11.008 64.078 10.688C64.382 10.432 64.622 10.096 64.766 9.776ZM60.686 7.952H64.59C64.398 6.912 63.614 6.224 62.638 6.224C61.662 6.224 60.862 6.96 60.686 7.952ZM66.5811 5.36H67.8611L69.8291 9.872L71.9091 4.848L73.9731 9.872L75.9571 5.36H77.2371L73.9411 12.464L71.8931 7.504L69.8451 12.464L66.5811 5.36ZM78.4474 0.335999H79.5994V12H78.4474V0.335999ZM81.7595 15.68L83.8715 11.376L80.8155 5.36H82.1275L84.4795 10.112L86.6395 5.36H87.9195L83.0395 15.68H81.7595ZM92.8693 12V5.36H94.0213V6.08C94.1332 5.904 94.6293 5.2 95.5253 5.2C95.8773 5.2 96.2613 5.328 96.5493 5.472L96.0052 6.512C95.7493 6.336 95.5093 6.288 95.3333 6.288C94.8693 6.288 94.5813 6.48 94.4053 6.704C94.2133 6.96 94.0213 7.408 94.0213 8.496V12H92.8693ZM102.141 9.776L103.101 10.304C102.909 10.672 102.621 11.072 102.285 11.376C101.677 11.92 100.925 12.192 100.077 12.192C98.477 12.192 96.797 11.184 96.797 8.72C96.797 6.736 98.013 5.2 100.013 5.2C101.309 5.2 102.125 5.84 102.525 6.416C102.941 7.008 103.181 8.032 103.149 8.912H97.981C97.997 10.288 98.941 11.168 100.093 11.168C100.637 11.168 101.069 11.008 101.453 10.688C101.757 10.432 101.997 10.096 102.141 9.776ZM98.061 7.952H101.965C101.773 6.912 100.989 6.224 100.013 6.224C99.037 6.224 98.237 6.96 98.061 7.952ZM104.916 0.335999H106.068V12H104.916V0.335999ZM113.172 9.776L114.132 10.304C113.94 10.672 113.652 11.072 113.316 11.376C112.708 11.92 111.956 12.192 111.108 12.192C109.508 12.192 107.828 11.184 107.828 8.72C107.828 6.736 109.044 5.2 111.044 5.2C112.34 5.2 113.156 5.84 113.556 6.416C113.972 7.008 114.212 8.032 114.18 8.912H109.012C109.028 10.288 109.972 11.168 111.124 11.168C111.668 11.168 112.1 11.008 112.484 10.688C112.788 10.432 113.028 10.096 113.172 9.776ZM109.092 7.952H112.996C112.804 6.912 112.02 6.224 111.044 6.224C110.068 6.224 109.268 6.96 109.092 7.952ZM121.035 6.304V5.36H122.187V12H121.035V11.072C120.651 11.568 119.931 12.192 118.763 12.192C117.083 12.192 115.531 11.008 115.531 8.672C115.531 6.384 117.067 5.2 118.763 5.2C120.043 5.2 120.731 5.904 121.035 6.304ZM118.891 6.224C117.755 6.224 116.715 7.056 116.715 8.672C116.715 10.096 117.515 11.168 118.891 11.168C120.299 11.168 121.099 10 121.099 8.688C121.099 6.976 119.915 6.224 118.891 6.224ZM128.049 6.4L127.105 6.896C126.945 6.512 126.609 6.224 126.177 6.224C125.761 6.224 125.377 6.464 125.377 6.976C125.377 7.456 125.697 7.6 126.449 7.92C127.409 8.32 127.857 8.624 128.113 8.944C128.401 9.296 128.465 9.648 128.465 10.016C128.465 11.408 127.457 12.192 126.177 12.192C125.905 12.192 124.417 12.16 123.857 10.496L124.849 10.08C124.977 10.432 125.361 11.168 126.193 11.168C126.945 11.168 127.281 10.608 127.281 10.112C127.281 9.488 126.833 9.28 126.209 9.008C125.409 8.656 124.897 8.4 124.593 8.032C124.337 7.712 124.289 7.392 124.289 7.056C124.289 5.888 125.105 5.2 126.225 5.2C126.577 5.2 127.521 5.264 128.049 6.4ZM134.922 9.776L135.882 10.304C135.69 10.672 135.402 11.072 135.066 11.376C134.458 11.92 133.706 12.192 132.858 12.192C131.258 12.192 129.578 11.184 129.578 8.72C129.578 6.736 130.794 5.2 132.794 5.2C134.09 5.2 134.906 5.84 135.306 6.416C135.722 7.008 135.962 8.032 135.93 8.912H130.762C130.778 10.288 131.722 11.168 132.874 11.168C133.418 11.168 133.85 11.008 134.234 10.688C134.538 10.432 134.778 10.096 134.922 9.776ZM130.842 7.952H134.746C134.554 6.912 133.77 6.224 132.794 6.224C131.818 6.224 131.018 6.96 130.842 7.952ZM142.785 6.304V0.335999H143.937V12H142.785V11.072C142.401 11.568 141.681 12.192 140.513 12.192C138.833 12.192 137.281 11.008 137.281 8.672C137.281 6.384 138.817 5.2 140.513 5.2C141.793 5.2 142.481 5.904 142.785 6.304ZM140.641 6.224C139.505 6.224 138.465 7.056 138.465 8.672C138.465 10.096 139.265 11.168 140.641 11.168C142.049 11.168 142.849 10 142.849 8.688C142.849 6.976 141.665 6.224 140.641 6.224ZM152.67 6.416H151.038V12H149.886V6.416H149.246V5.36H149.886V2.464C149.886 1.856 149.934 1.088 150.526 0.591999C150.846 0.32 151.326 0.16 151.854 0.16C152.27 0.16 152.542 0.256 152.67 0.304V1.424C152.43 1.328 152.158 1.28 151.918 1.28C151.662 1.28 151.358 1.344 151.182 1.632C151.038 1.872 151.038 2.24 151.038 2.592V5.36H152.67V6.416ZM156.801 12.192C154.785 12.192 153.281 10.72 153.281 8.704C153.281 6.688 154.769 5.2 156.801 5.2C158.833 5.2 160.321 6.688 160.321 8.704C160.321 10.72 158.817 12.192 156.801 12.192ZM156.801 6.224C155.585 6.224 154.465 7.088 154.465 8.704C154.465 10.336 155.617 11.168 156.801 11.168C158.001 11.168 159.137 10.32 159.137 8.704C159.137 7.072 158.017 6.224 156.801 6.224ZM162.088 12V5.36H163.24V6.08C163.352 5.904 163.848 5.2 164.744 5.2C165.096 5.2 165.48 5.328 165.768 5.472L165.224 6.512C164.968 6.336 164.728 6.288 164.552 6.288C164.088 6.288 163.8 6.48 163.624 6.704C163.432 6.96 163.24 7.408 163.24 8.496V12H162.088ZM172.893 6.416H171.741V12H170.589V6.416H169.885V5.36H170.589V2.96H171.741V5.36H172.893V6.416ZM177.083 12.192C175.067 12.192 173.563 10.72 173.563 8.704C173.563 6.688 175.051 5.2 177.083 5.2C179.115 5.2 180.603 6.688 180.603 8.704C180.603 10.72 179.099 12.192 177.083 12.192ZM177.083 6.224C175.867 6.224 174.747 7.088 174.747 8.704C174.747 10.336 175.899 11.168 177.083 11.168C178.283 11.168 179.419 10.32 179.419 8.704C179.419 7.072 178.299 6.224 177.083 6.224ZM183.521 5.36V9.232C183.521 9.696 183.521 10.24 183.841 10.656C184.017 10.88 184.369 11.168 185.009 11.168C185.649 11.168 186.001 10.88 186.177 10.656C186.497 10.24 186.497 9.696 186.497 9.232V5.36H187.649V9.36C187.649 10.176 187.569 10.784 187.041 11.36C186.449 11.984 185.665 12.192 185.009 12.192C184.353 12.192 183.569 11.984 182.977 11.36C182.449 10.784 182.369 10.176 182.369 9.36V5.36H183.521ZM189.822 12V5.36H190.974V6.08C191.086 5.904 191.582 5.2 192.478 5.2C192.83 5.2 193.214 5.328 193.502 5.472L192.958 6.512C192.702 6.336 192.462 6.288 192.286 6.288C191.822 6.288 191.534 6.48 191.358 6.704C191.166 6.96 190.974 7.408 190.974 8.496V12H189.822ZM199.443 11.072V15.68H198.291V5.36H199.443V6.288C200.227 5.312 201.235 5.2 201.715 5.2C203.795 5.2 204.947 6.928 204.947 8.72C204.947 10.544 203.779 12.192 201.763 12.192C200.691 12.192 199.939 11.712 199.443 11.072ZM201.603 11.168C202.947 11.168 203.763 10.048 203.763 8.72C203.763 7.088 202.659 6.224 201.587 6.224C200.515 6.224 199.379 7.104 199.379 8.704C199.379 10.064 200.243 11.168 201.603 11.168ZM206.713 0.335999H207.865V12H206.713V0.335999ZM215.129 6.304V5.36H216.281V12H215.129V11.072C214.745 11.568 214.025 12.192 212.857 12.192C211.177 12.192 209.625 11.008 209.625 8.672C209.625 6.384 211.161 5.2 212.857 5.2C214.137 5.2 214.825 5.904 215.129 6.304ZM212.985 6.224C211.849 6.224 210.809 7.056 210.809 8.672C210.809 10.096 211.609 11.168 212.985 11.168C214.393 11.168 215.193 10 215.193 8.688C215.193 6.976 214.009 6.224 212.985 6.224ZM218.447 15.68L220.559 11.376L217.503 5.36H218.815L221.167 10.112L223.327 5.36H224.607L219.727 15.68H218.447ZM230.75 9.776L231.71 10.304C231.518 10.672 231.23 11.072 230.894 11.376C230.286 11.92 229.534 12.192 228.686 12.192C227.086 12.192 225.406 11.184 225.406 8.72C225.406 6.736 226.622 5.2 228.622 5.2C229.918 5.2 230.734 5.84 231.134 6.416C231.55 7.008 231.79 8.032 231.758 8.912H226.59C226.606 10.288 227.55 11.168 228.702 11.168C229.246 11.168 229.678 11.008 230.062 10.688C230.366 10.432 230.606 10.096 230.75 9.776ZM226.67 7.952H230.574C230.382 6.912 229.598 6.224 228.622 6.224C227.646 6.224 226.846 6.96 226.67 7.952ZM233.526 12V5.36H234.678V6.08C234.789 5.904 235.286 5.2 236.182 5.2C236.534 5.2 236.918 5.328 237.206 5.472L236.661 6.512C236.406 6.336 236.166 6.288 235.99 6.288C235.526 6.288 235.238 6.48 235.062 6.704C234.87 6.96 234.678 7.408 234.678 8.496V12H233.526ZM241.768 6.4L240.824 6.896C240.664 6.512 240.328 6.224 239.896 6.224C239.48 6.224 239.096 6.464 239.096 6.976C239.096 7.456 239.416 7.6 240.168 7.92C241.128 8.32 241.576 8.624 241.832 8.944C242.12 9.296 242.184 9.648 242.184 10.016C242.184 11.408 241.176 12.192 239.896 12.192C239.624 12.192 238.136 12.16 237.576 10.496L238.568 10.08C238.696 10.432 239.08 11.168 239.912 11.168C240.664 11.168 241 10.608 241 10.112C241 9.488 240.552 9.28 239.928 9.008C239.128 8.656 238.616 8.4 238.312 8.032C238.056 7.712 238.008 7.392 238.008 7.056C238.008 5.888 238.824 5.2 239.944 5.2C240.296 5.2 241.24 5.264 241.768 6.4ZM242.785 14.128L244.097 10.432L245.153 10.816L243.537 14.432L242.785 14.128ZM59.299 30.416H58.147V36H56.995V30.416H56.291V29.36H56.995V26.96H58.147V29.36H59.299V30.416ZM60.3849 36V24.336H61.5369V30.128C61.7449 29.856 62.3369 29.2 63.4409 29.2C64.2249 29.2 64.9449 29.52 65.3449 30.112C65.6809 30.608 65.7289 31.152 65.7289 31.888V36H64.5769V31.92C64.5769 31.52 64.5449 31.056 64.2729 30.704C64.0489 30.416 63.6969 30.224 63.1849 30.224C62.7849 30.224 62.3529 30.336 62.0169 30.736C61.5689 31.264 61.5369 32.048 61.5369 32.528V36H60.3849ZM72.6723 33.776L73.6323 34.304C73.4403 34.672 73.1523 35.072 72.8163 35.376C72.2083 35.92 71.4563 36.192 70.6083 36.192C69.0082 36.192 67.3283 35.184 67.3283 32.72C67.3283 30.736 68.5443 29.2 70.5443 29.2C71.8403 29.2 72.6563 29.84 73.0563 30.416C73.4723 31.008 73.7123 32.032 73.6803 32.912H68.5123C68.5283 34.288 69.4723 35.168 70.6243 35.168C71.1683 35.168 71.6003 35.008 71.9843 34.688C72.2883 34.432 72.5283 34.096 72.6723 33.776ZM68.5923 31.952H72.4963C72.3043 30.912 71.5203 30.224 70.5443 30.224C69.5683 30.224 68.7682 30.96 68.5923 31.952ZM85.1818 26.816L84.2378 27.44C84.0938 27.152 83.8538 26.832 83.6138 26.64C83.4058 26.48 83.0218 26.272 82.4138 26.272C81.3578 26.272 80.6218 26.928 80.6218 27.92C80.6218 28.336 80.7338 28.576 81.0218 28.848C81.3418 29.168 81.7418 29.344 82.1418 29.52L83.1658 29.968C83.7898 30.24 84.3658 30.528 84.8138 30.976C85.3578 31.52 85.5818 32.144 85.5818 32.912C85.5818 34.88 84.1258 36.192 82.2057 36.192C81.5018 36.192 80.6218 36.048 79.8858 35.328C79.3578 34.816 79.0378 34.08 78.8938 33.44L80.0458 33.12C80.1258 33.68 80.3818 34.16 80.6858 34.48C81.1498 34.944 81.6778 35.072 82.2218 35.072C83.6778 35.072 84.3658 34.032 84.3658 32.96C84.3658 32.48 84.2218 32.064 83.8378 31.712C83.5338 31.424 83.1178 31.232 82.5578 30.976L81.5978 30.528C81.1818 30.336 80.6538 30.112 80.1738 29.648C79.7098 29.2 79.4378 28.704 79.4378 27.904C79.4378 26.256 80.7018 25.152 82.4298 25.152C83.0858 25.152 83.6138 25.28 84.1418 25.632C84.5738 25.92 84.9418 26.352 85.1818 26.816ZM88.615 29.36V33.232C88.615 33.696 88.615 34.24 88.935 34.656C89.111 34.88 89.463 35.168 90.103 35.168C90.743 35.168 91.095 34.88 91.271 34.656C91.591 34.24 91.591 33.696 91.591 33.232V29.36H92.743V33.36C92.743 34.176 92.663 34.784 92.135 35.36C91.543 35.984 90.759 36.192 90.103 36.192C89.447 36.192 88.663 35.984 88.071 35.36C87.543 34.784 87.463 34.176 87.463 33.36V29.36H88.615ZM96.0681 35.072V39.68H94.9161V29.36H96.0681V30.288C96.8521 29.312 97.8601 29.2 98.3401 29.2C100.42 29.2 101.572 30.928 101.572 32.72C101.572 34.544 100.404 36.192 98.3881 36.192C97.3161 36.192 96.5641 35.712 96.0681 35.072ZM98.2281 35.168C99.5721 35.168 100.388 34.048 100.388 32.72C100.388 31.088 99.2841 30.224 98.2121 30.224C97.1401 30.224 96.0041 31.104 96.0041 32.704C96.0041 34.064 96.8681 35.168 98.2281 35.168ZM108.266 33.776L109.226 34.304C109.034 34.672 108.746 35.072 108.41 35.376C107.802 35.92 107.05 36.192 106.202 36.192C104.602 36.192 102.922 35.184 102.922 32.72C102.922 30.736 104.138 29.2 106.138 29.2C107.434 29.2 108.25 29.84 108.65 30.416C109.066 31.008 109.306 32.032 109.274 32.912H104.106C104.122 34.288 105.066 35.168 106.218 35.168C106.762 35.168 107.194 35.008 107.578 34.688C107.882 34.432 108.122 34.096 108.266 33.776ZM104.186 31.952H108.09C107.898 30.912 107.114 30.224 106.138 30.224C105.162 30.224 104.362 30.96 104.186 31.952ZM111.041 36V29.36H112.193V30.08C112.305 29.904 112.801 29.2 113.697 29.2C114.049 29.2 114.433 29.328 114.721 29.472L114.177 30.512C113.921 30.336 113.681 30.288 113.505 30.288C113.041 30.288 112.753 30.48 112.577 30.704C112.385 30.96 112.193 31.408 112.193 32.496V36H111.041ZM125.51 26.816L124.566 27.44C124.422 27.152 124.182 26.832 123.942 26.64C123.734 26.48 123.35 26.272 122.742 26.272C121.686 26.272 120.95 26.928 120.95 27.92C120.95 28.336 121.062 28.576 121.35 28.848C121.67 29.168 122.07 29.344 122.47 29.52L123.494 29.968C124.118 30.24 124.694 30.528 125.142 30.976C125.686 31.52 125.91 32.144 125.91 32.912C125.91 34.88 124.454 36.192 122.534 36.192C121.83 36.192 120.95 36.048 120.214 35.328C119.686 34.816 119.366 34.08 119.222 33.44L120.374 33.12C120.454 33.68 120.71 34.16 121.014 34.48C121.478 34.944 122.006 35.072 122.55 35.072C124.006 35.072 124.694 34.032 124.694 32.96C124.694 32.48 124.55 32.064 124.166 31.712C123.862 31.424 123.446 31.232 122.886 30.976L121.926 30.528C121.51 30.336 120.982 30.112 120.502 29.648C120.038 29.2 119.766 28.704 119.766 27.904C119.766 26.256 121.03 25.152 122.758 25.152C123.414 25.152 123.942 25.28 124.47 25.632C124.902 25.92 125.27 26.352 125.51 26.816ZM132.719 33.776L133.679 34.304C133.487 34.672 133.199 35.072 132.863 35.376C132.255 35.92 131.503 36.192 130.655 36.192C129.055 36.192 127.375 35.184 127.375 32.72C127.375 30.736 128.591 29.2 130.591 29.2C131.887 29.2 132.703 29.84 133.103 30.416C133.519 31.008 133.759 32.032 133.727 32.912H128.559C128.575 34.288 129.519 35.168 130.671 35.168C131.215 35.168 131.647 35.008 132.031 34.688C132.335 34.432 132.575 34.096 132.719 33.776ZM128.639 31.952H132.543C132.351 30.912 131.567 30.224 130.591 30.224C129.615 30.224 128.815 30.96 128.639 31.952ZM135.494 24.336H136.646V36H135.494V24.336ZM143.75 33.776L144.71 34.304C144.518 34.672 144.23 35.072 143.894 35.376C143.286 35.92 142.534 36.192 141.686 36.192C140.086 36.192 138.406 35.184 138.406 32.72C138.406 30.736 139.622 29.2 141.622 29.2C142.918 29.2 143.734 29.84 144.134 30.416C144.55 31.008 144.79 32.032 144.758 32.912H139.59C139.606 34.288 140.55 35.168 141.702 35.168C142.246 35.168 142.678 35.008 143.062 34.688C143.366 34.432 143.606 34.096 143.75 33.776ZM139.67 31.952H143.574C143.382 30.912 142.598 30.224 141.622 30.224C140.646 30.224 139.846 30.96 139.67 31.952ZM151.726 29.84V31.216C151.118 30.448 150.238 30.224 149.646 30.224C148.414 30.224 147.294 31.088 147.294 32.704C147.294 34.32 148.446 35.168 149.63 35.168C150.318 35.168 151.166 34.864 151.774 34.128V35.504C151.054 36.032 150.286 36.192 149.661 36.192C147.598 36.192 146.11 34.72 146.11 32.72C146.11 30.688 147.614 29.2 149.661 29.2C150.718 29.2 151.406 29.616 151.726 29.84ZM155.877 30.416H154.725V36H153.573V30.416H152.869V29.36H153.573V26.96H154.725V29.36H155.877V30.416ZM161.849 35.072V39.68H160.697V29.36H161.849V30.288C162.633 29.312 163.641 29.2 164.121 29.2C166.201 29.2 167.353 30.928 167.353 32.72C167.353 34.544 166.185 36.192 164.169 36.192C163.097 36.192 162.345 35.712 161.849 35.072ZM164.009 35.168C165.353 35.168 166.169 34.048 166.169 32.72C166.169 31.088 165.065 30.224 163.993 30.224C162.921 30.224 161.785 31.104 161.785 32.704C161.785 34.064 162.649 35.168 164.009 35.168ZM170.271 29.36V33.232C170.271 33.696 170.271 34.24 170.591 34.656C170.767 34.88 171.119 35.168 171.759 35.168C172.399 35.168 172.751 34.88 172.927 34.656C173.247 34.24 173.247 33.696 173.247 33.232V29.36H174.399V33.36C174.399 34.176 174.319 34.784 173.791 35.36C173.199 35.984 172.415 36.192 171.759 36.192C171.103 36.192 170.319 35.984 169.727 35.36C169.199 34.784 169.119 34.176 169.119 33.36V29.36H170.271ZM178.908 30.416H177.756V36H176.604V30.416H175.9V29.36H176.604V26.96H177.756V29.36H178.908V30.416ZM182.643 30.416H181.491V36H180.339V30.416H179.635V29.36H180.339V26.96H181.491V29.36H182.643V30.416ZM188.657 33.776L189.617 34.304C189.425 34.672 189.137 35.072 188.801 35.376C188.193 35.92 187.441 36.192 186.593 36.192C184.993 36.192 183.313 35.184 183.313 32.72C183.313 30.736 184.529 29.2 186.529 29.2C187.825 29.2 188.641 29.84 189.041 30.416C189.457 31.008 189.697 32.032 189.665 32.912H184.497C184.513 34.288 185.457 35.168 186.609 35.168C187.153 35.168 187.585 35.008 187.969 34.688C188.273 34.432 188.513 34.096 188.657 33.776ZM184.577 31.952H188.481C188.289 30.912 187.505 30.224 186.529 30.224C185.553 30.224 184.753 30.96 184.577 31.952ZM191.432 36V29.36H192.584V30.08C192.696 29.904 193.192 29.2 194.088 29.2C194.44 29.2 194.824 29.328 195.112 29.472L194.568 30.512C194.312 30.336 194.072 30.288 193.896 30.288C193.432 30.288 193.144 30.48 192.968 30.704C192.776 30.96 192.584 31.408 192.584 32.496V36H191.432ZM204.989 30.304V24.336H206.141V36H204.989V35.072C204.605 35.568 203.885 36.192 202.717 36.192C201.037 36.192 199.485 35.008 199.485 32.672C199.485 30.384 201.021 29.2 202.717 29.2C203.997 29.2 204.685 29.904 204.989 30.304ZM202.845 30.224C201.709 30.224 200.669 31.056 200.669 32.672C200.669 34.096 201.469 35.168 202.845 35.168C204.253 35.168 205.053 34 205.053 32.688C205.053 30.976 203.869 30.224 202.845 30.224ZM213.25 33.776L214.21 34.304C214.018 34.672 213.73 35.072 213.394 35.376C212.786 35.92 212.034 36.192 211.186 36.192C209.586 36.192 207.906 35.184 207.906 32.72C207.906 30.736 209.122 29.2 211.122 29.2C212.418 29.2 213.234 29.84 213.634 30.416C214.05 31.008 214.29 32.032 214.258 32.912H209.09C209.106 34.288 210.05 35.168 211.202 35.168C211.746 35.168 212.178 35.008 212.562 34.688C212.866 34.432 213.106 34.096 213.25 33.776ZM209.17 31.952H213.074C212.882 30.912 212.098 30.224 211.122 30.224C210.146 30.224 209.346 30.96 209.17 31.952ZM216.026 24.336H217.178V36H216.026V24.336ZM219.354 29.36H220.506V36H219.354V29.36ZM219.114 26.848C219.114 26.4 219.482 26.032 219.93 26.032C220.378 26.032 220.746 26.4 220.746 26.848C220.746 27.296 220.378 27.664 219.93 27.664C219.482 27.664 219.114 27.296 219.114 26.848ZM221.722 29.36H223.002L224.986 33.84L226.97 29.36H228.25L224.986 36.432L221.722 29.36ZM234.391 33.776L235.351 34.304C235.159 34.672 234.871 35.072 234.535 35.376C233.927 35.92 233.175 36.192 232.327 36.192C230.727 36.192 229.047 35.184 229.047 32.72C229.047 30.736 230.263 29.2 232.263 29.2C233.559 29.2 234.375 29.84 234.775 30.416C235.191 31.008 235.431 32.032 235.399 32.912H230.231C230.247 34.288 231.191 35.168 232.343 35.168C232.887 35.168 233.319 35.008 233.703 34.688C234.007 34.432 234.247 34.096 234.391 33.776ZM230.311 31.952H234.215C234.023 30.912 233.239 30.224 232.263 30.224C231.287 30.224 230.487 30.96 230.311 31.952ZM237.166 36V29.36H238.318V30.08C238.43 29.904 238.926 29.2 239.822 29.2C240.174 29.2 240.558 29.328 240.846 29.472L240.302 30.512C240.046 30.336 239.806 30.288 239.63 30.288C239.166 30.288 238.878 30.48 238.702 30.704C238.51 30.96 238.318 31.408 238.318 32.496V36H237.166ZM245.409 30.4L244.465 30.896C244.305 30.512 243.969 30.224 243.537 30.224C243.121 30.224 242.737 30.464 242.737 30.976C242.737 31.456 243.057 31.6 243.809 31.92C244.769 32.32 245.217 32.624 245.473 32.944C245.761 33.296 245.825 33.648 245.825 34.016C245.825 35.408 244.817 36.192 243.537 36.192C243.265 36.192 241.777 36.16 241.217 34.496L242.209 34.08C242.337 34.432 242.721 35.168 243.553 35.168C244.305 35.168 244.641 34.608 244.641 34.112C244.641 33.488 244.193 33.28 243.569 33.008C242.769 32.656 242.257 32.4 241.953 32.032C241.697 31.712 241.649 31.392 241.649 31.056C241.649 29.888 242.465 29.2 243.585 29.2C243.937 29.2 244.881 29.264 245.409 30.4ZM3.1115 54.416H1.9595V60H0.8075V54.416H0.1035V53.36H0.8075V50.96H1.9595V53.36H3.1115V54.416ZM4.19738 60V48.336H5.34938V54.128C5.55738 53.856 6.14938 53.2 7.25338 53.2C8.03738 53.2 8.75738 53.52 9.15738 54.112C9.49338 54.608 9.54138 55.152 9.54138 55.888V60H8.38938V55.92C8.38938 55.52 8.35738 55.056 8.08538 54.704C7.86138 54.416 7.50938 54.224 6.99738 54.224C6.59738 54.224 6.16538 54.336 5.82938 54.736C5.38138 55.264 5.34938 56.048 5.34938 56.528V60H4.19738ZM16.4848 57.776L17.4448 58.304C17.2528 58.672 16.9648 59.072 16.6288 59.376C16.0208 59.92 15.2688 60.192 14.4208 60.192C12.8207 60.192 11.1408 59.184 11.1408 56.72C11.1408 54.736 12.3568 53.2 14.3568 53.2C15.6528 53.2 16.4688 53.84 16.8688 54.416C17.2848 55.008 17.5248 56.032 17.4928 56.912H12.3248C12.3408 58.288 13.2848 59.168 14.4368 59.168C14.9808 59.168 15.4128 59.008 15.7968 58.688C16.1008 58.432 16.3408 58.096 16.4848 57.776ZM12.4048 55.952H16.3088C16.1168 54.912 15.3328 54.224 14.3568 54.224C13.3808 54.224 12.5807 54.96 12.4048 55.952ZM24.1463 59.072V60H22.9943V48.336H24.1463V54.288C24.9303 53.312 25.9383 53.2 26.4183 53.2C28.4983 53.2 29.6503 54.928 29.6503 56.72C29.6503 58.544 28.4823 60.192 26.4663 60.192C25.3943 60.192 24.6423 59.712 24.1463 59.072ZM26.3063 59.168C27.6503 59.168 28.4663 58.048 28.4663 56.72C28.4663 55.088 27.3623 54.224 26.2903 54.224C25.2183 54.224 24.0823 55.104 24.0823 56.704C24.0823 58.064 24.9463 59.168 26.3063 59.168ZM36.3441 57.776L37.3041 58.304C37.1121 58.672 36.8241 59.072 36.4881 59.376C35.8801 59.92 35.1281 60.192 34.2801 60.192C32.6801 60.192 31.0001 59.184 31.0001 56.72C31.0001 54.736 32.2161 53.2 34.2161 53.2C35.5121 53.2 36.3281 53.84 36.7281 54.416C37.1441 55.008 37.3841 56.032 37.3521 56.912H32.1841C32.2001 58.288 33.1441 59.168 34.2961 59.168C34.8401 59.168 35.2721 59.008 35.6561 58.688C35.9601 58.432 36.2001 58.096 36.3441 57.776ZM32.2641 55.952H36.1681C35.9761 54.912 35.1921 54.224 34.2161 54.224C33.2401 54.224 32.4401 54.96 32.2641 55.952ZM42.7993 54.4L41.8553 54.896C41.6953 54.512 41.3593 54.224 40.9273 54.224C40.5113 54.224 40.1273 54.464 40.1273 54.976C40.1273 55.456 40.4473 55.6 41.1993 55.92C42.1593 56.32 42.6073 56.624 42.8633 56.944C43.1513 57.296 43.2153 57.648 43.2153 58.016C43.2153 59.408 42.2073 60.192 40.9273 60.192C40.6553 60.192 39.1673 60.16 38.6073 58.496L39.5993 58.08C39.7273 58.432 40.1113 59.168 40.9433 59.168C41.6953 59.168 42.0312 58.608 42.0312 58.112C42.0312 57.488 41.5833 57.28 40.9593 57.008C40.1593 56.656 39.6473 56.4 39.3433 56.032C39.0872 55.712 39.0393 55.392 39.0393 55.056C39.0393 53.888 39.8553 53.2 40.9753 53.2C41.3273 53.2 42.2713 53.264 42.7993 54.4ZM47.0803 54.416H45.9283V60H44.7763V54.416H44.0723V53.36H44.7763V50.96H45.9283V53.36H47.0803V54.416ZM53.0525 59.072V63.68H51.9005V53.36H53.0525V54.288C53.8365 53.312 54.8445 53.2 55.3245 53.2C57.4045 53.2 58.5565 54.928 58.5565 56.72C58.5565 58.544 57.3885 60.192 55.3725 60.192C54.3005 60.192 53.5485 59.712 53.0525 59.072ZM55.2125 59.168C56.5565 59.168 57.3725 58.048 57.3725 56.72C57.3725 55.088 56.2685 54.224 55.1965 54.224C54.1245 54.224 52.9885 55.104 52.9885 56.704C52.9885 58.064 53.8525 59.168 55.2125 59.168ZM65.2504 57.776L66.2104 58.304C66.0184 58.672 65.7304 59.072 65.3944 59.376C64.7864 59.92 64.0344 60.192 63.1864 60.192C61.5864 60.192 59.9064 59.184 59.9064 56.72C59.9064 54.736 61.1224 53.2 63.1224 53.2C64.4184 53.2 65.2344 53.84 65.6344 54.416C66.0504 55.008 66.2904 56.032 66.2584 56.912H61.0904C61.1064 58.288 62.0504 59.168 63.2024 59.168C63.7464 59.168 64.1784 59.008 64.5624 58.688C64.8664 58.432 65.1064 58.096 65.2504 57.776ZM61.1704 55.952H65.0744C64.8824 54.912 64.0984 54.224 63.1224 54.224C62.1464 54.224 61.3464 54.96 61.1704 55.952ZM68.0255 60V53.36H69.1775V54.08C69.2895 53.904 69.7855 53.2 70.6815 53.2C71.0335 53.2 71.4175 53.328 71.7055 53.472L71.1615 54.512C70.9055 54.336 70.6655 54.288 70.4895 54.288C70.0255 54.288 69.7375 54.48 69.5615 54.704C69.3695 54.96 69.1775 55.408 69.1775 56.496V60H68.0255ZM75.9196 54.416H74.2876V60H73.1356V54.416H72.4956V53.36H73.1356V50.464C73.1356 49.856 73.1836 49.088 73.7756 48.592C74.0956 48.32 74.5756 48.16 75.1036 48.16C75.5196 48.16 75.7916 48.256 75.9196 48.304V49.424C75.6796 49.328 75.4076 49.28 75.1676 49.28C74.9116 49.28 74.6076 49.344 74.4316 49.632C74.2876 49.872 74.2876 50.24 74.2876 50.592V53.36H75.9196V54.416ZM80.0514 60.192C78.0354 60.192 76.5314 58.72 76.5314 56.704C76.5314 54.688 78.0194 53.2 80.0514 53.2C82.0834 53.2 83.5714 54.688 83.5714 56.704C83.5714 58.72 82.0674 60.192 80.0514 60.192ZM80.0514 54.224C78.8354 54.224 77.7154 55.088 77.7154 56.704C77.7154 58.336 78.8674 59.168 80.0514 59.168C81.2514 59.168 82.3874 58.32 82.3874 56.704C82.3874 55.072 81.2674 54.224 80.0514 54.224ZM85.338 60V53.36H86.49V54.08C86.602 53.904 87.098 53.2 87.994 53.2C88.346 53.2 88.73 53.328 89.018 53.472L88.474 54.512C88.218 54.336 87.978 54.288 87.802 54.288C87.338 54.288 87.05 54.48 86.874 54.704C86.682 54.96 86.49 55.408 86.49 56.496V60H85.338ZM90.0724 60V53.36H91.2244V54.064C91.5924 53.52 92.1684 53.2 92.8724 53.2C94.0724 53.2 94.5524 54.048 94.6804 54.272C95.3204 53.264 96.2324 53.2 96.6804 53.2C98.6484 53.2 98.8404 54.848 98.8404 55.792V60H97.6884V55.968C97.6884 55.216 97.5924 54.224 96.5044 54.224C95.1764 54.224 95.0324 55.504 95.0324 56.304V60H93.8804V56.064C93.8804 55.6 93.8964 54.224 92.6804 54.224C91.3684 54.224 91.2244 55.584 91.2244 56.384V60H90.0724ZM106.114 54.304V53.36H107.266V60H106.114V59.072C105.73 59.568 105.01 60.192 103.842 60.192C102.162 60.192 100.61 59.008 100.61 56.672C100.61 54.384 102.146 53.2 103.842 53.2C105.122 53.2 105.81 53.904 106.114 54.304ZM103.97 54.224C102.834 54.224 101.794 55.056 101.794 56.672C101.794 58.096 102.594 59.168 103.97 59.168C105.378 59.168 106.178 58 106.178 56.688C106.178 54.976 104.994 54.224 103.97 54.224ZM109.447 60V53.36H110.599V54.128C110.807 53.856 111.399 53.2 112.503 53.2C113.287 53.2 114.007 53.52 114.407 54.112C114.743 54.608 114.791 55.152 114.791 55.888V60H113.639V55.92C113.639 55.52 113.607 55.056 113.335 54.704C113.111 54.416 112.759 54.224 112.247 54.224C111.847 54.224 111.415 54.336 111.079 54.736C110.631 55.264 110.599 56.048 110.599 56.528V60H109.447ZM122.163 53.84V55.216C121.555 54.448 120.675 54.224 120.083 54.224C118.851 54.224 117.731 55.088 117.731 56.704C117.731 58.32 118.883 59.168 120.067 59.168C120.755 59.168 121.603 58.864 122.211 58.128V59.504C121.491 60.032 120.723 60.192 120.099 60.192C118.035 60.192 116.547 58.72 116.547 56.72C116.547 54.688 118.051 53.2 120.099 53.2C121.155 53.2 121.843 53.616 122.163 53.84ZM128.907 57.776L129.867 58.304C129.675 58.672 129.387 59.072 129.051 59.376C128.443 59.92 127.691 60.192 126.843 60.192C125.243 60.192 123.563 59.184 123.563 56.72C123.563 54.736 124.779 53.2 126.779 53.2C128.075 53.2 128.891 53.84 129.291 54.416C129.707 55.008 129.947 56.032 129.915 56.912H124.747C124.763 58.288 125.707 59.168 126.859 59.168C127.403 59.168 127.835 59.008 128.219 58.688C128.523 58.432 128.763 58.096 128.907 57.776ZM124.827 55.952H128.731C128.539 54.912 127.755 54.224 126.779 54.224C125.803 54.224 125.003 54.96 124.827 55.952ZM134.456 53.36H135.736L137.704 57.872L139.784 52.848L141.848 57.872L143.832 53.36H145.112L141.816 60.464L139.768 55.504L137.72 60.464L134.456 53.36ZM146.322 53.36H147.474V60H146.322V53.36ZM146.082 50.848C146.082 50.4 146.45 50.032 146.898 50.032C147.346 50.032 147.714 50.4 147.714 50.848C147.714 51.296 147.346 51.664 146.898 51.664C146.45 51.664 146.082 51.296 146.082 50.848ZM151.987 54.416H150.835V60H149.683V54.416H148.979V53.36H149.683V50.96H150.835V53.36H151.987V54.416ZM153.072 60V48.336H154.224V54.128C154.432 53.856 155.024 53.2 156.128 53.2C156.912 53.2 157.632 53.52 158.032 54.112C158.368 54.608 158.416 55.152 158.416 55.888V60H157.264V55.92C157.264 55.52 157.232 55.056 156.96 54.704C156.736 54.416 156.384 54.224 155.872 54.224C155.472 54.224 155.04 54.336 154.704 54.736C154.256 55.264 154.224 56.048 154.224 56.528V60H153.072ZM169.41 54.304V53.36H170.562V60H169.41V59.072C169.026 59.568 168.306 60.192 167.138 60.192C165.458 60.192 163.906 59.008 163.906 56.672C163.906 54.384 165.442 53.2 167.138 53.2C168.418 53.2 169.106 53.904 169.41 54.304ZM167.266 54.224C166.13 54.224 165.09 55.056 165.09 56.672C165.09 58.096 165.89 59.168 167.266 59.168C168.674 59.168 169.474 58 169.474 56.688C169.474 54.976 168.29 54.224 167.266 54.224ZM176.479 60V53.36H177.631V54.128C177.839 53.856 178.431 53.2 179.535 53.2C180.319 53.2 181.039 53.52 181.439 54.112C181.775 54.608 181.823 55.152 181.823 55.888V60H180.671V55.92C180.671 55.52 180.639 55.056 180.367 54.704C180.143 54.416 179.791 54.224 179.279 54.224C178.879 54.224 178.447 54.336 178.111 54.736C177.663 55.264 177.631 56.048 177.631 56.528V60H176.479ZM188.922 57.776L189.882 58.304C189.69 58.672 189.402 59.072 189.066 59.376C188.458 59.92 187.706 60.192 186.858 60.192C185.258 60.192 183.578 59.184 183.578 56.72C183.578 54.736 184.794 53.2 186.794 53.2C188.09 53.2 188.906 53.84 189.306 54.416C189.722 55.008 189.962 56.032 189.93 56.912H184.762C184.778 58.288 185.722 59.168 186.874 59.168C187.418 59.168 187.85 59.008 188.234 58.688C188.538 58.432 188.778 58.096 188.922 57.776ZM184.842 55.952H188.746C188.554 54.912 187.77 54.224 186.794 54.224C185.818 54.224 185.018 54.96 184.842 55.952ZM190.737 53.36H192.017L193.985 57.872L196.065 52.848L198.129 57.872L200.113 53.36H201.393L198.097 60.464L196.049 55.504L194.001 60.464L190.737 53.36ZM211.426 54.304V48.336H212.578V60H211.426V59.072C211.042 59.568 210.322 60.192 209.154 60.192C207.474 60.192 205.922 59.008 205.922 56.672C205.922 54.384 207.458 53.2 209.154 53.2C210.434 53.2 211.122 53.904 211.426 54.304ZM209.282 54.224C208.146 54.224 207.106 55.056 207.106 56.672C207.106 58.096 207.906 59.168 209.282 59.168C210.69 59.168 211.49 58 211.49 56.688C211.49 54.976 210.306 54.224 209.282 54.224ZM219.688 57.776L220.648 58.304C220.456 58.672 220.168 59.072 219.832 59.376C219.224 59.92 218.472 60.192 217.624 60.192C216.024 60.192 214.344 59.184 214.344 56.72C214.344 54.736 215.56 53.2 217.56 53.2C218.856 53.2 219.672 53.84 220.072 54.416C220.488 55.008 220.728 56.032 220.696 56.912H215.528C215.544 58.288 216.488 59.168 217.64 59.168C218.184 59.168 218.616 59.008 219 58.688C219.304 58.432 219.544 58.096 219.688 57.776ZM215.608 55.952H219.512C219.32 54.912 218.536 54.224 217.56 54.224C216.584 54.224 215.784 54.96 215.608 55.952ZM226.143 54.4L225.199 54.896C225.039 54.512 224.703 54.224 224.271 54.224C223.855 54.224 223.471 54.464 223.471 54.976C223.471 55.456 223.791 55.6 224.543 55.92C225.503 56.32 225.951 56.624 226.207 56.944C226.495 57.296 226.559 57.648 226.559 58.016C226.559 59.408 225.551 60.192 224.271 60.192C223.999 60.192 222.511 60.16 221.951 58.496L222.943 58.08C223.071 58.432 223.455 59.168 224.287 59.168C225.039 59.168 225.375 58.608 225.375 58.112C225.375 57.488 224.927 57.28 224.303 57.008C223.503 56.656 222.991 56.4 222.687 56.032C222.431 55.712 222.383 55.392 222.383 55.056C222.383 53.888 223.199 53.2 224.319 53.2C224.671 53.2 225.615 53.264 226.143 54.4ZM228.088 53.36H229.24V60H228.088V53.36ZM227.848 50.848C227.848 50.4 228.216 50.032 228.664 50.032C229.112 50.032 229.48 50.4 229.48 50.848C229.48 51.296 229.112 51.664 228.664 51.664C228.216 51.664 227.848 51.296 227.848 50.848ZM236.504 54.304V53.36H237.656V59.84C237.656 60.56 237.656 61.584 237.016 62.448C236.52 63.12 235.608 63.68 234.36 63.68C233.224 63.68 232.44 63.232 231.992 62.784C231.544 62.336 231.128 61.616 231.128 60.64H232.264C232.264 61.2 232.488 61.696 232.776 62.016C233.256 62.544 233.864 62.656 234.376 62.656C235.192 62.656 235.752 62.368 236.136 61.728C236.472 61.184 236.504 60.592 236.504 60.032V59.072C236.12 59.568 235.4 60.192 234.232 60.192C233.256 60.192 232.472 59.808 231.96 59.296C231.512 58.848 231 58.016 231 56.672C231 55.376 231.48 54.576 231.96 54.096C232.52 53.552 233.336 53.2 234.232 53.2C235.208 53.2 235.976 53.616 236.504 54.304ZM234.36 54.224C233.656 54.224 233.176 54.528 232.856 54.848C232.296 55.424 232.184 56.128 232.184 56.672C232.184 57.248 232.296 58.032 232.936 58.624C233.304 58.96 233.752 59.168 234.36 59.168C234.968 59.168 235.448 58.976 235.816 58.608C236.264 58.176 236.568 57.472 236.568 56.688C236.568 55.904 236.28 55.216 235.864 54.816C235.496 54.448 234.952 54.224 234.36 54.224ZM239.838 60V53.36H240.99V54.128C241.198 53.856 241.79 53.2 242.894 53.2C243.678 53.2 244.398 53.52 244.798 54.112C245.134 54.608 245.182 55.152 245.182 55.888V60H244.03V55.92C244.03 55.52 243.998 55.056 243.726 54.704C243.502 54.416 243.15 54.224 242.638 54.224C242.238 54.224 241.806 54.336 241.47 54.736C241.022 55.264 240.99 56.048 240.99 56.528V60H239.838ZM82.5823 78.304V77.36H83.7343V84H82.5823V83.072C82.1983 83.568 81.4783 84.192 80.3103 84.192C78.6303 84.192 77.0783 83.008 77.0783 80.672C77.0783 78.384 78.6143 77.2 80.3103 77.2C81.5903 77.2 82.2783 77.904 82.5823 78.304ZM80.4383 78.224C79.3023 78.224 78.2623 79.056 78.2623 80.672C78.2623 82.096 79.0623 83.168 80.4383 83.168C81.8463 83.168 82.6463 82 82.6463 80.688C82.6463 78.976 81.4623 78.224 80.4383 78.224ZM85.9161 84V77.36H87.0681V78.128C87.2761 77.856 87.8681 77.2 88.9721 77.2C89.7561 77.2 90.4761 77.52 90.8761 78.112C91.2121 78.608 91.2601 79.152 91.2601 79.888V84H90.1081V79.92C90.1081 79.52 90.0761 79.056 89.8041 78.704C89.5801 78.416 89.2281 78.224 88.7161 78.224C88.3161 78.224 87.8841 78.336 87.5481 78.736C87.1001 79.264 87.0681 80.048 87.0681 80.528V84H85.9161ZM98.5198 78.304V72.336H99.6718V84H98.5198V83.072C98.1358 83.568 97.4158 84.192 96.2478 84.192C94.5678 84.192 93.0158 83.008 93.0158 80.672C93.0158 78.384 94.5518 77.2 96.2478 77.2C97.5278 77.2 98.2158 77.904 98.5198 78.304ZM96.3758 78.224C95.2398 78.224 94.1998 79.056 94.1998 80.672C94.1998 82.096 94.9998 83.168 96.3758 83.168C97.7838 83.168 98.5838 82 98.5838 80.688C98.5838 78.976 97.3998 78.224 96.3758 78.224ZM105.588 77.36H106.74V84H105.588V77.36ZM105.348 74.848C105.348 74.4 105.716 74.032 106.164 74.032C106.612 74.032 106.98 74.4 106.98 74.848C106.98 75.296 106.612 75.664 106.164 75.664C105.716 75.664 105.348 75.296 105.348 74.848ZM108.916 84V77.36H110.068V78.064C110.436 77.52 111.012 77.2 111.716 77.2C112.916 77.2 113.396 78.048 113.524 78.272C114.164 77.264 115.076 77.2 115.524 77.2C117.492 77.2 117.684 78.848 117.684 79.792V84H116.532V79.968C116.532 79.216 116.436 78.224 115.348 78.224C114.02 78.224 113.876 79.504 113.876 80.304V84H112.724V80.064C112.724 79.6 112.74 78.224 111.524 78.224C110.212 78.224 110.068 79.584 110.068 80.384V84H108.916ZM121.021 83.072V87.68H119.869V77.36H121.021V78.288C121.805 77.312 122.813 77.2 123.293 77.2C125.373 77.2 126.525 78.928 126.525 80.72C126.525 82.544 125.357 84.192 123.341 84.192C122.269 84.192 121.517 83.712 121.021 83.072ZM123.181 83.168C124.525 83.168 125.341 82.048 125.341 80.72C125.341 79.088 124.237 78.224 123.165 78.224C122.093 78.224 120.957 79.104 120.957 80.704C120.957 82.064 121.821 83.168 123.181 83.168ZM128.291 84V77.36H129.443V78.08C129.555 77.904 130.051 77.2 130.947 77.2C131.299 77.2 131.683 77.328 131.971 77.472L131.427 78.512C131.171 78.336 130.931 78.288 130.755 78.288C130.291 78.288 130.003 78.48 129.827 78.704C129.635 78.96 129.443 79.408 129.443 80.496V84H128.291ZM135.739 84.192C133.723 84.192 132.219 82.72 132.219 80.704C132.219 78.688 133.707 77.2 135.739 77.2C137.771 77.2 139.259 78.688 139.259 80.704C139.259 82.72 137.755 84.192 135.739 84.192ZM135.739 78.224C134.523 78.224 133.403 79.088 133.403 80.704C133.403 82.336 134.555 83.168 135.739 83.168C136.939 83.168 138.075 82.32 138.075 80.704C138.075 79.072 136.955 78.224 135.739 78.224ZM140.066 77.36H141.346L143.33 81.84L145.314 77.36H146.594L143.33 84.432L140.066 77.36ZM152.735 81.776L153.695 82.304C153.503 82.672 153.215 83.072 152.879 83.376C152.271 83.92 151.519 84.192 150.671 84.192C149.071 84.192 147.391 83.184 147.391 80.72C147.391 78.736 148.607 77.2 150.607 77.2C151.903 77.2 152.719 77.84 153.119 78.416C153.535 79.008 153.775 80.032 153.743 80.912H148.575C148.591 82.288 149.535 83.168 150.687 83.168C151.231 83.168 151.663 83.008 152.047 82.688C152.351 82.432 152.591 82.096 152.735 81.776ZM148.655 79.952H152.559C152.367 78.912 151.583 78.224 150.607 78.224C149.631 78.224 148.831 78.96 148.655 79.952ZM160.598 78.304V72.336H161.75V84H160.598V83.072C160.214 83.568 159.494 84.192 158.326 84.192C156.646 84.192 155.094 83.008 155.094 80.672C155.094 78.384 156.63 77.2 158.326 77.2C159.606 77.2 160.294 77.904 160.598 78.304ZM158.454 78.224C157.318 78.224 156.278 79.056 156.278 80.672C156.278 82.096 157.078 83.168 158.454 83.168C159.862 83.168 160.662 82 160.662 80.688C160.662 78.976 159.478 78.224 158.454 78.224ZM168.818 83.072V87.68H167.666V77.36H168.818V78.288C169.602 77.312 170.61 77.2 171.09 77.2C173.17 77.2 174.322 78.928 174.322 80.72C174.322 82.544 173.154 84.192 171.138 84.192C170.066 84.192 169.314 83.712 168.818 83.072ZM170.978 83.168C172.322 83.168 173.138 82.048 173.138 80.72C173.138 79.088 172.034 78.224 170.962 78.224C169.89 78.224 168.754 79.104 168.754 80.704C168.754 82.064 169.618 83.168 170.978 83.168ZM181.016 81.776L181.976 82.304C181.784 82.672 181.496 83.072 181.16 83.376C180.552 83.92 179.8 84.192 178.952 84.192C177.352 84.192 175.672 83.184 175.672 80.72C175.672 78.736 176.888 77.2 178.888 77.2C180.184 77.2 181 77.84 181.4 78.416C181.816 79.008 182.056 80.032 182.024 80.912H176.856C176.872 82.288 177.816 83.168 178.968 83.168C179.512 83.168 179.944 83.008 180.328 82.688C180.632 82.432 180.872 82.096 181.016 81.776ZM176.936 79.952H180.84C180.648 78.912 179.864 78.224 178.888 78.224C177.912 78.224 177.112 78.96 176.936 79.952ZM183.791 84V77.36H184.943V78.08C185.055 77.904 185.551 77.2 186.447 77.2C186.799 77.2 187.183 77.328 187.471 77.472L186.927 78.512C186.671 78.336 186.431 78.288 186.255 78.288C185.791 78.288 185.503 78.48 185.327 78.704C185.135 78.96 184.943 79.408 184.943 80.496V84H183.791ZM191.685 78.416H190.053V84H188.901V78.416H188.261V77.36H188.901V74.464C188.901 73.856 188.949 73.088 189.541 72.592C189.861 72.32 190.341 72.16 190.869 72.16C191.285 72.16 191.557 72.256 191.685 72.304V73.424C191.445 73.328 191.173 73.28 190.933 73.28C190.677 73.28 190.373 73.344 190.197 73.632C190.053 73.872 190.053 74.24 190.053 74.592V77.36H191.685V78.416ZM195.817 84.192C193.801 84.192 192.297 82.72 192.297 80.704C192.297 78.688 193.785 77.2 195.817 77.2C197.849 77.2 199.337 78.688 199.337 80.704C199.337 82.72 197.833 84.192 195.817 84.192ZM195.817 78.224C194.601 78.224 193.481 79.088 193.481 80.704C193.481 82.336 194.633 83.168 195.817 83.168C197.017 83.168 198.153 82.32 198.153 80.704C198.153 79.072 197.033 78.224 195.817 78.224ZM201.104 84V77.36H202.256V78.08C202.368 77.904 202.864 77.2 203.76 77.2C204.112 77.2 204.496 77.328 204.784 77.472L204.24 78.512C203.984 78.336 203.744 78.288 203.568 78.288C203.104 78.288 202.816 78.48 202.64 78.704C202.448 78.96 202.256 79.408 202.256 80.496V84H201.104ZM205.838 84V77.36H206.99V78.064C207.358 77.52 207.934 77.2 208.638 77.2C209.838 77.2 210.318 78.048 210.446 78.272C211.086 77.264 211.998 77.2 212.446 77.2C214.414 77.2 214.606 78.848 214.606 79.792V84H213.454V79.968C213.454 79.216 213.358 78.224 212.27 78.224C210.942 78.224 210.798 79.504 210.798 80.304V84H209.646V80.064C209.646 79.6 209.662 78.224 208.446 78.224C207.134 78.224 206.99 79.584 206.99 80.384V84H205.838ZM221.879 78.304V77.36H223.031V84H221.879V83.072C221.495 83.568 220.775 84.192 219.607 84.192C217.927 84.192 216.375 83.008 216.375 80.672C216.375 78.384 217.911 77.2 219.607 77.2C220.887 77.2 221.575 77.904 221.879 78.304ZM219.735 78.224C218.599 78.224 217.559 79.056 217.559 80.672C217.559 82.096 218.359 83.168 219.735 83.168C221.143 83.168 221.943 82 221.943 80.688C221.943 78.976 220.759 78.224 219.735 78.224ZM225.213 84V77.36H226.365V78.128C226.573 77.856 227.165 77.2 228.269 77.2C229.053 77.2 229.773 77.52 230.173 78.112C230.509 78.608 230.557 79.152 230.557 79.888V84H229.405V79.92C229.405 79.52 229.373 79.056 229.101 78.704C228.877 78.416 228.525 78.224 228.013 78.224C227.613 78.224 227.181 78.336 226.845 78.736C226.397 79.264 226.365 80.048 226.365 80.528V84H225.213ZM237.929 77.84V79.216C237.321 78.448 236.441 78.224 235.849 78.224C234.617 78.224 233.497 79.088 233.497 80.704C233.497 82.32 234.649 83.168 235.833 83.168C236.521 83.168 237.369 82.864 237.977 82.128V83.504C237.257 84.032 236.489 84.192 235.865 84.192C233.801 84.192 232.313 82.72 232.313 80.72C232.313 78.688 233.817 77.2 235.865 77.2C236.921 77.2 237.609 77.616 237.929 77.84ZM244.672 81.776L245.632 82.304C245.44 82.672 245.152 83.072 244.816 83.376C244.208 83.92 243.456 84.192 242.608 84.192C241.008 84.192 239.328 83.184 239.328 80.72C239.328 78.736 240.544 77.2 242.544 77.2C243.84 77.2 244.656 77.84 245.056 78.416C245.472 79.008 245.712 80.032 245.68 80.912H240.512C240.528 82.288 241.472 83.168 242.624 83.168C243.168 83.168 243.6 83.008 243.984 82.688C244.288 82.432 244.528 82.096 244.672 81.776ZM240.592 79.952H244.496C244.304 78.912 243.52 78.224 242.544 78.224C241.568 78.224 240.768 78.96 240.592 79.952ZM247.383 83.36C247.383 82.928 247.751 82.56 248.183 82.56C248.615 82.56 248.983 82.928 248.983 83.36C248.983 83.792 248.615 84.16 248.183 84.16C247.751 84.16 247.383 83.792 247.383 83.36Z" fill="#808080"/>
</svg>
