<svg width="188" height="256" viewBox="0 0 188 256" fill="none" xmlns="http://www.w3.org/2000/svg">
<path fill-rule="evenodd" clip-rule="evenodd" d="M15.7244 0C15.4916 0.281946 15.2605 0.5658 15.0312 0.851562C6.17708 11.9193 1.75 26.1771 1.75 43.625C1.75 63.1562 7.54427 79.8229 19.1328 93.625C30.7214 107.427 47.388 118.56 69.1328 127.023L92.1797 136.008C111.451 143.56 125.513 152.219 134.367 161.984C143.352 171.62 147.844 183.729 147.844 198.312C147.844 216.021 142.31 229.953 131.242 240.109C120.174 250.266 106.307 255.344 89.6406 255.344C79.224 255.344 69.263 253.456 59.7578 249.68C50.3828 245.904 41.7891 240.37 33.9766 233.078C26.1641 225.656 19.3281 216.477 13.4688 205.539C7.73958 194.602 3.3125 181.841 0.1875 167.258H-0.0078125L3.3125 238.352C11.9062 243.039 23.2995 247.141 37.4922 250.656C51.8151 254.172 69.1979 255.93 89.6406 255.93C107.089 255.93 123.169 252.544 137.883 245.773C152.727 239.003 164.641 229.432 173.625 217.062C182.74 204.693 187.297 190.044 187.297 173.117C187.297 153.586 181.372 136.724 169.523 122.531C157.805 108.339 140.943 96.8151 118.938 87.9609L96.4766 78.9766C78.8984 71.9453 65.2266 63.7422 55.4609 54.3672C45.8255 44.862 41.0078 32.6875 41.0078 17.8438C41.0078 11.3584 41.9647 5.41047 43.8786 0H15.7244ZM150.794 0C151.724 1.4112 152.628 2.86692 153.508 4.36719C160.279 15.6953 165.617 29.1068 169.523 44.6016H169.719L168.176 0H150.794Z" fill="white"/>
</svg>
