<svg width="180" height="39" viewBox="0 0 180 39" fill="none" xmlns="http://www.w3.org/2000/svg">
<path d="M20.302 5.65H11.652L7.80195 37H5.60195L9.45195 5.65H0.801953L1.05195 3.65L20.552 3.65L20.302 5.65ZM29.1719 16.15C32.0219 16.15 34.9719 17.2 36.7719 19C38.2719 20.5 39.3219 22.75 39.3219 26.05C39.3219 29.95 37.8219 32.8 35.9719 34.55C34.3219 36.1 31.7219 37.55 27.6219 37.55C24.8719 37.55 22.3719 36.8 20.4219 34.75C18.8219 33.1 17.7219 30.55 17.7219 27.65C17.7219 24.5 19.0219 21.25 21.1219 19.2C23.2719 17.15 26.3219 16.15 29.1719 16.15ZM27.9219 35.65C30.4219 35.65 32.5219 34.9 34.2219 33.35C35.6719 32 37.2219 29.7 37.2219 26.25C37.2219 22.9 35.6219 21.05 35.0719 20.45C33.8219 19.15 31.8219 18.05 28.9719 18.05C26.3719 18.05 24.2719 19 22.7719 20.35C20.8219 22.1 19.8219 24.8 19.8219 27.35C19.8219 29.75 20.7219 31.95 22.1219 33.4C23.1219 34.45 24.9219 35.65 27.9219 35.65ZM43.2926 16.6H45.3926L50.3926 33.45L59.6426 15.35L64.4926 33.45L73.7926 16.6H76.0926L63.9926 38.25L59.1426 20.15L49.8926 38.25L43.2926 16.6ZM96.2863 20.6L96.7863 16.6H98.7863L96.2863 37H94.2863L94.6863 33.85C93.8863 34.95 92.8863 35.9 91.6863 36.5C90.4863 37.1 88.9363 37.55 86.9863 37.55C84.6363 37.55 82.3863 37 80.4863 35.2C79.2363 34.05 77.5363 31.75 77.5363 27.8C77.5363 24.45 78.6863 21.15 80.9863 18.95C82.4863 17.5 84.8363 16.15 88.5363 16.15C90.1363 16.15 91.9363 16.45 93.4863 17.5C94.6863 18.3 95.6863 19.45 96.2863 20.6ZM88.1363 18.05C85.8863 18.05 83.9363 18.75 82.3863 20.3C80.7363 21.95 79.6363 24.75 79.6363 27.65C79.6363 30.25 80.6363 32.45 81.9863 33.75C83.6863 35.35 85.7363 35.65 87.1863 35.65C89.0863 35.65 90.5863 35.2 92.0363 34.15C95.0363 31.95 95.7363 28.15 95.7363 25.95C95.7363 23.5 94.9363 21.4 93.6363 20.1C92.7863 19.2 91.0863 18.05 88.1363 18.05ZM103.465 37L105.965 16.6H107.965L107.665 19.25C108.065 18.5 108.765 17.6 109.615 17.05C110.415 16.5 111.515 16.15 112.615 16.15C112.915 16.15 113.765 16.2 114.615 16.65L113.415 18.45C113.215 18.3 112.765 18.05 111.965 18.05C110.965 18.05 109.915 18.55 109.165 19.35C107.515 21.1 107.065 24.25 106.765 26.75L105.465 37H103.465ZM135.204 20.7L137.704 0.549998H139.704L135.204 37H133.204L133.554 34.1C133.304 34.4 132.104 35.8 130.354 36.65C128.804 37.4 127.354 37.55 126.104 37.55C123.154 37.55 120.854 36.85 119.004 34.85C117.754 33.5 116.404 31.15 116.404 27.45C116.404 23.55 117.954 20.85 119.754 19.05C121.904 16.95 124.404 16.15 127.254 16.15C128.904 16.15 130.654 16.45 132.354 17.55C133.804 18.5 134.654 19.65 135.204 20.7ZM127.104 18.05C124.854 18.05 122.904 18.95 121.504 20.3C119.804 21.95 118.604 24.65 118.604 27.5C118.604 29.6 119.304 31.95 120.854 33.55C122.104 34.9 123.854 35.65 126.104 35.65C129.054 35.65 130.904 34.35 131.904 33.4C133.854 31.5 134.654 28.45 134.654 25.8C134.654 22.9 133.554 21.15 132.454 20.1C131.104 18.75 129.154 18.05 127.104 18.05ZM176.751 37L173.651 26.05L159.451 26.05L153.651 37H151.151L169.401 2.65L179.051 37H176.751ZM160.501 24.05L173.101 24.05L168.801 8.25L160.501 24.05Z" fill="white"/>
</svg>
