<svg width="985" height="145" viewBox="0 0 985 145" fill="none" xmlns="http://www.w3.org/2000/svg">
<path d="M34.9424 111.392C27.4717 111.392 20.9043 110.708 15.2402 109.341C9.625 107.974 5.1084 106.338 1.69043 104.434L0.518555 76.8945H1.9834C3.10645 82.0703 4.71777 86.6602 6.81738 90.6641C8.96582 94.668 11.4805 98.0371 14.3613 100.771C17.291 103.506 20.4893 105.581 23.9561 106.997C27.4717 108.413 31.1338 109.121 34.9424 109.121C41.2412 109.121 46.3438 107.339 50.25 103.774C54.2051 100.21 56.1826 95.4248 56.1826 89.4189C56.1826 84.292 54.5713 79.9951 51.3486 76.5283C48.126 73.0615 42.999 70.0098 35.9678 67.373L27.3984 64.2236C18.9023 61.0498 12.3838 56.875 7.84277 51.6992C3.30176 46.4746 1.03125 40.127 1.03125 32.6562C1.03125 26.0645 2.71582 20.5713 6.08496 16.1768C9.4541 11.7822 14.0439 8.46191 19.8545 6.21582C25.665 3.96973 32.1836 2.84668 39.4102 2.84668C46.0996 2.84668 51.7881 3.45703 56.4756 4.67773C61.1631 5.89844 64.7031 7.29004 67.0957 8.85254L67.8281 33.0957H66.3633C64.9961 27.3828 63.043 22.4512 60.5039 18.3008C58.0137 14.1016 54.9863 10.8545 51.4219 8.55957C47.9062 6.26465 43.8779 5.11719 39.3369 5.11719C32.6963 5.11719 27.6182 6.75293 24.1025 10.0244C20.6357 13.2471 18.9023 17.4219 18.9023 22.5488C18.9023 27.7246 20.6113 31.9727 24.0293 35.293C27.4961 38.5645 32.5254 41.4453 39.1172 43.9355L47.54 47.085C56.2314 50.3564 62.8232 54.7021 67.3154 60.1221C71.8076 65.4932 74.0537 71.9873 74.0537 79.6045C74.0537 86.0986 72.2959 91.7383 68.7803 96.5234C65.2646 101.26 60.5527 104.922 54.6445 107.51C48.7363 110.098 42.1689 111.392 34.9424 111.392ZM107.235 1.01562V51.626C109.14 47.4268 112.167 44.082 116.317 41.5918C120.517 39.1016 125.448 37.8564 131.112 37.8564C138.192 37.8564 143.979 39.6387 148.471 43.2031C152.963 46.7187 155.209 52.3584 155.209 60.1221V100.186C155.209 102.92 155.648 104.824 156.527 105.898C157.455 106.924 159.628 107.778 163.046 108.462V110H128.256V108.462C131.381 107.876 133.358 107.095 134.188 106.118C135.067 105.093 135.507 103.286 135.507 100.698V61.5137C135.507 55.9961 134.286 51.9189 131.845 49.2822C129.403 46.5967 125.888 45.2539 121.298 45.2539C118.075 45.2539 115.268 45.9619 112.875 47.3779C110.482 48.7451 108.603 50.6494 107.235 53.0908V100.698C107.235 103.286 107.65 105.093 108.48 106.118C109.311 107.095 111.312 107.876 114.486 108.462V110L79.6963 110V108.462C82.9678 107.778 85.0918 106.924 86.0684 105.898C87.0449 104.824 87.5332 102.92 87.5332 100.186V13.6865C87.5332 11.4404 87.2646 9.92676 86.7275 9.14551C86.2393 8.36426 85.0186 7.58301 83.0654 6.80176L79.6963 5.70312V4.23828L107.235 1.01562ZM206.188 111.245C199.06 111.245 192.59 109.78 186.779 106.851C180.969 103.872 176.33 99.6484 172.863 94.1797C169.445 88.6621 167.736 82.168 167.736 74.6973C167.736 67.4219 169.445 61.0254 172.863 55.5078C176.33 49.9902 180.969 45.6689 186.779 42.5439C192.59 39.4189 199.108 37.8564 206.335 37.8564C213.513 37.8564 220.007 39.3457 225.817 42.3242C231.628 45.2539 236.242 49.4531 239.66 54.9219C243.078 60.3906 244.787 66.8848 244.787 74.4043C244.787 81.6309 243.078 88.0273 239.66 93.5937C236.242 99.1113 231.604 103.433 225.744 106.558C219.934 109.683 213.415 111.245 206.188 111.245ZM206.481 109.048C210.095 109.048 213.171 107.656 215.71 104.873C218.298 102.09 220.251 98.1592 221.569 93.0811C222.888 87.9541 223.547 81.9238 223.547 74.9902C223.547 67.8613 222.839 61.6846 221.423 56.46C220.007 51.1865 217.98 47.1338 215.344 44.3018C212.756 41.4209 209.68 39.9805 206.115 39.9805C202.453 39.9805 199.353 41.3965 196.813 44.2285C194.274 47.0117 192.346 50.9424 191.027 56.0205C189.709 61.0986 189.05 67.1289 189.05 74.1113C189.05 81.1914 189.758 87.3682 191.174 92.6416C192.59 97.8662 194.592 101.919 197.18 104.8C199.768 107.632 202.868 109.048 206.481 109.048ZM257.607 90.4443V43.4961H249.478V42.1777L276.211 22.3291H277.236V40.2002L293.936 39.1016V43.4961L277.236 42.251V91.9092C277.236 96.4014 278.164 99.624 280.02 101.577C281.875 103.481 284.219 104.434 287.051 104.434C288.662 104.434 290.151 104.165 291.519 103.628C292.886 103.042 294.009 102.236 294.888 101.211V102.749C293.716 104.897 291.543 106.851 288.369 108.608C285.195 110.366 281.436 111.245 277.09 111.245C273.281 111.245 269.912 110.513 266.982 109.048C264.053 107.583 261.758 105.337 260.098 102.31C258.438 99.2334 257.607 95.2783 257.607 90.4443ZM324.717 9.94999H349.617L374.967 74L400.317 9.94999L425.217 9.94999L382.767 110H367.167L324.717 9.94999ZM442.764 67.4H472.014C471.864 66.8 470.814 62.6 467.664 59.6C465.264 57.35 461.814 55.85 457.464 55.85C451.914 55.85 448.614 58.1 446.514 60.2C444.864 62 443.364 64.4 442.764 67.4ZM491.964 78.05V80.3H442.014C442.014 83.9 443.364 88.7 446.064 91.7C449.364 95.3 453.864 95.9 457.164 95.9C460.314 95.9 463.614 95.3 465.864 93.95C466.164 93.8 468.714 92.15 470.514 88.4L490.914 90.5C487.914 99.95 481.914 104.9 478.014 107.3C471.564 111.2 464.364 112.25 456.864 112.25C446.814 112.25 437.964 110.45 430.164 102.65C424.314 96.8 420.114 87.95 420.114 76.85C420.114 67.25 423.564 57.35 430.314 50.45C438.414 42.35 448.464 40.85 455.964 40.85C463.464 40.85 474.264 42.2 482.514 50.9C490.464 59.3 491.964 69.8 491.964 78.05ZM502.445 110V43.1L524.045 43.1V53.6C525.995 49.85 528.995 46.4 532.445 44.3C536.045 42.05 539.795 41.45 543.995 41.45C546.695 41.45 548.645 41.75 551.045 42.5L549.845 62.75C546.995 61.25 543.845 60.35 540.095 60.35C535.445 60.35 531.995 62 529.295 64.85C524.495 69.95 524.045 77.15 524.045 82.85V110H502.445ZM606.513 46.55L597.963 60.2C594.663 58.25 590.313 56.45 586.113 56.45C583.863 56.45 581.313 57.05 579.963 58.4C579.213 59.15 578.613 60.35 578.613 61.4C578.613 62.9 579.663 63.8 580.713 64.4C582.213 65.3 584.463 65.75 587.163 66.65L592.863 68.45C596.613 69.65 600.513 71.15 603.963 74.3C607.863 77.9 609.213 81.95 609.213 87.05C609.213 95.9 605.313 101.6 602.313 104.6C595.713 111.2 587.613 112.25 580.563 112.25C571.563 112.25 561.813 110.3 553.113 102.65L562.263 88.1C564.363 89.9 567.363 92 569.613 93.05C572.613 94.55 575.763 95.15 578.613 95.15C579.963 95.15 583.413 95.15 585.363 93.65C586.713 92.6 587.613 90.95 587.613 89.3C587.613 88.1 587.163 86.6 585.213 85.4C583.713 84.5 581.763 83.9 578.613 83L573.213 81.35C569.313 80.15 565.263 78.05 562.413 75.2C559.263 71.9 557.613 68.15 557.613 63.05C557.613 56.6 560.163 51.2 564.063 47.6C570.063 42.05 578.163 40.85 584.313 40.85C594.213 40.85 601.113 43.4 606.513 46.55ZM670.352 50.6V43.1H691.952V110H670.352V101.9C664.502 110.9 656.102 112.25 650.552 112.25C640.952 112.25 632.852 109.85 625.502 102.05C618.452 94.55 615.752 85.85 615.752 77C615.752 65.75 619.952 56.15 626.102 50C631.952 44.15 640.052 40.85 649.352 40.85C655.052 40.85 664.202 42.2 670.352 50.6ZM654.752 59.45C650.102 59.45 645.752 61.4 642.902 64.25C640.652 66.5 637.952 70.4 637.952 76.4C637.952 82.4 640.502 86.3 642.452 88.4C645.452 91.55 650.102 93.65 655.202 93.65C659.552 93.65 663.602 91.85 666.452 89C669.302 86.3 671.702 82.1 671.702 76.4C671.702 71.6 669.902 67.1 666.752 64.1C663.452 60.95 658.652 59.45 654.752 59.45ZM741.251 60.5H727.901V110H706.301V60.5H698.801V43.1H706.301V21.5L727.901 21.5V43.1H741.251V60.5ZM749.025 43.1H770.625V110H749.025V43.1ZM747.225 14.6C747.225 7.55 752.775 2 759.825 2C766.875 2 772.425 7.55 772.425 14.6C772.425 21.65 766.875 27.2 759.825 27.2C752.775 27.2 747.225 21.65 747.225 14.6ZM786.58 0.649995L808.18 0.649995V110L786.58 110V0.649995ZM824.031 43.1H845.631V110H824.031V43.1ZM822.231 14.6C822.231 7.55 827.781 2 834.831 2C841.881 2 847.431 7.55 847.431 14.6C847.431 21.65 841.881 27.2 834.831 27.2C827.781 27.2 822.231 21.65 822.231 14.6ZM896.536 60.5H883.186V110H861.586V60.5H854.086V43.1H861.586V21.5H883.186V43.1H896.536V60.5ZM906.333 144.35L929.883 101.45L897.933 43.1H922.833L941.733 79.4L960.183 43.1L984.483 43.1L930.633 144.35H906.333Z" fill="white"/>
</svg>
