<svg width="1188" height="111" viewBox="0 0 1188 111" fill="none" xmlns="http://www.w3.org/2000/svg">
<mask id="path-1-outside-1_427_630" maskUnits="userSpaceOnUse" x="-1" y="-1" width="1190" height="212" fill="black">
<rect fill="white" x="-1" y="-1" width="1190" height="212"/>
<path d="M0.900002 4.89998H62.1C72.9 4.89998 97.5 5.49999 113.1 20.2C126 32.5 127.5 49.3 127.5 58C127.5 65.8 126.3 74.8 120.9 83.5C115.8 91.9 108.9 96.1 104.1 98.2C113.7 99.7 124.5 104.5 131.7 111.7C138.3 118.3 144.6 129.7 144.6 147.4C144.6 167.5 136.8 180.1 129 187.9C112.5 203.8 88.5 205 76.2 205H0.900002V4.89998ZM46.5 40.9V86.2H54C60.3 86.2 70.8 85.3 77.4 80.5C81.6 77.5 85.5 71.5 85.5 62.8C85.5 54.1 81.3 48.7 77.7 46C71.1 40.9 62.1 40.9 53.7 40.9H46.5ZM46.5 120.4V169H57.6C69.3 169 83.4 168.7 91.8 160.9C96 157 98.4 151.3 98.4 144.1C98.4 136 95.1 130.6 92.1 127.9C84 120.4 68.4 120.4 59.1 120.4H46.5ZM311.625 205L296.625 167.2H221.025L205.725 205H157.725L238.425 4.89998H280.725L359.625 205H311.625ZM234.525 131.8H284.025L259.425 64.6L234.525 131.8ZM483.155 43.9H439.655V205H393.455V43.9H349.955V4.89998H483.155V43.9ZM636.67 43.9H593.17V205H546.97V43.9H503.47V4.89998H636.67V43.9ZM661.859 4.89998H708.059V205H661.859V4.89998ZM798.858 205H752.658V4.89998H792.858L901.458 133.9V4.89998H947.658V205H907.458L798.858 75.4V205ZM1087.73 133V95.8H1187.03V97.9C1187.03 122.2 1178.33 159.1 1156.13 182.2C1133.93 205.3 1108.43 209.5 1084.73 209.5C1060.73 209.5 1034.93 205.6 1011.53 181.6C999.827 169.6 982.127 145.3 982.127 105.4C982.127 72.7 994.127 46.6 1010.93 29.5C1035.53 3.99999 1065.83 0.399988 1089.53 0.399988C1106.03 0.399988 1127.03 3.09999 1145.63 15.4C1159.13 24.4 1170.83 38.5 1178.03 51.1L1136.33 73.6C1132.43 65.8 1126.43 57.7 1118.63 52C1109.63 45.4 1099.43 42.4 1088.03 42.4C1069.73 42.4 1056.23 48.4 1046.63 58.6C1035.53 70.3 1029.53 87.4 1029.53 106C1029.53 128.8 1037.93 143.5 1046.33 151.9C1058.03 163.9 1071.53 167.5 1086.83 167.5C1106.63 167.5 1117.13 160.6 1121.63 156.7C1123.13 155.5 1132.13 147.7 1136.03 133H1087.73Z"/>
</mask>
<path d="M0.900002 4.89999V3.89999H-0.0999985V4.89999H0.900002ZM113.1 20.2L113.79 19.4762L113.786 19.4722L113.1 20.2ZM120.9 83.5L120.05 82.9726L120.045 82.981L120.9 83.5ZM104.1 98.2L103.699 97.2838L100.557 98.6585L103.946 99.188L104.1 98.2ZM129 187.9L129.694 188.62L129.701 188.614L129.707 188.607L129 187.9ZM0.900002 205H-0.0999985V206H0.900002V205ZM46.5 40.9V39.9H45.5V40.9H46.5ZM46.5 86.2H45.5V87.2H46.5V86.2ZM77.4 80.5L76.8187 79.6862L76.8118 79.6913L77.4 80.5ZM77.7 46L77.0886 46.7913L77.0943 46.7957L77.1 46.8L77.7 46ZM46.5 120.4V119.4H45.5V120.4H46.5ZM46.5 169H45.5V170H46.5V169ZM91.8 160.9L92.4805 161.633L91.8 160.9ZM92.1 127.9L91.4206 128.634L91.4258 128.639L91.431 128.643L92.1 127.9ZM0.900002 5.89999H62.1V3.89999H0.900002V5.89999ZM62.1 5.89999C67.4829 5.89999 76.2487 6.05056 85.5942 8.01608C94.9454 9.9828 104.798 13.7508 112.414 20.9278L113.786 19.4722C105.802 11.9492 95.5546 8.06718 86.0058 6.0589C76.4513 4.04941 67.5171 3.89999 62.1 3.89999V5.89999ZM112.41 20.9237C125.003 32.9311 126.5 49.3732 126.5 58H128.5C128.5 49.2268 126.997 32.0689 113.79 19.4762L112.41 20.9237ZM126.5 58C126.5 65.6979 125.316 74.4899 120.05 82.9726L121.75 84.0274C127.284 75.1101 128.5 65.9021 128.5 58H126.5ZM120.045 82.981C115.083 91.1545 108.373 95.239 103.699 97.2838L104.501 99.1161C109.427 96.961 116.517 92.6455 121.755 84.019L120.045 82.981ZM103.946 99.188C113.373 100.661 123.967 105.381 130.993 112.407L132.407 110.993C125.033 103.619 114.027 98.739 104.254 97.212L103.946 99.188ZM130.993 112.407C137.4 118.814 143.6 129.957 143.6 147.4H145.6C145.6 129.443 139.2 117.786 132.407 110.993L130.993 112.407ZM143.6 147.4C143.6 167.203 135.929 179.557 128.293 187.193L129.707 188.607C137.671 180.643 145.6 167.797 145.6 147.4H143.6ZM128.306 187.18C112.118 202.779 88.4951 204 76.2 204V206C88.5049 206 112.882 204.821 129.694 188.62L128.306 187.18ZM76.2 204H0.900002V206H76.2V204ZM1.9 205V4.89999H-0.0999985V205H1.9ZM45.5 40.9V86.2H47.5V40.9H45.5ZM46.5 87.2H54V85.2H46.5V87.2ZM54 87.2C57.1916 87.2 61.4593 86.9725 65.7786 86.1316C70.0858 85.293 74.5215 83.8299 77.9882 81.3087L76.8118 79.6913C73.6785 81.97 69.5642 83.357 65.3964 84.1684C61.2407 84.9775 57.1084 85.2 54 85.2V87.2ZM77.9812 81.3137C82.452 78.1203 86.5 71.813 86.5 62.8H84.5C84.5 71.187 80.748 76.8797 76.8188 79.6863L77.9812 81.3137ZM86.5 62.8C86.5 53.7392 82.1126 48.0594 78.3 45.2L77.1 46.8C80.4875 49.3406 84.5 54.4608 84.5 62.8H86.5ZM78.3115 45.2087C71.3918 39.8617 62.0117 39.9 53.7 39.9V41.9C62.1883 41.9 70.8082 41.9383 77.0886 46.7913L78.3115 45.2087ZM53.7 39.9H46.5V41.9H53.7V39.9ZM45.5 120.4V169H47.5V120.4H45.5ZM46.5 170H57.6V168H46.5V170ZM57.6 170C63.4459 170 69.9759 169.927 76.1088 168.86C82.2404 167.794 88.0809 165.718 92.4805 161.633L91.1196 160.167C87.1191 163.882 81.7096 165.856 75.7662 166.89C69.8241 167.923 63.4541 168 57.6 168V170ZM92.4805 161.633C96.9158 157.514 99.4 151.532 99.4 144.1H97.4C97.4 151.068 95.0842 156.486 91.1196 160.167L92.4805 161.633ZM99.4 144.1C99.4 135.718 95.9805 130.047 92.769 127.157L91.431 128.643C94.2195 131.153 97.4 136.282 97.4 144.1H99.4ZM92.7794 127.166C88.5095 123.213 82.3441 121.297 76.2025 120.349C70.0406 119.398 63.7414 119.4 59.1 119.4V121.4C63.7586 121.4 69.9094 121.402 75.8975 122.326C81.9059 123.253 87.5905 125.087 91.4206 128.634L92.7794 127.166ZM59.1 119.4H46.5V121.4H59.1V119.4ZM311.625 205L310.696 205.369L310.946 206H311.625V205ZM296.625 167.2L297.555 166.831L297.304 166.2H296.625V167.2ZM221.025 167.2V166.2H220.351L220.098 166.825L221.025 167.2ZM205.725 205V206H206.399L206.652 205.375L205.725 205ZM157.725 205L156.798 204.626L156.243 206H157.725V205ZM238.425 4.89999V3.89999H237.75L237.498 4.52596L238.425 4.89999ZM280.725 4.89999L281.655 4.53316L281.406 3.89999H280.725V4.89999ZM359.625 205V206H361.094L360.555 204.633L359.625 205ZM234.525 131.8L233.587 131.453L233.088 132.8H234.525V131.8ZM284.025 131.8V132.8H285.456L284.964 131.456L284.025 131.8ZM259.425 64.6L260.364 64.2562L259.431 61.7065L258.487 64.2525L259.425 64.6ZM312.555 204.631L297.555 166.831L295.696 167.569L310.696 205.369L312.555 204.631ZM296.625 166.2H221.025V168.2H296.625V166.2ZM220.098 166.825L204.798 204.625L206.652 205.375L221.952 167.575L220.098 166.825ZM205.725 204H157.725V206H205.725V204ZM158.652 205.374L239.352 5.27401L237.498 4.52596L156.798 204.626L158.652 205.374ZM238.425 5.89999H280.725V3.89999H238.425V5.89999ZM279.795 5.2668L358.695 205.367L360.555 204.633L281.655 4.53316L279.795 5.2668ZM359.625 204H311.625V206H359.625V204ZM234.525 132.8H284.025V130.8H234.525V132.8ZM284.964 131.456L260.364 64.2562L258.486 64.9438L283.086 132.144L284.964 131.456ZM258.487 64.2525L233.587 131.453L235.463 132.147L260.363 64.9474L258.487 64.2525ZM483.155 43.9V44.9H484.155V43.9H483.155ZM439.655 43.9V42.9H438.655V43.9H439.655ZM439.655 205V206H440.655V205H439.655ZM393.455 205H392.455V206H393.455V205ZM393.455 43.9H394.455V42.9H393.455V43.9ZM349.955 43.9H348.955V44.9H349.955V43.9ZM349.955 4.89999V3.89999H348.955V4.89999H349.955ZM483.155 4.89999H484.155V3.89999H483.155V4.89999ZM483.155 42.9H439.655V44.9H483.155V42.9ZM438.655 43.9V205H440.655V43.9H438.655ZM439.655 204H393.455V206H439.655V204ZM394.455 205V43.9H392.455V205H394.455ZM393.455 42.9H349.955V44.9H393.455V42.9ZM350.955 43.9V4.89999H348.955V43.9H350.955ZM349.955 5.89999H483.155V3.89999H349.955V5.89999ZM482.155 4.89999V43.9H484.155V4.89999H482.155ZM636.67 43.9V44.9H637.67V43.9H636.67ZM593.17 43.9V42.9H592.17V43.9H593.17ZM593.17 205V206H594.17V205H593.17ZM546.97 205H545.97V206H546.97V205ZM546.97 43.9H547.97V42.9H546.97V43.9ZM503.47 43.9H502.47V44.9H503.47V43.9ZM503.47 4.89999V3.89999H502.47V4.89999H503.47ZM636.67 4.89999H637.67V3.89999H636.67V4.89999ZM636.67 42.9H593.17V44.9H636.67V42.9ZM592.17 43.9V205H594.17V43.9H592.17ZM593.17 204H546.97V206H593.17V204ZM547.97 205V43.9H545.97V205H547.97ZM546.97 42.9H503.47V44.9H546.97V42.9ZM504.47 43.9V4.89999H502.47V43.9H504.47ZM503.47 5.89999H636.67V3.89999H503.47V5.89999ZM635.67 4.89999V43.9H637.67V4.89999H635.67ZM661.859 4.89999V3.89999H660.859V4.89999H661.859ZM708.059 4.89999H709.059V3.89999H708.059V4.89999ZM708.059 205V206H709.059V205H708.059ZM661.859 205H660.859V206H661.859V205ZM661.859 5.89999H708.059V3.89999H661.859V5.89999ZM707.059 4.89999V205H709.059V4.89999H707.059ZM708.059 204H661.859V206H708.059V204ZM662.859 205V4.89999H660.859V205H662.859ZM798.858 205V206H799.858V205H798.858ZM752.658 205H751.658V206H752.658V205ZM752.658 4.89999V3.89999H751.658V4.89999H752.658ZM792.858 4.89999L793.623 4.25596L793.323 3.89999H792.858V4.89999ZM901.458 133.9L900.693 134.544L902.458 136.641V133.9H901.458ZM901.458 4.89999V3.89999H900.458V4.89999H901.458ZM947.658 4.89999H948.658V3.89999H947.658V4.89999ZM947.658 205V206H948.658V205H947.658ZM907.458 205L906.691 205.642L906.991 206H907.458V205ZM798.858 75.4L799.624 74.7577L797.858 72.6497V75.4H798.858ZM798.858 204H752.658V206H798.858V204ZM753.658 205V4.89999H751.658V205H753.658ZM752.658 5.89999H792.858V3.89999H752.658V5.89999ZM792.093 5.54401L900.693 134.544L902.223 133.256L793.623 4.25596L792.093 5.54401ZM902.458 133.9V4.89999H900.458V133.9H902.458ZM901.458 5.89999H947.658V3.89999H901.458V5.89999ZM946.658 4.89999V205H948.658V4.89999H946.658ZM947.658 204H907.458V206H947.658V204ZM908.224 204.358L799.624 74.7577L798.091 76.0423L906.691 205.642L908.224 204.358ZM797.858 75.4V205H799.858V75.4H797.858ZM1087.73 133H1086.73V134H1087.73V133ZM1087.73 95.8V94.8H1086.73V95.8H1087.73ZM1187.03 95.8H1188.03V94.8H1187.03V95.8ZM1156.13 182.2L1156.85 182.893L1156.13 182.2ZM1011.53 181.6L1010.81 182.298L1011.53 181.6ZM1010.93 29.5L1011.64 30.2008L1011.65 30.1943L1010.93 29.5ZM1145.63 15.4L1146.18 14.5679L1146.18 14.5659L1145.63 15.4ZM1178.03 51.1L1178.5 51.9801L1179.4 51.4935L1178.9 50.6039L1178.03 51.1ZM1136.33 73.6L1135.43 74.0472L1135.89 74.9699L1136.8 74.4801L1136.33 73.6ZM1118.63 52L1118.04 52.8064L1118.04 52.8074L1118.63 52ZM1046.63 58.6L1047.35 59.2883L1047.36 59.2854L1046.63 58.6ZM1046.33 151.9L1047.04 151.202L1047.03 151.193L1046.33 151.9ZM1121.63 156.7L1121 155.919L1120.99 155.931L1120.97 155.944L1121.63 156.7ZM1136.03 133L1136.99 133.256L1137.33 132H1136.03V133ZM1088.73 133V95.8H1086.73V133H1088.73ZM1087.73 96.8H1187.03V94.8H1087.73V96.8ZM1186.03 95.8V97.9H1188.03V95.8H1186.03ZM1186.03 97.9C1186.03 122.046 1177.37 158.657 1155.41 181.507L1156.85 182.893C1179.29 159.543 1188.03 122.354 1188.03 97.9H1186.03ZM1155.41 181.507C1133.47 204.328 1108.3 208.5 1084.73 208.5V210.5C1108.56 210.5 1134.38 206.272 1156.85 182.893L1155.41 181.507ZM1084.73 208.5C1060.86 208.5 1035.38 204.627 1012.24 180.902L1010.81 182.298C1034.48 206.573 1060.6 210.5 1084.73 210.5V208.5ZM1012.24 180.902C1000.67 169.032 983.127 144.969 983.127 105.4H981.127C981.127 145.631 998.985 170.168 1010.81 182.298L1012.24 180.902ZM983.127 105.4C983.127 72.9509 995.032 47.1059 1011.64 30.2008L1010.21 28.7992C993.223 46.0941 981.127 72.4491 981.127 105.4H983.127ZM1011.65 30.1943C1035.96 4.98924 1065.92 1.39999 1089.53 1.39999V-0.600014C1065.74 -0.600014 1035.09 3.01075 1010.21 28.8057L1011.65 30.1943ZM1089.53 1.39999C1105.93 1.39999 1126.71 4.08768 1145.08 16.2341L1146.18 14.5659C1127.35 2.1123 1106.12 -0.600014 1089.53 -0.600014V1.39999ZM1145.07 16.232C1158.42 25.1271 1170.02 39.098 1177.16 51.5961L1178.9 50.6039C1171.64 37.902 1159.84 23.6729 1146.18 14.5679L1145.07 16.232ZM1177.55 50.2199L1135.85 72.7199L1136.8 74.4801L1178.5 51.9801L1177.55 50.2199ZM1137.22 73.1528C1133.27 65.2467 1127.18 57.0081 1119.22 51.1926L1118.04 52.8074C1125.68 58.3918 1131.59 66.3532 1135.43 74.0472L1137.22 73.1528ZM1119.22 51.1936C1110.03 44.4542 1099.62 41.4 1088.03 41.4V43.4C1099.24 43.4 1109.23 46.3458 1118.04 52.8064L1119.22 51.1936ZM1088.03 41.4C1069.49 41.4 1055.71 47.4896 1045.9 57.9146L1047.36 59.2854C1056.74 49.3104 1069.97 43.4 1088.03 43.4V41.4ZM1045.9 57.9117C1034.59 69.833 1028.53 87.1973 1028.53 106H1030.53C1030.53 87.6027 1036.46 70.767 1047.35 59.2883L1045.9 57.9117ZM1028.53 106C1028.53 129.067 1037.03 144.021 1045.62 152.607L1047.03 151.193C1038.82 142.979 1030.53 128.533 1030.53 106H1028.53ZM1045.61 152.598C1057.55 164.847 1071.35 168.5 1086.83 168.5V166.5C1071.71 166.5 1058.5 162.953 1047.04 151.202L1045.61 152.598ZM1086.83 168.5C1106.89 168.5 1117.62 161.499 1122.28 157.456L1120.97 155.944C1116.64 159.701 1106.37 166.5 1086.83 166.5V168.5ZM1122.25 157.481C1123.85 156.206 1133.02 148.239 1136.99 133.256L1135.06 132.744C1131.24 147.161 1122.41 154.794 1121 155.919L1122.25 157.481ZM1136.03 132H1087.73V134H1136.03V132Z" fill="#999999" mask="url(#path-1-outside-1_427_630)"/>
</svg>
