<svg width="455" height="163" viewBox="0 0 455 163" fill="none" xmlns="http://www.w3.org/2000/svg">
<path d="M9.064 3.866H5.5L5.5 17H3.872L3.872 3.866H0.308L0.308 2.326L9.064 2.326V3.866ZM9.27334 17L9.27334 0.961999H10.8573V8.926C11.1433 8.552 11.9573 7.65 13.4753 7.65C14.5533 7.65 15.5433 8.09 16.0933 8.904C16.5553 9.586 16.6213 10.334 16.6213 11.346V17H15.0373V11.39C15.0373 10.84 14.9933 10.202 14.6193 9.718C14.3113 9.322 13.8273 9.058 13.1233 9.058C12.5733 9.058 11.9793 9.212 11.5173 9.762C10.9013 10.488 10.8573 11.566 10.8573 12.226V17H9.27334ZM26.1685 13.942L27.4885 14.668C27.2245 15.174 26.8285 15.724 26.3665 16.142C25.5305 16.89 24.4965 17.264 23.3305 17.264C21.1305 17.264 18.8205 15.878 18.8205 12.49C18.8205 9.762 20.4925 7.65 23.2425 7.65C25.0245 7.65 26.1465 8.53 26.6965 9.322C27.2685 10.136 27.5985 11.544 27.5545 12.754H20.4485C20.4705 14.646 21.7685 15.856 23.3525 15.856C24.1005 15.856 24.6945 15.636 25.2225 15.196C25.6405 14.844 25.9705 14.382 26.1685 13.942ZM20.5585 11.434H25.9265C25.6625 10.004 24.5845 9.058 23.2425 9.058C21.9005 9.058 20.8005 10.07 20.5585 11.434ZM36.703 15.724V22.06H35.119V7.87H36.703V9.146C37.781 7.804 39.167 7.65 39.827 7.65C42.687 7.65 44.271 10.026 44.271 12.49C44.271 14.998 42.665 17.264 39.893 17.264C38.419 17.264 37.385 16.604 36.703 15.724ZM39.673 15.856C41.521 15.856 42.643 14.316 42.643 12.49C42.643 10.246 41.125 9.058 39.651 9.058C38.177 9.058 36.615 10.268 36.615 12.468C36.615 14.338 37.803 15.856 39.673 15.856ZM46.6991 17V7.87H48.2831V8.86C48.4371 8.618 49.1191 7.65 50.3511 7.65C50.8351 7.65 51.3631 7.826 51.7591 8.024L51.0111 9.454C50.6591 9.212 50.3291 9.146 50.0871 9.146C49.4491 9.146 49.0531 9.41 48.8111 9.718C48.5471 10.07 48.2831 10.686 48.2831 12.182V17H46.6991ZM56.9398 17.264C54.1678 17.264 52.0998 15.24 52.0998 12.468C52.0998 9.696 54.1458 7.65 56.9398 7.65C59.7338 7.65 61.7798 9.696 61.7798 12.468C61.7798 15.24 59.7118 17.264 56.9398 17.264ZM56.9398 9.058C55.2678 9.058 53.7278 10.246 53.7278 12.468C53.7278 14.712 55.3118 15.856 56.9398 15.856C58.5898 15.856 60.1518 14.69 60.1518 12.468C60.1518 10.224 58.6118 9.058 56.9398 9.058ZM68.0237 2.326H69.8277L73.9637 13.524L78.0997 2.326L79.9037 2.326L73.9637 17.88L68.0237 2.326ZM85.9243 17V3.866H83.4603L84.3183 2.326H87.5523V17L85.9243 17ZM99.2069 7.87H100.791V17H99.2069V7.87ZM98.8769 4.416C98.8769 3.8 99.3829 3.294 99.9989 3.294C100.615 3.294 101.121 3.8 101.121 4.416C101.121 5.032 100.615 5.538 99.9989 5.538C99.3829 5.538 98.8769 5.032 98.8769 4.416ZM108.843 9.3L107.545 9.982C107.325 9.454 106.863 9.058 106.269 9.058C105.697 9.058 105.169 9.388 105.169 10.092C105.169 10.752 105.609 10.95 106.643 11.39C107.963 11.94 108.579 12.358 108.931 12.798C109.327 13.282 109.415 13.766 109.415 14.272C109.415 16.186 108.029 17.264 106.269 17.264C105.895 17.264 103.849 17.22 103.079 14.932L104.443 14.36C104.619 14.844 105.147 15.856 106.291 15.856C107.325 15.856 107.787 15.086 107.787 14.404C107.787 13.546 107.171 13.26 106.313 12.886C105.213 12.402 104.509 12.05 104.091 11.544C103.739 11.104 103.673 10.664 103.673 10.202C103.673 8.596 104.795 7.65 106.335 7.65C106.819 7.65 108.117 7.738 108.843 9.3ZM123.428 13.942L124.748 14.668C124.484 15.174 124.088 15.724 123.626 16.142C122.79 16.89 121.756 17.264 120.59 17.264C118.39 17.264 116.08 15.878 116.08 12.49C116.08 9.762 117.752 7.65 120.502 7.65C122.284 7.65 123.406 8.53 123.956 9.322C124.528 10.136 124.858 11.544 124.814 12.754H117.708C117.73 14.646 119.028 15.856 120.612 15.856C121.36 15.856 121.954 15.636 122.482 15.196C122.9 14.844 123.23 14.382 123.428 13.942ZM117.818 11.434H123.186C122.922 10.004 121.844 9.058 120.502 9.058C119.16 9.058 118.06 10.07 117.818 11.434ZM134.24 9.168V7.87H135.824V22.06H134.24V15.724C133.712 16.406 132.722 17.264 131.116 17.264C128.806 17.264 126.672 15.636 126.672 12.424C126.672 9.278 128.784 7.65 131.116 7.65C132.876 7.65 133.822 8.618 134.24 9.168ZM131.292 9.058C129.73 9.058 128.3 10.202 128.3 12.424C128.3 14.382 129.4 15.856 131.292 15.856C133.228 15.856 134.328 14.25 134.328 12.446C134.328 10.092 132.7 9.058 131.292 9.058ZM140.408 7.87V13.194C140.408 13.832 140.408 14.58 140.848 15.152C141.09 15.46 141.574 15.856 142.454 15.856C143.334 15.856 143.818 15.46 144.06 15.152C144.5 14.58 144.5 13.832 144.5 13.194V7.87H146.084V13.37C146.084 14.492 145.974 15.328 145.248 16.12C144.434 16.978 143.356 17.264 142.454 17.264C141.552 17.264 140.474 16.978 139.66 16.12C138.934 15.328 138.824 14.492 138.824 13.37V7.87H140.408ZM149.072 7.87H150.656V17H149.072V7.87ZM148.742 4.416C148.742 3.8 149.248 3.294 149.864 3.294C150.48 3.294 150.986 3.8 150.986 4.416C150.986 5.032 150.48 5.538 149.864 5.538C149.248 5.538 148.742 5.032 148.742 4.416ZM155.232 15.724V22.06H153.648V7.87H155.232V9.146C156.31 7.804 157.696 7.65 158.356 7.65C161.216 7.65 162.8 10.026 162.8 12.49C162.8 14.998 161.194 17.264 158.422 17.264C156.948 17.264 155.914 16.604 155.232 15.724ZM158.202 15.856C160.05 15.856 161.172 14.316 161.172 12.49C161.172 10.246 159.654 9.058 158.18 9.058C156.706 9.058 155.144 10.268 155.144 12.468C155.144 14.338 156.332 15.856 158.202 15.856ZM166.812 15.724V22.06H165.228V7.87H166.812V9.146C167.89 7.804 169.276 7.65 169.936 7.65C172.796 7.65 174.38 10.026 174.38 12.49C174.38 14.998 172.774 17.264 170.002 17.264C168.528 17.264 167.494 16.604 166.812 15.724ZM169.782 15.856C171.63 15.856 172.752 14.316 172.752 12.49C172.752 10.246 171.234 9.058 169.76 9.058C168.286 9.058 166.724 10.268 166.724 12.468C166.724 14.338 167.912 15.856 169.782 15.856ZM183.585 13.942L184.905 14.668C184.641 15.174 184.245 15.724 183.783 16.142C182.947 16.89 181.913 17.264 180.747 17.264C178.546 17.264 176.237 15.878 176.237 12.49C176.237 9.762 177.909 7.65 180.659 7.65C182.441 7.65 183.563 8.53 184.113 9.322C184.685 10.136 185.015 11.544 184.971 12.754H177.865C177.887 14.646 179.185 15.856 180.769 15.856C181.517 15.856 182.111 15.636 182.639 15.196C183.057 14.844 183.387 14.382 183.585 13.942ZM177.975 11.434H183.343C183.079 10.004 182.001 9.058 180.659 9.058C179.317 9.058 178.216 10.07 177.975 11.434ZM194.396 9.168V0.961999L195.98 0.961999V17H194.396V15.724C193.868 16.406 192.878 17.264 191.272 17.264C188.962 17.264 186.828 15.636 186.828 12.424C186.828 9.278 188.94 7.65 191.272 7.65C193.032 7.65 193.978 8.618 194.396 9.168ZM191.448 9.058C189.886 9.058 188.456 10.202 188.456 12.424C188.456 14.382 189.556 15.856 191.448 15.856C193.384 15.856 194.484 14.25 194.484 12.446C194.484 10.092 192.856 9.058 191.448 9.058ZM202.795 7.87H204.555L207.261 14.074L210.121 7.166L212.959 14.074L215.687 7.87H217.447L212.915 17.638L210.099 10.818L207.283 17.638L202.795 7.87ZM219.111 7.87H220.695V17H219.111V7.87ZM218.781 4.416C218.781 3.8 219.287 3.294 219.903 3.294C220.519 3.294 221.025 3.8 221.025 4.416C221.025 5.032 220.519 5.538 219.903 5.538C219.287 5.538 218.781 5.032 218.781 4.416ZM226.899 9.322H225.315V17H223.731V9.322H222.763V7.87H223.731V4.57H225.315V7.87H226.899V9.322ZM228.392 17V0.961999H229.976V8.926C230.262 8.552 231.076 7.65 232.594 7.65C233.672 7.65 234.662 8.09 235.212 8.904C235.674 9.586 235.74 10.334 235.74 11.346V17H234.156V11.39C234.156 10.84 234.112 10.202 233.738 9.718C233.43 9.322 232.946 9.058 232.242 9.058C231.692 9.058 231.098 9.212 230.636 9.762C230.02 10.488 229.976 11.566 229.976 12.226V17H228.392ZM247.073 9.322L245.489 9.322V17H243.905V9.322H242.937V7.87H243.905V4.57H245.489V7.87L247.073 7.87V9.322ZM255.342 13.942L256.662 14.668C256.398 15.174 256.002 15.724 255.54 16.142C254.704 16.89 253.67 17.264 252.504 17.264C250.304 17.264 247.994 15.878 247.994 12.49C247.994 9.762 249.666 7.65 252.416 7.65C254.198 7.65 255.32 8.53 255.87 9.322C256.442 10.136 256.772 11.544 256.728 12.754H249.622C249.644 14.646 250.942 15.856 252.526 15.856C253.274 15.856 253.868 15.636 254.396 15.196C254.814 14.844 255.144 14.382 255.342 13.942ZM249.732 11.434H255.1C254.836 10.004 253.758 9.058 252.416 9.058C251.074 9.058 249.974 10.07 249.732 11.434ZM266.308 8.53V10.422C265.472 9.366 264.262 9.058 263.448 9.058C261.754 9.058 260.214 10.246 260.214 12.468C260.214 14.69 261.798 15.856 263.426 15.856C264.372 15.856 265.538 15.438 266.374 14.426V16.318C265.384 17.044 264.328 17.264 263.47 17.264C260.632 17.264 258.586 15.24 258.586 12.49C258.586 9.696 260.654 7.65 263.47 7.65C264.922 7.65 265.868 8.222 266.308 8.53ZM268.805 17V0.961999H270.389V8.926C270.675 8.552 271.489 7.65 273.007 7.65C274.085 7.65 275.075 8.09 275.625 8.904C276.087 9.586 276.153 10.334 276.153 11.346V17H274.569V11.39C274.569 10.84 274.525 10.202 274.151 9.718C273.843 9.322 273.359 9.058 272.655 9.058C272.105 9.058 271.511 9.212 271.049 9.762C270.433 10.488 270.389 11.566 270.389 12.226V17H268.805ZM279.139 17V7.87H280.723V8.926C281.009 8.552 281.823 7.65 283.341 7.65C284.419 7.65 285.409 8.09 285.959 8.904C286.421 9.586 286.487 10.334 286.487 11.346V17H284.903V11.39C284.903 10.84 284.859 10.202 284.485 9.718C284.177 9.322 283.693 9.058 282.989 9.058C282.439 9.058 281.845 9.212 281.383 9.762C280.767 10.488 280.723 11.566 280.723 12.226V17H279.139ZM293.741 17.264C290.969 17.264 288.901 15.24 288.901 12.468C288.901 9.696 290.947 7.65 293.741 7.65C296.535 7.65 298.581 9.696 298.581 12.468C298.581 15.24 296.513 17.264 293.741 17.264ZM293.741 9.058C292.069 9.058 290.529 10.246 290.529 12.468C290.529 14.712 292.113 15.856 293.741 15.856C295.391 15.856 296.953 14.69 296.953 12.468C296.953 10.224 295.413 9.058 293.741 9.058ZM301.01 0.961999H302.594V17H301.01V0.961999ZM309.854 17.264C307.082 17.264 305.014 15.24 305.014 12.468C305.014 9.696 307.06 7.65 309.854 7.65C312.648 7.65 314.694 9.696 314.694 12.468C314.694 15.24 312.626 17.264 309.854 17.264ZM309.854 9.058C308.182 9.058 306.642 10.246 306.642 12.468C306.642 14.712 308.226 15.856 309.854 15.856C311.504 15.856 313.066 14.69 313.066 12.468C313.066 10.224 311.526 9.058 309.854 9.058ZM324.119 9.168V7.87H325.703V16.78C325.703 17.77 325.703 19.178 324.823 20.366C324.141 21.29 322.887 22.06 321.171 22.06C319.609 22.06 318.531 21.444 317.915 20.828C317.299 20.212 316.727 19.222 316.727 17.88H318.289C318.289 18.65 318.597 19.332 318.993 19.772C319.653 20.498 320.489 20.652 321.193 20.652C322.315 20.652 323.085 20.256 323.613 19.376C324.075 18.628 324.119 17.814 324.119 17.044V15.724C323.591 16.406 322.601 17.264 320.995 17.264C319.653 17.264 318.575 16.736 317.871 16.032C317.255 15.416 316.551 14.272 316.551 12.424C316.551 10.642 317.211 9.542 317.871 8.882C318.641 8.134 319.763 7.65 320.995 7.65C322.337 7.65 323.393 8.222 324.119 9.168ZM321.171 9.058C320.203 9.058 319.543 9.476 319.103 9.916C318.333 10.708 318.179 11.676 318.179 12.424C318.179 13.216 318.333 14.294 319.213 15.108C319.719 15.57 320.335 15.856 321.171 15.856C322.007 15.856 322.667 15.592 323.173 15.086C323.789 14.492 324.207 13.524 324.207 12.446C324.207 11.368 323.811 10.422 323.239 9.872C322.733 9.366 321.985 9.058 321.171 9.058ZM328.681 22.06L331.585 16.142L327.383 7.87H329.187L332.421 14.404L335.391 7.87H337.151L330.441 22.06H328.681ZM347.169 9.322H345.585V17H344.001V9.322H343.033V7.87H344.001V4.57H345.585V7.87H347.169V9.322ZM348.662 17V0.961999H350.246V8.926C350.532 8.552 351.346 7.65 352.864 7.65C353.942 7.65 354.932 8.09 355.482 8.904C355.944 9.586 356.01 10.334 356.01 11.346V17H354.426V11.39C354.426 10.84 354.382 10.202 354.008 9.718C353.7 9.322 353.216 9.058 352.512 9.058C351.962 9.058 351.368 9.212 350.906 9.762C350.29 10.488 350.246 11.566 350.246 12.226V17H348.662ZM365.992 9.168V7.87H367.576V17H365.992V15.724C365.464 16.406 364.474 17.264 362.868 17.264C360.558 17.264 358.424 15.636 358.424 12.424C358.424 9.278 360.536 7.65 362.868 7.65C364.628 7.65 365.574 8.618 365.992 9.168ZM363.044 9.058C361.482 9.058 360.052 10.202 360.052 12.424C360.052 14.382 361.152 15.856 363.044 15.856C364.98 15.856 366.08 14.25 366.08 12.446C366.08 10.092 364.452 9.058 363.044 9.058ZM373.788 9.322H372.204V17H370.62V9.322H369.652V7.87H370.62V4.57H372.204V7.87H373.788V9.322ZM380.416 7.87H382V17H380.416V7.87ZM380.086 4.416C380.086 3.8 380.592 3.294 381.208 3.294C381.824 3.294 382.33 3.8 382.33 4.416C382.33 5.032 381.824 5.538 381.208 5.538C380.592 5.538 380.086 5.032 380.086 4.416ZM384.992 17V7.87H386.576V8.838C387.082 8.09 387.874 7.65 388.842 7.65C390.492 7.65 391.152 8.816 391.328 9.124C392.208 7.738 393.462 7.65 394.078 7.65C396.784 7.65 397.048 9.916 397.048 11.214V17H395.464V11.456C395.464 10.422 395.332 9.058 393.836 9.058C392.01 9.058 391.812 10.818 391.812 11.918V17H390.228V11.588C390.228 10.95 390.25 9.058 388.578 9.058C386.774 9.058 386.576 10.928 386.576 12.028V17H384.992ZM401.637 15.724V22.06H400.053V7.87H401.637V9.146C402.715 7.804 404.101 7.65 404.761 7.65C407.621 7.65 409.205 10.026 409.205 12.49C409.205 14.998 407.599 17.264 404.827 17.264C403.353 17.264 402.319 16.604 401.637 15.724ZM404.607 15.856C406.455 15.856 407.577 14.316 407.577 12.49C407.577 10.246 406.059 9.058 404.585 9.058C403.111 9.058 401.549 10.268 401.549 12.468C401.549 14.338 402.737 15.856 404.607 15.856ZM411.633 17V7.87H413.217V8.86C413.371 8.618 414.053 7.65 415.285 7.65C415.769 7.65 416.297 7.826 416.693 8.024L415.945 9.454C415.593 9.212 415.263 9.146 415.021 9.146C414.383 9.146 413.987 9.41 413.745 9.718C413.481 10.07 413.217 10.686 413.217 12.182V17H411.633ZM421.873 17.264C419.101 17.264 417.033 15.24 417.033 12.468C417.033 9.696 419.079 7.65 421.873 7.65C424.667 7.65 426.713 9.696 426.713 12.468C426.713 15.24 424.645 17.264 421.873 17.264ZM421.873 9.058C420.201 9.058 418.661 10.246 418.661 12.468C418.661 14.712 420.245 15.856 421.873 15.856C423.523 15.856 425.085 14.69 425.085 12.468C425.085 10.224 423.545 9.058 421.873 9.058ZM427.822 7.87H429.582L432.31 14.03L435.038 7.87H436.798L432.31 17.594L427.822 7.87ZM445.243 13.942L446.563 14.668C446.299 15.174 445.903 15.724 445.441 16.142C444.605 16.89 443.571 17.264 442.405 17.264C440.205 17.264 437.895 15.878 437.895 12.49C437.895 9.762 439.567 7.65 442.317 7.65C444.099 7.65 445.221 8.53 445.771 9.322C446.343 10.136 446.673 11.544 446.629 12.754H439.523C439.545 14.646 440.843 15.856 442.427 15.856C443.175 15.856 443.769 15.636 444.297 15.196C444.715 14.844 445.045 14.382 445.243 13.942ZM439.633 11.434H445.001C444.737 10.004 443.659 9.058 442.317 9.058C440.975 9.058 439.875 10.07 439.633 11.434ZM454.119 9.3L452.821 9.982C452.601 9.454 452.139 9.058 451.545 9.058C450.973 9.058 450.445 9.388 450.445 10.092C450.445 10.752 450.885 10.95 451.919 11.39C453.239 11.94 453.855 12.358 454.207 12.798C454.603 13.282 454.691 13.766 454.691 14.272C454.691 16.186 453.305 17.264 451.545 17.264C451.171 17.264 449.125 17.22 448.355 14.932L449.719 14.36C449.895 14.844 450.423 15.856 451.567 15.856C452.601 15.856 453.062 15.086 453.062 14.404C453.062 13.546 452.447 13.26 451.589 12.886C450.489 12.402 449.785 12.05 449.367 11.544C449.014 11.104 448.949 10.664 448.949 10.202C448.949 8.596 450.071 7.65 451.611 7.65C452.095 7.65 453.393 7.738 454.119 9.3ZM4.708 37.322H3.124L3.124 45H1.54L1.54 37.322H0.572V35.87H1.54L1.54 32.57H3.124L3.124 35.87H4.708V37.322ZM6.20108 45L6.20108 28.962H7.78508L7.78508 36.926C8.07108 36.552 8.88508 35.65 10.4031 35.65C11.4811 35.65 12.4711 36.09 13.0211 36.904C13.4831 37.586 13.5491 38.334 13.5491 39.346V45H11.9651V39.39C11.9651 38.84 11.9211 38.202 11.5471 37.718C11.2391 37.322 10.7551 37.058 10.0511 37.058C9.50108 37.058 8.90708 37.212 8.44508 37.762C7.82908 38.488 7.78508 39.566 7.78508 40.226V45H6.20108ZM23.0962 41.942L24.4162 42.668C24.1522 43.174 23.7562 43.724 23.2942 44.142C22.4582 44.89 21.4242 45.264 20.2582 45.264C18.0582 45.264 15.7482 43.878 15.7482 40.49C15.7482 37.762 17.4202 35.65 20.1702 35.65C21.9522 35.65 23.0742 36.53 23.6242 37.322C24.1962 38.136 24.5262 39.544 24.4822 40.754H17.3762C17.3982 42.646 18.6962 43.856 20.2802 43.856C21.0282 43.856 21.6222 43.636 22.1502 43.196C22.5682 42.844 22.8982 42.382 23.0962 41.942ZM17.4862 39.434H22.8542C22.5902 38.004 21.5122 37.058 20.1702 37.058C18.8282 37.058 17.7282 38.07 17.4862 39.434ZM37.1068 37.3L35.8088 37.982C35.5888 37.454 35.1268 37.058 34.5328 37.058C33.9608 37.058 33.4328 37.388 33.4328 38.092C33.4328 38.752 33.8728 38.95 34.9068 39.39C36.2268 39.94 36.8428 40.358 37.1948 40.798C37.5908 41.282 37.6788 41.766 37.6788 42.272C37.6788 44.186 36.2928 45.264 34.5328 45.264C34.1588 45.264 32.1128 45.22 31.3428 42.932L32.7068 42.36C32.8828 42.844 33.4108 43.856 34.5548 43.856C35.5888 43.856 36.0508 43.086 36.0508 42.404C36.0508 41.546 35.4348 41.26 34.5768 40.886C33.4768 40.402 32.7728 40.05 32.3548 39.544C32.0028 39.104 31.9368 38.664 31.9368 38.202C31.9368 36.596 33.0588 35.65 34.5988 35.65C35.0828 35.65 36.3808 35.738 37.1068 37.3ZM41.3652 43.724V50.06H39.7812V35.87H41.3652V37.146C42.4432 35.804 43.8292 35.65 44.4892 35.65C47.3492 35.65 48.9332 38.026 48.9332 40.49C48.9332 42.998 47.3272 45.264 44.5552 45.264C43.0812 45.264 42.0472 44.604 41.3652 43.724ZM44.3352 43.856C46.1832 43.856 47.3052 42.316 47.3052 40.49C47.3052 38.246 45.7872 37.058 44.3132 37.058C42.8392 37.058 41.2772 38.268 41.2772 40.468C41.2772 42.338 42.4652 43.856 44.3352 43.856ZM58.1372 41.942L59.4572 42.668C59.1932 43.174 58.7972 43.724 58.3352 44.142C57.4992 44.89 56.4652 45.264 55.2992 45.264C53.0992 45.264 50.7892 43.878 50.7892 40.49C50.7892 37.762 52.4612 35.65 55.2112 35.65C56.9932 35.65 58.1152 36.53 58.6652 37.322C59.2372 38.136 59.5672 39.544 59.5232 40.754L52.4172 40.754C52.4392 42.646 53.7372 43.856 55.3212 43.856C56.0692 43.856 56.6632 43.636 57.1912 43.196C57.6092 42.844 57.9392 42.382 58.1372 41.942ZM52.5272 39.434H57.8952C57.6312 38.004 56.5532 37.058 55.2112 37.058C53.8692 37.058 52.7692 38.07 52.5272 39.434ZM68.729 41.942L70.049 42.668C69.785 43.174 69.389 43.724 68.927 44.142C68.091 44.89 67.057 45.264 65.891 45.264C63.691 45.264 61.381 43.878 61.381 40.49C61.381 37.762 63.053 35.65 65.803 35.65C67.585 35.65 68.707 36.53 69.257 37.322C69.829 38.136 70.159 39.544 70.115 40.754H63.009C63.031 42.646 64.329 43.856 65.913 43.856C66.661 43.856 67.255 43.636 67.783 43.196C68.201 42.844 68.531 42.382 68.729 41.942ZM63.119 39.434H68.487C68.223 38.004 67.145 37.058 65.803 37.058C64.461 37.058 63.361 38.07 63.119 39.434ZM79.5408 37.168V28.962H81.1248V45H79.5408V43.724C79.0128 44.406 78.0228 45.264 76.4168 45.264C74.1068 45.264 71.9728 43.636 71.9728 40.424C71.9728 37.278 74.0848 35.65 76.4168 35.65C78.1768 35.65 79.1228 36.618 79.5408 37.168ZM76.5928 37.058C75.0308 37.058 73.6008 38.202 73.6008 40.424C73.6008 42.382 74.7008 43.856 76.5928 43.856C78.5288 43.856 79.6288 42.25 79.6288 40.446C79.6288 38.092 78.0008 37.058 76.5928 37.058ZM93.5277 45.264C90.7557 45.264 88.6877 43.24 88.6877 40.468C88.6877 37.696 90.7337 35.65 93.5277 35.65C96.3217 35.65 98.3677 37.696 98.3677 40.468C98.3677 43.24 96.2997 45.264 93.5277 45.264ZM93.5277 37.058C91.8557 37.058 90.3157 38.246 90.3157 40.468C90.3157 42.712 91.8997 43.856 93.5277 43.856C95.1777 43.856 96.7397 42.69 96.7397 40.468C96.7397 38.224 95.1997 37.058 93.5277 37.058ZM104.669 37.322H102.425V45H100.841V37.322H99.9608V35.87H100.841V31.888C100.841 31.052 100.907 29.996 101.721 29.314C102.161 28.94 102.821 28.72 103.547 28.72C104.119 28.72 104.493 28.852 104.669 28.918V30.458C104.339 30.326 103.965 30.26 103.635 30.26C103.283 30.26 102.865 30.348 102.623 30.744C102.425 31.074 102.425 31.58 102.425 32.064V35.87H104.669V37.322ZM114.429 37.322H112.845V45H111.261V37.322H110.293V35.87H111.261V32.57H112.845V35.87H114.429V37.322ZM115.922 45V28.962H117.506V36.926C117.792 36.552 118.606 35.65 120.124 35.65C121.202 35.65 122.192 36.09 122.742 36.904C123.204 37.586 123.27 38.334 123.27 39.346V45H121.686V39.39C121.686 38.84 121.642 38.202 121.268 37.718C120.96 37.322 120.476 37.058 119.772 37.058C119.222 37.058 118.628 37.212 118.166 37.762C117.55 38.488 117.506 39.566 117.506 40.226V45H115.922ZM132.817 41.942L134.137 42.668C133.873 43.174 133.477 43.724 133.015 44.142C132.179 44.89 131.145 45.264 129.979 45.264C127.779 45.264 125.469 43.878 125.469 40.49C125.469 37.762 127.141 35.65 129.891 35.65C131.673 35.65 132.795 36.53 133.345 37.322C133.917 38.136 134.247 39.544 134.203 40.754H127.097C127.119 42.646 128.417 43.856 130.001 43.856C130.749 43.856 131.343 43.636 131.871 43.196C132.289 42.844 132.619 42.382 132.817 41.942ZM127.207 39.434H132.575C132.311 38.004 131.233 37.058 129.891 37.058C128.549 37.058 127.449 38.07 127.207 39.434ZM143.351 43.724V45H141.767V28.962H143.351V37.146C144.429 35.804 145.815 35.65 146.475 35.65C149.335 35.65 150.919 38.026 150.919 40.49C150.919 42.998 149.313 45.264 146.541 45.264C145.067 45.264 144.033 44.604 143.351 43.724ZM146.321 43.856C148.169 43.856 149.291 42.316 149.291 40.49C149.291 38.246 147.773 37.058 146.299 37.058C144.825 37.058 143.263 38.268 143.263 40.468C143.263 42.338 144.451 43.856 146.321 43.856ZM160.344 37.168V35.87H161.928V45H160.344V43.724C159.816 44.406 158.826 45.264 157.22 45.264C154.91 45.264 152.776 43.636 152.776 40.424C152.776 37.278 154.888 35.65 157.22 35.65C158.98 35.65 159.926 36.618 160.344 37.168ZM157.396 37.058C155.834 37.058 154.404 38.202 154.404 40.424C154.404 42.382 155.504 43.856 157.396 43.856C159.332 43.856 160.432 42.25 160.432 40.446C160.432 38.092 158.804 37.058 157.396 37.058ZM164.928 28.962H166.512V45H164.928V28.962ZM169.504 28.962H171.088V45H169.504V28.962ZM177.895 35.87H179.655L182.361 42.074L185.221 35.166L188.059 42.074L190.787 35.87H192.547L188.015 45.638L185.199 38.818L182.383 45.638L177.895 35.87ZM194.211 45V28.962H195.795V36.926C196.081 36.552 196.895 35.65 198.413 35.65C199.491 35.65 200.481 36.09 201.031 36.904C201.493 37.586 201.559 38.334 201.559 39.346V45H199.975V39.39C199.975 38.84 199.931 38.202 199.557 37.718C199.249 37.322 198.765 37.058 198.061 37.058C197.511 37.058 196.917 37.212 196.455 37.762C195.839 38.488 195.795 39.566 195.795 40.226V45H194.211ZM204.545 35.87H206.129V45H204.545V35.87ZM204.215 32.416C204.215 31.8 204.721 31.294 205.337 31.294C205.953 31.294 206.459 31.8 206.459 32.416C206.459 33.032 205.953 33.538 205.337 33.538C204.721 33.538 204.215 33.032 204.215 32.416ZM209.121 28.962H210.705V45H209.121V28.962ZM220.473 41.942L221.793 42.668C221.529 43.174 221.133 43.724 220.671 44.142C219.835 44.89 218.801 45.264 217.635 45.264C215.435 45.264 213.125 43.878 213.125 40.49C213.125 37.762 214.797 35.65 217.547 35.65C219.329 35.65 220.451 36.53 221.001 37.322C221.573 38.136 221.903 39.544 221.859 40.754H214.753C214.775 42.646 216.073 43.856 217.657 43.856C218.405 43.856 218.999 43.636 219.527 43.196C219.945 42.844 220.275 42.382 220.473 41.942ZM214.863 39.434H220.231C219.967 38.004 218.889 37.058 217.547 37.058C216.205 37.058 215.105 38.07 214.863 39.434ZM229.424 45V35.87H231.008V36.838C231.514 36.09 232.306 35.65 233.274 35.65C234.924 35.65 235.584 36.816 235.76 37.124C236.64 35.738 237.894 35.65 238.51 35.65C241.216 35.65 241.48 37.916 241.48 39.214V45H239.896V39.456C239.896 38.422 239.764 37.058 238.268 37.058C236.442 37.058 236.244 38.818 236.244 39.918V45H234.66V39.588C234.66 38.95 234.682 37.058 233.01 37.058C231.206 37.058 231.008 38.928 231.008 40.028V45H229.424ZM244.484 35.87H246.068V45H244.484V35.87ZM244.154 32.416C244.154 31.8 244.66 31.294 245.276 31.294C245.892 31.294 246.398 31.8 246.398 32.416C246.398 33.032 245.892 33.538 245.276 33.538C244.66 33.538 244.154 33.032 244.154 32.416ZM249.06 45V35.87H250.644V36.926C250.93 36.552 251.744 35.65 253.262 35.65C254.34 35.65 255.33 36.09 255.88 36.904C256.342 37.586 256.408 38.334 256.408 39.346V45H254.824V39.39C254.824 38.84 254.78 38.202 254.406 37.718C254.098 37.322 253.614 37.058 252.91 37.058C252.36 37.058 251.766 37.212 251.304 37.762C250.688 38.488 250.644 39.566 250.644 40.226V45H249.06ZM259.394 35.87H260.978V45H259.394V35.87ZM259.064 32.416C259.064 31.8 259.57 31.294 260.186 31.294C260.802 31.294 261.308 31.8 261.308 32.416C261.308 33.032 260.802 33.538 260.186 33.538C259.57 33.538 259.064 33.032 259.064 32.416ZM263.971 45V35.87H265.555V36.838C266.061 36.09 266.853 35.65 267.821 35.65C269.471 35.65 270.131 36.816 270.307 37.124C271.187 35.738 272.441 35.65 273.057 35.65C275.763 35.65 276.027 37.916 276.027 39.214V45H274.443V39.456C274.443 38.422 274.311 37.058 272.815 37.058C270.989 37.058 270.791 38.818 270.791 39.918V45H269.207V39.588C269.207 38.95 269.229 37.058 267.557 37.058C265.753 37.058 265.555 38.928 265.555 40.028V45H263.971ZM279.031 35.87H280.615V45H279.031V35.87ZM278.701 32.416C278.701 31.8 279.207 31.294 279.823 31.294C280.439 31.294 280.945 31.8 280.945 32.416C280.945 33.032 280.439 33.538 279.823 33.538C279.207 33.538 278.701 33.032 278.701 32.416ZM292.055 35.87L285.455 43.548L291.791 43.548V45L282.287 45L288.887 37.322H283.563V35.87L292.055 35.87ZM293.726 35.87H295.31V45H293.726V35.87ZM293.396 32.416C293.396 31.8 293.902 31.294 294.518 31.294C295.134 31.294 295.64 31.8 295.64 32.416C295.64 33.032 295.134 33.538 294.518 33.538C293.902 33.538 293.396 33.032 293.396 32.416ZM298.303 45V35.87H299.887V36.926C300.173 36.552 300.987 35.65 302.505 35.65C303.583 35.65 304.573 36.09 305.123 36.904C305.585 37.586 305.651 38.334 305.651 39.346V45H304.067V39.39C304.067 38.84 304.023 38.202 303.649 37.718C303.341 37.322 302.857 37.058 302.153 37.058C301.603 37.058 301.009 37.212 300.547 37.762C299.931 38.488 299.887 39.566 299.887 40.226V45H298.303ZM315.633 37.168V35.87H317.217V44.78C317.217 45.77 317.217 47.178 316.337 48.366C315.655 49.29 314.401 50.06 312.685 50.06C311.123 50.06 310.045 49.444 309.429 48.828C308.813 48.212 308.241 47.222 308.241 45.88H309.803C309.803 46.65 310.111 47.332 310.507 47.772C311.167 48.498 312.003 48.652 312.707 48.652C313.829 48.652 314.599 48.256 315.127 47.376C315.589 46.628 315.633 45.814 315.633 45.044V43.724C315.105 44.406 314.115 45.264 312.509 45.264C311.167 45.264 310.089 44.736 309.385 44.032C308.769 43.416 308.065 42.272 308.065 40.424C308.065 38.642 308.725 37.542 309.385 36.882C310.155 36.134 311.277 35.65 312.509 35.65C313.851 35.65 314.907 36.222 315.633 37.168ZM312.685 37.058C311.717 37.058 311.057 37.476 310.617 37.916C309.847 38.708 309.693 39.676 309.693 40.424C309.693 41.216 309.847 42.294 310.727 43.108C311.233 43.57 311.849 43.856 312.685 43.856C313.521 43.856 314.181 43.592 314.687 43.086C315.303 42.492 315.721 41.524 315.721 40.446C315.721 39.368 315.325 38.422 314.753 37.872C314.247 37.366 313.499 37.058 312.685 37.058ZM325.351 35.87H326.935V45H325.351V35.87ZM325.021 32.416C325.021 31.8 325.527 31.294 326.143 31.294C326.759 31.294 327.265 31.8 327.265 32.416C327.265 33.032 326.759 33.538 326.143 33.538C325.527 33.538 325.021 33.032 325.021 32.416ZM333.14 37.322H331.556V45H329.972V37.322H329.004V35.87H329.972V32.57H331.556V35.87H333.14V37.322ZM339.693 37.3L338.395 37.982C338.175 37.454 337.713 37.058 337.119 37.058C336.547 37.058 336.019 37.388 336.019 38.092C336.019 38.752 336.459 38.95 337.493 39.39C338.813 39.94 339.429 40.358 339.781 40.798C340.177 41.282 340.265 41.766 340.265 42.272C340.265 44.186 338.879 45.264 337.119 45.264C336.745 45.264 334.699 45.22 333.929 42.932L335.293 42.36C335.469 42.844 335.997 43.856 337.141 43.856C338.175 43.856 338.637 43.086 338.637 42.404C338.637 41.546 338.021 41.26 337.163 40.886C336.063 40.402 335.359 40.05 334.941 39.544C334.589 39.104 334.523 38.664 334.523 38.202C334.523 36.596 335.645 35.65 337.185 35.65C337.669 35.65 338.967 35.738 339.693 37.3ZM347.502 28.962H349.086V45H347.502V28.962ZM356.346 45.264C353.574 45.264 351.506 43.24 351.506 40.468C351.506 37.696 353.552 35.65 356.346 35.65C359.14 35.65 361.186 37.696 361.186 40.468C361.186 43.24 359.118 45.264 356.346 45.264ZM356.346 37.058C354.674 37.058 353.134 38.246 353.134 40.468C353.134 42.712 354.718 43.856 356.346 43.856C357.996 43.856 359.558 42.69 359.558 40.468C359.558 38.224 358.018 37.058 356.346 37.058ZM363.615 45V35.87H365.199V36.926C365.485 36.552 366.299 35.65 367.817 35.65C368.895 35.65 369.885 36.09 370.435 36.904C370.897 37.586 370.963 38.334 370.963 39.346V45H369.379V39.39C369.379 38.84 369.335 38.202 368.961 37.718C368.653 37.322 368.169 37.058 367.465 37.058C366.915 37.058 366.321 37.212 365.859 37.762C365.243 38.488 365.199 39.566 365.199 40.226V45H363.615ZM380.945 37.168V35.87H382.529V44.78C382.529 45.77 382.529 47.178 381.649 48.366C380.967 49.29 379.713 50.06 377.997 50.06C376.435 50.06 375.357 49.444 374.741 48.828C374.125 48.212 373.553 47.222 373.553 45.88H375.115C375.115 46.65 375.423 47.332 375.819 47.772C376.479 48.498 377.315 48.652 378.019 48.652C379.141 48.652 379.911 48.256 380.439 47.376C380.901 46.628 380.945 45.814 380.945 45.044V43.724C380.417 44.406 379.427 45.264 377.821 45.264C376.479 45.264 375.401 44.736 374.697 44.032C374.081 43.416 373.377 42.272 373.377 40.424C373.377 38.642 374.037 37.542 374.697 36.882C375.467 36.134 376.589 35.65 377.821 35.65C379.163 35.65 380.219 36.222 380.945 37.168ZM377.997 37.058C377.029 37.058 376.369 37.476 375.929 37.916C375.159 38.708 375.005 39.676 375.005 40.424C375.005 41.216 375.159 42.294 376.039 43.108C376.545 43.57 377.161 43.856 377.997 43.856C378.833 43.856 379.493 43.592 379.999 43.086C380.615 42.492 381.033 41.524 381.033 40.446C381.033 39.368 380.637 38.422 380.065 37.872C379.559 37.366 378.811 37.058 377.997 37.058ZM385.133 41.128V39.5H389.973V41.128H385.133ZM399.572 37.168V35.87H401.156V44.78C401.156 45.77 401.156 47.178 400.276 48.366C399.594 49.29 398.34 50.06 396.624 50.06C395.062 50.06 393.984 49.444 393.368 48.828C392.752 48.212 392.18 47.222 392.18 45.88H393.742C393.742 46.65 394.05 47.332 394.446 47.772C395.106 48.498 395.942 48.652 396.646 48.652C397.768 48.652 398.538 48.256 399.066 47.376C399.528 46.628 399.572 45.814 399.572 45.044V43.724C399.044 44.406 398.054 45.264 396.448 45.264C395.106 45.264 394.028 44.736 393.324 44.032C392.708 43.416 392.004 42.272 392.004 40.424C392.004 38.642 392.664 37.542 393.324 36.882C394.094 36.134 395.216 35.65 396.448 35.65C397.79 35.65 398.846 36.222 399.572 37.168ZM396.624 37.058C395.656 37.058 394.996 37.476 394.556 37.916C393.786 38.708 393.632 39.676 393.632 40.424C393.632 41.216 393.786 42.294 394.666 43.108C395.172 43.57 395.788 43.856 396.624 43.856C397.46 43.856 398.12 43.592 398.626 43.086C399.242 42.492 399.66 41.524 399.66 40.446C399.66 39.368 399.264 38.422 398.692 37.872C398.186 37.366 397.438 37.058 396.624 37.058ZM411.152 37.168V35.87H412.736V45H411.152V43.724C410.624 44.406 409.634 45.264 408.028 45.264C405.718 45.264 403.584 43.636 403.584 40.424C403.584 37.278 405.696 35.65 408.028 35.65C409.788 35.65 410.734 36.618 411.152 37.168ZM408.204 37.058C406.642 37.058 405.212 38.202 405.212 40.424C405.212 42.382 406.312 43.856 408.204 43.856C410.14 43.856 411.24 42.25 411.24 40.446C411.24 38.092 409.612 37.058 408.204 37.058ZM415.736 45V35.87H417.32V36.838C417.826 36.09 418.618 35.65 419.586 35.65C421.236 35.65 421.896 36.816 422.072 37.124C422.952 35.738 424.206 35.65 424.822 35.65C427.528 35.65 427.792 37.916 427.792 39.214V45H426.208V39.456C426.208 38.422 426.076 37.058 424.58 37.058C422.754 37.058 422.556 38.818 422.556 39.918V45H420.972V39.588C420.972 38.95 420.994 37.058 419.322 37.058C417.518 37.058 417.32 38.928 417.32 40.028V45H415.736ZM437.573 41.942L438.893 42.668C438.629 43.174 438.233 43.724 437.771 44.142C436.935 44.89 435.901 45.264 434.735 45.264C432.535 45.264 430.225 43.878 430.225 40.49C430.225 37.762 431.897 35.65 434.647 35.65C436.429 35.65 437.551 36.53 438.101 37.322C438.673 38.136 439.003 39.544 438.959 40.754H431.853C431.875 42.646 433.173 43.856 434.757 43.856C435.505 43.856 436.099 43.636 436.627 43.196C437.045 42.844 437.375 42.382 437.573 41.942ZM431.963 39.434H437.331C437.067 38.004 435.989 37.058 434.647 37.058C433.305 37.058 432.205 38.07 431.963 39.434ZM6.556 65.3L5.258 65.982C5.038 65.454 4.576 65.058 3.982 65.058C3.41 65.058 2.882 65.388 2.882 66.092C2.882 66.752 3.322 66.95 4.356 67.39C5.676 67.94 6.292 68.358 6.644 68.798C7.04 69.282 7.128 69.766 7.128 70.272C7.128 72.186 5.742 73.264 3.982 73.264C3.608 73.264 1.562 73.22 0.792 70.932L2.156 70.36C2.332 70.844 2.86 71.856 4.004 71.856C5.038 71.856 5.5 71.086 5.5 70.404C5.5 69.546 4.884 69.26 4.026 68.886C2.926 68.402 2.222 68.05 1.804 67.544C1.452 67.104 1.386 66.664 1.386 66.202C1.386 64.596 2.508 63.65 4.048 63.65C4.532 63.65 5.83 63.738 6.556 65.3ZM10.8144 71.724V78.06H9.23038L9.23038 63.87H10.8144V65.146C11.8924 63.804 13.2784 63.65 13.9384 63.65C16.7984 63.65 18.3824 66.026 18.3824 68.49C18.3824 70.998 16.7764 73.264 14.0044 73.264C12.5304 73.264 11.4964 72.604 10.8144 71.724ZM13.7844 71.856C15.6324 71.856 16.7544 70.316 16.7544 68.49C16.7544 66.246 15.2364 65.058 13.7624 65.058C12.2884 65.058 10.7264 66.268 10.7264 68.468C10.7264 70.338 11.9144 71.856 13.7844 71.856ZM20.8105 63.87H22.3945V73H20.8105V63.87ZM20.4805 60.416C20.4805 59.8 20.9865 59.294 21.6025 59.294C22.2185 59.294 22.7245 59.8 22.7245 60.416C22.7245 61.032 22.2185 61.538 21.6025 61.538C20.9865 61.538 20.4805 61.032 20.4805 60.416ZM25.3866 73V63.87H26.9706V64.926C27.2566 64.552 28.0706 63.65 29.5886 63.65C30.6666 63.65 31.6566 64.09 32.2066 64.904C32.6686 65.586 32.7346 66.334 32.7346 67.346V73H31.1506V67.39C31.1506 66.84 31.1066 66.202 30.7326 65.718C30.4246 65.322 29.9406 65.058 29.2366 65.058C28.6866 65.058 28.0926 65.212 27.6306 65.762C27.0146 66.488 26.9706 67.566 26.9706 68.226V73H25.3866ZM35.6326 72.12C35.6326 71.526 36.1386 71.02 36.7326 71.02C37.3266 71.02 37.8326 71.526 37.8326 72.12C37.8326 72.714 37.3266 73.22 36.7326 73.22C36.1386 73.22 35.6326 72.714 35.6326 72.12ZM53.4292 59.866H49.8652V73H48.2372V59.866H44.6732V58.326H53.4292V59.866ZM53.6386 73V56.962H55.2226V64.926C55.5086 64.552 56.3226 63.65 57.8406 63.65C58.9186 63.65 59.9086 64.09 60.4586 64.904C60.9206 65.586 60.9866 66.334 60.9866 67.346V73H59.4026V67.39C59.4026 66.84 59.3586 66.202 58.9846 65.718C58.6766 65.322 58.1926 65.058 57.4886 65.058C56.9386 65.058 56.3446 65.212 55.8826 65.762C55.2666 66.488 55.2226 67.566 55.2226 68.226V73H53.6386ZM63.9726 63.87H65.5566V73H63.9726V63.87ZM63.6426 60.416C63.6426 59.8 64.1486 59.294 64.7646 59.294C65.3806 59.294 65.8866 59.8 65.8866 60.416C65.8866 61.032 65.3806 61.538 64.7646 61.538C64.1486 61.538 63.6426 61.032 63.6426 60.416ZM73.6087 65.3L72.3107 65.982C72.0907 65.454 71.6287 65.058 71.0347 65.058C70.4627 65.058 69.9347 65.388 69.9347 66.092C69.9347 66.752 70.3747 66.95 71.4087 67.39C72.7287 67.94 73.3447 68.358 73.6967 68.798C74.0927 69.282 74.1807 69.766 74.1807 70.272C74.1807 72.186 72.7947 73.264 71.0347 73.264C70.6607 73.264 68.6147 73.22 67.8447 70.932L69.2087 70.36C69.3847 70.844 69.9127 71.856 71.0567 71.856C72.0907 71.856 72.5527 71.086 72.5527 70.404C72.5527 69.546 71.9367 69.26 71.0787 68.886C69.9787 68.402 69.2747 68.05 68.8567 67.544C68.5047 67.104 68.4387 66.664 68.4387 66.202C68.4387 64.596 69.5607 63.65 71.1007 63.65C71.5847 63.65 72.8827 63.738 73.6087 65.3ZM81.4179 73V56.962H83.0019V64.926C83.2879 64.552 84.1019 63.65 85.6199 63.65C86.6979 63.65 87.6879 64.09 88.2379 64.904C88.6999 65.586 88.7659 66.334 88.7659 67.346V73H87.1819V67.39C87.1819 66.84 87.1379 66.202 86.7639 65.718C86.4559 65.322 85.9719 65.058 85.2679 65.058C84.7179 65.058 84.1239 65.212 83.6619 65.762C83.0459 66.488 83.0019 67.566 83.0019 68.226V73H81.4179ZM98.313 69.942L99.633 70.668C99.369 71.174 98.973 71.724 98.511 72.142C97.675 72.89 96.641 73.264 95.475 73.264C93.275 73.264 90.965 71.878 90.965 68.49C90.965 65.762 92.637 63.65 95.387 63.65C97.169 63.65 98.291 64.53 98.841 65.322C99.413 66.136 99.743 67.544 99.699 68.754H92.593C92.615 70.646 93.913 71.856 95.497 71.856C96.245 71.856 96.839 71.636 97.367 71.196C97.785 70.844 98.115 70.382 98.313 69.942ZM92.703 67.434H98.071C97.807 66.004 96.729 65.058 95.387 65.058C94.045 65.058 92.945 66.07 92.703 67.434ZM102.129 56.962H103.713V73H102.129V56.962ZM108.289 71.724V78.06H106.705V63.87H108.289V65.146C109.367 63.804 110.753 63.65 111.413 63.65C114.273 63.65 115.857 66.026 115.857 68.49C115.857 70.998 114.251 73.264 111.479 73.264C110.005 73.264 108.971 72.604 108.289 71.724ZM111.259 71.856C113.107 71.856 114.229 70.316 114.229 68.49C114.229 66.246 112.711 65.058 111.237 65.058C109.763 65.058 108.201 66.268 108.201 68.468C108.201 70.338 109.389 71.856 111.259 71.856ZM123.345 65.3L122.047 65.982C121.827 65.454 121.365 65.058 120.771 65.058C120.199 65.058 119.671 65.388 119.671 66.092C119.671 66.752 120.111 66.95 121.145 67.39C122.465 67.94 123.081 68.358 123.433 68.798C123.829 69.282 123.917 69.766 123.917 70.272C123.917 72.186 122.531 73.264 120.771 73.264C120.397 73.264 118.351 73.22 117.581 70.932L118.945 70.36C119.121 70.844 119.649 71.856 120.793 71.856C121.827 71.856 122.289 71.086 122.289 70.404C122.289 69.546 121.673 69.26 120.815 68.886C119.715 68.402 119.011 68.05 118.593 67.544C118.241 67.104 118.175 66.664 118.175 66.202C118.175 64.596 119.297 63.65 120.837 63.65C121.321 63.65 122.619 63.738 123.345 65.3ZM136.214 65.3L134.916 65.982C134.696 65.454 134.234 65.058 133.64 65.058C133.068 65.058 132.54 65.388 132.54 66.092C132.54 66.752 132.98 66.95 134.014 67.39C135.334 67.94 135.95 68.358 136.302 68.798C136.698 69.282 136.786 69.766 136.786 70.272C136.786 72.186 135.4 73.264 133.64 73.264C133.266 73.264 131.22 73.22 130.45 70.932L131.814 70.36C131.99 70.844 132.518 71.856 133.662 71.856C134.696 71.856 135.158 71.086 135.158 70.404C135.158 69.546 134.542 69.26 133.684 68.886C132.584 68.402 131.88 68.05 131.462 67.544C131.11 67.104 131.044 66.664 131.044 66.202C131.044 64.596 132.166 63.65 133.706 63.65C134.19 63.65 135.488 63.738 136.214 65.3ZM142.101 65.322H140.517V73H138.933V65.322H137.965V63.87H138.933V60.57H140.517V63.87H142.101V65.322ZM150.59 65.168V63.87H152.174V73H150.59V71.724C150.062 72.406 149.072 73.264 147.466 73.264C145.156 73.264 143.022 71.636 143.022 68.424C143.022 65.278 145.134 63.65 147.466 63.65C149.226 63.65 150.172 64.618 150.59 65.168ZM147.642 65.058C146.08 65.058 144.65 66.202 144.65 68.424C144.65 70.382 145.75 71.856 147.642 71.856C149.578 71.856 150.678 70.25 150.678 68.446C150.678 66.092 149.05 65.058 147.642 65.058ZM156.758 71.724V73H155.174V56.962H156.758V65.146C157.836 63.804 159.222 63.65 159.882 63.65C162.742 63.65 164.326 66.026 164.326 68.49C164.326 70.998 162.72 73.264 159.948 73.264C158.474 73.264 157.44 72.604 156.758 71.724ZM159.728 71.856C161.576 71.856 162.698 70.316 162.698 68.49C162.698 66.246 161.18 65.058 159.706 65.058C158.232 65.058 156.67 66.268 156.67 68.468C156.67 70.338 157.858 71.856 159.728 71.856ZM166.754 63.87H168.338V73H166.754V63.87ZM166.424 60.416C166.424 59.8 166.93 59.294 167.546 59.294C168.162 59.294 168.668 59.8 168.668 60.416C168.668 61.032 168.162 61.538 167.546 61.538C166.93 61.538 166.424 61.032 166.424 60.416ZM171.33 56.962H172.914V73H171.33V56.962ZM175.906 63.87H177.49V73H175.906V63.87ZM175.576 60.416C175.576 59.8 176.082 59.294 176.698 59.294C177.314 59.294 177.82 59.8 177.82 60.416C177.82 61.032 177.314 61.538 176.698 61.538C176.082 61.538 175.576 61.032 175.576 60.416ZM188.93 63.87L182.33 71.548H188.666V73H179.162L185.762 65.322H180.438V63.87H188.93ZM197.163 69.942L198.483 70.668C198.219 71.174 197.823 71.724 197.361 72.142C196.525 72.89 195.491 73.264 194.325 73.264C192.125 73.264 189.815 71.878 189.815 68.49C189.815 65.762 191.487 63.65 194.237 63.65C196.019 63.65 197.141 64.53 197.691 65.322C198.263 66.136 198.593 67.544 198.549 68.754H191.443C191.465 70.646 192.763 71.856 194.347 71.856C195.095 71.856 195.689 71.636 196.217 71.196C196.635 70.844 196.965 70.382 197.163 69.942ZM191.553 67.434H196.921C196.657 66.004 195.579 65.058 194.237 65.058C192.895 65.058 191.795 66.07 191.553 67.434ZM209.325 65.322H207.741V73H206.157V65.322H205.189V63.87H206.157V60.57H207.741V63.87H209.325V65.322ZM210.818 73V56.962H212.402V64.926C212.688 64.552 213.502 63.65 215.02 63.65C216.098 63.65 217.088 64.09 217.638 64.904C218.1 65.586 218.166 66.334 218.166 67.346V73H216.582V67.39C216.582 66.84 216.538 66.202 216.164 65.718C215.856 65.322 215.372 65.058 214.668 65.058C214.118 65.058 213.524 65.212 213.062 65.762C212.446 66.488 212.402 67.566 212.402 68.226V73H210.818ZM227.713 69.942L229.033 70.668C228.769 71.174 228.373 71.724 227.911 72.142C227.075 72.89 226.041 73.264 224.875 73.264C222.675 73.264 220.365 71.878 220.365 68.49C220.365 65.762 222.037 63.65 224.787 63.65C226.569 63.65 227.691 64.53 228.241 65.322C228.813 66.136 229.143 67.544 229.099 68.754H221.993C222.015 70.646 223.313 71.856 224.897 71.856C225.645 71.856 226.239 71.636 226.767 71.196C227.185 70.844 227.515 70.382 227.713 69.942ZM222.103 67.434H227.471C227.207 66.004 226.129 65.058 224.787 65.058C223.445 65.058 222.345 66.07 222.103 67.434ZM238.248 71.724V73H236.664V56.962H238.248V65.146C239.326 63.804 240.712 63.65 241.372 63.65C244.232 63.65 245.816 66.026 245.816 68.49C245.816 70.998 244.21 73.264 241.438 73.264C239.964 73.264 238.93 72.604 238.248 71.724ZM241.218 71.856C243.066 71.856 244.188 70.316 244.188 68.49C244.188 66.246 242.67 65.058 241.196 65.058C239.722 65.058 238.16 66.268 238.16 68.468C238.16 70.338 239.348 71.856 241.218 71.856ZM255.24 65.168V63.87H256.824V73H255.24V71.724C254.712 72.406 253.722 73.264 252.116 73.264C249.806 73.264 247.672 71.636 247.672 68.424C247.672 65.278 249.784 63.65 252.116 63.65C253.876 63.65 254.822 64.618 255.24 65.168ZM252.292 65.058C250.73 65.058 249.3 66.202 249.3 68.424C249.3 70.382 250.4 71.856 252.292 71.856C254.228 71.856 255.328 70.25 255.328 68.446C255.328 66.092 253.7 65.058 252.292 65.058ZM259.824 56.962H261.408V73H259.824V56.962ZM264.4 56.962H265.984V73H264.4V56.962ZM270.428 58.326L270.142 64.222H268.954L268.668 58.326H270.428ZM278.183 65.3L276.885 65.982C276.665 65.454 276.203 65.058 275.609 65.058C275.037 65.058 274.509 65.388 274.509 66.092C274.509 66.752 274.949 66.95 275.983 67.39C277.303 67.94 277.919 68.358 278.271 68.798C278.667 69.282 278.755 69.766 278.755 70.272C278.755 72.186 277.369 73.264 275.609 73.264C275.235 73.264 273.189 73.22 272.419 70.932L273.783 70.36C273.959 70.844 274.487 71.856 275.631 71.856C276.665 71.856 277.127 71.086 277.127 70.404C277.127 69.546 276.511 69.26 275.653 68.886C274.553 68.402 273.849 68.05 273.431 67.544C273.079 67.104 273.013 66.664 273.013 66.202C273.013 64.596 274.135 63.65 275.675 63.65C276.159 63.65 277.457 63.738 278.183 65.3ZM289.864 65.322H287.62V73H286.036V65.322H285.156V63.87H286.036V60.438C286.036 59.448 286.102 58.7 286.564 58.04C286.982 57.424 287.862 56.698 289.578 56.698C290.348 56.698 291.822 56.83 292.592 58.04C293.098 58.854 293.12 59.734 293.12 60.438V73H291.536V60.438C291.536 60.086 291.514 59.448 291.228 59.008C290.964 58.612 290.458 58.304 289.578 58.304C288.698 58.304 288.192 58.612 287.928 59.008C287.642 59.426 287.62 59.976 287.62 60.438V63.87H289.864V65.322ZM296.111 63.87H297.695V73H296.111V63.87ZM295.781 60.416C295.781 59.8 296.287 59.294 296.903 59.294C297.519 59.294 298.025 59.8 298.025 60.416C298.025 61.032 297.519 61.538 296.903 61.538C296.287 61.538 295.781 61.032 295.781 60.416ZM307.683 65.168V63.87H309.267V72.78C309.267 73.77 309.267 75.178 308.387 76.366C307.705 77.29 306.451 78.06 304.735 78.06C303.173 78.06 302.095 77.444 301.479 76.828C300.863 76.212 300.291 75.222 300.291 73.88H301.853C301.853 74.65 302.161 75.332 302.557 75.772C303.217 76.498 304.053 76.652 304.757 76.652C305.879 76.652 306.649 76.256 307.177 75.376C307.639 74.628 307.683 73.814 307.683 73.044V71.724C307.155 72.406 306.165 73.264 304.559 73.264C303.217 73.264 302.139 72.736 301.435 72.032C300.819 71.416 300.115 70.272 300.115 68.424C300.115 66.642 300.775 65.542 301.435 64.882C302.205 64.134 303.327 63.65 304.559 63.65C305.901 63.65 306.957 64.222 307.683 65.168ZM304.735 65.058C303.767 65.058 303.107 65.476 302.667 65.916C301.897 66.708 301.743 67.676 301.743 68.424C301.743 69.216 301.897 70.294 302.777 71.108C303.283 71.57 303.899 71.856 304.735 71.856C305.571 71.856 306.231 71.592 306.737 71.086C307.353 70.492 307.771 69.524 307.771 68.446C307.771 67.368 307.375 66.422 306.803 65.872C306.297 65.366 305.549 65.058 304.735 65.058ZM312.267 73V56.962H313.851V64.926C314.137 64.552 314.951 63.65 316.469 63.65C317.547 63.65 318.537 64.09 319.087 64.904C319.549 65.586 319.615 66.334 319.615 67.346V73H318.031V67.39C318.031 66.84 317.987 66.202 317.613 65.718C317.305 65.322 316.821 65.058 316.117 65.058C315.567 65.058 314.973 65.212 314.511 65.762C313.895 66.488 313.851 67.566 313.851 68.226V73H312.267ZM325.813 65.322H324.229V73H322.645V65.322H321.677V63.87H322.645V60.57H324.229V63.87H325.813V65.322ZM334.025 71.724V78.06H332.441V63.87H334.025V65.146C335.103 63.804 336.489 63.65 337.149 63.65C340.009 63.65 341.593 66.026 341.593 68.49C341.593 70.998 339.987 73.264 337.215 73.264C335.741 73.264 334.707 72.604 334.025 71.724ZM336.995 71.856C338.843 71.856 339.965 70.316 339.965 68.49C339.965 66.246 338.447 65.058 336.973 65.058C335.499 65.058 333.937 66.268 333.937 68.468C333.937 70.338 335.125 71.856 336.995 71.856ZM351.017 65.168V63.87H352.601V73H351.017V71.724C350.489 72.406 349.499 73.264 347.893 73.264C345.583 73.264 343.449 71.636 343.449 68.424C343.449 65.278 345.561 63.65 347.893 63.65C349.653 63.65 350.599 64.618 351.017 65.168ZM348.069 65.058C346.507 65.058 345.077 66.202 345.077 68.424C345.077 70.382 346.177 71.856 348.069 71.856C350.005 71.856 351.105 70.25 351.105 68.446C351.105 66.092 349.477 65.058 348.069 65.058ZM358.813 65.322H357.229V73H355.645V65.322H354.677V63.87H355.645V60.57H357.229V63.87H358.813V65.322ZM360.307 73V56.962H361.891V64.926C362.177 64.552 362.991 63.65 364.509 63.65C365.587 63.65 366.577 64.09 367.127 64.904C367.589 65.586 367.655 66.334 367.655 67.346V73H366.071V67.39C366.071 66.84 366.027 66.202 365.653 65.718C365.345 65.322 364.861 65.058 364.157 65.058C363.607 65.058 363.013 65.212 362.551 65.762C361.935 66.488 361.891 67.566 361.891 68.226V73H360.307ZM374.455 63.87H376.215L378.921 70.074L381.781 63.166L384.619 70.074L387.347 63.87H389.107L384.575 73.638L381.759 66.818L378.943 73.638L374.455 63.87ZM390.771 73V56.962H392.355V64.926C392.641 64.552 393.455 63.65 394.973 63.65C396.051 63.65 397.041 64.09 397.591 64.904C398.053 65.586 398.119 66.334 398.119 67.346V73H396.535V67.39C396.535 66.84 396.491 66.202 396.117 65.718C395.809 65.322 395.325 65.058 394.621 65.058C394.071 65.058 393.477 65.212 393.015 65.762C392.399 66.488 392.355 67.566 392.355 68.226V73H390.771ZM401.105 63.87H402.689V73H401.105V63.87ZM400.775 60.416C400.775 59.8 401.281 59.294 401.897 59.294C402.513 59.294 403.019 59.8 403.019 60.416C403.019 61.032 402.513 61.538 401.897 61.538C401.281 61.538 400.775 61.032 400.775 60.416ZM405.682 56.962L407.266 56.962V73H405.682V56.962ZM417.034 69.942L418.354 70.668C418.09 71.174 417.694 71.724 417.232 72.142C416.396 72.89 415.362 73.264 414.196 73.264C411.996 73.264 409.686 71.878 409.686 68.49C409.686 65.762 411.358 63.65 414.108 63.65C415.89 63.65 417.012 64.53 417.562 65.322C418.134 66.136 418.464 67.544 418.42 68.754H411.314C411.336 70.646 412.634 71.856 414.218 71.856C414.966 71.856 415.56 71.636 416.088 71.196C416.506 70.844 416.836 70.382 417.034 69.942ZM411.424 67.434H416.792C416.528 66.004 415.45 65.058 414.108 65.058C412.766 65.058 411.666 66.07 411.424 67.434ZM5.368 93.322H3.124L3.124 101H1.54L1.54 93.322H0.66L0.66 91.87H1.54L1.54 88.438C1.54 87.448 1.606 86.7 2.068 86.04C2.486 85.424 3.366 84.698 5.082 84.698C5.852 84.698 7.326 84.83 8.096 86.04C8.602 86.854 8.624 87.734 8.624 88.438L8.624 101H7.04L7.04 88.438C7.04 88.086 7.018 87.448 6.732 87.008C6.468 86.612 5.962 86.304 5.082 86.304C4.202 86.304 3.696 86.612 3.432 87.008C3.146 87.426 3.124 87.976 3.124 88.438V91.87H5.368V93.322ZM11.5931 106.06L14.4971 100.142L10.2951 91.87H12.0991L15.3331 98.404L18.3031 91.87H20.0631L13.3531 106.06H11.5931ZM21.7343 91.87H23.3183V101H21.7343V91.87ZM21.4043 88.416C21.4043 87.8 21.9103 87.294 22.5263 87.294C23.1423 87.294 23.6483 87.8 23.6483 88.416C23.6483 89.032 23.1423 89.538 22.5263 89.538C21.9103 89.538 21.4043 89.032 21.4043 88.416ZM26.3105 101V91.87H27.8945V92.926C28.1805 92.552 28.9945 91.65 30.5125 91.65C31.5905 91.65 32.5805 92.09 33.1305 92.904C33.5925 93.586 33.6585 94.334 33.6585 95.346V101H32.0745V95.39C32.0745 94.84 32.0305 94.202 31.6565 93.718C31.3485 93.322 30.8645 93.058 30.1605 93.058C29.6105 93.058 29.0165 93.212 28.5545 93.762C27.9385 94.488 27.8945 95.566 27.8945 96.226V101H26.3105ZM43.6404 93.168V91.87H45.2244V100.78C45.2244 101.77 45.2244 103.178 44.3444 104.366C43.6624 105.29 42.4084 106.06 40.6924 106.06C39.1304 106.06 38.0524 105.444 37.4364 104.828C36.8204 104.212 36.2484 103.222 36.2484 101.88H37.8104C37.8104 102.65 38.1184 103.332 38.5144 103.772C39.1744 104.498 40.0104 104.652 40.7144 104.652C41.8364 104.652 42.6064 104.256 43.1344 103.376C43.5964 102.628 43.6404 101.814 43.6404 101.044V99.724C43.1124 100.406 42.1224 101.264 40.5164 101.264C39.1744 101.264 38.0964 100.736 37.3924 100.032C36.7764 99.416 36.0724 98.272 36.0724 96.424C36.0724 94.642 36.7324 93.542 37.3924 92.882C38.1624 92.134 39.2844 91.65 40.5164 91.65C41.8584 91.65 42.9144 92.222 43.6404 93.168ZM40.6924 93.058C39.7244 93.058 39.0644 93.476 38.6244 93.916C37.8544 94.708 37.7004 95.676 37.7004 96.424C37.7004 97.216 37.8544 98.294 38.7344 99.108C39.2404 99.57 39.8564 99.856 40.6924 99.856C41.5284 99.856 42.1884 99.592 42.6944 99.086C43.3104 98.492 43.7284 97.524 43.7284 96.446C43.7284 95.368 43.3324 94.422 42.7604 93.872C42.2544 93.366 41.5064 93.058 40.6924 93.058ZM53.3593 91.87H54.9433V101H53.3593V91.87ZM53.0293 88.416C53.0293 87.8 53.5353 87.294 54.1513 87.294C54.7673 87.294 55.2733 87.8 55.2733 88.416C55.2733 89.032 54.7673 89.538 54.1513 89.538C53.5353 89.538 53.0293 89.032 53.0293 88.416ZM61.1475 93.322H59.5635V101H57.9795V93.322H57.0115V91.87H57.9795V88.57H59.5635V91.87H61.1475V93.322ZM71.6473 93.322H69.4033V101H67.8193V93.322H66.9393V91.87H67.8193V87.888C67.8193 87.052 67.8853 85.996 68.6993 85.314C69.1393 84.94 69.7993 84.72 70.5253 84.72C71.0973 84.72 71.4713 84.852 71.6473 84.918V86.458C71.3173 86.326 70.9433 86.26 70.6133 86.26C70.2613 86.26 69.8433 86.348 69.6013 86.744C69.4033 87.074 69.4033 87.58 69.4033 88.064V91.87H71.6473V93.322ZM80.0565 93.168V91.87H81.6405V101H80.0565V99.724C79.5285 100.406 78.5385 101.264 76.9325 101.264C74.6225 101.264 72.4885 99.636 72.4885 96.424C72.4885 93.278 74.6005 91.65 76.9325 91.65C78.6925 91.65 79.6385 92.618 80.0565 93.168ZM77.1085 93.058C75.5465 93.058 74.1165 94.202 74.1165 96.424C74.1165 98.382 75.2165 99.856 77.1085 99.856C79.0445 99.856 80.1445 98.25 80.1445 96.446C80.1445 94.092 78.5165 93.058 77.1085 93.058ZM84.6405 101V91.87H86.2245V92.86C86.3785 92.618 87.0605 91.65 88.2925 91.65C88.7765 91.65 89.3045 91.826 89.7005 92.024L88.9525 93.454C88.6005 93.212 88.2705 93.146 88.0285 93.146C87.3905 93.146 86.9945 93.41 86.7525 93.718C86.4885 94.07 86.2245 94.686 86.2245 96.182V101H84.6405ZM103.281 93.168V91.87H104.865V101H103.281V99.724C102.753 100.406 101.763 101.264 100.157 101.264C97.8471 101.264 95.7131 99.636 95.7131 96.424C95.7131 93.278 97.8251 91.65 100.157 91.65C101.917 91.65 102.863 92.618 103.281 93.168ZM100.333 93.058C98.7711 93.058 97.3411 94.202 97.3411 96.424C97.3411 98.382 98.4411 99.856 100.333 99.856C102.269 99.856 103.369 98.25 103.369 96.446C103.369 94.092 101.741 93.058 100.333 93.058ZM106.545 91.87H108.305L111.011 98.074L113.871 91.166L116.709 98.074L119.437 91.87H121.197L116.665 101.638L113.849 94.818L111.033 101.638L106.545 91.87ZM129.857 93.168V91.87H131.441V101H129.857V99.724C129.329 100.406 128.339 101.264 126.733 101.264C124.423 101.264 122.289 99.636 122.289 96.424C122.289 93.278 124.401 91.65 126.733 91.65C128.493 91.65 129.439 92.618 129.857 93.168ZM126.909 93.058C125.347 93.058 123.917 94.202 123.917 96.424C123.917 98.382 125.017 99.856 126.909 99.856C128.845 99.856 129.945 98.25 129.945 96.446C129.945 94.092 128.317 93.058 126.909 93.058ZM134.419 106.06L137.323 100.142L133.121 91.87H134.925L138.159 98.404L141.129 91.87H142.889L136.179 106.06H134.419ZM143.527 100.12C143.527 99.526 144.033 99.02 144.627 99.02C145.221 99.02 145.727 99.526 145.727 100.12C145.727 100.714 145.221 101.22 144.627 101.22C144.033 101.22 143.527 100.714 143.527 100.12ZM161.324 87.866H157.76V101H156.132V87.866H152.568V86.326H161.324V87.866ZM161.533 101V84.962H163.117V92.926C163.403 92.552 164.217 91.65 165.735 91.65C166.813 91.65 167.803 92.09 168.353 92.904C168.815 93.586 168.881 94.334 168.881 95.346V101H167.297V95.39C167.297 94.84 167.253 94.202 166.879 93.718C166.571 93.322 166.087 93.058 165.383 93.058C164.833 93.058 164.239 93.212 163.777 93.762C163.161 94.488 163.117 95.566 163.117 96.226V101H161.533ZM178.428 97.942L179.748 98.668C179.484 99.174 179.088 99.724 178.626 100.142C177.79 100.89 176.756 101.264 175.59 101.264C173.39 101.264 171.08 99.878 171.08 96.49C171.08 93.762 172.752 91.65 175.502 91.65C177.284 91.65 178.406 92.53 178.956 93.322C179.528 94.136 179.858 95.544 179.814 96.754H172.708C172.73 98.646 174.028 99.856 175.612 99.856C176.36 99.856 176.954 99.636 177.482 99.196C177.9 98.844 178.23 98.382 178.428 97.942ZM172.818 95.434H178.186C177.922 94.004 176.844 93.058 175.502 93.058C174.16 93.058 173.06 94.07 172.818 95.434ZM187.379 84.962H188.963V101H187.379V84.962ZM196.223 101.264C193.451 101.264 191.383 99.24 191.383 96.468C191.383 93.696 193.429 91.65 196.223 91.65C199.017 91.65 201.063 93.696 201.063 96.468C201.063 99.24 198.995 101.264 196.223 101.264ZM196.223 93.058C194.551 93.058 193.011 94.246 193.011 96.468C193.011 98.712 194.595 99.856 196.223 99.856C197.873 99.856 199.435 98.69 199.435 96.468C199.435 94.224 197.895 93.058 196.223 93.058ZM202.172 91.87H203.932L206.638 98.074L209.498 91.166L212.336 98.074L215.064 91.87H216.824L212.292 101.638L209.476 94.818L206.66 101.638L202.172 91.87ZM223.623 84.962H225.207V101H223.623V84.962ZM232.467 101.264C229.695 101.264 227.627 99.24 227.627 96.468C227.627 93.696 229.673 91.65 232.467 91.65C235.261 91.65 237.307 93.696 237.307 96.468C237.307 99.24 235.239 101.264 232.467 101.264ZM232.467 93.058C230.795 93.058 229.255 94.246 229.255 96.468C229.255 98.712 230.839 99.856 232.467 99.856C234.117 99.856 235.679 98.69 235.679 96.468C235.679 94.224 234.139 93.058 232.467 93.058ZM239.736 101V91.87H241.32V92.926C241.606 92.552 242.42 91.65 243.938 91.65C245.016 91.65 246.006 92.09 246.556 92.904C247.018 93.586 247.084 94.334 247.084 95.346V101H245.5V95.39C245.5 94.84 245.456 94.202 245.082 93.718C244.774 93.322 244.29 93.058 243.586 93.058C243.036 93.058 242.442 93.212 241.98 93.762C241.364 94.488 241.32 95.566 241.32 96.226V101H239.736ZM257.066 93.168V91.87H258.65V100.78C258.65 101.77 258.65 103.178 257.77 104.366C257.088 105.29 255.834 106.06 254.118 106.06C252.556 106.06 251.478 105.444 250.862 104.828C250.246 104.212 249.674 103.222 249.674 101.88H251.236C251.236 102.65 251.544 103.332 251.94 103.772C252.6 104.498 253.436 104.652 254.14 104.652C255.262 104.652 256.032 104.256 256.56 103.376C257.022 102.628 257.066 101.814 257.066 101.044V99.724C256.538 100.406 255.548 101.264 253.942 101.264C252.6 101.264 251.522 100.736 250.818 100.032C250.202 99.416 249.498 98.272 249.498 96.424C249.498 94.642 250.158 93.542 250.818 92.882C251.588 92.134 252.71 91.65 253.942 91.65C255.284 91.65 256.34 92.222 257.066 93.168ZM254.118 93.058C253.15 93.058 252.49 93.476 252.05 93.916C251.28 94.708 251.126 95.676 251.126 96.424C251.126 97.216 251.28 98.294 252.16 99.108C252.666 99.57 253.282 99.856 254.118 99.856C254.954 99.856 255.614 99.592 256.12 99.086C256.736 98.492 257.154 97.524 257.154 96.446C257.154 95.368 256.758 94.422 256.186 93.872C255.68 93.366 254.932 93.058 254.118 93.058ZM261.254 97.128V95.5H266.094V97.128H261.254ZM275.693 93.168V91.87H277.277V100.78C277.277 101.77 277.277 103.178 276.397 104.366C275.715 105.29 274.461 106.06 272.745 106.06C271.183 106.06 270.105 105.444 269.489 104.828C268.873 104.212 268.301 103.222 268.301 101.88H269.863C269.863 102.65 270.171 103.332 270.567 103.772C271.227 104.498 272.063 104.652 272.767 104.652C273.889 104.652 274.659 104.256 275.187 103.376C275.649 102.628 275.693 101.814 275.693 101.044V99.724C275.165 100.406 274.175 101.264 272.569 101.264C271.227 101.264 270.149 100.736 269.445 100.032C268.829 99.416 268.125 98.272 268.125 96.424C268.125 94.642 268.785 93.542 269.445 92.882C270.215 92.134 271.337 91.65 272.569 91.65C273.911 91.65 274.967 92.222 275.693 93.168ZM272.745 93.058C271.777 93.058 271.117 93.476 270.677 93.916C269.907 94.708 269.753 95.676 269.753 96.424C269.753 97.216 269.907 98.294 270.787 99.108C271.293 99.57 271.909 99.856 272.745 99.856C273.581 99.856 274.241 99.592 274.747 99.086C275.363 98.492 275.781 97.524 275.781 96.446C275.781 95.368 275.385 94.422 274.813 93.872C274.307 93.366 273.559 93.058 272.745 93.058ZM287.273 93.168V91.87H288.857V101H287.273V99.724C286.745 100.406 285.755 101.264 284.149 101.264C281.839 101.264 279.705 99.636 279.705 96.424C279.705 93.278 281.817 91.65 284.149 91.65C285.909 91.65 286.855 92.618 287.273 93.168ZM284.325 93.058C282.763 93.058 281.333 94.202 281.333 96.424C281.333 98.382 282.433 99.856 284.325 99.856C286.261 99.856 287.361 98.25 287.361 96.446C287.361 94.092 285.733 93.058 284.325 93.058ZM291.857 101V91.87H293.441V92.838C293.947 92.09 294.739 91.65 295.707 91.65C297.357 91.65 298.017 92.816 298.193 93.124C299.073 91.738 300.327 91.65 300.943 91.65C303.649 91.65 303.913 93.916 303.913 95.214V101H302.329V95.456C302.329 94.422 302.197 93.058 300.701 93.058C298.875 93.058 298.677 94.818 298.677 95.918V101H297.093V95.588C297.093 94.95 297.115 93.058 295.443 93.058C293.639 93.058 293.441 94.928 293.441 96.028V101H291.857ZM313.694 97.942L315.014 98.668C314.75 99.174 314.354 99.724 313.892 100.142C313.056 100.89 312.022 101.264 310.856 101.264C308.656 101.264 306.346 99.878 306.346 96.49C306.346 93.762 308.018 91.65 310.768 91.65C312.55 91.65 313.672 92.53 314.222 93.322C314.794 94.136 315.124 95.544 315.08 96.754H307.974C307.996 98.646 309.294 99.856 310.878 99.856C311.626 99.856 312.22 99.636 312.748 99.196C313.166 98.844 313.496 98.382 313.694 97.942ZM308.084 95.434H313.452C313.188 94.004 312.11 93.058 310.768 93.058C309.426 93.058 308.326 94.07 308.084 95.434ZM327.704 93.3L326.406 93.982C326.186 93.454 325.724 93.058 325.13 93.058C324.558 93.058 324.03 93.388 324.03 94.092C324.03 94.752 324.47 94.95 325.504 95.39C326.824 95.94 327.44 96.358 327.792 96.798C328.188 97.282 328.276 97.766 328.276 98.272C328.276 100.186 326.89 101.264 325.13 101.264C324.756 101.264 322.71 101.22 321.94 98.932L323.304 98.36C323.48 98.844 324.008 99.856 325.152 99.856C326.186 99.856 326.648 99.086 326.648 98.404C326.648 97.546 326.032 97.26 325.174 96.886C324.074 96.402 323.37 96.05 322.952 95.544C322.6 95.104 322.534 94.664 322.534 94.202C322.534 92.596 323.656 91.65 325.196 91.65C325.68 91.65 326.978 91.738 327.704 93.3ZM331.963 99.724V106.06H330.379V91.87H331.963V93.146C333.041 91.804 334.427 91.65 335.087 91.65C337.947 91.65 339.531 94.026 339.531 96.49C339.531 98.998 337.925 101.264 335.153 101.264C333.679 101.264 332.645 100.604 331.963 99.724ZM334.933 99.856C336.781 99.856 337.903 98.316 337.903 96.49C337.903 94.246 336.385 93.058 334.911 93.058C333.437 93.058 331.875 94.268 331.875 96.468C331.875 98.338 333.063 99.856 334.933 99.856ZM341.959 91.87H343.543V101H341.959V91.87ZM341.629 88.416C341.629 87.8 342.135 87.294 342.751 87.294C343.367 87.294 343.873 87.8 343.873 88.416C343.873 89.032 343.367 89.538 342.751 89.538C342.135 89.538 341.629 89.032 341.629 88.416ZM346.535 101V91.87H348.119V92.926C348.405 92.552 349.219 91.65 350.737 91.65C351.815 91.65 352.805 92.09 353.355 92.904C353.817 93.586 353.883 94.334 353.883 95.346V101H352.299V95.39C352.299 94.84 352.255 94.202 351.881 93.718C351.573 93.322 351.089 93.058 350.385 93.058C349.835 93.058 349.241 93.212 348.779 93.762C348.163 94.488 348.119 95.566 348.119 96.226V101H346.535ZM362.004 101V91.87H363.588V92.838C364.094 92.09 364.886 91.65 365.854 91.65C367.504 91.65 368.164 92.816 368.34 93.124C369.22 91.738 370.474 91.65 371.09 91.65C373.796 91.65 374.06 93.916 374.06 95.214V101H372.476V95.456C372.476 94.422 372.344 93.058 370.848 93.058C369.022 93.058 368.824 94.818 368.824 95.918V101H367.24V95.588C367.24 94.95 367.262 93.058 365.59 93.058C363.786 93.058 363.588 94.928 363.588 96.028V101H362.004ZM384.06 93.168V91.87H385.644V101H384.06V99.724C383.532 100.406 382.542 101.264 380.936 101.264C378.626 101.264 376.492 99.636 376.492 96.424C376.492 93.278 378.604 91.65 380.936 91.65C382.696 91.65 383.642 92.618 384.06 93.168ZM381.112 93.058C379.55 93.058 378.12 94.202 378.12 96.424C378.12 98.382 379.22 99.856 381.112 99.856C383.048 99.856 384.148 98.25 384.148 96.446C384.148 94.092 382.52 93.058 381.112 93.058ZM388.644 84.962H390.228V95.258L393.572 91.87H395.64L391.724 95.786L396.344 101H394.276L390.624 96.842L390.228 97.238V101H388.644V84.962ZM404.487 97.942L405.807 98.668C405.543 99.174 405.147 99.724 404.685 100.142C403.849 100.89 402.815 101.264 401.649 101.264C399.449 101.264 397.139 99.878 397.139 96.49C397.139 93.762 398.811 91.65 401.561 91.65C403.343 91.65 404.465 92.53 405.015 93.322C405.587 94.136 405.917 95.544 405.873 96.754H398.767C398.789 98.646 400.087 99.856 401.671 99.856C402.419 99.856 403.013 99.636 403.541 99.196C403.959 98.844 404.289 98.382 404.487 97.942ZM398.877 95.434H404.245C403.981 94.004 402.903 93.058 401.561 93.058C400.219 93.058 399.119 94.07 398.877 95.434ZM413.363 93.3L412.065 93.982C411.845 93.454 411.383 93.058 410.789 93.058C410.217 93.058 409.689 93.388 409.689 94.092C409.689 94.752 410.129 94.95 411.163 95.39C412.483 95.94 413.099 96.358 413.451 96.798C413.847 97.282 413.935 97.766 413.935 98.272C413.935 100.186 412.549 101.264 410.789 101.264C410.415 101.264 408.369 101.22 407.599 98.932L408.963 98.36C409.139 98.844 409.667 99.856 410.811 99.856C411.845 99.856 412.307 99.086 412.307 98.404C412.307 97.546 411.691 97.26 410.833 96.886C409.733 96.402 409.029 96.05 408.611 95.544C408.259 95.104 408.193 94.664 408.193 94.202C408.193 92.596 409.315 91.65 410.855 91.65C411.339 91.65 412.637 91.738 413.363 93.3ZM424.384 93.322H422.8V101H421.216V93.322H420.248V91.87H421.216V88.57H422.8V91.87H424.384V93.322ZM425.877 101V84.962H427.461V92.926C427.747 92.552 428.561 91.65 430.079 91.65C431.157 91.65 432.147 92.09 432.697 92.904C433.159 93.586 433.225 94.334 433.225 95.346V101H431.641V95.39C431.641 94.84 431.597 94.202 431.223 93.718C430.915 93.322 430.431 93.058 429.727 93.058C429.177 93.058 428.583 93.212 428.121 93.762C427.505 94.488 427.461 95.566 427.461 96.226V101H425.877ZM442.772 97.942L444.092 98.668C443.828 99.174 443.432 99.724 442.97 100.142C442.134 100.89 441.1 101.264 439.934 101.264C437.734 101.264 435.424 99.878 435.424 96.49C435.424 93.762 437.096 91.65 439.846 91.65C441.628 91.65 442.75 92.53 443.3 93.322C443.872 94.136 444.202 95.544 444.158 96.754H437.052C437.074 98.646 438.372 99.856 439.956 99.856C440.704 99.856 441.298 99.636 441.826 99.196C442.244 98.844 442.574 98.382 442.772 97.942ZM437.162 95.434H442.53C442.266 94.004 441.188 93.058 439.846 93.058C438.504 93.058 437.404 94.07 437.162 95.434ZM3.08 127.724V129H1.496L1.496 112.962H3.08L3.08 121.146C4.158 119.804 5.544 119.65 6.204 119.65C9.064 119.65 10.648 122.026 10.648 124.49C10.648 126.998 9.042 129.264 6.27 129.264C4.796 129.264 3.762 128.604 3.08 127.724ZM6.05 127.856C7.898 127.856 9.02 126.316 9.02 124.49C9.02 122.246 7.502 121.058 6.028 121.058C4.554 121.058 2.992 122.268 2.992 124.468C2.992 126.338 4.18 127.856 6.05 127.856ZM20.0721 121.168V119.87H21.6561V129H20.0721V127.724C19.5441 128.406 18.5541 129.264 16.9481 129.264C14.6381 129.264 12.5041 127.636 12.5041 124.424C12.5041 121.278 14.6161 119.65 16.9481 119.65C18.7081 119.65 19.6541 120.618 20.0721 121.168ZM17.1241 121.058C15.5621 121.058 14.1321 122.202 14.1321 124.424C14.1321 126.382 15.2321 127.856 17.1241 127.856C19.0601 127.856 20.1601 126.25 20.1601 124.446C20.1601 122.092 18.5321 121.058 17.1241 121.058ZM24.6562 112.962H26.2402V129H24.6562V112.962ZM29.2323 112.962H30.8163V129H29.2323V112.962ZM35.2605 114.326L34.9745 120.222H33.7865L33.5005 114.326H35.2605ZM43.015 121.3L41.717 121.982C41.497 121.454 41.035 121.058 40.441 121.058C39.869 121.058 39.341 121.388 39.341 122.092C39.341 122.752 39.781 122.95 40.815 123.39C42.135 123.94 42.751 124.358 43.103 124.798C43.499 125.282 43.587 125.766 43.587 126.272C43.587 128.186 42.201 129.264 40.441 129.264C40.067 129.264 38.021 129.22 37.251 126.932L38.615 126.36C38.791 126.844 39.319 127.856 40.463 127.856C41.497 127.856 41.959 127.086 41.959 126.404C41.959 125.546 41.343 125.26 40.485 124.886C39.385 124.402 38.681 124.05 38.263 123.544C37.911 123.104 37.845 122.664 37.845 122.202C37.845 120.596 38.967 119.65 40.507 119.65C40.991 119.65 42.289 119.738 43.015 121.3ZM54.6961 121.322H52.4521V129H50.8681V121.322H49.9881V119.87H50.8681V116.438C50.8681 115.448 50.9341 114.7 51.3961 114.04C51.8141 113.424 52.6941 112.698 54.4101 112.698C55.1801 112.698 56.6541 112.83 57.4241 114.04C57.9301 114.854 57.9521 115.734 57.9521 116.438V129H56.3681V116.438C56.3681 116.086 56.3461 115.448 56.0601 115.008C55.7961 114.612 55.2901 114.304 54.4101 114.304C53.5301 114.304 53.0241 114.612 52.7601 115.008C52.4741 115.426 52.4521 115.976 52.4521 116.438V119.87H54.6961V121.322ZM60.9433 119.87H62.5273V129H60.9433V119.87ZM60.6133 116.416C60.6133 115.8 61.1193 115.294 61.7353 115.294C62.3513 115.294 62.8573 115.8 62.8573 116.416C62.8573 117.032 62.3513 117.538 61.7353 117.538C61.1193 117.538 60.6133 117.032 60.6133 116.416ZM72.5154 121.168V119.87H74.0994V128.78C74.0994 129.77 74.0994 131.178 73.2194 132.366C72.5374 133.29 71.2834 134.06 69.5674 134.06C68.0054 134.06 66.9274 133.444 66.3114 132.828C65.6954 132.212 65.1234 131.222 65.1234 129.88H66.6854C66.6854 130.65 66.9934 131.332 67.3894 131.772C68.0494 132.498 68.8854 132.652 69.5894 132.652C70.7114 132.652 71.4814 132.256 72.0094 131.376C72.4714 130.628 72.5154 129.814 72.5154 129.044V127.724C71.9874 128.406 70.9974 129.264 69.3914 129.264C68.0494 129.264 66.9714 128.736 66.2674 128.032C65.6514 127.416 64.9474 126.272 64.9474 124.424C64.9474 122.642 65.6074 121.542 66.2674 120.882C67.0374 120.134 68.1594 119.65 69.3914 119.65C70.7334 119.65 71.7894 120.222 72.5154 121.168ZM69.5674 121.058C68.5994 121.058 67.9394 121.476 67.4994 121.916C66.7294 122.708 66.5754 123.676 66.5754 124.424C66.5754 125.216 66.7294 126.294 67.6094 127.108C68.1154 127.57 68.7314 127.856 69.5674 127.856C70.4034 127.856 71.0634 127.592 71.5694 127.086C72.1854 126.492 72.6034 125.524 72.6034 124.446C72.6034 123.368 72.2074 122.422 71.6354 121.872C71.1294 121.366 70.3814 121.058 69.5674 121.058ZM77.0995 129V112.962H78.6835V120.926C78.9695 120.552 79.7835 119.65 81.3015 119.65C82.3795 119.65 83.3695 120.09 83.9195 120.904C84.3815 121.586 84.4475 122.334 84.4475 123.346V129H82.8635V123.39C82.8635 122.84 82.8195 122.202 82.4455 121.718C82.1375 121.322 81.6535 121.058 80.9495 121.058C80.3995 121.058 79.8055 121.212 79.3435 121.762C78.7275 122.488 78.6835 123.566 78.6835 124.226V129H77.0995ZM90.6455 121.322H89.0615V129H87.4775V121.322H86.5095V119.87H87.4775V116.57H89.0615V119.87H90.6455V121.322ZM98.8573 127.724V134.06H97.2733V119.87H98.8573V121.146C99.9353 119.804 101.321 119.65 101.981 119.65C104.841 119.65 106.425 122.026 106.425 124.49C106.425 126.998 104.819 129.264 102.047 129.264C100.573 129.264 99.5393 128.604 98.8573 127.724ZM101.827 127.856C103.675 127.856 104.797 126.316 104.797 124.49C104.797 122.246 103.279 121.058 101.805 121.058C100.331 121.058 98.7693 122.268 98.7693 124.468C98.7693 126.338 99.9573 127.856 101.827 127.856ZM115.849 121.168V119.87L117.433 119.87V129H115.849V127.724C115.321 128.406 114.331 129.264 112.725 129.264C110.415 129.264 108.281 127.636 108.281 124.424C108.281 121.278 110.393 119.65 112.725 119.65C114.485 119.65 115.431 120.618 115.849 121.168ZM112.901 121.058C111.339 121.058 109.909 122.202 109.909 124.424C109.909 126.382 111.009 127.856 112.901 127.856C114.837 127.856 115.937 126.25 115.937 124.446C115.937 122.092 114.309 121.058 112.901 121.058ZM123.646 121.322H122.062V129H120.478V121.322H119.51V119.87H120.478V116.57H122.062V119.87H123.646V121.322ZM125.139 129V112.962H126.723V120.926C127.009 120.552 127.823 119.65 129.341 119.65C130.419 119.65 131.409 120.09 131.959 120.904C132.421 121.586 132.487 122.334 132.487 123.346V129H130.903V123.39C130.903 122.84 130.859 122.202 130.485 121.718C130.177 121.322 129.693 121.058 128.989 121.058C128.439 121.058 127.845 121.212 127.383 121.762C126.767 122.488 126.723 123.566 126.723 124.226V129H125.139ZM147.757 120.53V122.422C146.921 121.366 145.711 121.058 144.897 121.058C143.203 121.058 141.663 122.246 141.663 124.468C141.663 126.69 143.247 127.856 144.875 127.856C145.821 127.856 146.987 127.438 147.823 126.426V128.318C146.833 129.044 145.777 129.264 144.919 129.264C142.081 129.264 140.035 127.24 140.035 124.49C140.035 121.696 142.103 119.65 144.919 119.65C146.371 119.65 147.317 120.222 147.757 120.53ZM154.522 129.264C151.75 129.264 149.682 127.24 149.682 124.468C149.682 121.696 151.728 119.65 154.522 119.65C157.316 119.65 159.362 121.696 159.362 124.468C159.362 127.24 157.294 129.264 154.522 129.264ZM154.522 121.058C152.85 121.058 151.31 122.246 151.31 124.468C151.31 126.712 152.894 127.856 154.522 127.856C156.172 127.856 157.734 126.69 157.734 124.468C157.734 122.224 156.194 121.058 154.522 121.058ZM161.791 129V119.87H163.375V120.926C163.661 120.552 164.475 119.65 165.993 119.65C167.071 119.65 168.061 120.09 168.611 120.904C169.073 121.586 169.139 122.334 169.139 123.346V129H167.555V123.39C167.555 122.84 167.511 122.202 167.137 121.718C166.829 121.322 166.345 121.058 165.641 121.058C165.091 121.058 164.497 121.212 164.035 121.762C163.419 122.488 163.375 123.566 163.375 124.226V129H161.791ZM177.185 121.3L175.887 121.982C175.667 121.454 175.205 121.058 174.611 121.058C174.039 121.058 173.511 121.388 173.511 122.092C173.511 122.752 173.951 122.95 174.985 123.39C176.305 123.94 176.921 124.358 177.273 124.798C177.669 125.282 177.757 125.766 177.757 126.272C177.757 128.186 176.371 129.264 174.611 129.264C174.237 129.264 172.191 129.22 171.421 126.932L172.785 126.36C172.961 126.844 173.489 127.856 174.633 127.856C175.667 127.856 176.129 127.086 176.129 126.404C176.129 125.546 175.513 125.26 174.655 124.886C173.555 124.402 172.851 124.05 172.433 123.544C172.081 123.104 172.015 122.664 172.015 122.202C172.015 120.596 173.137 119.65 174.677 119.65C175.161 119.65 176.459 119.738 177.185 121.3ZM179.859 119.87H181.443V129H179.859V119.87ZM179.529 116.416C179.529 115.8 180.035 115.294 180.651 115.294C181.267 115.294 181.773 115.8 181.773 116.416C181.773 117.032 181.267 117.538 180.651 117.538C180.035 117.538 179.529 117.032 179.529 116.416ZM189.495 121.3L188.197 121.982C187.977 121.454 187.515 121.058 186.921 121.058C186.349 121.058 185.821 121.388 185.821 122.092C185.821 122.752 186.261 122.95 187.295 123.39C188.615 123.94 189.231 124.358 189.583 124.798C189.979 125.282 190.067 125.766 190.067 126.272C190.067 128.186 188.681 129.264 186.921 129.264C186.547 129.264 184.501 129.22 183.731 126.932L185.095 126.36C185.271 126.844 185.799 127.856 186.943 127.856C187.977 127.856 188.439 127.086 188.439 126.404C188.439 125.546 187.823 125.26 186.965 124.886C185.865 124.402 185.161 124.05 184.743 123.544C184.391 123.104 184.325 122.664 184.325 122.202C184.325 120.596 185.447 119.65 186.987 119.65C187.471 119.65 188.769 119.738 189.495 121.3ZM195.382 121.322H193.798V129H192.214V121.322H191.246V119.87H192.214V116.57H193.798V119.87H195.382V121.322ZM203.651 125.942L204.971 126.668C204.707 127.174 204.311 127.724 203.849 128.142C203.013 128.89 201.979 129.264 200.813 129.264C198.613 129.264 196.303 127.878 196.303 124.49C196.303 121.762 197.975 119.65 200.725 119.65C202.507 119.65 203.629 120.53 204.179 121.322C204.751 122.136 205.081 123.544 205.037 124.754H197.931C197.953 126.646 199.251 127.856 200.835 127.856C201.583 127.856 202.177 127.636 202.705 127.196C203.123 126.844 203.453 126.382 203.651 125.942ZM198.041 123.434H203.409C203.145 122.004 202.067 121.058 200.725 121.058C199.383 121.058 198.283 122.07 198.041 123.434ZM207.467 129V119.87H209.051V120.926C209.337 120.552 210.151 119.65 211.669 119.65C212.747 119.65 213.737 120.09 214.287 120.904C214.749 121.586 214.815 122.334 214.815 123.346V129H213.231V123.39C213.231 122.84 213.187 122.202 212.813 121.718C212.505 121.322 212.021 121.058 211.317 121.058C210.767 121.058 210.173 121.212 209.711 121.762C209.095 122.488 209.051 123.566 209.051 124.226V129H207.467ZM221.013 121.322H219.429V129H217.845V121.322H216.877V119.87H217.845V116.57H219.429V119.87H221.013V121.322ZM234.637 121.168V119.87H236.221V129H234.637V127.724C234.109 128.406 233.119 129.264 231.513 129.264C229.203 129.264 227.069 127.636 227.069 124.424C227.069 121.278 229.181 119.65 231.513 119.65C233.273 119.65 234.219 120.618 234.637 121.168ZM231.689 121.058C230.127 121.058 228.697 122.202 228.697 124.424C228.697 126.382 229.797 127.856 231.689 127.856C233.625 127.856 234.725 126.25 234.725 124.446C234.725 122.092 233.097 121.058 231.689 121.058ZM239.221 129V119.87H240.805V120.926C241.091 120.552 241.905 119.65 243.423 119.65C244.501 119.65 245.491 120.09 246.041 120.904C246.503 121.586 246.569 122.334 246.569 123.346V129H244.985V123.39C244.985 122.84 244.941 122.202 244.567 121.718C244.259 121.322 243.775 121.058 243.071 121.058C242.521 121.058 241.927 121.212 241.465 121.762C240.849 122.488 240.805 123.566 240.805 124.226V129H239.221ZM256.551 121.168V112.962H258.135V129H256.551V127.724C256.023 128.406 255.033 129.264 253.427 129.264C251.117 129.264 248.983 127.636 248.983 124.424C248.983 121.278 251.095 119.65 253.427 119.65C255.187 119.65 256.133 120.618 256.551 121.168ZM253.603 121.058C252.041 121.058 250.611 122.202 250.611 124.424C250.611 126.382 251.711 127.856 253.603 127.856C255.539 127.856 256.639 126.25 256.639 124.446C256.639 122.092 255.011 121.058 253.603 121.058ZM267.853 127.724V134.06H266.269V119.87H267.853V121.146C268.931 119.804 270.317 119.65 270.977 119.65C273.837 119.65 275.421 122.026 275.421 124.49C275.421 126.998 273.815 129.264 271.043 129.264C269.569 129.264 268.535 128.604 267.853 127.724ZM270.823 127.856C272.671 127.856 273.793 126.316 273.793 124.49C273.793 122.246 272.275 121.058 270.801 121.058C269.327 121.058 267.765 122.268 267.765 124.468C267.765 126.338 268.953 127.856 270.823 127.856ZM277.85 129V119.87H279.434V120.86C279.588 120.618 280.27 119.65 281.502 119.65C281.986 119.65 282.514 119.826 282.91 120.024L282.162 121.454C281.81 121.212 281.48 121.146 281.238 121.146C280.6 121.146 280.204 121.41 279.962 121.718C279.698 122.07 279.434 122.686 279.434 124.182V129H277.85ZM290.598 125.942L291.918 126.668C291.654 127.174 291.258 127.724 290.796 128.142C289.96 128.89 288.926 129.264 287.76 129.264C285.56 129.264 283.25 127.878 283.25 124.49C283.25 121.762 284.922 119.65 287.672 119.65C289.454 119.65 290.576 120.53 291.126 121.322C291.698 122.136 292.028 123.544 291.984 124.754H284.878C284.9 126.646 286.198 127.856 287.782 127.856C288.53 127.856 289.124 127.636 289.652 127.196C290.07 126.844 290.4 126.382 290.598 125.942ZM284.988 123.434H290.356C290.092 122.004 289.014 121.058 287.672 121.058C286.33 121.058 285.23 122.07 284.988 123.434ZM301.41 121.168V112.962H302.994V129H301.41V127.724C300.882 128.406 299.892 129.264 298.286 129.264C295.976 129.264 293.842 127.636 293.842 124.424C293.842 121.278 295.954 119.65 298.286 119.65C300.046 119.65 300.992 120.618 301.41 121.168ZM298.462 121.058C296.9 121.058 295.47 122.202 295.47 124.424C295.47 126.382 296.57 127.856 298.462 127.856C300.398 127.856 301.498 126.25 301.498 124.446C301.498 122.092 299.87 121.058 298.462 121.058ZM305.779 119.87H307.363V129H305.779V119.87ZM305.449 116.416C305.449 115.8 305.955 115.294 306.571 115.294C307.187 115.294 307.693 115.8 307.693 116.416C307.693 117.032 307.187 117.538 306.571 117.538C305.955 117.538 305.449 117.032 305.449 116.416ZM317.505 120.53V122.422C316.669 121.366 315.459 121.058 314.645 121.058C312.951 121.058 311.411 122.246 311.411 124.468C311.411 126.69 312.995 127.856 314.623 127.856C315.569 127.856 316.735 127.438 317.571 126.426V128.318C316.581 129.044 315.525 129.264 314.667 129.264C311.829 129.264 309.783 127.24 309.783 124.49C309.783 121.696 311.851 119.65 314.667 119.65C316.119 119.65 317.065 120.222 317.505 120.53ZM323.214 121.322H321.63V129H320.046V121.322H319.078V119.87H320.046V116.57H321.63V119.87H323.214V121.322ZM331.703 121.168V119.87H333.287V129H331.703V127.724C331.175 128.406 330.185 129.264 328.579 129.264C326.269 129.264 324.135 127.636 324.135 124.424C324.135 121.278 326.247 119.65 328.579 119.65C330.339 119.65 331.285 120.618 331.703 121.168ZM328.755 121.058C327.193 121.058 325.763 122.202 325.763 124.424C325.763 126.382 326.863 127.856 328.755 127.856C330.691 127.856 331.791 126.25 331.791 124.446C331.791 122.092 330.163 121.058 328.755 121.058ZM337.871 127.724V129H336.287V112.962H337.871V121.146C338.949 119.804 340.335 119.65 340.995 119.65C343.855 119.65 345.439 122.026 345.439 124.49C345.439 126.998 343.833 129.264 341.061 129.264C339.587 129.264 338.553 128.604 337.871 127.724ZM340.841 127.856C342.689 127.856 343.811 126.316 343.811 124.49C343.811 122.246 342.293 121.058 340.819 121.058C339.345 121.058 337.783 122.268 337.783 124.468C337.783 126.338 338.971 127.856 340.841 127.856ZM347.867 112.962L349.451 112.962V129H347.867V112.962ZM359.219 125.942L360.539 126.668C360.275 127.174 359.879 127.724 359.417 128.142C358.581 128.89 357.547 129.264 356.381 129.264C354.181 129.264 351.871 127.878 351.871 124.49C351.871 121.762 353.543 119.65 356.293 119.65C358.075 119.65 359.197 120.53 359.747 121.322C360.319 122.136 360.649 123.544 360.605 124.754H353.499C353.521 126.646 354.819 127.856 356.403 127.856C357.151 127.856 357.745 127.636 358.273 127.196C358.691 126.844 359.021 126.382 359.219 125.942ZM353.609 123.434H358.977C358.713 122.004 357.635 121.058 356.293 121.058C354.951 121.058 353.851 122.07 353.609 123.434ZM361.759 131.926L363.563 126.844L365.015 127.372L362.793 132.344L361.759 131.926ZM380.172 121.168V119.87H381.756V129H380.172V127.724C379.644 128.406 378.654 129.264 377.048 129.264C374.738 129.264 372.604 127.636 372.604 124.424C372.604 121.278 374.716 119.65 377.048 119.65C378.808 119.65 379.754 120.618 380.172 121.168ZM377.224 121.058C375.662 121.058 374.232 122.202 374.232 124.424C374.232 126.382 375.332 127.856 377.224 127.856C379.16 127.856 380.26 126.25 380.26 124.446C380.26 122.092 378.632 121.058 377.224 121.058ZM384.756 112.962H386.34V129H384.756V112.962ZM389.332 112.962H390.916V129H389.332V112.962ZM398.176 129.264C395.404 129.264 393.336 127.24 393.336 124.468C393.336 121.696 395.382 119.65 398.176 119.65C400.97 119.65 403.016 121.696 403.016 124.468C403.016 127.24 400.948 129.264 398.176 129.264ZM398.176 121.058C396.504 121.058 394.964 122.246 394.964 124.468C394.964 126.712 396.548 127.856 398.176 127.856C399.826 127.856 401.388 126.69 401.388 124.468C401.388 122.224 399.848 121.058 398.176 121.058ZM404.125 119.87H405.885L408.591 126.074L411.451 119.166L414.289 126.074L417.017 119.87H418.777L414.245 129.638L411.429 122.818L408.613 129.638L404.125 119.87ZM420.441 119.87H422.025V129H420.441V119.87ZM420.111 116.416C420.111 115.8 420.617 115.294 421.233 115.294C421.849 115.294 422.355 115.8 422.355 116.416C422.355 117.032 421.849 117.538 421.233 117.538C420.617 117.538 420.111 117.032 420.111 116.416ZM425.017 129V119.87H426.601V120.926C426.887 120.552 427.701 119.65 429.219 119.65C430.297 119.65 431.287 120.09 431.837 120.904C432.299 121.586 432.365 122.334 432.365 123.346V129H430.781V123.39C430.781 122.84 430.737 122.202 430.363 121.718C430.055 121.322 429.571 121.058 428.867 121.058C428.317 121.058 427.723 121.212 427.261 121.762C426.645 122.488 426.601 123.566 426.601 124.226V129H425.017ZM442.347 121.168V119.87H443.931V128.78C443.931 129.77 443.931 131.178 443.051 132.366C442.369 133.29 441.115 134.06 439.399 134.06C437.837 134.06 436.759 133.444 436.143 132.828C435.527 132.212 434.955 131.222 434.955 129.88H436.517C436.517 130.65 436.825 131.332 437.221 131.772C437.881 132.498 438.717 132.652 439.421 132.652C440.543 132.652 441.313 132.256 441.841 131.376C442.303 130.628 442.347 129.814 442.347 129.044V127.724C441.819 128.406 440.829 129.264 439.223 129.264C437.881 129.264 436.803 128.736 436.099 128.032C435.483 127.416 434.779 126.272 434.779 124.424C434.779 122.642 435.439 121.542 436.099 120.882C436.869 120.134 437.991 119.65 439.223 119.65C440.565 119.65 441.621 120.222 442.347 121.168ZM439.399 121.058C438.431 121.058 437.771 121.476 437.331 121.916C436.561 122.708 436.407 123.676 436.407 124.424C436.407 125.216 436.561 126.294 437.441 127.108C437.947 127.57 438.563 127.856 439.399 127.856C440.235 127.856 440.895 127.592 441.401 127.086C442.017 126.492 442.435 125.524 442.435 124.446C442.435 123.368 442.039 122.422 441.467 121.872C440.961 121.366 440.213 121.058 439.399 121.058ZM3.08 155.724L3.08 162.06H1.496L1.496 147.87H3.08V149.146C4.158 147.804 5.544 147.65 6.204 147.65C9.064 147.65 10.648 150.026 10.648 152.49C10.648 154.998 9.042 157.264 6.27 157.264C4.796 157.264 3.762 156.604 3.08 155.724ZM6.05 155.856C7.898 155.856 9.02 154.316 9.02 152.49C9.02 150.246 7.502 149.058 6.028 149.058C4.554 149.058 2.992 150.268 2.992 152.468C2.992 154.338 4.18 155.856 6.05 155.856ZM13.0761 140.962H14.6601L14.6601 157H13.0761L13.0761 140.962ZM24.6483 149.168V147.87H26.2323V157H24.6483V155.724C24.1203 156.406 23.1303 157.264 21.5243 157.264C19.2143 157.264 17.0803 155.636 17.0803 152.424C17.0803 149.278 19.1923 147.65 21.5243 147.65C23.2843 147.65 24.2303 148.618 24.6483 149.168ZM21.7003 149.058C20.1383 149.058 18.7083 150.202 18.7083 152.424C18.7083 154.382 19.8083 155.856 21.7003 155.856C23.6363 155.856 24.7363 154.25 24.7363 152.446C24.7363 150.092 23.1083 149.058 21.7003 149.058ZM29.2103 162.06L32.1143 156.142L27.9123 147.87H29.7163L32.9503 154.404L35.9203 147.87H37.6803L30.9703 162.06H29.2103ZM46.1275 153.942L47.4475 154.668C47.1835 155.174 46.7875 155.724 46.3255 156.142C45.4895 156.89 44.4555 157.264 43.2895 157.264C41.0895 157.264 38.7795 155.878 38.7795 152.49C38.7795 149.762 40.4515 147.65 43.2015 147.65C44.9835 147.65 46.1055 148.53 46.6555 149.322C47.2275 150.136 47.5575 151.544 47.5135 152.754H40.4075C40.4295 154.646 41.7275 155.856 43.3115 155.856C44.0595 155.856 44.6535 155.636 45.1815 155.196C45.5995 154.844 45.9295 154.382 46.1275 153.942ZM40.5175 151.434H45.8855C45.6215 150.004 44.5435 149.058 43.2015 149.058C41.8595 149.058 40.7595 150.07 40.5175 151.434ZM49.9433 157V147.87H51.5273V148.86C51.6813 148.618 52.3633 147.65 53.5953 147.65C54.0793 147.65 54.6073 147.826 55.0033 148.024L54.2553 149.454C53.9033 149.212 53.5733 149.146 53.3313 149.146C52.6933 149.146 52.2973 149.41 52.0553 149.718C51.7913 150.07 51.5273 150.686 51.5273 152.182V157H49.9433ZM61.2767 149.3L59.9787 149.982C59.7587 149.454 59.2967 149.058 58.7027 149.058C58.1307 149.058 57.6027 149.388 57.6027 150.092C57.6027 150.752 58.0427 150.95 59.0767 151.39C60.3967 151.94 61.0127 152.358 61.3647 152.798C61.7607 153.282 61.8487 153.766 61.8487 154.272C61.8487 156.186 60.4627 157.264 58.7027 157.264C58.3287 157.264 56.2827 157.22 55.5127 154.932L56.8767 154.36C57.0527 154.844 57.5807 155.856 58.7247 155.856C59.7587 155.856 60.2207 155.086 60.2207 154.404C60.2207 153.546 59.6047 153.26 58.7467 152.886C57.6467 152.402 56.9427 152.05 56.5247 151.544C56.1727 151.104 56.1067 150.664 56.1067 150.202C56.1067 148.596 57.2287 147.65 58.7687 147.65C59.2527 147.65 60.5507 147.738 61.2767 149.3ZM72.2978 149.322H70.7138V157H69.1298V149.322H68.1618V147.87H69.1298V144.57H70.7138V147.87H72.2978V149.322ZM78.0589 157.264C75.2869 157.264 73.2189 155.24 73.2189 152.468C73.2189 149.696 75.2649 147.65 78.0589 147.65C80.8529 147.65 82.8989 149.696 82.8989 152.468C82.8989 155.24 80.8309 157.264 78.0589 157.264ZM78.0589 149.058C76.3869 149.058 74.8469 150.246 74.8469 152.468C74.8469 154.712 76.4309 155.856 78.0589 155.856C79.7089 155.856 81.2709 154.69 81.2709 152.468C81.2709 150.224 79.7309 149.058 78.0589 149.058ZM90.4628 157V140.962H92.0468V148.926C92.3328 148.552 93.1468 147.65 94.6648 147.65C95.7428 147.65 96.7328 148.09 97.2828 148.904C97.7448 149.586 97.8108 150.334 97.8108 151.346V157H96.2268V151.39C96.2268 150.84 96.1828 150.202 95.8088 149.718C95.5008 149.322 95.0168 149.058 94.3128 149.058C93.7628 149.058 93.1688 149.212 92.7068 149.762C92.0908 150.488 92.0468 151.566 92.0468 152.226V157H90.4628ZM100.797 147.87H102.381V157H100.797V147.87ZM100.467 144.416C100.467 143.8 100.973 143.294 101.589 143.294C102.205 143.294 102.711 143.8 102.711 144.416C102.711 145.032 102.205 145.538 101.589 145.538C100.973 145.538 100.467 145.032 100.467 144.416ZM108.585 149.322H107.001V157H105.417V149.322H104.449V147.87H105.417V144.57H107.001V147.87H108.585V149.322ZM115.213 157V147.87H116.797V148.838C117.303 148.09 118.095 147.65 119.063 147.65C120.713 147.65 121.373 148.816 121.549 149.124C122.429 147.738 123.683 147.65 124.299 147.65C127.005 147.65 127.269 149.916 127.269 151.214V157H125.685V151.456C125.685 150.422 125.553 149.058 124.057 149.058C122.231 149.058 122.033 150.818 122.033 151.918V157H120.449V151.588C120.449 150.95 120.471 149.058 118.799 149.058C116.995 149.058 116.797 150.928 116.797 152.028V157H115.213ZM134.541 157.264C131.769 157.264 129.701 155.24 129.701 152.468C129.701 149.696 131.747 147.65 134.541 147.65C137.335 147.65 139.381 149.696 139.381 152.468C139.381 155.24 137.313 157.264 134.541 157.264ZM134.541 149.058C132.869 149.058 131.329 150.246 131.329 152.468C131.329 154.712 132.913 155.856 134.541 155.856C136.191 155.856 137.753 154.69 137.753 152.468C137.753 150.224 136.213 149.058 134.541 149.058ZM141.81 157V147.87H143.394V148.86C143.548 148.618 144.23 147.65 145.462 147.65C145.946 147.65 146.474 147.826 146.87 148.024L146.122 149.454C145.77 149.212 145.44 149.146 145.198 149.146C144.56 149.146 144.164 149.41 143.922 149.718C143.658 150.07 143.394 150.686 143.394 152.182V157H141.81ZM154.559 153.942L155.879 154.668C155.615 155.174 155.219 155.724 154.757 156.142C153.921 156.89 152.887 157.264 151.721 157.264C149.521 157.264 147.211 155.878 147.211 152.49C147.211 149.762 148.883 147.65 151.633 147.65C153.415 147.65 154.537 148.53 155.087 149.322C155.659 150.136 155.989 151.544 155.945 152.754H148.839C148.861 154.646 150.159 155.856 151.743 155.856C152.491 155.856 153.085 155.636 153.613 155.196C154.031 154.844 154.361 154.382 154.559 153.942ZM148.949 151.434H154.317C154.053 150.004 152.975 149.058 151.633 149.058C150.291 149.058 149.191 150.07 148.949 151.434ZM170.506 149.168V147.87H172.09V157H170.506V155.724C169.978 156.406 168.988 157.264 167.382 157.264C165.072 157.264 162.938 155.636 162.938 152.424C162.938 149.278 165.05 147.65 167.382 147.65C169.142 147.65 170.088 148.618 170.506 149.168ZM167.558 149.058C165.996 149.058 164.566 150.202 164.566 152.424C164.566 154.382 165.666 155.856 167.558 155.856C169.494 155.856 170.594 154.25 170.594 152.446C170.594 150.092 168.966 149.058 167.558 149.058ZM182.24 148.53V150.422C181.404 149.366 180.194 149.058 179.38 149.058C177.686 149.058 176.146 150.246 176.146 152.468C176.146 154.69 177.73 155.856 179.358 155.856C180.304 155.856 181.47 155.438 182.306 154.426V156.318C181.316 157.044 180.26 157.264 179.402 157.264C176.564 157.264 174.518 155.24 174.518 152.49C174.518 149.696 176.586 147.65 179.402 147.65C180.854 147.65 181.8 148.222 182.24 148.53ZM191.886 148.53V150.422C191.05 149.366 189.84 149.058 189.026 149.058C187.332 149.058 185.792 150.246 185.792 152.468C185.792 154.69 187.376 155.856 189.004 155.856C189.95 155.856 191.116 155.438 191.952 154.426V156.318C190.962 157.044 189.906 157.264 189.048 157.264C186.21 157.264 184.164 155.24 184.164 152.49C184.164 149.696 186.232 147.65 189.048 147.65C190.5 147.65 191.446 148.222 191.886 148.53ZM195.967 147.87V153.194C195.967 153.832 195.967 154.58 196.407 155.152C196.649 155.46 197.133 155.856 198.013 155.856C198.893 155.856 199.377 155.46 199.619 155.152C200.059 154.58 200.059 153.832 200.059 153.194V147.87H201.643V153.37C201.643 154.492 201.533 155.328 200.807 156.12C199.993 156.978 198.915 157.264 198.013 157.264C197.111 157.264 196.033 156.978 195.219 156.12C194.493 155.328 194.383 154.492 194.383 153.37V147.87H195.967ZM204.631 157V147.87H206.215V148.86C206.369 148.618 207.051 147.65 208.283 147.65C208.767 147.65 209.295 147.826 209.691 148.024L208.943 149.454C208.591 149.212 208.261 149.146 208.019 149.146C207.381 149.146 206.985 149.41 206.743 149.718C206.479 150.07 206.215 150.686 206.215 152.182V157H204.631ZM217.664 149.168V147.87H219.248V157H217.664V155.724C217.136 156.406 216.146 157.264 214.54 157.264C212.23 157.264 210.096 155.636 210.096 152.424C210.096 149.278 212.208 147.65 214.54 147.65C216.3 147.65 217.246 148.618 217.664 149.168ZM214.716 149.058C213.154 149.058 211.724 150.202 211.724 152.424C211.724 154.382 212.824 155.856 214.716 155.856C216.652 155.856 217.752 154.25 217.752 152.446C217.752 150.092 216.124 149.058 214.716 149.058ZM225.46 149.322H223.876V157H222.292V149.322H221.324V147.87H222.292V144.57H223.876V147.87H225.46V149.322ZM233.729 153.942L235.049 154.668C234.785 155.174 234.389 155.724 233.927 156.142C233.091 156.89 232.057 157.264 230.891 157.264C228.691 157.264 226.381 155.878 226.381 152.49C226.381 149.762 228.053 147.65 230.803 147.65C232.585 147.65 233.707 148.53 234.257 149.322C234.829 150.136 235.159 151.544 235.115 152.754L228.009 152.754C228.031 154.646 229.329 155.856 230.913 155.856C231.661 155.856 232.255 155.636 232.783 155.196C233.201 154.844 233.531 154.382 233.729 153.942ZM228.119 151.434L233.487 151.434C233.223 150.004 232.145 149.058 230.803 149.058C229.461 149.058 228.361 150.07 228.119 151.434ZM247.74 149.3L246.442 149.982C246.222 149.454 245.76 149.058 245.166 149.058C244.594 149.058 244.066 149.388 244.066 150.092C244.066 150.752 244.506 150.95 245.54 151.39C246.86 151.94 247.476 152.358 247.828 152.798C248.224 153.282 248.312 153.766 248.312 154.272C248.312 156.186 246.926 157.264 245.166 157.264C244.792 157.264 242.746 157.22 241.976 154.932L243.34 154.36C243.516 154.844 244.044 155.856 245.188 155.856C246.222 155.856 246.684 155.086 246.684 154.404C246.684 153.546 246.068 153.26 245.21 152.886C244.11 152.402 243.406 152.05 242.988 151.544C242.636 151.104 242.57 150.664 242.57 150.202C242.57 148.596 243.692 147.65 245.232 147.65C245.716 147.65 247.014 147.738 247.74 149.3ZM250.414 157V140.962H251.998V148.926C252.284 148.552 253.098 147.65 254.616 147.65C255.694 147.65 256.684 148.09 257.234 148.904C257.696 149.586 257.762 150.334 257.762 151.346V157H256.178V151.39C256.178 150.84 256.134 150.202 255.76 149.718C255.452 149.322 254.968 149.058 254.264 149.058C253.714 149.058 253.12 149.212 252.658 149.762C252.042 150.488 251.998 151.566 251.998 152.226V157H250.414ZM264.694 157.264C261.922 157.264 259.854 155.24 259.854 152.468C259.854 149.696 261.9 147.65 264.694 147.65C267.488 147.65 269.534 149.696 269.534 152.468C269.534 155.24 267.466 157.264 264.694 157.264ZM264.694 149.058C263.022 149.058 261.482 150.246 261.482 152.468C261.482 154.712 263.066 155.856 264.694 155.856C266.344 155.856 267.906 154.69 267.906 152.468C267.906 150.224 266.366 149.058 264.694 149.058ZM275.175 149.322H273.591V157H272.007V149.322H271.039V147.87H272.007V144.57H273.591V147.87H275.175V149.322ZM281.728 149.3L280.43 149.982C280.21 149.454 279.748 149.058 279.154 149.058C278.582 149.058 278.054 149.388 278.054 150.092C278.054 150.752 278.494 150.95 279.528 151.39C280.848 151.94 281.464 152.358 281.816 152.798C282.212 153.282 282.3 153.766 282.3 154.272C282.3 156.186 280.914 157.264 279.154 157.264C278.78 157.264 276.734 157.22 275.964 154.932L277.328 154.36C277.504 154.844 278.032 155.856 279.176 155.856C280.21 155.856 280.672 155.086 280.672 154.404C280.672 153.546 280.056 153.26 279.198 152.886C278.098 152.402 277.394 152.05 276.976 151.544C276.624 151.104 276.558 150.664 276.558 150.202C276.558 148.596 277.68 147.65 279.22 147.65C279.704 147.65 281.002 147.738 281.728 149.3ZM284.314 156.12C284.314 155.526 284.82 155.02 285.414 155.02C286.008 155.02 286.514 155.526 286.514 156.12C286.514 156.714 286.008 157.22 285.414 157.22C284.82 157.22 284.314 156.714 284.314 156.12Z" fill="#646464"/>
</svg>
