<svg width="709" height="103" viewBox="0 0 709 103" fill="none" xmlns="http://www.w3.org/2000/svg">
<path d="M28.9911 17L27.2751 12.864H21.0271L19.2671 17H17.4631L24.2171 1.622L30.7951 17H28.9911ZM21.6651 11.324H26.6371L24.1731 5.45L21.6651 11.324ZM32.4687 0.961999H34.0527V17H32.4687V0.961999ZM37.0448 0.961999H38.6288V17H37.0448V0.961999ZM49.9678 9.322H48.3838V17H46.7998V9.322H45.8318V7.87H46.7998V4.57H48.3838V7.87H49.9678V9.322ZM51.4608 17V0.961999H53.0448V8.926C53.3308 8.552 54.1448 7.65 55.6628 7.65C56.7408 7.65 57.7308 8.09 58.2808 8.904C58.7428 9.586 58.8088 10.334 58.8088 11.346V17H57.2248V11.39C57.2248 10.84 57.1808 10.202 56.8068 9.718C56.4988 9.322 56.0148 9.058 55.3108 9.058C54.7608 9.058 54.1668 9.212 53.7048 9.762C53.0888 10.488 53.0448 11.566 53.0448 12.226V17H51.4608ZM68.356 13.942L69.676 14.668C69.412 15.174 69.016 15.724 68.554 16.142C67.718 16.89 66.684 17.264 65.518 17.264C63.318 17.264 61.008 15.878 61.008 12.49C61.008 9.762 62.68 7.65 65.43 7.65C67.212 7.65 68.334 8.53 68.884 9.322C69.456 10.136 69.786 11.544 69.742 12.754H62.636C62.658 14.646 63.956 15.856 65.54 15.856C66.288 15.856 66.882 15.636 67.41 15.196C67.828 14.844 68.158 14.382 68.356 13.942ZM62.746 11.434H68.114C67.85 10.004 66.772 9.058 65.43 9.058C64.088 9.058 62.988 10.07 62.746 11.434ZM78.8905 15.724V17H77.3065V0.961999H78.8905V9.146C79.9685 7.804 81.3545 7.65 82.0145 7.65C84.8745 7.65 86.4585 10.026 86.4585 12.49C86.4585 14.998 84.8525 17.264 82.0805 17.264C80.6065 17.264 79.5725 16.604 78.8905 15.724ZM81.8605 15.856C83.7085 15.856 84.8305 14.316 84.8305 12.49C84.8305 10.246 83.3125 9.058 81.8385 9.058C80.3645 9.058 78.8025 10.268 78.8025 12.468C78.8025 14.338 79.9905 15.856 81.8605 15.856ZM93.1546 17.264C90.3826 17.264 88.3146 15.24 88.3146 12.468C88.3146 9.696 90.3606 7.65 93.1546 7.65C95.9486 7.65 97.9946 9.696 97.9946 12.468C97.9946 15.24 95.9266 17.264 93.1546 17.264ZM93.1546 9.058C91.4826 9.058 89.9426 10.246 89.9426 12.468C89.9426 14.712 91.5266 15.856 93.1546 15.856C94.8046 15.856 96.3666 14.69 96.3666 12.468C96.3666 10.224 94.8266 9.058 93.1546 9.058ZM100.424 0.961999H102.008V11.258L105.352 7.87H107.42L103.504 11.786L108.124 17H106.056L102.404 12.842L102.008 13.238V17H100.424V0.961999ZM109.683 22.06L112.587 16.142L108.385 7.87H110.189L113.423 14.404L116.393 7.87H118.153L111.443 22.06H109.683ZM123.639 7.87H125.399L128.105 14.074L130.965 7.166L133.803 14.074L136.531 7.87H138.291L133.759 17.638L130.943 10.818L128.127 17.638L123.639 7.87ZM146.731 13.942L148.051 14.668C147.787 15.174 147.391 15.724 146.929 16.142C146.093 16.89 145.059 17.264 143.893 17.264C141.693 17.264 139.383 15.878 139.383 12.49C139.383 9.762 141.055 7.65 143.805 7.65C145.587 7.65 146.709 8.53 147.259 9.322C147.831 10.136 148.161 11.544 148.117 12.754H141.011C141.033 14.646 142.331 15.856 143.915 15.856C144.663 15.856 145.257 15.636 145.785 15.196C146.203 14.844 146.533 14.382 146.731 13.942ZM141.121 11.434H146.489C146.225 10.004 145.147 9.058 143.805 9.058C142.463 9.058 141.363 10.07 141.121 11.434ZM157.543 9.168V0.961999H159.127V17H157.543V15.724C157.015 16.406 156.025 17.264 154.419 17.264C152.109 17.264 149.975 15.636 149.975 12.424C149.975 9.278 152.087 7.65 154.419 7.65C156.179 7.65 157.125 8.618 157.543 9.168ZM154.595 9.058C153.033 9.058 151.603 10.202 151.603 12.424C151.603 14.382 152.703 15.856 154.595 15.856C156.531 15.856 157.631 14.25 157.631 12.446C157.631 10.092 156.003 9.058 154.595 9.058ZM169.123 9.168V7.87H170.707V16.78C170.707 17.77 170.707 19.178 169.827 20.366C169.145 21.29 167.891 22.06 166.175 22.06C164.613 22.06 163.535 21.444 162.919 20.828C162.303 20.212 161.731 19.222 161.731 17.88H163.293C163.293 18.65 163.601 19.332 163.997 19.772C164.657 20.498 165.493 20.652 166.197 20.652C167.319 20.652 168.089 20.256 168.617 19.376C169.079 18.628 169.123 17.814 169.123 17.044V15.724C168.595 16.406 167.605 17.264 165.999 17.264C164.657 17.264 163.579 16.736 162.875 16.032C162.259 15.416 161.555 14.272 161.555 12.424C161.555 10.642 162.215 9.542 162.875 8.882C163.645 8.134 164.767 7.65 165.999 7.65C167.341 7.65 168.397 8.222 169.123 9.168ZM166.175 9.058C165.207 9.058 164.547 9.476 164.107 9.916C163.337 10.708 163.183 11.676 163.183 12.424C163.183 13.216 163.337 14.294 164.217 15.108C164.723 15.57 165.339 15.856 166.175 15.856C167.011 15.856 167.671 15.592 168.177 15.086C168.793 14.492 169.211 13.524 169.211 12.446C169.211 11.368 168.815 10.422 168.243 9.872C167.737 9.366 166.989 9.058 166.175 9.058ZM180.483 13.942L181.803 14.668C181.539 15.174 181.143 15.724 180.681 16.142C179.845 16.89 178.811 17.264 177.645 17.264C175.445 17.264 173.135 15.878 173.135 12.49C173.135 9.762 174.807 7.65 177.557 7.65C179.339 7.65 180.461 8.53 181.011 9.322C181.583 10.136 181.913 11.544 181.869 12.754H174.763C174.785 14.646 176.083 15.856 177.667 15.856C178.415 15.856 179.009 15.636 179.537 15.196C179.955 14.844 180.285 14.382 180.483 13.942ZM174.873 11.434H180.241C179.977 10.004 178.899 9.058 177.557 9.058C176.215 9.058 175.115 10.07 174.873 11.434ZM189.359 9.3L188.061 9.982C187.841 9.454 187.379 9.058 186.785 9.058C186.213 9.058 185.685 9.388 185.685 10.092C185.685 10.752 186.125 10.95 187.159 11.39C188.479 11.94 189.095 12.358 189.447 12.798C189.843 13.282 189.931 13.766 189.931 14.272C189.931 16.186 188.545 17.264 186.785 17.264C186.411 17.264 184.365 17.22 183.595 14.932L184.959 14.36C185.135 14.844 185.663 15.856 186.807 15.856C187.841 15.856 188.303 15.086 188.303 14.404C188.303 13.546 187.687 13.26 186.829 12.886C185.729 12.402 185.025 12.05 184.607 11.544C184.255 11.104 184.189 10.664 184.189 10.202C184.189 8.596 185.311 7.65 186.851 7.65C187.335 7.65 188.633 7.738 189.359 9.3ZM204.164 9.168V7.87H205.748V17H204.164V15.724C203.636 16.406 202.646 17.264 201.04 17.264C198.73 17.264 196.596 15.636 196.596 12.424C196.596 9.278 198.708 7.65 201.04 7.65C202.8 7.65 203.746 8.618 204.164 9.168ZM201.216 9.058C199.654 9.058 198.224 10.202 198.224 12.424C198.224 14.382 199.324 15.856 201.216 15.856C203.152 15.856 204.252 14.25 204.252 12.446C204.252 10.092 202.624 9.058 201.216 9.058ZM208.748 17V7.87H210.332V8.86C210.486 8.618 211.168 7.65 212.4 7.65C212.884 7.65 213.412 7.826 213.808 8.024L213.06 9.454C212.708 9.212 212.378 9.146 212.136 9.146C211.498 9.146 211.102 9.41 210.86 9.718C210.596 10.07 210.332 10.686 210.332 12.182V17H208.748ZM221.497 13.942L222.817 14.668C222.553 15.174 222.157 15.724 221.695 16.142C220.859 16.89 219.825 17.264 218.659 17.264C216.459 17.264 214.149 15.878 214.149 12.49C214.149 9.762 215.821 7.65 218.571 7.65C220.353 7.65 221.475 8.53 222.025 9.322C222.597 10.136 222.927 11.544 222.883 12.754H215.777C215.799 14.646 217.097 15.856 218.681 15.856C219.429 15.856 220.023 15.636 220.551 15.196C220.969 14.844 221.299 14.382 221.497 13.942ZM215.887 11.434H221.255C220.991 10.004 219.913 9.058 218.571 9.058C217.229 9.058 216.129 10.07 215.887 11.434ZM237.443 9.168V7.87H239.027V17H237.443V15.724C236.915 16.406 235.925 17.264 234.319 17.264C232.009 17.264 229.875 15.636 229.875 12.424C229.875 9.278 231.987 7.65 234.319 7.65C236.079 7.65 237.025 8.618 237.443 9.168ZM234.495 9.058C232.933 9.058 231.503 10.202 231.503 12.424C231.503 14.382 232.603 15.856 234.495 15.856C236.431 15.856 237.531 14.25 237.531 12.446C237.531 10.092 235.903 9.058 234.495 9.058ZM254.312 8.53V10.422C253.476 9.366 252.266 9.058 251.452 9.058C249.758 9.058 248.218 10.246 248.218 12.468C248.218 14.69 249.802 15.856 251.43 15.856C252.376 15.856 253.542 15.438 254.378 14.426V16.318C253.388 17.044 252.332 17.264 251.474 17.264C248.636 17.264 246.59 15.24 246.59 12.49C246.59 9.696 248.658 7.65 251.474 7.65C252.926 7.65 253.872 8.222 254.312 8.53ZM261.077 17.264C258.305 17.264 256.237 15.24 256.237 12.468C256.237 9.696 258.283 7.65 261.077 7.65C263.871 7.65 265.917 9.696 265.917 12.468C265.917 15.24 263.849 17.264 261.077 17.264ZM261.077 9.058C259.405 9.058 257.865 10.246 257.865 12.468C257.865 14.712 259.449 15.856 261.077 15.856C262.727 15.856 264.289 14.69 264.289 12.468C264.289 10.224 262.749 9.058 261.077 9.058ZM268.346 0.961999H269.93V17H268.346V0.961999ZM272.922 0.961999H274.506V17H272.922V0.961999ZM284.494 9.168V7.87H286.078V17H284.494V15.724C283.966 16.406 282.976 17.264 281.37 17.264C279.06 17.264 276.926 15.636 276.926 12.424C276.926 9.278 279.038 7.65 281.37 7.65C283.13 7.65 284.076 8.618 284.494 9.168ZM281.546 9.058C279.984 9.058 278.554 10.202 278.554 12.424C278.554 14.382 279.654 15.856 281.546 15.856C283.482 15.856 284.582 14.25 284.582 12.446C284.582 10.092 282.954 9.058 281.546 9.058ZM290.662 15.724V17H289.078V0.961999H290.662V9.146C291.74 7.804 293.126 7.65 293.786 7.65C296.646 7.65 298.23 10.026 298.23 12.49C298.23 14.998 296.624 17.264 293.852 17.264C292.378 17.264 291.344 16.604 290.662 15.724ZM293.632 15.856C295.48 15.856 296.602 14.316 296.602 12.49C296.602 10.246 295.084 9.058 293.61 9.058C292.136 9.058 290.574 10.268 290.574 12.468C290.574 14.338 291.762 15.856 293.632 15.856ZM304.926 17.264C302.154 17.264 300.086 15.24 300.086 12.468C300.086 9.696 302.132 7.65 304.926 7.65C307.72 7.65 309.766 9.696 309.766 12.468C309.766 15.24 307.698 17.264 304.926 17.264ZM304.926 9.058C303.254 9.058 301.714 10.246 301.714 12.468C301.714 14.712 303.298 15.856 304.926 15.856C306.576 15.856 308.138 14.69 308.138 12.468C308.138 10.224 306.598 9.058 304.926 9.058ZM312.195 17V7.87H313.779V8.86C313.933 8.618 314.615 7.65 315.847 7.65C316.331 7.65 316.859 7.826 317.255 8.024L316.507 9.454C316.155 9.212 315.825 9.146 315.583 9.146C314.945 9.146 314.549 9.41 314.307 9.718C314.043 10.07 313.779 10.686 313.779 12.182V17H312.195ZM325.228 9.168V7.87H326.812V17H325.228V15.724C324.7 16.406 323.71 17.264 322.104 17.264C319.794 17.264 317.66 15.636 317.66 12.424C317.66 9.278 319.772 7.65 322.104 7.65C323.864 7.65 324.81 8.618 325.228 9.168ZM322.28 9.058C320.718 9.058 319.288 10.202 319.288 12.424C319.288 14.382 320.388 15.856 322.28 15.856C324.216 15.856 325.316 14.25 325.316 12.446C325.316 10.092 323.688 9.058 322.28 9.058ZM333.024 9.322H331.44V17H329.856V9.322H328.888V7.87H329.856V4.57H331.44V7.87H333.024V9.322ZM334.517 7.87H336.101V17H334.517V7.87ZM334.187 4.416C334.187 3.8 334.693 3.294 335.309 3.294C335.925 3.294 336.431 3.8 336.431 4.416C336.431 5.032 335.925 5.538 335.309 5.538C334.693 5.538 334.187 5.032 334.187 4.416ZM343.362 17.264C340.59 17.264 338.522 15.24 338.522 12.468C338.522 9.696 340.568 7.65 343.362 7.65C346.156 7.65 348.202 9.696 348.202 12.468C348.202 15.24 346.134 17.264 343.362 17.264ZM343.362 9.058C341.69 9.058 340.15 10.246 340.15 12.468C340.15 14.712 341.734 15.856 343.362 15.856C345.012 15.856 346.574 14.69 346.574 12.468C346.574 10.224 345.034 9.058 343.362 9.058ZM350.631 17V7.87H352.215V8.926C352.501 8.552 353.315 7.65 354.833 7.65C355.911 7.65 356.901 8.09 357.451 8.904C357.913 9.586 357.979 10.334 357.979 11.346V17H356.395V11.39C356.395 10.84 356.351 10.202 355.977 9.718C355.669 9.322 355.185 9.058 354.481 9.058C353.931 9.058 353.337 9.212 352.875 9.762C352.259 10.488 352.215 11.566 352.215 12.226V17H350.631ZM370.368 17.264C367.596 17.264 365.528 15.24 365.528 12.468C365.528 9.696 367.574 7.65 370.368 7.65C373.162 7.65 375.208 9.696 375.208 12.468C375.208 15.24 373.14 17.264 370.368 17.264ZM370.368 9.058C368.696 9.058 367.156 10.246 367.156 12.468C367.156 14.712 368.74 15.856 370.368 15.856C372.018 15.856 373.58 14.69 373.58 12.468C373.58 10.224 372.04 9.058 370.368 9.058ZM381.509 9.322H379.265V17H377.681V9.322H376.801V7.87H377.681V3.888C377.681 3.052 377.747 1.996 378.561 1.314C379.001 0.94 379.661 0.72 380.387 0.72C380.959 0.72 381.333 0.851999 381.509 0.918V2.458C381.179 2.326 380.805 2.26 380.475 2.26C380.123 2.26 379.705 2.348 379.463 2.744C379.265 3.074 379.265 3.58 379.265 4.064V7.87H381.509V9.322ZM389.641 15.724V22.06H388.057V7.87H389.641V9.146C390.719 7.804 392.105 7.65 392.765 7.65C395.625 7.65 397.209 10.026 397.209 12.49C397.209 14.998 395.603 17.264 392.831 17.264C391.357 17.264 390.323 16.604 389.641 15.724ZM392.611 15.856C394.459 15.856 395.581 14.316 395.581 12.49C395.581 10.246 394.063 9.058 392.589 9.058C391.115 9.058 389.553 10.268 389.553 12.468C389.553 14.338 390.741 15.856 392.611 15.856ZM399.637 17V7.87H401.221V8.86C401.375 8.618 402.057 7.65 403.289 7.65C403.773 7.65 404.301 7.826 404.697 8.024L403.949 9.454C403.597 9.212 403.267 9.146 403.025 9.146C402.387 9.146 401.991 9.41 401.749 9.718C401.485 10.07 401.221 10.686 401.221 12.182V17H399.637ZM412.385 13.942L413.705 14.668C413.441 15.174 413.045 15.724 412.583 16.142C411.747 16.89 410.713 17.264 409.547 17.264C407.347 17.264 405.037 15.878 405.037 12.49C405.037 9.762 406.709 7.65 409.459 7.65C411.241 7.65 412.363 8.53 412.913 9.322C413.485 10.136 413.815 11.544 413.771 12.754H406.665C406.687 14.646 407.985 15.856 409.569 15.856C410.317 15.856 410.911 15.636 411.439 15.196C411.857 14.844 412.187 14.382 412.385 13.942ZM406.775 11.434H412.143C411.879 10.004 410.801 9.058 409.459 9.058C408.117 9.058 407.017 10.07 406.775 11.434ZM423.351 8.53V10.422C422.515 9.366 421.305 9.058 420.491 9.058C418.797 9.058 417.257 10.246 417.257 12.468C417.257 14.69 418.841 15.856 420.469 15.856C421.415 15.856 422.581 15.438 423.417 14.426V16.318C422.427 17.044 421.371 17.264 420.513 17.264C417.675 17.264 415.629 15.24 415.629 12.49C415.629 9.696 417.697 7.65 420.513 7.65C421.965 7.65 422.911 8.222 423.351 8.53ZM425.848 7.87H427.432V17H425.848V7.87ZM425.518 4.416C425.518 3.8 426.024 3.294 426.64 3.294C427.256 3.294 427.762 3.8 427.762 4.416C427.762 5.032 427.256 5.538 426.64 5.538C426.024 5.538 425.518 5.032 425.518 4.416ZM435.484 9.3L434.186 9.982C433.966 9.454 433.504 9.058 432.91 9.058C432.338 9.058 431.81 9.388 431.81 10.092C431.81 10.752 432.25 10.95 433.284 11.39C434.604 11.94 435.22 12.358 435.572 12.798C435.968 13.282 436.056 13.766 436.056 14.272C436.056 16.186 434.67 17.264 432.91 17.264C432.536 17.264 430.49 17.22 429.72 14.932L431.084 14.36C431.26 14.844 431.788 15.856 432.932 15.856C433.966 15.856 434.428 15.086 434.428 14.404C434.428 13.546 433.812 13.26 432.954 12.886C431.854 12.402 431.15 12.05 430.732 11.544C430.38 11.104 430.314 10.664 430.314 10.202C430.314 8.596 431.436 7.65 432.976 7.65C433.46 7.65 434.758 7.738 435.484 9.3ZM444.934 13.942L446.254 14.668C445.99 15.174 445.594 15.724 445.132 16.142C444.296 16.89 443.262 17.264 442.096 17.264C439.896 17.264 437.586 15.878 437.586 12.49C437.586 9.762 439.258 7.65 442.008 7.65C443.79 7.65 444.912 8.53 445.462 9.322C446.034 10.136 446.364 11.544 446.32 12.754H439.214C439.236 14.646 440.534 15.856 442.118 15.856C442.866 15.856 443.46 15.636 443.988 15.196C444.406 14.844 444.736 14.382 444.934 13.942ZM439.324 11.434H444.692C444.428 10.004 443.35 9.058 442.008 9.058C440.666 9.058 439.566 10.07 439.324 11.434ZM460.661 13.942L461.981 14.668C461.717 15.174 461.321 15.724 460.859 16.142C460.023 16.89 458.989 17.264 457.823 17.264C455.623 17.264 453.313 15.878 453.313 12.49C453.313 9.762 454.985 7.65 457.735 7.65C459.517 7.65 460.639 8.53 461.189 9.322C461.761 10.136 462.091 11.544 462.047 12.754H454.941C454.963 14.646 456.261 15.856 457.845 15.856C458.593 15.856 459.187 15.636 459.715 15.196C460.133 14.844 460.463 14.382 460.661 13.942ZM455.051 11.434H460.419C460.155 10.004 459.077 9.058 457.735 9.058C456.393 9.058 455.293 10.07 455.051 11.434ZM464.476 17V7.87H466.06V8.926C466.346 8.552 467.16 7.65 468.678 7.65C469.756 7.65 470.746 8.09 471.296 8.904C471.758 9.586 471.824 10.334 471.824 11.346V17H470.24V11.39C470.24 10.84 470.196 10.202 469.822 9.718C469.514 9.322 469.03 9.058 468.326 9.058C467.776 9.058 467.182 9.212 466.72 9.762C466.104 10.488 466.06 11.566 466.06 12.226V17H464.476ZM481.806 9.168V7.87H483.39V16.78C483.39 17.77 483.39 19.178 482.51 20.366C481.828 21.29 480.574 22.06 478.858 22.06C477.296 22.06 476.218 21.444 475.602 20.828C474.986 20.212 474.414 19.222 474.414 17.88H475.976C475.976 18.65 476.284 19.332 476.68 19.772C477.34 20.498 478.176 20.652 478.88 20.652C480.002 20.652 480.772 20.256 481.3 19.376C481.762 18.628 481.806 17.814 481.806 17.044V15.724C481.278 16.406 480.288 17.264 478.682 17.264C477.34 17.264 476.262 16.736 475.558 16.032C474.942 15.416 474.238 14.272 474.238 12.424C474.238 10.642 474.898 9.542 475.558 8.882C476.328 8.134 477.45 7.65 478.682 7.65C480.024 7.65 481.08 8.222 481.806 9.168ZM478.858 9.058C477.89 9.058 477.23 9.476 476.79 9.916C476.02 10.708 475.866 11.676 475.866 12.424C475.866 13.216 476.02 14.294 476.9 15.108C477.406 15.57 478.022 15.856 478.858 15.856C479.694 15.856 480.354 15.592 480.86 15.086C481.476 14.492 481.894 13.524 481.894 12.446C481.894 11.368 481.498 10.422 480.926 9.872C480.42 9.366 479.672 9.058 478.858 9.058ZM486.391 7.87H487.975V17H486.391V7.87ZM486.061 4.416C486.061 3.8 486.567 3.294 487.183 3.294C487.799 3.294 488.305 3.8 488.305 4.416C488.305 5.032 487.799 5.538 487.183 5.538C486.567 5.538 486.061 5.032 486.061 4.416ZM490.967 17V7.87H492.551V8.926C492.837 8.552 493.651 7.65 495.169 7.65C496.247 7.65 497.237 8.09 497.787 8.904C498.249 9.586 498.315 10.334 498.315 11.346V17H496.731V11.39C496.731 10.84 496.687 10.202 496.313 9.718C496.005 9.322 495.521 9.058 494.817 9.058C494.267 9.058 493.673 9.212 493.211 9.762C492.595 10.488 492.551 11.566 492.551 12.226V17H490.967ZM508.077 13.942L509.397 14.668C509.133 15.174 508.737 15.724 508.275 16.142C507.439 16.89 506.405 17.264 505.239 17.264C503.039 17.264 500.729 15.878 500.729 12.49C500.729 9.762 502.401 7.65 505.151 7.65C506.933 7.65 508.055 8.53 508.605 9.322C509.177 10.136 509.507 11.544 509.463 12.754H502.357C502.379 14.646 503.677 15.856 505.261 15.856C506.009 15.856 506.603 15.636 507.131 15.196C507.549 14.844 507.879 14.382 508.077 13.942ZM502.467 11.434H507.835C507.571 10.004 506.493 9.058 505.151 9.058C503.809 9.058 502.709 10.07 502.467 11.434ZM518.668 13.942L519.988 14.668C519.724 15.174 519.328 15.724 518.866 16.142C518.03 16.89 516.996 17.264 515.83 17.264C513.63 17.264 511.32 15.878 511.32 12.49C511.32 9.762 512.992 7.65 515.742 7.65C517.524 7.65 518.646 8.53 519.196 9.322C519.768 10.136 520.098 11.544 520.054 12.754H512.948C512.97 14.646 514.268 15.856 515.852 15.856C516.6 15.856 517.194 15.636 517.722 15.196C518.14 14.844 518.47 14.382 518.668 13.942ZM513.058 11.434H518.426C518.162 10.004 517.084 9.058 515.742 9.058C514.4 9.058 513.3 10.07 513.058 11.434ZM522.484 17V7.87H524.068V8.86C524.222 8.618 524.904 7.65 526.136 7.65C526.62 7.65 527.148 7.826 527.544 8.024L526.796 9.454C526.444 9.212 526.114 9.146 525.872 9.146C525.234 9.146 524.838 9.41 524.596 9.718C524.332 10.07 524.068 10.686 524.068 12.182V17H522.484ZM528.994 7.87H530.578V17H528.994V7.87ZM528.664 4.416C528.664 3.8 529.17 3.294 529.786 3.294C530.402 3.294 530.908 3.8 530.908 4.416C530.908 5.032 530.402 5.538 529.786 5.538C529.17 5.538 528.664 5.032 528.664 4.416ZM533.57 17V7.87H535.154V8.926C535.44 8.552 536.254 7.65 537.772 7.65C538.85 7.65 539.84 8.09 540.39 8.904C540.852 9.586 540.918 10.334 540.918 11.346V17H539.334V11.39C539.334 10.84 539.29 10.202 538.916 9.718C538.608 9.322 538.124 9.058 537.42 9.058C536.87 9.058 536.276 9.212 535.814 9.762C535.198 10.488 535.154 11.566 535.154 12.226V17H533.57ZM550.9 9.168V7.87H552.484V16.78C552.484 17.77 552.484 19.178 551.604 20.366C550.922 21.29 549.668 22.06 547.952 22.06C546.39 22.06 545.312 21.444 544.696 20.828C544.08 20.212 543.508 19.222 543.508 17.88H545.07C545.07 18.65 545.378 19.332 545.774 19.772C546.434 20.498 547.27 20.652 547.974 20.652C549.096 20.652 549.866 20.256 550.394 19.376C550.856 18.628 550.9 17.814 550.9 17.044V15.724C550.372 16.406 549.382 17.264 547.776 17.264C546.434 17.264 545.356 16.736 544.652 16.032C544.036 15.416 543.332 14.272 543.332 12.424C543.332 10.642 543.992 9.542 544.652 8.882C545.422 8.134 546.544 7.65 547.776 7.65C549.118 7.65 550.174 8.222 550.9 9.168ZM547.952 9.058C546.984 9.058 546.324 9.476 545.884 9.916C545.114 10.708 544.96 11.676 544.96 12.424C544.96 13.216 545.114 14.294 545.994 15.108C546.5 15.57 547.116 15.856 547.952 15.856C548.788 15.856 549.448 15.592 549.954 15.086C550.57 14.492 550.988 13.524 550.988 12.446C550.988 11.368 550.592 10.422 550.02 9.872C549.514 9.366 548.766 9.058 547.952 9.058ZM563.831 9.322H562.247V17H560.663V9.322H559.695V7.87H560.663V4.57H562.247V7.87H563.831V9.322ZM572.1 13.942L573.42 14.668C573.156 15.174 572.76 15.724 572.298 16.142C571.462 16.89 570.428 17.264 569.262 17.264C567.062 17.264 564.752 15.878 564.752 12.49C564.752 9.762 566.424 7.65 569.174 7.65C570.956 7.65 572.078 8.53 572.628 9.322C573.2 10.136 573.53 11.544 573.486 12.754H566.38C566.402 14.646 567.7 15.856 569.284 15.856C570.032 15.856 570.626 15.636 571.154 15.196C571.572 14.844 571.902 14.382 572.1 13.942ZM566.49 11.434H571.858C571.594 10.004 570.516 9.058 569.174 9.058C567.832 9.058 566.732 10.07 566.49 11.434ZM583.066 8.53V10.422C582.23 9.366 581.02 9.058 580.206 9.058C578.512 9.058 576.972 10.246 576.972 12.468C576.972 14.69 578.556 15.856 580.184 15.856C581.13 15.856 582.296 15.438 583.132 14.426V16.318C582.142 17.044 581.086 17.264 580.228 17.264C577.39 17.264 575.344 15.24 575.344 12.49C575.344 9.696 577.412 7.65 580.228 7.65C581.68 7.65 582.626 8.222 583.066 8.53ZM585.562 17V0.961999H587.146V8.926C587.432 8.552 588.246 7.65 589.764 7.65C590.842 7.65 591.832 8.09 592.382 8.904C592.844 9.586 592.91 10.334 592.91 11.346V17H591.326V11.39C591.326 10.84 591.282 10.202 590.908 9.718C590.6 9.322 590.116 9.058 589.412 9.058C588.862 9.058 588.268 9.212 587.806 9.762C587.19 10.488 587.146 11.566 587.146 12.226V17H585.562ZM595.896 17V7.87H597.48V8.926C597.766 8.552 598.58 7.65 600.098 7.65C601.176 7.65 602.166 8.09 602.716 8.904C603.178 9.586 603.244 10.334 603.244 11.346V17H601.66V11.39C601.66 10.84 601.616 10.202 601.242 9.718C600.934 9.322 600.45 9.058 599.746 9.058C599.196 9.058 598.602 9.212 598.14 9.762C597.524 10.488 597.48 11.566 597.48 12.226V17H595.896ZM610.498 17.264C607.726 17.264 605.658 15.24 605.658 12.468C605.658 9.696 607.704 7.65 610.498 7.65C613.292 7.65 615.338 9.696 615.338 12.468C615.338 15.24 613.27 17.264 610.498 17.264ZM610.498 9.058C608.826 9.058 607.286 10.246 607.286 12.468C607.286 14.712 608.87 15.856 610.498 15.856C612.148 15.856 613.71 14.69 613.71 12.468C613.71 10.224 612.17 9.058 610.498 9.058ZM617.767 0.961999H619.351V17H617.767V0.961999ZM626.612 17.264C623.84 17.264 621.772 15.24 621.772 12.468C621.772 9.696 623.818 7.65 626.612 7.65C629.406 7.65 631.452 9.696 631.452 12.468C631.452 15.24 629.384 17.264 626.612 17.264ZM626.612 9.058C624.94 9.058 623.4 10.246 623.4 12.468C623.4 14.712 624.984 15.856 626.612 15.856C628.262 15.856 629.824 14.69 629.824 12.468C629.824 10.224 628.284 9.058 626.612 9.058ZM640.877 9.168V7.87H642.461V16.78C642.461 17.77 642.461 19.178 641.581 20.366C640.899 21.29 639.645 22.06 637.929 22.06C636.367 22.06 635.289 21.444 634.673 20.828C634.057 20.212 633.485 19.222 633.485 17.88H635.047C635.047 18.65 635.355 19.332 635.751 19.772C636.411 20.498 637.247 20.652 637.951 20.652C639.073 20.652 639.843 20.256 640.371 19.376C640.833 18.628 640.877 17.814 640.877 17.044V15.724C640.349 16.406 639.359 17.264 637.753 17.264C636.411 17.264 635.333 16.736 634.629 16.032C634.013 15.416 633.309 14.272 633.309 12.424C633.309 10.642 633.969 9.542 634.629 8.882C635.399 8.134 636.521 7.65 637.753 7.65C639.095 7.65 640.151 8.222 640.877 9.168ZM637.929 9.058C636.961 9.058 636.301 9.476 635.861 9.916C635.091 10.708 634.937 11.676 634.937 12.424C634.937 13.216 635.091 14.294 635.971 15.108C636.477 15.57 637.093 15.856 637.929 15.856C638.765 15.856 639.425 15.592 639.931 15.086C640.547 14.492 640.965 13.524 640.965 12.446C640.965 11.368 640.569 10.422 639.997 9.872C639.491 9.366 638.743 9.058 637.929 9.058ZM645.439 22.06L648.343 16.142L644.141 7.87H645.945L649.179 14.404L652.149 7.87H653.909L647.199 22.06H645.439ZM667.711 9.168V7.87H669.295V17H667.711V15.724C667.183 16.406 666.193 17.264 664.587 17.264C662.277 17.264 660.143 15.636 660.143 12.424C660.143 9.278 662.255 7.65 664.587 7.65C666.347 7.65 667.293 8.618 667.711 9.168ZM664.763 9.058C663.201 9.058 661.771 10.202 661.771 12.424C661.771 14.382 662.871 15.856 664.763 15.856C666.699 15.856 667.799 14.25 667.799 12.446C667.799 10.092 666.171 9.058 664.763 9.058ZM672.295 17V7.87H673.879V8.926C674.165 8.552 674.979 7.65 676.497 7.65C677.575 7.65 678.565 8.09 679.115 8.904C679.577 9.586 679.643 10.334 679.643 11.346V17H678.059V11.39C678.059 10.84 678.015 10.202 677.641 9.718C677.333 9.322 676.849 9.058 676.145 9.058C675.595 9.058 675.001 9.212 674.539 9.762C673.923 10.488 673.879 11.566 673.879 12.226V17H672.295ZM689.625 9.168V0.961999H691.209V17H689.625V15.724C689.097 16.406 688.107 17.264 686.501 17.264C684.191 17.264 682.057 15.636 682.057 12.424C682.057 9.278 684.169 7.65 686.501 7.65C688.261 7.65 689.207 8.618 689.625 9.168ZM686.677 9.058C685.115 9.058 683.685 10.202 683.685 12.424C683.685 14.382 684.785 15.856 686.677 15.856C688.613 15.856 689.713 14.25 689.713 12.446C689.713 10.092 688.085 9.058 686.677 9.058ZM8.50567 49.168V47.87H10.0897V57H8.50567V55.724C7.97767 56.406 6.98767 57.264 5.38167 57.264C3.07167 57.264 0.937672 55.636 0.937672 52.424C0.937672 49.278 3.04967 47.65 5.38167 47.65C7.14167 47.65 8.08767 48.618 8.50567 49.168ZM5.55767 49.058C3.99567 49.058 2.56567 50.202 2.56567 52.424C2.56567 54.382 3.66567 55.856 5.55767 55.856C7.49367 55.856 8.59367 54.25 8.59367 52.446C8.59367 50.092 6.96567 49.058 5.55767 49.058ZM13.0898 57V47.87H14.6738V48.86C14.8277 48.618 15.5098 47.65 16.7418 47.65C17.2258 47.65 17.7538 47.826 18.1498 48.024L17.4017 49.454C17.0498 49.212 16.7198 49.146 16.4778 49.146C15.8398 49.146 15.4438 49.41 15.2018 49.718C14.9378 50.07 14.6738 50.686 14.6738 52.182V57H13.0898ZM23.2412 49.322H21.6572V57H20.0732V49.322H19.1052V47.87H20.0732V44.57H21.6572V47.87H23.2412V49.322ZM24.7343 47.87H26.3183V57H24.7343V47.87ZM24.4043 44.416C24.4043 43.8 24.9103 43.294 25.5263 43.294C26.1423 43.294 26.6483 43.8 26.6483 44.416C26.6483 45.032 26.1423 45.538 25.5263 45.538C24.9103 45.538 24.4043 45.032 24.4043 44.416ZM34.3705 49.3L33.0725 49.982C32.8525 49.454 32.3905 49.058 31.7965 49.058C31.2245 49.058 30.6965 49.388 30.6965 50.092C30.6965 50.752 31.1365 50.95 32.1705 51.39C33.4905 51.94 34.1065 52.358 34.4585 52.798C34.8545 53.282 34.9425 53.766 34.9425 54.272C34.9425 56.186 33.5565 57.264 31.7965 57.264C31.4225 57.264 29.3765 57.22 28.6065 54.932L29.9705 54.36C30.1465 54.844 30.6745 55.856 31.8185 55.856C32.8525 55.856 33.3145 55.086 33.3145 54.404C33.3145 53.546 32.6985 53.26 31.8405 52.886C30.7405 52.402 30.0365 52.05 29.6185 51.544C29.2665 51.104 29.2005 50.664 29.2005 50.202C29.2005 48.596 30.3225 47.65 31.8625 47.65C32.3465 47.65 33.6445 47.738 34.3705 49.3ZM40.2568 49.322H38.6728V57H37.0888V49.322H36.1208V47.87H37.0888V44.57H38.6728V47.87H40.2568V49.322ZM41.7499 47.87H43.3339V57H41.7499V47.87ZM41.4199 44.416C41.4199 43.8 41.9259 43.294 42.5419 43.294C43.1579 43.294 43.6639 43.8 43.6639 44.416C43.6639 45.032 43.1579 45.538 42.5419 45.538C41.9259 45.538 41.4199 45.032 41.4199 44.416ZM53.4761 48.53V50.422C52.6401 49.366 51.4301 49.058 50.6161 49.058C48.9221 49.058 47.3821 50.246 47.3821 52.468C47.3821 54.69 48.9661 55.856 50.5941 55.856C51.5401 55.856 52.7061 55.438 53.5421 54.426V56.318C52.5521 57.044 51.4961 57.264 50.6381 57.264C47.8001 57.264 45.7541 55.24 45.7541 52.49C45.7541 49.696 47.8221 47.65 50.6381 47.65C52.0901 47.65 53.0361 48.222 53.4761 48.53ZM68.2573 48.53V50.422C67.4213 49.366 66.2113 49.058 65.3973 49.058C63.7033 49.058 62.1633 50.246 62.1633 52.468C62.1633 54.69 63.7473 55.856 65.3753 55.856C66.3213 55.856 67.4873 55.438 68.3233 54.426V56.318C67.3333 57.044 66.2773 57.264 65.4193 57.264C62.5813 57.264 60.5353 55.24 60.5353 52.49C60.5353 49.696 62.6033 47.65 65.4193 47.65C66.8713 47.65 67.8173 48.222 68.2573 48.53ZM70.7538 57V47.87H72.3378V48.86C72.4918 48.618 73.1738 47.65 74.4058 47.65C74.8898 47.65 75.4178 47.826 75.8138 48.024L75.0658 49.454C74.7138 49.212 74.3838 49.146 74.1418 49.146C73.5038 49.146 73.1078 49.41 72.8658 49.718C72.6018 50.07 72.3378 50.686 72.3378 52.182V57H70.7538ZM83.7869 49.168V47.87H85.3709V57H83.7869V55.724C83.2589 56.406 82.2689 57.264 80.6629 57.264C78.3529 57.264 76.2189 55.636 76.2189 52.424C76.2189 49.278 78.3309 47.65 80.6629 47.65C82.4229 47.65 83.3689 48.618 83.7869 49.168ZM80.8389 49.058C79.2769 49.058 77.8469 50.202 77.8469 52.424C77.8469 54.382 78.9469 55.856 80.8389 55.856C82.7749 55.856 83.8749 54.25 83.8749 52.446C83.8749 50.092 82.2469 49.058 80.8389 49.058ZM92.243 49.322H89.999V57H88.415V49.322H87.535V47.87H88.415V43.888C88.415 43.052 88.481 41.996 89.295 41.314C89.735 40.94 90.395 40.72 91.121 40.72C91.693 40.72 92.067 40.852 92.243 40.918V42.458C91.913 42.326 91.539 42.26 91.209 42.26C90.857 42.26 90.439 42.348 90.197 42.744C89.999 43.074 89.999 43.58 89.999 44.064V47.87H92.243V49.322ZM97.2978 49.322H95.7138V57H94.1298V49.322H93.1618V47.87H94.1298V44.57H95.7138V47.87H97.2978V49.322ZM103.851 49.3L102.553 49.982C102.333 49.454 101.871 49.058 101.277 49.058C100.705 49.058 100.177 49.388 100.177 50.092C100.177 50.752 100.617 50.95 101.651 51.39C102.971 51.94 103.587 52.358 103.939 52.798C104.335 53.282 104.423 53.766 104.423 54.272C104.423 56.186 103.037 57.264 101.277 57.264C100.903 57.264 98.8569 57.22 98.0869 54.932L99.4509 54.36C99.6269 54.844 100.155 55.856 101.299 55.856C102.333 55.856 102.795 55.086 102.795 54.404C102.795 53.546 102.179 53.26 101.321 52.886C100.221 52.402 99.5169 52.05 99.0989 51.544C98.7469 51.104 98.6809 50.664 98.6809 50.202C98.6809 48.596 99.8029 47.65 101.343 47.65C101.827 47.65 103.125 47.738 103.851 49.3ZM106.525 57V47.87H108.109V48.838C108.615 48.09 109.407 47.65 110.375 47.65C112.025 47.65 112.685 48.816 112.861 49.124C113.741 47.738 114.995 47.65 115.611 47.65C118.317 47.65 118.581 49.916 118.581 51.214V57H116.997V51.456C116.997 50.422 116.865 49.058 115.369 49.058C113.543 49.058 113.345 50.818 113.345 51.918V57H111.761V51.588C111.761 50.95 111.783 49.058 110.111 49.058C108.307 49.058 108.109 50.928 108.109 52.028V57H106.525ZM128.582 49.168V47.87H130.166V57H128.582V55.724C128.054 56.406 127.064 57.264 125.458 57.264C123.148 57.264 121.014 55.636 121.014 52.424C121.014 49.278 123.126 47.65 125.458 47.65C127.218 47.65 128.164 48.618 128.582 49.168ZM125.634 49.058C124.072 49.058 122.642 50.202 122.642 52.424C122.642 54.382 123.742 55.856 125.634 55.856C127.57 55.856 128.67 54.25 128.67 52.446C128.67 50.092 127.042 49.058 125.634 49.058ZM133.166 57V47.87H134.75V48.926C135.036 48.552 135.85 47.65 137.368 47.65C138.446 47.65 139.436 48.09 139.986 48.904C140.448 49.586 140.514 50.334 140.514 51.346V57H138.93V51.39C138.93 50.84 138.886 50.202 138.512 49.718C138.204 49.322 137.72 49.058 137.016 49.058C136.466 49.058 135.872 49.212 135.41 49.762C134.794 50.488 134.75 51.566 134.75 52.226V57H133.166ZM148.56 49.3L147.262 49.982C147.042 49.454 146.58 49.058 145.986 49.058C145.414 49.058 144.886 49.388 144.886 50.092C144.886 50.752 145.326 50.95 146.36 51.39C147.68 51.94 148.296 52.358 148.648 52.798C149.044 53.282 149.132 53.766 149.132 54.272C149.132 56.186 147.746 57.264 145.986 57.264C145.612 57.264 143.566 57.22 142.796 54.932L144.16 54.36C144.336 54.844 144.864 55.856 146.008 55.856C147.042 55.856 147.504 55.086 147.504 54.404C147.504 53.546 146.888 53.26 146.03 52.886C144.93 52.402 144.226 52.05 143.808 51.544C143.456 51.104 143.39 50.664 143.39 50.202C143.39 48.596 144.512 47.65 146.052 47.65C146.536 47.65 147.834 47.738 148.56 49.3ZM151.234 57V40.962H152.818V48.926C153.104 48.552 153.918 47.65 155.436 47.65C156.514 47.65 157.504 48.09 158.054 48.904C158.516 49.586 158.582 50.334 158.582 51.346V57H156.998V51.39C156.998 50.84 156.954 50.202 156.58 49.718C156.272 49.322 155.788 49.058 155.084 49.058C154.534 49.058 153.94 49.212 153.478 49.762C152.862 50.488 152.818 51.566 152.818 52.226V57H151.234ZM161.568 47.87H163.152V57H161.568V47.87ZM161.238 44.416C161.238 43.8 161.744 43.294 162.36 43.294C162.976 43.294 163.482 43.8 163.482 44.416C163.482 45.032 162.976 45.538 162.36 45.538C161.744 45.538 161.238 45.032 161.238 44.416ZM167.728 55.724V62.06H166.144V47.87H167.728V49.146C168.806 47.804 170.192 47.65 170.852 47.65C173.712 47.65 175.296 50.026 175.296 52.49C175.296 54.998 173.69 57.264 170.918 57.264C169.444 57.264 168.41 56.604 167.728 55.724ZM170.698 55.856C172.546 55.856 173.668 54.316 173.668 52.49C173.668 50.246 172.15 49.058 170.676 49.058C169.202 49.058 167.64 50.268 167.64 52.468C167.64 54.338 168.828 55.856 170.698 55.856ZM177.637 56.12C177.637 55.526 178.143 55.02 178.737 55.02C179.331 55.02 179.837 55.526 179.837 56.12C179.837 56.714 179.331 57.22 178.737 57.22C178.143 57.22 177.637 56.714 177.637 56.12ZM195.433 43.866H191.869V57H190.241V43.866H186.677V42.326H195.433V43.866ZM195.642 57V40.962H197.226V48.926C197.512 48.552 198.326 47.65 199.844 47.65C200.922 47.65 201.912 48.09 202.462 48.904C202.924 49.586 202.99 50.334 202.99 51.346V57H201.406V51.39C201.406 50.84 201.362 50.202 200.988 49.718C200.68 49.322 200.196 49.058 199.492 49.058C198.942 49.058 198.348 49.212 197.886 49.762C197.27 50.488 197.226 51.566 197.226 52.226V57H195.642ZM212.538 53.942L213.858 54.668C213.594 55.174 213.198 55.724 212.736 56.142C211.9 56.89 210.866 57.264 209.7 57.264C207.5 57.264 205.19 55.878 205.19 52.49C205.19 49.762 206.862 47.65 209.612 47.65C211.394 47.65 212.516 48.53 213.066 49.322C213.638 50.136 213.968 51.544 213.924 52.754H206.818C206.84 54.646 208.138 55.856 209.722 55.856C210.47 55.856 211.064 55.636 211.592 55.196C212.01 54.844 212.34 54.382 212.538 53.942ZM206.928 51.434H212.296C212.032 50.004 210.954 49.058 209.612 49.058C208.27 49.058 207.17 50.07 206.928 51.434ZM229.738 44.372L228.44 45.23C228.242 44.834 227.912 44.394 227.582 44.13C227.296 43.91 226.768 43.624 225.932 43.624C224.48 43.624 223.468 44.526 223.468 45.89C223.468 46.462 223.622 46.792 224.018 47.166C224.458 47.606 225.008 47.848 225.558 48.09L226.966 48.706C227.824 49.08 228.616 49.476 229.232 50.092C229.98 50.84 230.288 51.698 230.288 52.754C230.288 55.46 228.286 57.264 225.646 57.264C224.678 57.264 223.468 57.066 222.456 56.076C221.73 55.372 221.29 54.36 221.092 53.48L222.676 53.04C222.786 53.81 223.138 54.47 223.556 54.91C224.194 55.548 224.92 55.724 225.668 55.724C227.67 55.724 228.616 54.294 228.616 52.82C228.616 52.16 228.418 51.588 227.89 51.104C227.472 50.708 226.9 50.444 226.13 50.092L224.81 49.476C224.238 49.212 223.512 48.904 222.852 48.266C222.214 47.65 221.84 46.968 221.84 45.868C221.84 43.602 223.578 42.084 225.954 42.084C226.856 42.084 227.582 42.26 228.308 42.744C228.902 43.14 229.408 43.734 229.738 44.372ZM234.437 57H232.765L235.207 41.512L240.839 53.898L246.581 41.49L248.869 57H247.197L245.811 46.792L240.817 57.616L235.889 46.792L234.437 57ZM255.475 57.352L254.243 56.45L257.609 51.764C257.191 51.896 256.773 51.962 256.311 51.962C253.495 51.962 251.559 49.85 251.559 47.122C251.559 44.196 253.671 42.084 256.597 42.084C260.051 42.084 261.679 44.768 261.679 47.078C261.679 47.628 261.569 48.926 260.469 50.444L255.475 57.352ZM256.619 43.58C254.595 43.58 253.187 45.098 253.187 47.078C253.187 49.036 254.639 50.466 256.641 50.466C258.643 50.466 260.051 48.992 260.051 47.078C260.051 45.12 258.665 43.58 256.619 43.58ZM268.186 47.87H269.946L272.652 54.074L275.512 47.166L278.35 54.074L281.078 47.87H282.838L278.306 57.638L275.49 50.818L272.674 57.638L268.186 47.87ZM291.278 53.942L292.598 54.668C292.334 55.174 291.938 55.724 291.476 56.142C290.64 56.89 289.606 57.264 288.44 57.264C286.24 57.264 283.93 55.878 283.93 52.49C283.93 49.762 285.602 47.65 288.352 47.65C290.134 47.65 291.256 48.53 291.806 49.322C292.378 50.136 292.708 51.544 292.664 52.754H285.558C285.58 54.646 286.878 55.856 288.462 55.856C289.21 55.856 289.804 55.636 290.332 55.196C290.75 54.844 291.08 54.382 291.278 53.942ZM285.668 51.434H291.036C290.772 50.004 289.694 49.058 288.352 49.058C287.01 49.058 285.91 50.07 285.668 51.434ZM302.09 49.168V40.962H303.674V57H302.09V55.724C301.562 56.406 300.572 57.264 298.966 57.264C296.656 57.264 294.522 55.636 294.522 52.424C294.522 49.278 296.634 47.65 298.966 47.65C300.726 47.65 301.672 48.618 302.09 49.168ZM299.142 49.058C297.58 49.058 296.15 50.202 296.15 52.424C296.15 54.382 297.25 55.856 299.142 55.856C301.078 55.856 302.178 54.25 302.178 52.446C302.178 50.092 300.55 49.058 299.142 49.058ZM313.67 49.168V47.87H315.254V56.78C315.254 57.77 315.254 59.178 314.374 60.366C313.692 61.29 312.438 62.06 310.722 62.06C309.16 62.06 308.082 61.444 307.466 60.828C306.85 60.212 306.278 59.222 306.278 57.88H307.84C307.84 58.65 308.148 59.332 308.544 59.772C309.204 60.498 310.04 60.652 310.744 60.652C311.866 60.652 312.636 60.256 313.164 59.376C313.626 58.628 313.67 57.814 313.67 57.044V55.724C313.142 56.406 312.152 57.264 310.546 57.264C309.204 57.264 308.126 56.736 307.422 56.032C306.806 55.416 306.102 54.272 306.102 52.424C306.102 50.642 306.762 49.542 307.422 48.882C308.192 48.134 309.314 47.65 310.546 47.65C311.888 47.65 312.944 48.222 313.67 49.168ZM310.722 49.058C309.754 49.058 309.094 49.476 308.654 49.916C307.884 50.708 307.73 51.676 307.73 52.424C307.73 53.216 307.884 54.294 308.764 55.108C309.27 55.57 309.886 55.856 310.722 55.856C311.558 55.856 312.218 55.592 312.724 55.086C313.34 54.492 313.758 53.524 313.758 52.446C313.758 51.368 313.362 50.422 312.79 49.872C312.284 49.366 311.536 49.058 310.722 49.058ZM325.03 53.942L326.35 54.668C326.086 55.174 325.69 55.724 325.228 56.142C324.392 56.89 323.358 57.264 322.192 57.264C319.992 57.264 317.682 55.878 317.682 52.49C317.682 49.762 319.354 47.65 322.104 47.65C323.886 47.65 325.008 48.53 325.558 49.322C326.13 50.136 326.46 51.544 326.416 52.754H319.31C319.332 54.646 320.63 55.856 322.214 55.856C322.962 55.856 323.556 55.636 324.084 55.196C324.502 54.844 324.832 54.382 325.03 53.942ZM319.42 51.434H324.788C324.524 50.004 323.446 49.058 322.104 49.058C320.762 49.058 319.662 50.07 319.42 51.434ZM333.98 47.87H335.564V57H333.98V47.87ZM333.65 44.416C333.65 43.8 334.156 43.294 334.772 43.294C335.388 43.294 335.894 43.8 335.894 44.416C335.894 45.032 335.388 45.538 334.772 45.538C334.156 45.538 333.65 45.032 333.65 44.416ZM343.617 49.3L342.319 49.982C342.099 49.454 341.637 49.058 341.043 49.058C340.471 49.058 339.943 49.388 339.943 50.092C339.943 50.752 340.383 50.95 341.417 51.39C342.737 51.94 343.353 52.358 343.705 52.798C344.101 53.282 344.189 53.766 344.189 54.272C344.189 56.186 342.803 57.264 341.043 57.264C340.669 57.264 338.623 57.22 337.853 54.932L339.217 54.36C339.393 54.844 339.921 55.856 341.065 55.856C342.099 55.856 342.561 55.086 342.561 54.404C342.561 53.546 341.945 53.26 341.087 52.886C339.987 52.402 339.283 52.05 338.865 51.544C338.513 51.104 338.447 50.664 338.447 50.202C338.447 48.596 339.569 47.65 341.109 47.65C341.593 47.65 342.891 47.738 343.617 49.3ZM358.576 48.53V50.422C357.74 49.366 356.53 49.058 355.716 49.058C354.022 49.058 352.482 50.246 352.482 52.468C352.482 54.69 354.066 55.856 355.694 55.856C356.64 55.856 357.806 55.438 358.642 54.426V56.318C357.652 57.044 356.596 57.264 355.738 57.264C352.9 57.264 350.854 55.24 350.854 52.49C350.854 49.696 352.922 47.65 355.738 47.65C357.19 47.65 358.136 48.222 358.576 48.53ZM365.34 57.264C362.568 57.264 360.5 55.24 360.5 52.468C360.5 49.696 362.546 47.65 365.34 47.65C368.134 47.65 370.18 49.696 370.18 52.468C370.18 55.24 368.112 57.264 365.34 57.264ZM365.34 49.058C363.668 49.058 362.128 50.246 362.128 52.468C362.128 54.712 363.712 55.856 365.34 55.856C366.99 55.856 368.552 54.69 368.552 52.468C368.552 50.224 367.012 49.058 365.34 49.058ZM372.609 57V47.87H374.193V48.838C374.699 48.09 375.491 47.65 376.459 47.65C378.109 47.65 378.769 48.816 378.945 49.124C379.825 47.738 381.079 47.65 381.695 47.65C384.401 47.65 384.665 49.916 384.665 51.214V57H383.081V51.456C383.081 50.422 382.949 49.058 381.453 49.058C379.627 49.058 379.429 50.818 379.429 51.918V57H377.845V51.588C377.845 50.95 377.867 49.058 376.195 49.058C374.391 49.058 374.193 50.928 374.193 52.028V57H372.609ZM389.254 55.724V62.06H387.67V47.87H389.254V49.146C390.332 47.804 391.718 47.65 392.378 47.65C395.238 47.65 396.822 50.026 396.822 52.49C396.822 54.998 395.216 57.264 392.444 57.264C390.97 57.264 389.936 56.604 389.254 55.724ZM392.224 55.856C394.072 55.856 395.194 54.316 395.194 52.49C395.194 50.246 393.676 49.058 392.202 49.058C390.728 49.058 389.166 50.268 389.166 52.468C389.166 54.338 390.354 55.856 392.224 55.856ZM399.25 40.962H400.834V57H399.25V40.962ZM410.602 53.942L411.922 54.668C411.658 55.174 411.262 55.724 410.8 56.142C409.964 56.89 408.93 57.264 407.764 57.264C405.564 57.264 403.254 55.878 403.254 52.49C403.254 49.762 404.926 47.65 407.676 47.65C409.458 47.65 410.58 48.53 411.13 49.322C411.702 50.136 412.032 51.544 411.988 52.754H404.882C404.904 54.646 406.202 55.856 407.786 55.856C408.534 55.856 409.128 55.636 409.656 55.196C410.074 54.844 410.404 54.382 410.602 53.942ZM404.992 51.434H410.36C410.096 50.004 409.018 49.058 407.676 49.058C406.334 49.058 405.234 50.07 404.992 51.434ZM417.63 49.322H416.046V57H414.462V49.322H413.494V47.87H414.462V44.57H416.046V47.87H417.63V49.322ZM425.899 53.942L427.219 54.668C426.955 55.174 426.559 55.724 426.097 56.142C425.261 56.89 424.227 57.264 423.061 57.264C420.861 57.264 418.551 55.878 418.551 52.49C418.551 49.762 420.223 47.65 422.973 47.65C424.755 47.65 425.877 48.53 426.427 49.322C426.999 50.136 427.329 51.544 427.285 52.754H420.179C420.201 54.646 421.499 55.856 423.083 55.856C423.831 55.856 424.425 55.636 424.953 55.196C425.371 54.844 425.701 54.382 425.899 53.942ZM420.289 51.434H425.657C425.393 50.004 424.315 49.058 422.973 49.058C421.631 49.058 420.531 50.07 420.289 51.434ZM433.53 47.87H435.29L437.996 54.074L440.856 47.166L443.694 54.074L446.422 47.87H448.182L443.65 57.638L440.834 50.818L438.018 57.638L433.53 47.87ZM449.846 47.87H451.43V57H449.846V47.87ZM449.516 44.416C449.516 43.8 450.022 43.294 450.638 43.294C451.254 43.294 451.76 43.8 451.76 44.416C451.76 45.032 451.254 45.538 450.638 45.538C450.022 45.538 449.516 45.032 449.516 44.416ZM457.634 49.322H456.05V57H454.466V49.322H453.498V47.87H454.466V44.57H456.05V47.87H457.634V49.322ZM459.127 57V40.962H460.711V48.926C460.997 48.552 461.811 47.65 463.329 47.65C464.407 47.65 465.397 48.09 465.947 48.904C466.409 49.586 466.475 50.334 466.475 51.346V57H464.891V51.39C464.891 50.84 464.847 50.202 464.473 49.718C464.165 49.322 463.681 49.058 462.977 49.058C462.427 49.058 461.833 49.212 461.371 49.762C460.755 50.488 460.711 51.566 460.711 52.226V57H459.127ZM477.808 49.322H476.224V57H474.64V49.322H473.672V47.87H474.64V44.57H476.224V47.87H477.808V49.322ZM479.301 57V40.962H480.885V48.926C481.171 48.552 481.985 47.65 483.503 47.65C484.581 47.65 485.571 48.09 486.121 48.904C486.583 49.586 486.649 50.334 486.649 51.346V57H485.065V51.39C485.065 50.84 485.021 50.202 484.647 49.718C484.339 49.322 483.855 49.058 483.151 49.058C482.601 49.058 482.007 49.212 481.545 49.762C480.929 50.488 480.885 51.566 480.885 52.226V57H479.301ZM496.196 53.942L497.516 54.668C497.252 55.174 496.856 55.724 496.394 56.142C495.558 56.89 494.524 57.264 493.358 57.264C491.158 57.264 488.848 55.878 488.848 52.49C488.848 49.762 490.52 47.65 493.27 47.65C495.052 47.65 496.174 48.53 496.724 49.322C497.296 50.136 497.626 51.544 497.582 52.754H490.476C490.498 54.646 491.796 55.856 493.38 55.856C494.128 55.856 494.722 55.636 495.25 55.196C495.668 54.844 495.998 54.382 496.196 53.942ZM490.586 51.434H495.954C495.69 50.004 494.612 49.058 493.27 49.058C491.928 49.058 490.828 50.07 490.586 51.434ZM508.358 49.322H506.774V57H505.19V49.322H504.222V47.87H505.19V44.57H506.774V47.87H508.358V49.322ZM509.851 47.87H511.435V57H509.851V47.87ZM509.521 44.416C509.521 43.8 510.027 43.294 510.643 43.294C511.259 43.294 511.765 43.8 511.765 44.416C511.765 45.032 511.259 45.538 510.643 45.538C510.027 45.538 509.521 45.032 509.521 44.416ZM517.64 49.322H516.056V57H514.472V49.322H513.504V47.87H514.472V44.57H516.056V47.87H517.64V49.322ZM519.133 40.962H520.717V57H519.133V40.962ZM530.485 53.942L531.805 54.668C531.541 55.174 531.145 55.724 530.683 56.142C529.847 56.89 528.813 57.264 527.647 57.264C525.447 57.264 523.137 55.878 523.137 52.49C523.137 49.762 524.809 47.65 527.559 47.65C529.341 47.65 530.463 48.53 531.013 49.322C531.585 50.136 531.915 51.544 531.871 52.754H524.765C524.787 54.646 526.085 55.856 527.669 55.856C528.417 55.856 529.011 55.636 529.539 55.196C529.957 54.844 530.287 54.382 530.485 53.942ZM524.875 51.434H530.243C529.979 50.004 528.901 49.058 527.559 49.058C526.217 49.058 525.117 50.07 524.875 51.434ZM535.043 53.128V51.5H539.883V53.128H535.043ZM542.486 40.962H544.07V57H542.486V40.962ZM547.062 47.87H548.646V57H547.062V47.87ZM546.732 44.416C546.732 43.8 547.238 43.294 547.854 43.294C548.47 43.294 548.976 43.8 548.976 44.416C548.976 45.032 548.47 45.538 547.854 45.538C547.238 45.538 546.732 45.032 546.732 44.416ZM556.699 49.3L555.401 49.982C555.181 49.454 554.719 49.058 554.125 49.058C553.553 49.058 553.025 49.388 553.025 50.092C553.025 50.752 553.465 50.95 554.499 51.39C555.819 51.94 556.435 52.358 556.787 52.798C557.183 53.282 557.271 53.766 557.271 54.272C557.271 56.186 555.885 57.264 554.125 57.264C553.751 57.264 551.705 57.22 550.935 54.932L552.299 54.36C552.475 54.844 553.003 55.856 554.147 55.856C555.181 55.856 555.643 55.086 555.643 54.404C555.643 53.546 555.027 53.26 554.169 52.886C553.069 52.402 552.365 52.05 551.947 51.544C551.595 51.104 551.529 50.664 551.529 50.202C551.529 48.596 552.651 47.65 554.191 47.65C554.675 47.65 555.973 47.738 556.699 49.3ZM562.585 49.322H561.001V57H559.417V49.322H558.449V47.87H559.417V44.57H561.001V47.87H562.585V49.322ZM565.53 42.326L565.244 48.222H564.056L563.77 42.326H565.53ZM573.285 49.3L571.987 49.982C571.767 49.454 571.305 49.058 570.711 49.058C570.139 49.058 569.611 49.388 569.611 50.092C569.611 50.752 570.051 50.95 571.085 51.39C572.405 51.94 573.021 52.358 573.373 52.798C573.769 53.282 573.857 53.766 573.857 54.272C573.857 56.186 572.471 57.264 570.711 57.264C570.337 57.264 568.291 57.22 567.521 54.932L568.885 54.36C569.061 54.844 569.589 55.856 570.733 55.856C571.767 55.856 572.229 55.086 572.229 54.404C572.229 53.546 571.613 53.26 570.755 52.886C569.655 52.402 568.951 52.05 568.533 51.544C568.181 51.104 568.115 50.664 568.115 50.202C568.115 48.596 569.237 47.65 570.777 47.65C571.261 47.65 572.559 47.738 573.285 49.3ZM581.094 57V47.87H582.678V48.838C583.184 48.09 583.976 47.65 584.944 47.65C586.594 47.65 587.254 48.816 587.43 49.124C588.31 47.738 589.564 47.65 590.18 47.65C592.886 47.65 593.15 49.916 593.15 51.214V57H591.566V51.456C591.566 50.422 591.434 49.058 589.938 49.058C588.112 49.058 587.914 50.818 587.914 51.918V57H586.33V51.588C586.33 50.95 586.352 49.058 584.68 49.058C582.876 49.058 582.678 50.928 582.678 52.028V57H581.094ZM600.422 57.264C597.65 57.264 595.582 55.24 595.582 52.468C595.582 49.696 597.628 47.65 600.422 47.65C603.216 47.65 605.262 49.696 605.262 52.468C605.262 55.24 603.194 57.264 600.422 57.264ZM600.422 49.058C598.75 49.058 597.21 50.246 597.21 52.468C597.21 54.712 598.794 55.856 600.422 55.856C602.072 55.856 603.634 54.69 603.634 52.468C603.634 50.224 602.094 49.058 600.422 49.058ZM612.751 49.3L611.453 49.982C611.233 49.454 610.771 49.058 610.177 49.058C609.605 49.058 609.077 49.388 609.077 50.092C609.077 50.752 609.517 50.95 610.551 51.39C611.871 51.94 612.487 52.358 612.839 52.798C613.235 53.282 613.323 53.766 613.323 54.272C613.323 56.186 611.937 57.264 610.177 57.264C609.803 57.264 607.757 57.22 606.987 54.932L608.351 54.36C608.527 54.844 609.055 55.856 610.199 55.856C611.233 55.856 611.695 55.086 611.695 54.404C611.695 53.546 611.079 53.26 610.221 52.886C609.121 52.402 608.417 52.05 607.999 51.544C607.647 51.104 607.581 50.664 607.581 50.202C607.581 48.596 608.703 47.65 610.243 47.65C610.727 47.65 612.025 47.738 612.751 49.3ZM618.638 49.322H617.054V57H615.47V49.322H614.502V47.87H615.47V44.57H617.054V47.87H618.638V49.322ZM632.262 49.168V47.87H633.846V57H632.262V55.724C631.734 56.406 630.744 57.264 629.138 57.264C626.828 57.264 624.694 55.636 624.694 52.424C624.694 49.278 626.806 47.65 629.138 47.65C630.898 47.65 631.844 48.618 632.262 49.168ZM629.314 49.058C627.752 49.058 626.322 50.202 626.322 52.424C626.322 54.382 627.422 55.856 629.314 55.856C631.25 55.856 632.35 54.25 632.35 52.446C632.35 50.092 630.722 49.058 629.314 49.058ZM643.842 49.168V40.962H645.426V57H643.842V55.724C643.314 56.406 642.324 57.264 640.718 57.264C638.408 57.264 636.274 55.636 636.274 52.424C636.274 49.278 638.386 47.65 640.718 47.65C642.478 47.65 643.424 48.618 643.842 49.168ZM640.894 49.058C639.332 49.058 637.902 50.202 637.902 52.424C637.902 54.382 639.002 55.856 640.894 55.856C642.83 55.856 643.93 54.25 643.93 52.446C643.93 50.092 642.302 49.058 640.894 49.058ZM647.106 47.87H648.866L651.594 54.03L654.322 47.87H656.082L651.594 57.594L647.106 47.87ZM664.746 49.168V47.87H666.33V57H664.746V55.724C664.218 56.406 663.228 57.264 661.622 57.264C659.312 57.264 657.178 55.636 657.178 52.424C657.178 49.278 659.29 47.65 661.622 47.65C663.382 47.65 664.328 48.618 664.746 49.168ZM661.798 49.058C660.236 49.058 658.806 50.202 658.806 52.424C658.806 54.382 659.906 55.856 661.798 55.856C663.734 55.856 664.834 54.25 664.834 52.446C664.834 50.092 663.206 49.058 661.798 49.058ZM669.33 57V47.87H670.914V48.926C671.2 48.552 672.014 47.65 673.532 47.65C674.61 47.65 675.6 48.09 676.15 48.904C676.612 49.586 676.678 50.334 676.678 51.346V57H675.094V51.39C675.094 50.84 675.05 50.202 674.676 49.718C674.368 49.322 673.884 49.058 673.18 49.058C672.63 49.058 672.036 49.212 671.574 49.762C670.958 50.488 670.914 51.566 670.914 52.226V57H669.33ZM686.814 48.53V50.422C685.978 49.366 684.768 49.058 683.954 49.058C682.26 49.058 680.72 50.246 680.72 52.468C680.72 54.69 682.304 55.856 683.932 55.856C684.878 55.856 686.044 55.438 686.88 54.426V56.318C685.89 57.044 684.834 57.264 683.976 57.264C681.138 57.264 679.092 55.24 679.092 52.49C679.092 49.696 681.16 47.65 683.976 47.65C685.428 47.65 686.374 48.222 686.814 48.53ZM696.086 53.942L697.406 54.668C697.142 55.174 696.746 55.724 696.284 56.142C695.448 56.89 694.414 57.264 693.248 57.264C691.048 57.264 688.738 55.878 688.738 52.49C688.738 49.762 690.41 47.65 693.16 47.65C694.942 47.65 696.064 48.53 696.614 49.322C697.186 50.136 697.516 51.544 697.472 52.754H690.366C690.388 54.646 691.686 55.856 693.27 55.856C694.018 55.856 694.612 55.636 695.14 55.196C695.558 54.844 695.888 54.382 696.086 53.942ZM690.476 51.434H695.844C695.58 50.004 694.502 49.058 693.16 49.058C691.818 49.058 690.718 50.07 690.476 51.434ZM706.898 49.168V40.962H708.482V57H706.898V55.724C706.37 56.406 705.38 57.264 703.774 57.264C701.464 57.264 699.33 55.636 699.33 52.424C699.33 49.278 701.442 47.65 703.774 47.65C705.534 47.65 706.48 48.618 706.898 49.168ZM703.95 49.058C702.388 49.058 700.958 50.202 700.958 52.424C700.958 54.382 702.058 55.856 703.95 55.856C705.886 55.856 706.986 54.25 706.986 52.446C706.986 50.092 705.358 49.058 703.95 49.058ZM53.2334 89.322H51.6494V97H50.0654V89.322H49.0974V87.87H50.0654V84.57H51.6494V87.87H53.2334V89.322ZM61.5025 93.942L62.8225 94.668C62.5585 95.174 62.1625 95.724 61.7005 96.142C60.8645 96.89 59.8305 97.264 58.6645 97.264C56.4645 97.264 54.1545 95.878 54.1545 92.49C54.1545 89.762 55.8265 87.65 58.5765 87.65C60.3585 87.65 61.4805 88.53 62.0305 89.322C62.6025 90.136 62.9325 91.544 62.8885 92.754H55.7825C55.8045 94.646 57.1025 95.856 58.6865 95.856C59.4345 95.856 60.0285 95.636 60.5565 95.196C60.9745 94.844 61.3045 94.382 61.5025 93.942ZM55.8925 91.434H61.2605C60.9965 90.004 59.9185 89.058 58.5765 89.058C57.2345 89.058 56.1345 90.07 55.8925 91.434ZM72.4683 88.53V90.422C71.6323 89.366 70.4223 89.058 69.6083 89.058C67.9143 89.058 66.3743 90.246 66.3743 92.468C66.3743 94.69 67.9583 95.856 69.5863 95.856C70.5323 95.856 71.6983 95.438 72.5343 94.426V96.318C71.5443 97.044 70.4883 97.264 69.6303 97.264C66.7923 97.264 64.7463 95.24 64.7463 92.49C64.7463 89.696 66.8143 87.65 69.6303 87.65C71.0823 87.65 72.0283 88.222 72.4683 88.53ZM74.9648 97V80.962H76.5488V88.926C76.8348 88.552 77.6488 87.65 79.1668 87.65C80.2448 87.65 81.2348 88.09 81.7848 88.904C82.2468 89.586 82.3128 90.334 82.3128 91.346V97H80.7288V91.39C80.7288 90.84 80.6848 90.202 80.3108 89.718C80.0028 89.322 79.5188 89.058 78.8148 89.058C78.2648 89.058 77.6708 89.212 77.2088 89.762C76.5928 90.488 76.5488 91.566 76.5488 92.226V97H74.9648ZM85.2987 97V87.87H86.8827V88.926C87.1687 88.552 87.9827 87.65 89.5007 87.65C90.5787 87.65 91.5687 88.09 92.1187 88.904C92.5807 89.586 92.6467 90.334 92.6467 91.346V97H91.0627V91.39C91.0627 90.84 91.0187 90.202 90.6447 89.718C90.3367 89.322 89.8527 89.058 89.1487 89.058C88.5987 89.058 88.0047 89.212 87.5427 89.762C86.9267 90.488 86.8827 91.566 86.8827 92.226V97H85.2987ZM99.9007 97.264C97.1287 97.264 95.0607 95.24 95.0607 92.468C95.0607 89.696 97.1067 87.65 99.9007 87.65C102.695 87.65 104.741 89.696 104.741 92.468C104.741 95.24 102.673 97.264 99.9007 97.264ZM99.9007 89.058C98.2287 89.058 96.6887 90.246 96.6887 92.468C96.6887 94.712 98.2727 95.856 99.9007 95.856C101.551 95.856 103.113 94.69 103.113 92.468C103.113 90.224 101.573 89.058 99.9007 89.058ZM107.17 80.962H108.754V97H107.17V80.962ZM116.014 97.264C113.242 97.264 111.174 95.24 111.174 92.468C111.174 89.696 113.22 87.65 116.014 87.65C118.808 87.65 120.854 89.696 120.854 92.468C120.854 95.24 118.786 97.264 116.014 97.264ZM116.014 89.058C114.342 89.058 112.802 90.246 112.802 92.468C112.802 94.712 114.386 95.856 116.014 95.856C117.664 95.856 119.226 94.69 119.226 92.468C119.226 90.224 117.686 89.058 116.014 89.058ZM130.279 89.168V87.87H131.863V96.78C131.863 97.77 131.863 99.178 130.983 100.366C130.301 101.29 129.047 102.06 127.331 102.06C125.769 102.06 124.691 101.444 124.075 100.828C123.459 100.212 122.887 99.222 122.887 97.88H124.449C124.449 98.65 124.757 99.332 125.153 99.772C125.813 100.498 126.649 100.652 127.353 100.652C128.475 100.652 129.245 100.256 129.773 99.376C130.235 98.628 130.279 97.814 130.279 97.044V95.724C129.751 96.406 128.761 97.264 127.155 97.264C125.813 97.264 124.735 96.736 124.031 96.032C123.415 95.416 122.711 94.272 122.711 92.424C122.711 90.642 123.371 89.542 124.031 88.882C124.801 88.134 125.923 87.65 127.155 87.65C128.497 87.65 129.553 88.222 130.279 89.168ZM127.331 89.058C126.363 89.058 125.703 89.476 125.263 89.916C124.493 90.708 124.339 91.676 124.339 92.424C124.339 93.216 124.493 94.294 125.373 95.108C125.879 95.57 126.495 95.856 127.331 95.856C128.167 95.856 128.827 95.592 129.333 95.086C129.949 94.492 130.367 93.524 130.367 92.446C130.367 91.368 129.971 90.422 129.399 89.872C128.893 89.366 128.145 89.058 127.331 89.058ZM134.841 102.06L137.745 96.142L133.543 87.87H135.347L138.581 94.404L141.551 87.87H143.311L136.601 102.06H134.841ZM153.329 89.322H151.745V97H150.161V89.322H149.193V87.87H150.161V84.57H151.745V87.87H153.329V89.322ZM154.822 97V80.962H156.406V88.926C156.692 88.552 157.506 87.65 159.024 87.65C160.102 87.65 161.092 88.09 161.642 88.904C162.104 89.586 162.17 90.334 162.17 91.346V97H160.586V91.39C160.586 90.84 160.542 90.202 160.168 89.718C159.86 89.322 159.376 89.058 158.672 89.058C158.122 89.058 157.528 89.212 157.066 89.762C156.45 90.488 156.406 91.566 156.406 92.226V97H154.822ZM172.152 89.168V87.87H173.736V97H172.152V95.724C171.624 96.406 170.634 97.264 169.028 97.264C166.718 97.264 164.584 95.636 164.584 92.424C164.584 89.278 166.696 87.65 169.028 87.65C170.788 87.65 171.734 88.618 172.152 89.168ZM169.204 89.058C167.642 89.058 166.212 90.202 166.212 92.424C166.212 94.382 167.312 95.856 169.204 95.856C171.14 95.856 172.24 94.25 172.24 92.446C172.24 90.092 170.612 89.058 169.204 89.058ZM179.948 89.322H178.364V97H176.78V89.322H175.812V87.87H176.78V84.57H178.364V87.87H179.948V89.322ZM193.352 93.942L194.672 94.668C194.408 95.174 194.012 95.724 193.55 96.142C192.714 96.89 191.68 97.264 190.514 97.264C188.314 97.264 186.004 95.878 186.004 92.49C186.004 89.762 187.676 87.65 190.426 87.65C192.208 87.65 193.33 88.53 193.88 89.322C194.452 90.136 194.782 91.544 194.738 92.754H187.632C187.654 94.646 188.952 95.856 190.536 95.856C191.284 95.856 191.878 95.636 192.406 95.196C192.824 94.844 193.154 94.382 193.352 93.942ZM187.742 91.434H193.11C192.846 90.004 191.768 89.058 190.426 89.058C189.084 89.058 187.984 90.07 187.742 91.434ZM197.168 97V87.87H198.752V88.926C199.038 88.552 199.852 87.65 201.37 87.65C202.448 87.65 203.438 88.09 203.988 88.904C204.45 89.586 204.516 90.334 204.516 91.346V97H202.932V91.39C202.932 90.84 202.888 90.202 202.514 89.718C202.206 89.322 201.722 89.058 201.018 89.058C200.468 89.058 199.874 89.212 199.412 89.762C198.796 90.488 198.752 91.566 198.752 92.226V97H197.168ZM214.498 89.168V87.87H216.082V97H214.498V95.724C213.97 96.406 212.98 97.264 211.374 97.264C209.064 97.264 206.93 95.636 206.93 92.424C206.93 89.278 209.042 87.65 211.374 87.65C213.134 87.65 214.08 88.618 214.498 89.168ZM211.55 89.058C209.988 89.058 208.558 90.202 208.558 92.424C208.558 94.382 209.658 95.856 211.55 95.856C213.486 95.856 214.586 94.25 214.586 92.446C214.586 90.092 212.958 89.058 211.55 89.058ZM220.666 95.724V97H219.082V80.962H220.666V89.146C221.744 87.804 223.13 87.65 223.79 87.65C226.65 87.65 228.234 90.026 228.234 92.49C228.234 94.998 226.628 97.264 223.856 97.264C222.382 97.264 221.348 96.604 220.666 95.724ZM223.636 95.856C225.484 95.856 226.606 94.316 226.606 92.49C226.606 90.246 225.088 89.058 223.614 89.058C222.14 89.058 220.578 90.268 220.578 92.468C220.578 94.338 221.766 95.856 223.636 95.856ZM230.662 80.962H232.246V97H230.662V80.962ZM242.014 93.942L243.334 94.668C243.07 95.174 242.674 95.724 242.212 96.142C241.376 96.89 240.342 97.264 239.176 97.264C236.976 97.264 234.666 95.878 234.666 92.49C234.666 89.762 236.338 87.65 239.088 87.65C240.87 87.65 241.992 88.53 242.542 89.322C243.114 90.136 243.444 91.544 243.4 92.754H236.294C236.316 94.646 237.614 95.856 239.198 95.856C239.946 95.856 240.54 95.636 241.068 95.196C241.486 94.844 241.816 94.382 242.014 93.942ZM236.404 91.434H241.772C241.508 90.004 240.43 89.058 239.088 89.058C237.746 89.058 236.646 90.07 236.404 91.434ZM250.89 89.3L249.592 89.982C249.372 89.454 248.91 89.058 248.316 89.058C247.744 89.058 247.216 89.388 247.216 90.092C247.216 90.752 247.656 90.95 248.69 91.39C250.01 91.94 250.626 92.358 250.978 92.798C251.374 93.282 251.462 93.766 251.462 94.272C251.462 96.186 250.076 97.264 248.316 97.264C247.942 97.264 245.896 97.22 245.126 94.932L246.49 94.36C246.666 94.844 247.194 95.856 248.338 95.856C249.372 95.856 249.834 95.086 249.834 94.404C249.834 93.546 249.218 93.26 248.36 92.886C247.26 92.402 246.556 92.05 246.138 91.544C245.786 91.104 245.72 90.664 245.72 90.202C245.72 88.596 246.842 87.65 248.382 87.65C248.866 87.65 250.164 87.738 250.89 89.3ZM260.283 95.724V102.06H258.699V87.87H260.283V89.146C261.361 87.804 262.747 87.65 263.407 87.65C266.267 87.65 267.851 90.026 267.851 92.49C267.851 94.998 266.245 97.264 263.473 97.264C261.999 97.264 260.965 96.604 260.283 95.724ZM263.253 95.856C265.101 95.856 266.223 94.316 266.223 92.49C266.223 90.246 264.705 89.058 263.231 89.058C261.757 89.058 260.195 90.268 260.195 92.468C260.195 94.338 261.383 95.856 263.253 95.856ZM270.279 97V87.87H271.863V88.86C272.017 88.618 272.699 87.65 273.931 87.65C274.415 87.65 274.943 87.826 275.339 88.024L274.591 89.454C274.239 89.212 273.909 89.146 273.667 89.146C273.029 89.146 272.633 89.41 272.391 89.718C272.127 90.07 271.863 90.686 271.863 92.182V97H270.279ZM283.028 93.942L284.348 94.668C284.084 95.174 283.688 95.724 283.226 96.142C282.39 96.89 281.356 97.264 280.19 97.264C277.99 97.264 275.68 95.878 275.68 92.49C275.68 89.762 277.352 87.65 280.102 87.65C281.884 87.65 283.006 88.53 283.556 89.322C284.128 90.136 284.458 91.544 284.414 92.754H277.308C277.33 94.646 278.628 95.856 280.212 95.856C280.96 95.856 281.554 95.636 282.082 95.196C282.5 94.844 282.83 94.382 283.028 93.942ZM277.418 91.434H282.786C282.522 90.004 281.444 89.058 280.102 89.058C278.76 89.058 277.66 90.07 277.418 91.434ZM293.994 88.53V90.422C293.158 89.366 291.948 89.058 291.134 89.058C289.44 89.058 287.9 90.246 287.9 92.468C287.9 94.69 289.484 95.856 291.112 95.856C292.058 95.856 293.224 95.438 294.06 94.426V96.318C293.07 97.044 292.014 97.264 291.156 97.264C288.318 97.264 286.272 95.24 286.272 92.49C286.272 89.696 288.34 87.65 291.156 87.65C292.608 87.65 293.554 88.222 293.994 88.53ZM296.49 87.87H298.074V97H296.49V87.87ZM296.16 84.416C296.16 83.8 296.666 83.294 297.282 83.294C297.898 83.294 298.404 83.8 298.404 84.416C298.404 85.032 297.898 85.538 297.282 85.538C296.666 85.538 296.16 85.032 296.16 84.416ZM306.126 89.3L304.828 89.982C304.608 89.454 304.146 89.058 303.552 89.058C302.98 89.058 302.452 89.388 302.452 90.092C302.452 90.752 302.892 90.95 303.926 91.39C305.246 91.94 305.862 92.358 306.214 92.798C306.61 93.282 306.698 93.766 306.698 94.272C306.698 96.186 305.312 97.264 303.552 97.264C303.178 97.264 301.132 97.22 300.362 94.932L301.726 94.36C301.902 94.844 302.43 95.856 303.574 95.856C304.608 95.856 305.07 95.086 305.07 94.404C305.07 93.546 304.454 93.26 303.596 92.886C302.496 92.402 301.792 92.05 301.374 91.544C301.022 91.104 300.956 90.664 300.956 90.202C300.956 88.596 302.078 87.65 303.618 87.65C304.102 87.65 305.4 87.738 306.126 89.3ZM315.577 93.942L316.897 94.668C316.633 95.174 316.237 95.724 315.775 96.142C314.939 96.89 313.905 97.264 312.739 97.264C310.539 97.264 308.229 95.878 308.229 92.49C308.229 89.762 309.901 87.65 312.651 87.65C314.433 87.65 315.555 88.53 316.105 89.322C316.677 90.136 317.007 91.544 316.963 92.754H309.857C309.879 94.646 311.177 95.856 312.761 95.856C313.509 95.856 314.103 95.636 314.631 95.196C315.049 94.844 315.379 94.382 315.577 93.942ZM309.967 91.434H315.335C315.071 90.004 313.993 89.058 312.651 89.058C311.309 89.058 310.209 90.07 309.967 91.434ZM331.677 88.53V90.422C330.841 89.366 329.631 89.058 328.817 89.058C327.123 89.058 325.583 90.246 325.583 92.468C325.583 94.69 327.167 95.856 328.795 95.856C329.741 95.856 330.907 95.438 331.743 94.426V96.318C330.753 97.044 329.697 97.264 328.839 97.264C326.001 97.264 323.955 95.24 323.955 92.49C323.955 89.696 326.023 87.65 328.839 87.65C330.291 87.65 331.237 88.222 331.677 88.53ZM338.442 97.264C335.67 97.264 333.602 95.24 333.602 92.468C333.602 89.696 335.648 87.65 338.442 87.65C341.236 87.65 343.282 89.696 343.282 92.468C343.282 95.24 341.214 97.264 338.442 97.264ZM338.442 89.058C336.77 89.058 335.23 90.246 335.23 92.468C335.23 94.712 336.814 95.856 338.442 95.856C340.092 95.856 341.654 94.69 341.654 92.468C341.654 90.224 340.114 89.058 338.442 89.058ZM345.711 97V87.87H347.295V88.926C347.581 88.552 348.395 87.65 349.913 87.65C350.991 87.65 351.981 88.09 352.531 88.904C352.993 89.586 353.059 90.334 353.059 91.346V97H351.475V91.39C351.475 90.84 351.431 90.202 351.057 89.718C350.749 89.322 350.265 89.058 349.561 89.058C349.011 89.058 348.417 89.212 347.955 89.762C347.339 90.488 347.295 91.566 347.295 92.226V97H345.711ZM359.257 89.322H357.673V97H356.089V89.322H355.121V87.87H356.089V84.57H357.673V87.87H359.257V89.322ZM360.75 97V87.87H362.334V88.86C362.488 88.618 363.17 87.65 364.402 87.65C364.886 87.65 365.414 87.826 365.81 88.024L365.062 89.454C364.71 89.212 364.38 89.146 364.138 89.146C363.5 89.146 363.104 89.41 362.862 89.718C362.598 90.07 362.334 90.686 362.334 92.182V97H360.75ZM370.991 97.264C368.219 97.264 366.151 95.24 366.151 92.468C366.151 89.696 368.197 87.65 370.991 87.65C373.785 87.65 375.831 89.696 375.831 92.468C375.831 95.24 373.763 97.264 370.991 97.264ZM370.991 89.058C369.319 89.058 367.779 90.246 367.779 92.468C367.779 94.712 369.363 95.856 370.991 95.856C372.641 95.856 374.203 94.69 374.203 92.468C374.203 90.224 372.663 89.058 370.991 89.058ZM378.26 80.962H379.844V97H378.26V80.962ZM381.56 99.926L383.364 94.844L384.816 95.372L382.594 100.344L381.56 99.926ZM397.244 97.264C394.472 97.264 392.404 95.24 392.404 92.468C392.404 89.696 394.45 87.65 397.244 87.65C400.038 87.65 402.084 89.696 402.084 92.468C402.084 95.24 400.016 97.264 397.244 97.264ZM397.244 89.058C395.572 89.058 394.032 90.246 394.032 92.468C394.032 94.712 395.616 95.856 397.244 95.856C398.894 95.856 400.456 94.69 400.456 92.468C400.456 90.224 398.916 89.058 397.244 89.058ZM406.098 95.724V102.06H404.514V87.87H406.098V89.146C407.176 87.804 408.562 87.65 409.222 87.65C412.082 87.65 413.666 90.026 413.666 92.49C413.666 94.998 412.06 97.264 409.288 97.264C407.814 97.264 406.78 96.604 406.098 95.724ZM409.068 95.856C410.916 95.856 412.038 94.316 412.038 92.49C412.038 90.246 410.52 89.058 409.046 89.058C407.572 89.058 406.01 90.268 406.01 92.468C406.01 94.338 407.198 95.856 409.068 95.856ZM419.306 89.322H417.722V97H416.138V89.322H415.17V87.87H416.138V84.57H417.722V87.87H419.306V89.322ZM420.799 87.87H422.383V97H420.799V87.87ZM420.469 84.416C420.469 83.8 420.975 83.294 421.591 83.294C422.207 83.294 422.713 83.8 422.713 84.416C422.713 85.032 422.207 85.538 421.591 85.538C420.975 85.538 420.469 85.032 420.469 84.416ZM425.375 97V87.87H426.959V88.838C427.465 88.09 428.257 87.65 429.225 87.65C430.875 87.65 431.535 88.816 431.711 89.124C432.591 87.738 433.845 87.65 434.461 87.65C437.167 87.65 437.431 89.916 437.431 91.214V97H435.847V91.456C435.847 90.422 435.715 89.058 434.219 89.058C432.393 89.058 432.195 90.818 432.195 91.918V97H430.611V91.588C430.611 90.95 430.633 89.058 428.961 89.058C427.157 89.058 426.959 90.928 426.959 92.028V97H425.375ZM447.431 89.168V87.87H449.015V97H447.431V95.724C446.903 96.406 445.913 97.264 444.307 97.264C441.997 97.264 439.863 95.636 439.863 92.424C439.863 89.278 441.975 87.65 444.307 87.65C446.067 87.65 447.013 88.618 447.431 89.168ZM444.483 89.058C442.921 89.058 441.491 90.202 441.491 92.424C441.491 94.382 442.591 95.856 444.483 95.856C446.419 95.856 447.519 94.25 447.519 92.446C447.519 90.092 445.891 89.058 444.483 89.058ZM452.016 80.962H453.6V97H452.016V80.962ZM463.31 95.724V97H461.726V80.962H463.31V89.146C464.388 87.804 465.774 87.65 466.434 87.65C469.294 87.65 470.878 90.026 470.878 92.49C470.878 94.998 469.272 97.264 466.5 97.264C465.026 97.264 463.992 96.604 463.31 95.724ZM466.28 95.856C468.128 95.856 469.25 94.316 469.25 92.49C469.25 90.246 467.732 89.058 466.258 89.058C464.784 89.058 463.222 90.268 463.222 92.468C463.222 94.338 464.41 95.856 466.28 95.856ZM480.303 89.168V87.87H481.887V97H480.303V95.724C479.775 96.406 478.785 97.264 477.179 97.264C474.869 97.264 472.735 95.636 472.735 92.424C472.735 89.278 474.847 87.65 477.179 87.65C478.939 87.65 479.885 88.618 480.303 89.168ZM477.355 89.058C475.793 89.058 474.363 90.202 474.363 92.424C474.363 94.382 475.463 95.856 477.355 95.856C479.291 95.856 480.391 94.25 480.391 92.446C480.391 90.092 478.763 89.058 477.355 89.058ZM484.887 80.962H486.471V97H484.887V80.962ZM489.463 80.962H491.047V97H489.463V80.962ZM494.039 87.87H495.623V97H494.039V87.87ZM493.709 84.416C493.709 83.8 494.215 83.294 494.831 83.294C495.447 83.294 495.953 83.8 495.953 84.416C495.953 85.032 495.447 85.538 494.831 85.538C494.215 85.538 493.709 85.032 493.709 84.416ZM503.675 89.3L502.377 89.982C502.157 89.454 501.695 89.058 501.101 89.058C500.529 89.058 500.001 89.388 500.001 90.092C500.001 90.752 500.441 90.95 501.475 91.39C502.795 91.94 503.411 92.358 503.763 92.798C504.159 93.282 504.247 93.766 504.247 94.272C504.247 96.186 502.861 97.264 501.101 97.264C500.727 97.264 498.681 97.22 497.911 94.932L499.275 94.36C499.451 94.844 499.979 95.856 501.123 95.856C502.157 95.856 502.619 95.086 502.619 94.404C502.619 93.546 502.003 93.26 501.145 92.886C500.045 92.402 499.341 92.05 498.923 91.544C498.571 91.104 498.505 90.664 498.505 90.202C498.505 88.596 499.627 87.65 501.167 87.65C501.651 87.65 502.949 87.738 503.675 89.3ZM509.562 89.322H507.978V97H506.394V89.322H505.426V87.87H506.394V84.57H507.978V87.87H509.562V89.322ZM511.055 87.87H512.639V97H511.055V87.87ZM510.725 84.416C510.725 83.8 511.231 83.294 511.847 83.294C512.463 83.294 512.969 83.8 512.969 84.416C512.969 85.032 512.463 85.538 511.847 85.538C511.231 85.538 510.725 85.032 510.725 84.416ZM522.781 88.53V90.422C521.945 89.366 520.735 89.058 519.921 89.058C518.227 89.058 516.687 90.246 516.687 92.468C516.687 94.69 518.271 95.856 519.899 95.856C520.845 95.856 522.011 95.438 522.847 94.426V96.318C521.857 97.044 520.801 97.264 519.943 97.264C517.105 97.264 515.059 95.24 515.059 92.49C515.059 89.696 517.127 87.65 519.943 87.65C521.395 87.65 522.341 88.222 522.781 88.53ZM530.337 89.3L529.039 89.982C528.819 89.454 528.357 89.058 527.763 89.058C527.191 89.058 526.663 89.388 526.663 90.092C526.663 90.752 527.103 90.95 528.137 91.39C529.457 91.94 530.073 92.358 530.425 92.798C530.821 93.282 530.909 93.766 530.909 94.272C530.909 96.186 529.523 97.264 527.763 97.264C527.389 97.264 525.343 97.22 524.573 94.932L525.937 94.36C526.113 94.844 526.641 95.856 527.785 95.856C528.819 95.856 529.281 95.086 529.281 94.404C529.281 93.546 528.665 93.26 527.807 92.886C526.707 92.402 526.003 92.05 525.585 91.544C525.233 91.104 525.167 90.664 525.167 90.202C525.167 88.596 526.289 87.65 527.829 87.65C528.313 87.65 529.611 87.738 530.337 89.3ZM531.736 99.926L533.54 94.844L534.992 95.372L532.77 100.344L531.736 99.926ZM550.148 89.168V87.87H551.732V97H550.148V95.724C549.62 96.406 548.63 97.264 547.024 97.264C544.714 97.264 542.58 95.636 542.58 92.424C542.58 89.278 544.692 87.65 547.024 87.65C548.784 87.65 549.73 88.618 550.148 89.168ZM547.2 89.058C545.638 89.058 544.208 90.202 544.208 92.424C544.208 94.382 545.308 95.856 547.2 95.856C549.136 95.856 550.236 94.25 550.236 92.446C550.236 90.092 548.608 89.058 547.2 89.058ZM554.732 97V87.87H556.316V88.926C556.602 88.552 557.416 87.65 558.934 87.65C560.012 87.65 561.002 88.09 561.552 88.904C562.014 89.586 562.08 90.334 562.08 91.346V97H560.496V91.39C560.496 90.84 560.452 90.202 560.078 89.718C559.77 89.322 559.286 89.058 558.582 89.058C558.032 89.058 557.438 89.212 556.976 89.762C556.36 90.488 556.316 91.566 556.316 92.226V97H554.732ZM572.062 89.168V80.962H573.646V97H572.062V95.724C571.534 96.406 570.544 97.264 568.938 97.264C566.628 97.264 564.494 95.636 564.494 92.424C564.494 89.278 566.606 87.65 568.938 87.65C570.698 87.65 571.644 88.618 572.062 89.168ZM569.114 89.058C567.552 89.058 566.122 90.202 566.122 92.424C566.122 94.382 567.222 95.856 569.114 95.856C571.05 95.856 572.15 94.25 572.15 92.446C572.15 90.092 570.522 89.058 569.114 89.058ZM581.781 97V80.962H583.365V88.926C583.651 88.552 584.465 87.65 585.983 87.65C587.061 87.65 588.051 88.09 588.601 88.904C589.063 89.586 589.129 90.334 589.129 91.346V97H587.545V91.39C587.545 90.84 587.501 90.202 587.127 89.718C586.819 89.322 586.335 89.058 585.631 89.058C585.081 89.058 584.487 89.212 584.025 89.762C583.409 90.488 583.365 91.566 583.365 92.226V97H581.781ZM592.115 87.87H593.699V97H592.115V87.87ZM591.785 84.416C591.785 83.8 592.291 83.294 592.907 83.294C593.523 83.294 594.029 83.8 594.029 84.416C594.029 85.032 593.523 85.538 592.907 85.538C592.291 85.538 591.785 85.032 591.785 84.416ZM603.687 89.168V87.87H605.271V96.78C605.271 97.77 605.271 99.178 604.391 100.366C603.709 101.29 602.455 102.06 600.739 102.06C599.177 102.06 598.099 101.444 597.483 100.828C596.867 100.212 596.295 99.222 596.295 97.88H597.857C597.857 98.65 598.165 99.332 598.561 99.772C599.221 100.498 600.057 100.652 600.761 100.652C601.883 100.652 602.653 100.256 603.181 99.376C603.643 98.628 603.687 97.814 603.687 97.044V95.724C603.159 96.406 602.169 97.264 600.563 97.264C599.221 97.264 598.143 96.736 597.439 96.032C596.823 95.416 596.119 94.272 596.119 92.424C596.119 90.642 596.779 89.542 597.439 88.882C598.209 88.134 599.331 87.65 600.563 87.65C601.905 87.65 602.961 88.222 603.687 89.168ZM600.739 89.058C599.771 89.058 599.111 89.476 598.671 89.916C597.901 90.708 597.747 91.676 597.747 92.424C597.747 93.216 597.901 94.294 598.781 95.108C599.287 95.57 599.903 95.856 600.739 95.856C601.575 95.856 602.235 95.592 602.741 95.086C603.357 94.492 603.775 93.524 603.775 92.446C603.775 91.368 603.379 90.422 602.807 89.872C602.301 89.366 601.553 89.058 600.739 89.058ZM608.271 97V80.962H609.855V88.926C610.141 88.552 610.955 87.65 612.473 87.65C613.551 87.65 614.541 88.09 615.091 88.904C615.553 89.586 615.619 90.334 615.619 91.346V97H614.035V91.39C614.035 90.84 613.991 90.202 613.617 89.718C613.309 89.322 612.825 89.058 612.121 89.058C611.571 89.058 610.977 89.212 610.515 89.762C609.899 90.488 609.855 91.566 609.855 92.226V97H608.271ZM628.8 89.3L627.502 89.982C627.282 89.454 626.82 89.058 626.226 89.058C625.654 89.058 625.126 89.388 625.126 90.092C625.126 90.752 625.566 90.95 626.6 91.39C627.92 91.94 628.536 92.358 628.888 92.798C629.284 93.282 629.372 93.766 629.372 94.272C629.372 96.186 627.986 97.264 626.226 97.264C625.852 97.264 623.806 97.22 623.036 94.932L624.4 94.36C624.576 94.844 625.104 95.856 626.248 95.856C627.282 95.856 627.744 95.086 627.744 94.404C627.744 93.546 627.128 93.26 626.27 92.886C625.17 92.402 624.466 92.05 624.048 91.544C623.696 91.104 623.63 90.664 623.63 90.202C623.63 88.596 624.752 87.65 626.292 87.65C626.776 87.65 628.074 87.738 628.8 89.3ZM633.059 95.724V102.06H631.475V87.87H633.059V89.146C634.137 87.804 635.523 87.65 636.183 87.65C639.043 87.65 640.627 90.026 640.627 92.49C640.627 94.998 639.021 97.264 636.249 97.264C634.775 97.264 633.741 96.604 633.059 95.724ZM636.029 95.856C637.877 95.856 638.999 94.316 638.999 92.49C638.999 90.246 637.481 89.058 636.007 89.058C634.533 89.058 632.971 90.268 632.971 92.468C632.971 94.338 634.159 95.856 636.029 95.856ZM643.055 87.87H644.639V97H643.055V87.87ZM642.725 84.416C642.725 83.8 643.231 83.294 643.847 83.294C644.463 83.294 644.969 83.8 644.969 84.416C644.969 85.032 644.463 85.538 643.847 85.538C643.231 85.538 642.725 85.032 642.725 84.416ZM647.631 97V87.87H649.215V88.926C649.501 88.552 650.315 87.65 651.833 87.65C652.911 87.65 653.901 88.09 654.451 88.904C654.913 89.586 654.979 90.334 654.979 91.346V97H653.395V91.39C653.395 90.84 653.351 90.202 652.977 89.718C652.669 89.322 652.185 89.058 651.481 89.058C650.931 89.058 650.337 89.212 649.875 89.762C649.259 90.488 649.215 91.566 649.215 92.226V97H647.631ZM657.877 96.12C657.877 95.526 658.383 95.02 658.977 95.02C659.571 95.02 660.077 95.526 660.077 96.12C660.077 96.714 659.571 97.22 658.977 97.22C658.383 97.22 657.877 96.714 657.877 96.12Z" fill="#B4B4B4"/>
</svg>
