<svg width="1158" height="339" viewBox="0 0 1158 339" fill="none" xmlns="http://www.w3.org/2000/svg">
<g clip-path="url(#clip0_427_307)">
<path d="M826.53 115.26C826.53 104.165 835.108 95.5363 846.136 95.5363C857.165 95.5363 865.742 104.165 865.742 115.26C865.742 126.354 857.165 134.984 846.136 134.984C835.72 134.984 826.53 126.354 826.53 115.26ZM348.012 137.449C348.012 126.354 356.59 117.725 367.619 117.725C378.647 117.725 387.225 126.354 387.225 137.449C387.225 148.544 378.647 157.173 367.619 157.173C357.203 157.789 348.012 148.544 348.012 137.449ZM296.546 89.989V96.769L259.784 151.009L194.838 242.847C167.266 279.213 138.469 329.138 87.6155 332.22C56.9806 336.534 26.9584 324.207 11.0282 302.018C6.12662 292.773 -2.45116 282.294 0.612336 269.967C4.90122 265.036 12.2536 262.571 18.9933 261.954C33.6981 263.804 33.698 282.294 44.1139 288.458C56.9806 300.785 79.6504 303.867 96.1933 296.471C113.349 289.074 124.99 276.131 136.631 262.571L240.79 115.876C251.819 104.165 256.108 82.5926 276.327 81.3599C283.679 82.5926 292.869 82.5926 296.546 89.989ZM515.892 4.31444C518.955 10.4781 522.019 17.2581 519.568 24.6544C503.025 56.089 465.038 57.3217 432.565 59.1708L390.289 58.5544L230.987 52.3908C196.063 49.9254 162.365 54.8563 135.406 71.4981C128.054 77.6617 120.089 84.4417 120.089 94.3035C123.152 101.7 131.73 102.316 139.082 102.316C156.85 102.933 171.555 96.769 186.873 91.8381C191.774 90.6054 197.289 91.2217 200.965 93.6872C205.254 96.769 205.866 101.7 206.479 106.631C207.092 111.562 205.254 114.644 202.19 118.342C181.358 134.367 153.787 135.6 126.828 134.367C106.609 133.751 90.679 122.04 83.9393 104.165C78.425 77.6617 97.4187 59.1708 114.574 44.9944C183.196 3.69808 276.939 23.4217 357.816 24.6544C395.19 25.2708 434.403 26.5035 470.552 20.3399C484.031 17.8744 495.06 9.24535 504.863 0.616261C508.539 -1.23283 512.828 2.46535 515.892 4.31444ZM931.301 250.244C936.203 234.218 929.463 217.576 922.111 205.865L903.73 242.847V245.313C908.631 250.86 915.984 259.489 925.787 257.024C927.012 254.558 930.076 252.709 931.301 250.244ZM726.66 178.745C724.822 169.5 715.631 176.896 712.568 180.594C702.765 193.538 693.574 210.796 700.927 227.438C715.631 216.96 729.111 199.702 726.66 178.745ZM642.108 86.9072C640.882 85.0581 639.657 82.5926 636.593 82.5926C624.339 85.0581 616.374 93.6872 609.022 102.933C589.416 129.436 573.485 159.638 573.485 195.387C594.93 176.896 612.085 153.474 626.79 131.902C634.143 118.342 644.558 104.782 642.108 86.9072ZM666.003 59.7872C686.222 88.7563 669.066 124.505 654.974 151.009C634.143 184.293 610.247 209.564 580.225 233.602C582.063 241.614 587.577 247.162 594.317 251.476C607.796 259.489 628.628 262.571 644.558 255.791C652.523 252.709 658.65 247.162 666.003 241.614C662.327 220.658 665.39 197.236 673.968 179.362C684.996 160.254 703.377 141.764 728.498 142.38C740.752 142.38 751.781 150.393 756.682 160.871C765.26 182.444 759.133 207.098 744.428 224.356C735.85 234.834 727.273 242.231 717.469 250.244C724.209 257.024 736.463 258.873 746.879 256.407C758.52 252.093 770.774 245.929 778.127 236.067C789.155 211.413 798.346 183.676 808.149 157.789C811.825 151.625 818.565 147.927 825.917 147.927C832.657 147.311 839.396 149.16 842.46 154.091C844.298 159.022 842.46 163.953 840.622 168.267C832.044 190.456 822.854 212.029 816.727 234.834C816.114 241.614 817.952 249.627 824.079 252.709C836.946 257.024 849.2 249.011 857.165 240.382C881.06 213.878 900.054 180.594 909.244 143.613C911.082 139.914 912.92 136.833 916.596 134.984C921.498 133.751 928.238 133.751 932.527 136.216C939.879 142.38 939.266 153.474 944.168 161.487C957.035 187.374 969.901 213.878 967.45 245.313C992.571 239.765 1004.21 214.494 1017.08 194.771C1019.53 191.073 1021.37 186.758 1022.59 183.06C1015.24 181.211 1003.6 185.525 999.923 176.28C997.473 170.116 998.085 162.104 1001.76 156.556C1009.11 144.845 1026.88 151.009 1040.36 149.16C1047.1 138.065 1051.39 126.354 1056.9 115.26C1059.36 112.178 1063.64 110.945 1067.93 111.562C1077.12 114.644 1085.09 122.04 1086.31 132.518C1085.09 138.065 1082.64 143.613 1080.19 148.544L1081.41 149.776L1140.84 150.393C1144.52 151.009 1148.2 151.625 1150.03 155.324C1153.1 160.254 1151.87 166.418 1150.65 171.349C1148.81 176.28 1144.52 180.594 1139.62 181.827C1113.27 183.06 1088.76 183.676 1061.81 183.676C1052 199.085 1042.81 214.494 1036.07 231.136C1034.23 236.684 1033.62 244.696 1036.69 250.244C1040.97 257.024 1050.16 259.489 1058.74 258.256C1071.61 257.64 1082.03 250.86 1091.22 242.847C1094.28 240.998 1097.96 241.614 1101.63 242.847C1104.69 244.696 1108.37 247.778 1108.98 252.093C1112.05 261.954 1107.15 270.584 1099.79 276.747C1082.64 291.54 1058.13 296.471 1036.07 290.307C1022.59 286.609 1011.56 278.596 1002.99 266.885C987.669 277.364 969.901 283.527 949.682 282.294C939.879 293.389 922.111 294.005 908.631 289.074C896.377 285.376 888.412 275.514 879.222 266.885C861.454 280.445 838.171 296.471 814.276 285.376C806.311 281.678 799.571 276.131 792.831 269.967C773.225 287.225 742.59 296.471 715.019 286.609C703.377 282.911 692.962 276.747 684.384 268.734C669.679 276.131 656.812 284.76 640.882 289.074C609.635 297.704 576.549 287.225 558.781 263.187C556.33 259.489 553.879 256.407 552.041 253.325C535.498 263.187 518.955 276.131 499.962 283.527C474.841 294.622 436.241 301.402 414.184 280.445C409.282 276.131 404.993 271.2 401.93 266.269C396.415 268.734 392.739 273.665 387.225 277.364C365.781 293.389 331.469 298.32 305.736 286.609C298.384 282.294 292.869 272.433 290.419 265.036C272.038 274.898 256.108 288.458 235.276 293.389C223.635 295.238 216.895 284.144 210.768 277.364C209.542 274.898 210.155 271.816 211.381 269.351C215.669 263.187 224.247 264.42 229.762 260.722C255.495 249.627 280.003 236.067 296.546 211.413C306.349 198.469 314.927 183.06 324.73 169.5C329.631 163.953 336.984 162.72 343.723 164.569C348.625 165.802 354.752 168.884 355.365 174.431V177.513C348.012 199.085 329.631 215.727 322.279 237.3C321.054 242.231 321.054 248.394 323.504 252.709C327.793 258.873 335.758 260.105 342.498 258.256C390.901 247.778 403.155 201.551 428.276 167.651V166.418C420.923 163.953 407.444 169.5 406.831 159.022C406.219 149.16 410.508 142.38 417.86 137.449C426.438 134.367 438.079 135.6 447.882 134.984C457.073 126.354 457.073 103.549 477.292 107.864C483.419 107.864 490.771 110.329 493.222 117.109C493.835 123.889 488.32 128.82 486.482 134.367C496.898 135.6 508.539 134.367 518.955 134.984C521.406 136.216 523.244 138.065 523.857 140.531C524.469 150.393 518.955 159.638 510.99 163.336C498.123 167.034 482.193 164.569 468.714 165.802L432.565 226.205C429.501 232.985 427.05 242.231 431.339 249.011C439.917 260.722 455.847 261.954 468.714 259.489C495.673 250.86 517.73 234.834 539.174 218.809C532.435 155.94 559.393 101.7 599.831 62.2526C612.698 50.5417 629.854 43.1454 648.847 46.8435C655.587 49.9254 661.714 53.6235 666.003 59.7872ZM1131.65 132.518H1134.1V126.971H1135.94C1137.17 126.971 1138.39 126.971 1139.01 127.587C1139.62 128.204 1140.23 129.436 1140.23 130.669V131.902V132.518H1142.68V131.902C1142.68 131.285 1142.68 131.285 1142.68 130.669V129.436C1142.68 128.82 1142.68 128.204 1142.07 126.971C1141.46 126.354 1140.84 125.738 1139.62 125.738C1140.23 125.738 1141.46 125.122 1141.46 125.122C1142.68 124.505 1142.68 123.273 1142.68 122.04C1142.68 120.191 1142.07 118.958 1140.23 118.342C1139.62 117.725 1138.39 117.725 1136.56 117.725H1131.65V132.518ZM1138.39 125.122C1137.78 125.122 1137.17 125.738 1135.94 125.738H1133.49V120.191H1135.94C1137.17 120.191 1138.39 120.191 1139.01 120.807C1139.62 121.424 1140.23 122.04 1140.23 122.656C1140.23 123.889 1139.62 124.505 1138.39 125.122ZM1145.75 115.876C1143.29 113.411 1140.23 112.178 1136.56 112.178C1132.88 112.178 1129.82 113.411 1127.36 115.876C1124.91 118.342 1123.69 121.424 1123.69 125.122C1123.69 128.82 1124.91 131.902 1127.36 134.367C1129.82 136.833 1132.88 138.065 1136.56 138.065C1140.23 138.065 1143.29 136.833 1145.75 134.367C1148.2 131.902 1149.42 128.82 1149.42 125.122C1150.03 122.04 1148.81 118.958 1145.75 115.876ZM1144.52 117.725C1146.97 120.191 1147.58 122.656 1147.58 125.738C1147.58 128.82 1146.36 131.902 1144.52 133.751C1142.07 136.216 1139.62 136.833 1136.56 136.833C1133.49 136.833 1131.04 135.6 1128.59 133.751C1126.14 131.285 1125.53 128.82 1125.53 125.738C1125.53 122.656 1126.75 120.191 1128.59 117.725C1131.04 115.26 1133.49 114.644 1136.56 114.644C1139.62 114.027 1142.68 115.26 1144.52 117.725Z" fill="white"/>
</g>
<defs>
<clipPath id="clip0_427_307">
<rect width="1158" height="339" fill="white"/>
</clipPath>
</defs>
</svg>
