<svg width="321" height="74" viewBox="0 0 321 74" fill="none" xmlns="http://www.w3.org/2000/svg">
<path d="M20.9355 64.9434C20.61 66.4733 20.5124 67.6452 20.6426 68.459C20.7728 69.2728 21.2611 69.875 22.1074 70.2656C22.9538 70.6562 24.2884 70.9655 26.1113 71.1934L25.7207 73H0.671875L1.0625 71.1934C2.98307 70.9655 4.44792 70.6562 5.45703 70.2656C6.46615 69.8424 7.19857 69.224 7.6543 68.4102C8.14258 67.5964 8.54948 66.4408 8.875 64.9434L20.4473 10.5488C20.7728 9.01888 20.8704 7.84701 20.7402 7.0332C20.61 6.2194 20.1217 5.61719 19.2754 5.22656C18.429 4.83594 17.0944 4.52669 15.2715 4.29883L15.6621 2.49219L40.7109 2.49219L40.3203 4.29883C38.4323 4.52669 36.9674 4.85221 35.9258 5.27539C34.9167 5.66602 34.168 6.26823 33.6797 7.08203C33.224 7.89583 32.8333 9.05143 32.5078 10.5488L20.9355 64.9434ZM52.2148 24.9043L49.041 39.748C50.1803 36.4603 51.6777 33.6934 53.5332 31.4473C55.3887 29.1686 57.472 27.4596 59.7832 26.3203C62.127 25.1484 64.6009 24.5625 67.2051 24.5625C71.4368 24.5625 74.5456 25.8809 76.5312 28.5176C78.5169 31.1217 78.9564 34.9954 77.8496 40.1387L72.7227 63.918C72.3646 65.513 72.4297 66.6849 72.918 67.4336C73.4388 68.1823 74.2526 68.5566 75.3594 68.5566C76.1732 68.5566 77.0684 68.3939 78.0449 68.0684C79.054 67.7103 79.9004 67.222 80.584 66.6035L80.1934 68.459C79.1191 69.9889 77.459 71.2585 75.2129 72.2676C72.9668 73.2441 70.6719 73.7324 68.3281 73.7324C65.5612 73.7324 63.5755 72.8861 62.3711 71.1934C61.1992 69.4681 61.0202 66.75 61.834 63.0391L67.0098 38.7227C67.6608 35.8255 67.5794 33.5469 66.7656 31.8867C65.9518 30.194 64.2917 29.3477 61.7852 29.3477C59.8646 29.3477 58.0091 29.9987 56.2188 31.3008C54.4609 32.6029 52.8822 34.3607 51.4824 36.5742C50.1152 38.7878 49.0573 41.3105 48.3086 44.1426L42.2051 73H31.1211L39.5195 33.5957C39.8125 32.2936 39.7962 31.3659 39.4707 30.8125C39.1452 30.2266 38.3639 29.7546 37.127 29.3965L34.3438 28.7129L34.7344 27.0039L52.2148 24.9043ZM94.0898 73.7812C90.2161 73.7812 87.3678 72.4303 85.5449 69.7285C83.7546 67.0267 83.3802 63.1693 84.4219 58.1562L90.3789 29.7871H84.3242L84.666 28.127L91.1113 26.6133L93.1133 16.8965L104.588 15.1387L102.098 27.0039L114.207 26.3691L113.475 29.7871L101.609 29.25L95.2617 59.1328C94.5456 62.4531 94.627 64.8783 95.5059 66.4082C96.4173 67.9056 97.9798 68.6543 100.193 68.6543C101.593 68.6543 102.863 68.3939 104.002 67.873C105.174 67.3522 106.15 66.6686 106.932 65.8223L106.59 67.6777C105.809 68.9798 104.767 70.0866 103.465 70.998C102.163 71.9095 100.698 72.5931 99.0703 73.0488C97.4753 73.5371 95.8151 73.7812 94.0898 73.7812ZM128.299 73.8789C124.425 73.8789 121.023 72.9674 118.094 71.1445C115.197 69.2891 112.934 66.7663 111.307 63.5762C109.679 60.3861 108.865 56.7402 108.865 52.6387C108.865 48.8952 109.451 45.347 110.623 41.9941C111.827 38.6087 113.553 35.6139 115.799 33.0098C118.045 30.373 120.763 28.306 123.953 26.8086C127.143 25.3112 130.773 24.5625 134.842 24.5625C138.715 24.5625 142.101 25.474 144.998 27.2969C147.928 29.1198 150.206 31.6426 151.834 34.8652C153.462 38.0553 154.275 41.7012 154.275 45.8027C154.275 49.5788 153.673 53.1432 152.469 56.4961C151.297 59.849 149.588 62.8437 147.342 65.4805C145.096 68.0846 142.361 70.1354 139.139 71.6328C135.949 73.1302 132.335 73.8789 128.299 73.8789ZM128.445 71.4863C130.333 71.4863 132.026 70.8841 133.523 69.6797C135.053 68.4427 136.388 66.7988 137.527 64.748C138.699 62.6647 139.676 60.321 140.457 57.7168C141.238 55.1126 141.824 52.3945 142.215 49.5625C142.605 46.7305 142.817 43.9961 142.85 41.3594C142.882 36.5091 142.199 32.8958 140.799 30.5195C139.399 28.1432 137.365 26.9551 134.695 26.9551C132.807 26.9551 131.098 27.5573 129.568 28.7617C128.071 29.9661 126.736 31.61 125.564 33.6934C124.425 35.7767 123.465 38.1204 122.684 40.7246C121.902 43.3288 121.316 46.0469 120.926 48.8789C120.535 51.6784 120.324 54.4128 120.291 57.082C120.258 61.9323 120.942 65.5456 122.342 67.9219C123.742 70.2982 125.776 71.4863 128.445 71.4863ZM238.904 2.49219L236.121 19.8262H234.51C234.445 16.0501 233.973 13.1204 233.094 11.0371C232.247 8.95378 230.734 7.45638 228.553 6.54492C226.372 5.60091 223.263 4.98242 219.227 4.68945L216.834 4.54297L203.943 65.0898C203.65 66.5221 203.585 67.6289 203.748 68.4102C203.943 69.1914 204.546 69.7936 205.555 70.2168C206.564 70.6074 208.159 70.9492 210.34 71.2422L209.998 73H182.703L183.045 71.2422C185.291 70.9818 186.984 70.6562 188.123 70.2656C189.295 69.8424 190.141 69.2402 190.662 68.459C191.183 67.6452 191.606 66.5221 191.932 65.0898L204.773 4.54297L202.283 4.68945C198.019 4.98242 194.585 5.63346 191.98 6.64258C189.376 7.65169 187.228 9.21419 185.535 11.3301C183.875 13.4134 182.296 16.2454 180.799 19.8262H179.188L183.484 2.49219L238.904 2.49219ZM256.609 0.832031L248.064 39.7969C249.334 36.2812 250.929 33.4004 252.85 31.1543C254.77 28.9082 256.886 27.248 259.197 26.1738C261.541 25.0996 263.917 24.5625 266.326 24.5625C270.558 24.5625 273.65 25.8809 275.604 28.5176C277.589 31.1217 278.029 34.9954 276.922 40.1387L271.844 63.918C271.486 65.513 271.551 66.6849 272.039 67.4336C272.56 68.1823 273.374 68.5566 274.48 68.5566C275.294 68.5566 276.189 68.3939 277.166 68.0684C278.143 67.7103 278.989 67.222 279.705 66.6035L279.314 68.459C278.24 69.9889 276.58 71.2585 274.334 72.2676C272.088 73.2441 269.793 73.7324 267.449 73.7324C264.682 73.7324 262.697 72.8861 261.492 71.1934C260.32 69.4681 260.141 66.75 260.955 63.0391L266.131 38.7227C266.749 35.8255 266.652 33.5469 265.838 31.8867C265.057 30.194 263.413 29.3477 260.906 29.3477C259.181 29.3477 257.423 29.9661 255.633 31.2031C253.842 32.4076 252.215 34.1165 250.75 36.3301C249.318 38.5111 248.211 41.0501 247.43 43.9473L241.229 73H230.193L243.768 9.08398C244.028 7.81445 243.995 6.88672 243.67 6.30078C243.377 5.71484 242.612 5.24284 241.375 4.88477L238.592 4.20117L238.982 2.49219L256.609 0.832031ZM299.412 73.8789C296.189 73.8789 293.227 73.1302 290.525 71.6328C287.824 70.1354 285.659 67.9219 284.031 64.9922C282.404 62.0299 281.59 58.4167 281.59 54.1523C281.59 50.0182 282.241 46.1608 283.543 42.5801C284.845 38.9993 286.635 35.8581 288.914 33.1562C291.225 30.4544 293.895 28.3548 296.922 26.8574C299.982 25.3275 303.27 24.5625 306.785 24.5625C310.822 24.5625 314.044 25.4251 316.453 27.1504C318.895 28.8431 320.115 31.1706 320.115 34.1328C320.115 36.6068 319.236 38.804 317.479 40.7246C315.721 42.6452 313.051 44.4355 309.471 46.0957C305.923 47.7233 301.382 49.3346 295.848 50.9297L291.697 52.1504L291.844 50.1973L295.75 48.9277C298.126 48.179 300.275 47.235 302.195 46.0957C304.116 44.9238 305.743 43.6217 307.078 42.1895C308.413 40.7246 309.422 39.1621 310.105 37.502C310.822 35.8418 311.18 34.1328 311.18 32.375C311.18 30.6172 310.805 29.2663 310.057 28.3223C309.34 27.3457 308.12 26.8574 306.395 26.8574C304.344 26.8574 302.488 27.6224 300.828 29.1523C299.168 30.6497 297.752 32.6517 296.58 35.1582C295.441 37.6647 294.562 40.4642 293.943 43.5566C293.325 46.6491 293.016 49.7904 293.016 52.9805C293.016 56.5937 293.52 59.5885 294.529 61.9648C295.571 64.3411 296.987 66.1152 298.777 67.2871C300.568 68.459 302.618 69.0449 304.93 69.0449C306.98 69.0449 308.982 68.6055 310.936 67.7266C312.889 66.8477 314.533 65.7246 315.867 64.3574L315.477 66.3105C314.467 67.7428 313.133 69.0449 311.473 70.2168C309.845 71.3561 308.006 72.2513 305.955 72.9023C303.904 73.5534 301.723 73.8789 299.412 73.8789Z" fill="#AF001B"/>
</svg>
