<svg width="605" height="84" viewBox="0 0 605 84" fill="none" xmlns="http://www.w3.org/2000/svg">
<path d="M0.120001 1.95999L15.72 1.95999L15.72 68.56H40.44V82H0.120001L0.120001 1.95999ZM85.1156 0.159995C110.316 0.159995 127.836 17.68 127.836 42.04C127.836 66.4 110.316 83.8 85.1156 83.8C59.9156 83.8 42.3956 66.4 42.3956 42.04C42.3956 17.68 59.9156 0.159995 85.1156 0.159995ZM85.1156 69.64C100.716 69.64 111.756 58.24 111.756 42.04C111.756 25.84 100.716 14.32 85.1156 14.32C69.5156 14.32 58.4756 25.84 58.4756 42.04C58.4756 58.24 69.5156 69.64 85.1156 69.64ZM190.181 31.24L171.821 82H160.061L132.221 1.95999L148.781 1.95999L166.661 56.44L186.221 1.24L194.861 1.24L213.341 56.44L232.541 1.95999L249.101 1.95999L219.461 82H207.701L190.181 31.24ZM252.886 61.12V47.68L284.086 47.68V61.12L252.886 61.12ZM296.848 1.95999L312.448 1.95999V68.56H337.168V82H296.848V1.95999ZM381.844 0.159995C407.044 0.159995 424.564 17.68 424.564 42.04C424.564 66.4 407.044 83.8 381.844 83.8C356.644 83.8 339.124 66.4 339.124 42.04C339.124 17.68 356.644 0.159995 381.844 0.159995ZM381.844 69.64C397.444 69.64 408.484 58.24 408.484 42.04C408.484 25.84 397.444 14.32 381.844 14.32C366.244 14.32 355.204 25.84 355.204 42.04C355.204 58.24 366.244 69.64 381.844 69.64ZM452.14 82H436.54V1.95999L447.34 1.95999L496.06 55.36V1.95999L511.66 1.95999V82H500.86L452.14 28.48V82ZM568.099 52.6V39.16H604.819V40.12C604.819 45.52 604.099 62.32 593.059 73.24C584.779 81.52 574.579 83.8 564.619 83.8C554.659 83.8 544.339 81.76 535.579 73C532.819 70.24 523.699 60.16 523.699 42.16C523.699 26.68 530.659 17.2 535.459 12.4C541.459 6.27999 551.539 0.159995 567.019 0.159995C573.019 0.159995 579.379 1.12 585.499 4.36C590.659 7 596.299 11.8 600.499 19L586.939 26.32C584.179 20.92 580.099 18.16 577.579 16.84C574.219 15.16 570.019 14.32 566.299 14.32C559.939 14.32 552.739 16.6 547.819 21.4C543.259 25.84 539.779 33.52 539.779 42.52C539.779 53.2 544.339 59.56 547.699 62.8C551.299 66.28 556.939 69.64 565.459 69.64C570.739 69.64 576.739 68.2 581.179 64.84C584.299 62.44 587.419 58.36 588.739 52.6H568.099Z" fill="black"/>
</svg>
