<svg width="1056" height="311" viewBox="0 0 1056 311" fill="none" xmlns="http://www.w3.org/2000/svg">
<path d="M13.8792 188.94H43.5792C50.2392 188.94 63.1992 188.94 72.9192 196.5C79.9392 201.9 84.0792 211.26 84.0792 221.34C84.0792 236.82 73.8192 243.12 70.5792 244.92C78.4992 246.18 83.1792 249.6 86.2392 252.48C93.4392 259.32 94.8792 268.68 94.8792 274.98C94.8792 282 92.8992 291.9 84.6192 299.28C75.6192 307.2 64.6392 309 54.1992 309H13.8792V188.94ZM37.2792 208.02V238.8H43.9392C47.5392 238.8 62.1192 238.44 62.1192 223.14C62.1192 212.16 53.6592 208.02 44.1192 208.02H37.2792ZM37.2792 256.8V289.92H47.3592C51.6792 289.92 58.1592 289.74 63.3792 286.68C69.1392 283.26 70.7592 277.5 70.7592 272.82C70.7592 269.04 69.4992 262.56 61.9392 259.14C56.8992 256.8 50.9592 256.8 45.9192 256.8H37.2792ZM183.135 188.94V209.1H139.935V235.92H181.335V256.08H139.935V288.84H183.135V309H116.535V188.94H183.135ZM274.5 209.1H247.5V309H224.1V209.1H197.1V188.94H274.5V209.1ZM361.335 209.1H334.335V309H310.935V209.1H283.935V188.94H361.335V209.1ZM442.764 188.94V209.1H399.564V235.92H440.964V256.08H399.564V288.84H442.764V309H376.164V188.94H442.764ZM465.461 188.94H500.201C516.761 188.94 525.221 193.26 530.801 197.94C539.981 205.68 542.681 215.94 542.681 224.94C542.681 236.64 538.001 246.9 528.641 253.2C525.581 255.36 521.261 257.34 515.501 258.42L552.941 309H523.781L491.741 260.76H488.861V309H465.461V188.94ZM488.861 208.02V244.2H495.521C500.021 244.2 518.561 243.66 518.561 226.02C518.561 208.2 500.201 208.02 495.881 208.02H488.861ZM618.246 251.871C618.305 240.797 620.121 230.895 623.695 222.164C627.328 213.375 632.338 205.904 638.725 199.752C645.111 193.541 652.611 188.795 661.225 185.514C669.838 182.232 679.213 180.592 689.35 180.592C695.443 180.592 701.127 181.09 706.4 182.086C711.732 183.023 716.449 184.283 720.551 185.865C724.711 187.447 728.109 189.146 730.746 190.963L724.857 222.867L723.627 222.779C723.451 213.404 722.104 205.787 719.584 199.928C717.064 194.01 713.607 189.703 709.213 187.008C704.877 184.254 699.809 182.877 694.008 182.877C687.973 182.877 682.377 184.225 677.221 186.92C672.123 189.615 667.553 193.424 663.51 198.346C659.525 203.209 656.127 208.922 653.314 215.484C650.502 221.988 648.334 229.078 646.811 236.754C645.346 244.43 644.613 252.428 644.613 260.748C644.613 270.768 646.02 279.352 648.832 286.5C651.703 293.648 655.6 299.098 660.521 302.848C665.443 306.598 671.068 308.473 677.396 308.473C680.619 308.473 683.783 308.121 686.889 307.418C690.053 306.656 692.602 305.367 694.535 303.551L693.48 305.309L702.357 262.506C702.885 259.986 703.061 257.994 702.885 256.529C702.709 255.006 701.947 253.834 700.6 253.014C699.252 252.193 697.084 251.549 694.096 251.08L694.447 249.674H736.547L736.283 251.08C733.529 251.549 731.361 252.193 729.779 253.014C728.197 253.834 726.996 255.006 726.176 256.529C725.355 257.994 724.652 259.986 724.066 262.506L716.156 299.332C713.461 301.266 710.473 302.965 707.191 304.43C703.969 305.836 700.541 307.008 696.908 307.945C693.334 308.824 689.701 309.469 686.01 309.879C682.377 310.348 678.773 310.582 675.199 310.582C668.344 310.582 661.518 309.352 654.721 306.891C647.982 304.371 641.83 300.65 636.264 295.729C630.756 290.807 626.332 284.713 622.992 277.447C619.711 270.123 618.129 261.598 618.246 251.871ZM741.381 279.293C741.381 271.969 742.377 264.938 744.369 258.199C746.42 251.461 749.35 245.426 753.158 240.094C756.967 234.762 761.537 230.543 766.869 227.438C772.201 224.332 778.178 222.779 784.799 222.779C790.775 222.779 795.316 223.922 798.422 226.207C801.527 228.492 803.373 230.895 803.959 233.414L815.297 224.186H827.953L813.275 292.652C812.631 295.816 812.807 298.102 813.803 299.508C814.799 300.855 816.293 301.529 818.285 301.529C819.75 301.529 821.244 301.236 822.768 300.65C824.291 300.006 825.58 299.215 826.635 298.277L826.371 299.684C824.379 302.73 821.303 305.25 817.143 307.242C812.982 309.234 808.559 310.23 803.871 310.23C799.125 310.23 795.58 308.883 793.236 306.188C790.951 303.492 790.277 299.127 791.215 293.092C791.449 291.686 791.713 290.191 792.006 288.609C792.299 286.969 792.592 285.416 792.885 283.951C790.6 292.506 786.908 299.068 781.811 303.639C776.771 308.15 771 310.406 764.496 310.406C759.691 310.406 755.561 309.088 752.104 306.451C748.646 303.814 745.98 300.152 744.105 295.465C742.289 290.719 741.381 285.328 741.381 279.293ZM764.584 283.775C764.584 290.514 765.492 295.348 767.309 298.277C769.125 301.207 771.703 302.672 775.043 302.672C778.676 302.672 782.162 300.709 785.502 296.783C788.9 292.857 791.479 287.496 793.236 280.699L803.08 234.645C802.436 232.652 801.146 230.953 799.213 229.547C797.279 228.141 794.877 227.438 792.006 227.438C788.314 227.438 785.004 228.639 782.074 231.041C779.145 233.385 776.566 236.549 774.34 240.533C772.172 244.518 770.355 248.971 768.891 253.893C767.484 258.814 766.4 263.854 765.639 269.01C764.936 274.166 764.584 279.088 764.584 283.775ZM849.926 237.809C850.453 235.289 850.424 233.473 849.838 232.359C849.311 231.246 847.963 230.279 845.795 229.459L842.279 228.229L842.543 226.91L875.326 223.307L869.35 251.432C872.045 242.057 876.352 234.938 882.27 230.074C888.188 225.211 894.633 222.779 901.605 222.779C906.234 222.779 910.131 223.688 913.295 225.504C916.459 227.32 918.686 230.016 919.975 233.59C921.264 237.105 921.469 241.5 920.59 246.773C920.414 247.652 920.209 248.531 919.975 249.41C919.799 250.289 919.623 251.168 919.447 252.047C921.205 245.484 923.783 240.064 927.182 235.787C930.58 231.451 934.418 228.199 938.695 226.031C942.973 223.863 947.309 222.779 951.703 222.779C958.793 222.779 964.125 224.977 967.699 229.371C971.332 233.707 972.123 240.533 970.072 249.85L960.932 292.652C960.229 295.816 960.375 298.102 961.371 299.508C962.367 300.855 963.861 301.529 965.854 301.529C967.377 301.529 968.9 301.236 970.424 300.65C971.947 300.006 973.207 299.215 974.203 298.277L973.939 299.684C971.947 302.73 968.871 305.25 964.711 307.242C960.551 309.234 956.127 310.23 951.439 310.23C946.225 310.23 942.445 308.678 940.102 305.572C937.758 302.408 937.348 297.252 938.871 290.104L948.363 246.334C949.301 241.822 949.213 238.072 948.1 235.084C947.045 232.096 944.438 230.602 940.277 230.602C937.172 230.602 934.213 231.686 931.4 233.854C928.588 235.963 926.098 238.893 923.93 242.643C921.762 246.334 920.092 250.523 918.92 255.211L907.406 309H884.906L898.354 246.246C899.291 241.793 899.203 238.072 898.09 235.084C897.035 232.096 894.398 230.602 890.18 230.602C887.074 230.602 884.115 231.656 881.303 233.766C878.549 235.816 876.088 238.658 873.92 242.291C871.752 245.924 870.082 250.055 868.91 254.684L857.221 309H834.721L849.926 237.809ZM1016.92 310.406C1011 310.406 1005.61 309.059 1000.75 306.363C995.883 303.668 992.016 299.713 989.145 294.498C986.273 289.283 984.838 282.984 984.838 275.602C984.838 268.336 985.98 261.539 988.266 255.211C990.551 248.824 993.744 243.199 997.846 238.336C1001.95 233.473 1006.78 229.664 1012.35 226.91C1017.97 224.156 1024.12 222.779 1030.8 222.779C1038.36 222.779 1044.34 224.273 1048.73 227.262C1053.19 230.191 1055.41 234.264 1055.41 239.479C1055.41 243.521 1054.01 247.125 1051.2 250.289C1048.44 253.453 1043.99 256.441 1037.84 259.254C1031.68 262.008 1023.51 264.82 1013.31 267.691L1007.16 269.537L1007.25 268.043L1013.14 266.021C1017.18 264.732 1020.76 262.945 1023.86 260.66C1027.03 258.375 1029.66 255.797 1031.77 252.926C1033.94 249.996 1035.55 246.92 1036.61 243.697C1037.72 240.416 1038.28 237.135 1038.28 233.854C1038.28 230.982 1037.69 228.727 1036.52 227.086C1035.4 225.445 1033.41 224.625 1030.54 224.625C1026.91 224.625 1023.69 226.119 1020.87 229.107C1018.06 232.096 1015.69 236.021 1013.75 240.885C1011.88 245.748 1010.44 251.021 1009.45 256.705C1008.51 262.389 1008.04 267.926 1008.04 273.316C1008.04 280.113 1008.95 285.68 1010.77 290.016C1012.58 294.293 1015.07 297.457 1018.24 299.508C1021.4 301.559 1024.97 302.584 1028.96 302.584C1032.94 302.584 1036.58 301.734 1039.86 300.035C1043.14 298.277 1045.69 296.314 1047.5 294.146L1047.24 295.641C1045.6 298.277 1043.26 300.738 1040.21 303.023C1037.22 305.25 1033.73 307.037 1029.75 308.385C1025.82 309.732 1021.55 310.406 1016.92 310.406Z" fill="white"/>
<path d="M265.393 88.416C265.393 95.8574 262.844 102.479 257.746 108.279C252.707 114.08 245.148 118.65 235.07 121.99C225.051 125.33 212.6 127 197.717 127H155.441L155.793 125.594C158.664 125.184 160.891 124.598 162.473 123.836C164.113 123.074 165.344 121.932 166.164 120.408C167.043 118.885 167.775 116.717 168.361 113.904L189.807 13.1816C190.451 10.3691 190.656 8.20117 190.422 6.67773C190.188 5.1543 189.426 4.01172 188.137 3.25C186.848 2.48828 184.855 1.90234 182.16 1.49219L182.424 0.0859375H225.314C240.607 0.0859375 252.297 2.69336 260.383 7.9082C268.469 13.123 272.512 19.9199 272.512 28.2988C272.512 33.8652 271.076 38.5527 268.205 42.3613C265.393 46.1699 261.701 49.2168 257.131 51.502C252.619 53.7871 247.639 55.4863 242.189 56.5996C236.799 57.7129 231.467 58.3574 226.193 58.5332C234.865 58.8848 242.072 60.4375 247.814 63.1914C253.615 65.8867 257.98 69.4316 260.91 73.8262C263.898 78.2207 265.393 83.084 265.393 88.416ZM239.025 86.834C239.025 81.9707 238.117 77.5762 236.301 73.6504C234.484 69.666 231.848 66.4727 228.391 64.0703C224.992 61.668 220.861 60.3789 215.998 60.2031L204.396 59.9395L190.598 125.418L197.453 125.154C207.238 124.803 215.178 122.752 221.271 119.002C227.365 115.252 231.848 110.535 234.719 104.852C237.59 99.1094 239.025 93.1035 239.025 86.834ZM247.287 26.8047C247.287 19.7734 245.324 13.9434 241.398 9.31445C237.473 4.68555 231.525 2.22461 223.557 1.93164L216.877 1.66797L204.748 58.3574L216.438 58.1816C223.176 58.0645 228.83 56.5996 233.4 53.7871C237.971 50.916 241.428 47.1367 243.771 42.4492C246.115 37.7031 247.287 32.4883 247.287 26.8047ZM311.711 128.406C305.793 128.406 300.402 127.059 295.539 124.363C290.676 121.668 286.809 117.713 283.938 112.498C281.066 107.283 279.631 100.984 279.631 93.6016C279.631 86.3359 280.773 79.5391 283.059 73.2109C285.344 66.8242 288.537 61.1992 292.639 56.3359C296.74 51.4727 301.574 47.6641 307.141 44.9102C312.766 42.1562 318.918 40.7793 325.598 40.7793C333.156 40.7793 339.133 42.2734 343.527 45.2617C347.98 48.1914 350.207 52.2637 350.207 57.4785C350.207 61.5215 348.801 65.125 345.988 68.2891C343.234 71.4531 338.781 74.4414 332.629 77.2539C326.477 80.0078 318.303 82.8203 308.107 85.6914L301.955 87.5371L302.043 86.043L307.932 84.0215C311.975 82.7324 315.549 80.9453 318.654 78.6602C321.818 76.375 324.455 73.7969 326.564 70.9258C328.732 67.9961 330.344 64.9199 331.398 61.6973C332.512 58.416 333.068 55.1348 333.068 51.8535C333.068 48.9824 332.482 46.7266 331.311 45.0859C330.197 43.4453 328.205 42.625 325.334 42.625C321.701 42.625 318.479 44.1191 315.666 47.1074C312.854 50.0957 310.48 54.0215 308.547 58.8848C306.672 63.748 305.236 69.0215 304.24 74.7051C303.303 80.3887 302.834 85.9258 302.834 91.3164C302.834 98.1133 303.742 103.68 305.559 108.016C307.375 112.293 309.865 115.457 313.029 117.508C316.193 119.559 319.768 120.584 323.752 120.584C327.736 120.584 331.369 119.734 334.65 118.035C337.932 116.277 340.48 114.314 342.297 112.146L342.033 113.641C340.393 116.277 338.049 118.738 335.002 121.023C332.014 123.25 328.527 125.037 324.543 126.385C320.617 127.732 316.34 128.406 311.711 128.406ZM376.926 128.406C370.07 128.348 365.002 125.945 361.721 121.199C358.498 116.395 357.883 109.363 359.875 100.105L370.686 48.5137H361.281L361.545 47.2832L371.652 44.1191L375.168 26.8047L398.459 23.2891L393.977 45.2617L413.84 43.7676L412.785 48.5137L393.625 47.0195L381.584 103.709C380.412 109.1 380.529 113.113 381.936 115.75C383.342 118.328 385.891 119.617 389.582 119.617C391.926 119.617 394.006 119.148 395.822 118.211C397.639 117.273 399.133 116.072 400.305 114.607L400.129 116.014C398.723 118.65 396.818 120.906 394.416 122.781C392.072 124.598 389.377 126.004 386.33 127C383.342 127.938 380.207 128.406 376.926 128.406ZM431.242 128.406C424.387 128.348 419.318 125.945 416.037 121.199C412.814 116.395 412.199 109.363 414.191 100.105L425.002 48.5137H415.598L415.861 47.2832L425.969 44.1191L429.484 26.8047L452.775 23.2891L448.293 45.2617L468.156 43.7676L467.102 48.5137L447.941 47.0195L435.9 103.709C434.729 109.1 434.846 113.113 436.252 115.75C437.658 118.328 440.207 119.617 443.898 119.617C446.242 119.617 448.322 119.148 450.139 118.211C451.955 117.273 453.449 116.072 454.621 114.607L454.445 116.014C453.039 118.65 451.135 120.906 448.732 122.781C446.389 124.598 443.693 126.004 440.646 127C437.658 127.938 434.523 128.406 431.242 128.406ZM497.512 128.406C491.594 128.406 486.203 127.059 481.34 124.363C476.477 121.668 472.609 117.713 469.738 112.498C466.867 107.283 465.432 100.984 465.432 93.6016C465.432 86.3359 466.574 79.5391 468.859 73.2109C471.145 66.8242 474.338 61.1992 478.439 56.3359C482.541 51.4727 487.375 47.6641 492.941 44.9102C498.566 42.1562 504.719 40.7793 511.398 40.7793C518.957 40.7793 524.934 42.2734 529.328 45.2617C533.781 48.1914 536.008 52.2637 536.008 57.4785C536.008 61.5215 534.602 65.125 531.789 68.2891C529.035 71.4531 524.582 74.4414 518.43 77.2539C512.277 80.0078 504.104 82.8203 493.908 85.6914L487.756 87.5371L487.844 86.043L493.732 84.0215C497.775 82.7324 501.35 80.9453 504.455 78.6602C507.619 76.375 510.256 73.7969 512.365 70.9258C514.533 67.9961 516.145 64.9199 517.199 61.6973C518.312 58.416 518.869 55.1348 518.869 51.8535C518.869 48.9824 518.283 46.7266 517.111 45.0859C515.998 43.4453 514.006 42.625 511.135 42.625C507.502 42.625 504.279 44.1191 501.467 47.1074C498.654 50.0957 496.281 54.0215 494.348 58.8848C492.473 63.748 491.037 69.0215 490.041 74.7051C489.104 80.3887 488.635 85.9258 488.635 91.3164C488.635 98.1133 489.543 103.68 491.359 108.016C493.176 112.293 495.666 115.457 498.83 117.508C501.994 119.559 505.568 120.584 509.553 120.584C513.537 120.584 517.17 119.734 520.451 118.035C523.732 116.277 526.281 114.314 528.098 112.146L527.834 113.641C526.193 116.277 523.85 118.738 520.803 121.023C517.814 123.25 514.328 125.037 510.344 126.385C506.418 127.732 502.141 128.406 497.512 128.406ZM580.129 41.3066L573.977 70.4863C577.844 63.1621 581.184 57.3613 583.996 53.084C586.809 48.8066 589.416 45.7598 591.818 43.9434C594.279 42.127 596.828 41.2188 599.465 41.2188C602.395 41.2188 604.562 42.1855 605.969 44.1191C607.375 45.9941 608.078 48.3965 608.078 51.3262C608.078 53.084 607.814 54.6953 607.287 56.1602C606.818 57.5664 606.32 58.6504 605.793 59.4121C604.973 59.0605 603.859 58.7676 602.453 58.5332C601.105 58.2988 599.553 58.1816 597.795 58.1816C592.873 58.1816 588.215 59.5293 583.82 62.2246C579.484 64.9199 576.145 68.1719 573.801 71.9805L562.111 127H539.611L554.729 55.8086C555.314 53.2891 555.314 51.4727 554.729 50.3594C554.201 49.2461 552.854 48.2793 550.686 47.459L547.17 46.2285L547.434 44.9102L580.129 41.3066ZM715.185 6.93999V27.1H674.865V53.92H712.665V74.08H674.865V127H651.465V6.93999H715.185ZM735.313 6.93999H758.713V127H735.313V6.93999ZM850.914 27.1H823.914V127H800.514V27.1H773.514V6.93999H850.914V27.1ZM845.847 150.58L864.927 102.16L885.087 104.5L859.707 152.2L845.847 150.58Z" fill="white"/>
</svg>
