<svg width="930" height="106" viewBox="0 0 930 106" fill="none" xmlns="http://www.w3.org/2000/svg">
<path d="M78 76.6V99.4C72 102.55 64.05 105.25 53.25 105.25C35.7 105.25 25.05 99.25 16.65 91.3C5.1 80.2 0.600001 67.75 0.600001 53.05C0.600001 34.9 8.1 21.85 16.65 13.9C26.7 4.45 39.15 0.699994 53.4 0.699994C60.45 0.699994 68.85 1.9 78 6.85V29.65C68.85 19.15 57.45 18.4 53.85 18.4C33.75 18.4 20.7 34.9 20.7 53.35C20.7 75.55 37.8 87.55 54.6 87.55C63.9 87.55 72.15 83.5 78 76.6ZM141.527 0.699994C173.027 0.699994 194.927 22.6 194.927 53.05C194.927 83.5 173.027 105.25 141.527 105.25C110.027 105.25 88.1273 83.5 88.1273 53.05C88.1273 22.6 110.027 0.699994 141.527 0.699994ZM141.527 87.55C161.027 87.55 174.827 73.3 174.827 53.05C174.827 32.8 161.027 18.4 141.527 18.4C122.027 18.4 108.227 32.8 108.227 53.05C108.227 73.3 122.027 87.55 141.527 87.55ZM229.398 103H209.898V2.94999H223.398L284.298 69.7V2.94999H303.798V103H290.298L229.398 36.1V103ZM383.046 12.4L372.846 25.75C366.996 17.95 360.096 17.2 356.496 17.2C345.996 17.2 342.696 23.8 342.696 28.9C342.696 31.3 343.446 33.55 345.846 35.65C348.246 37.9 351.546 39.1 357.846 41.35C365.646 44.05 372.996 46.75 378.096 51.4C382.596 55.45 386.646 62.2 386.646 72.4C386.646 91.9 372.546 105.25 351.846 105.25C333.396 105.25 322.596 94 317.346 86.35L330.096 74.2C334.896 83.95 344.046 87.55 351.096 87.55C359.946 87.55 366.546 82.15 366.546 73.75C366.546 70.15 365.346 67.3 362.646 64.75C358.896 61.3 352.896 59.35 347.196 57.4C341.946 55.6 335.646 53.2 330.546 48.7C327.246 45.85 322.596 40.3 322.596 30.1C322.596 15.4 332.496 0.699994 354.696 0.699994C360.996 0.699994 372.846 1.9 383.046 12.4ZM400.773 2.94999H420.273V103H400.773V2.94999ZM499.507 12.4L489.307 25.75C483.457 17.95 476.557 17.2 472.957 17.2C462.457 17.2 459.157 23.8 459.157 28.9C459.157 31.3 459.907 33.55 462.307 35.65C464.707 37.9 468.007 39.1 474.307 41.35C482.107 44.05 489.457 46.75 494.557 51.4C499.057 55.45 503.107 62.2 503.107 72.4C503.107 91.9 489.007 105.25 468.307 105.25C449.857 105.25 439.057 94 433.807 86.35L446.557 74.2C451.357 83.95 460.507 87.55 467.557 87.55C476.407 87.55 483.007 82.15 483.007 73.75C483.007 70.15 481.807 67.3 479.107 64.75C475.357 61.3 469.357 59.35 463.657 57.4C458.407 55.6 452.107 53.2 447.007 48.7C443.707 45.85 439.057 40.3 439.057 30.1C439.057 15.4 448.957 0.699994 471.157 0.699994C477.457 0.699994 489.307 1.9 499.507 12.4ZM569.769 19.75H547.269V103H527.769V19.75H505.269V2.94999H569.769V19.75ZM634.627 2.94999V19.75H598.627V42.1H633.127V58.9H598.627V86.2H634.627V103H579.127V2.94999H634.627ZM670.041 103H650.541V2.94999H664.041L724.941 69.7V2.94999H744.441V103H730.941L670.041 36.1V103ZM836.889 76.6V99.4C830.889 102.55 822.939 105.25 812.139 105.25C794.589 105.25 783.939 99.25 775.539 91.3C763.989 80.2 759.489 67.75 759.489 53.05C759.489 34.9 766.989 21.85 775.539 13.9C785.589 4.45 798.039 0.699994 812.289 0.699994C819.339 0.699994 827.739 1.9 836.889 6.85V29.65C827.739 19.15 816.339 18.4 812.739 18.4C792.639 18.4 779.589 34.9 779.589 53.35C779.589 75.55 796.689 87.55 813.489 87.55C822.789 87.55 831.039 83.5 836.889 76.6ZM874.466 103V57.25L840.116 2.94999H863.216L884.666 37.75L906.116 2.94999H929.216L893.966 57.25V103H874.466Z" fill="white"/>
</svg>
