<svg width="355" height="74" viewBox="0 0 355 74" fill="none" xmlns="http://www.w3.org/2000/svg">
<path d="M30.8711 70.584C33.3125 70.584 35.6074 70.1608 37.7559 69.3145C39.9043 68.4681 41.89 67.2637 43.7129 65.7012C45.5684 64.1061 47.2285 62.1855 48.6934 59.9395C50.1908 57.6934 51.4766 55.1706 52.5508 52.3711H54.0156L50.8418 67.8008C48.5306 69.4284 45.6009 70.7142 42.0527 71.6582C38.5371 72.5697 34.6146 73.0254 30.2852 73.0254C26.2487 73.0254 22.4076 72.3255 18.7617 70.9258C15.1484 69.526 11.9258 67.4427 9.09375 64.6758C6.29427 61.8763 4.09701 58.4421 2.50195 54.373C0.906901 50.304 0.125651 45.6003 0.158203 40.2617C0.223307 34.2721 1.18359 28.8522 3.03906 24.002C4.89453 19.1191 7.4987 14.9362 10.8516 11.4531C14.2044 7.9375 18.1595 5.23568 22.7168 3.34766C27.2741 1.45964 32.2546 0.515625 37.6582 0.515625C41.1738 0.515625 44.4616 0.841146 47.5215 1.49219C50.5814 2.14323 53.2832 3.00586 55.627 4.08008C58.0033 5.12174 59.9401 6.22852 61.4375 7.40039L58.5078 22.7324L57.0918 22.6348C56.9941 17.8496 56.2129 14.0247 54.748 11.1602C53.2832 8.26302 51.2487 6.16341 48.6445 4.86133C46.0729 3.55924 43.0293 2.9082 39.5137 2.9082C36.1283 2.9082 32.9707 3.55924 30.041 4.86133C27.1113 6.13086 24.4583 7.97005 22.082 10.3789C19.7383 12.7552 17.7201 15.5872 16.0273 18.875C14.3672 22.1628 13.0977 25.8249 12.2188 29.8613C11.3398 33.8978 10.9004 38.1947 10.9004 42.752C10.9004 47.9277 11.7305 52.6152 13.3906 56.8145C15.0833 61.0137 17.4271 64.3665 20.4219 66.873C23.4492 69.347 26.9323 70.584 30.8711 70.584ZM103.723 72H57.4336L57.8242 70.3398C59.7773 70.112 61.2585 69.819 62.2676 69.4609C63.2767 69.0703 64.0091 68.4681 64.4648 67.6543C64.9531 66.8405 65.36 65.6849 65.6855 64.1875L77.3555 9.30469C77.681 7.77474 77.7786 6.60286 77.6484 5.78906C77.5508 4.97526 77.0625 4.38932 76.1836 4.03125C75.3372 3.64062 73.9701 3.34766 72.082 3.15234L72.4238 1.49219H95.5684L95.2266 3.10352C93.2083 3.33138 91.6621 3.64062 90.5879 4.03125C89.5462 4.42188 88.7812 5.02409 88.293 5.83789C87.8047 6.61914 87.3978 7.77474 87.0723 9.30469L74.1328 70.0957L84.6309 69.6562C87.6582 69.526 90.2949 69.168 92.541 68.582C94.7871 67.9961 96.7728 67.0684 98.498 65.7988C100.223 64.5293 101.786 62.8529 103.186 60.7695C104.585 58.6862 105.952 56.0983 107.287 53.0059H108.752L103.723 72ZM148.791 72.8789C144.331 72.8789 140.262 72.1465 136.584 70.6816C132.906 69.1842 129.732 67.0521 127.062 64.2852C124.393 61.5182 122.326 58.2142 120.861 54.373C119.429 50.5319 118.697 46.235 118.664 41.4824C118.664 35.9486 119.559 30.724 121.35 25.8086C123.14 20.8932 125.679 16.5475 128.967 12.7715C132.255 8.96289 136.112 5.98438 140.539 3.83594C144.999 1.6875 149.865 0.613281 155.139 0.613281C159.598 0.613281 163.667 1.36198 167.346 2.85938C171.024 4.32422 174.198 6.4401 176.867 9.20703C179.536 11.974 181.604 15.2943 183.068 19.168C184.533 23.0091 185.266 27.2897 185.266 32.0098C185.266 37.5436 184.354 42.7845 182.531 47.7324C180.741 52.6478 178.202 56.9935 174.914 60.7695C171.659 64.5456 167.801 67.5078 163.342 69.6562C158.915 71.8047 154.064 72.8789 148.791 72.8789ZM147.863 70.4863C151.672 70.4863 155.188 69.3958 158.41 67.2148C161.665 65.0339 164.497 62.0228 166.906 58.1816C169.348 54.3405 171.252 49.9134 172.619 44.9004C173.986 39.8548 174.67 34.4674 174.67 28.7383C174.67 20.4049 172.961 14.041 169.543 9.64648C166.125 5.25195 161.633 3.05469 156.066 3.05469C151.997 3.05469 148.319 4.25911 145.031 6.66797C141.743 9.04427 138.928 12.2344 136.584 16.2383C134.24 20.2422 132.434 24.7181 131.164 29.666C129.895 34.6139 129.26 39.6432 129.26 44.7539C129.26 53.1198 130.952 59.5 134.338 63.8945C137.756 68.2891 142.264 70.4863 147.863 70.4863ZM210.119 73.0254C207.482 73.0254 204.797 72.7812 202.062 72.293C199.328 71.8372 196.805 71.2188 194.494 70.4375C192.215 69.6237 190.425 68.7122 189.123 67.7031L191.613 52.3711H193.029C193.094 56.6354 193.843 60.1185 195.275 62.8203C196.74 65.4896 198.726 67.459 201.232 68.7285C203.739 69.998 206.587 70.6328 209.777 70.6328C212.544 70.6328 215.083 70.112 217.395 69.0703C219.706 67.9961 221.561 66.4336 222.961 64.3828C224.393 62.332 225.109 59.8581 225.109 56.9609C225.109 54.0964 224.458 51.4922 223.156 49.1484C221.854 46.8047 219.592 44.4772 216.369 42.166L210.705 37.9668C206.896 35.265 203.983 32.4329 201.965 29.4707C199.947 26.5085 198.938 23.237 198.938 19.6562C198.938 15.7174 199.898 12.3158 201.818 9.45117C203.771 6.58659 206.457 4.37305 209.875 2.81055C213.293 1.24805 217.215 0.466797 221.643 0.466797C226.167 0.466797 230.025 1.03646 233.215 2.17578C236.438 3.28255 238.944 4.61719 240.734 6.17969L238.439 21.6094H237.023C236.828 15.457 235.412 10.8021 232.775 7.64453C230.139 4.48698 226.542 2.9082 221.984 2.9082C217.655 2.9082 214.221 4.03125 211.682 6.27734C209.143 8.52344 207.873 11.5833 207.873 15.457C207.873 17.9961 208.54 20.3561 209.875 22.5371C211.21 24.6855 213.488 26.8991 216.711 29.1777L222.326 33.3281C226.46 36.2904 229.455 39.3014 231.311 42.3613C233.166 45.3887 234.094 48.709 234.094 52.3223C234.094 55.6426 233.443 58.5885 232.141 61.1602C230.839 63.7318 229.064 65.9128 226.818 67.7031C224.605 69.4609 222.049 70.7956 219.152 71.707C216.255 72.5859 213.244 73.0254 210.119 73.0254ZM299.914 1.49219L297.18 17.9473H295.764C295.568 14.1712 295.015 11.3066 294.104 9.35352C293.225 7.40039 291.662 6.04948 289.416 5.30078C287.17 4.51953 283.964 4.03125 279.797 3.83594L269.348 3.39648L262.609 34.8906L274.621 34.6953C276.704 34.6302 278.381 34.321 279.65 33.7676C280.952 33.2142 282.059 32.2865 282.971 30.9844C283.882 29.6497 284.81 27.7943 285.754 25.418H287.17L282.531 47.1465H281.164C281.197 44.6074 281.066 42.6217 280.773 41.1895C280.48 39.7246 279.813 38.6829 278.771 38.0645C277.762 37.446 276.232 37.1042 274.182 37.0391L262.219 36.8438L255.188 70.0957L266.613 69.6562C270.194 69.4935 273.221 69.168 275.695 68.6797C278.202 68.1589 280.318 67.3288 282.043 66.1895C283.801 65.0501 285.363 63.4714 286.73 61.4531C288.098 59.4349 289.432 56.847 290.734 53.6895H292.199L287.463 72H238.488L238.83 70.3398C240.751 70.1445 242.215 69.8516 243.225 69.4609C244.266 69.0703 245.015 68.4681 245.471 67.6543C245.959 66.8405 246.366 65.6849 246.691 64.1875L258.361 9.30469C258.687 7.80729 258.785 6.65169 258.654 5.83789C258.524 5.02409 258.02 4.42188 257.141 4.03125C256.294 3.64062 254.943 3.34766 253.088 3.15234L253.43 1.49219H299.914ZM354.895 18.875C354.895 22.5534 354.016 25.7109 352.258 28.3477C350.533 30.9518 348.14 33.084 345.08 34.7441C342.053 36.4043 338.586 37.625 334.68 38.4062C330.806 39.1875 326.721 39.5781 322.424 39.5781H317.053L311.877 64.1875C311.551 65.7174 311.438 66.8893 311.535 67.7031C311.665 68.5169 312.137 69.1191 312.951 69.5098C313.798 69.8678 315.1 70.1445 316.857 70.3398L316.516 72H293.957L294.299 70.3398C296.219 70.1445 297.684 69.8678 298.693 69.5098C299.702 69.1191 300.435 68.5169 300.891 67.7031C301.379 66.8893 301.802 65.7174 302.16 64.1875L313.83 9.30469C314.156 7.77474 314.237 6.60286 314.074 5.78906C313.944 4.97526 313.456 4.38932 312.609 4.03125C311.763 3.64062 310.412 3.34766 308.557 3.15234L308.898 1.49219H331.164C338.781 1.49219 344.641 3.05469 348.742 6.17969C352.844 9.27214 354.895 13.5039 354.895 18.875ZM344.934 19.1191C344.934 14.5293 343.632 10.8346 341.027 8.03516C338.423 5.23568 334.729 3.73828 329.943 3.54297L324.816 3.39648L317.443 37.6738L322.912 37.4785C327.502 37.3483 331.441 36.5508 334.729 35.0859C338.016 33.6211 340.539 31.554 342.297 28.8848C344.055 26.2155 344.934 22.9603 344.934 19.1191ZM339.709 72L327.16 38.6016C327.583 38.5365 328.186 38.4388 328.967 38.3086C329.748 38.1458 330.578 37.9831 331.457 37.8203C332.368 37.625 333.199 37.4297 333.947 37.2344C334.729 37.0391 335.331 36.8438 335.754 36.6484L343.322 56.668C344.657 60.1836 345.796 62.8691 346.74 64.7246C347.684 66.5801 348.579 67.9147 349.426 68.7285C350.305 69.5423 351.298 70.1283 352.404 70.4863L352.062 72H339.709Z" fill="#AF001B"/>
</svg>
